<svg width="100%" height="100%" viewBox="0 0 247 346" fill="none"
    xmlns="http://www.w3.org/2000/svg">
    <rect y="40" width="247" height="306" fill="#D9D9D9"/>
    <rect y="40" width="247" height="128" fill="url(#paint0_linear_161_1000)"/>
    <rect y="40" width="247" height="128" fill="url(#paint1_radial_161_1000)"/>
    <rect x="208" y="52" width="19" height="19" rx="9.5" stroke="white" stroke-width="2"/>
    <rect x="12" y="184" width="227" height="11" rx="5.5" fill="url(#paint2_linear_161_1000)"/>
    <rect x="114" y="180" width="19" height="19" rx="9.5" stroke="white" stroke-width="2"/>
    <rect x="12" y="211" width="227" height="11" rx="5.5"/>
    <rect x="12" y="211" width="227" height="11" rx="5.5" fill="url(#paint3_linear_161_1000)"/>
    <rect x="114" y="207" width="19" height="19" rx="9.5" stroke="white" stroke-width="2"/>
    <circle cx="35" cy="306" r="23"/>
    <circle cx="35" cy="306" r="23" fill="#1AB487" fill-opacity="0.5"/>
    <rect x="68.5" y="288.5" width="167" height="34" rx="9.5" fill="#D9D9D9" stroke="#7E7E7E"/>
    <path d="M81.665 311L82.865 301.25H84.125L82.94 311H81.665ZM78.83 311L80.03 301.25H81.29L80.105 311H78.83ZM78.35 305.135V303.725H85.01V305.135H78.35ZM78.05 308.195V306.785H84.71V308.195H78.05ZM87.1791 311V309.215H89.7441V303.71H87.6291V302.345C88.0591 302.275 88.4291 302.205 88.7391 302.135C89.0591 302.055 89.3441 301.965 89.5941 301.865C89.8441 301.755 90.0891 301.625 90.3291 301.475H91.9491V309.215H94.1091V311H87.1791ZM95.1233 311L98.1683 301.22H100.808L103.853 311H101.513L100.253 306.05C100.133 305.56 100.003 305.04 99.8633 304.49C99.7233 303.94 99.5933 303.41 99.4733 302.9H99.4133C99.2933 303.41 99.1683 303.94 99.0383 304.49C98.9083 305.04 98.7783 305.56 98.6483 306.05L97.3733 311H95.1233ZM97.1333 308.675V306.95H101.813V308.675H97.1333ZM105.092 311V301.22H108.377C109.057 301.22 109.667 301.295 110.207 301.445C110.747 301.585 111.172 301.83 111.482 302.18C111.802 302.53 111.962 303.02 111.962 303.65C111.962 304.09 111.827 304.515 111.557 304.925C111.287 305.335 110.862 305.615 110.282 305.765V305.825C110.982 305.945 111.512 306.195 111.872 306.575C112.232 306.945 112.412 307.46 112.412 308.12C112.412 308.78 112.247 309.325 111.917 309.755C111.587 310.175 111.137 310.49 110.567 310.7C110.007 310.9 109.372 311 108.662 311H105.092ZM107.297 305.15H108.272C108.812 305.15 109.202 305.045 109.442 304.835C109.682 304.615 109.802 304.32 109.802 303.95C109.802 303.59 109.677 303.335 109.427 303.185C109.187 303.025 108.807 302.945 108.287 302.945H107.297V305.15ZM107.297 309.275H108.482C109.082 309.275 109.527 309.165 109.817 308.945C110.107 308.725 110.252 308.395 110.252 307.955C110.252 307.525 110.107 307.215 109.817 307.025C109.527 306.835 109.082 306.74 108.482 306.74H107.297V309.275ZM118.092 311V305.435C118.092 305.135 118.102 304.79 118.122 304.4C118.142 304 118.157 303.65 118.167 303.35H118.107C117.947 303.61 117.772 303.875 117.582 304.145C117.402 304.415 117.232 304.69 117.072 304.97L115.632 307.04H121.347V308.72H113.502V307.205L117.477 301.475H120.147V311H118.092ZM126.456 311.18C125.726 311.18 125.091 311.07 124.551 310.85C124.011 310.63 123.596 310.325 123.306 309.935C123.026 309.535 122.886 309.08 122.886 308.57C122.886 308.18 122.966 307.84 123.126 307.55C123.296 307.26 123.516 307.01 123.786 306.8C124.056 306.58 124.356 306.39 124.686 306.23V306.17C124.286 305.89 123.951 305.57 123.681 305.21C123.421 304.85 123.291 304.42 123.291 303.92C123.291 303.38 123.426 302.915 123.696 302.525C123.976 302.125 124.361 301.82 124.851 301.61C125.341 301.4 125.901 301.295 126.531 301.295C127.481 301.295 128.236 301.535 128.796 302.015C129.366 302.485 129.651 303.115 129.651 303.905C129.651 304.345 129.516 304.745 129.246 305.105C128.976 305.455 128.656 305.75 128.286 305.99V306.05C128.626 306.21 128.931 306.405 129.201 306.635C129.471 306.855 129.681 307.12 129.831 307.43C129.991 307.74 130.071 308.11 130.071 308.54C130.071 309.04 129.931 309.49 129.651 309.89C129.371 310.28 128.961 310.595 128.421 310.835C127.891 311.065 127.236 311.18 126.456 311.18ZM127.116 305.45C127.596 305.01 127.836 304.545 127.836 304.055C127.836 303.805 127.781 303.59 127.671 303.41C127.571 303.23 127.421 303.09 127.221 302.99C127.021 302.88 126.776 302.825 126.486 302.825C126.136 302.825 125.836 302.92 125.586 303.11C125.346 303.29 125.226 303.56 125.226 303.92C125.226 304.18 125.306 304.4 125.466 304.58C125.626 304.76 125.846 304.92 126.126 305.06C126.416 305.2 126.746 305.33 127.116 305.45ZM126.516 309.65C126.966 309.65 127.326 309.555 127.596 309.365C127.876 309.165 128.016 308.865 128.016 308.465C128.016 308.255 127.961 308.07 127.851 307.91C127.741 307.75 127.581 307.61 127.371 307.49C127.171 307.37 126.931 307.26 126.651 307.16C126.371 307.05 126.061 306.93 125.721 306.8C125.541 306.93 125.381 307.075 125.241 307.235C125.101 307.385 124.991 307.555 124.911 307.745C124.831 307.925 124.791 308.115 124.791 308.315C124.791 308.595 124.866 308.835 125.016 309.035C125.166 309.235 125.371 309.39 125.631 309.5C125.891 309.6 126.186 309.65 126.516 309.65ZM133.86 311C133.9 310.21 133.975 309.48 134.085 308.81C134.205 308.14 134.37 307.51 134.58 306.92C134.8 306.32 135.08 305.73 135.42 305.15C135.76 304.56 136.18 303.955 136.68 303.335H131.895V301.475H139.05V302.825C138.45 303.495 137.965 304.125 137.595 304.715C137.225 305.305 136.935 305.905 136.725 306.515C136.525 307.125 136.375 307.795 136.275 308.525C136.185 309.245 136.12 310.07 136.08 311H133.86ZM144.444 311.18C143.714 311.18 143.079 311.07 142.539 310.85C141.999 310.63 141.584 310.325 141.294 309.935C141.014 309.535 140.874 309.08 140.874 308.57C140.874 308.18 140.954 307.84 141.114 307.55C141.284 307.26 141.504 307.01 141.774 306.8C142.044 306.58 142.344 306.39 142.674 306.23V306.17C142.274 305.89 141.939 305.57 141.669 305.21C141.409 304.85 141.279 304.42 141.279 303.92C141.279 303.38 141.414 302.915 141.684 302.525C141.964 302.125 142.349 301.82 142.839 301.61C143.329 301.4 143.889 301.295 144.519 301.295C145.469 301.295 146.224 301.535 146.784 302.015C147.354 302.485 147.639 303.115 147.639 303.905C147.639 304.345 147.504 304.745 147.234 305.105C146.964 305.455 146.644 305.75 146.274 305.99V306.05C146.614 306.21 146.919 306.405 147.189 306.635C147.459 306.855 147.669 307.12 147.819 307.43C147.979 307.74 148.059 308.11 148.059 308.54C148.059 309.04 147.919 309.49 147.639 309.89C147.359 310.28 146.949 310.595 146.409 310.835C145.879 311.065 145.224 311.18 144.444 311.18ZM145.104 305.45C145.584 305.01 145.824 304.545 145.824 304.055C145.824 303.805 145.769 303.59 145.659 303.41C145.559 303.23 145.409 303.09 145.209 302.99C145.009 302.88 144.764 302.825 144.474 302.825C144.124 302.825 143.824 302.92 143.574 303.11C143.334 303.29 143.214 303.56 143.214 303.92C143.214 304.18 143.294 304.4 143.454 304.58C143.614 304.76 143.834 304.92 144.114 305.06C144.404 305.2 144.734 305.33 145.104 305.45ZM144.504 309.65C144.954 309.65 145.314 309.555 145.584 309.365C145.864 309.165 146.004 308.865 146.004 308.465C146.004 308.255 145.949 308.07 145.839 307.91C145.729 307.75 145.569 307.61 145.359 307.49C145.159 307.37 144.919 307.26 144.639 307.16C144.359 307.05 144.049 306.93 143.709 306.8C143.529 306.93 143.369 307.075 143.229 307.235C143.089 307.385 142.979 307.555 142.899 307.745C142.819 307.925 142.779 308.115 142.779 308.315C142.779 308.595 142.854 308.835 143.004 309.035C143.154 309.235 143.359 309.39 143.619 309.5C143.879 309.6 144.174 309.65 144.504 309.65ZM153.453 311.18C152.723 311.18 152.083 310.99 151.533 310.61C150.983 310.22 150.553 309.655 150.243 308.915C149.943 308.175 149.793 307.27 149.793 306.2C149.793 304.57 150.128 303.345 150.798 302.525C151.468 301.705 152.353 301.295 153.453 301.295C154.563 301.295 155.448 301.705 156.108 302.525C156.778 303.345 157.113 304.57 157.113 306.2C157.113 307.27 156.958 308.175 156.648 308.915C156.348 309.655 155.923 310.22 155.373 310.61C154.833 310.99 154.193 311.18 153.453 311.18ZM153.453 309.47C153.773 309.47 154.058 309.37 154.308 309.17C154.568 308.97 154.773 308.63 154.923 308.15C155.073 307.67 155.148 307.02 155.148 306.2C155.148 305.37 155.073 304.725 154.923 304.265C154.773 303.795 154.568 303.47 154.308 303.29C154.058 303.1 153.773 303.005 153.453 303.005C153.143 303.005 152.858 303.1 152.598 303.29C152.338 303.47 152.133 303.795 151.983 304.265C151.833 304.725 151.758 305.37 151.758 306.2C151.758 307.02 151.833 307.67 151.983 308.15C152.133 308.63 152.338 308.97 152.598 309.17C152.858 309.37 153.143 309.47 153.453 309.47ZM153.453 307.31C153.143 307.31 152.878 307.205 152.658 306.995C152.438 306.785 152.328 306.51 152.328 306.17C152.328 305.82 152.438 305.545 152.658 305.345C152.878 305.135 153.143 305.03 153.453 305.03C153.773 305.03 154.038 305.135 154.248 305.345C154.468 305.545 154.578 305.82 154.578 306.17C154.578 306.51 154.468 306.785 154.248 306.995C154.038 307.205 153.773 307.31 153.453 307.31Z" fill="#303030"/>
    <rect x="59" y="244" width="130" height="26.5714" rx="6" stroke="#00DA9A" stroke-width="2"/>
    <g filter="url(#filter0_d_161_1000)">
        <rect x="58" y="243.571" width="68.5714" height="27.4286" rx="7" fill="#00DA9A"/>
    </g>
    <path d="M81.8014 262.087V254.263H83.5654V257.287H85.7014V254.263H87.4654V262.087H85.7014V258.823H83.5654V262.087H81.8014ZM89.3328 262.087V254.263H94.5168V255.751H91.1088V257.323H94.0008V258.799H91.1088V260.599H94.6368V262.087H89.3328ZM95.6401 262.087L97.9201 258.067L95.7721 254.263H97.7521L98.5081 255.739C98.5961 255.915 98.6881 256.107 98.7841 256.315C98.8801 256.523 98.9881 256.751 99.1081 256.999H99.1561C99.2441 256.751 99.3321 256.523 99.4201 256.315C99.5081 256.107 99.5961 255.915 99.6841 255.739L100.38 254.263H102.276L100.128 258.151L102.408 262.087H100.44L99.5881 260.491C99.4841 260.283 99.3801 260.079 99.2761 259.879C99.1801 259.671 99.0761 259.447 98.9641 259.207H98.9161C98.8201 259.447 98.7241 259.671 98.6281 259.879C98.5321 260.079 98.4361 260.283 98.3401 260.491L97.5241 262.087H95.6401Z" fill="white"/>
    <path d="M141.229 262.087V254.263H144.001C144.553 254.263 145.057 254.339 145.513 254.491C145.969 254.635 146.333 254.887 146.605 255.247C146.885 255.599 147.025 256.083 147.025 256.699C147.025 257.299 146.885 257.787 146.605 258.163C146.333 258.539 145.969 258.819 145.513 259.003C145.057 259.179 144.553 259.267 144.001 259.267H142.993V262.087H141.229ZM142.993 257.863H143.857C144.321 257.863 144.673 257.767 144.913 257.575C145.161 257.375 145.285 257.083 145.285 256.699C145.285 256.315 145.161 256.047 144.913 255.895C144.673 255.743 144.321 255.667 143.857 255.667H142.993V257.863ZM143.677 258.811L144.901 257.671L147.397 262.087H145.417L143.677 258.811ZM151.7 262.231C151.036 262.231 150.432 262.083 149.888 261.787C149.344 261.483 148.912 261.035 148.592 260.443C148.272 259.843 148.112 259.103 148.112 258.223C148.112 257.351 148.272 256.611 148.592 256.003C148.912 255.387 149.344 254.919 149.888 254.599C150.44 254.279 151.052 254.119 151.724 254.119C152.252 254.119 152.704 254.223 153.08 254.431C153.456 254.631 153.768 254.859 154.016 255.115L153.044 256.207C152.876 256.039 152.692 255.903 152.492 255.799C152.292 255.695 152.036 255.643 151.724 255.643C151.388 255.643 151.084 255.747 150.812 255.955C150.54 256.155 150.324 256.443 150.164 256.819C150.012 257.195 149.936 257.643 149.936 258.163C149.936 258.699 150.004 259.159 150.14 259.543C150.276 259.919 150.484 260.207 150.764 260.407C151.044 260.607 151.388 260.707 151.796 260.707C151.948 260.707 152.092 260.687 152.228 260.647C152.372 260.607 152.484 260.547 152.564 260.467V259.123H151.424V257.683H154.148V261.283C153.884 261.531 153.532 261.751 153.092 261.943C152.66 262.135 152.196 262.231 151.7 262.231ZM155.668 262.087V254.263H158.296C158.84 254.263 159.328 254.323 159.76 254.443C160.192 254.555 160.532 254.751 160.78 255.031C161.036 255.311 161.164 255.703 161.164 256.207C161.164 256.559 161.056 256.899 160.84 257.227C160.624 257.555 160.284 257.779 159.82 257.899V257.947C160.38 258.043 160.804 258.243 161.092 258.547C161.38 258.843 161.524 259.255 161.524 259.783C161.524 260.311 161.392 260.747 161.128 261.091C160.864 261.427 160.504 261.679 160.048 261.847C159.6 262.007 159.092 262.087 158.524 262.087H155.668ZM157.432 257.407H158.212C158.644 257.407 158.956 257.323 159.148 257.155C159.34 256.979 159.436 256.743 159.436 256.447C159.436 256.159 159.336 255.955 159.136 255.835C158.944 255.707 158.64 255.643 158.224 255.643H157.432V257.407ZM157.432 260.707H158.38C158.86 260.707 159.216 260.619 159.448 260.443C159.68 260.267 159.796 260.003 159.796 259.651C159.796 259.307 159.68 259.059 159.448 258.907C159.216 258.755 158.86 258.679 158.38 258.679H157.432V260.707ZM162.083 262.087L164.519 254.263H166.631L169.067 262.087H167.195L166.187 258.127C166.091 257.735 165.987 257.319 165.875 256.879C165.763 256.439 165.659 256.015 165.563 255.607H165.515C165.419 256.015 165.319 256.439 165.215 256.879C165.111 257.319 165.007 257.735 164.903 258.127L163.883 262.087H162.083ZM163.691 260.227V258.847H167.435V260.227H163.691Z" fill="#303030"/>
    <path d="M19.767 25.384C18.4657 25.384 17.2283 25.16 16.055 24.712C14.903 24.264 13.879 23.592 12.983 22.696C12.087 21.7787 11.383 20.6587 10.871 19.336C10.359 17.992 10.103 16.4453 10.103 14.696C10.103 12.392 10.5403 10.4293 11.415 8.808C12.311 7.16533 13.5057 5.91733 14.999 5.064C16.5137 4.18933 18.199 3.752 20.055 3.752C21.3777 3.752 22.5723 4.02933 23.639 4.584C24.7057 5.11733 25.591 5.72533 26.295 6.408L23.703 9.32C23.2123 8.85067 22.6683 8.488 22.071 8.232C21.495 7.95467 20.823 7.816 20.055 7.816C19.0737 7.816 18.199 8.09333 17.431 8.648C16.663 9.18133 16.055 9.94933 15.607 10.952C15.159 11.9547 14.935 13.1493 14.935 14.536C14.935 15.9653 15.159 17.192 15.607 18.216C16.055 19.2187 16.6737 19.9867 17.463 20.52C18.2737 21.0533 19.2017 21.32 20.247 21.32C21.015 21.32 21.7083 21.1493 22.327 20.808C22.9457 20.4667 23.511 20.0187 24.023 19.464L26.615 22.312C25.7617 23.3147 24.759 24.0827 23.607 24.616C22.455 25.128 21.175 25.384 19.767 25.384ZM37.1625 25.384C35.7758 25.384 34.4638 25.064 33.2265 24.424C31.9892 23.7627 30.9865 22.8133 30.2185 21.576C29.4505 20.3173 29.0665 18.8133 29.0665 17.064C29.0665 15.3147 29.4505 13.8213 30.2185 12.584C30.9865 11.3253 31.9892 10.376 33.2265 9.736C34.4638 9.07467 35.7758 8.744 37.1625 8.744C38.5492 8.744 39.8612 9.07467 41.0985 9.736C42.3358 10.376 43.3385 11.3253 44.1065 12.584C44.8745 13.8213 45.2585 15.3147 45.2585 17.064C45.2585 18.8133 44.8745 20.3173 44.1065 21.576C43.3385 22.8133 42.3358 23.7627 41.0985 24.424C39.8612 25.064 38.5492 25.384 37.1625 25.384ZM37.1625 21.576C37.8878 21.576 38.4852 21.3947 38.9545 21.032C39.4452 20.6693 39.8078 20.1467 40.0425 19.464C40.2985 18.7813 40.4265 17.9813 40.4265 17.064C40.4265 16.1467 40.2985 15.3467 40.0425 14.664C39.8078 13.9813 39.4452 13.4587 38.9545 13.096C38.4852 12.7333 37.8878 12.552 37.1625 12.552C36.4372 12.552 35.8292 12.7333 35.3385 13.096C34.8692 13.4587 34.5065 13.9813 34.2505 14.664C34.0158 15.3467 33.8985 16.1467 33.8985 17.064C33.8985 17.9813 34.0158 18.7813 34.2505 19.464C34.5065 20.1467 34.8692 20.6693 35.3385 21.032C35.8292 21.3947 36.4372 21.576 37.1625 21.576ZM59.39 25.384C57.406 25.384 55.902 24.7867 54.878 23.592C53.854 22.3973 53.342 20.7973 53.342 18.792V6.28H48.382V2.6H58.046V18.984C58.046 19.9653 58.3127 20.648 58.846 21.032C59.3793 21.3947 59.966 21.576 60.606 21.576C60.99 21.576 61.374 21.5333 61.758 21.448C62.1633 21.3627 62.6113 21.2347 63.102 21.064L64.126 24.52C63.3153 24.776 62.5687 24.9787 61.886 25.128C61.2247 25.2987 60.3927 25.384 59.39 25.384ZM75.5375 25.384C74.1508 25.384 72.8388 25.064 71.6015 24.424C70.3642 23.7627 69.3615 22.8133 68.5935 21.576C67.8255 20.3173 67.4415 18.8133 67.4415 17.064C67.4415 15.3147 67.8255 13.8213 68.5935 12.584C69.3615 11.3253 70.3642 10.376 71.6015 9.736C72.8388 9.07467 74.1508 8.744 75.5375 8.744C76.9242 8.744 78.2362 9.07467 79.4735 9.736C80.7108 10.376 81.7135 11.3253 82.4815 12.584C83.2495 13.8213 83.6335 15.3147 83.6335 17.064C83.6335 18.8133 83.2495 20.3173 82.4815 21.576C81.7135 22.8133 80.7108 23.7627 79.4735 24.424C78.2362 25.064 76.9242 25.384 75.5375 25.384ZM75.5375 21.576C76.2628 21.576 76.8602 21.3947 77.3295 21.032C77.8202 20.6693 78.1828 20.1467 78.4175 19.464C78.6735 18.7813 78.8015 17.9813 78.8015 17.064C78.8015 16.1467 78.6735 15.3467 78.4175 14.664C78.1828 13.9813 77.8202 13.4587 77.3295 13.096C76.8602 12.7333 76.2628 12.552 75.5375 12.552C74.8122 12.552 74.2042 12.7333 73.7135 13.096C73.2442 13.4587 72.8815 13.9813 72.6255 14.664C72.3908 15.3467 72.2735 16.1467 72.2735 17.064C72.2735 17.9813 72.3908 18.7813 72.6255 19.464C72.8815 20.1467 73.2442 20.6693 73.7135 21.032C74.2042 21.3947 74.8122 21.576 75.5375 21.576ZM88.837 25V9.128H92.677L93.061 12.584H93.157C93.9463 11.2827 94.8957 10.3227 96.005 9.704C97.1357 9.064 98.3303 8.744 99.589 8.744C100.293 8.744 100.858 8.79733 101.285 8.904C101.733 9.01067 102.192 9.17067 102.661 9.384L101.701 13.32C101.21 13.1707 100.762 13.064 100.357 13C99.973 12.9147 99.4823 12.872 98.885 12.872C97.9037 12.872 96.933 13.16 95.973 13.736C95.0343 14.312 94.2237 15.3147 93.541 16.744V25H88.837ZM125.9 25V4.136H133.292C134.807 4.136 136.172 4.34933 137.388 4.776C138.625 5.18133 139.607 5.87467 140.332 6.856C141.079 7.83733 141.452 9.17067 141.452 10.856C141.452 12.4773 141.079 13.8107 140.332 14.856C139.585 15.9013 138.593 16.68 137.356 17.192C136.119 17.6827 134.764 17.928 133.292 17.928H130.604V25H125.9ZM130.604 14.184H133.004C134.305 14.184 135.265 13.896 135.884 13.32C136.524 12.744 136.844 11.9227 136.844 10.856C136.844 9.74667 136.513 8.97867 135.852 8.552C135.212 8.104 134.263 7.88 133.004 7.88H130.604V14.184ZM151.584 25V12.808H145.184V9.128H156.288V25H151.584ZM153.728 6.632C152.832 6.632 152.085 6.376 151.488 5.864C150.89 5.33067 150.592 4.63733 150.592 3.784C150.592 2.90933 150.89 2.20533 151.488 1.672C152.085 1.11733 152.832 0.839998 153.728 0.839998C154.645 0.839998 155.392 1.11733 155.968 1.672C156.565 2.20533 156.864 2.90933 156.864 3.784C156.864 4.63733 156.565 5.33067 155.968 5.864C155.392 6.376 154.645 6.632 153.728 6.632ZM172.851 25.384C171.187 25.384 169.683 25.064 168.339 24.424C167.016 23.7627 165.96 22.8133 165.171 21.576C164.403 20.3173 164.019 18.8133 164.019 17.064C164.019 15.3147 164.446 13.8213 165.299 12.584C166.152 11.3253 167.272 10.376 168.659 9.736C170.067 9.07467 171.582 8.744 173.203 8.744C174.462 8.744 175.603 8.94667 176.627 9.352C177.651 9.736 178.494 10.248 179.155 10.888L176.979 13.8C176.36 13.3733 175.763 13.064 175.187 12.872C174.632 12.6587 174.056 12.552 173.459 12.552C172.563 12.552 171.763 12.7333 171.059 13.096C170.355 13.4587 169.811 13.9813 169.427 14.664C169.043 15.3467 168.851 16.1467 168.851 17.064C168.851 17.9813 169.032 18.7813 169.395 19.464C169.779 20.1467 170.302 20.6693 170.963 21.032C171.646 21.3947 172.424 21.576 173.299 21.576C174.131 21.576 174.888 21.4267 175.571 21.128C176.275 20.8293 176.915 20.4773 177.491 20.072L179.379 23.048C178.44 23.8373 177.384 24.424 176.211 24.808C175.059 25.192 173.939 25.384 172.851 25.384ZM183.495 25V2.568H188.199V15.528H188.327L194.151 9.128H199.303L188.199 21V25H183.495ZM194.695 25L190.087 17.8L192.775 14.888L199.783 25H194.695ZM210.81 25.384C209.167 25.384 207.674 25.064 206.33 24.424C205.007 23.7627 203.951 22.8133 203.162 21.576C202.394 20.3173 202.01 18.8133 202.01 17.064C202.01 15.336 202.405 13.8533 203.194 12.616C203.983 11.3573 205.007 10.3973 206.266 9.736C207.525 9.07467 208.858 8.744 210.266 8.744C211.909 8.744 213.285 9.08533 214.394 9.768C215.503 10.4293 216.335 11.336 216.89 12.488C217.466 13.6187 217.754 14.9093 217.754 16.36C217.754 16.7867 217.722 17.2027 217.658 17.608C217.615 17.992 217.573 18.28 217.53 18.472H205.498V15.304H214.362L213.626 16.2C213.626 14.92 213.349 13.96 212.794 13.32C212.261 12.6587 211.471 12.328 210.426 12.328C209.658 12.328 208.986 12.4987 208.41 12.84C207.834 13.1813 207.386 13.704 207.066 14.408C206.746 15.112 206.586 15.9973 206.586 17.064C206.586 18.152 206.778 19.048 207.162 19.752C207.546 20.4347 208.101 20.9467 208.826 21.288C209.551 21.6293 210.426 21.8 211.45 21.8C212.175 21.8 212.858 21.704 213.498 21.512C214.159 21.32 214.842 21.0427 215.546 20.68L217.114 23.528C216.197 24.104 215.183 24.5627 214.074 24.904C212.965 25.224 211.877 25.384 210.81 25.384ZM223.15 25V9.128H226.99L227.374 12.584H227.47C228.259 11.2827 229.208 10.3227 230.318 9.704C231.448 9.064 232.643 8.744 233.902 8.744C234.606 8.744 235.171 8.79733 235.597 8.904C236.046 9.01067 236.504 9.17067 236.974 9.384L236.014 13.32C235.523 13.1707 235.075 13.064 234.67 13C234.286 12.9147 233.795 12.872 233.198 12.872C232.216 12.872 231.246 13.16 230.286 13.736C229.347 14.312 228.536 15.3147 227.854 16.744V25H223.15Z" fill="#00DA9A"/>
    <defs>
        <filter id="filter0_d_161_1000" x="53" y="238.571" width="78.5715" height="37.4286" filterUnits="userSpaceOnUse" color-interpolation-filters="sRGB">
            <feFlood flood-opacity="0" result="BackgroundImageFix"/>
            <feColorMatrix in="SourceAlpha" type="matrix" values="0 0 0 0 0 0 0 0 0 0 0 0 0 0 0 0 0 0 127 0" result="hardAlpha"/>
            <feMorphology radius="1" operator="dilate" in="SourceAlpha" result="effect1_dropShadow_161_1000"/>
            <feOffset/>
            <feGaussianBlur stdDeviation="2"/>
            <feComposite in2="hardAlpha" operator="out"/>
            <feColorMatrix type="matrix" values="0 0 0 0 0 0 0 0 0 0 0 0 0 0 0 0 0 0 0.25 0"/>
            <feBlend mode="normal" in2="BackgroundImageFix" result="effect1_dropShadow_161_1000"/>
            <feBlend mode="normal" in="SourceGraphic" in2="effect1_dropShadow_161_1000" result="shape"/>
        </filter>
        <linearGradient id="paint0_linear_161_1000" x1="247" y1="40" x2="0" y2="40" gradientUnits="userSpaceOnUse">
            <stop stop-color="#00CF92"/>
            <stop offset="1" stop-color="white"/>
        </linearGradient>
        <radialGradient id="paint1_radial_161_1000" cx="0" cy="0" r="1" gradientUnits="userSpaceOnUse" gradientTransform="translate(133.5 168) rotate(179.484) scale(887.536 128.005)">
            <stop/>
            <stop offset="1" stop-opacity="0"/>
        </radialGradient>
        <linearGradient id="paint2_linear_161_1000" x1="12" y1="189.5" x2="239" y2="189.5" gradientUnits="userSpaceOnUse">
            <stop stop-color="#FF0000"/>
            <stop offset="0.25" stop-color="#FFE600"/>
            <stop offset="0.5" stop-color="#80F204"/>
            <stop offset="0.75" stop-color="#1500FF"/>
            <stop offset="1" stop-color="#FF0004"/>
        </linearGradient>
        <linearGradient id="paint3_linear_161_1000" x1="12" y1="216.5" x2="239" y2="216.5" gradientUnits="userSpaceOnUse">
            <stop stop-color="white" stop-opacity="0"/>
            <stop offset="1"/>
        </linearGradient>
    </defs>
</svg>
