<svg width="100%" height="100%" viewBox="0 0 215 214" fill="none" xmlns="http://www.w3.org/2000/svg">
    <rect x="0.5" y="45.5" width="208" height="168" stroke="#00DA9A"/>
    <path d="M194 66L185.331 74L181.165 70L177 66" stroke="#666666" stroke-width="5" stroke-linecap="round" stroke-linejoin="round"/>
    <path d="M177 120L185.669 112L189.835 116L194 120" stroke="#666666" stroke-width="5" stroke-linecap="round" stroke-linejoin="round"/>
    <path d="M193 195L184.331 203L180.165 199L176 195" stroke="#666666" stroke-width="5" stroke-linecap="round" stroke-linejoin="round"/>
    <path d="M18.288 31L24.784 10.136H30.416L36.912 31H31.92L29.232 20.44C28.976 19.3947 28.6987 18.2853 28.4 17.112C28.1013 15.9387 27.824 14.808 27.568 13.72H27.44C27.184 14.808 26.9173 15.9387 26.64 17.112C26.3627 18.2853 26.0853 19.3947 25.808 20.44L23.088 31H18.288ZM22.576 26.04V22.36H32.56V26.04H22.576ZM48.1635 31.384C46.4995 31.384 44.9955 31.064 43.6515 30.424C42.3288 29.7627 41.2728 28.8133 40.4835 27.576C39.7155 26.3173 39.3315 24.8133 39.3315 23.064C39.3315 21.3147 39.7582 19.8213 40.6115 18.584C41.4648 17.3253 42.5848 16.376 43.9715 15.736C45.3795 15.0747 46.8942 14.744 48.5155 14.744C49.7742 14.744 50.9155 14.9467 51.9395 15.352C52.9635 15.736 53.8062 16.248 54.4675 16.888L52.2915 19.8C51.6728 19.3733 51.0755 19.064 50.4995 18.872C49.9448 18.6587 49.3688 18.552 48.7715 18.552C47.8755 18.552 47.0755 18.7333 46.3715 19.096C45.6675 19.4587 45.1235 19.9813 44.7395 20.664C44.3555 21.3467 44.1635 22.1467 44.1635 23.064C44.1635 23.9813 44.3448 24.7813 44.7075 25.464C45.0915 26.1467 45.6142 26.6693 46.2755 27.032C46.9582 27.3947 47.7368 27.576 48.6115 27.576C49.4435 27.576 50.2008 27.4267 50.8835 27.128C51.5875 26.8293 52.2275 26.4773 52.8035 26.072L54.6915 29.048C53.7528 29.8373 52.6968 30.424 51.5235 30.808C50.3715 31.192 49.2515 31.384 48.1635 31.384ZM67.351 31.384C65.687 31.384 64.183 31.064 62.839 30.424C61.5163 29.7627 60.4603 28.8133 59.671 27.576C58.903 26.3173 58.519 24.8133 58.519 23.064C58.519 21.3147 58.9457 19.8213 59.799 18.584C60.6523 17.3253 61.7723 16.376 63.159 15.736C64.567 15.0747 66.0817 14.744 67.703 14.744C68.9617 14.744 70.103 14.9467 71.127 15.352C72.151 15.736 72.9937 16.248 73.655 16.888L71.479 19.8C70.8603 19.3733 70.263 19.064 69.687 18.872C69.1323 18.6587 68.5563 18.552 67.959 18.552C67.063 18.552 66.263 18.7333 65.559 19.096C64.855 19.4587 64.311 19.9813 63.927 20.664C63.543 21.3467 63.351 22.1467 63.351 23.064C63.351 23.9813 63.5323 24.7813 63.895 25.464C64.279 26.1467 64.8017 26.6693 65.463 27.032C66.1457 27.3947 66.9243 27.576 67.799 27.576C68.631 27.576 69.3883 27.4267 70.071 27.128C70.775 26.8293 71.415 26.4773 71.991 26.072L73.879 29.048C72.9403 29.8373 71.8843 30.424 70.711 30.808C69.559 31.192 68.439 31.384 67.351 31.384ZM85.1625 31.384C83.7758 31.384 82.4638 31.064 81.2265 30.424C79.9892 29.7627 78.9865 28.8133 78.2185 27.576C77.4505 26.3173 77.0665 24.8133 77.0665 23.064C77.0665 21.3147 77.4505 19.8213 78.2185 18.584C78.9865 17.3253 79.9892 16.376 81.2265 15.736C82.4638 15.0747 83.7758 14.744 85.1625 14.744C86.5492 14.744 87.8612 15.0747 89.0985 15.736C90.3358 16.376 91.3385 17.3253 92.1065 18.584C92.8745 19.8213 93.2585 21.3147 93.2585 23.064C93.2585 24.8133 92.8745 26.3173 92.1065 27.576C91.3385 28.8133 90.3358 29.7627 89.0985 30.424C87.8612 31.064 86.5492 31.384 85.1625 31.384ZM85.1625 27.576C85.8878 27.576 86.4852 27.3947 86.9545 27.032C87.4452 26.6693 87.8078 26.1467 88.0425 25.464C88.2985 24.7813 88.4265 23.9813 88.4265 23.064C88.4265 22.1467 88.2985 21.3467 88.0425 20.664C87.8078 19.9813 87.4452 19.4587 86.9545 19.096C86.4852 18.7333 85.8878 18.552 85.1625 18.552C84.4372 18.552 83.8292 18.7333 83.3385 19.096C82.8692 19.4587 82.5065 19.9813 82.2505 20.664C82.0158 21.3467 81.8985 22.1467 81.8985 23.064C81.8985 23.9813 82.0158 24.7813 82.2505 25.464C82.5065 26.1467 82.8692 26.6693 83.3385 27.032C83.8292 27.3947 84.4372 27.576 85.1625 27.576ZM98.462 31V15.128H102.302L102.686 18.584H102.782C103.571 17.2827 104.521 16.3227 105.63 15.704C106.761 15.064 107.955 14.744 109.214 14.744C109.918 14.744 110.483 14.7973 110.91 14.904C111.358 15.0107 111.817 15.1707 112.286 15.384L111.326 19.32C110.835 19.1707 110.387 19.064 109.982 19C109.598 18.9147 109.107 18.872 108.51 18.872C107.529 18.872 106.558 19.16 105.598 19.736C104.659 20.312 103.849 21.3147 103.166 22.744V31H98.462ZM122.13 31.384C120.124 31.384 118.503 30.648 117.266 29.176C116.05 27.6827 115.442 25.6453 115.442 23.064C115.442 21.336 115.762 19.8533 116.402 18.616C117.063 17.3787 117.916 16.4293 118.962 15.768C120.007 15.0853 121.095 14.744 122.226 14.744C123.1 14.744 123.858 14.8933 124.498 15.192C125.138 15.4907 125.714 15.9067 126.226 16.44H126.354L126.13 13.976V8.568H130.833V31H126.994L126.642 29.368H126.546C125.97 29.944 125.287 30.424 124.498 30.808C123.73 31.192 122.94 31.384 122.13 31.384ZM123.345 27.544C123.879 27.544 124.37 27.4373 124.818 27.224C125.287 26.9893 125.724 26.6053 126.13 26.072V19.64C125.703 19.256 125.266 18.9893 124.818 18.84C124.391 18.6693 123.943 18.584 123.474 18.584C122.898 18.584 122.364 18.744 121.874 19.064C121.383 19.384 120.988 19.8747 120.69 20.536C120.412 21.176 120.274 21.9973 120.274 23C120.274 24.5573 120.54 25.7093 121.074 26.456C121.607 27.1813 122.364 27.544 123.345 27.544ZM142.021 31V18.808H135.621V15.128H146.725V31H142.021ZM144.165 12.632C143.269 12.632 142.522 12.376 141.925 11.864C141.328 11.3307 141.029 10.6373 141.029 9.784C141.029 8.90933 141.328 8.20533 141.925 7.672C142.522 7.11733 143.269 6.84 144.165 6.84C145.082 6.84 145.829 7.11733 146.405 7.672C147.002 8.20533 147.301 8.90933 147.301 9.784C147.301 10.6373 147.002 11.3307 146.405 11.864C145.829 12.376 145.082 12.632 144.165 12.632ZM161.913 31.384C160.526 31.384 159.214 31.064 157.977 30.424C156.739 29.7627 155.737 28.8133 154.969 27.576C154.201 26.3173 153.817 24.8133 153.817 23.064C153.817 21.3147 154.201 19.8213 154.969 18.584C155.737 17.3253 156.739 16.376 157.977 15.736C159.214 15.0747 160.526 14.744 161.913 14.744C163.299 14.744 164.611 15.0747 165.849 15.736C167.086 16.376 168.089 17.3253 168.857 18.584C169.625 19.8213 170.009 21.3147 170.009 23.064C170.009 24.8133 169.625 26.3173 168.857 27.576C168.089 28.8133 167.086 29.7627 165.849 30.424C164.611 31.064 163.299 31.384 161.913 31.384ZM161.913 27.576C162.638 27.576 163.235 27.3947 163.705 27.032C164.195 26.6693 164.558 26.1467 164.793 25.464C165.049 24.7813 165.177 23.9813 165.177 23.064C165.177 22.1467 165.049 21.3467 164.793 20.664C164.558 19.9813 164.195 19.4587 163.705 19.096C163.235 18.7333 162.638 18.552 161.913 18.552C161.187 18.552 160.579 18.7333 160.089 19.096C159.619 19.4587 159.257 19.9813 159.001 20.664C158.766 21.3467 158.649 22.1467 158.649 23.064C158.649 23.9813 158.766 24.7813 159.001 25.464C159.257 26.1467 159.619 26.6693 160.089 27.032C160.579 27.3947 161.187 27.576 161.913 27.576ZM173.804 31V15.128H177.644L177.996 17.24H178.124C178.807 16.5573 179.585 15.9707 180.46 15.48C181.356 14.9893 182.401 14.744 183.596 14.744C185.388 14.744 186.7 15.32 187.532 16.472C188.364 17.624 188.78 19.2027 188.78 21.208V31H184.076V21.816C184.076 20.7493 183.895 19.9707 183.532 19.48C183.191 18.9893 182.593 18.744 181.74 18.744C181.1 18.744 180.535 18.8933 180.044 19.192C179.575 19.4693 179.063 19.8747 178.508 20.408V31H173.804Z" fill="#00DA9A"/>
    <path d="M15.024 73V62.568H17.376V66.6H20.224V62.568H22.576V73H20.224V68.648H17.376V73H15.024ZM28.8738 73.192C28.0524 73.192 27.3058 73.032 26.6338 72.712C25.9724 72.3813 25.4444 71.9067 25.0498 71.288C24.6658 70.6587 24.4738 69.9067 24.4738 69.032C24.4738 68.168 24.6711 67.4267 25.0658 66.808C25.4604 66.1787 25.9724 65.6987 26.6018 65.368C27.2311 65.0373 27.8978 64.872 28.6018 64.872C29.4231 64.872 30.1111 65.0427 30.6658 65.384C31.2204 65.7147 31.6364 66.168 31.9138 66.744C32.2018 67.3093 32.3458 67.9547 32.3458 68.68C32.3458 68.8933 32.3298 69.1013 32.2978 69.304C32.2764 69.496 32.2551 69.64 32.2338 69.736H26.2178V68.152H30.6498L30.2818 68.6C30.2818 67.96 30.1431 67.48 29.8658 67.16C29.5991 66.8293 29.2044 66.664 28.6818 66.664C28.2978 66.664 27.9618 66.7493 27.6738 66.92C27.3858 67.0907 27.1618 67.352 27.0018 67.704C26.8418 68.056 26.7618 68.4987 26.7618 69.032C26.7618 69.576 26.8578 70.024 27.0498 70.376C27.2418 70.7173 27.5191 70.9733 27.8818 71.144C28.2444 71.3147 28.6818 71.4 29.1938 71.4C29.5564 71.4 29.8978 71.352 30.2178 71.256C30.5484 71.16 30.8898 71.0213 31.2418 70.84L32.0258 72.264C31.5671 72.552 31.0604 72.7813 30.5058 72.952C29.9511 73.112 29.4071 73.192 28.8738 73.192ZM36.7715 73.192C36.2382 73.192 35.7742 73.0853 35.3795 72.872C34.9955 72.6587 34.6968 72.3707 34.4835 72.008C34.2702 71.6453 34.1635 71.24 34.1635 70.792C34.1635 69.9067 34.5635 69.2293 35.3635 68.76C36.1742 68.2907 37.5182 68.0027 39.3955 67.896C39.3635 67.6507 39.2835 67.4427 39.1555 67.272C39.0275 67.1013 38.8408 66.9733 38.5955 66.888C38.3608 66.792 38.0622 66.744 37.6995 66.744C37.4435 66.744 37.1875 66.776 36.9315 66.84C36.6755 66.8933 36.4088 66.9787 36.1315 67.096C35.8648 67.2027 35.5822 67.3307 35.2835 67.48L34.4515 65.944C34.8142 65.7307 35.1928 65.544 35.5875 65.384C35.9928 65.224 36.4088 65.1013 36.8355 65.016C37.2728 64.92 37.7155 64.872 38.1635 64.872C38.9102 64.872 39.5502 65.0053 40.0835 65.272C40.6168 65.528 41.0275 65.9227 41.3155 66.456C41.6035 66.9787 41.7475 67.6453 41.7475 68.456V73H39.8275L39.6515 72.104H39.5875C39.1928 72.4027 38.7555 72.6587 38.2755 72.872C37.7955 73.0853 37.2942 73.192 36.7715 73.192ZM37.5235 71.368C37.8755 71.368 38.2062 71.2987 38.5155 71.16C38.8248 71.0107 39.1182 70.8293 39.3955 70.616V69.304C38.6168 69.3467 38.0088 69.4267 37.5715 69.544C37.1448 69.6613 36.8462 69.8107 36.6755 69.992C36.5048 70.1733 36.4195 70.3813 36.4195 70.616C36.4195 70.776 36.4622 70.9147 36.5475 71.032C36.6435 71.1493 36.7715 71.2347 36.9315 71.288C37.1022 71.3413 37.2995 71.368 37.5235 71.368ZM46.8773 73.192C45.8746 73.192 45.0639 72.824 44.4453 72.088C43.8373 71.3413 43.5333 70.3227 43.5333 69.032C43.5333 68.168 43.6933 67.4267 44.0133 66.808C44.3439 66.1893 44.7706 65.7147 45.2933 65.384C45.8159 65.0427 46.3599 64.872 46.9253 64.872C47.3626 64.872 47.7413 64.9467 48.0613 65.096C48.3813 65.2453 48.6693 65.4533 48.9253 65.72H48.9893L48.8773 64.488V61.784H51.2292V73H49.3093L49.1333 72.184H49.0853C48.7973 72.472 48.4559 72.712 48.0613 72.904C47.6773 73.096 47.2826 73.192 46.8773 73.192ZM47.4852 71.272C47.7519 71.272 47.9973 71.2187 48.2213 71.112C48.4559 70.9947 48.6746 70.8027 48.8773 70.536V67.32C48.6639 67.128 48.4453 66.9947 48.2213 66.92C48.0079 66.8347 47.7839 66.792 47.5493 66.792C47.2613 66.792 46.9946 66.872 46.7493 67.032C46.5039 67.192 46.3066 67.4373 46.1573 67.768C46.0186 68.088 45.9493 68.4987 45.9493 69C45.9493 69.7787 46.0826 70.3547 46.3493 70.728C46.6159 71.0907 46.9946 71.272 47.4852 71.272ZM56.823 73V66.904H53.623V65.064H59.175V73H56.823ZM57.895 63.816C57.447 63.816 57.0737 63.688 56.775 63.432C56.4763 63.1653 56.327 62.8187 56.327 62.392C56.327 61.9547 56.4763 61.6027 56.775 61.336C57.0737 61.0587 57.447 60.92 57.895 60.92C58.3537 60.92 58.727 61.0587 59.015 61.336C59.3137 61.6027 59.463 61.9547 59.463 62.392C59.463 62.8187 59.3137 63.1653 59.015 63.432C58.727 63.688 58.3537 63.816 57.895 63.816ZM63.1208 73V65.064H65.0408L65.2168 66.12H65.2808C65.6221 65.7787 66.0114 65.4853 66.4488 65.24C66.8968 64.9947 67.4194 64.872 68.0168 64.872C68.9128 64.872 69.5688 65.16 69.9848 65.736C70.4008 66.312 70.6088 67.1013 70.6088 68.104V73H68.2568V68.408C68.2568 67.8747 68.1661 67.4853 67.9848 67.24C67.8141 66.9947 67.5154 66.872 67.0888 66.872C66.7688 66.872 66.4861 66.9467 66.2408 67.096C66.0061 67.2347 65.7501 67.4373 65.4728 67.704V73H63.1208ZM75.9945 76.376C75.3012 76.376 74.6825 76.3013 74.1385 76.152C73.6052 76.0133 73.1785 75.7947 72.8585 75.496C72.5492 75.1973 72.3945 74.8133 72.3945 74.344C72.3945 74.024 72.4958 73.7307 72.6985 73.464C72.9118 73.1973 73.2212 72.9627 73.6265 72.76V72.696C73.4025 72.5467 73.2105 72.3653 73.0505 72.152C72.9012 71.9387 72.8265 71.6667 72.8265 71.336C72.8265 71.0693 72.9118 70.8027 73.0825 70.536C73.2638 70.2693 73.4932 70.04 73.7705 69.848V69.784C73.4825 69.592 73.2372 69.32 73.0345 68.968C72.8318 68.616 72.7305 68.2107 72.7305 67.752C72.7305 67.112 72.8852 66.5787 73.1945 66.152C73.5145 65.7253 73.9305 65.4053 74.4425 65.192C74.9652 64.9787 75.5252 64.872 76.1225 64.872C76.6132 64.872 77.0505 64.936 77.4345 65.064H80.6505V66.792H79.0505C79.1465 66.9093 79.2265 67.064 79.2905 67.256C79.3652 67.4373 79.4025 67.6293 79.4025 67.832C79.4025 68.44 79.2532 68.9413 78.9545 69.336C78.6665 69.72 78.2772 70.008 77.7865 70.2C77.2958 70.392 76.7412 70.488 76.1225 70.488C75.9732 70.488 75.8025 70.4773 75.6105 70.456C75.4185 70.424 75.2265 70.3813 75.0345 70.328C74.9065 70.4133 74.8158 70.4987 74.7625 70.584C74.7092 70.6693 74.6825 70.7813 74.6825 70.92C74.6825 71.1227 74.7892 71.272 75.0025 71.368C75.2265 71.464 75.5678 71.512 76.0265 71.512H77.4985C78.5438 71.512 79.3385 71.6667 79.8825 71.976C80.4372 72.2853 80.7145 72.7973 80.7145 73.512C80.7145 74.0667 80.5225 74.5573 80.1385 74.984C79.7545 75.4213 79.2052 75.7627 78.4905 76.008C77.7865 76.2533 76.9545 76.376 75.9945 76.376ZM76.1225 69.064C76.3465 69.064 76.5492 69.016 76.7305 68.92C76.9118 68.824 77.0558 68.68 77.1625 68.488C77.2692 68.2853 77.3225 68.04 77.3225 67.752C77.3225 67.4747 77.2692 67.24 77.1625 67.048C77.0558 66.856 76.9118 66.712 76.7305 66.616C76.5492 66.5093 76.3465 66.456 76.1225 66.456C75.9092 66.456 75.7118 66.5093 75.5305 66.616C75.3492 66.712 75.2052 66.856 75.0985 67.048C74.9918 67.24 74.9385 67.4747 74.9385 67.752C74.9385 68.04 74.9918 68.2853 75.0985 68.488C75.2052 68.68 75.3492 68.824 75.5305 68.92C75.7118 69.016 75.9092 69.064 76.1225 69.064ZM76.3305 74.888C76.7572 74.888 77.1305 74.8453 77.4505 74.76C77.7705 74.6747 78.0212 74.5573 78.2025 74.408C78.3838 74.2693 78.4745 74.1093 78.4745 73.928C78.4745 73.6613 78.3572 73.4907 78.1225 73.416C77.8878 73.352 77.5412 73.32 77.0825 73.32H76.0905C75.8025 73.32 75.5625 73.3093 75.3705 73.288C75.1892 73.2667 75.0238 73.24 74.8745 73.208C74.6718 73.336 74.5278 73.4587 74.4425 73.576C74.3572 73.704 74.3145 73.8427 74.3145 73.992C74.3145 74.28 74.4958 74.4987 74.8585 74.648C75.2212 74.808 75.7118 74.888 76.3305 74.888Z" fill="#00CF92"/>
    <path d="M15.024 119V108.568H17.376V112.6H20.224V108.568H22.576V119H20.224V114.648H17.376V119H15.024ZM28.8738 119.192C28.0524 119.192 27.3058 119.032 26.6338 118.712C25.9724 118.381 25.4444 117.907 25.0498 117.288C24.6658 116.659 24.4738 115.907 24.4738 115.032C24.4738 114.168 24.6711 113.427 25.0658 112.808C25.4604 112.179 25.9724 111.699 26.6018 111.368C27.2311 111.037 27.8978 110.872 28.6018 110.872C29.4231 110.872 30.1111 111.043 30.6658 111.384C31.2204 111.715 31.6364 112.168 31.9138 112.744C32.2018 113.309 32.3458 113.955 32.3458 114.68C32.3458 114.893 32.3298 115.101 32.2978 115.304C32.2764 115.496 32.2551 115.64 32.2338 115.736H26.2178V114.152H30.6498L30.2818 114.6C30.2818 113.96 30.1431 113.48 29.8658 113.16C29.5991 112.829 29.2044 112.664 28.6818 112.664C28.2978 112.664 27.9618 112.749 27.6738 112.92C27.3858 113.091 27.1618 113.352 27.0018 113.704C26.8418 114.056 26.7618 114.499 26.7618 115.032C26.7618 115.576 26.8578 116.024 27.0498 116.376C27.2418 116.717 27.5191 116.973 27.8818 117.144C28.2444 117.315 28.6818 117.4 29.1938 117.4C29.5564 117.4 29.8978 117.352 30.2178 117.256C30.5484 117.16 30.8898 117.021 31.2418 116.84L32.0258 118.264C31.5671 118.552 31.0604 118.781 30.5058 118.952C29.9511 119.112 29.4071 119.192 28.8738 119.192ZM36.7715 119.192C36.2382 119.192 35.7742 119.085 35.3795 118.872C34.9955 118.659 34.6968 118.371 34.4835 118.008C34.2702 117.645 34.1635 117.24 34.1635 116.792C34.1635 115.907 34.5635 115.229 35.3635 114.76C36.1742 114.291 37.5182 114.003 39.3955 113.896C39.3635 113.651 39.2835 113.443 39.1555 113.272C39.0275 113.101 38.8408 112.973 38.5955 112.888C38.3608 112.792 38.0622 112.744 37.6995 112.744C37.4435 112.744 37.1875 112.776 36.9315 112.84C36.6755 112.893 36.4088 112.979 36.1315 113.096C35.8648 113.203 35.5822 113.331 35.2835 113.48L34.4515 111.944C34.8142 111.731 35.1928 111.544 35.5875 111.384C35.9928 111.224 36.4088 111.101 36.8355 111.016C37.2728 110.92 37.7155 110.872 38.1635 110.872C38.9102 110.872 39.5502 111.005 40.0835 111.272C40.6168 111.528 41.0275 111.923 41.3155 112.456C41.6035 112.979 41.7475 113.645 41.7475 114.456V119H39.8275L39.6515 118.104H39.5875C39.1928 118.403 38.7555 118.659 38.2755 118.872C37.7955 119.085 37.2942 119.192 36.7715 119.192ZM37.5235 117.368C37.8755 117.368 38.2062 117.299 38.5155 117.16C38.8248 117.011 39.1182 116.829 39.3955 116.616V115.304C38.6168 115.347 38.0088 115.427 37.5715 115.544C37.1448 115.661 36.8462 115.811 36.6755 115.992C36.5048 116.173 36.4195 116.381 36.4195 116.616C36.4195 116.776 36.4622 116.915 36.5475 117.032C36.6435 117.149 36.7715 117.235 36.9315 117.288C37.1022 117.341 37.2995 117.368 37.5235 117.368ZM46.8773 119.192C45.8746 119.192 45.0639 118.824 44.4453 118.088C43.8373 117.341 43.5333 116.323 43.5333 115.032C43.5333 114.168 43.6933 113.427 44.0133 112.808C44.3439 112.189 44.7706 111.715 45.2933 111.384C45.8159 111.043 46.3599 110.872 46.9253 110.872C47.3626 110.872 47.7413 110.947 48.0613 111.096C48.3813 111.245 48.6693 111.453 48.9253 111.72H48.9893L48.8773 110.488V107.784H51.2292V119H49.3093L49.1333 118.184H49.0853C48.7973 118.472 48.4559 118.712 48.0613 118.904C47.6773 119.096 47.2826 119.192 46.8773 119.192ZM47.4852 117.272C47.7519 117.272 47.9973 117.219 48.2213 117.112C48.4559 116.995 48.6746 116.803 48.8773 116.536V113.32C48.6639 113.128 48.4453 112.995 48.2213 112.92C48.0079 112.835 47.7839 112.792 47.5493 112.792C47.2613 112.792 46.9946 112.872 46.7493 113.032C46.5039 113.192 46.3066 113.437 46.1573 113.768C46.0186 114.088 45.9493 114.499 45.9493 115C45.9493 115.779 46.0826 116.355 46.3493 116.728C46.6159 117.091 46.9946 117.272 47.4852 117.272ZM56.823 119V112.904H53.623V111.064H59.175V119H56.823ZM57.895 109.816C57.447 109.816 57.0737 109.688 56.775 109.432C56.4763 109.165 56.327 108.819 56.327 108.392C56.327 107.955 56.4763 107.603 56.775 107.336C57.0737 107.059 57.447 106.92 57.895 106.92C58.3537 106.92 58.727 107.059 59.015 107.336C59.3137 107.603 59.463 107.955 59.463 108.392C59.463 108.819 59.3137 109.165 59.015 109.432C58.727 109.688 58.3537 109.816 57.895 109.816ZM63.1208 119V111.064H65.0408L65.2168 112.12H65.2808C65.6221 111.779 66.0114 111.485 66.4488 111.24C66.8968 110.995 67.4194 110.872 68.0168 110.872C68.9128 110.872 69.5688 111.16 69.9848 111.736C70.4008 112.312 70.6088 113.101 70.6088 114.104V119H68.2568V114.408C68.2568 113.875 68.1661 113.485 67.9848 113.24C67.8141 112.995 67.5154 112.872 67.0888 112.872C66.7688 112.872 66.4861 112.947 66.2408 113.096C66.0061 113.235 65.7501 113.437 65.4728 113.704V119H63.1208ZM75.9945 122.376C75.3012 122.376 74.6825 122.301 74.1385 122.152C73.6052 122.013 73.1785 121.795 72.8585 121.496C72.5492 121.197 72.3945 120.813 72.3945 120.344C72.3945 120.024 72.4958 119.731 72.6985 119.464C72.9118 119.197 73.2212 118.963 73.6265 118.76V118.696C73.4025 118.547 73.2105 118.365 73.0505 118.152C72.9012 117.939 72.8265 117.667 72.8265 117.336C72.8265 117.069 72.9118 116.803 73.0825 116.536C73.2638 116.269 73.4932 116.04 73.7705 115.848V115.784C73.4825 115.592 73.2372 115.32 73.0345 114.968C72.8318 114.616 72.7305 114.211 72.7305 113.752C72.7305 113.112 72.8852 112.579 73.1945 112.152C73.5145 111.725 73.9305 111.405 74.4425 111.192C74.9652 110.979 75.5252 110.872 76.1225 110.872C76.6132 110.872 77.0505 110.936 77.4345 111.064H80.6505V112.792H79.0505C79.1465 112.909 79.2265 113.064 79.2905 113.256C79.3652 113.437 79.4025 113.629 79.4025 113.832C79.4025 114.44 79.2532 114.941 78.9545 115.336C78.6665 115.72 78.2772 116.008 77.7865 116.2C77.2958 116.392 76.7412 116.488 76.1225 116.488C75.9732 116.488 75.8025 116.477 75.6105 116.456C75.4185 116.424 75.2265 116.381 75.0345 116.328C74.9065 116.413 74.8158 116.499 74.7625 116.584C74.7092 116.669 74.6825 116.781 74.6825 116.92C74.6825 117.123 74.7892 117.272 75.0025 117.368C75.2265 117.464 75.5678 117.512 76.0265 117.512H77.4985C78.5438 117.512 79.3385 117.667 79.8825 117.976C80.4372 118.285 80.7145 118.797 80.7145 119.512C80.7145 120.067 80.5225 120.557 80.1385 120.984C79.7545 121.421 79.2052 121.763 78.4905 122.008C77.7865 122.253 76.9545 122.376 75.9945 122.376ZM76.1225 115.064C76.3465 115.064 76.5492 115.016 76.7305 114.92C76.9118 114.824 77.0558 114.68 77.1625 114.488C77.2692 114.285 77.3225 114.04 77.3225 113.752C77.3225 113.475 77.2692 113.24 77.1625 113.048C77.0558 112.856 76.9118 112.712 76.7305 112.616C76.5492 112.509 76.3465 112.456 76.1225 112.456C75.9092 112.456 75.7118 112.509 75.5305 112.616C75.3492 112.712 75.2052 112.856 75.0985 113.048C74.9918 113.24 74.9385 113.475 74.9385 113.752C74.9385 114.04 74.9918 114.285 75.0985 114.488C75.2052 114.68 75.3492 114.824 75.5305 114.92C75.7118 115.016 75.9092 115.064 76.1225 115.064ZM76.3305 120.888C76.7572 120.888 77.1305 120.845 77.4505 120.76C77.7705 120.675 78.0212 120.557 78.2025 120.408C78.3838 120.269 78.4745 120.109 78.4745 119.928C78.4745 119.661 78.3572 119.491 78.1225 119.416C77.8878 119.352 77.5412 119.32 77.0825 119.32H76.0905C75.8025 119.32 75.5625 119.309 75.3705 119.288C75.1892 119.267 75.0238 119.24 74.8745 119.208C74.6718 119.336 74.5278 119.459 74.4425 119.576C74.3572 119.704 74.3145 119.843 74.3145 119.992C74.3145 120.28 74.4958 120.499 74.8585 120.648C75.2212 120.808 75.7118 120.888 76.3305 120.888Z" fill="#00CF92"/>
    <path d="M15.024 201V190.568H17.376V194.6H20.224V190.568H22.576V201H20.224V196.648H17.376V201H15.024ZM28.8738 201.192C28.0524 201.192 27.3058 201.032 26.6338 200.712C25.9724 200.381 25.4444 199.907 25.0498 199.288C24.6658 198.659 24.4738 197.907 24.4738 197.032C24.4738 196.168 24.6711 195.427 25.0658 194.808C25.4604 194.179 25.9724 193.699 26.6018 193.368C27.2311 193.037 27.8978 192.872 28.6018 192.872C29.4231 192.872 30.1111 193.043 30.6658 193.384C31.2204 193.715 31.6364 194.168 31.9138 194.744C32.2018 195.309 32.3458 195.955 32.3458 196.68C32.3458 196.893 32.3298 197.101 32.2978 197.304C32.2764 197.496 32.2551 197.64 32.2338 197.736H26.2178V196.152H30.6498L30.2818 196.6C30.2818 195.96 30.1431 195.48 29.8658 195.16C29.5991 194.829 29.2044 194.664 28.6818 194.664C28.2978 194.664 27.9618 194.749 27.6738 194.92C27.3858 195.091 27.1618 195.352 27.0018 195.704C26.8418 196.056 26.7618 196.499 26.7618 197.032C26.7618 197.576 26.8578 198.024 27.0498 198.376C27.2418 198.717 27.5191 198.973 27.8818 199.144C28.2444 199.315 28.6818 199.4 29.1938 199.4C29.5564 199.4 29.8978 199.352 30.2178 199.256C30.5484 199.16 30.8898 199.021 31.2418 198.84L32.0258 200.264C31.5671 200.552 31.0604 200.781 30.5058 200.952C29.9511 201.112 29.4071 201.192 28.8738 201.192ZM36.7715 201.192C36.2382 201.192 35.7742 201.085 35.3795 200.872C34.9955 200.659 34.6968 200.371 34.4835 200.008C34.2702 199.645 34.1635 199.24 34.1635 198.792C34.1635 197.907 34.5635 197.229 35.3635 196.76C36.1742 196.291 37.5182 196.003 39.3955 195.896C39.3635 195.651 39.2835 195.443 39.1555 195.272C39.0275 195.101 38.8408 194.973 38.5955 194.888C38.3608 194.792 38.0622 194.744 37.6995 194.744C37.4435 194.744 37.1875 194.776 36.9315 194.84C36.6755 194.893 36.4088 194.979 36.1315 195.096C35.8648 195.203 35.5822 195.331 35.2835 195.48L34.4515 193.944C34.8142 193.731 35.1928 193.544 35.5875 193.384C35.9928 193.224 36.4088 193.101 36.8355 193.016C37.2728 192.92 37.7155 192.872 38.1635 192.872C38.9102 192.872 39.5502 193.005 40.0835 193.272C40.6168 193.528 41.0275 193.923 41.3155 194.456C41.6035 194.979 41.7475 195.645 41.7475 196.456V201H39.8275L39.6515 200.104H39.5875C39.1928 200.403 38.7555 200.659 38.2755 200.872C37.7955 201.085 37.2942 201.192 36.7715 201.192ZM37.5235 199.368C37.8755 199.368 38.2062 199.299 38.5155 199.16C38.8248 199.011 39.1182 198.829 39.3955 198.616V197.304C38.6168 197.347 38.0088 197.427 37.5715 197.544C37.1448 197.661 36.8462 197.811 36.6755 197.992C36.5048 198.173 36.4195 198.381 36.4195 198.616C36.4195 198.776 36.4622 198.915 36.5475 199.032C36.6435 199.149 36.7715 199.235 36.9315 199.288C37.1022 199.341 37.2995 199.368 37.5235 199.368ZM46.8773 201.192C45.8746 201.192 45.0639 200.824 44.4453 200.088C43.8373 199.341 43.5333 198.323 43.5333 197.032C43.5333 196.168 43.6933 195.427 44.0133 194.808C44.3439 194.189 44.7706 193.715 45.2933 193.384C45.8159 193.043 46.3599 192.872 46.9253 192.872C47.3626 192.872 47.7413 192.947 48.0613 193.096C48.3813 193.245 48.6693 193.453 48.9253 193.72H48.9893L48.8773 192.488V189.784H51.2292V201H49.3093L49.1333 200.184H49.0853C48.7973 200.472 48.4559 200.712 48.0613 200.904C47.6773 201.096 47.2826 201.192 46.8773 201.192ZM47.4852 199.272C47.7519 199.272 47.9973 199.219 48.2213 199.112C48.4559 198.995 48.6746 198.803 48.8773 198.536V195.32C48.6639 195.128 48.4453 194.995 48.2213 194.92C48.0079 194.835 47.7839 194.792 47.5493 194.792C47.2613 194.792 46.9946 194.872 46.7493 195.032C46.5039 195.192 46.3066 195.437 46.1573 195.768C46.0186 196.088 45.9493 196.499 45.9493 197C45.9493 197.779 46.0826 198.355 46.3493 198.728C46.6159 199.091 46.9946 199.272 47.4852 199.272ZM56.823 201V194.904H53.623V193.064H59.175V201H56.823ZM57.895 191.816C57.447 191.816 57.0737 191.688 56.775 191.432C56.4763 191.165 56.327 190.819 56.327 190.392C56.327 189.955 56.4763 189.603 56.775 189.336C57.0737 189.059 57.447 188.92 57.895 188.92C58.3537 188.92 58.727 189.059 59.015 189.336C59.3137 189.603 59.463 189.955 59.463 190.392C59.463 190.819 59.3137 191.165 59.015 191.432C58.727 191.688 58.3537 191.816 57.895 191.816ZM63.1208 201V193.064H65.0408L65.2168 194.12H65.2808C65.6221 193.779 66.0114 193.485 66.4488 193.24C66.8968 192.995 67.4194 192.872 68.0168 192.872C68.9128 192.872 69.5688 193.16 69.9848 193.736C70.4008 194.312 70.6088 195.101 70.6088 196.104V201H68.2568V196.408C68.2568 195.875 68.1661 195.485 67.9848 195.24C67.8141 194.995 67.5154 194.872 67.0888 194.872C66.7688 194.872 66.4861 194.947 66.2408 195.096C66.0061 195.235 65.7501 195.437 65.4728 195.704V201H63.1208ZM75.9945 204.376C75.3012 204.376 74.6825 204.301 74.1385 204.152C73.6052 204.013 73.1785 203.795 72.8585 203.496C72.5492 203.197 72.3945 202.813 72.3945 202.344C72.3945 202.024 72.4958 201.731 72.6985 201.464C72.9118 201.197 73.2212 200.963 73.6265 200.76V200.696C73.4025 200.547 73.2105 200.365 73.0505 200.152C72.9012 199.939 72.8265 199.667 72.8265 199.336C72.8265 199.069 72.9118 198.803 73.0825 198.536C73.2638 198.269 73.4932 198.04 73.7705 197.848V197.784C73.4825 197.592 73.2372 197.32 73.0345 196.968C72.8318 196.616 72.7305 196.211 72.7305 195.752C72.7305 195.112 72.8852 194.579 73.1945 194.152C73.5145 193.725 73.9305 193.405 74.4425 193.192C74.9652 192.979 75.5252 192.872 76.1225 192.872C76.6132 192.872 77.0505 192.936 77.4345 193.064H80.6505V194.792H79.0505C79.1465 194.909 79.2265 195.064 79.2905 195.256C79.3652 195.437 79.4025 195.629 79.4025 195.832C79.4025 196.44 79.2532 196.941 78.9545 197.336C78.6665 197.72 78.2772 198.008 77.7865 198.2C77.2958 198.392 76.7412 198.488 76.1225 198.488C75.9732 198.488 75.8025 198.477 75.6105 198.456C75.4185 198.424 75.2265 198.381 75.0345 198.328C74.9065 198.413 74.8158 198.499 74.7625 198.584C74.7092 198.669 74.6825 198.781 74.6825 198.92C74.6825 199.123 74.7892 199.272 75.0025 199.368C75.2265 199.464 75.5678 199.512 76.0265 199.512H77.4985C78.5438 199.512 79.3385 199.667 79.8825 199.976C80.4372 200.285 80.7145 200.797 80.7145 201.512C80.7145 202.067 80.5225 202.557 80.1385 202.984C79.7545 203.421 79.2052 203.763 78.4905 204.008C77.7865 204.253 76.9545 204.376 75.9945 204.376ZM76.1225 197.064C76.3465 197.064 76.5492 197.016 76.7305 196.92C76.9118 196.824 77.0558 196.68 77.1625 196.488C77.2692 196.285 77.3225 196.04 77.3225 195.752C77.3225 195.475 77.2692 195.24 77.1625 195.048C77.0558 194.856 76.9118 194.712 76.7305 194.616C76.5492 194.509 76.3465 194.456 76.1225 194.456C75.9092 194.456 75.7118 194.509 75.5305 194.616C75.3492 194.712 75.2052 194.856 75.0985 195.048C74.9918 195.24 74.9385 195.475 74.9385 195.752C74.9385 196.04 74.9918 196.285 75.0985 196.488C75.2052 196.68 75.3492 196.824 75.5305 196.92C75.7118 197.016 75.9092 197.064 76.1225 197.064ZM76.3305 202.888C76.7572 202.888 77.1305 202.845 77.4505 202.76C77.7705 202.675 78.0212 202.557 78.2025 202.408C78.3838 202.269 78.4745 202.109 78.4745 201.928C78.4745 201.661 78.3572 201.491 78.1225 201.416C77.8878 201.352 77.5412 201.32 77.0825 201.32H76.0905C75.8025 201.32 75.5625 201.309 75.3705 201.288C75.1892 201.267 75.0238 201.24 74.8745 201.208C74.6718 201.336 74.5278 201.459 74.4425 201.576C74.3572 201.704 74.3145 201.843 74.3145 201.992C74.3145 202.28 74.4958 202.499 74.8585 202.648C75.2212 202.808 75.7118 202.888 76.3305 202.888Z" fill="#00CF92"/>
    <path d="M19.616 156.192C18.9653 156.192 18.3627 156.069 17.808 155.824C17.2533 155.579 16.768 155.227 16.352 154.768C15.936 154.299 15.6107 153.728 15.376 153.056C15.152 152.373 15.04 151.605 15.04 150.752C15.04 149.632 15.2427 148.667 15.648 147.856C16.0533 147.035 16.608 146.405 17.312 145.968C18.016 145.531 18.8267 145.312 19.744 145.312C20.3733 145.312 20.9333 145.445 21.424 145.712C21.9147 145.968 22.3093 146.261 22.608 146.592L21.856 147.44C21.5893 147.141 21.28 146.907 20.928 146.736C20.576 146.565 20.1813 146.48 19.744 146.48C19.072 146.48 18.4853 146.656 17.984 147.008C17.4933 147.349 17.1093 147.835 16.832 148.464C16.5547 149.093 16.416 149.845 16.416 150.72C16.416 151.605 16.5547 152.368 16.832 153.008C17.1093 153.648 17.4933 154.144 17.984 154.496C18.4853 154.848 19.072 155.024 19.744 155.024C20.224 155.024 20.656 154.923 21.04 154.72C21.424 154.517 21.7813 154.229 22.112 153.856L22.864 154.672C22.4587 155.152 21.9893 155.525 21.456 155.792C20.9227 156.059 20.3093 156.192 19.616 156.192ZM28.3938 156.192C27.7111 156.192 27.0764 156.032 26.4898 155.712C25.9138 155.392 25.4444 154.928 25.0818 154.32C24.7298 153.712 24.5538 152.981 24.5538 152.128C24.5538 151.253 24.7298 150.512 25.0818 149.904C25.4444 149.296 25.9138 148.832 26.4898 148.512C27.0764 148.192 27.7111 148.032 28.3938 148.032C29.0764 148.032 29.7058 148.192 30.2818 148.512C30.8684 148.832 31.3378 149.296 31.6898 149.904C32.0524 150.512 32.2338 151.253 32.2338 152.128C32.2338 152.981 32.0524 153.712 31.6898 154.32C31.3378 154.928 30.8684 155.392 30.2818 155.712C29.7058 156.032 29.0764 156.192 28.3938 156.192ZM28.3938 155.104C28.8951 155.104 29.3324 154.981 29.7058 154.736C30.0791 154.48 30.3671 154.128 30.5698 153.68C30.7724 153.232 30.8738 152.715 30.8738 152.128C30.8738 151.531 30.7724 151.008 30.5698 150.56C30.3671 150.101 30.0791 149.749 29.7058 149.504C29.3324 149.248 28.8951 149.12 28.3938 149.12C27.8924 149.12 27.4551 149.248 27.0818 149.504C26.7191 149.749 26.4311 150.101 26.2178 150.56C26.0151 151.008 25.9138 151.531 25.9138 152.128C25.9138 152.715 26.0151 153.232 26.2178 153.68C26.4311 154.128 26.7191 154.48 27.0818 154.736C27.4551 154.981 27.8924 155.104 28.3938 155.104ZM34.6755 156V148.224H35.7635L35.8755 149.552H35.9395C36.3448 149.115 36.7822 148.752 37.2515 148.464C37.7208 148.176 38.2595 148.032 38.8675 148.032C39.7848 148.032 40.4622 148.299 40.8995 148.832C41.3368 149.365 41.5555 150.144 41.5555 151.168V156H40.2435V151.344C40.2435 150.608 40.1048 150.064 39.8275 149.712C39.5502 149.349 39.0915 149.168 38.4515 149.168C37.9928 149.168 37.5822 149.285 37.2195 149.52C36.8568 149.755 36.4462 150.107 35.9875 150.576V156H34.6755ZM49.0853 156.192C48.3279 156.192 47.7306 156.059 47.2933 155.792C46.8559 155.515 46.5413 155.136 46.3493 154.656C46.1679 154.176 46.0773 153.616 46.0773 152.976V149.296H43.8853V148.304L46.1253 148.224L46.3013 145.728H47.3893V148.224H51.2133V149.296H47.3893V152.992C47.3893 153.451 47.4479 153.84 47.5653 154.16C47.6826 154.48 47.8853 154.72 48.1733 154.88C48.4613 155.04 48.8559 155.12 49.3573 155.12C49.7306 155.12 50.0666 155.088 50.3653 155.024C50.6639 154.96 50.9519 154.875 51.2292 154.768L51.5173 155.728C51.1653 155.856 50.7919 155.963 50.3973 156.048C50.0133 156.144 49.5759 156.192 49.0853 156.192ZM57.655 156.192C56.8763 156.192 56.167 156.032 55.527 155.712C54.8977 155.392 54.3963 154.928 54.023 154.32C53.6497 153.701 53.463 152.96 53.463 152.096C53.463 151.253 53.6497 150.528 54.023 149.92C54.3963 149.312 54.8817 148.848 55.479 148.528C56.087 148.197 56.7377 148.032 57.431 148.032C58.1777 148.032 58.8123 148.187 59.335 148.496C59.8683 148.795 60.2737 149.216 60.551 149.76C60.839 150.304 60.983 150.944 60.983 151.68C60.983 151.829 60.9777 151.973 60.967 152.112C60.9563 152.251 60.9403 152.373 60.919 152.48H54.343V151.456H60.135L59.799 151.824C59.799 150.907 59.5857 150.219 59.159 149.76C58.743 149.301 58.1777 149.072 57.463 149.072C56.983 149.072 56.535 149.189 56.119 149.424C55.7137 149.659 55.3883 150 55.143 150.448C54.8977 150.896 54.775 151.445 54.775 152.096C54.775 152.768 54.9083 153.328 55.175 153.776C55.4417 154.224 55.8043 154.565 56.263 154.8C56.7217 155.024 57.239 155.136 57.815 155.136C58.2843 155.136 58.7057 155.072 59.079 154.944C59.463 154.805 59.831 154.624 60.183 154.4L60.663 155.264C60.279 155.52 59.8363 155.739 59.335 155.92C58.8443 156.101 58.2843 156.192 57.655 156.192ZM63.4568 156V148.224H64.5448L64.6568 149.552H64.7208C65.1261 149.115 65.5634 148.752 66.0328 148.464C66.5021 148.176 67.0408 148.032 67.6488 148.032C68.5661 148.032 69.2434 148.299 69.6808 148.832C70.1181 149.365 70.3368 150.144 70.3368 151.168V156H69.0248V151.344C69.0248 150.608 68.8861 150.064 68.6088 149.712C68.3314 149.349 67.8728 149.168 67.2328 149.168C66.7741 149.168 66.3634 149.285 66.0008 149.52C65.6381 149.755 65.2274 150.107 64.7688 150.576V156H63.4568ZM77.8665 156.192C77.1092 156.192 76.5118 156.059 76.0745 155.792C75.6372 155.515 75.3225 155.136 75.1305 154.656C74.9492 154.176 74.8585 153.616 74.8585 152.976V149.296H72.6665V148.304L74.9065 148.224L75.0825 145.728H76.1705V148.224H79.9945V149.296H76.1705V152.992C76.1705 153.451 76.2292 153.84 76.3465 154.16C76.4638 154.48 76.6665 154.72 76.9545 154.88C77.2425 155.04 77.6372 155.12 78.1385 155.12C78.5118 155.12 78.8478 155.088 79.1465 155.024C79.4452 154.96 79.7332 154.875 80.0105 154.768L80.2985 155.728C79.9465 155.856 79.5732 155.963 79.1785 156.048C78.7945 156.144 78.3572 156.192 77.8665 156.192Z" fill="#00CF92"/>
    <path d="M212.782 128.784L206.389 135.179L205.837 135.73L206.41 136.26L213.917 143.188L210.167 146.939L202.917 139.689L199.97 142.637L195.994 146.611L187.188 120.189L212.782 128.784Z" fill="#71FFAC" stroke="#00CF92" stroke-width="1.5"/>
    <rect x="1" y="94" width="207" height="1" fill="#00DA9A"/>
    <rect x="1" y="175" width="207" height="1" fill="#00DA9A"/>
</svg>