<svg width="100%" height="100%" viewBox="0 0 360 77" fill="none"
    xmlns="http://www.w3.org/2000/svg">
    <rect x="1" y="1" width="358" height="75" rx="16" stroke="#00DA9A" stroke-width="2"/>
    <path d="M136.294 50V29.788H143.083C144.488 29.788 145.749 29.943 146.865 30.253C147.981 30.5423 148.859 31.0487 149.5 31.772C150.161 32.4953 150.492 33.508 150.492 34.81C150.492 35.7193 150.213 36.5977 149.655 37.445C149.097 38.2923 148.219 38.871 147.02 39.181V39.305C148.467 39.553 149.562 40.0697 150.306 40.855C151.05 41.6197 151.422 42.684 151.422 44.048C151.422 45.412 151.081 46.5383 150.399 47.427C149.717 48.295 148.787 48.946 147.609 49.38C146.452 49.7933 145.139 50 143.672 50H136.294ZM140.851 37.91H142.866C143.982 37.91 144.788 37.693 145.284 37.259C145.78 36.8043 146.028 36.1947 146.028 35.43C146.028 34.686 145.77 34.159 145.253 33.849C144.757 33.5183 143.972 33.353 142.897 33.353H140.851V37.91ZM140.851 46.435H143.3C144.54 46.435 145.46 46.2077 146.059 45.753C146.658 45.2983 146.958 44.6163 146.958 43.707C146.958 42.8183 146.658 42.1777 146.059 41.785C145.46 41.3923 144.54 41.196 143.3 41.196H140.851V46.435ZM164.833 50.372C162.911 50.372 161.454 49.7933 160.462 48.636C159.47 47.4787 158.974 45.9287 158.974 43.986V31.865H154.169V28.3H163.531V44.172C163.531 45.1227 163.789 45.784 164.306 46.156C164.823 46.5073 165.391 46.683 166.011 46.683C166.383 46.683 166.755 46.6417 167.127 46.559C167.52 46.4763 167.954 46.3523 168.429 46.187L169.421 49.535C168.636 49.783 167.912 49.9793 167.251 50.124C166.61 50.2893 165.804 50.372 164.833 50.372ZM180.476 50.372C179.132 50.372 177.861 50.062 176.663 49.442C175.464 48.8013 174.493 47.8817 173.749 46.683C173.005 45.4637 172.633 44.0067 172.633 42.312C172.633 40.6173 173.005 39.1707 173.749 37.972C174.493 36.7527 175.464 35.833 176.663 35.213C177.861 34.5723 179.132 34.252 180.476 34.252C181.819 34.252 183.09 34.5723 184.289 35.213C185.487 35.833 186.459 36.7527 187.203 37.972C187.947 39.1707 188.319 40.6173 188.319 42.312C188.319 44.0067 187.947 45.4637 187.203 46.683C186.459 47.8817 185.487 48.8013 184.289 49.442C183.09 50.062 181.819 50.372 180.476 50.372ZM180.476 46.683C181.178 46.683 181.757 46.5073 182.212 46.156C182.687 45.8047 183.038 45.2983 183.266 44.637C183.514 43.9757 183.638 43.2007 183.638 42.312C183.638 41.4233 183.514 40.6483 183.266 39.987C183.038 39.3257 182.687 38.8193 182.212 38.468C181.757 38.1167 181.178 37.941 180.476 37.941C179.773 37.941 179.184 38.1167 178.709 38.468C178.254 38.8193 177.903 39.3257 177.655 39.987C177.427 40.6483 177.314 41.4233 177.314 42.312C177.314 43.2007 177.427 43.9757 177.655 44.637C177.903 45.2983 178.254 45.8047 178.709 46.156C179.184 46.5073 179.773 46.683 180.476 46.683ZM200.397 50.372C198.785 50.372 197.328 50.062 196.026 49.442C194.744 48.8013 193.721 47.8817 192.957 46.683C192.213 45.4637 191.841 44.0067 191.841 42.312C191.841 40.6173 192.254 39.1707 193.081 37.972C193.907 36.7527 194.992 35.833 196.336 35.213C197.7 34.5723 199.167 34.252 200.738 34.252C201.957 34.252 203.063 34.4483 204.055 34.841C205.047 35.213 205.863 35.709 206.504 36.329L204.396 39.15C203.796 38.7367 203.218 38.437 202.66 38.251C202.122 38.0443 201.564 37.941 200.986 37.941C200.118 37.941 199.343 38.1167 198.661 38.468C197.979 38.8193 197.452 39.3257 197.08 39.987C196.708 40.6483 196.522 41.4233 196.522 42.312C196.522 43.2007 196.697 43.9757 197.049 44.637C197.421 45.2983 197.927 45.8047 198.568 46.156C199.229 46.5073 199.983 46.683 200.831 46.683C201.637 46.683 202.37 46.5383 203.032 46.249C203.714 45.9597 204.334 45.6187 204.892 45.226L206.721 48.109C205.811 48.8737 204.788 49.442 203.652 49.814C202.536 50.186 201.451 50.372 200.397 50.372ZM210.708 50V28.269H215.265V40.824H215.389L221.031 34.624H226.022L215.265 46.125V50H210.708ZM221.558 50L217.094 43.025L219.698 40.204L226.487 50H221.558Z" fill="#00CF92"/>
</svg>