<svg width="100%" height="100%" viewBox="0 0 257 222" fill="none"
    xmlns="http://www.w3.org/2000/svg">
    <rect x="1" y="40" width="255" height="181" rx="16" stroke="#00DA9A" stroke-width="2"/>
    <rect x="8" y="47.7967" width="240.31" height="49.0334" rx="16" stroke="#00DA9A" stroke-width="2"/>
    <path d="M113.328 81V66.216H107.868V62.744H122.932V66.216H117.472V81H113.328ZM132.189 81.336C130.976 81.336 129.828 81.056 128.745 80.496C127.662 79.9173 126.785 79.0867 126.113 78.004C125.441 76.9027 125.105 75.5867 125.105 74.056C125.105 72.5253 125.441 71.2187 126.113 70.136C126.785 69.0347 127.662 68.204 128.745 67.644C129.828 67.0653 130.976 66.776 132.189 66.776C133.402 66.776 134.55 67.0653 135.633 67.644C136.716 68.204 137.593 69.0347 138.265 70.136C138.937 71.2187 139.273 72.5253 139.273 74.056C139.273 75.5867 138.937 76.9027 138.265 78.004C137.593 79.0867 136.716 79.9173 135.633 80.496C134.55 81.056 133.402 81.336 132.189 81.336ZM132.189 78.004C132.824 78.004 133.346 77.8453 133.757 77.528C134.186 77.2107 134.504 76.7533 134.709 76.156C134.933 75.5587 135.045 74.8587 135.045 74.056C135.045 73.2533 134.933 72.5533 134.709 71.956C134.504 71.3587 134.186 70.9013 133.757 70.584C133.346 70.2667 132.824 70.108 132.189 70.108C131.554 70.108 131.022 70.2667 130.593 70.584C130.182 70.9013 129.865 71.3587 129.641 71.956C129.436 72.5533 129.333 73.2533 129.333 74.056C129.333 74.8587 129.436 75.5587 129.641 76.156C129.865 76.7533 130.182 77.2107 130.593 77.528C131.022 77.8453 131.554 78.004 132.189 78.004ZM142.594 86.152V67.112H145.954L146.262 68.512H146.346C146.925 68.008 147.569 67.5973 148.278 67.28C149.006 66.944 149.743 66.776 150.49 66.776C151.647 66.776 152.637 67.0653 153.458 67.644C154.298 68.2227 154.942 69.044 155.39 70.108C155.838 71.172 156.062 72.4133 156.062 73.832C156.062 75.4187 155.773 76.772 155.194 77.892C154.634 79.012 153.897 79.8707 152.982 80.468C152.067 81.0467 151.087 81.336 150.042 81.336C149.426 81.336 148.819 81.2053 148.222 80.944C147.643 80.6827 147.111 80.3093 146.626 79.824H146.514L146.71 82.092V86.152H142.594ZM149.09 77.976C149.613 77.976 150.079 77.836 150.49 77.556C150.901 77.276 151.227 76.8373 151.47 76.24C151.713 75.624 151.834 74.84 151.834 73.888C151.834 73.048 151.741 72.3573 151.554 71.816C151.367 71.256 151.087 70.836 150.714 70.556C150.359 70.276 149.883 70.136 149.286 70.136C148.838 70.136 148.399 70.2387 147.97 70.444C147.559 70.6307 147.139 70.9573 146.71 71.424V77.052C147.102 77.3693 147.503 77.6027 147.914 77.752C148.343 77.9013 148.735 77.976 149.09 77.976Z" fill="#00DA9A"/>
    <rect x="8" y="105.31" width="240.31" height="49.0334" rx="16" stroke="#00DA9A" stroke-width="2"/>
    <path d="M79.968 138.85C78.8293 138.85 77.7467 138.654 76.72 138.262C75.712 137.87 74.816 137.282 74.032 136.498C73.248 135.695 72.632 134.715 72.184 133.558C71.736 132.382 71.512 131.029 71.512 129.498C71.512 127.482 71.8947 125.765 72.66 124.346C73.444 122.909 74.4893 121.817 75.796 121.07C77.1213 120.305 78.596 119.922 80.22 119.922C81.3773 119.922 82.4227 120.165 83.356 120.65C84.2893 121.117 85.064 121.649 85.68 122.246L83.412 124.794C82.9827 124.383 82.5067 124.066 81.984 123.842C81.48 123.599 80.892 123.478 80.22 123.478C79.3613 123.478 78.596 123.721 77.924 124.206C77.252 124.673 76.72 125.345 76.328 126.222C75.936 127.099 75.74 128.145 75.74 129.358C75.74 130.609 75.936 131.682 76.328 132.578C76.72 133.455 77.2613 134.127 77.952 134.594C78.6613 135.061 79.4733 135.294 80.388 135.294C81.06 135.294 81.6667 135.145 82.208 134.846C82.7493 134.547 83.244 134.155 83.692 133.67L85.96 136.162C85.2133 137.039 84.336 137.711 83.328 138.178C82.32 138.626 81.2 138.85 79.968 138.85ZM95.1891 138.85C93.9757 138.85 92.8277 138.57 91.7451 138.01C90.6624 137.431 89.7851 136.601 89.1131 135.518C88.4411 134.417 88.1051 133.101 88.1051 131.57C88.1051 130.039 88.4411 128.733 89.1131 127.65C89.7851 126.549 90.6624 125.718 91.7451 125.158C92.8277 124.579 93.9757 124.29 95.1891 124.29C96.4024 124.29 97.5504 124.579 98.6331 125.158C99.7157 125.718 100.593 126.549 101.265 127.65C101.937 128.733 102.273 130.039 102.273 131.57C102.273 133.101 101.937 134.417 101.265 135.518C100.593 136.601 99.7157 137.431 98.6331 138.01C97.5504 138.57 96.4024 138.85 95.1891 138.85ZM95.1891 135.518C95.8237 135.518 96.3464 135.359 96.7571 135.042C97.1864 134.725 97.5037 134.267 97.7091 133.67C97.9331 133.073 98.0451 132.373 98.0451 131.57C98.0451 130.767 97.9331 130.067 97.7091 129.47C97.5037 128.873 97.1864 128.415 96.7571 128.098C96.3464 127.781 95.8237 127.622 95.1891 127.622C94.5544 127.622 94.0224 127.781 93.5931 128.098C93.1824 128.415 92.8651 128.873 92.6411 129.47C92.4357 130.067 92.3331 130.767 92.3331 131.57C92.3331 132.373 92.4357 133.073 92.6411 133.67C92.8651 134.267 93.1824 134.725 93.5931 135.042C94.0224 135.359 94.5544 135.518 95.1891 135.518ZM105.594 138.514V124.626H108.954L109.262 126.474H109.374C109.971 125.877 110.653 125.363 111.418 124.934C112.202 124.505 113.117 124.29 114.162 124.29C115.73 124.29 116.878 124.794 117.606 125.802C118.334 126.81 118.698 128.191 118.698 129.946V138.514H114.582V130.478C114.582 129.545 114.423 128.863 114.106 128.434C113.807 128.005 113.285 127.79 112.538 127.79C111.978 127.79 111.483 127.921 111.054 128.182C110.643 128.425 110.195 128.779 109.71 129.246V138.514H105.594ZM131.231 138.85C129.757 138.85 128.581 138.598 127.703 138.094C126.845 137.571 126.219 136.853 125.827 135.938C125.435 135.023 125.239 133.959 125.239 132.746V127.846H121.767V124.794L125.435 124.626L125.967 120.37H129.355V124.626H135.235V127.846H129.355V132.718C129.355 133.409 129.458 133.969 129.663 134.398C129.869 134.827 130.186 135.145 130.615 135.35C131.045 135.537 131.595 135.63 132.267 135.63C132.809 135.63 133.303 135.583 133.751 135.49C134.199 135.397 134.629 135.275 135.039 135.126L135.767 138.094C135.151 138.281 134.47 138.449 133.723 138.598C132.995 138.766 132.165 138.85 131.231 138.85ZM146.396 138.85C144.959 138.85 143.652 138.57 142.476 138.01C141.319 137.431 140.395 136.601 139.704 135.518C139.032 134.417 138.696 133.101 138.696 131.57C138.696 130.058 139.042 128.761 139.732 127.678C140.423 126.577 141.319 125.737 142.42 125.158C143.522 124.579 144.688 124.29 145.92 124.29C147.358 124.29 148.562 124.589 149.532 125.186C150.503 125.765 151.231 126.558 151.716 127.566C152.22 128.555 152.472 129.685 152.472 130.954C152.472 131.327 152.444 131.691 152.388 132.046C152.351 132.382 152.314 132.634 152.276 132.802H141.748V130.03H149.504L148.86 130.814C148.86 129.694 148.618 128.854 148.132 128.294C147.666 127.715 146.975 127.426 146.06 127.426C145.388 127.426 144.8 127.575 144.296 127.874C143.792 128.173 143.4 128.63 143.12 129.246C142.84 129.862 142.7 130.637 142.7 131.57C142.7 132.522 142.868 133.306 143.204 133.922C143.54 134.519 144.026 134.967 144.66 135.266C145.295 135.565 146.06 135.714 146.956 135.714C147.591 135.714 148.188 135.63 148.748 135.462C149.327 135.294 149.924 135.051 150.54 134.734L151.912 137.226C151.11 137.73 150.223 138.131 149.252 138.43C148.282 138.71 147.33 138.85 146.396 138.85ZM155.961 138.514V124.626H159.321L159.629 126.474H159.741C160.339 125.877 161.02 125.363 161.785 124.934C162.569 124.505 163.484 124.29 164.529 124.29C166.097 124.29 167.245 124.794 167.973 125.802C168.701 126.81 169.065 128.191 169.065 129.946V138.514H164.949V130.478C164.949 129.545 164.791 128.863 164.473 128.434C164.175 128.005 163.652 127.79 162.905 127.79C162.345 127.79 161.851 127.921 161.421 128.182C161.011 128.425 160.563 128.779 160.077 129.246V138.514H155.961ZM181.598 138.85C180.124 138.85 178.948 138.598 178.07 138.094C177.212 137.571 176.586 136.853 176.194 135.938C175.802 135.023 175.606 133.959 175.606 132.746V127.846H172.134V124.794L175.802 124.626L176.334 120.37H179.722V124.626H185.602V127.846H179.722V132.718C179.722 133.409 179.825 133.969 180.03 134.398C180.236 134.827 180.553 135.145 180.982 135.35C181.412 135.537 181.962 135.63 182.634 135.63C183.176 135.63 183.67 135.583 184.118 135.49C184.566 135.397 184.996 135.275 185.406 135.126L186.134 138.094C185.518 138.281 184.837 138.449 184.09 138.598C183.362 138.766 182.532 138.85 181.598 138.85Z" fill="#00DA9A"/>
    <rect x="9" y="163.819" width="238.31" height="47.0334" rx="15" fill="#CCCCCC" fill-opacity="0.5" stroke="#009F71" stroke-width="4"/>
    <path d="M73.984 199.642V179.492H81.176C82.5813 179.492 83.8523 179.636 84.989 179.926C86.1463 180.215 87.0557 180.721 87.717 181.445C88.399 182.168 88.74 183.191 88.74 184.514C88.74 185.382 88.461 186.25 87.903 187.118C87.3657 187.965 86.508 188.544 85.33 188.854V188.978C86.756 189.246 87.8203 189.763 88.523 190.528C89.2463 191.292 89.608 192.346 89.608 193.69C89.608 195.074 89.2567 196.211 88.554 197.1C87.8513 197.968 86.911 198.608 85.733 199.022C84.555 199.435 83.2427 199.642 81.796 199.642H73.984ZM79.316 187.428H81.052C81.92 187.428 82.5503 187.231 82.943 186.839C83.3357 186.446 83.532 185.94 83.532 185.32C83.532 184.7 83.3357 184.255 82.943 183.987C82.5503 183.718 81.92 183.584 81.052 183.584H79.316V187.428ZM79.316 195.55H81.424C82.478 195.55 83.2323 195.353 83.687 194.961C84.1623 194.568 84.4 194 84.4 193.256C84.4 192.512 84.1623 191.974 83.687 191.644C83.2323 191.313 82.478 191.148 81.424 191.148H79.316V195.55ZM99.8879 200.014C98.5239 200.014 97.2322 199.693 96.0129 199.053C94.7936 198.412 93.8016 197.492 93.0369 196.294C92.2722 195.074 91.8899 193.607 91.8899 191.892C91.8899 190.176 92.2722 188.719 93.0369 187.521C93.8016 186.301 94.7936 185.371 96.0129 184.731C97.2322 184.09 98.5239 183.77 99.8879 183.77C101.252 183.77 102.544 184.09 103.763 184.731C104.982 185.371 105.974 186.301 106.739 187.521C107.504 188.719 107.886 190.176 107.886 191.892C107.886 193.607 107.504 195.074 106.739 196.294C105.974 197.492 104.982 198.412 103.763 199.053C102.544 199.693 101.252 200.014 99.8879 200.014ZM99.8879 195.736C100.487 195.736 100.973 195.581 101.345 195.271C101.717 194.961 101.986 194.516 102.151 193.938C102.337 193.359 102.43 192.677 102.43 191.892C102.43 191.106 102.337 190.424 102.151 189.846C101.986 189.267 101.717 188.823 101.345 188.513C100.973 188.203 100.487 188.048 99.8879 188.048C99.2886 188.048 98.8029 188.203 98.4309 188.513C98.0589 188.823 97.7799 189.267 97.5939 189.846C97.4286 190.424 97.3459 191.106 97.3459 191.892C97.3459 192.677 97.4286 193.359 97.5939 193.938C97.7799 194.516 98.0589 194.961 98.4309 195.271C98.8029 195.581 99.2886 195.736 99.8879 195.736ZM121.142 200.014C119.447 200.014 118.093 199.724 117.081 199.146C116.068 198.567 115.334 197.761 114.88 196.728C114.425 195.674 114.198 194.454 114.198 193.07V188.296H110.478V184.328L114.446 184.142L115.128 179.492H119.53V184.142H125.668V188.296H119.53V192.977C119.53 193.7 119.643 194.279 119.871 194.713C120.098 195.126 120.429 195.426 120.863 195.612C121.317 195.777 121.875 195.86 122.537 195.86C123.074 195.86 123.57 195.818 124.025 195.736C124.5 195.632 124.944 195.508 125.358 195.364L126.288 199.208C125.606 199.394 124.841 199.569 123.994 199.735C123.146 199.921 122.196 200.014 121.142 200.014ZM139.73 200.014C138.035 200.014 136.681 199.724 135.669 199.146C134.656 198.567 133.922 197.761 133.468 196.728C133.013 195.674 132.786 194.454 132.786 193.07V188.296H129.066V184.328L133.034 184.142L133.716 179.492H138.118V184.142H144.256V188.296H138.118V192.977C138.118 193.7 138.231 194.279 138.459 194.713C138.686 195.126 139.017 195.426 139.451 195.612C139.905 195.777 140.463 195.86 141.125 195.86C141.662 195.86 142.158 195.818 142.613 195.736C143.088 195.632 143.532 195.508 143.946 195.364L144.876 199.208C144.194 199.394 143.429 199.569 142.582 199.735C141.734 199.921 140.784 200.014 139.73 200.014ZM155.652 200.014C154.288 200.014 152.996 199.693 151.777 199.053C150.557 198.412 149.565 197.492 148.801 196.294C148.036 195.074 147.654 193.607 147.654 191.892C147.654 190.176 148.036 188.719 148.801 187.521C149.565 186.301 150.557 185.371 151.777 184.731C152.996 184.09 154.288 183.77 155.652 183.77C157.016 183.77 158.307 184.09 159.527 184.731C160.746 185.371 161.738 186.301 162.503 187.521C163.267 188.719 163.65 190.176 163.65 191.892C163.65 193.607 163.267 195.074 162.503 196.294C161.738 197.492 160.746 198.412 159.527 199.053C158.307 199.693 157.016 200.014 155.652 200.014ZM155.652 195.736C156.251 195.736 156.737 195.581 157.109 195.271C157.481 194.961 157.749 194.516 157.915 193.938C158.101 193.359 158.194 192.677 158.194 191.892C158.194 191.106 158.101 190.424 157.915 189.846C157.749 189.267 157.481 188.823 157.109 188.513C156.737 188.203 156.251 188.048 155.652 188.048C155.052 188.048 154.567 188.203 154.195 188.513C153.823 188.823 153.544 189.267 153.358 189.846C153.192 190.424 153.11 191.106 153.11 191.892C153.11 192.677 153.192 193.359 153.358 193.938C153.544 194.516 153.823 194.961 154.195 195.271C154.567 195.581 155.052 195.736 155.652 195.736ZM165.745 199.642V184.142H169.713L170.085 186.002H170.209C170.457 185.402 170.84 184.886 171.356 184.452C171.894 183.997 172.607 183.77 173.495 183.77C174.136 183.77 174.684 183.987 175.138 184.421C175.614 184.834 175.934 185.444 176.099 186.25C176.327 185.588 176.719 185.01 177.277 184.514C177.835 184.018 178.559 183.77 179.447 183.77C180.563 183.77 181.421 184.235 182.02 185.165C182.62 186.074 182.919 187.304 182.919 188.854V199.642H177.897V189.226C177.897 188.606 177.722 188.296 177.37 188.296C177.164 188.296 176.978 188.389 176.812 188.575C176.647 188.761 176.492 189.06 176.347 189.474V199.642H172.317V189.226C172.317 188.895 172.266 188.657 172.162 188.513C172.059 188.368 171.904 188.296 171.697 188.296C171.511 188.296 171.346 188.389 171.201 188.575C171.057 188.761 170.912 189.06 170.767 189.474V199.642H165.745Z" fill="#009F71"/>
    <path d="M75.317 31V10.788H79.874V27.156H88.864V31H75.317ZM97.5319 31.372C96.4986 31.372 95.5996 31.1653 94.8349 30.752C94.0909 30.3387 93.5122 29.7807 93.0989 29.078C92.6856 28.3753 92.4789 27.59 92.4789 26.722C92.4789 25.0067 93.2539 23.6943 94.8039 22.785C96.3746 21.8757 98.9786 21.3177 102.616 21.111C102.554 20.6357 102.399 20.2327 102.151 19.902C101.903 19.5713 101.541 19.3233 101.066 19.158C100.611 18.972 100.033 18.879 99.3299 18.879C98.8339 18.879 98.3379 18.941 97.8419 19.065C97.3459 19.1683 96.8292 19.3337 96.2919 19.561C95.7752 19.7677 95.2276 20.0157 94.6489 20.305L93.0369 17.329C93.7396 16.9157 94.4732 16.554 95.2379 16.244C96.0232 15.934 96.8292 15.6963 97.6559 15.531C98.5032 15.345 99.3609 15.252 100.229 15.252C101.676 15.252 102.916 15.5103 103.949 16.027C104.982 16.523 105.778 17.2877 106.336 18.321C106.894 19.3337 107.173 20.6253 107.173 22.196V31H103.453L103.112 29.264H102.988C102.223 29.8427 101.376 30.3387 100.446 30.752C99.5159 31.1653 98.5446 31.372 97.5319 31.372ZM98.9889 27.838C99.6709 27.838 100.312 27.7037 100.911 27.435C101.51 27.1457 102.079 26.7943 102.616 26.381V23.839C101.107 23.9217 99.9292 24.0767 99.0819 24.304C98.2552 24.5313 97.6766 24.8207 97.3459 25.172C97.0152 25.5233 96.8499 25.9263 96.8499 26.381C96.8499 26.691 96.9326 26.9597 97.0979 27.187C97.2839 27.4143 97.5319 27.5797 97.8419 27.683C98.1726 27.7863 98.5549 27.838 98.9889 27.838ZM113.609 37.014C113.154 37.014 112.73 36.983 112.338 36.921C111.945 36.859 111.583 36.7867 111.253 36.704L112.059 33.232C112.265 33.294 112.472 33.3353 112.679 33.356C112.885 33.3973 113.082 33.418 113.268 33.418C114.156 33.418 114.849 33.2217 115.345 32.829C115.861 32.457 116.244 31.9817 116.492 31.403L116.802 30.597L110.137 15.624H114.663L117.236 22.227C117.525 22.9503 117.794 23.7047 118.042 24.49C118.29 25.2547 118.538 26.04 118.786 26.846H118.91C119.116 26.0813 119.344 25.3063 119.592 24.521C119.84 23.7357 120.077 22.971 120.305 22.227L122.568 15.624H126.877L120.801 31.155C120.325 32.4363 119.767 33.511 119.127 34.379C118.507 35.247 117.752 35.898 116.864 36.332C115.996 36.7867 114.911 37.014 113.609 37.014ZM137.064 31.372C135.72 31.372 134.449 31.062 133.251 30.442C132.052 29.8013 131.081 28.8817 130.337 27.683C129.593 26.4637 129.221 25.0067 129.221 23.312C129.221 21.6173 129.593 20.1707 130.337 18.972C131.081 17.7527 132.052 16.833 133.251 16.213C134.449 15.5723 135.72 15.252 137.064 15.252C138.407 15.252 139.678 15.5723 140.877 16.213C142.075 16.833 143.047 17.7527 143.791 18.972C144.535 20.1707 144.907 21.6173 144.907 23.312C144.907 25.0067 144.535 26.4637 143.791 27.683C143.047 28.8817 142.075 29.8013 140.877 30.442C139.678 31.062 138.407 31.372 137.064 31.372ZM137.064 27.683C137.766 27.683 138.345 27.5073 138.8 27.156C139.275 26.8047 139.626 26.2983 139.854 25.637C140.102 24.9757 140.226 24.2007 140.226 23.312C140.226 22.4233 140.102 21.6483 139.854 20.987C139.626 20.3257 139.275 19.8193 138.8 19.468C138.345 19.1167 137.766 18.941 137.064 18.941C136.361 18.941 135.772 19.1167 135.297 19.468C134.842 19.8193 134.491 20.3257 134.243 20.987C134.015 21.6483 133.902 22.4233 133.902 23.312C133.902 24.2007 134.015 24.9757 134.243 25.637C134.491 26.2983 134.842 26.8047 135.297 27.156C135.772 27.5073 136.361 27.683 137.064 27.683ZM153.265 31.372C151.508 31.372 150.237 30.814 149.452 29.698C148.666 28.582 148.274 27.0527 148.274 25.11V15.624H152.831V24.521C152.831 25.5543 152.986 26.3087 153.296 26.784C153.626 27.2593 154.215 27.497 155.063 27.497C155.641 27.497 156.158 27.373 156.613 27.125C157.067 26.877 157.553 26.412 158.07 25.73V15.624H162.627V31H158.907L158.566 28.799H158.442C157.76 29.5637 157.005 30.1837 156.179 30.659C155.352 31.1343 154.381 31.372 153.265 31.372ZM176.967 31.372C175.335 31.372 174.033 31.093 173.061 30.535C172.111 29.9563 171.418 29.1607 170.984 28.148C170.55 27.1353 170.333 25.9573 170.333 24.614V19.189H166.489V15.81L170.55 15.624L171.139 10.912H174.89V15.624H181.4V19.189H174.89V24.583C174.89 25.3477 175.004 25.9677 175.231 26.443C175.459 26.9183 175.81 27.2697 176.285 27.497C176.761 27.7037 177.37 27.807 178.114 27.807C178.714 27.807 179.261 27.7553 179.757 27.652C180.253 27.5487 180.729 27.4143 181.183 27.249L181.989 30.535C181.307 30.7417 180.553 30.9277 179.726 31.093C178.92 31.279 178.001 31.372 176.967 31.372Z" fill="#00DA9A"/>
</svg>