<svg width="100%" height="100%" viewBox="0 0 221 63" fill="none"
    xmlns="http://www.w3.org/2000/svg">
    <rect x="1" y="1" width="219" height="49" stroke="#00CF92" stroke-width="2"/>
    <path d="M56.294 37V16.788H63.083C64.4883 16.788 65.749 16.943 66.865 17.253C67.981 17.5423 68.8593 18.0487 69.5 18.772C70.1613 19.4953 70.492 20.508 70.492 21.81C70.492 22.7193 70.213 23.5977 69.655 24.445C69.097 25.2923 68.2187 25.871 67.02 26.181V26.305C68.4667 26.553 69.562 27.0697 70.306 27.855C71.05 28.6197 71.422 29.684 71.422 31.048C71.422 32.412 71.081 33.5383 70.399 34.427C69.717 35.295 68.787 35.946 67.609 36.38C66.4517 36.7933 65.1393 37 63.672 37H56.294ZM60.851 24.91H62.866C63.982 24.91 64.788 24.693 65.284 24.259C65.78 23.8043 66.028 23.1947 66.028 22.43C66.028 21.686 65.7697 21.159 65.253 20.849C64.757 20.5183 63.9717 20.353 62.897 20.353H60.851V24.91ZM60.851 33.435H63.3C64.54 33.435 65.4597 33.2077 66.059 32.753C66.6583 32.2983 66.958 31.6163 66.958 30.707C66.958 29.8183 66.6583 29.1777 66.059 28.785C65.4597 28.3923 64.54 28.196 63.3 28.196H60.851V33.435ZM79.5009 37.372C77.7442 37.372 76.4732 36.814 75.6879 35.698C74.9026 34.582 74.5099 33.0527 74.5099 31.11V21.624H79.0669V30.521C79.0669 31.5543 79.2219 32.3087 79.5319 32.784C79.8626 33.2593 80.4516 33.497 81.2989 33.497C81.8776 33.497 82.3942 33.373 82.8489 33.125C83.3036 32.877 83.7892 32.412 84.3059 31.73V21.624H88.8629V37H85.1429L84.8019 34.799H84.6779C83.9959 35.5637 83.2416 36.1837 82.4149 36.659C81.5882 37.1343 80.6169 37.372 79.5009 37.372ZM103.204 37.372C101.571 37.372 100.269 37.093 99.2978 36.535C98.3471 35.9563 97.6548 35.1607 97.2208 34.148C96.7868 33.1353 96.5698 31.9573 96.5698 30.614V25.189H92.7258V21.81L96.7868 21.624L97.3758 16.912H101.127V21.624H107.637V25.189H101.127V30.583C101.127 31.3477 101.24 31.9677 101.468 32.443C101.695 32.9183 102.046 33.2697 102.522 33.497C102.997 33.7037 103.607 33.807 104.351 33.807C104.95 33.807 105.498 33.7553 105.994 33.652C106.49 33.5487 106.965 33.4143 107.42 33.249L108.226 36.535C107.544 36.7417 106.789 36.9277 105.963 37.093C105.157 37.279 104.237 37.372 103.204 37.372ZM121.792 37.372C120.159 37.372 118.857 37.093 117.886 36.535C116.935 35.9563 116.243 35.1607 115.809 34.148C115.375 33.1353 115.158 31.9573 115.158 30.614V25.189H111.314V21.81L115.375 21.624L115.964 16.912H119.715V21.624H126.225V25.189H119.715V30.583C119.715 31.3477 119.828 31.9677 120.056 32.443C120.283 32.9183 120.634 33.2697 121.11 33.497C121.585 33.7037 122.195 33.807 122.939 33.807C123.538 33.807 124.086 33.7553 124.582 33.652C125.078 33.5487 125.553 33.4143 126.008 33.249L126.814 36.535C126.132 36.7417 125.377 36.9277 124.551 37.093C123.745 37.279 122.825 37.372 121.792 37.372ZM137.652 37.372C136.308 37.372 135.037 37.062 133.839 36.442C132.64 35.8013 131.669 34.8817 130.925 33.683C130.181 32.4637 129.809 31.0067 129.809 29.312C129.809 27.6173 130.181 26.1707 130.925 24.972C131.669 23.7527 132.64 22.833 133.839 22.213C135.037 21.5723 136.308 21.252 137.652 21.252C138.995 21.252 140.266 21.5723 141.465 22.213C142.663 22.833 143.635 23.7527 144.379 24.972C145.123 26.1707 145.495 27.6173 145.495 29.312C145.495 31.0067 145.123 32.4637 144.379 33.683C143.635 34.8817 142.663 35.8013 141.465 36.442C140.266 37.062 138.995 37.372 137.652 37.372ZM137.652 33.683C138.354 33.683 138.933 33.5073 139.388 33.156C139.863 32.8047 140.214 32.2983 140.442 31.637C140.69 30.9757 140.814 30.2007 140.814 29.312C140.814 28.4233 140.69 27.6483 140.442 26.987C140.214 26.3257 139.863 25.8193 139.388 25.468C138.933 25.1167 138.354 24.941 137.652 24.941C136.949 24.941 136.36 25.1167 135.885 25.468C135.43 25.8193 135.079 26.3257 134.831 26.987C134.603 27.6483 134.49 28.4233 134.49 29.312C134.49 30.2007 134.603 30.9757 134.831 31.637C135.079 32.2983 135.43 32.8047 135.885 33.156C136.36 33.5073 136.949 33.683 137.652 33.683ZM149.171 37V21.624H152.891L153.232 23.67H153.356C154.018 23.0087 154.772 22.4403 155.619 21.965C156.487 21.4897 157.5 21.252 158.657 21.252C160.393 21.252 161.664 21.81 162.47 22.926C163.276 24.042 163.679 25.5713 163.679 27.514V37H159.122V28.103C159.122 27.0697 158.947 26.3153 158.595 25.84C158.265 25.3647 157.686 25.127 156.859 25.127C156.239 25.127 155.692 25.2717 155.216 25.561C154.762 25.8297 154.266 26.2223 153.728 26.739V37H149.171Z" fill="#00CF92"/>
    <path d="M205.247 52.5316L211.918 58.6884L208.667 61.9393L202.697 55.9697L202.167 55.4393L201.636 55.9697L199.47 58.1363L195.994 61.6116L188.187 38.1898L210.869 45.8061L205.225 51.4501L204.673 52.0022L205.247 52.5316Z" fill="#71FFAC" stroke="#00CF92" stroke-width="1.5"/>
</svg>