<svg width="100%" height="100%" viewBox="0 0 394 220" fill="none"
    xmlns="http://www.w3.org/2000/svg">
    <path d="M35 217L24 205.781L29.5 200.391L35 195" stroke="#666666" stroke-width="5" stroke-linecap="round" stroke-linejoin="round"/>
    <path d="M54 217L65 205.781L59.5 200.391L54 195" stroke="#666666" stroke-width="5" stroke-linecap="round" stroke-linejoin="round"/>
    <mask id="mask0_339_95" style="mask-type:alpha" maskUnits="userSpaceOnUse" x="9" y="49" width="385" height="136">
        <rect x="9.5" y="49.5" width="384" height="135" fill="#D9D9D9" stroke="#009F71"/>
    </mask>
    <g mask="url(#mask0_339_95)">
        <rect x="162.5" y="58.481" width="133" height="116" rx="14.5" fill="white" stroke="#71FFAC"/>
        <path d="M208.171 120.701L185 141.502H279L247.93 106.746L222.653 134.393L208.171 120.701Z" fill="#D9D9D9" stroke="#878787"/>
        <circle cx="209.487" cy="100.689" r="5.0028" fill="#D9D9D9"/>
        <line x1="209.724" y1="106.219" x2="209.724" y2="109.378" stroke="#979797"/>
        <line x1="209.724" y1="92" x2="209.724" y2="95.1597" stroke="#979797"/>
        <line x1="218.177" y1="100.926" x2="215.017" y2="100.926" stroke="#979797"/>
        <line x1="203.958" y1="100.926" x2="200.798" y2="100.926" stroke="#979797"/>
        <line x1="204.019" y1="98.9905" x2="201.124" y2="97.7244" stroke="#979797"/>
        <line x1="205.015" y1="97.0367" x2="202.585" y2="95.0173" stroke="#979797"/>
        <line x1="206.769" y1="95.4786" x2="205.112" y2="92.7885" stroke="#979797"/>
        <line x1="215.033" y1="102.601" x2="217.928" y2="103.867" stroke="#979797"/>
        <line x1="214.037" y1="104.555" x2="216.467" y2="106.574" stroke="#979797"/>
        <line x1="212.283" y1="106.113" x2="213.94" y2="108.803" stroke="#979797"/>
        <line y1="-0.5" x2="3.15966" y2="-0.5" transform="matrix(-0.916219 0.400678 0.400678 0.916219 204.22 103.059)" stroke="#979797"/>
        <line y1="-0.5" x2="3.15966" y2="-0.5" transform="matrix(-0.769123 0.6391 0.6391 0.769123 205.335 104.939)" stroke="#979797"/>
        <line y1="-0.5" x2="3.15966" y2="-0.5" transform="matrix(-0.524555 0.851376 0.851376 0.524555 207.195 106.375)" stroke="#979797"/>
        <line y1="-0.5" x2="3.15966" y2="-0.5" transform="matrix(0.916219 -0.400678 -0.400678 -0.916219 214.833 98.5323)" stroke="#979797"/>
        <line y1="-0.5" x2="3.15966" y2="-0.5" transform="matrix(0.769123 -0.6391 -0.6391 -0.769123 213.718 96.6521)" stroke="#979797"/>
        <line y1="-0.5" x2="3.15966" y2="-0.5" transform="matrix(0.524555 -0.851376 -0.851376 -0.524555 211.857 95.2163)" stroke="#979797"/>
        <rect x="306.5" y="58.481" width="132" height="116" rx="14.5" fill="white" stroke="#71FFAC"/>
        <path d="M352.963 120.682L329 142.194H426.212L394.081 106.25L367.939 134.842L352.963 120.682Z" fill="#D9D9D9" stroke="#878787"/>
        <circle cx="354.324" cy="99.9859" r="5.17377" fill="#D9D9D9"/>
        <line x1="354.552" y1="105.704" x2="354.552" y2="108.972" stroke="#979797"/>
        <line x1="354.552" y1="91" x2="354.552" y2="94.2676" stroke="#979797"/>
        <line x1="363.31" y1="100.214" x2="360.042" y2="100.214" stroke="#979797"/>
        <line x1="348.606" y1="100.214" x2="345.338" y2="100.214" stroke="#979797"/>
        <line x1="348.676" y1="98.2136" x2="345.682" y2="96.9043" stroke="#979797"/>
        <line x1="349.71" y1="96.1956" x2="347.197" y2="94.1072" stroke="#979797"/>
        <line x1="351.528" y1="94.5884" x2="349.814" y2="91.8064" stroke="#979797"/>
        <line x1="360.052" y1="101.979" x2="363.046" y2="103.288" stroke="#979797"/>
        <line x1="359.019" y1="103.997" x2="361.532" y2="106.085" stroke="#979797"/>
        <line x1="357.2" y1="105.604" x2="358.914" y2="108.386" stroke="#979797"/>
        <line y1="-0.5" x2="3.26765" y2="-0.5" transform="matrix(-0.916219 0.400678 0.400678 0.916219 348.876 102.437)" stroke="#979797"/>
        <line y1="-0.5" x2="3.26765" y2="-0.5" transform="matrix(-0.769123 0.6391 0.6391 0.769123 350.03 104.381)" stroke="#979797"/>
        <line y1="-0.5" x2="3.26765" y2="-0.5" transform="matrix(-0.524555 0.851376 0.851376 0.524555 351.954 105.866)" stroke="#979797"/>
        <line y1="-0.5" x2="3.26765" y2="-0.5" transform="matrix(0.916219 -0.400678 -0.400678 -0.916219 359.852 97.7555)" stroke="#979797"/>
        <line y1="-0.5" x2="3.26765" y2="-0.5" transform="matrix(0.769123 -0.6391 -0.6391 -0.769123 358.699 95.811)" stroke="#979797"/>
        <line y1="-0.5" x2="3.26765" y2="-0.5" transform="matrix(0.524555 -0.851376 -0.851376 -0.524555 356.775 94.3262)" stroke="#979797"/>
        <rect x="10.5" y="55.481" width="140" height="123" rx="13.5" fill="white" stroke="#009F71" stroke-width="3"/>
        <path d="M56.4064 121.709L30 145.414H137.126L101.717 105.805L72.9104 137.312L56.4064 121.709Z" fill="#D9D9D9" stroke="#878787"/>
        <circle cx="57.9065" cy="98.9023" r="5.70138" fill="#D9D9D9"/>
        <line x1="58.1062" y1="105.204" x2="58.1062" y2="108.805" stroke="#979797"/>
        <line x1="58.1062" y1="89" x2="58.1062" y2="92.6009" stroke="#979797"/>
        <line x1="67.8088" y1="99.1022" x2="64.208" y2="99.1022" stroke="#979797"/>
        <line x1="51.6047" y1="99.1022" x2="48.0039" y2="99.1022" stroke="#979797"/>
        <line x1="51.7027" y1="96.9024" x2="48.4035" y2="95.4597" stroke="#979797"/>
        <line x1="52.8543" y1="94.6863" x2="50.0848" y2="92.385" stroke="#979797"/>
        <line x1="54.8687" y1="92.9277" x2="52.9799" y2="89.862" stroke="#979797"/>
        <line x1="64.1989" y1="101.145" x2="67.4981" y2="102.588" stroke="#979797"/>
        <line x1="63.0473" y1="103.361" x2="65.8168" y2="105.663" stroke="#979797"/>
        <line x1="61.0324" y1="105.12" x2="62.9212" y2="108.186" stroke="#979797"/>
        <line y1="-0.5" x2="3.60087" y2="-0.5" transform="matrix(-0.916219 0.400678 0.400678 0.916219 51.9031 101.603)" stroke="#979797"/>
        <line y1="-0.5" x2="3.60087" y2="-0.5" transform="matrix(-0.769123 0.6391 0.6391 0.769123 53.1738 103.746)" stroke="#979797"/>
        <line y1="-0.5" x2="3.60087" y2="-0.5" transform="matrix(-0.524555 0.851376 0.851376 0.524555 55.2944 105.382)" stroke="#979797"/>
        <line y1="-0.5" x2="3.60087" y2="-0.5" transform="matrix(0.916219 -0.400678 -0.400678 -0.916219 63.9985 96.4443)" stroke="#979797"/>
        <line y1="-0.5" x2="3.60087" y2="-0.5" transform="matrix(0.769123 -0.6391 -0.6391 -0.769123 62.7278 94.3018)" stroke="#979797"/>
        <line y1="-0.5" x2="3.60087" y2="-0.5" transform="matrix(0.524555 -0.851376 -0.851376 -0.524555 60.6067 92.6654)" stroke="#979797"/>
    </g>
    <circle cx="286.5" cy="206.5" r="7.5" fill="#919191"/>
    <circle cx="311.5" cy="206.5" r="7.5" fill="#D9D9D9"/>
    <circle cx="386.5" cy="205.5" r="7.5" fill="#D9D9D9"/>
    <circle cx="361.5" cy="205.5" r="7.5" fill="#D9D9D9"/>
    <circle cx="336.5" cy="205.5" r="7.5" fill="#D9D9D9"/>
    <path d="M136.456 31.384C135.155 31.384 133.907 31.1707 132.712 30.744C131.539 30.296 130.493 29.6347 129.576 28.76C128.659 27.864 127.933 26.7547 127.4 25.432C126.867 24.088 126.6 22.5307 126.6 20.76C126.6 18.4347 127.059 16.4613 127.976 14.84C128.893 13.1973 130.12 11.9493 131.656 11.096C133.192 10.2427 134.899 9.816 136.776 9.816C138.12 9.816 139.336 10.0933 140.424 10.648C141.533 11.1813 142.451 11.8 143.176 12.504L140.168 15.896C139.699 15.4693 139.187 15.1387 138.632 14.904C138.099 14.6693 137.48 14.552 136.776 14.552C135.923 14.552 135.155 14.7973 134.472 15.288C133.789 15.7573 133.245 16.44 132.84 17.336C132.435 18.232 132.232 19.3093 132.232 20.568C132.232 21.8693 132.435 22.9787 132.84 23.896C133.245 24.792 133.811 25.4747 134.536 25.944C135.261 26.4133 136.093 26.648 137.032 26.648C137.715 26.648 138.333 26.488 138.888 26.168C139.464 25.848 139.976 25.4533 140.424 24.984L143.432 28.312C142.579 29.336 141.555 30.104 140.36 30.616C139.165 31.128 137.864 31.384 136.456 31.384ZM151.1 31.384C149.99 31.384 149.052 31.16 148.284 30.712C147.516 30.2427 146.929 29.6347 146.524 28.888C146.118 28.1413 145.916 27.3307 145.916 26.456C145.916 24.664 146.684 23.2987 148.22 22.36C149.777 21.4 152.38 20.824 156.028 20.632C155.964 20.248 155.804 19.9387 155.548 19.704C155.292 19.448 154.94 19.2667 154.492 19.16C154.065 19.032 153.553 18.968 152.956 18.968C152.508 18.968 152.049 19.0213 151.58 19.128C151.11 19.2133 150.609 19.3627 150.076 19.576C149.564 19.768 148.988 20.0133 148.348 20.312L146.428 16.728C147.238 16.28 148.06 15.896 148.891 15.576C149.724 15.256 150.566 15.0213 151.42 14.872C152.273 14.7013 153.148 14.616 154.044 14.616C155.558 14.616 156.87 14.8827 157.98 15.416C159.11 15.928 159.985 16.7387 160.604 17.848C161.222 18.936 161.532 20.3547 161.532 22.104V31H157.052L156.668 29.336H156.54C155.75 29.912 154.897 30.4027 153.98 30.808C153.062 31.192 152.102 31.384 151.1 31.384ZM152.892 27.16C153.532 27.16 154.108 27.0427 154.62 26.808C155.132 26.552 155.601 26.264 156.028 25.944V23.896C154.726 23.9387 153.724 24.056 153.02 24.248C152.316 24.44 151.825 24.696 151.548 25.016C151.292 25.3147 151.164 25.6453 151.164 26.008C151.164 26.2427 151.228 26.456 151.356 26.648C151.484 26.8187 151.676 26.9467 151.932 27.032C152.188 27.1173 152.508 27.16 152.892 27.16ZM166.703 31V15H171.215L171.631 18.392H171.759C172.527 17.0693 173.455 16.1093 174.543 15.512C175.652 14.9147 176.804 14.616 177.999 14.616C178.746 14.616 179.322 14.68 179.727 14.808C180.154 14.9147 180.591 15.064 181.039 15.256L179.951 19.864C179.482 19.7147 179.044 19.608 178.639 19.544C178.234 19.4587 177.743 19.416 177.167 19.416C176.25 19.416 175.343 19.6933 174.447 20.248C173.551 20.7813 172.804 21.72 172.207 23.064V31H166.703ZM192.163 31.384C190.755 31.384 189.421 31.0533 188.163 30.392C186.904 29.7307 185.88 28.7813 185.091 27.544C184.301 26.2853 183.907 24.7707 183.907 23C183.907 21.2293 184.301 19.7253 185.091 18.488C185.88 17.2293 186.904 16.2693 188.163 15.608C189.421 14.9467 190.755 14.616 192.163 14.616C193.571 14.616 194.904 14.9467 196.163 15.608C197.421 16.2693 198.445 17.2293 199.235 18.488C200.024 19.7253 200.419 21.2293 200.419 23C200.419 24.7707 200.024 26.2853 199.235 27.544C198.445 28.7813 197.421 29.7307 196.163 30.392C194.904 31.0533 193.571 31.384 192.163 31.384ZM192.163 26.968C192.781 26.968 193.283 26.808 193.667 26.488C194.051 26.168 194.328 25.7093 194.499 25.112C194.691 24.5147 194.787 23.8107 194.787 23C194.787 22.1893 194.691 21.4853 194.499 20.888C194.328 20.2907 194.051 19.832 193.667 19.512C193.283 19.192 192.781 19.032 192.163 19.032C191.544 19.032 191.043 19.192 190.659 19.512C190.275 19.832 189.987 20.2907 189.795 20.888C189.624 21.4853 189.539 22.1893 189.539 23C189.539 23.8107 189.624 24.5147 189.795 25.112C189.987 25.7093 190.275 26.168 190.659 26.488C191.043 26.808 191.544 26.968 192.163 26.968ZM208.598 31.384C206.806 31.384 205.515 30.7973 204.726 29.624C203.937 28.4293 203.542 26.84 203.542 24.856V15H209.046V24.152C209.046 25.048 209.163 25.6987 209.398 26.104C209.654 26.5093 210.145 26.712 210.87 26.712C211.339 26.712 211.755 26.6267 212.118 26.456C212.481 26.264 212.865 25.88 213.27 25.304V15H218.774V31H214.294L213.91 28.888H213.782C213.121 29.656 212.374 30.264 211.542 30.712C210.71 31.16 209.729 31.384 208.598 31.384ZM230.218 31.384C228.852 31.384 227.466 31.1493 226.058 30.68C224.65 30.1893 223.434 29.6133 222.41 28.952L224.714 25.56C225.716 26.1573 226.751 26.6053 227.818 26.904C228.906 27.2027 229.962 27.352 230.986 27.352C231.69 27.352 232.191 27.2667 232.49 27.096C232.81 26.904 232.97 26.6693 232.97 26.392C232.97 26.2 232.906 26.04 232.778 25.912C232.671 25.784 232.479 25.6773 232.202 25.592C231.946 25.4853 231.594 25.3893 231.146 25.304C230.698 25.1973 230.132 25.0693 229.45 24.92C227.252 24.4293 225.695 23.768 224.778 22.936C223.882 22.0827 223.434 21.0373 223.434 19.8C223.434 18.2213 224.116 16.9627 225.482 16.024C226.868 15.0853 228.724 14.616 231.05 14.616C232.564 14.616 233.908 14.8613 235.082 15.352C236.276 15.8213 237.3 16.3227 238.154 16.856L235.722 20.12C234.89 19.6293 234.026 19.2667 233.13 19.032C232.234 18.776 231.37 18.648 230.538 18.648C230.196 18.648 229.898 18.68 229.642 18.744C229.407 18.808 229.215 18.9147 229.066 19.064C228.938 19.192 228.874 19.352 228.874 19.544C228.874 19.8853 229.119 20.12 229.61 20.248C230.1 20.376 230.964 20.5893 232.202 20.888C233.802 21.2507 235.05 21.6667 235.946 22.136C236.863 22.6053 237.503 23.16 237.866 23.8C238.228 24.4187 238.41 25.176 238.41 26.072C238.41 27.0747 238.1 27.9813 237.482 28.792C236.863 29.5813 235.946 30.2107 234.73 30.68C233.514 31.1493 232.01 31.384 230.218 31.384ZM250.685 31.384C249 31.384 247.474 31.0533 246.109 30.392C244.765 29.7307 243.698 28.7813 242.909 27.544C242.12 26.2853 241.725 24.7707 241.725 23C241.725 21.2507 242.12 19.7573 242.909 18.52C243.72 17.2613 244.765 16.3013 246.045 15.64C247.325 14.9573 248.68 14.616 250.109 14.616C251.794 14.616 253.202 14.968 254.333 15.672C255.464 16.3547 256.306 17.2827 256.861 18.456C257.437 19.6293 257.725 20.9307 257.725 22.36C257.725 22.8293 257.693 23.288 257.629 23.736C257.586 24.1627 257.544 24.472 257.501 24.664H245.885V21.08H253.693L252.925 22.04C252.925 20.9733 252.712 20.1627 252.285 19.608C251.858 19.0533 251.197 18.776 250.301 18.776C249.597 18.776 249 18.9253 248.509 19.224C248.04 19.5227 247.677 19.992 247.421 20.632C247.165 21.2507 247.037 22.04 247.037 23C247.037 24.0027 247.197 24.8133 247.517 25.432C247.858 26.0507 248.349 26.5093 248.989 26.808C249.65 27.0853 250.472 27.224 251.453 27.224C252.093 27.224 252.712 27.1493 253.309 27C253.928 26.8293 254.589 26.584 255.293 26.264L257.085 29.528C256.125 30.1253 255.069 30.584 253.917 30.904C252.765 31.224 251.688 31.384 250.685 31.384ZM271.825 31.384C269.691 31.384 268.081 30.744 266.993 29.464C265.926 28.1627 265.393 26.4773 265.393 24.408V13.016H260.593V8.728H270.897V24.6C270.897 25.5173 271.153 26.1467 271.665 26.488C272.198 26.808 272.742 26.968 273.297 26.968C273.638 26.968 273.99 26.936 274.353 26.872C274.715 26.7867 275.131 26.6693 275.601 26.52L276.785 30.552C275.931 30.808 275.153 31.0107 274.449 31.16C273.745 31.3093 272.87 31.384 271.825 31.384Z" fill="#00DA9A"/>
</svg>
