<svg width="100%" height="100%" viewBox="0 0 257 150" fill="none"
    xmlns="http://www.w3.org/2000/svg">
    <rect x="1" y="40" width="255" height="109" rx="16" stroke="#00DA9A" stroke-width="2"/>
    <rect x="10" y="52" width="237" height="21" fill="#BCBCBC"/>
    <rect x="10" y="82" width="237" height="21" fill="#BCBCBC"/>
    <rect x="10" y="112" width="237" height="21" fill="#BCBCBC"/>
    <path d="M83.098 31.372C81.8373 31.372 80.6283 31.1653 79.471 30.752C78.3343 30.318 77.3217 29.6773 76.433 28.83C75.5443 27.962 74.8417 26.8873 74.325 25.606C73.8083 24.304 73.55 22.7953 73.55 21.08C73.55 18.8273 73.9943 16.9157 74.883 15.345C75.7717 13.7537 76.96 12.5447 78.448 11.718C79.936 10.8913 81.5893 10.478 83.408 10.478C84.71 10.478 85.888 10.7467 86.942 11.284C88.0167 11.8007 88.9053 12.4 89.608 13.082L86.694 16.368C86.2393 15.9547 85.7433 15.6343 85.206 15.407C84.6893 15.1797 84.09 15.066 83.408 15.066C82.5813 15.066 81.8373 15.3037 81.176 15.779C80.5147 16.2337 79.9877 16.895 79.595 17.763C79.2023 18.631 79.006 19.6747 79.006 20.894C79.006 22.1547 79.2023 23.2293 79.595 24.118C79.9877 24.986 80.5353 25.6473 81.238 26.102C81.9407 26.5567 82.7467 26.784 83.656 26.784C84.3173 26.784 84.9167 26.629 85.454 26.319C86.012 26.009 86.508 25.6267 86.942 25.172L89.856 28.396C89.0293 29.388 88.0373 30.132 86.88 30.628C85.7227 31.124 84.462 31.372 83.098 31.372ZM99.8879 31.372C98.5239 31.372 97.2322 31.0517 96.0129 30.411C94.7936 29.7703 93.8016 28.8507 93.0369 27.652C92.2722 26.4327 91.8899 24.9653 91.8899 23.25C91.8899 21.5347 92.2722 20.0777 93.0369 18.879C93.8016 17.6597 94.7936 16.7297 96.0129 16.089C97.2322 15.4483 98.5239 15.128 99.8879 15.128C101.252 15.128 102.544 15.4483 103.763 16.089C104.982 16.7297 105.974 17.6597 106.739 18.879C107.504 20.0777 107.886 21.5347 107.886 23.25C107.886 24.9653 107.504 26.4327 106.739 27.652C105.974 28.8507 104.982 29.7703 103.763 30.411C102.544 31.0517 101.252 31.372 99.8879 31.372ZM99.8879 27.094C100.487 27.094 100.973 26.939 101.345 26.629C101.717 26.319 101.986 25.8747 102.151 25.296C102.337 24.7173 102.43 24.0353 102.43 23.25C102.43 22.4647 102.337 21.7827 102.151 21.204C101.986 20.6253 101.717 20.181 101.345 19.871C100.973 19.561 100.487 19.406 99.8879 19.406C99.2886 19.406 98.8029 19.561 98.4309 19.871C98.0589 20.181 97.7799 20.6253 97.5939 21.204C97.4286 21.7827 97.3459 22.4647 97.3459 23.25C97.3459 24.0353 97.4286 24.7173 97.5939 25.296C97.7799 25.8747 98.0589 26.319 98.4309 26.629C98.8029 26.939 99.2886 27.094 99.8879 27.094ZM121.297 31.372C119.23 31.372 117.67 30.752 116.616 29.512C115.582 28.2513 115.066 26.6187 115.066 24.614V13.578H110.416V9.424H120.398V24.8C120.398 25.6887 120.646 26.2983 121.142 26.629C121.658 26.939 122.185 27.094 122.723 27.094C123.053 27.094 123.394 27.063 123.746 27.001C124.097 26.9183 124.5 26.8047 124.955 26.66L126.102 30.566C125.275 30.814 124.521 31.0103 123.839 31.155C123.157 31.2997 122.309 31.372 121.297 31.372ZM134.398 31.372C132.662 31.372 131.411 30.8037 130.647 29.667C129.882 28.5097 129.5 26.97 129.5 25.048V15.5H134.832V24.366C134.832 25.234 134.945 25.8643 135.173 26.257C135.421 26.6497 135.896 26.846 136.599 26.846C137.053 26.846 137.456 26.7633 137.808 26.598C138.159 26.412 138.531 26.04 138.924 25.482V15.5H144.256V31H139.916L139.544 28.954H139.42C138.779 29.698 138.056 30.287 137.25 30.721C136.444 31.155 135.493 31.372 134.398 31.372ZM147.158 31V15.5H151.126L151.498 17.36H151.622C151.87 16.7607 152.252 16.244 152.769 15.81C153.306 15.3553 154.019 15.128 154.908 15.128C155.548 15.128 156.096 15.345 156.551 15.779C157.026 16.1923 157.346 16.802 157.512 17.608C157.739 16.9467 158.132 16.368 158.69 15.872C159.248 15.376 159.971 15.128 160.86 15.128C161.976 15.128 162.833 15.593 163.433 16.523C164.032 17.4323 164.332 18.662 164.332 20.212V31H159.31V20.584C159.31 19.964 159.134 19.654 158.783 19.654C158.576 19.654 158.39 19.747 158.225 19.933C158.059 20.119 157.904 20.4187 157.76 20.832V31H153.73V20.584C153.73 20.2533 153.678 20.0157 153.575 19.871C153.471 19.7263 153.316 19.654 153.11 19.654C152.924 19.654 152.758 19.747 152.614 19.933C152.469 20.119 152.324 20.4187 152.18 20.832V31H147.158ZM166.923 31V15.5H171.263L171.635 17.36H171.759C172.379 16.7607 173.113 16.244 173.96 15.81C174.808 15.3553 175.8 15.128 176.936 15.128C178.652 15.128 179.902 15.7067 180.687 16.864C181.473 18.0007 181.865 19.53 181.865 21.452V31H176.533V22.134C176.533 21.266 176.399 20.6357 176.13 20.243C175.882 19.8503 175.417 19.654 174.735 19.654C174.239 19.654 173.805 19.7573 173.433 19.964C173.061 20.1707 172.669 20.46 172.255 20.832V31H166.923Z" fill="#00DA9A"/>
    <rect x="12" y="54" width="53" height="17" fill="#7E7E7E"/>
    <rect x="12" y="84" width="116" height="17" fill="#7E7E7E"/>
    <rect x="12" y="114" width="53" height="17" fill="#7E7E7E"/>
    <rect x="68" y="114" width="59" height="17" fill="#7E7E7E"/>
    <rect x="130" y="114" width="53" height="17" fill="#7E7E7E"/>
    <rect x="186" y="114" width="59" height="17" fill="#7E7E7E"/>
    <rect x="68" y="54" width="177" height="17" fill="#7E7E7E"/>
    <rect x="130" y="84" width="115" height="17" fill="#7E7E7E"/>
</svg>