<svg width="100%" height="100%" viewBox="0 0 313 252" fill="none"
    xmlns="http://www.w3.org/2000/svg">
    <rect x="1" y="46" width="310.13" height="48" rx="16" stroke="#00DA9A" stroke-width="2"/>
    <rect x="0.867065" y="141" width="309.529" height="32" fill="#CCCCCC" fill-opacity="0.5"/>
    <rect x="1" y="98" width="310.13" height="153" rx="16" fill="#979797" stroke="#00DA9A" stroke-width="2"/>
    <rect x="298.258" y="107" width="6.93623" height="136" fill="#666666"/>
    <rect x="298.258" y="107" width="6.93623" height="44" fill="#D9D9D9"/>
    <path d="M24.9 130.276C23.704 130.276 22.6537 129.977 21.749 129.379C20.8443 128.781 20.139 127.907 19.633 126.757C19.127 125.592 18.874 124.15 18.874 122.433C18.874 120.762 19.127 119.359 19.633 118.224C20.139 117.074 20.8443 116.208 21.749 115.625C22.6537 115.027 23.704 114.728 24.9 114.728C26.096 114.728 27.1463 115.027 28.051 115.625C28.9557 116.208 29.661 117.074 30.167 118.224C30.673 119.359 30.926 120.762 30.926 122.433C30.926 124.15 30.673 125.592 30.167 126.757C29.661 127.907 28.9557 128.781 28.051 129.379C27.1463 129.977 26.096 130.276 24.9 130.276ZM24.9 127.355C25.4213 127.355 25.8737 127.171 26.257 126.803C26.6403 126.42 26.9317 125.868 27.131 125.147C27.3457 124.411 27.453 123.506 27.453 122.433C27.453 121.39 27.3457 120.516 27.131 119.811C26.9317 119.106 26.6403 118.569 26.257 118.201C25.8737 117.833 25.4213 117.649 24.9 117.649C24.3787 117.649 23.9263 117.833 23.543 118.201C23.1597 118.569 22.8607 119.106 22.646 119.811C22.4467 120.516 22.347 121.39 22.347 122.433C22.347 123.506 22.4467 124.411 22.646 125.147C22.8607 125.868 23.1597 126.42 23.543 126.803C23.9263 127.171 24.3787 127.355 24.9 127.355ZM33.447 134.232V118.592H36.207L36.46 119.742H36.529C37.0043 119.328 37.5333 118.991 38.116 118.73C38.714 118.454 39.3197 118.316 39.933 118.316C40.8837 118.316 41.6963 118.554 42.371 119.029C43.061 119.504 43.59 120.179 43.958 121.053C44.326 121.927 44.51 122.947 44.51 124.112C44.51 125.415 44.2723 126.527 43.797 127.447C43.337 128.367 42.7313 129.072 41.98 129.563C41.2287 130.038 40.4237 130.276 39.565 130.276C39.059 130.276 38.5607 130.169 38.07 129.954C37.5947 129.739 37.1577 129.433 36.759 129.034H36.667L36.828 130.897V134.232H33.447ZM38.783 127.516C39.2123 127.516 39.5957 127.401 39.933 127.171C40.2703 126.941 40.5387 126.581 40.738 126.09C40.9373 125.584 41.037 124.94 41.037 124.158C41.037 123.468 40.9603 122.901 40.807 122.456C40.6537 121.996 40.4237 121.651 40.117 121.421C39.8257 121.191 39.4347 121.076 38.944 121.076C38.576 121.076 38.2157 121.16 37.863 121.329C37.5257 121.482 37.1807 121.751 36.828 122.134V126.757C37.15 127.018 37.4797 127.209 37.817 127.332C38.1697 127.455 38.4917 127.516 38.783 127.516ZM54.506 130.276C53.2947 130.276 52.3287 130.069 51.608 129.655C50.9027 129.226 50.389 128.635 50.067 127.884C49.745 127.133 49.584 126.259 49.584 125.262V121.237H46.732V118.73L49.745 118.592L50.182 115.096H52.965V118.592H57.795V121.237H52.965V125.239C52.965 125.806 53.0494 126.266 53.218 126.619C53.3867 126.972 53.6474 127.232 54 127.401C54.3527 127.554 54.805 127.631 55.357 127.631C55.8017 127.631 56.208 127.593 56.576 127.516C56.944 127.439 57.2967 127.34 57.634 127.217L58.232 129.655C57.726 129.808 57.1664 129.946 56.553 130.069C55.955 130.207 55.2727 130.276 54.506 130.276ZM65.767 130V121.237H61.167V118.592H69.148V130H65.767ZM67.308 116.798C66.664 116.798 66.1274 116.614 65.698 116.246C65.2687 115.863 65.054 115.364 65.054 114.751C65.054 114.122 65.2687 113.616 65.698 113.233C66.1274 112.834 66.664 112.635 67.308 112.635C67.9674 112.635 68.504 112.834 68.918 113.233C69.3474 113.616 69.562 114.122 69.562 114.751C69.562 115.364 69.3474 115.863 68.918 116.246C68.504 116.614 67.9674 116.798 67.308 116.798ZM80.0641 130.276C79.0674 130.276 78.1244 130.046 77.2351 129.586C76.3457 129.111 75.6251 128.428 75.0731 127.539C74.5211 126.634 74.2451 125.553 74.2451 124.296C74.2451 123.039 74.5211 121.965 75.0731 121.076C75.6251 120.171 76.3457 119.489 77.2351 119.029C78.1244 118.554 79.0674 118.316 80.0641 118.316C81.0607 118.316 82.0037 118.554 82.8931 119.029C83.7824 119.489 84.5031 120.171 85.0551 121.076C85.6071 121.965 85.8831 123.039 85.8831 124.296C85.8831 125.553 85.6071 126.634 85.0551 127.539C84.5031 128.428 83.7824 129.111 82.8931 129.586C82.0037 130.046 81.0607 130.276 80.0641 130.276ZM80.0641 127.539C80.5854 127.539 81.0147 127.409 81.3521 127.148C81.7047 126.887 81.9654 126.512 82.1341 126.021C82.3181 125.53 82.4101 124.955 82.4101 124.296C82.4101 123.637 82.3181 123.062 82.1341 122.571C81.9654 122.08 81.7047 121.705 81.3521 121.444C81.0147 121.183 80.5854 121.053 80.0641 121.053C79.5427 121.053 79.1057 121.183 78.7531 121.444C78.4157 121.705 78.1551 122.08 77.9711 122.571C77.8024 123.062 77.7181 123.637 77.7181 124.296C77.7181 124.955 77.8024 125.53 77.9711 126.021C78.1551 126.512 78.4157 126.887 78.7531 127.148C79.1057 127.409 79.5427 127.539 80.0641 127.539ZM88.6111 130V118.592H91.3711L91.6241 120.11H91.7161C92.2067 119.619 92.7664 119.198 93.3951 118.845C94.0391 118.492 94.7904 118.316 95.6491 118.316C96.9371 118.316 97.8801 118.73 98.4781 119.558C99.0761 120.386 99.3751 121.521 99.3751 122.962V130H95.9941V123.399C95.9941 122.632 95.8637 122.073 95.6031 121.72C95.3577 121.367 94.9284 121.191 94.3151 121.191C93.8551 121.191 93.4487 121.298 93.0961 121.513C92.7587 121.712 92.3907 122.004 91.9921 122.387V130H88.6111ZM116.354 130V127.263H120.287V118.822H117.044V116.729C117.703 116.622 118.271 116.514 118.746 116.407C119.237 116.284 119.674 116.146 120.057 115.993C120.44 115.824 120.816 115.625 121.184 115.395H123.668V127.263H126.98V130H116.354Z" fill="#71FFAC"/>
    <path d="M24.9 164.276C23.704 164.276 22.6537 163.977 21.749 163.379C20.8443 162.781 20.139 161.907 19.633 160.757C19.127 159.592 18.874 158.15 18.874 156.433C18.874 154.762 19.127 153.359 19.633 152.224C20.139 151.074 20.8443 150.208 21.749 149.625C22.6537 149.027 23.704 148.728 24.9 148.728C26.096 148.728 27.1463 149.027 28.051 149.625C28.9557 150.208 29.661 151.074 30.167 152.224C30.673 153.359 30.926 154.762 30.926 156.433C30.926 158.15 30.673 159.592 30.167 160.757C29.661 161.907 28.9557 162.781 28.051 163.379C27.1463 163.977 26.096 164.276 24.9 164.276ZM24.9 161.355C25.4213 161.355 25.8737 161.171 26.257 160.803C26.6403 160.42 26.9317 159.868 27.131 159.147C27.3457 158.411 27.453 157.506 27.453 156.433C27.453 155.39 27.3457 154.516 27.131 153.811C26.9317 153.106 26.6403 152.569 26.257 152.201C25.8737 151.833 25.4213 151.649 24.9 151.649C24.3787 151.649 23.9263 151.833 23.543 152.201C23.1597 152.569 22.8607 153.106 22.646 153.811C22.4467 154.516 22.347 155.39 22.347 156.433C22.347 157.506 22.4467 158.411 22.646 159.147C22.8607 159.868 23.1597 160.42 23.543 160.803C23.9263 161.171 24.3787 161.355 24.9 161.355ZM33.447 168.232V152.592H36.207L36.46 153.742H36.529C37.0043 153.328 37.5333 152.991 38.116 152.73C38.714 152.454 39.3197 152.316 39.933 152.316C40.8837 152.316 41.6963 152.554 42.371 153.029C43.061 153.504 43.59 154.179 43.958 155.053C44.326 155.927 44.51 156.947 44.51 158.112C44.51 159.415 44.2723 160.527 43.797 161.447C43.337 162.367 42.7313 163.072 41.98 163.563C41.2287 164.038 40.4237 164.276 39.565 164.276C39.059 164.276 38.5607 164.169 38.07 163.954C37.5947 163.739 37.1577 163.433 36.759 163.034H36.667L36.828 164.897V168.232H33.447ZM38.783 161.516C39.2123 161.516 39.5957 161.401 39.933 161.171C40.2703 160.941 40.5387 160.581 40.738 160.09C40.9373 159.584 41.037 158.94 41.037 158.158C41.037 157.468 40.9603 156.901 40.807 156.456C40.6537 155.996 40.4237 155.651 40.117 155.421C39.8257 155.191 39.4347 155.076 38.944 155.076C38.576 155.076 38.2157 155.16 37.863 155.329C37.5257 155.482 37.1807 155.751 36.828 156.134V160.757C37.15 161.018 37.4797 161.209 37.817 161.332C38.1697 161.455 38.4917 161.516 38.783 161.516ZM54.506 164.276C53.2947 164.276 52.3287 164.069 51.608 163.655C50.9027 163.226 50.389 162.635 50.067 161.884C49.745 161.133 49.584 160.259 49.584 159.262V155.237H46.732V152.73L49.745 152.592L50.182 149.096H52.965V152.592H57.795V155.237H52.965V159.239C52.965 159.806 53.0494 160.266 53.218 160.619C53.3867 160.972 53.6474 161.232 54 161.401C54.3527 161.554 54.805 161.631 55.357 161.631C55.8017 161.631 56.208 161.593 56.576 161.516C56.944 161.439 57.2967 161.34 57.634 161.217L58.232 163.655C57.726 163.808 57.1664 163.946 56.553 164.069C55.955 164.207 55.2727 164.276 54.506 164.276ZM65.767 164V155.237H61.167V152.592H69.148V164H65.767ZM67.308 150.798C66.664 150.798 66.1274 150.614 65.698 150.246C65.2687 149.863 65.054 149.364 65.054 148.751C65.054 148.122 65.2687 147.616 65.698 147.233C66.1274 146.834 66.664 146.635 67.308 146.635C67.9674 146.635 68.504 146.834 68.918 147.233C69.3474 147.616 69.562 148.122 69.562 148.751C69.562 149.364 69.3474 149.863 68.918 150.246C68.504 150.614 67.9674 150.798 67.308 150.798ZM80.0641 164.276C79.0674 164.276 78.1244 164.046 77.2351 163.586C76.3457 163.111 75.6251 162.428 75.0731 161.539C74.5211 160.634 74.2451 159.553 74.2451 158.296C74.2451 157.039 74.5211 155.965 75.0731 155.076C75.6251 154.171 76.3457 153.489 77.2351 153.029C78.1244 152.554 79.0674 152.316 80.0641 152.316C81.0607 152.316 82.0037 152.554 82.8931 153.029C83.7824 153.489 84.5031 154.171 85.0551 155.076C85.6071 155.965 85.8831 157.039 85.8831 158.296C85.8831 159.553 85.6071 160.634 85.0551 161.539C84.5031 162.428 83.7824 163.111 82.8931 163.586C82.0037 164.046 81.0607 164.276 80.0641 164.276ZM80.0641 161.539C80.5854 161.539 81.0147 161.409 81.3521 161.148C81.7047 160.887 81.9654 160.512 82.1341 160.021C82.3181 159.53 82.4101 158.955 82.4101 158.296C82.4101 157.637 82.3181 157.062 82.1341 156.571C81.9654 156.08 81.7047 155.705 81.3521 155.444C81.0147 155.183 80.5854 155.053 80.0641 155.053C79.5427 155.053 79.1057 155.183 78.7531 155.444C78.4157 155.705 78.1551 156.08 77.9711 156.571C77.8024 157.062 77.7181 157.637 77.7181 158.296C77.7181 158.955 77.8024 159.53 77.9711 160.021C78.1551 160.512 78.4157 160.887 78.7531 161.148C79.1057 161.409 79.5427 161.539 80.0641 161.539ZM88.6111 164V152.592H91.3711L91.6241 154.11H91.7161C92.2067 153.619 92.7664 153.198 93.3951 152.845C94.0391 152.492 94.7904 152.316 95.6491 152.316C96.9371 152.316 97.8801 152.73 98.4781 153.558C99.0761 154.386 99.3751 155.521 99.3751 156.962V164H95.9941V157.399C95.9941 156.632 95.8637 156.073 95.6031 155.72C95.3577 155.367 94.9284 155.191 94.3151 155.191C93.8551 155.191 93.4487 155.298 93.0961 155.513C92.7587 155.712 92.3907 156.004 91.9921 156.387V164H88.6111ZM115.871 164V162.068C117.266 160.887 118.485 159.822 119.528 158.871C120.586 157.905 121.406 157.023 121.989 156.226C122.572 155.413 122.863 154.662 122.863 153.972C122.863 153.251 122.648 152.707 122.219 152.339C121.805 151.956 121.222 151.764 120.471 151.764C119.888 151.764 119.352 151.917 118.861 152.224C118.386 152.515 117.941 152.86 117.527 153.259L115.71 151.442C116.461 150.66 117.236 150.077 118.033 149.694C118.846 149.311 119.812 149.119 120.931 149.119C121.943 149.119 122.832 149.311 123.599 149.694C124.381 150.077 124.987 150.622 125.416 151.327C125.861 152.017 126.083 152.83 126.083 153.765C126.083 154.593 125.83 155.429 125.324 156.272C124.833 157.115 124.174 157.966 123.346 158.825C122.533 159.668 121.659 160.504 120.724 161.332C121.138 161.286 121.59 161.248 122.081 161.217C122.572 161.171 123.001 161.148 123.369 161.148H126.842V164H115.871Z" fill="#71FFAC"/>
    <path d="M24.9 198.276C23.704 198.276 22.6537 197.977 21.749 197.379C20.8443 196.781 20.139 195.907 19.633 194.757C19.127 193.592 18.874 192.15 18.874 190.433C18.874 188.762 19.127 187.359 19.633 186.224C20.139 185.074 20.8443 184.208 21.749 183.625C22.6537 183.027 23.704 182.728 24.9 182.728C26.096 182.728 27.1463 183.027 28.051 183.625C28.9557 184.208 29.661 185.074 30.167 186.224C30.673 187.359 30.926 188.762 30.926 190.433C30.926 192.15 30.673 193.592 30.167 194.757C29.661 195.907 28.9557 196.781 28.051 197.379C27.1463 197.977 26.096 198.276 24.9 198.276ZM24.9 195.355C25.4213 195.355 25.8737 195.171 26.257 194.803C26.6403 194.42 26.9317 193.868 27.131 193.147C27.3457 192.411 27.453 191.506 27.453 190.433C27.453 189.39 27.3457 188.516 27.131 187.811C26.9317 187.106 26.6403 186.569 26.257 186.201C25.8737 185.833 25.4213 185.649 24.9 185.649C24.3787 185.649 23.9263 185.833 23.543 186.201C23.1597 186.569 22.8607 187.106 22.646 187.811C22.4467 188.516 22.347 189.39 22.347 190.433C22.347 191.506 22.4467 192.411 22.646 193.147C22.8607 193.868 23.1597 194.42 23.543 194.803C23.9263 195.171 24.3787 195.355 24.9 195.355ZM33.447 202.232V186.592H36.207L36.46 187.742H36.529C37.0043 187.328 37.5333 186.991 38.116 186.73C38.714 186.454 39.3197 186.316 39.933 186.316C40.8837 186.316 41.6963 186.554 42.371 187.029C43.061 187.504 43.59 188.179 43.958 189.053C44.326 189.927 44.51 190.947 44.51 192.112C44.51 193.415 44.2723 194.527 43.797 195.447C43.337 196.367 42.7313 197.072 41.98 197.563C41.2287 198.038 40.4237 198.276 39.565 198.276C39.059 198.276 38.5607 198.169 38.07 197.954C37.5947 197.739 37.1577 197.433 36.759 197.034H36.667L36.828 198.897V202.232H33.447ZM38.783 195.516C39.2123 195.516 39.5957 195.401 39.933 195.171C40.2703 194.941 40.5387 194.581 40.738 194.09C40.9373 193.584 41.037 192.94 41.037 192.158C41.037 191.468 40.9603 190.901 40.807 190.456C40.6537 189.996 40.4237 189.651 40.117 189.421C39.8257 189.191 39.4347 189.076 38.944 189.076C38.576 189.076 38.2157 189.16 37.863 189.329C37.5257 189.482 37.1807 189.751 36.828 190.134V194.757C37.15 195.018 37.4797 195.209 37.817 195.332C38.1697 195.455 38.4917 195.516 38.783 195.516ZM54.506 198.276C53.2947 198.276 52.3287 198.069 51.608 197.655C50.9027 197.226 50.389 196.635 50.067 195.884C49.745 195.133 49.584 194.259 49.584 193.262V189.237H46.732V186.73L49.745 186.592L50.182 183.096H52.965V186.592H57.795V189.237H52.965V193.239C52.965 193.806 53.0494 194.266 53.218 194.619C53.3867 194.972 53.6474 195.232 54 195.401C54.3527 195.554 54.805 195.631 55.357 195.631C55.8017 195.631 56.208 195.593 56.576 195.516C56.944 195.439 57.2967 195.34 57.634 195.217L58.232 197.655C57.726 197.808 57.1664 197.946 56.553 198.069C55.955 198.207 55.2727 198.276 54.506 198.276ZM65.767 198V189.237H61.167V186.592H69.148V198H65.767ZM67.308 184.798C66.664 184.798 66.1274 184.614 65.698 184.246C65.2687 183.863 65.054 183.364 65.054 182.751C65.054 182.122 65.2687 181.616 65.698 181.233C66.1274 180.834 66.664 180.635 67.308 180.635C67.9674 180.635 68.504 180.834 68.918 181.233C69.3474 181.616 69.562 182.122 69.562 182.751C69.562 183.364 69.3474 183.863 68.918 184.246C68.504 184.614 67.9674 184.798 67.308 184.798ZM80.0641 198.276C79.0674 198.276 78.1244 198.046 77.2351 197.586C76.3457 197.111 75.6251 196.428 75.0731 195.539C74.5211 194.634 74.2451 193.553 74.2451 192.296C74.2451 191.039 74.5211 189.965 75.0731 189.076C75.6251 188.171 76.3457 187.489 77.2351 187.029C78.1244 186.554 79.0674 186.316 80.0641 186.316C81.0607 186.316 82.0037 186.554 82.8931 187.029C83.7824 187.489 84.5031 188.171 85.0551 189.076C85.6071 189.965 85.8831 191.039 85.8831 192.296C85.8831 193.553 85.6071 194.634 85.0551 195.539C84.5031 196.428 83.7824 197.111 82.8931 197.586C82.0037 198.046 81.0607 198.276 80.0641 198.276ZM80.0641 195.539C80.5854 195.539 81.0147 195.409 81.3521 195.148C81.7047 194.887 81.9654 194.512 82.1341 194.021C82.3181 193.53 82.4101 192.955 82.4101 192.296C82.4101 191.637 82.3181 191.062 82.1341 190.571C81.9654 190.08 81.7047 189.705 81.3521 189.444C81.0147 189.183 80.5854 189.053 80.0641 189.053C79.5427 189.053 79.1057 189.183 78.7531 189.444C78.4157 189.705 78.1551 190.08 77.9711 190.571C77.8024 191.062 77.7181 191.637 77.7181 192.296C77.7181 192.955 77.8024 193.53 77.9711 194.021C78.1551 194.512 78.4157 194.887 78.7531 195.148C79.1057 195.409 79.5427 195.539 80.0641 195.539ZM88.6111 198V186.592H91.3711L91.6241 188.11H91.7161C92.2067 187.619 92.7664 187.198 93.3951 186.845C94.0391 186.492 94.7904 186.316 95.6491 186.316C96.9371 186.316 97.8801 186.73 98.4781 187.558C99.0761 188.386 99.3751 189.521 99.3751 190.962V198H95.9941V191.399C95.9941 190.632 95.8637 190.073 95.6031 189.72C95.3577 189.367 94.9284 189.191 94.3151 189.191C93.8551 189.191 93.4487 189.298 93.0961 189.513C92.7587 189.712 92.3907 190.004 91.9921 190.387V198H88.6111ZM120.954 198.276C120.126 198.276 119.367 198.184 118.677 198C118.002 197.831 117.397 197.594 116.86 197.287C116.323 196.98 115.871 196.62 115.503 196.206L117.067 194.067C117.558 194.496 118.11 194.849 118.723 195.125C119.336 195.401 119.973 195.539 120.632 195.539C121.153 195.539 121.621 195.478 122.035 195.355C122.449 195.217 122.771 195.018 123.001 194.757C123.246 194.496 123.369 194.182 123.369 193.814C123.369 193.385 123.239 193.017 122.978 192.71C122.717 192.388 122.265 192.143 121.621 191.974C120.992 191.805 120.103 191.721 118.953 191.721V189.329C119.919 189.329 120.686 189.245 121.253 189.076C121.82 188.907 122.234 188.677 122.495 188.386C122.756 188.095 122.886 187.757 122.886 187.374C122.886 186.853 122.694 186.454 122.311 186.178C121.928 185.902 121.399 185.764 120.724 185.764C120.157 185.764 119.62 185.879 119.114 186.109C118.623 186.324 118.125 186.638 117.619 187.052L115.917 184.982C116.638 184.399 117.412 183.947 118.24 183.625C119.068 183.288 119.95 183.119 120.885 183.119C121.943 183.119 122.878 183.28 123.691 183.602C124.504 183.909 125.132 184.361 125.577 184.959C126.037 185.542 126.267 186.262 126.267 187.121C126.267 187.872 126.022 188.516 125.531 189.053C125.04 189.59 124.358 190.027 123.484 190.364V190.456C124.097 190.625 124.649 190.87 125.14 191.192C125.646 191.499 126.037 191.89 126.313 192.365C126.604 192.84 126.75 193.392 126.75 194.021C126.75 194.926 126.482 195.7 125.945 196.344C125.408 196.973 124.703 197.456 123.829 197.793C122.955 198.115 121.997 198.276 120.954 198.276Z" fill="#71FFAC"/>
    <path d="M24.9 232.276C23.704 232.276 22.6537 231.977 21.749 231.379C20.8443 230.781 20.139 229.907 19.633 228.757C19.127 227.592 18.874 226.15 18.874 224.433C18.874 222.762 19.127 221.359 19.633 220.224C20.139 219.074 20.8443 218.208 21.749 217.625C22.6537 217.027 23.704 216.728 24.9 216.728C26.096 216.728 27.1463 217.027 28.051 217.625C28.9557 218.208 29.661 219.074 30.167 220.224C30.673 221.359 30.926 222.762 30.926 224.433C30.926 226.15 30.673 227.592 30.167 228.757C29.661 229.907 28.9557 230.781 28.051 231.379C27.1463 231.977 26.096 232.276 24.9 232.276ZM24.9 229.355C25.4213 229.355 25.8737 229.171 26.257 228.803C26.6403 228.42 26.9317 227.868 27.131 227.147C27.3457 226.411 27.453 225.506 27.453 224.433C27.453 223.39 27.3457 222.516 27.131 221.811C26.9317 221.106 26.6403 220.569 26.257 220.201C25.8737 219.833 25.4213 219.649 24.9 219.649C24.3787 219.649 23.9263 219.833 23.543 220.201C23.1597 220.569 22.8607 221.106 22.646 221.811C22.4467 222.516 22.347 223.39 22.347 224.433C22.347 225.506 22.4467 226.411 22.646 227.147C22.8607 227.868 23.1597 228.42 23.543 228.803C23.9263 229.171 24.3787 229.355 24.9 229.355ZM33.447 236.232V220.592H36.207L36.46 221.742H36.529C37.0043 221.328 37.5333 220.991 38.116 220.73C38.714 220.454 39.3197 220.316 39.933 220.316C40.8837 220.316 41.6963 220.554 42.371 221.029C43.061 221.504 43.59 222.179 43.958 223.053C44.326 223.927 44.51 224.947 44.51 226.112C44.51 227.415 44.2723 228.527 43.797 229.447C43.337 230.367 42.7313 231.072 41.98 231.563C41.2287 232.038 40.4237 232.276 39.565 232.276C39.059 232.276 38.5607 232.169 38.07 231.954C37.5947 231.739 37.1577 231.433 36.759 231.034H36.667L36.828 232.897V236.232H33.447ZM38.783 229.516C39.2123 229.516 39.5957 229.401 39.933 229.171C40.2703 228.941 40.5387 228.581 40.738 228.09C40.9373 227.584 41.037 226.94 41.037 226.158C41.037 225.468 40.9603 224.901 40.807 224.456C40.6537 223.996 40.4237 223.651 40.117 223.421C39.8257 223.191 39.4347 223.076 38.944 223.076C38.576 223.076 38.2157 223.16 37.863 223.329C37.5257 223.482 37.1807 223.751 36.828 224.134V228.757C37.15 229.018 37.4797 229.209 37.817 229.332C38.1697 229.455 38.4917 229.516 38.783 229.516ZM54.506 232.276C53.2947 232.276 52.3287 232.069 51.608 231.655C50.9027 231.226 50.389 230.635 50.067 229.884C49.745 229.133 49.584 228.259 49.584 227.262V223.237H46.732V220.73L49.745 220.592L50.182 217.096H52.965V220.592H57.795V223.237H52.965V227.239C52.965 227.806 53.0494 228.266 53.218 228.619C53.3867 228.972 53.6474 229.232 54 229.401C54.3527 229.554 54.805 229.631 55.357 229.631C55.8017 229.631 56.208 229.593 56.576 229.516C56.944 229.439 57.2967 229.34 57.634 229.217L58.232 231.655C57.726 231.808 57.1664 231.946 56.553 232.069C55.955 232.207 55.2727 232.276 54.506 232.276ZM65.767 232V223.237H61.167V220.592H69.148V232H65.767ZM67.308 218.798C66.664 218.798 66.1274 218.614 65.698 218.246C65.2687 217.863 65.054 217.364 65.054 216.751C65.054 216.122 65.2687 215.616 65.698 215.233C66.1274 214.834 66.664 214.635 67.308 214.635C67.9674 214.635 68.504 214.834 68.918 215.233C69.3474 215.616 69.562 216.122 69.562 216.751C69.562 217.364 69.3474 217.863 68.918 218.246C68.504 218.614 67.9674 218.798 67.308 218.798ZM80.0641 232.276C79.0674 232.276 78.1244 232.046 77.2351 231.586C76.3457 231.111 75.6251 230.428 75.0731 229.539C74.5211 228.634 74.2451 227.553 74.2451 226.296C74.2451 225.039 74.5211 223.965 75.0731 223.076C75.6251 222.171 76.3457 221.489 77.2351 221.029C78.1244 220.554 79.0674 220.316 80.0641 220.316C81.0607 220.316 82.0037 220.554 82.8931 221.029C83.7824 221.489 84.5031 222.171 85.0551 223.076C85.6071 223.965 85.8831 225.039 85.8831 226.296C85.8831 227.553 85.6071 228.634 85.0551 229.539C84.5031 230.428 83.7824 231.111 82.8931 231.586C82.0037 232.046 81.0607 232.276 80.0641 232.276ZM80.0641 229.539C80.5854 229.539 81.0147 229.409 81.3521 229.148C81.7047 228.887 81.9654 228.512 82.1341 228.021C82.3181 227.53 82.4101 226.955 82.4101 226.296C82.4101 225.637 82.3181 225.062 82.1341 224.571C81.9654 224.08 81.7047 223.705 81.3521 223.444C81.0147 223.183 80.5854 223.053 80.0641 223.053C79.5427 223.053 79.1057 223.183 78.7531 223.444C78.4157 223.705 78.1551 224.08 77.9711 224.571C77.8024 225.062 77.7181 225.637 77.7181 226.296C77.7181 226.955 77.8024 227.53 77.9711 228.021C78.1551 228.512 78.4157 228.887 78.7531 229.148C79.1057 229.409 79.5427 229.539 80.0641 229.539ZM88.6111 232V220.592H91.3711L91.6241 222.11H91.7161C92.2067 221.619 92.7664 221.198 93.3951 220.845C94.0391 220.492 94.7904 220.316 95.6491 220.316C96.9371 220.316 97.8801 220.73 98.4781 221.558C99.0761 222.386 99.3751 223.521 99.3751 224.962V232H95.9941V225.399C95.9941 224.632 95.8637 224.073 95.6031 223.72C95.3577 223.367 94.9284 223.191 94.3151 223.191C93.8551 223.191 93.4487 223.298 93.0961 223.513C92.7587 223.712 92.3907 224.004 91.9921 224.387V232H88.6111ZM122.38 232V223.467C122.38 223.007 122.395 222.478 122.426 221.88C122.457 221.267 122.48 220.73 122.495 220.27H122.403C122.158 220.669 121.889 221.075 121.598 221.489C121.322 221.903 121.061 222.325 120.816 222.754L118.608 225.928H127.371V228.504H115.342V226.181L121.437 217.395H125.531V232H122.38Z" fill="#71FFAC"/>
    <path d="M25.0616 78.276C24.0496 78.276 23.0453 78.092 22.0486 77.724C21.0673 77.356 20.1703 76.8193 19.3576 76.114L21.3126 73.791C21.88 74.251 22.501 74.6267 23.1756 74.918C23.8656 75.2093 24.571 75.355 25.2916 75.355C26.0123 75.355 26.5413 75.2323 26.8786 74.987C27.2313 74.7417 27.4076 74.4273 27.4076 74.044C27.4076 73.6913 27.3156 73.4153 27.1316 73.216C26.9476 73.0013 26.6793 72.8173 26.3266 72.664C25.974 72.4953 25.56 72.3113 25.0846 72.112L23.1526 71.284C22.6006 71.0693 22.0793 70.7857 21.5886 70.433C21.098 70.065 20.6993 69.6203 20.3926 69.099C20.1013 68.5623 19.9556 67.926 19.9556 67.19C19.9556 66.362 20.1856 65.6183 20.6456 64.959C21.121 64.2843 21.765 63.7477 22.5776 63.349C23.4056 62.935 24.364 62.728 25.4526 62.728C26.3573 62.728 27.2466 62.8967 28.1206 63.234C28.9946 63.5713 29.769 64.062 30.4436 64.706L28.7186 66.845C28.1973 66.4617 27.676 66.1703 27.1546 65.971C26.6333 65.7563 26.0046 65.649 25.2686 65.649C24.7166 65.649 24.2643 65.764 23.9116 65.994C23.559 66.224 23.3826 66.5613 23.3826 67.006C23.3826 67.2973 23.49 67.5427 23.7046 67.742C23.9193 67.9413 24.2106 68.1177 24.5786 68.271C24.9466 68.4243 25.3683 68.593 25.8436 68.777L27.6606 69.559C28.3353 69.8043 28.9103 70.111 29.3856 70.479C29.861 70.8317 30.229 71.2687 30.4896 71.79C30.7503 72.3113 30.8806 72.9247 30.8806 73.63C30.8806 74.458 30.6506 75.2247 30.1906 75.93C29.746 76.6353 29.0866 77.2027 28.2126 77.632C27.354 78.0613 26.3036 78.276 25.0616 78.276ZM39.5887 78.276C38.408 78.276 37.3347 78.046 36.3687 77.586C35.418 77.1107 34.659 76.4283 34.0917 75.539C33.5397 74.6343 33.2637 73.5533 33.2637 72.296C33.2637 71.054 33.5473 69.9883 34.1147 69.099C34.682 68.1943 35.418 67.5043 36.3227 67.029C37.2273 66.5537 38.1857 66.316 39.1977 66.316C40.3783 66.316 41.3673 66.5613 42.1647 67.052C42.962 67.5273 43.56 68.179 43.9587 69.007C44.3727 69.8197 44.5797 70.7473 44.5797 71.79C44.5797 72.0967 44.5567 72.3957 44.5107 72.687C44.48 72.963 44.4493 73.17 44.4187 73.308H35.7707V71.031H42.1417L41.6127 71.675C41.6127 70.755 41.4133 70.065 41.0147 69.605C40.6313 69.1297 40.064 68.892 39.3127 68.892C38.7607 68.892 38.2777 69.0147 37.8637 69.26C37.4497 69.5053 37.1277 69.881 36.8977 70.387C36.6677 70.893 36.5527 71.5293 36.5527 72.296C36.5527 73.078 36.6907 73.722 36.9667 74.228C37.2427 74.7187 37.6413 75.0867 38.1627 75.332C38.684 75.5773 39.3127 75.7 40.0487 75.7C40.57 75.7 41.0607 75.631 41.5207 75.493C41.996 75.355 42.4867 75.1557 42.9927 74.895L44.1197 76.942C43.4603 77.356 42.732 77.6857 41.9347 77.931C41.1373 78.161 40.3553 78.276 39.5887 78.276ZM54.8747 78.276C53.4487 78.276 52.3677 77.8467 51.6317 76.988C50.8957 76.1293 50.5277 74.9793 50.5277 73.538V64.545H46.9627V61.9H53.9087V73.676C53.9087 74.3813 54.1003 74.872 54.4837 75.148C54.867 75.4087 55.2887 75.539 55.7487 75.539C56.0247 75.539 56.3007 75.5083 56.5767 75.447C56.868 75.3857 57.19 75.2937 57.5427 75.171L58.2787 77.655C57.696 77.839 57.1593 77.9847 56.6687 78.092C56.1933 78.2147 55.5953 78.276 54.8747 78.276ZM67.1707 78.276C65.99 78.276 64.9167 78.046 63.9507 77.586C63 77.1107 62.241 76.4283 61.6737 75.539C61.1217 74.6343 60.8457 73.5533 60.8457 72.296C60.8457 71.054 61.1294 69.9883 61.6967 69.099C62.264 68.1943 63 67.5043 63.9047 67.029C64.8094 66.5537 65.7677 66.316 66.7797 66.316C67.9604 66.316 68.9494 66.5613 69.7467 67.052C70.544 67.5273 71.142 68.179 71.5407 69.007C71.9547 69.8197 72.1617 70.7473 72.1617 71.79C72.1617 72.0967 72.1387 72.3957 72.0927 72.687C72.062 72.963 72.0314 73.17 72.0007 73.308H63.3527V71.031H69.7237L69.1947 71.675C69.1947 70.755 68.9954 70.065 68.5967 69.605C68.2134 69.1297 67.646 68.892 66.8947 68.892C66.3427 68.892 65.8597 69.0147 65.4457 69.26C65.0317 69.5053 64.7097 69.881 64.4797 70.387C64.2497 70.893 64.1347 71.5293 64.1347 72.296C64.1347 73.078 64.2727 73.722 64.5487 74.228C64.8247 74.7187 65.2234 75.0867 65.7447 75.332C66.266 75.5773 66.8947 75.7 67.6307 75.7C68.152 75.7 68.6427 75.631 69.1027 75.493C69.578 75.355 70.0687 75.1557 70.5747 74.895L71.7017 76.942C71.0424 77.356 70.314 77.6857 69.5167 77.931C68.7194 78.161 67.9374 78.276 67.1707 78.276ZM81.2607 78.276C80.0647 78.276 78.9837 78.046 78.0177 77.586C77.067 77.1107 76.308 76.4283 75.7407 75.539C75.1887 74.6343 74.9127 73.5533 74.9127 72.296C74.9127 71.0387 75.2194 69.9653 75.8327 69.076C76.446 68.1713 77.251 67.489 78.2477 67.029C79.2597 66.5537 80.3484 66.316 81.5137 66.316C82.4184 66.316 83.2387 66.4617 83.9747 66.753C84.7107 67.029 85.3164 67.397 85.7917 67.857L84.2277 69.95C83.783 69.6433 83.3537 69.421 82.9397 69.283C82.541 69.1297 82.127 69.053 81.6977 69.053C81.0537 69.053 80.4787 69.1833 79.9727 69.444C79.4667 69.7047 79.0757 70.0803 78.7997 70.571C78.5237 71.0617 78.3857 71.6367 78.3857 72.296C78.3857 72.9553 78.516 73.5303 78.7767 74.021C79.0527 74.5117 79.4284 74.8873 79.9037 75.148C80.3944 75.4087 80.954 75.539 81.5827 75.539C82.1807 75.539 82.725 75.4317 83.2157 75.217C83.7217 75.0023 84.1817 74.7493 84.5957 74.458L85.9527 76.597C85.278 77.1643 84.519 77.586 83.6757 77.862C82.8477 78.138 82.0427 78.276 81.2607 78.276ZM96.0867 78.276C94.8754 78.276 93.9094 78.069 93.1887 77.655C92.4834 77.2257 91.9697 76.6353 91.6477 75.884C91.3257 75.1327 91.1647 74.2587 91.1647 73.262V69.237H88.3127V66.73L91.3257 66.592L91.7627 63.096H94.5457V66.592H99.3757V69.237H94.5457V73.239C94.5457 73.8063 94.6301 74.2663 94.7987 74.619C94.9674 74.9717 95.2281 75.2323 95.5807 75.401C95.9334 75.5543 96.3857 75.631 96.9377 75.631C97.3824 75.631 97.7887 75.5927 98.1567 75.516C98.5247 75.4393 98.8774 75.3397 99.2147 75.217L99.8127 77.655C99.3067 77.8083 98.7471 77.9463 98.1337 78.069C97.5357 78.207 96.8534 78.276 96.0867 78.276ZM119.897 78.276C119.13 78.276 118.463 78.1227 117.896 77.816C117.344 77.5093 116.914 77.0953 116.608 76.574C116.301 76.0527 116.148 75.47 116.148 74.826C116.148 73.5533 116.723 72.5797 117.873 71.905C119.038 71.2303 120.97 70.8163 123.669 70.663C123.623 70.3103 123.508 70.0113 123.324 69.766C123.14 69.5207 122.871 69.3367 122.519 69.214C122.181 69.076 121.752 69.007 121.231 69.007C120.863 69.007 120.495 69.053 120.127 69.145C119.759 69.2217 119.375 69.3443 118.977 69.513C118.593 69.6663 118.187 69.8503 117.758 70.065L116.562 67.857C117.083 67.5503 117.627 67.282 118.195 67.052C118.777 66.822 119.375 66.6457 119.989 66.523C120.617 66.385 121.254 66.316 121.898 66.316C122.971 66.316 123.891 66.5077 124.658 66.891C125.424 67.259 126.015 67.8263 126.429 68.593C126.843 69.3443 127.05 70.3027 127.05 71.468V78H124.29L124.037 76.712H123.945C123.377 77.1413 122.749 77.5093 122.059 77.816C121.369 78.1227 120.648 78.276 119.897 78.276ZM120.978 75.654C121.484 75.654 121.959 75.5543 122.404 75.355C122.848 75.1403 123.27 74.8797 123.669 74.573V72.687C122.549 72.7483 121.675 72.8633 121.047 73.032C120.433 73.2007 120.004 73.4153 119.759 73.676C119.513 73.9367 119.391 74.2357 119.391 74.573C119.391 74.803 119.452 75.0023 119.575 75.171C119.713 75.3397 119.897 75.4623 120.127 75.539C120.372 75.6157 120.656 75.654 120.978 75.654ZM130.192 78V66.592H132.952L133.205 68.11H133.297C133.787 67.6193 134.347 67.1977 134.976 66.845C135.62 66.4923 136.371 66.316 137.23 66.316C138.518 66.316 139.461 66.73 140.059 67.558C140.657 68.386 140.956 69.5207 140.956 70.962V78H137.575V71.399C137.575 70.6323 137.444 70.0727 137.184 69.72C136.938 69.3673 136.509 69.191 135.896 69.191C135.436 69.191 135.029 69.2983 134.677 69.513C134.339 69.7123 133.971 70.0037 133.573 70.387V78H130.192ZM163.018 78.276C162.021 78.276 161.078 78.046 160.189 77.586C159.299 77.1107 158.579 76.4283 158.027 75.539C157.475 74.6343 157.199 73.5533 157.199 72.296C157.199 71.0387 157.475 69.9653 158.027 69.076C158.579 68.1713 159.299 67.489 160.189 67.029C161.078 66.5537 162.021 66.316 163.018 66.316C164.014 66.316 164.957 66.5537 165.847 67.029C166.736 67.489 167.457 68.1713 168.009 69.076C168.561 69.9653 168.837 71.0387 168.837 72.296C168.837 73.5533 168.561 74.6343 168.009 75.539C167.457 76.4283 166.736 77.1107 165.847 77.586C164.957 78.046 164.014 78.276 163.018 78.276ZM163.018 75.539C163.539 75.539 163.968 75.4087 164.306 75.148C164.658 74.8873 164.919 74.5117 165.088 74.021C165.272 73.5303 165.364 72.9553 165.364 72.296C165.364 71.6367 165.272 71.0617 165.088 70.571C164.919 70.0803 164.658 69.7047 164.306 69.444C163.968 69.1833 163.539 69.053 163.018 69.053C162.496 69.053 162.059 69.1833 161.707 69.444C161.369 69.7047 161.109 70.0803 160.925 70.571C160.756 71.0617 160.672 71.6367 160.672 72.296C160.672 72.9553 160.756 73.5303 160.925 74.021C161.109 74.5117 161.369 74.8873 161.707 75.148C162.059 75.4087 162.496 75.539 163.018 75.539ZM171.565 82.232V66.592H174.325L174.578 67.742H174.647C175.122 67.328 175.651 66.9907 176.234 66.73C176.832 66.454 177.437 66.316 178.051 66.316C179.001 66.316 179.814 66.5537 180.489 67.029C181.179 67.5043 181.708 68.179 182.076 69.053C182.444 69.927 182.628 70.9467 182.628 72.112C182.628 73.4153 182.39 74.527 181.915 75.447C181.455 76.367 180.849 77.0723 180.098 77.563C179.346 78.0383 178.541 78.276 177.683 78.276C177.177 78.276 176.678 78.1687 176.188 77.954C175.712 77.7393 175.275 77.4327 174.877 77.034H174.785L174.946 78.897V82.232H171.565ZM176.901 75.516C177.33 75.516 177.713 75.401 178.051 75.171C178.388 74.941 178.656 74.5807 178.856 74.09C179.055 73.584 179.155 72.94 179.155 72.158C179.155 71.468 179.078 70.9007 178.925 70.456C178.771 69.996 178.541 69.651 178.235 69.421C177.943 69.191 177.552 69.076 177.062 69.076C176.694 69.076 176.333 69.1603 175.981 69.329C175.643 69.4823 175.298 69.7507 174.946 70.134V74.757C175.268 75.0177 175.597 75.2093 175.935 75.332C176.287 75.4547 176.609 75.516 176.901 75.516ZM192.624 78.276C191.412 78.276 190.446 78.069 189.726 77.655C189.02 77.2257 188.507 76.6353 188.185 75.884C187.863 75.1327 187.702 74.2587 187.702 73.262V69.237H184.85V66.73L187.863 66.592L188.3 63.096H191.083V66.592H195.913V69.237H191.083V73.239C191.083 73.8063 191.167 74.2663 191.336 74.619C191.504 74.9717 191.765 75.2323 192.118 75.401C192.47 75.5543 192.923 75.631 193.475 75.631C193.919 75.631 194.326 75.5927 194.694 75.516C195.062 75.4393 195.414 75.3397 195.752 75.217L196.35 77.655C195.844 77.8083 195.284 77.9463 194.671 78.069C194.073 78.207 193.39 78.276 192.624 78.276ZM203.885 78V69.237H199.285V66.592H207.266V78H203.885ZM205.426 64.798C204.782 64.798 204.245 64.614 203.816 64.246C203.387 63.8627 203.172 63.3643 203.172 62.751C203.172 62.1223 203.387 61.6163 203.816 61.233C204.245 60.8343 204.782 60.635 205.426 60.635C206.085 60.635 206.622 60.8343 207.036 61.233C207.465 61.6163 207.68 62.1223 207.68 62.751C207.68 63.3643 207.465 63.8627 207.036 64.246C206.622 64.614 206.085 64.798 205.426 64.798ZM218.182 78.276C217.185 78.276 216.242 78.046 215.353 77.586C214.464 77.1107 213.743 76.4283 213.191 75.539C212.639 74.6343 212.363 73.5533 212.363 72.296C212.363 71.0387 212.639 69.9653 213.191 69.076C213.743 68.1713 214.464 67.489 215.353 67.029C216.242 66.5537 217.185 66.316 218.182 66.316C219.179 66.316 220.122 66.5537 221.011 67.029C221.9 67.489 222.621 68.1713 223.173 69.076C223.725 69.9653 224.001 71.0387 224.001 72.296C224.001 73.5533 223.725 74.6343 223.173 75.539C222.621 76.4283 221.9 77.1107 221.011 77.586C220.122 78.046 219.179 78.276 218.182 78.276ZM218.182 75.539C218.703 75.539 219.133 75.4087 219.47 75.148C219.823 74.8873 220.083 74.5117 220.252 74.021C220.436 73.5303 220.528 72.9553 220.528 72.296C220.528 71.6367 220.436 71.0617 220.252 70.571C220.083 70.0803 219.823 69.7047 219.47 69.444C219.133 69.1833 218.703 69.053 218.182 69.053C217.661 69.053 217.224 69.1833 216.871 69.444C216.534 69.7047 216.273 70.0803 216.089 70.571C215.92 71.0617 215.836 71.6367 215.836 72.296C215.836 72.9553 215.92 73.5303 216.089 74.021C216.273 74.5117 216.534 74.8873 216.871 75.148C217.224 75.4087 217.661 75.539 218.182 75.539ZM226.729 78V66.592H229.489L229.742 68.11H229.834C230.325 67.6193 230.884 67.1977 231.513 66.845C232.157 66.4923 232.908 66.316 233.767 66.316C235.055 66.316 235.998 66.73 236.596 67.558C237.194 68.386 237.493 69.5207 237.493 70.962V78H234.112V71.399C234.112 70.6323 233.982 70.0727 233.721 69.72C233.476 69.3673 233.046 69.191 232.433 69.191C231.973 69.191 231.567 69.2983 231.214 69.513C230.877 69.7123 230.509 70.0037 230.11 70.387V78H226.729Z" fill="#00CF92"/>
    <path d="M284.352 74.4707C283.98 73.8141 284.454 73 285.209 73V73C285.566 73 285.894 73.1925 286.068 73.5033L290.016 80.5443C290.398 81.2255 291.379 81.2255 291.761 80.5443L295.708 73.5033C295.883 73.1925 296.211 73 296.567 73V73C297.322 73 297.797 73.8141 297.424 74.4707L291.758 84.4655C291.375 85.1412 290.401 85.1412 290.018 84.4655L284.352 74.4707Z" fill="#666666"/>
    <path d="M297.424 64.5293C297.797 65.1859 297.322 66 296.567 66V66C296.211 66 295.883 65.8075 295.708 65.4967L291.761 58.4557C291.379 57.7745 290.398 57.7745 290.016 58.4557L286.068 65.4967C285.894 65.8075 285.566 66 285.209 66V66C284.454 66 283.98 65.1859 284.352 64.5293L290.018 54.5345C290.401 53.8588 291.375 53.8588 291.758 54.5345L297.424 64.5293Z" fill="#666666"/>
    <path d="M7.24 31V10.136H13C15.0267 10.136 16.7867 10.4987 18.28 11.224C19.7947 11.9493 20.968 13.08 21.8 14.616C22.632 16.1307 23.048 18.0827 23.048 20.472C23.048 22.8613 22.632 24.8347 21.8 26.392C20.9893 27.9493 19.848 29.112 18.376 29.88C16.904 30.6267 15.208 31 13.288 31H7.24ZM11.976 27.192H12.744C13.8533 27.192 14.8133 26.9787 15.624 26.552C16.4347 26.1253 17.064 25.4213 17.512 24.44C17.9813 23.4587 18.216 22.136 18.216 20.472C18.216 18.808 17.9813 17.5067 17.512 16.568C17.064 15.608 16.4347 14.936 15.624 14.552C14.8133 14.1467 13.8533 13.944 12.744 13.944H11.976V27.192ZM27.8995 31V15.128H31.7395L32.1235 18.584H32.2195C33.0088 17.2827 33.9582 16.3227 35.0675 15.704C36.1982 15.064 37.3928 14.744 38.6515 14.744C39.3555 14.744 39.9208 14.7973 40.3475 14.904C40.7955 15.0107 41.2542 15.1707 41.7235 15.384L40.7635 19.32C40.2728 19.1707 39.8248 19.064 39.4195 19C39.0355 18.9147 38.5448 18.872 37.9475 18.872C36.9662 18.872 35.9955 19.16 35.0355 19.736C34.0968 20.312 33.2862 21.3147 32.6035 22.744V31H27.8995ZM52.975 31.384C51.5883 31.384 50.2763 31.064 49.039 30.424C47.8017 29.7627 46.799 28.8133 46.031 27.576C45.263 26.3173 44.879 24.8133 44.879 23.064C44.879 21.3147 45.263 19.8213 46.031 18.584C46.799 17.3253 47.8017 16.376 49.039 15.736C50.2763 15.0747 51.5883 14.744 52.975 14.744C54.3617 14.744 55.6737 15.0747 56.911 15.736C58.1483 16.376 59.151 17.3253 59.919 18.584C60.687 19.8213 61.071 21.3147 61.071 23.064C61.071 24.8133 60.687 26.3173 59.919 27.576C59.151 28.8133 58.1483 29.7627 56.911 30.424C55.6737 31.064 54.3617 31.384 52.975 31.384ZM52.975 27.576C53.7003 27.576 54.2977 27.3947 54.767 27.032C55.2577 26.6693 55.6203 26.1467 55.855 25.464C56.111 24.7813 56.239 23.9813 56.239 23.064C56.239 22.1467 56.111 21.3467 55.855 20.664C55.6203 19.9813 55.2577 19.4587 54.767 19.096C54.2977 18.7333 53.7003 18.552 52.975 18.552C52.2497 18.552 51.6417 18.7333 51.151 19.096C50.6817 19.4587 50.319 19.9813 50.063 20.664C49.8283 21.3467 49.711 22.1467 49.711 23.064C49.711 23.9813 49.8283 24.7813 50.063 25.464C50.319 26.1467 50.6817 26.6693 51.151 27.032C51.6417 27.3947 52.2497 27.576 52.975 27.576ZM64.8665 36.888V15.128H68.7065L69.0585 16.728H69.1545C69.8158 16.152 70.5518 15.6827 71.3625 15.32C72.1945 14.936 73.0372 14.744 73.8905 14.744C75.2132 14.744 76.3438 15.0747 77.2825 15.736C78.2425 16.3973 78.9785 17.336 79.4905 18.552C80.0025 19.768 80.2585 21.1867 80.2585 22.808C80.2585 24.6213 79.9278 26.168 79.2665 27.448C78.6265 28.728 77.7838 29.7093 76.7385 30.392C75.6932 31.0533 74.5732 31.384 73.3785 31.384C72.6745 31.384 71.9812 31.2347 71.2985 30.936C70.6372 30.6373 70.0292 30.2107 69.4745 29.656H69.3465L69.5705 32.248V36.888H64.8665ZM72.2905 27.544C72.8878 27.544 73.4212 27.384 73.8905 27.064C74.3598 26.744 74.7332 26.2427 75.0105 25.56C75.2878 24.856 75.4265 23.96 75.4265 22.872C75.4265 21.912 75.3198 21.1227 75.1065 20.504C74.8932 19.864 74.5732 19.384 74.1465 19.064C73.7412 18.744 73.1972 18.584 72.5145 18.584C72.0025 18.584 71.5012 18.7013 71.0105 18.936C70.5412 19.1493 70.0612 19.5227 69.5705 20.056V26.488C70.0185 26.8507 70.4772 27.1173 70.9465 27.288C71.4372 27.4587 71.8852 27.544 72.2905 27.544ZM89.942 31.384C87.9367 31.384 86.3153 30.648 85.078 29.176C83.862 27.6827 83.254 25.6453 83.254 23.064C83.254 21.336 83.574 19.8533 84.214 18.616C84.8753 17.3787 85.7287 16.4293 86.774 15.768C87.8193 15.0853 88.9073 14.744 90.038 14.744C90.9127 14.744 91.67 14.8933 92.31 15.192C92.95 15.4907 93.526 15.9067 94.038 16.44H94.166L93.942 13.976V8.568H98.646V31H94.806L94.454 29.368H94.358C93.782 29.944 93.0993 30.424 92.31 30.808C91.542 31.192 90.7527 31.384 89.942 31.384ZM91.158 27.544C91.6913 27.544 92.182 27.4373 92.63 27.224C93.0993 26.9893 93.5367 26.6053 93.942 26.072V19.64C93.5153 19.256 93.078 18.9893 92.63 18.84C92.2033 18.6693 91.7553 18.584 91.286 18.584C90.71 18.584 90.1767 18.744 89.686 19.064C89.1953 19.384 88.8007 19.8747 88.502 20.536C88.2247 21.176 88.086 21.9973 88.086 23C88.086 24.5573 88.3527 25.7093 88.886 26.456C89.4193 27.1813 90.1767 27.544 91.158 27.544ZM110.538 31.384C109.151 31.384 107.839 31.064 106.602 30.424C105.364 29.7627 104.362 28.8133 103.594 27.576C102.826 26.3173 102.442 24.8133 102.442 23.064C102.442 21.3147 102.826 19.8213 103.594 18.584C104.362 17.3253 105.364 16.376 106.602 15.736C107.839 15.0747 109.151 14.744 110.538 14.744C111.924 14.744 113.236 15.0747 114.474 15.736C115.711 16.376 116.714 17.3253 117.482 18.584C118.25 19.8213 118.634 21.3147 118.634 23.064C118.634 24.8133 118.25 26.3173 117.482 27.576C116.714 28.8133 115.711 29.7627 114.474 30.424C113.236 31.064 111.924 31.384 110.538 31.384ZM110.538 27.576C111.263 27.576 111.86 27.3947 112.33 27.032C112.82 26.6693 113.183 26.1467 113.418 25.464C113.674 24.7813 113.802 23.9813 113.802 23.064C113.802 22.1467 113.674 21.3467 113.418 20.664C113.183 19.9813 112.82 19.4587 112.33 19.096C111.86 18.7333 111.263 18.552 110.538 18.552C109.812 18.552 109.204 18.7333 108.714 19.096C108.244 19.4587 107.882 19.9813 107.626 20.664C107.391 21.3467 107.274 22.1467 107.274 23.064C107.274 23.9813 107.391 24.7813 107.626 25.464C107.882 26.1467 108.244 26.6693 108.714 27.032C109.204 27.3947 109.812 27.576 110.538 27.576ZM122.845 31L120.253 15.128H124.797L125.789 22.488C125.896 23.256 125.981 24.0347 126.045 24.824C126.13 25.592 126.216 26.3813 126.301 27.192H126.397C126.504 26.3813 126.61 25.5813 126.717 24.792C126.845 24.0027 126.984 23.2347 127.133 22.488L128.125 17.24H131.549L132.573 22.488C132.722 23.256 132.861 24.0347 132.989 24.824C133.138 25.592 133.266 26.3813 133.373 27.192H133.501C133.608 26.3813 133.682 25.592 133.725 24.824C133.789 24.0347 133.864 23.256 133.949 22.488L134.845 15.128H139.197L136.765 31H131.229L130.365 25.848C130.28 25.144 130.184 24.408 130.077 23.64C129.992 22.872 129.896 22.04 129.789 21.144H129.661C129.597 21.8053 129.522 22.5093 129.437 23.256C129.352 23.9813 129.245 24.8453 129.117 25.848L128.285 31H122.845ZM141.617 31V15.128H145.457L145.809 17.24H145.937C146.619 16.5573 147.398 15.9707 148.273 15.48C149.169 14.9893 150.214 14.744 151.409 14.744C153.201 14.744 154.513 15.32 155.345 16.472C156.177 17.624 156.593 19.2027 156.593 21.208V31H151.889V21.816C151.889 20.7493 151.707 19.9707 151.345 19.48C151.003 18.9893 150.406 18.744 149.553 18.744C148.913 18.744 148.347 18.8933 147.857 19.192C147.387 19.4693 146.875 19.8747 146.321 20.408V31H141.617ZM168.1 31.384C167.012 31.384 166.116 31.0213 165.412 30.296C164.729 29.5707 164.388 28.6853 164.388 27.64C164.388 26.5947 164.729 25.7093 165.412 24.984C166.116 24.2373 167.012 23.864 168.1 23.864C169.209 23.864 170.105 24.2373 170.788 24.984C171.471 25.7093 171.812 26.5947 171.812 27.64C171.812 28.6853 171.471 29.5707 170.788 30.296C170.105 31.0213 169.209 31.384 168.1 31.384ZM187.288 31.384C185.624 31.384 184.162 30.968 182.904 30.136C181.645 29.304 180.664 28.088 179.96 26.488C179.256 24.8667 178.904 22.8613 178.904 20.472C178.904 18.1467 179.256 16.1947 179.96 14.616C180.664 13.016 181.645 11.8107 182.904 11C184.162 10.168 185.624 9.752 187.288 9.752C188.952 9.752 190.413 10.168 191.672 11C192.93 11.8107 193.912 13.016 194.616 14.616C195.32 16.1947 195.672 18.1467 195.672 20.472C195.672 22.8613 195.32 24.8667 194.616 26.488C193.912 28.088 192.93 29.304 191.672 30.136C190.413 30.968 188.952 31.384 187.288 31.384ZM187.288 27.32C188.013 27.32 188.642 27.064 189.176 26.552C189.709 26.0187 190.114 25.2507 190.392 24.248C190.69 23.224 190.84 21.9653 190.84 20.472C190.84 19.0213 190.69 17.8053 190.392 16.824C190.114 15.8427 189.709 15.096 189.176 14.584C188.642 14.072 188.013 13.816 187.288 13.816C186.562 13.816 185.933 14.072 185.4 14.584C184.866 15.096 184.45 15.8427 184.152 16.824C183.874 17.8053 183.736 19.0213 183.736 20.472C183.736 21.9653 183.874 23.224 184.152 24.248C184.45 25.2507 184.866 26.0187 185.4 26.552C185.933 27.064 186.562 27.32 187.288 27.32ZM199.179 36.888V15.128H203.019L203.371 16.728H203.467C204.128 16.152 204.864 15.6827 205.675 15.32C206.507 14.936 207.35 14.744 208.203 14.744C209.526 14.744 210.656 15.0747 211.595 15.736C212.555 16.3973 213.291 17.336 213.803 18.552C214.315 19.768 214.571 21.1867 214.571 22.808C214.571 24.6213 214.24 26.168 213.579 27.448C212.939 28.728 212.096 29.7093 211.051 30.392C210.006 31.0533 208.886 31.384 207.691 31.384C206.987 31.384 206.294 31.2347 205.611 30.936C204.95 30.6373 204.342 30.2107 203.787 29.656H203.659L203.883 32.248V36.888H199.179ZM206.603 27.544C207.2 27.544 207.734 27.384 208.203 27.064C208.672 26.744 209.046 26.2427 209.323 25.56C209.6 24.856 209.739 23.96 209.739 22.872C209.739 21.912 209.632 21.1227 209.419 20.504C209.206 19.864 208.886 19.384 208.459 19.064C208.054 18.744 207.51 18.584 206.827 18.584C206.315 18.584 205.814 18.7013 205.323 18.936C204.854 19.1493 204.374 19.5227 203.883 20.056V26.488C204.331 26.8507 204.79 27.1173 205.259 27.288C205.75 27.4587 206.198 27.544 206.603 27.544ZM228.479 31.384C226.793 31.384 225.449 31.096 224.447 30.52C223.465 29.9227 222.751 29.1013 222.303 28.056C221.855 27.0107 221.631 25.7947 221.631 24.408V18.808H217.663V15.32L221.855 15.128L222.463 10.264H226.335V15.128H233.055V18.808H226.335V24.376C226.335 25.1653 226.452 25.8053 226.687 26.296C226.921 26.7867 227.284 27.1493 227.775 27.384C228.265 27.5973 228.895 27.704 229.663 27.704C230.281 27.704 230.847 27.6507 231.359 27.544C231.871 27.4373 232.361 27.2987 232.831 27.128L233.663 30.52C232.959 30.7333 232.18 30.9253 231.327 31.096C230.495 31.288 229.545 31.384 228.479 31.384ZM244.146 31V18.808H237.746V15.128H248.85V31H244.146ZM246.29 12.632C245.394 12.632 244.647 12.376 244.05 11.864C243.453 11.3307 243.154 10.6373 243.154 9.784C243.154 8.90933 243.453 8.20533 244.05 7.672C244.647 7.11733 245.394 6.84 246.29 6.84C247.207 6.84 247.954 7.11733 248.53 7.672C249.127 8.20533 249.426 8.90933 249.426 9.784C249.426 10.6373 249.127 11.3307 248.53 11.864C247.954 12.376 247.207 12.632 246.29 12.632ZM264.038 31.384C262.651 31.384 261.339 31.064 260.102 30.424C258.864 29.7627 257.862 28.8133 257.094 27.576C256.326 26.3173 255.942 24.8133 255.942 23.064C255.942 21.3147 256.326 19.8213 257.094 18.584C257.862 17.3253 258.864 16.376 260.102 15.736C261.339 15.0747 262.651 14.744 264.038 14.744C265.424 14.744 266.736 15.0747 267.974 15.736C269.211 16.376 270.214 17.3253 270.982 18.584C271.75 19.8213 272.134 21.3147 272.134 23.064C272.134 24.8133 271.75 26.3173 270.982 27.576C270.214 28.8133 269.211 29.7627 267.974 30.424C266.736 31.064 265.424 31.384 264.038 31.384ZM264.038 27.576C264.763 27.576 265.36 27.3947 265.83 27.032C266.32 26.6693 266.683 26.1467 266.918 25.464C267.174 24.7813 267.302 23.9813 267.302 23.064C267.302 22.1467 267.174 21.3467 266.918 20.664C266.683 19.9813 266.32 19.4587 265.83 19.096C265.36 18.7333 264.763 18.552 264.038 18.552C263.312 18.552 262.704 18.7333 262.214 19.096C261.744 19.4587 261.382 19.9813 261.126 20.664C260.891 21.3467 260.774 22.1467 260.774 23.064C260.774 23.9813 260.891 24.7813 261.126 25.464C261.382 26.1467 261.744 26.6693 262.214 27.032C262.704 27.3947 263.312 27.576 264.038 27.576ZM275.929 31V15.128H279.769L280.121 17.24H280.249C280.932 16.5573 281.71 15.9707 282.585 15.48C283.481 14.9893 284.526 14.744 285.721 14.744C287.513 14.744 288.825 15.32 289.657 16.472C290.489 17.624 290.905 19.2027 290.905 21.208V31H286.201V21.816C286.201 20.7493 286.02 19.9707 285.657 19.48C285.316 18.9893 284.718 18.744 283.865 18.744C283.225 18.744 282.66 18.8933 282.169 19.192C281.7 19.4693 281.188 19.8747 280.633 20.408V31H275.929ZM302.285 31.384C300.877 31.384 299.479 31.1493 298.093 30.68C296.706 30.1893 295.511 29.6133 294.509 28.952L296.525 26.008C297.485 26.6267 298.498 27.096 299.565 27.416C300.653 27.736 301.773 27.896 302.925 27.896C303.799 27.896 304.439 27.768 304.845 27.512C305.25 27.2347 305.453 26.9147 305.453 26.552C305.453 26.3173 305.389 26.1253 305.261 25.976C305.154 25.8053 304.951 25.656 304.653 25.528C304.375 25.3787 303.981 25.24 303.469 25.112C302.978 24.984 302.338 24.8347 301.549 24.664C299.394 24.1947 297.847 23.5547 296.909 22.744C295.97 21.9333 295.501 20.92 295.501 19.704C295.501 18.2107 296.151 17.016 297.453 16.12C298.754 15.2027 300.535 14.744 302.797 14.744C304.226 14.744 305.517 14.9787 306.669 15.448C307.842 15.896 308.845 16.3867 309.677 16.92L307.565 19.736C306.775 19.2453 305.933 18.872 305.037 18.616C304.141 18.36 303.255 18.232 302.381 18.232C301.89 18.232 301.485 18.2853 301.165 18.392C300.845 18.4773 300.599 18.6267 300.429 18.84C300.258 19.032 300.173 19.2453 300.173 19.48C300.173 19.9067 300.45 20.2267 301.005 20.44C301.559 20.632 302.509 20.8773 303.853 21.176C305.474 21.5387 306.743 21.9547 307.661 22.424C308.578 22.8933 309.207 23.4373 309.549 24.056C309.911 24.6533 310.093 25.3893 310.093 26.264C310.093 27.224 309.794 28.088 309.197 28.856C308.621 29.624 307.746 30.2427 306.573 30.712C305.421 31.16 303.991 31.384 302.285 31.384Z" fill="#00DA9A"/>
</svg>