<svg width="313" height="96" viewBox="0 0 313 96" fill="none" xmlns="http://www.w3.org/2000/svg">
<rect x="1" y="47" width="310.13" height="48" rx="16" stroke="#00DA9A" stroke-width="2"/>
<path d="M24.7165 79.276C23.8732 79.276 23.1142 79.184 22.4395 79C21.7649 78.816 21.1669 78.5707 20.6455 78.264C20.1242 77.9573 19.6642 77.6123 19.2655 77.229L20.7835 75.09C21.1055 75.3507 21.4429 75.596 21.7955 75.826C22.1482 76.0407 22.5239 76.217 22.9225 76.355C23.3365 76.4777 23.7735 76.539 24.2335 76.539C24.7855 76.539 25.2762 76.4547 25.7055 76.286C26.1349 76.102 26.4645 75.8413 26.6945 75.504C26.9399 75.1667 27.0625 74.7527 27.0625 74.262C27.0625 73.526 26.8095 72.9663 26.3035 72.583C25.7975 72.1997 25.1612 72.008 24.3945 72.008C23.9192 72.008 23.5129 72.0617 23.1755 72.169C22.8535 72.2763 22.4395 72.468 21.9335 72.744L20.4385 71.778L20.8295 64.395H29.7765V67.247H23.7505L23.4975 69.984C23.8502 69.8613 24.1645 69.777 24.4405 69.731C24.7319 69.6697 25.0615 69.639 25.4295 69.639C26.3342 69.639 27.1622 69.8 27.9135 70.122C28.6802 70.444 29.2935 70.9423 29.7535 71.617C30.2135 72.2917 30.4435 73.1427 30.4435 74.17C30.4435 75.2587 30.1752 76.1863 29.6385 76.953C29.1019 77.7043 28.3965 78.2793 27.5225 78.678C26.6485 79.0767 25.7132 79.276 24.7165 79.276ZM38.8985 79.276C37.7792 79.276 36.7979 78.9847 35.9545 78.402C35.1112 77.804 34.4519 76.9377 33.9765 75.803C33.5165 74.6683 33.2865 73.2807 33.2865 71.64C33.2865 69.1407 33.8002 67.2623 34.8275 66.005C35.8549 64.7477 37.2119 64.119 38.8985 64.119C40.6005 64.119 41.9575 64.7477 42.9695 66.005C43.9969 67.2623 44.5105 69.1407 44.5105 71.64C44.5105 73.2807 44.2729 74.6683 43.7975 75.803C43.3375 76.9377 42.6859 77.804 41.8425 78.402C41.0145 78.9847 40.0332 79.276 38.8985 79.276ZM38.8985 76.654C39.3892 76.654 39.8262 76.5007 40.2095 76.194C40.6082 75.8873 40.9225 75.366 41.1525 74.63C41.3825 73.894 41.4975 72.8973 41.4975 71.64C41.4975 70.3673 41.3825 69.3783 41.1525 68.673C40.9225 67.9523 40.6082 67.454 40.2095 67.178C39.8262 66.8867 39.3892 66.741 38.8985 66.741C38.4232 66.741 37.9862 66.8867 37.5875 67.178C37.1889 67.454 36.8745 67.9523 36.6445 68.673C36.4145 69.3783 36.2995 70.3673 36.2995 71.64C36.2995 72.8973 36.4145 73.894 36.6445 74.63C36.8745 75.366 37.1889 75.8873 37.5875 76.194C37.9862 76.5007 38.4232 76.654 38.8985 76.654ZM38.8985 73.342C38.4232 73.342 38.0169 73.181 37.6795 72.859C37.3422 72.537 37.1735 72.1153 37.1735 71.594C37.1735 71.0573 37.3422 70.6357 37.6795 70.329C38.0169 70.007 38.4232 69.846 38.8985 69.846C39.3892 69.846 39.7955 70.007 40.1175 70.329C40.4549 70.6357 40.6235 71.0573 40.6235 71.594C40.6235 72.1153 40.4549 72.537 40.1175 72.859C39.7955 73.181 39.3892 73.342 38.8985 73.342ZM52.6896 79.276C51.5702 79.276 50.5889 78.9847 49.7456 78.402C48.9022 77.804 48.2429 76.9377 47.7676 75.803C47.3076 74.6683 47.0776 73.2807 47.0776 71.64C47.0776 69.1407 47.5912 67.2623 48.6186 66.005C49.6459 64.7477 51.0029 64.119 52.6896 64.119C54.3916 64.119 55.7486 64.7477 56.7606 66.005C57.7879 67.2623 58.3016 69.1407 58.3016 71.64C58.3016 73.2807 58.0639 74.6683 57.5886 75.803C57.1286 76.9377 56.4769 77.804 55.6336 78.402C54.8056 78.9847 53.8242 79.276 52.6896 79.276ZM52.6896 76.654C53.1802 76.654 53.6172 76.5007 54.0006 76.194C54.3992 75.8873 54.7136 75.366 54.9436 74.63C55.1736 73.894 55.2886 72.8973 55.2886 71.64C55.2886 70.3673 55.1736 69.3783 54.9436 68.673C54.7136 67.9523 54.3992 67.454 54.0006 67.178C53.6172 66.8867 53.1802 66.741 52.6896 66.741C52.2142 66.741 51.7772 66.8867 51.3786 67.178C50.9799 67.454 50.6656 67.9523 50.4356 68.673C50.2056 69.3783 50.0906 70.3673 50.0906 71.64C50.0906 72.8973 50.2056 73.894 50.4356 74.63C50.6656 75.366 50.9799 75.8873 51.3786 76.194C51.7772 76.5007 52.2142 76.654 52.6896 76.654ZM52.6896 73.342C52.2142 73.342 51.8079 73.181 51.4706 72.859C51.1332 72.537 50.9646 72.1153 50.9646 71.594C50.9646 71.0573 51.1332 70.6357 51.4706 70.329C51.8079 70.007 52.2142 69.846 52.6896 69.846C53.1802 69.846 53.5866 70.007 53.9086 70.329C54.2459 70.6357 54.4146 71.0573 54.4146 71.594C54.4146 72.1153 54.2459 72.537 53.9086 72.859C53.5866 73.181 53.1802 73.342 52.6896 73.342ZM66.4806 79.276C65.3612 79.276 64.3799 78.9847 63.5366 78.402C62.6932 77.804 62.0339 76.9377 61.5586 75.803C61.0986 74.6683 60.8686 73.2807 60.8686 71.64C60.8686 69.1407 61.3822 67.2623 62.4096 66.005C63.4369 64.7477 64.7939 64.119 66.4806 64.119C68.1826 64.119 69.5396 64.7477 70.5516 66.005C71.5789 67.2623 72.0926 69.1407 72.0926 71.64C72.0926 73.2807 71.8549 74.6683 71.3796 75.803C70.9196 76.9377 70.2679 77.804 69.4246 78.402C68.5966 78.9847 67.6152 79.276 66.4806 79.276ZM66.4806 76.654C66.9712 76.654 67.4082 76.5007 67.7916 76.194C68.1902 75.8873 68.5046 75.366 68.7346 74.63C68.9646 73.894 69.0796 72.8973 69.0796 71.64C69.0796 70.3673 68.9646 69.3783 68.7346 68.673C68.5046 67.9523 68.1902 67.454 67.7916 67.178C67.4082 66.8867 66.9712 66.741 66.4806 66.741C66.0052 66.741 65.5682 66.8867 65.1696 67.178C64.7709 67.454 64.4566 67.9523 64.2266 68.673C63.9966 69.3783 63.8816 70.3673 63.8816 71.64C63.8816 72.8973 63.9966 73.894 64.2266 74.63C64.4566 75.366 64.7709 75.8873 65.1696 76.194C65.5682 76.5007 66.0052 76.654 66.4806 76.654ZM66.4806 73.342C66.0052 73.342 65.5989 73.181 65.2616 72.859C64.9242 72.537 64.7556 72.1153 64.7556 71.594C64.7556 71.0573 64.9242 70.6357 65.2616 70.329C65.5989 70.007 66.0052 69.846 66.4806 69.846C66.9712 69.846 67.3776 70.007 67.6996 70.329C68.0369 70.6357 68.2056 71.0573 68.2056 71.594C68.2056 72.1153 68.0369 72.537 67.6996 72.859C67.3776 73.181 66.9712 73.342 66.4806 73.342Z" fill="#00CF92"/>
<path d="M284.352 75.4707C283.98 74.8141 284.454 74 285.209 74C285.566 74 285.894 74.1925 286.068 74.5033L290.016 81.5443C290.398 82.2255 291.379 82.2255 291.761 81.5443L295.708 74.5033C295.883 74.1925 296.211 74 296.567 74C297.322 74 297.797 74.8141 297.424 75.4707L291.758 85.4655C291.375 86.1412 290.401 86.1412 290.018 85.4655L284.352 75.4707Z" fill="#666666"/>
<path d="M297.424 65.5293C297.797 66.1859 297.322 67 296.567 67C296.211 67 295.883 66.8075 295.708 66.4967L291.761 59.4557C291.379 58.7745 290.398 58.7745 290.016 59.4557L286.068 66.4967C285.894 66.8075 285.566 67 285.209 67C284.454 67 283.98 66.1859 284.352 65.5293L290.018 55.5345C290.401 54.8588 291.375 54.8588 291.758 55.5345L297.424 65.5293Z" fill="#666666"/>
<path d="M52.112 31V10.136H56.944L61.328 20.504L63.12 25.112H63.248C63.1413 24.0027 63.0027 22.7653 62.832 21.4C62.6613 20.0347 62.576 18.744 62.576 17.528V10.136H67.088V31H62.256L57.872 20.6L56.08 16.056H55.952C56.0587 17.1867 56.1973 18.424 56.368 19.768C56.5387 21.0907 56.624 22.3707 56.624 23.608V31H52.112ZM76.3235 31.384C74.5102 31.384 73.1982 30.808 72.3875 29.656C71.5768 28.504 71.1715 26.9253 71.1715 24.92V15.128H75.8755V24.312C75.8755 25.3787 76.0355 26.1573 76.3555 26.648C76.6968 27.1387 77.3048 27.384 78.1795 27.384C78.7768 27.384 79.3102 27.256 79.7795 27C80.2488 26.744 80.7502 26.264 81.2835 25.56V15.128H85.9875V31H82.1475L81.7955 28.728H81.6675C80.9635 29.5173 80.1848 30.1573 79.3315 30.648C78.4782 31.1387 77.4755 31.384 76.3235 31.384ZM89.495 31V15.128H93.047L93.367 17.08H93.495C93.7937 16.44 94.2097 15.896 94.743 15.448C95.2763 14.9787 96.0017 14.744 96.919 14.744C97.6017 14.744 98.1883 14.968 98.679 15.416C99.1697 15.8427 99.5003 16.4827 99.671 17.336C99.9697 16.6107 100.396 16.0027 100.951 15.512C101.527 15 102.274 14.744 103.191 14.744C104.322 14.744 105.196 15.2027 105.815 16.12C106.434 17.0373 106.743 18.2853 106.743 19.864V31H102.263V20.184C102.263 19.224 101.975 18.744 101.399 18.744C101.1 18.744 100.834 18.872 100.599 19.128C100.386 19.3627 100.172 19.7467 99.959 20.28V31H96.279V20.184C96.279 19.6933 96.2043 19.3307 96.055 19.096C95.9057 18.8613 95.6817 18.744 95.383 18.744C95.0843 18.744 94.8283 18.872 94.615 19.128C94.4017 19.3627 94.1883 19.7467 93.975 20.28V31H89.495ZM118.379 31.384C117.653 31.384 116.907 31.2027 116.139 30.84C115.392 30.4773 114.699 29.9547 114.059 29.272H113.931L113.547 31H109.867V8.568H114.571V14.072L114.411 16.568H114.507C115.125 15.992 115.808 15.544 116.555 15.224C117.323 14.904 118.091 14.744 118.859 14.744C120.203 14.744 121.344 15.0747 122.283 15.736C123.242 16.3973 123.979 17.336 124.491 18.552C125.003 19.7467 125.259 21.1547 125.259 22.776C125.259 24.5893 124.928 26.1467 124.267 27.448C123.627 28.728 122.784 29.7093 121.739 30.392C120.693 31.0533 119.573 31.384 118.379 31.384ZM117.323 27.544C117.899 27.544 118.421 27.384 118.891 27.064C119.36 26.744 119.733 26.2427 120.011 25.56C120.288 24.856 120.427 23.96 120.427 22.872C120.427 21.912 120.32 21.1227 120.107 20.504C119.893 19.864 119.573 19.384 119.147 19.064C118.741 18.744 118.197 18.584 117.515 18.584C117.003 18.584 116.501 18.7013 116.01 18.936C115.541 19.1493 115.061 19.5227 114.571 20.056V26.488C115.019 26.8507 115.477 27.1173 115.947 27.288C116.437 27.4587 116.896 27.544 117.323 27.544ZM137.31 31.384C135.667 31.384 134.174 31.064 132.83 30.424C131.507 29.7627 130.451 28.8133 129.662 27.576C128.894 26.3173 128.51 24.8133 128.51 23.064C128.51 21.336 128.905 19.8533 129.694 18.616C130.483 17.3573 131.507 16.3973 132.766 15.736C134.025 15.0747 135.358 14.744 136.766 14.744C138.409 14.744 139.785 15.0853 140.894 15.768C142.003 16.4293 142.835 17.336 143.39 18.488C143.966 19.6187 144.254 20.9093 144.254 22.36C144.254 22.7867 144.222 23.2027 144.158 23.608C144.115 23.992 144.073 24.28 144.03 24.472H131.998V21.304H140.862L140.126 22.2C140.126 20.92 139.849 19.96 139.294 19.32C138.761 18.6587 137.971 18.328 136.926 18.328C136.158 18.328 135.486 18.4987 134.91 18.84C134.334 19.1813 133.886 19.704 133.566 20.408C133.246 21.112 133.086 21.9973 133.086 23.064C133.086 24.152 133.278 25.048 133.662 25.752C134.046 26.4347 134.601 26.9467 135.326 27.288C136.051 27.6293 136.926 27.8 137.95 27.8C138.675 27.8 139.358 27.704 139.998 27.512C140.659 27.32 141.342 27.0427 142.046 26.68L143.614 29.528C142.697 30.104 141.683 30.5627 140.574 30.904C139.465 31.224 138.377 31.384 137.31 31.384ZM149.65 31V15.128H153.49L153.874 18.584H153.97C154.759 17.2827 155.708 16.3227 156.818 15.704C157.948 15.064 159.143 14.744 160.402 14.744C161.106 14.744 161.671 14.7973 162.097 14.904C162.546 15.0107 163.004 15.1707 163.474 15.384L162.514 19.32C162.023 19.1707 161.575 19.064 161.17 19C160.786 18.9147 160.295 18.872 159.698 18.872C158.716 18.872 157.746 19.16 156.786 19.736C155.847 20.312 155.036 21.3147 154.354 22.744V31H149.65ZM167.493 31V27.032H172.357V14.104H167.493V10.136H181.957V14.104H177.093V27.032H181.957V31H167.493ZM186.617 31V15.128H190.457L190.809 17.24H190.937C191.619 16.5573 192.398 15.9707 193.273 15.48C194.169 14.9893 195.214 14.744 196.409 14.744C198.201 14.744 199.513 15.32 200.345 16.472C201.177 17.624 201.593 19.2027 201.593 21.208V31H196.889V21.816C196.889 20.7493 196.707 19.9707 196.345 19.48C196.003 18.9893 195.406 18.744 194.553 18.744C193.913 18.744 193.347 18.8933 192.857 19.192C192.387 19.4693 191.875 19.8747 191.321 20.408V31H186.617ZM205.804 36.888V15.128H209.644L209.996 16.728H210.092C210.753 16.152 211.489 15.6827 212.3 15.32C213.132 14.936 213.975 14.744 214.828 14.744C216.151 14.744 217.281 15.0747 218.22 15.736C219.18 16.3973 219.916 17.336 220.428 18.552C220.94 19.768 221.196 21.1867 221.196 22.808C221.196 24.6213 220.865 26.168 220.204 27.448C219.564 28.728 218.721 29.7093 217.676 30.392C216.631 31.0533 215.511 31.384 214.316 31.384C213.612 31.384 212.919 31.2347 212.236 30.936C211.575 30.6373 210.967 30.2107 210.412 29.656H210.284L210.508 32.248V36.888H205.804ZM213.228 27.544C213.825 27.544 214.359 27.384 214.828 27.064C215.297 26.744 215.671 26.2427 215.948 25.56C216.225 24.856 216.364 23.96 216.364 22.872C216.364 21.912 216.257 21.1227 216.044 20.504C215.831 19.864 215.511 19.384 215.084 19.064C214.679 18.744 214.135 18.584 213.452 18.584C212.94 18.584 212.439 18.7013 211.948 18.936C211.479 19.1493 210.999 19.5227 210.508 20.056V26.488C210.956 26.8507 211.415 27.1173 211.884 27.288C212.375 27.4587 212.823 27.544 213.228 27.544ZM229.824 31.384C228.01 31.384 226.698 30.808 225.888 29.656C225.077 28.504 224.672 26.9253 224.672 24.92V15.128H229.376V24.312C229.376 25.3787 229.536 26.1573 229.856 26.648C230.197 27.1387 230.805 27.384 231.68 27.384C232.277 27.384 232.81 27.256 233.28 27C233.749 26.744 234.25 26.264 234.784 25.56V15.128H239.488V31H235.648L235.296 28.728H235.168C234.464 29.5173 233.685 30.1573 232.832 30.648C231.978 31.1387 230.976 31.384 229.824 31.384ZM254.291 31.384C252.606 31.384 251.262 31.096 250.259 30.52C249.278 29.9227 248.563 29.1013 248.115 28.056C247.667 27.0107 247.443 25.7947 247.443 24.408V18.808H243.475V15.32L247.667 15.128L248.275 10.264H252.147V15.128H258.867V18.808H252.147V24.376C252.147 25.1653 252.264 25.8053 252.499 26.296C252.734 26.7867 253.096 27.1493 253.587 27.384C254.078 27.5973 254.707 27.704 255.475 27.704C256.094 27.704 256.659 27.6507 257.171 27.544C257.683 27.4373 258.174 27.2987 258.643 27.128L259.475 30.52C258.771 30.7333 257.992 30.9253 257.139 31.096C256.307 31.288 255.358 31.384 254.291 31.384Z" fill="#00DA9A"/>
<line x1="74.5" y1="55" x2="74.5" y2="87" stroke="#00CF92"/>
</svg>
