<svg width="231" height="68" viewBox="0 0 231 68" fill="none" xmlns="http://www.w3.org/2000/svg">
<path d="M2.4 31V10.136H9.792C11.3067 10.136 12.672 10.3493 13.888 10.776C15.1253 11.1813 16.1067 11.8747 16.832 12.856C17.5787 13.8373 17.952 15.1707 17.952 16.856C17.952 18.4773 17.5787 19.8107 16.832 20.856C16.0853 21.9013 15.0933 22.68 13.856 23.192C12.6187 23.6827 11.264 23.928 9.792 23.928H7.104V31H2.4ZM7.104 20.184H9.504C10.8053 20.184 11.7653 19.896 12.384 19.32C13.024 18.744 13.344 17.9227 13.344 16.856C13.344 15.7467 13.0133 14.9787 12.352 14.552C11.712 14.104 10.7627 13.88 9.504 13.88H7.104V20.184ZM22.8995 31V15.128H26.7395L27.1235 18.584H27.2195C28.0088 17.2827 28.9582 16.3227 30.0675 15.704C31.1982 15.064 32.3928 14.744 33.6515 14.744C34.3555 14.744 34.9208 14.7973 35.3475 14.904C35.7955 15.0107 36.2542 15.1707 36.7235 15.384L35.7635 19.32C35.2728 19.1707 34.8248 19.064 34.4195 19C34.0355 18.9147 33.5448 18.872 32.9475 18.872C31.9662 18.872 30.9955 19.16 30.0355 19.736C29.0968 20.312 28.2862 21.3147 27.6035 22.744V31H22.8995ZM47.975 31.384C46.5883 31.384 45.2763 31.064 44.039 30.424C42.8017 29.7627 41.799 28.8133 41.031 27.576C40.263 26.3173 39.879 24.8133 39.879 23.064C39.879 21.3147 40.263 19.8213 41.031 18.584C41.799 17.3253 42.8017 16.376 44.039 15.736C45.2763 15.0747 46.5883 14.744 47.975 14.744C49.3617 14.744 50.6737 15.0747 51.911 15.736C53.1483 16.376 54.151 17.3253 54.919 18.584C55.687 19.8213 56.071 21.3147 56.071 23.064C56.071 24.8133 55.687 26.3173 54.919 27.576C54.151 28.8133 53.1483 29.7627 51.911 30.424C50.6737 31.064 49.3617 31.384 47.975 31.384ZM47.975 27.576C48.7003 27.576 49.2977 27.3947 49.767 27.032C50.2577 26.6693 50.6203 26.1467 50.855 25.464C51.111 24.7813 51.239 23.9813 51.239 23.064C51.239 22.1467 51.111 21.3467 50.855 20.664C50.6203 19.9813 50.2577 19.4587 49.767 19.096C49.2977 18.7333 48.7003 18.552 47.975 18.552C47.2497 18.552 46.6417 18.7333 46.151 19.096C45.6817 19.4587 45.319 19.9813 45.063 20.664C44.8283 21.3467 44.711 22.1467 44.711 23.064C44.711 23.9813 44.8283 24.7813 45.063 25.464C45.319 26.1467 45.6817 26.6693 46.151 27.032C46.6417 27.3947 47.2497 27.576 47.975 27.576ZM66.4265 37.752C65.0398 37.752 63.8025 37.6027 62.7145 37.304C61.6478 37.0267 60.7945 36.5893 60.1545 35.992C59.5358 35.3947 59.2265 34.6267 59.2265 33.688C59.2265 33.048 59.4292 32.4613 59.8345 31.928C60.2612 31.3947 60.8798 30.9253 61.6905 30.52V30.392C61.2425 30.0933 60.8585 29.7307 60.5385 29.304C60.2398 28.8773 60.0905 28.3333 60.0905 27.672C60.0905 27.1387 60.2612 26.6053 60.6025 26.072C60.9652 25.5387 61.4238 25.08 61.9785 24.696V24.568C61.4025 24.184 60.9118 23.64 60.5065 22.936C60.1012 22.232 59.8985 21.4213 59.8985 20.504C59.8985 19.224 60.2078 18.1573 60.8265 17.304C61.4665 16.4507 62.2985 15.8107 63.3225 15.384C64.3678 14.9573 65.4878 14.744 66.6825 14.744C67.6638 14.744 68.5385 14.872 69.3065 15.128H75.7385V18.584H72.5385C72.7305 18.8187 72.8905 19.128 73.0185 19.512C73.1678 19.8747 73.2425 20.2587 73.2425 20.664C73.2425 21.88 72.9438 22.8827 72.3465 23.672C71.7705 24.44 70.9918 25.016 70.0105 25.4C69.0292 25.784 67.9198 25.976 66.6825 25.976C66.3838 25.976 66.0425 25.9547 65.6585 25.912C65.2745 25.848 64.8905 25.7627 64.5065 25.656C64.2505 25.8267 64.0692 25.9973 63.9625 26.168C63.8558 26.3387 63.8025 26.5627 63.8025 26.84C63.8025 27.2453 64.0158 27.544 64.4425 27.736C64.8905 27.928 65.5732 28.024 66.4905 28.024H69.4345C71.5252 28.024 73.1145 28.3333 74.2025 28.952C75.3118 29.5707 75.8665 30.5947 75.8665 32.024C75.8665 33.1333 75.4825 34.1147 74.7145 34.968C73.9465 35.8427 72.8478 36.5253 71.4185 37.016C70.0105 37.5067 68.3465 37.752 66.4265 37.752ZM66.6825 23.128C67.1305 23.128 67.5358 23.032 67.8985 22.84C68.2612 22.648 68.5492 22.36 68.7625 21.976C68.9758 21.5707 69.0825 21.08 69.0825 20.504C69.0825 19.9493 68.9758 19.48 68.7625 19.096C68.5492 18.712 68.2612 18.424 67.8985 18.232C67.5358 18.0187 67.1305 17.912 66.6825 17.912C66.2558 17.912 65.8612 18.0187 65.4985 18.232C65.1358 18.424 64.8478 18.712 64.6345 19.096C64.4212 19.48 64.3145 19.9493 64.3145 20.504C64.3145 21.08 64.4212 21.5707 64.6345 21.976C64.8478 22.36 65.1358 22.648 65.4985 22.84C65.8612 23.032 66.2558 23.128 66.6825 23.128ZM67.0985 34.776C67.9518 34.776 68.6985 34.6907 69.3385 34.52C69.9785 34.3493 70.4798 34.1147 70.8425 33.816C71.2052 33.5387 71.3865 33.2187 71.3865 32.856C71.3865 32.3227 71.1518 31.9813 70.6825 31.832C70.2132 31.704 69.5198 31.64 68.6025 31.64H66.6185C66.0425 31.64 65.5625 31.6187 65.1785 31.576C64.8158 31.5333 64.4852 31.48 64.1865 31.416C63.7812 31.672 63.4932 31.9173 63.3225 32.152C63.1518 32.408 63.0665 32.6853 63.0665 32.984C63.0665 33.56 63.4292 33.9973 64.1545 34.296C64.8798 34.616 65.8612 34.776 67.0985 34.776ZM80.462 31V15.128H84.302L84.686 18.584H84.782C85.5713 17.2827 86.5207 16.3227 87.63 15.704C88.7607 15.064 89.9553 14.744 91.214 14.744C91.918 14.744 92.4833 14.7973 92.91 14.904C93.358 15.0107 93.8167 15.1707 94.286 15.384L93.326 19.32C92.8353 19.1707 92.3873 19.064 91.982 19C91.598 18.9147 91.1073 18.872 90.51 18.872C89.5287 18.872 88.558 19.16 87.598 19.736C86.6593 20.312 85.8487 21.3147 85.166 22.744V31H80.462ZM106.498 31.384C104.855 31.384 103.362 31.064 102.018 30.424C100.695 29.7627 99.6388 28.8133 98.8495 27.576C98.0815 26.3173 97.6975 24.8133 97.6975 23.064C97.6975 21.336 98.0922 19.8533 98.8815 18.616C99.6708 17.3573 100.695 16.3973 101.954 15.736C103.212 15.0747 104.546 14.744 105.954 14.744C107.596 14.744 108.972 15.0853 110.082 15.768C111.191 16.4293 112.023 17.336 112.578 18.488C113.154 19.6187 113.442 20.9093 113.442 22.36C113.442 22.7867 113.41 23.2027 113.346 23.608C113.303 23.992 113.26 24.28 113.218 24.472H101.186V21.304H110.05L109.314 22.2C109.314 20.92 109.036 19.96 108.482 19.32C107.948 18.6587 107.159 18.328 106.114 18.328C105.346 18.328 104.674 18.4987 104.098 18.84C103.522 19.1813 103.074 19.704 102.754 20.408C102.434 21.112 102.274 21.9973 102.274 23.064C102.274 24.152 102.466 25.048 102.85 25.752C103.234 26.4347 103.788 26.9467 104.514 27.288C105.239 27.6293 106.114 27.8 107.138 27.8C107.863 27.8 108.546 27.704 109.186 27.512C109.847 27.32 110.53 27.0427 111.234 26.68L112.802 29.528C111.884 30.104 110.871 30.5627 109.762 30.904C108.652 31.224 107.564 31.384 106.498 31.384ZM124.597 31.384C123.189 31.384 121.792 31.1493 120.405 30.68C119.018 30.1893 117.824 29.6133 116.821 28.952L118.837 26.008C119.797 26.6267 120.81 27.096 121.877 27.416C122.965 27.736 124.085 27.896 125.237 27.896C126.112 27.896 126.752 27.768 127.157 27.512C127.562 27.2347 127.765 26.9147 127.765 26.552C127.765 26.3173 127.701 26.1253 127.573 25.976C127.466 25.8053 127.264 25.656 126.965 25.528C126.688 25.3787 126.293 25.24 125.781 25.112C125.29 24.984 124.65 24.8347 123.861 24.664C121.706 24.1947 120.16 23.5547 119.221 22.744C118.282 21.9333 117.813 20.92 117.813 19.704C117.813 18.2107 118.464 17.016 119.765 16.12C121.066 15.2027 122.848 14.744 125.109 14.744C126.538 14.744 127.829 14.9787 128.981 15.448C130.154 15.896 131.157 16.3867 131.989 16.92L129.877 19.736C129.088 19.2453 128.245 18.872 127.349 18.616C126.453 18.36 125.568 18.232 124.693 18.232C124.202 18.232 123.797 18.2853 123.477 18.392C123.157 18.4773 122.912 18.6267 122.741 18.84C122.57 19.032 122.485 19.2453 122.485 19.48C122.485 19.9067 122.762 20.2267 123.317 20.44C123.872 20.632 124.821 20.8773 126.165 21.176C127.786 21.5387 129.056 21.9547 129.973 22.424C130.89 22.8933 131.52 23.4373 131.861 24.056C132.224 24.6533 132.405 25.3893 132.405 26.264C132.405 27.224 132.106 28.088 131.509 28.856C130.933 29.624 130.058 30.2427 128.885 30.712C127.733 31.16 126.304 31.384 124.597 31.384ZM143.785 31.384C142.377 31.384 140.979 31.1493 139.593 30.68C138.206 30.1893 137.011 29.6133 136.009 28.952L138.025 26.008C138.985 26.6267 139.998 27.096 141.065 27.416C142.153 27.736 143.273 27.896 144.425 27.896C145.299 27.896 145.939 27.768 146.345 27.512C146.75 27.2347 146.953 26.9147 146.953 26.552C146.953 26.3173 146.889 26.1253 146.761 25.976C146.654 25.8053 146.451 25.656 146.153 25.528C145.875 25.3787 145.481 25.24 144.969 25.112C144.478 24.984 143.838 24.8347 143.049 24.664C140.894 24.1947 139.347 23.5547 138.409 22.744C137.47 21.9333 137.001 20.92 137.001 19.704C137.001 18.2107 137.651 17.016 138.953 16.12C140.254 15.2027 142.035 14.744 144.297 14.744C145.726 14.744 147.017 14.9787 148.169 15.448C149.342 15.896 150.345 16.3867 151.177 16.92L149.065 19.736C148.275 19.2453 147.433 18.872 146.537 18.616C145.641 18.36 144.755 18.232 143.881 18.232C143.39 18.232 142.985 18.2853 142.665 18.392C142.345 18.4773 142.099 18.6267 141.929 18.84C141.758 19.032 141.673 19.2453 141.673 19.48C141.673 19.9067 141.95 20.2267 142.505 20.44C143.059 20.632 144.009 20.8773 145.353 21.176C146.974 21.5387 148.243 21.9547 149.161 22.424C150.078 22.8933 150.707 23.4373 151.049 24.056C151.411 24.6533 151.593 25.3893 151.593 26.264C151.593 27.224 151.294 28.088 150.697 28.856C150.121 29.624 149.246 30.2427 148.073 30.712C146.921 31.16 145.491 31.384 143.785 31.384ZM163.1 31.384C162.012 31.384 161.116 31.0213 160.412 30.296C159.729 29.5707 159.388 28.6853 159.388 27.64C159.388 26.5947 159.729 25.7093 160.412 24.984C161.116 24.2373 162.012 23.864 163.1 23.864C164.209 23.864 165.105 24.2373 165.788 24.984C166.471 25.7093 166.812 26.5947 166.812 27.64C166.812 28.6853 166.471 29.5707 165.788 30.296C165.105 31.0213 164.209 31.384 163.1 31.384ZM175.056 31V10.136H182.064C183.514 10.136 184.816 10.296 185.968 10.616C187.12 10.9147 188.026 11.4373 188.688 12.184C189.37 12.9307 189.712 13.976 189.712 15.32C189.712 16.2587 189.424 17.1653 188.847 18.04C188.272 18.9147 187.365 19.512 186.128 19.832V19.96C187.621 20.216 188.752 20.7493 189.52 21.56C190.288 22.3493 190.672 23.448 190.672 24.856C190.672 26.264 190.32 27.4267 189.616 28.344C188.912 29.24 187.952 29.912 186.736 30.36C185.541 30.7867 184.186 31 182.672 31H175.056ZM179.76 18.52H181.84C182.992 18.52 183.824 18.296 184.336 17.848C184.848 17.3787 185.104 16.7493 185.104 15.96C185.104 15.192 184.837 14.648 184.304 14.328C183.792 13.9867 182.981 13.816 181.872 13.816H179.76V18.52ZM179.76 27.32H182.288C183.568 27.32 184.517 27.0853 185.136 26.616C185.754 26.1467 186.064 25.4427 186.064 24.504C186.064 23.5867 185.754 22.9253 185.136 22.52C184.517 22.1147 183.568 21.912 182.288 21.912H179.76V27.32ZM199.043 31.384C197.976 31.384 197.048 31.1707 196.259 30.744C195.491 30.3173 194.894 29.7413 194.467 29.016C194.04 28.2907 193.827 27.48 193.827 26.584C193.827 24.8133 194.627 23.4587 196.227 22.52C197.848 21.5813 200.536 21.0053 204.291 20.792C204.227 20.3013 204.067 19.8853 203.811 19.544C203.555 19.2027 203.182 18.9467 202.691 18.776C202.222 18.584 201.624 18.488 200.899 18.488C200.387 18.488 199.875 18.552 199.363 18.68C198.851 18.7867 198.318 18.9573 197.763 19.192C197.23 19.4053 196.664 19.6613 196.067 19.96L194.403 16.888C195.128 16.4613 195.886 16.088 196.675 15.768C197.486 15.448 198.318 15.2027 199.171 15.032C200.046 14.84 200.931 14.744 201.827 14.744C203.32 14.744 204.6 15.0107 205.667 15.544C206.734 16.056 207.555 16.8453 208.131 17.912C208.707 18.9573 208.995 20.2907 208.995 21.912V31H205.155L204.803 29.208H204.675C203.886 29.8053 203.011 30.3173 202.051 30.744C201.091 31.1707 200.088 31.384 199.043 31.384ZM200.547 27.736C201.251 27.736 201.912 27.5973 202.531 27.32C203.15 27.0213 203.736 26.6587 204.291 26.232V23.608C202.734 23.6933 201.518 23.8533 200.643 24.088C199.79 24.3227 199.192 24.6213 198.851 24.984C198.51 25.3467 198.339 25.7627 198.339 26.232C198.339 26.552 198.424 26.8293 198.595 27.064C198.787 27.2987 199.043 27.4693 199.363 27.576C199.704 27.6827 200.099 27.736 200.547 27.736ZM214.775 31V15.128H218.615L218.999 18.584H219.095C219.884 17.2827 220.833 16.3227 221.943 15.704C223.073 15.064 224.268 14.744 225.527 14.744C226.231 14.744 226.796 14.7973 227.222 14.904C227.671 15.0107 228.129 15.1707 228.599 15.384L227.639 19.32C227.148 19.1707 226.7 19.064 226.295 19C225.911 18.9147 225.42 18.872 224.823 18.872C223.841 18.872 222.871 19.16 221.911 19.736C220.972 20.312 220.161 21.3147 219.479 22.744V31H214.775Z" fill="#00DA9A"/>
<rect x="2" y="58" width="227" height="10" fill="#D9D9D9"/>
<rect x="2" y="58" width="107" height="10" fill="#00DA9A"/>
</svg>
