<svg width="288" height="188" viewBox="0 0 288 188" fill="none" xmlns="http://www.w3.org/2000/svg">
<path d="M2.4 31V10.136H9.792C11.3067 10.136 12.672 10.3493 13.888 10.776C15.1253 11.1813 16.1067 11.8747 16.832 12.856C17.5787 13.8373 17.952 15.1707 17.952 16.856C17.952 18.4773 17.5787 19.8107 16.832 20.856C16.0853 21.9013 15.0933 22.68 13.856 23.192C12.6187 23.6827 11.264 23.928 9.792 23.928H7.104V31H2.4ZM7.104 20.184H9.504C10.8053 20.184 11.7653 19.896 12.384 19.32C13.024 18.744 13.344 17.9227 13.344 16.856C13.344 15.7467 13.0133 14.9787 12.352 14.552C11.712 14.104 10.7627 13.88 9.504 13.88H7.104V20.184ZM22.8995 31V15.128H26.7395L27.1235 18.584H27.2195C28.0088 17.2827 28.9582 16.3227 30.0675 15.704C31.1982 15.064 32.3928 14.744 33.6515 14.744C34.3555 14.744 34.9208 14.7973 35.3475 14.904C35.7955 15.0107 36.2542 15.1707 36.7235 15.384L35.7635 19.32C35.2728 19.1707 34.8248 19.064 34.4195 19C34.0355 18.9147 33.5448 18.872 32.9475 18.872C31.9662 18.872 30.9955 19.16 30.0355 19.736C29.0968 20.312 28.2862 21.3147 27.6035 22.744V31H22.8995ZM47.975 31.384C46.5883 31.384 45.2763 31.064 44.039 30.424C42.8017 29.7627 41.799 28.8133 41.031 27.576C40.263 26.3173 39.879 24.8133 39.879 23.064C39.879 21.3147 40.263 19.8213 41.031 18.584C41.799 17.3253 42.8017 16.376 44.039 15.736C45.2763 15.0747 46.5883 14.744 47.975 14.744C49.3617 14.744 50.6737 15.0747 51.911 15.736C53.1483 16.376 54.151 17.3253 54.919 18.584C55.687 19.8213 56.071 21.3147 56.071 23.064C56.071 24.8133 55.687 26.3173 54.919 27.576C54.151 28.8133 53.1483 29.7627 51.911 30.424C50.6737 31.064 49.3617 31.384 47.975 31.384ZM47.975 27.576C48.7003 27.576 49.2977 27.3947 49.767 27.032C50.2577 26.6693 50.6203 26.1467 50.855 25.464C51.111 24.7813 51.239 23.9813 51.239 23.064C51.239 22.1467 51.111 21.3467 50.855 20.664C50.6203 19.9813 50.2577 19.4587 49.767 19.096C49.2977 18.7333 48.7003 18.552 47.975 18.552C47.2497 18.552 46.6417 18.7333 46.151 19.096C45.6817 19.4587 45.319 19.9813 45.063 20.664C44.8283 21.3467 44.711 22.1467 44.711 23.064C44.711 23.9813 44.8283 24.7813 45.063 25.464C45.319 26.1467 45.6817 26.6693 46.151 27.032C46.6417 27.3947 47.2497 27.576 47.975 27.576ZM66.4265 37.752C65.0398 37.752 63.8025 37.6027 62.7145 37.304C61.6478 37.0267 60.7945 36.5893 60.1545 35.992C59.5358 35.3947 59.2265 34.6267 59.2265 33.688C59.2265 33.048 59.4292 32.4613 59.8345 31.928C60.2612 31.3947 60.8798 30.9253 61.6905 30.52V30.392C61.2425 30.0933 60.8585 29.7307 60.5385 29.304C60.2398 28.8773 60.0905 28.3333 60.0905 27.672C60.0905 27.1387 60.2612 26.6053 60.6025 26.072C60.9652 25.5387 61.4238 25.08 61.9785 24.696V24.568C61.4025 24.184 60.9118 23.64 60.5065 22.936C60.1012 22.232 59.8985 21.4213 59.8985 20.504C59.8985 19.224 60.2078 18.1573 60.8265 17.304C61.4665 16.4507 62.2985 15.8107 63.3225 15.384C64.3678 14.9573 65.4878 14.744 66.6825 14.744C67.6638 14.744 68.5385 14.872 69.3065 15.128H75.7385V18.584H72.5385C72.7305 18.8187 72.8905 19.128 73.0185 19.512C73.1678 19.8747 73.2425 20.2587 73.2425 20.664C73.2425 21.88 72.9438 22.8827 72.3465 23.672C71.7705 24.44 70.9918 25.016 70.0105 25.4C69.0292 25.784 67.9198 25.976 66.6825 25.976C66.3838 25.976 66.0425 25.9547 65.6585 25.912C65.2745 25.848 64.8905 25.7627 64.5065 25.656C64.2505 25.8267 64.0692 25.9973 63.9625 26.168C63.8558 26.3387 63.8025 26.5627 63.8025 26.84C63.8025 27.2453 64.0158 27.544 64.4425 27.736C64.8905 27.928 65.5732 28.024 66.4905 28.024H69.4345C71.5252 28.024 73.1145 28.3333 74.2025 28.952C75.3118 29.5707 75.8665 30.5947 75.8665 32.024C75.8665 33.1333 75.4825 34.1147 74.7145 34.968C73.9465 35.8427 72.8478 36.5253 71.4185 37.016C70.0105 37.5067 68.3465 37.752 66.4265 37.752ZM66.6825 23.128C67.1305 23.128 67.5358 23.032 67.8985 22.84C68.2612 22.648 68.5492 22.36 68.7625 21.976C68.9758 21.5707 69.0825 21.08 69.0825 20.504C69.0825 19.9493 68.9758 19.48 68.7625 19.096C68.5492 18.712 68.2612 18.424 67.8985 18.232C67.5358 18.0187 67.1305 17.912 66.6825 17.912C66.2558 17.912 65.8612 18.0187 65.4985 18.232C65.1358 18.424 64.8478 18.712 64.6345 19.096C64.4212 19.48 64.3145 19.9493 64.3145 20.504C64.3145 21.08 64.4212 21.5707 64.6345 21.976C64.8478 22.36 65.1358 22.648 65.4985 22.84C65.8612 23.032 66.2558 23.128 66.6825 23.128ZM67.0985 34.776C67.9518 34.776 68.6985 34.6907 69.3385 34.52C69.9785 34.3493 70.4798 34.1147 70.8425 33.816C71.2052 33.5387 71.3865 33.2187 71.3865 32.856C71.3865 32.3227 71.1518 31.9813 70.6825 31.832C70.2132 31.704 69.5198 31.64 68.6025 31.64H66.6185C66.0425 31.64 65.5625 31.6187 65.1785 31.576C64.8158 31.5333 64.4852 31.48 64.1865 31.416C63.7812 31.672 63.4932 31.9173 63.3225 32.152C63.1518 32.408 63.0665 32.6853 63.0665 32.984C63.0665 33.56 63.4292 33.9973 64.1545 34.296C64.8798 34.616 65.8612 34.776 67.0985 34.776ZM80.462 31V15.128H84.302L84.686 18.584H84.782C85.5713 17.2827 86.5207 16.3227 87.63 15.704C88.7607 15.064 89.9553 14.744 91.214 14.744C91.918 14.744 92.4833 14.7973 92.91 14.904C93.358 15.0107 93.8167 15.1707 94.286 15.384L93.326 19.32C92.8353 19.1707 92.3873 19.064 91.982 19C91.598 18.9147 91.1073 18.872 90.51 18.872C89.5287 18.872 88.558 19.16 87.598 19.736C86.6593 20.312 85.8487 21.3147 85.166 22.744V31H80.462ZM106.498 31.384C104.855 31.384 103.362 31.064 102.018 30.424C100.695 29.7627 99.6388 28.8133 98.8495 27.576C98.0815 26.3173 97.6975 24.8133 97.6975 23.064C97.6975 21.336 98.0922 19.8533 98.8815 18.616C99.6708 17.3573 100.695 16.3973 101.954 15.736C103.212 15.0747 104.546 14.744 105.954 14.744C107.596 14.744 108.972 15.0853 110.082 15.768C111.191 16.4293 112.023 17.336 112.578 18.488C113.154 19.6187 113.442 20.9093 113.442 22.36C113.442 22.7867 113.41 23.2027 113.346 23.608C113.303 23.992 113.26 24.28 113.218 24.472H101.186V21.304H110.05L109.314 22.2C109.314 20.92 109.036 19.96 108.482 19.32C107.948 18.6587 107.159 18.328 106.114 18.328C105.346 18.328 104.674 18.4987 104.098 18.84C103.522 19.1813 103.074 19.704 102.754 20.408C102.434 21.112 102.274 21.9973 102.274 23.064C102.274 24.152 102.466 25.048 102.85 25.752C103.234 26.4347 103.788 26.9467 104.514 27.288C105.239 27.6293 106.114 27.8 107.138 27.8C107.863 27.8 108.546 27.704 109.186 27.512C109.847 27.32 110.53 27.0427 111.234 26.68L112.802 29.528C111.884 30.104 110.871 30.5627 109.762 30.904C108.652 31.224 107.564 31.384 106.498 31.384ZM124.597 31.384C123.189 31.384 121.792 31.1493 120.405 30.68C119.018 30.1893 117.824 29.6133 116.821 28.952L118.837 26.008C119.797 26.6267 120.81 27.096 121.877 27.416C122.965 27.736 124.085 27.896 125.237 27.896C126.112 27.896 126.752 27.768 127.157 27.512C127.562 27.2347 127.765 26.9147 127.765 26.552C127.765 26.3173 127.701 26.1253 127.573 25.976C127.466 25.8053 127.264 25.656 126.965 25.528C126.688 25.3787 126.293 25.24 125.781 25.112C125.29 24.984 124.65 24.8347 123.861 24.664C121.706 24.1947 120.16 23.5547 119.221 22.744C118.282 21.9333 117.813 20.92 117.813 19.704C117.813 18.2107 118.464 17.016 119.765 16.12C121.066 15.2027 122.848 14.744 125.109 14.744C126.538 14.744 127.829 14.9787 128.981 15.448C130.154 15.896 131.157 16.3867 131.989 16.92L129.877 19.736C129.088 19.2453 128.245 18.872 127.349 18.616C126.453 18.36 125.568 18.232 124.693 18.232C124.202 18.232 123.797 18.2853 123.477 18.392C123.157 18.4773 122.912 18.6267 122.741 18.84C122.57 19.032 122.485 19.2453 122.485 19.48C122.485 19.9067 122.762 20.2267 123.317 20.44C123.872 20.632 124.821 20.8773 126.165 21.176C127.786 21.5387 129.056 21.9547 129.973 22.424C130.89 22.8933 131.52 23.4373 131.861 24.056C132.224 24.6533 132.405 25.3893 132.405 26.264C132.405 27.224 132.106 28.088 131.509 28.856C130.933 29.624 130.058 30.2427 128.885 30.712C127.733 31.16 126.304 31.384 124.597 31.384ZM143.785 31.384C142.377 31.384 140.979 31.1493 139.593 30.68C138.206 30.1893 137.011 29.6133 136.009 28.952L138.025 26.008C138.985 26.6267 139.998 27.096 141.065 27.416C142.153 27.736 143.273 27.896 144.425 27.896C145.299 27.896 145.939 27.768 146.345 27.512C146.75 27.2347 146.953 26.9147 146.953 26.552C146.953 26.3173 146.889 26.1253 146.761 25.976C146.654 25.8053 146.451 25.656 146.153 25.528C145.875 25.3787 145.481 25.24 144.969 25.112C144.478 24.984 143.838 24.8347 143.049 24.664C140.894 24.1947 139.347 23.5547 138.409 22.744C137.47 21.9333 137.001 20.92 137.001 19.704C137.001 18.2107 137.651 17.016 138.953 16.12C140.254 15.2027 142.035 14.744 144.297 14.744C145.726 14.744 147.017 14.9787 148.169 15.448C149.342 15.896 150.345 16.3867 151.177 16.92L149.065 19.736C148.275 19.2453 147.433 18.872 146.537 18.616C145.641 18.36 144.755 18.232 143.881 18.232C143.39 18.232 142.985 18.2853 142.665 18.392C142.345 18.4773 142.099 18.6267 141.929 18.84C141.758 19.032 141.673 19.2453 141.673 19.48C141.673 19.9067 141.95 20.2267 142.505 20.44C143.059 20.632 144.009 20.8773 145.353 21.176C146.974 21.5387 148.243 21.9547 149.161 22.424C150.078 22.8933 150.707 23.4373 151.049 24.056C151.411 24.6533 151.593 25.3893 151.593 26.264C151.593 27.224 151.294 28.088 150.697 28.856C150.121 29.624 149.246 30.2427 148.073 30.712C146.921 31.16 145.491 31.384 143.785 31.384ZM163.1 31.384C162.012 31.384 161.116 31.0213 160.412 30.296C159.729 29.5707 159.388 28.6853 159.388 27.64C159.388 26.5947 159.729 25.7093 160.412 24.984C161.116 24.2373 162.012 23.864 163.1 23.864C164.209 23.864 165.105 24.2373 165.788 24.984C166.471 25.7093 166.812 26.5947 166.812 27.64C166.812 28.6853 166.471 29.5707 165.788 30.296C165.105 31.0213 164.209 31.384 163.1 31.384ZM184.08 31.384C182.778 31.384 181.541 31.16 180.368 30.712C179.216 30.264 178.192 29.592 177.296 28.696C176.4 27.7787 175.696 26.6587 175.184 25.336C174.672 23.992 174.416 22.4453 174.416 20.696C174.416 18.392 174.853 16.4293 175.728 14.808C176.624 13.1653 177.818 11.9173 179.312 11.064C180.826 10.1893 182.512 9.752 184.368 9.752C185.69 9.752 186.885 10.0293 187.952 10.584C189.018 11.1173 189.904 11.7253 190.608 12.408L188.016 15.32C187.525 14.8507 186.981 14.488 186.384 14.232C185.808 13.9547 185.136 13.816 184.368 13.816C183.386 13.816 182.512 14.0933 181.744 14.648C180.976 15.1813 180.368 15.9493 179.92 16.952C179.472 17.9547 179.248 19.1493 179.248 20.536C179.248 21.9653 179.472 23.192 179.92 24.216C180.368 25.2187 180.986 25.9867 181.776 26.52C182.586 27.0533 183.514 27.32 184.56 27.32C185.328 27.32 186.021 27.1493 186.64 26.808C187.258 26.4667 187.824 26.0187 188.336 25.464L190.928 28.312C190.074 29.3147 189.072 30.0827 187.92 30.616C186.768 31.128 185.488 31.384 184.08 31.384ZM200.771 31V18.808H194.371V15.128H205.475V31H200.771ZM202.915 12.632C202.019 12.632 201.272 12.376 200.675 11.864C200.078 11.3307 199.779 10.6373 199.779 9.784C199.779 8.90933 200.078 8.20533 200.675 7.672C201.272 7.11733 202.019 6.84 202.915 6.84C203.832 6.84 204.579 7.11733 205.155 7.672C205.752 8.20533 206.051 8.90933 206.051 9.784C206.051 10.6373 205.752 11.3307 205.155 11.864C204.579 12.376 203.832 12.632 202.915 12.632ZM214.775 31V15.128H218.615L218.999 18.584H219.095C219.884 17.2827 220.833 16.3227 221.943 15.704C223.073 15.064 224.268 14.744 225.527 14.744C226.231 14.744 226.796 14.7973 227.222 14.904C227.671 15.0107 228.129 15.1707 228.599 15.384L227.639 19.32C227.148 19.1707 226.7 19.064 226.295 19C225.911 18.9147 225.42 18.872 224.823 18.872C223.841 18.872 222.871 19.16 221.911 19.736C220.972 20.312 220.161 21.3147 219.479 22.744V31H214.775ZM241.226 31.384C239.562 31.384 238.058 31.064 236.714 30.424C235.391 29.7627 234.335 28.8133 233.546 27.576C232.778 26.3173 232.394 24.8133 232.394 23.064C232.394 21.3147 232.821 19.8213 233.674 18.584C234.527 17.3253 235.647 16.376 237.034 15.736C238.442 15.0747 239.957 14.744 241.578 14.744C242.837 14.744 243.978 14.9467 245.002 15.352C246.026 15.736 246.869 16.248 247.53 16.888L245.354 19.8C244.735 19.3733 244.138 19.064 243.562 18.872C243.007 18.6587 242.431 18.552 241.834 18.552C240.938 18.552 240.138 18.7333 239.434 19.096C238.73 19.4587 238.186 19.9813 237.802 20.664C237.418 21.3467 237.226 22.1467 237.226 23.064C237.226 23.9813 237.407 24.7813 237.77 25.464C238.154 26.1467 238.677 26.6693 239.338 27.032C240.021 27.3947 240.799 27.576 241.674 27.576C242.506 27.576 243.263 27.4267 243.946 27.128C244.65 26.8293 245.29 26.4773 245.866 26.072L247.754 29.048C246.815 29.8373 245.759 30.424 244.586 30.808C243.434 31.192 242.314 31.384 241.226 31.384ZM262.078 31.384C260.094 31.384 258.59 30.7867 257.566 29.592C256.542 28.3973 256.03 26.7973 256.03 24.792V12.28H251.07V8.6H260.734V24.984C260.734 25.9653 261 26.648 261.534 27.032C262.067 27.3947 262.654 27.576 263.294 27.576C263.678 27.576 264.062 27.5333 264.446 27.448C264.851 27.3627 265.299 27.2347 265.79 27.064L266.814 30.52C266.003 30.776 265.256 30.9787 264.574 31.128C263.912 31.2987 263.08 31.384 262.078 31.384ZM279.185 31.384C277.542 31.384 276.049 31.064 274.705 30.424C273.382 29.7627 272.326 28.8133 271.537 27.576C270.769 26.3173 270.385 24.8133 270.385 23.064C270.385 21.336 270.78 19.8533 271.569 18.616C272.358 17.3573 273.382 16.3973 274.641 15.736C275.9 15.0747 277.233 14.744 278.641 14.744C280.284 14.744 281.66 15.0853 282.769 15.768C283.878 16.4293 284.71 17.336 285.265 18.488C285.841 19.6187 286.129 20.9093 286.129 22.36C286.129 22.7867 286.097 23.2027 286.033 23.608C285.99 23.992 285.948 24.28 285.905 24.472H273.873V21.304H282.737L282.001 22.2C282.001 20.92 281.724 19.96 281.169 19.32C280.636 18.6587 279.846 18.328 278.801 18.328C278.033 18.328 277.361 18.4987 276.785 18.84C276.209 19.1813 275.761 19.704 275.441 20.408C275.121 21.112 274.961 21.9973 274.961 23.064C274.961 24.152 275.153 25.048 275.537 25.752C275.921 26.4347 276.476 26.9467 277.201 27.288C277.926 27.6293 278.801 27.8 279.825 27.8C280.55 27.8 281.233 27.704 281.873 27.512C282.534 27.32 283.217 27.0427 283.921 26.68L285.489 29.528C284.572 30.104 283.558 30.5627 282.449 30.904C281.34 31.224 280.252 31.384 279.185 31.384Z" fill="#00DA9A"/>
<path d="M124.928 129.384C123.776 129.384 122.72 129.256 121.76 129C120.821 128.765 119.979 128.435 119.232 128.008C118.485 127.581 117.856 127.08 117.344 126.504L119.52 123.528C120.203 124.125 120.971 124.616 121.824 125C122.677 125.384 123.563 125.576 124.48 125.576C125.205 125.576 125.856 125.491 126.432 125.32C127.008 125.128 127.456 124.851 127.776 124.488C128.117 124.125 128.288 123.688 128.288 123.176C128.288 122.579 128.107 122.067 127.744 121.64C127.381 121.192 126.752 120.851 125.856 120.616C124.981 120.381 123.744 120.264 122.144 120.264V116.936C123.488 116.936 124.555 116.819 125.344 116.584C126.133 116.349 126.709 116.029 127.072 115.624C127.435 115.219 127.616 114.749 127.616 114.216C127.616 113.491 127.349 112.936 126.816 112.552C126.283 112.168 125.547 111.976 124.608 111.976C123.819 111.976 123.072 112.136 122.368 112.456C121.685 112.755 120.992 113.192 120.288 113.768L117.92 110.888C118.923 110.077 120 109.448 121.152 109C122.304 108.531 123.531 108.296 124.832 108.296C126.304 108.296 127.605 108.52 128.736 108.968C129.867 109.395 130.741 110.024 131.36 110.856C132 111.667 132.32 112.669 132.32 113.864C132.32 114.909 131.979 115.805 131.296 116.552C130.613 117.299 129.664 117.907 128.448 118.376V118.504C129.301 118.739 130.069 119.08 130.752 119.528C131.456 119.955 132 120.499 132.384 121.16C132.789 121.821 132.992 122.589 132.992 123.464C132.992 124.723 132.619 125.8 131.872 126.696C131.125 127.571 130.144 128.243 128.928 128.712C127.712 129.16 126.379 129.384 124.928 129.384ZM144.244 129.384C143.07 129.384 142.014 129.256 141.076 129C140.137 128.744 139.305 128.403 138.58 127.976C137.854 127.549 137.214 127.069 136.66 126.536L138.772 123.56C139.22 123.923 139.689 124.264 140.18 124.584C140.67 124.883 141.193 125.128 141.748 125.32C142.324 125.491 142.932 125.576 143.572 125.576C144.34 125.576 145.022 125.459 145.62 125.224C146.217 124.968 146.676 124.605 146.996 124.136C147.337 123.667 147.508 123.091 147.508 122.408C147.508 121.384 147.156 120.605 146.452 120.072C145.748 119.539 144.862 119.272 143.796 119.272C143.134 119.272 142.569 119.347 142.1 119.496C141.652 119.645 141.076 119.912 140.372 120.296L138.292 118.952L138.836 108.68H151.284V112.648H142.9L142.548 116.456C143.038 116.285 143.476 116.168 143.86 116.104C144.265 116.019 144.724 115.976 145.236 115.976C146.494 115.976 147.646 116.2 148.692 116.648C149.758 117.096 150.612 117.789 151.252 118.728C151.892 119.667 152.212 120.851 152.212 122.28C152.212 123.795 151.838 125.085 151.092 126.152C150.345 127.197 149.364 127.997 148.148 128.552C146.932 129.107 145.63 129.384 144.244 129.384ZM159.911 119.016C159.015 119.016 158.204 118.803 157.479 118.376C156.754 117.928 156.188 117.299 155.783 116.488C155.378 115.656 155.175 114.696 155.175 113.608C155.175 111.944 155.623 110.643 156.519 109.704C157.436 108.744 158.567 108.264 159.911 108.264C161.276 108.264 162.407 108.744 163.303 109.704C164.199 110.643 164.647 111.944 164.647 113.608C164.647 114.696 164.444 115.656 164.039 116.488C163.634 117.299 163.068 117.928 162.343 118.376C161.618 118.803 160.807 119.016 159.911 119.016ZM159.911 116.488C160.316 116.488 160.668 116.285 160.967 115.88C161.287 115.453 161.447 114.696 161.447 113.608C161.447 112.52 161.287 111.784 160.967 111.4C160.668 110.995 160.316 110.792 159.911 110.792C159.527 110.792 159.175 110.995 158.855 111.4C158.535 111.784 158.375 112.52 158.375 113.608C158.375 114.696 158.535 115.453 158.855 115.88C159.175 116.285 159.527 116.488 159.911 116.488ZM157.351 128.104L154.951 125.768L160.903 120.232L162.535 121.736L157.351 128.104ZM167.111 116.936L165.479 115.4L170.663 109.032L173.063 111.368L167.111 116.936ZM168.039 129.384C167.143 129.384 166.332 129.171 165.607 128.744C164.882 128.296 164.316 127.667 163.911 126.856C163.506 126.024 163.303 125.064 163.303 123.976C163.303 122.312 163.751 121.011 164.647 120.072C165.564 119.112 166.695 118.632 168.039 118.632C169.404 118.632 170.535 119.112 171.431 120.072C172.327 121.011 172.775 122.312 172.775 123.976C172.775 125.064 172.572 126.024 172.167 126.856C171.762 127.667 171.196 128.296 170.471 128.744C169.746 129.171 168.935 129.384 168.039 129.384ZM168.039 126.856C168.444 126.856 168.796 126.653 169.095 126.248C169.415 125.821 169.575 125.064 169.575 123.976C169.575 122.888 169.415 122.152 169.095 121.768C168.796 121.363 168.444 121.16 168.039 121.16C167.655 121.16 167.303 121.363 166.983 121.768C166.663 122.152 166.503 122.888 166.503 123.976C166.503 125.064 166.663 125.821 166.983 126.248C167.303 126.653 167.655 126.856 168.039 126.856Z" fill="#00CF92"/>
<circle cx="144" cy="118" r="63.5" stroke="#EAE8E8" stroke-width="13"/>
<mask id="path-4-inside-1_436_345" fill="white">
<path d="M203.406 156.584C210.335 146.096 214.311 133.935 214.918 121.38C215.525 108.824 212.74 96.3371 206.855 85.2295C200.971 74.1219 192.204 64.8038 181.475 58.2539C170.746 51.704 158.451 48.1639 145.882 48.0056L145.709 61.7701C155.806 61.8973 165.683 64.7412 174.302 70.0031C182.921 75.2649 189.964 82.7506 194.691 91.6739C199.419 100.597 201.656 110.629 201.169 120.715C200.681 130.802 197.487 140.571 191.92 148.996L203.406 156.584Z"/>
</mask>
<path d="M203.406 156.584C210.335 146.096 214.311 133.935 214.918 121.38C215.525 108.824 212.74 96.3371 206.855 85.2295C200.971 74.1219 192.204 64.8038 181.475 58.2539C170.746 51.704 158.451 48.1639 145.882 48.0056L145.709 61.7701C155.806 61.8973 165.683 64.7412 174.302 70.0031C182.921 75.2649 189.964 82.7506 194.691 91.6739C199.419 100.597 201.656 110.629 201.169 120.715C200.681 130.802 197.487 140.571 191.92 148.996L203.406 156.584Z" stroke="#00DA9A" stroke-width="26" mask="url(#path-4-inside-1_436_345)"/>
</svg>
