<svg width="100%" height="100%" viewBox="0 0 257 150" fill="none"
    xmlns="http://www.w3.org/2000/svg">
    <rect x="1" y="40" width="255" height="109" rx="16" stroke="#00DA9A" stroke-width="2"/>
    <rect x="9.25" y="51.25" width="238.5" height="22.5" fill="#BEBEBE" stroke="#009F71" stroke-width="1.5"/>
    <rect x="9.25" y="81.25" width="238.5" height="22.5" fill="#BEBEBE" stroke="#009F71" stroke-width="1.5"/>
    <rect x="9.25" y="111.25" width="238.5" height="22.5" fill="#BEBEBE" stroke="#009F71" stroke-width="1.5"/>
    <path d="M101.798 31V10.85H109.3C110.747 10.85 112.08 11.0463 113.299 11.439C114.518 11.811 115.5 12.4723 116.244 13.423C116.988 14.3737 117.36 15.686 117.36 17.36C117.36 18.972 116.988 20.2843 116.244 21.297C115.5 22.3097 114.518 23.0537 113.299 23.529C112.08 24.0043 110.747 24.242 109.3 24.242H107.13V31H101.798ZM107.13 20.026H108.928C109.982 20.026 110.778 19.7987 111.315 19.344C111.873 18.8893 112.152 18.228 112.152 17.36C112.152 16.492 111.873 15.8927 111.315 15.562C110.778 15.2313 109.982 15.066 108.928 15.066H107.13V20.026ZM108.339 22.847L111.935 19.313L118.476 31H112.524L108.339 22.847ZM127.888 31.372C126.524 31.372 125.232 31.0517 124.013 30.411C122.794 29.7703 121.802 28.8507 121.037 27.652C120.272 26.4327 119.89 24.9653 119.89 23.25C119.89 21.5347 120.272 20.0777 121.037 18.879C121.802 17.6597 122.794 16.7297 124.013 16.089C125.232 15.4483 126.524 15.128 127.888 15.128C129.252 15.128 130.544 15.4483 131.763 16.089C132.982 16.7297 133.974 17.6597 134.739 18.879C135.504 20.0777 135.886 21.5347 135.886 23.25C135.886 24.9653 135.504 26.4327 134.739 27.652C133.974 28.8507 132.982 29.7703 131.763 30.411C130.544 31.0517 129.252 31.372 127.888 31.372ZM127.888 27.094C128.487 27.094 128.973 26.939 129.345 26.629C129.717 26.319 129.986 25.8747 130.151 25.296C130.337 24.7173 130.43 24.0353 130.43 23.25C130.43 22.4647 130.337 21.7827 130.151 21.204C129.986 20.6253 129.717 20.181 129.345 19.871C128.973 19.561 128.487 19.406 127.888 19.406C127.289 19.406 126.803 19.561 126.431 19.871C126.059 20.181 125.78 20.6253 125.594 21.204C125.429 21.7827 125.346 22.4647 125.346 23.25C125.346 24.0353 125.429 24.7173 125.594 25.296C125.78 25.8747 126.059 26.319 126.431 26.629C126.803 26.939 127.289 27.094 127.888 27.094ZM139.47 31L137.238 15.5H142.384L143.004 22.01C143.086 22.7747 143.159 23.5497 143.221 24.335C143.283 25.1203 143.355 25.916 143.438 26.722H143.531C143.613 25.916 143.706 25.1203 143.81 24.335C143.913 23.529 144.037 22.754 144.182 22.01L144.802 17.98H148.398L149.08 22.01C149.224 22.7747 149.348 23.5497 149.452 24.335C149.576 25.1203 149.689 25.916 149.793 26.722H149.917C150.02 25.916 150.082 25.1203 150.103 24.335C150.144 23.5497 150.196 22.7747 150.258 22.01L150.754 15.5H155.714L153.668 31H147.53L147.034 26.846C146.951 26.1227 146.868 25.389 146.786 24.645C146.703 23.901 146.62 23.1053 146.538 22.258H146.414C146.372 22.7747 146.321 23.3843 146.259 24.087C146.197 24.7897 146.104 25.7093 145.98 26.846L145.484 31H139.47Z" fill="#00DA9A"/>
    <rect x="12" y="54" width="53" height="17" fill="#D9D9D9" fill-opacity="0.59"/>
    <rect x="12" y="84" width="116" height="17" fill="#D9D9D9" fill-opacity="0.59"/>
    <rect x="12" y="114" width="53" height="17" fill="#D9D9D9" fill-opacity="0.59"/>
    <rect x="68" y="114" width="59" height="17" fill="#D9D9D9" fill-opacity="0.59"/>
    <rect x="130" y="114" width="53" height="17" fill="#D9D9D9" fill-opacity="0.59"/>
    <rect x="186" y="114" width="59" height="17" fill="#D9D9D9" fill-opacity="0.59"/>
    <rect x="68" y="54" width="177" height="17" fill="#D9D9D9" fill-opacity="0.59"/>
    <rect x="130" y="84" width="115" height="17" fill="#D9D9D9" fill-opacity="0.59"/>
</svg>