<svg width="100%" height="100%" viewBox="0 0 231 102" fill="none"
    xmlns="http://www.w3.org/2000/svg">
    <path d="M7.232 31V14.104H0.992V10.136H18.208V14.104H11.968V31H7.232ZM28.7875 31.384C27.4008 31.384 26.0888 31.064 24.8515 30.424C23.6142 29.7627 22.6115 28.8133 21.8435 27.576C21.0755 26.3173 20.6915 24.8133 20.6915 23.064C20.6915 21.3147 21.0755 19.8213 21.8435 18.584C22.6115 17.3253 23.6142 16.376 24.8515 15.736C26.0888 15.0747 27.4008 14.744 28.7875 14.744C30.1742 14.744 31.4862 15.0747 32.7235 15.736C33.9608 16.376 34.9635 17.3253 35.7315 18.584C36.4995 19.8213 36.8835 21.3147 36.8835 23.064C36.8835 24.8133 36.4995 26.3173 35.7315 27.576C34.9635 28.8133 33.9608 29.7627 32.7235 30.424C31.4862 31.064 30.1742 31.384 28.7875 31.384ZM28.7875 27.576C29.5128 27.576 30.1102 27.3947 30.5795 27.032C31.0702 26.6693 31.4328 26.1467 31.6675 25.464C31.9235 24.7813 32.0515 23.9813 32.0515 23.064C32.0515 22.1467 31.9235 21.3467 31.6675 20.664C31.4328 19.9813 31.0702 19.4587 30.5795 19.096C30.1102 18.7333 29.5128 18.552 28.7875 18.552C28.0622 18.552 27.4542 18.7333 26.9635 19.096C26.4942 19.4587 26.1315 19.9813 25.8755 20.664C25.6408 21.3467 25.5235 22.1467 25.5235 23.064C25.5235 23.9813 25.6408 24.7813 25.8755 25.464C26.1315 26.1467 26.4942 26.6693 26.9635 27.032C27.4542 27.3947 28.0622 27.576 28.7875 27.576ZM47.239 37.752C45.8523 37.752 44.615 37.6027 43.527 37.304C42.4603 37.0267 41.607 36.5893 40.967 35.992C40.3483 35.3947 40.039 34.6267 40.039 33.688C40.039 33.048 40.2417 32.4613 40.647 31.928C41.0737 31.3947 41.6923 30.9253 42.503 30.52V30.392C42.055 30.0933 41.671 29.7307 41.351 29.304C41.0523 28.8773 40.903 28.3333 40.903 27.672C40.903 27.1387 41.0737 26.6053 41.415 26.072C41.7777 25.5387 42.2363 25.08 42.791 24.696V24.568C42.215 24.184 41.7243 23.64 41.319 22.936C40.9137 22.232 40.711 21.4213 40.711 20.504C40.711 19.224 41.0203 18.1573 41.639 17.304C42.279 16.4507 43.111 15.8107 44.135 15.384C45.1803 14.9573 46.3003 14.744 47.495 14.744C48.4763 14.744 49.351 14.872 50.119 15.128H56.551V18.584H53.351C53.543 18.8187 53.703 19.128 53.831 19.512C53.9803 19.8747 54.055 20.2587 54.055 20.664C54.055 21.88 53.7563 22.8827 53.159 23.672C52.583 24.44 51.8043 25.016 50.823 25.4C49.8417 25.784 48.7323 25.976 47.495 25.976C47.1963 25.976 46.855 25.9547 46.471 25.912C46.087 25.848 45.703 25.7627 45.319 25.656C45.063 25.8267 44.8817 25.9973 44.775 26.168C44.6683 26.3387 44.615 26.5627 44.615 26.84C44.615 27.2453 44.8283 27.544 45.255 27.736C45.703 27.928 46.3857 28.024 47.303 28.024H50.247C52.3377 28.024 53.927 28.3333 55.015 28.952C56.1243 29.5707 56.679 30.5947 56.679 32.024C56.679 33.1333 56.295 34.1147 55.527 34.968C54.759 35.8427 53.6603 36.5253 52.231 37.016C50.823 37.5067 49.159 37.752 47.239 37.752ZM47.495 23.128C47.943 23.128 48.3483 23.032 48.711 22.84C49.0737 22.648 49.3617 22.36 49.575 21.976C49.7883 21.5707 49.895 21.08 49.895 20.504C49.895 19.9493 49.7883 19.48 49.575 19.096C49.3617 18.712 49.0737 18.424 48.711 18.232C48.3483 18.0187 47.943 17.912 47.495 17.912C47.0683 17.912 46.6737 18.0187 46.311 18.232C45.9483 18.424 45.6603 18.712 45.447 19.096C45.2337 19.48 45.127 19.9493 45.127 20.504C45.127 21.08 45.2337 21.5707 45.447 21.976C45.6603 22.36 45.9483 22.648 46.311 22.84C46.6737 23.032 47.0683 23.128 47.495 23.128ZM47.911 34.776C48.7643 34.776 49.511 34.6907 50.151 34.52C50.791 34.3493 51.2923 34.1147 51.655 33.816C52.0177 33.5387 52.199 33.2187 52.199 32.856C52.199 32.3227 51.9643 31.9813 51.495 31.832C51.0257 31.704 50.3323 31.64 49.415 31.64H47.431C46.855 31.64 46.375 31.6187 45.991 31.576C45.6283 31.5333 45.2977 31.48 44.999 31.416C44.5937 31.672 44.3057 31.9173 44.135 32.152C43.9643 32.408 43.879 32.6853 43.879 32.984C43.879 33.56 44.2417 33.9973 44.967 34.296C45.6923 34.616 46.6737 34.776 47.911 34.776ZM66.4265 37.752C65.0398 37.752 63.8025 37.6027 62.7145 37.304C61.6478 37.0267 60.7945 36.5893 60.1545 35.992C59.5358 35.3947 59.2265 34.6267 59.2265 33.688C59.2265 33.048 59.4292 32.4613 59.8345 31.928C60.2612 31.3947 60.8798 30.9253 61.6905 30.52V30.392C61.2425 30.0933 60.8585 29.7307 60.5385 29.304C60.2398 28.8773 60.0905 28.3333 60.0905 27.672C60.0905 27.1387 60.2612 26.6053 60.6025 26.072C60.9652 25.5387 61.4238 25.08 61.9785 24.696V24.568C61.4025 24.184 60.9118 23.64 60.5065 22.936C60.1012 22.232 59.8985 21.4213 59.8985 20.504C59.8985 19.224 60.2078 18.1573 60.8265 17.304C61.4665 16.4507 62.2985 15.8107 63.3225 15.384C64.3678 14.9573 65.4878 14.744 66.6825 14.744C67.6638 14.744 68.5385 14.872 69.3065 15.128H75.7385V18.584H72.5385C72.7305 18.8187 72.8905 19.128 73.0185 19.512C73.1678 19.8747 73.2425 20.2587 73.2425 20.664C73.2425 21.88 72.9438 22.8827 72.3465 23.672C71.7705 24.44 70.9918 25.016 70.0105 25.4C69.0292 25.784 67.9198 25.976 66.6825 25.976C66.3838 25.976 66.0425 25.9547 65.6585 25.912C65.2745 25.848 64.8905 25.7627 64.5065 25.656C64.2505 25.8267 64.0692 25.9973 63.9625 26.168C63.8558 26.3387 63.8025 26.5627 63.8025 26.84C63.8025 27.2453 64.0158 27.544 64.4425 27.736C64.8905 27.928 65.5732 28.024 66.4905 28.024H69.4345C71.5252 28.024 73.1145 28.3333 74.2025 28.952C75.3118 29.5707 75.8665 30.5947 75.8665 32.024C75.8665 33.1333 75.4825 34.1147 74.7145 34.968C73.9465 35.8427 72.8478 36.5253 71.4185 37.016C70.0105 37.5067 68.3465 37.752 66.4265 37.752ZM66.6825 23.128C67.1305 23.128 67.5358 23.032 67.8985 22.84C68.2612 22.648 68.5492 22.36 68.7625 21.976C68.9758 21.5707 69.0825 21.08 69.0825 20.504C69.0825 19.9493 68.9758 19.48 68.7625 19.096C68.5492 18.712 68.2612 18.424 67.8985 18.232C67.5358 18.0187 67.1305 17.912 66.6825 17.912C66.2558 17.912 65.8612 18.0187 65.4985 18.232C65.1358 18.424 64.8478 18.712 64.6345 19.096C64.4212 19.48 64.3145 19.9493 64.3145 20.504C64.3145 21.08 64.4212 21.5707 64.6345 21.976C64.8478 22.36 65.1358 22.648 65.4985 22.84C65.8612 23.032 66.2558 23.128 66.6825 23.128ZM67.0985 34.776C67.9518 34.776 68.6985 34.6907 69.3385 34.52C69.9785 34.3493 70.4798 34.1147 70.8425 33.816C71.2052 33.5387 71.3865 33.2187 71.3865 32.856C71.3865 32.3227 71.1518 31.9813 70.6825 31.832C70.2132 31.704 69.5198 31.64 68.6025 31.64H66.6185C66.0425 31.64 65.5625 31.6187 65.1785 31.576C64.8158 31.5333 64.4852 31.48 64.1865 31.416C63.7812 31.672 63.4932 31.9173 63.3225 32.152C63.1518 32.408 63.0665 32.6853 63.0665 32.984C63.0665 33.56 63.4292 33.9973 64.1545 34.296C64.8798 34.616 65.8612 34.776 67.0985 34.776ZM89.39 31.384C87.406 31.384 85.902 30.7867 84.878 29.592C83.854 28.3973 83.342 26.7973 83.342 24.792V12.28H78.382V8.6H88.046V24.984C88.046 25.9653 88.3127 26.648 88.846 27.032C89.3793 27.3947 89.966 27.576 90.606 27.576C90.99 27.576 91.374 27.5333 91.758 27.448C92.1633 27.3627 92.6113 27.2347 93.102 27.064L94.126 30.52C93.3153 30.776 92.5687 30.9787 91.886 31.128C91.2247 31.2987 90.3927 31.384 89.39 31.384ZM106.498 31.384C104.855 31.384 103.362 31.064 102.018 30.424C100.695 29.7627 99.6388 28.8133 98.8495 27.576C98.0815 26.3173 97.6975 24.8133 97.6975 23.064C97.6975 21.336 98.0922 19.8533 98.8815 18.616C99.6708 17.3573 100.695 16.3973 101.954 15.736C103.212 15.0747 104.546 14.744 105.954 14.744C107.596 14.744 108.972 15.0853 110.082 15.768C111.191 16.4293 112.023 17.336 112.578 18.488C113.154 19.6187 113.442 20.9093 113.442 22.36C113.442 22.7867 113.41 23.2027 113.346 23.608C113.303 23.992 113.26 24.28 113.218 24.472H101.186V21.304H110.05L109.314 22.2C109.314 20.92 109.036 19.96 108.482 19.32C107.948 18.6587 107.159 18.328 106.114 18.328C105.346 18.328 104.674 18.4987 104.098 18.84C103.522 19.1813 103.074 19.704 102.754 20.408C102.434 21.112 102.274 21.9973 102.274 23.064C102.274 24.152 102.466 25.048 102.85 25.752C103.234 26.4347 103.788 26.9467 104.514 27.288C105.239 27.6293 106.114 27.8 107.138 27.8C107.863 27.8 108.546 27.704 109.186 27.512C109.847 27.32 110.53 27.0427 111.234 26.68L112.802 29.528C111.884 30.104 110.871 30.5627 109.762 30.904C108.652 31.224 107.564 31.384 106.498 31.384ZM117.493 31V10.136H124.501C125.952 10.136 127.253 10.296 128.405 10.616C129.557 10.9147 130.464 11.4373 131.125 12.184C131.808 12.9307 132.149 13.976 132.149 15.32C132.149 16.2587 131.861 17.1653 131.285 18.04C130.709 18.9147 129.802 19.512 128.565 19.832V19.96C130.058 20.216 131.189 20.7493 131.957 21.56C132.725 22.3493 133.109 23.448 133.109 24.856C133.109 26.264 132.757 27.4267 132.053 28.344C131.349 29.24 130.389 29.912 129.173 30.36C127.978 30.7867 126.624 31 125.109 31H117.493ZM122.197 18.52H124.277C125.429 18.52 126.261 18.296 126.773 17.848C127.285 17.3787 127.541 16.7493 127.541 15.96C127.541 15.192 127.274 14.648 126.741 14.328C126.229 13.9867 125.418 13.816 124.309 13.816H122.197V18.52ZM122.197 27.32H124.725C126.005 27.32 126.954 27.0853 127.573 26.616C128.192 26.1467 128.501 25.4427 128.501 24.504C128.501 23.5867 128.192 22.9253 127.573 22.52C126.954 22.1147 126.005 21.912 124.725 21.912H122.197V27.32ZM141.449 31.384C139.635 31.384 138.323 30.808 137.513 29.656C136.702 28.504 136.297 26.9253 136.297 24.92V15.128H141.001V24.312C141.001 25.3787 141.161 26.1573 141.481 26.648C141.822 27.1387 142.43 27.384 143.305 27.384C143.902 27.384 144.435 27.256 144.905 27C145.374 26.744 145.875 26.264 146.409 25.56V15.128H151.113V31H147.273L146.921 28.728H146.793C146.089 29.5173 145.31 30.1573 144.457 30.648C143.603 31.1387 142.601 31.384 141.449 31.384ZM165.916 31.384C164.231 31.384 162.887 31.096 161.884 30.52C160.903 29.9227 160.188 29.1013 159.74 28.056C159.292 27.0107 159.068 25.7947 159.068 24.408V18.808H155.1V15.32L159.292 15.128L159.9 10.264H163.772V15.128H170.492V18.808H163.772V24.376C163.772 25.1653 163.889 25.8053 164.124 26.296C164.359 26.7867 164.721 27.1493 165.212 27.384C165.703 27.5973 166.332 27.704 167.1 27.704C167.719 27.704 168.284 27.6507 168.796 27.544C169.308 27.4373 169.799 27.2987 170.268 27.128L171.1 30.52C170.396 30.7333 169.617 30.9253 168.764 31.096C167.932 31.288 166.983 31.384 165.916 31.384ZM185.104 31.384C183.418 31.384 182.074 31.096 181.072 30.52C180.09 29.9227 179.376 29.1013 178.928 28.056C178.48 27.0107 178.256 25.7947 178.256 24.408V18.808H174.288V15.32L178.48 15.128L179.088 10.264H182.96V15.128H189.68V18.808H182.96V24.376C182.96 25.1653 183.077 25.8053 183.312 26.296C183.546 26.7867 183.909 27.1493 184.4 27.384C184.89 27.5973 185.52 27.704 186.288 27.704C186.906 27.704 187.472 27.6507 187.984 27.544C188.496 27.4373 188.986 27.2987 189.456 27.128L190.288 30.52C189.584 30.7333 188.805 30.9253 187.952 31.096C187.12 31.288 186.17 31.384 185.104 31.384ZM201.475 31.384C200.088 31.384 198.776 31.064 197.539 30.424C196.302 29.7627 195.299 28.8133 194.531 27.576C193.763 26.3173 193.379 24.8133 193.379 23.064C193.379 21.3147 193.763 19.8213 194.531 18.584C195.299 17.3253 196.302 16.376 197.539 15.736C198.776 15.0747 200.088 14.744 201.475 14.744C202.862 14.744 204.174 15.0747 205.411 15.736C206.648 16.376 207.651 17.3253 208.419 18.584C209.187 19.8213 209.571 21.3147 209.571 23.064C209.571 24.8133 209.187 26.3173 208.419 27.576C207.651 28.8133 206.648 29.7627 205.411 30.424C204.174 31.064 202.862 31.384 201.475 31.384ZM201.475 27.576C202.2 27.576 202.798 27.3947 203.267 27.032C203.758 26.6693 204.12 26.1467 204.355 25.464C204.611 24.7813 204.739 23.9813 204.739 23.064C204.739 22.1467 204.611 21.3467 204.355 20.664C204.12 19.9813 203.758 19.4587 203.267 19.096C202.798 18.7333 202.2 18.552 201.475 18.552C200.75 18.552 200.142 18.7333 199.651 19.096C199.182 19.4587 198.819 19.9813 198.563 20.664C198.328 21.3467 198.211 22.1467 198.211 23.064C198.211 23.9813 198.328 24.7813 198.563 25.464C198.819 26.1467 199.182 26.6693 199.651 27.032C200.142 27.3947 200.75 27.576 201.475 27.576ZM213.367 31V15.128H217.207L217.559 17.24H217.687C218.369 16.5573 219.148 15.9707 220.023 15.48C220.919 14.9893 221.964 14.744 223.159 14.744C224.951 14.744 226.263 15.32 227.095 16.472C227.927 17.624 228.343 19.2027 228.343 21.208V31H223.639V21.816C223.639 20.7493 223.457 19.9707 223.095 19.48C222.753 18.9893 222.156 18.744 221.303 18.744C220.663 18.744 220.097 18.8933 219.607 19.192C219.137 19.4693 218.625 19.8747 218.071 20.408V31H213.367Z" fill="#00DA9A"/>
    <rect x="80.5" y="52.5" width="71" height="36.1613" rx="18.0806" fill="#EBEBEB" stroke="#00CF92"/>
    <circle cx="99.7421" cy="70.5806" r="11.6129" fill="#00DA9A"/>
    <path d="M145.868 84.8057L140.225 90.4502L139.673 91.002L140.246 91.5312L146.917 97.6885L143.667 100.939L137.167 94.4395L134.47 97.1367L130.994 100.611L123.188 77.1895L145.868 84.8057Z" fill="#71FFAC" stroke="#00CF92" stroke-width="1.5"/>
    <path d="M40 76.24C38.96 76.24 38.0467 75.98 37.26 75.46C36.4733 74.94 35.86 74.18 35.42 73.18C34.98 72.1667 34.76 70.9133 34.76 69.42C34.76 67.9667 34.98 66.7467 35.42 65.76C35.86 64.76 36.4733 64.0067 37.26 63.5C38.0467 62.98 38.96 62.72 40 62.72C41.04 62.72 41.9533 62.98 42.74 63.5C43.5267 64.0067 44.14 64.76 44.58 65.76C45.02 66.7467 45.24 67.9667 45.24 69.42C45.24 70.9133 45.02 72.1667 44.58 73.18C44.14 74.18 43.5267 74.94 42.74 75.46C41.9533 75.98 41.04 76.24 40 76.24ZM40 73.7C40.4533 73.7 40.8467 73.54 41.18 73.22C41.5133 72.8867 41.7667 72.4067 41.94 71.78C42.1267 71.14 42.22 70.3533 42.22 69.42C42.22 68.5133 42.1267 67.7533 41.94 67.14C41.7667 66.5267 41.5133 66.06 41.18 65.74C40.8467 65.42 40.4533 65.26 40 65.26C39.5467 65.26 39.1533 65.42 38.82 65.74C38.4867 66.06 38.2267 66.5267 38.04 67.14C37.8667 67.7533 37.78 68.5133 37.78 69.42C37.78 70.3533 37.8667 71.14 38.04 71.78C38.2267 72.4067 38.4867 72.8867 38.82 73.22C39.1533 73.54 39.5467 73.7 40 73.7ZM50.2522 76V65.82C50.2522 65.06 50.4055 64.3733 50.7122 63.76C51.0322 63.1333 51.5122 62.64 52.1522 62.28C52.8055 61.92 53.6522 61.74 54.6922 61.74C55.2655 61.74 55.8055 61.8 56.3122 61.92C56.8189 62.0267 57.2789 62.1467 57.6922 62.28L57.1322 64.44C56.8122 64.32 56.4789 64.2267 56.1322 64.16C55.7989 64.0933 55.4389 64.06 55.0522 64.06C54.4255 64.06 53.9589 64.2 53.6522 64.48C53.3455 64.76 53.1922 65.2 53.1922 65.8V76H50.2522ZM47.6322 68.38V66.2L50.3522 66.08H56.6122V68.38H47.6322ZM62.2444 76V65.82C62.2444 65.06 62.3977 64.3733 62.7044 63.76C63.0244 63.1333 63.5044 62.64 64.1444 62.28C64.7977 61.92 65.6444 61.74 66.6844 61.74C67.2577 61.74 67.7977 61.8 68.3044 61.92C68.811 62.0267 69.271 62.1467 69.6844 62.28L69.1244 64.44C68.8044 64.32 68.471 64.2267 68.1244 64.16C67.791 64.0933 67.431 64.06 67.0444 64.06C66.4177 64.06 65.951 64.2 65.6444 64.48C65.3377 64.76 65.1844 65.2 65.1844 65.8V76H62.2444ZM59.6244 68.38V66.2L62.3444 66.08H68.6044V68.38H59.6244Z" fill="#00DA9A"/>
    <path d="M167 76.24C165.96 76.24 165.047 75.98 164.26 75.46C163.473 74.94 162.86 74.18 162.42 73.18C161.98 72.1667 161.76 70.9133 161.76 69.42C161.76 67.9667 161.98 66.7467 162.42 65.76C162.86 64.76 163.473 64.0067 164.26 63.5C165.047 62.98 165.96 62.72 167 62.72C168.04 62.72 168.953 62.98 169.74 63.5C170.527 64.0067 171.14 64.76 171.58 65.76C172.02 66.7467 172.24 67.9667 172.24 69.42C172.24 70.9133 172.02 72.1667 171.58 73.18C171.14 74.18 170.527 74.94 169.74 75.46C168.953 75.98 168.04 76.24 167 76.24ZM167 73.7C167.453 73.7 167.847 73.54 168.18 73.22C168.513 72.8867 168.767 72.4067 168.94 71.78C169.127 71.14 169.22 70.3533 169.22 69.42C169.22 68.5133 169.127 67.7533 168.94 67.14C168.767 66.5267 168.513 66.06 168.18 65.74C167.847 65.42 167.453 65.26 167 65.26C166.547 65.26 166.153 65.42 165.82 65.74C165.487 66.06 165.227 66.5267 165.04 67.14C164.867 67.7533 164.78 68.5133 164.78 69.42C164.78 70.3533 164.867 71.14 165.04 71.78C165.227 72.4067 165.487 72.8867 165.82 73.22C166.153 73.54 166.547 73.7 167 73.7ZM174.432 76V66.08H176.832L177.052 67.4H177.132C177.559 66.9733 178.046 66.6067 178.592 66.3C179.152 65.9933 179.806 65.84 180.552 65.84C181.672 65.84 182.492 66.2 183.012 66.92C183.532 67.64 183.792 68.6267 183.792 69.88V76H180.852V70.26C180.852 69.5933 180.739 69.1067 180.512 68.8C180.299 68.4933 179.926 68.34 179.392 68.34C178.992 68.34 178.639 68.4333 178.332 68.62C178.039 68.7933 177.719 69.0467 177.372 69.38V76H174.432Z" fill="#00DA9A"/>
</svg>