<svg width="100%" height="100%" viewBox="0 0 257 127" fill="none"
    xmlns="http://www.w3.org/2000/svg">
    <rect x="1" y="40" width="255" height="86" rx="16" stroke="#00DA9A" stroke-width="2"/>
    <rect x="105.339" y="66.08" width="100" height="48" rx="15" transform="rotate(-10.8019 105.339 66.08)" stroke="#009F71" stroke-width="4"/>
    <path d="M94.8839 87.8839C95.372 87.3957 95.372 86.6043 94.8839 86.1161L86.9289 78.1612C86.4408 77.673 85.6493 77.673 85.1612 78.1612C84.673 78.6493 84.673 79.4408 85.1612 79.9289L92.2322 87L85.1612 94.0711C84.673 94.5592 84.673 95.3507 85.1612 95.8388C85.6493 96.327 86.4408 96.327 86.9289 95.8388L94.8839 87.8839ZM60 88.25L94 88.25V85.75L60 85.75V88.25Z" fill="#009F71"/>
    <path d="M210.473 112.05L210.221 110.825L210.221 110.825L210.473 112.05ZM222.553 104.308L223.56 105.049L223.56 105.049L222.553 104.308ZM231.736 93.3115C231.632 92.629 230.994 92.1602 230.312 92.2643L219.19 93.9608C218.508 94.0649 218.039 94.7025 218.143 95.385C218.247 96.0674 218.885 96.5363 219.567 96.4322L229.453 94.9242L230.961 104.81C231.065 105.492 231.703 105.961 232.385 105.857C233.067 105.753 233.536 105.115 233.432 104.433L231.736 93.3115ZM201.252 115.224L210.725 113.274L210.221 110.825L200.748 112.776L201.252 115.224ZM223.56 105.049L231.507 94.2405L229.493 92.7595L221.546 103.568L223.56 105.049ZM210.725 113.274C215.873 112.214 220.446 109.284 223.56 105.049L221.546 103.568C218.798 107.304 214.763 109.89 210.221 110.825L210.725 113.274Z" fill="#009F71"/>
    <path d="M54.006 31V14.632H47.961V10.788H64.639V14.632H58.594V31H54.006ZM69.1839 31V15.624H72.9039L73.2759 18.972H73.3689C74.1336 17.7113 75.0532 16.7813 76.1279 16.182C77.2232 15.562 78.3806 15.252 79.5999 15.252C80.2819 15.252 80.8296 15.3037 81.2429 15.407C81.6769 15.5103 82.1212 15.6653 82.5759 15.872L81.6459 19.685C81.1706 19.5403 80.7366 19.437 80.3439 19.375C79.9719 19.2923 79.4966 19.251 78.9179 19.251C77.9672 19.251 77.0269 19.53 76.0969 20.088C75.1876 20.646 74.4022 21.6173 73.7409 23.002V31H69.1839ZM91.1198 31.372C90.0864 31.372 89.1874 31.1653 88.4228 30.752C87.6788 30.3387 87.1001 29.7807 86.6868 29.078C86.2734 28.3753 86.0668 27.59 86.0668 26.722C86.0668 25.0067 86.8418 23.6943 88.3918 22.785C89.9624 21.8757 92.5664 21.3177 96.2038 21.111C96.1418 20.6357 95.9868 20.2327 95.7388 19.902C95.4908 19.5713 95.1291 19.3233 94.6538 19.158C94.1991 18.972 93.6204 18.879 92.9178 18.879C92.4218 18.879 91.9258 18.941 91.4298 19.065C90.9338 19.1683 90.4171 19.3337 89.8798 19.561C89.3631 19.7677 88.8154 20.0157 88.2368 20.305L86.6248 17.329C87.3274 16.9157 88.0611 16.554 88.8258 16.244C89.6111 15.934 90.4171 15.6963 91.2438 15.531C92.0911 15.345 92.9488 15.252 93.8168 15.252C95.2634 15.252 96.5034 15.5103 97.5368 16.027C98.5701 16.523 99.3658 17.2877 99.9238 18.321C100.482 19.3337 100.761 20.6253 100.761 22.196V31H97.0408L96.6998 29.264H96.5758C95.8111 29.8427 94.9638 30.3387 94.0338 30.752C93.1038 31.1653 92.1324 31.372 91.1198 31.372ZM92.5768 27.838C93.2588 27.838 93.8994 27.7037 94.4988 27.435C95.0981 27.1457 95.6664 26.7943 96.2038 26.381V23.839C94.6951 23.9217 93.5171 24.0767 92.6698 24.304C91.8431 24.5313 91.2644 24.8207 90.9338 25.172C90.6031 25.5233 90.4378 25.9263 90.4378 26.381C90.4378 26.691 90.5204 26.9597 90.6858 27.187C90.8718 27.4143 91.1198 27.5797 91.4298 27.683C91.7604 27.7863 92.1428 27.838 92.5768 27.838ZM104.996 31V15.624H108.716L109.057 17.67H109.181C109.842 17.0087 110.596 16.4403 111.444 15.965C112.312 15.4897 113.324 15.252 114.482 15.252C116.218 15.252 117.489 15.81 118.295 16.926C119.101 18.042 119.504 19.5713 119.504 21.514V31H114.947V22.103C114.947 21.0697 114.771 20.3153 114.42 19.84C114.089 19.3647 113.51 19.127 112.684 19.127C112.064 19.127 111.516 19.2717 111.041 19.561C110.586 19.8297 110.09 20.2223 109.553 20.739V31H104.996ZM130.528 31.372C129.164 31.372 127.81 31.1447 126.467 30.69C125.123 30.2147 123.966 29.6567 122.995 29.016L124.948 26.164C125.878 26.7633 126.859 27.218 127.893 27.528C128.947 27.838 130.032 27.993 131.148 27.993C131.995 27.993 132.615 27.869 133.008 27.621C133.4 27.3523 133.597 27.0423 133.597 26.691C133.597 26.4637 133.535 26.2777 133.411 26.133C133.307 25.9677 133.111 25.823 132.822 25.699C132.553 25.5543 132.171 25.42 131.675 25.296C131.199 25.172 130.579 25.0273 129.815 24.862C127.727 24.4073 126.229 23.7873 125.32 23.002C124.41 22.2167 123.956 21.235 123.956 20.057C123.956 18.6103 124.586 17.453 125.847 16.585C127.107 15.6963 128.833 15.252 131.024 15.252C132.408 15.252 133.659 15.4793 134.775 15.934C135.911 16.368 136.883 16.8433 137.689 17.36L135.643 20.088C134.878 19.6127 134.062 19.251 133.194 19.003C132.326 18.755 131.468 18.631 130.621 18.631C130.145 18.631 129.753 18.6827 129.443 18.786C129.133 18.8687 128.895 19.0133 128.73 19.22C128.564 19.406 128.482 19.6127 128.482 19.84C128.482 20.2533 128.75 20.5633 129.288 20.77C129.825 20.956 130.745 21.1937 132.047 21.483C133.617 21.8343 134.847 22.2373 135.736 22.692C136.624 23.1467 137.234 23.6737 137.565 24.273C137.916 24.8517 138.092 25.5647 138.092 26.412C138.092 27.342 137.802 28.179 137.224 28.923C136.666 29.667 135.818 30.2663 134.682 30.721C133.566 31.155 132.181 31.372 130.528 31.372ZM146.542 31V15.221C146.542 14.043 146.78 12.9787 147.255 12.028C147.751 11.0567 148.495 10.292 149.487 9.734C150.5 9.176 151.812 8.897 153.424 8.897C154.313 8.897 155.15 8.99 155.935 9.176C156.721 9.34133 157.434 9.52733 158.074 9.734L157.206 13.082C156.71 12.896 156.194 12.7513 155.656 12.648C155.14 12.5447 154.582 12.493 153.982 12.493C153.011 12.493 152.288 12.71 151.812 13.144C151.337 13.578 151.099 14.26 151.099 15.19V31H146.542ZM142.481 19.189V15.81L146.697 15.624H156.4V19.189H142.481ZM167.827 31.372C166.484 31.372 165.213 31.062 164.014 30.442C162.816 29.8013 161.844 28.8817 161.1 27.683C160.356 26.4637 159.984 25.0067 159.984 23.312C159.984 21.6173 160.356 20.1707 161.1 18.972C161.844 17.7527 162.816 16.833 164.014 16.213C165.213 15.5723 166.484 15.252 167.827 15.252C169.171 15.252 170.442 15.5723 171.64 16.213C172.839 16.833 173.81 17.7527 174.554 18.972C175.298 20.1707 175.67 21.6173 175.67 23.312C175.67 25.0067 175.298 26.4637 174.554 27.683C173.81 28.8817 172.839 29.8013 171.64 30.442C170.442 31.062 169.171 31.372 167.827 31.372ZM167.827 27.683C168.53 27.683 169.109 27.5073 169.563 27.156C170.039 26.8047 170.39 26.2983 170.617 25.637C170.865 24.9757 170.989 24.2007 170.989 23.312C170.989 22.4233 170.865 21.6483 170.617 20.987C170.39 20.3257 170.039 19.8193 169.563 19.468C169.109 19.1167 168.53 18.941 167.827 18.941C167.125 18.941 166.536 19.1167 166.06 19.468C165.606 19.8193 165.254 20.3257 165.006 20.987C164.779 21.6483 164.665 22.4233 164.665 23.312C164.665 24.2007 164.779 24.9757 165.006 25.637C165.254 26.2983 165.606 26.8047 166.06 27.156C166.536 27.5073 167.125 27.683 167.827 27.683ZM180.711 31V15.624H184.431L184.803 18.972H184.896C185.661 17.7113 186.581 16.7813 187.655 16.182C188.751 15.562 189.908 15.252 191.127 15.252C191.809 15.252 192.357 15.3037 192.77 15.407C193.204 15.5103 193.649 15.6653 194.103 15.872L193.173 19.685C192.698 19.5403 192.264 19.437 191.871 19.375C191.499 19.2923 191.024 19.251 190.445 19.251C189.495 19.251 188.554 19.53 187.624 20.088C186.715 20.646 185.93 21.6173 185.268 23.002V31H180.711ZM196.788 31V15.624H200.229L200.539 17.515H200.663C200.952 16.895 201.355 16.368 201.872 15.934C202.389 15.4793 203.091 15.252 203.98 15.252C204.641 15.252 205.21 15.469 205.685 15.903C206.16 16.3163 206.481 16.9363 206.646 17.763C206.935 17.0603 207.349 16.4713 207.886 15.996C208.444 15.5 209.167 15.252 210.056 15.252C211.151 15.252 211.999 15.6963 212.598 16.585C213.197 17.4737 213.497 18.6827 213.497 20.212V31H209.157V20.522C209.157 19.592 208.878 19.127 208.32 19.127C208.031 19.127 207.772 19.251 207.545 19.499C207.338 19.7263 207.132 20.0983 206.925 20.615V31H203.36V20.522C203.36 20.0467 203.288 19.6953 203.143 19.468C202.998 19.2407 202.781 19.127 202.492 19.127C202.203 19.127 201.955 19.251 201.748 19.499C201.541 19.7263 201.335 20.0983 201.128 20.615V31H196.788Z" fill="#00DA9A"/>
</svg>