<svg width="241" height="188" viewBox="0 0 241 188" fill="none" xmlns="http://www.w3.org/2000/svg">
<path d="M53.006 31V14.632H46.961V10.788H63.639V14.632H57.594V31H53.006ZM71.5009 31.372C69.7442 31.372 68.4732 30.814 67.6879 29.698C66.9026 28.582 66.5099 27.0527 66.5099 25.11V15.624H71.0669V24.521C71.0669 25.5543 71.2219 26.3087 71.5319 26.784C71.8626 27.2593 72.4516 27.497 73.2989 27.497C73.8776 27.497 74.3942 27.373 74.8489 27.125C75.3036 26.877 75.7892 26.412 76.3059 25.73V15.624H80.8629V31H77.1429L76.8019 28.799H76.6779C75.9959 29.5637 75.2416 30.1837 74.4149 30.659C73.5882 31.1343 72.6169 31.372 71.5009 31.372ZM95.2038 31.372C93.5711 31.372 92.2691 31.093 91.2978 30.535C90.3471 29.9563 89.6548 29.1607 89.2208 28.148C88.7868 27.1353 88.5698 25.9573 88.5698 24.614V19.189H84.7258V15.81L88.7868 15.624L89.3758 10.912H93.1268V15.624H99.6368V19.189H93.1268V24.583C93.1268 25.3477 93.2404 25.9677 93.4678 26.443C93.6951 26.9183 94.0464 27.2697 94.5218 27.497C94.9971 27.7037 95.6068 27.807 96.3508 27.807C96.9501 27.807 97.4978 27.7553 97.9938 27.652C98.4898 27.5487 98.9651 27.4143 99.4198 27.249L100.226 30.535C99.5438 30.7417 98.7894 30.9277 97.9628 31.093C97.1568 31.279 96.2371 31.372 95.2038 31.372ZM111.064 31.372C109.72 31.372 108.449 31.062 107.251 30.442C106.052 29.8013 105.081 28.8817 104.337 27.683C103.593 26.4637 103.221 25.0067 103.221 23.312C103.221 21.6173 103.593 20.1707 104.337 18.972C105.081 17.7527 106.052 16.833 107.251 16.213C108.449 15.5723 109.72 15.252 111.064 15.252C112.407 15.252 113.678 15.5723 114.877 16.213C116.075 16.833 117.047 17.7527 117.791 18.972C118.535 20.1707 118.907 21.6173 118.907 23.312C118.907 25.0067 118.535 26.4637 117.791 27.683C117.047 28.8817 116.075 29.8013 114.877 30.442C113.678 31.062 112.407 31.372 111.064 31.372ZM111.064 27.683C111.766 27.683 112.345 27.5073 112.8 27.156C113.275 26.8047 113.626 26.2983 113.854 25.637C114.102 24.9757 114.226 24.2007 114.226 23.312C114.226 22.4233 114.102 21.6483 113.854 20.987C113.626 20.3257 113.275 19.8193 112.8 19.468C112.345 19.1167 111.766 18.941 111.064 18.941C110.361 18.941 109.772 19.1167 109.297 19.468C108.842 19.8193 108.491 20.3257 108.243 20.987C108.015 21.6483 107.902 22.4233 107.902 23.312C107.902 24.2007 108.015 24.9757 108.243 25.637C108.491 26.2983 108.842 26.8047 109.297 27.156C109.772 27.5073 110.361 27.683 111.064 27.683ZM123.948 31V15.624H127.668L128.04 18.972H128.133C128.897 17.7113 129.817 16.7813 130.892 16.182C131.987 15.562 133.144 15.252 134.364 15.252C135.046 15.252 135.593 15.3037 136.007 15.407C136.441 15.5103 136.885 15.6653 137.34 15.872L136.41 19.685C135.934 19.5403 135.5 19.437 135.108 19.375C134.736 19.2923 134.26 19.251 133.682 19.251C132.731 19.251 131.791 19.53 130.861 20.088C129.951 20.646 129.166 21.6173 128.505 23.002V31H123.948ZM147.557 31V19.189H141.357V15.624H152.114V31H147.557ZM149.634 13.206C148.766 13.206 148.043 12.958 147.464 12.462C146.886 11.9453 146.596 11.2737 146.596 10.447C146.596 9.59967 146.886 8.91767 147.464 8.401C148.043 7.86367 148.766 7.595 149.634 7.595C150.523 7.595 151.246 7.86367 151.804 8.401C152.383 8.91767 152.672 9.59967 152.672 10.447C152.672 11.2737 152.383 11.9453 151.804 12.462C151.246 12.958 150.523 13.206 149.634 13.206ZM164.471 31.372C163.438 31.372 162.539 31.1653 161.774 30.752C161.03 30.3387 160.452 29.7807 160.038 29.078C159.625 28.3753 159.418 27.59 159.418 26.722C159.418 25.0067 160.193 23.6943 161.743 22.785C163.314 21.8757 165.918 21.3177 169.555 21.111C169.493 20.6357 169.338 20.2327 169.09 19.902C168.842 19.5713 168.481 19.3233 168.005 19.158C167.551 18.972 166.972 18.879 166.269 18.879C165.773 18.879 165.277 18.941 164.781 19.065C164.285 19.1683 163.769 19.3337 163.231 19.561C162.715 19.7677 162.167 20.0157 161.588 20.305L159.976 17.329C160.679 16.9157 161.413 16.554 162.177 16.244C162.963 15.934 163.769 15.6963 164.595 15.531C165.443 15.345 166.3 15.252 167.168 15.252C168.615 15.252 169.855 15.5103 170.888 16.027C171.922 16.523 172.717 17.2877 173.275 18.321C173.833 19.3337 174.112 20.6253 174.112 22.196V31H170.392L170.051 29.264H169.927C169.163 29.8427 168.315 30.3387 167.385 30.752C166.455 31.1653 165.484 31.372 164.471 31.372ZM165.928 27.838C166.61 27.838 167.251 27.7037 167.85 27.435C168.45 27.1457 169.018 26.7943 169.555 26.381V23.839C168.047 23.9217 166.869 24.0767 166.021 24.304C165.195 24.5313 164.616 24.8207 164.285 25.172C163.955 25.5233 163.789 25.9263 163.789 26.381C163.789 26.691 163.872 26.9597 164.037 27.187C164.223 27.4143 164.471 27.5797 164.781 27.683C165.112 27.7863 165.494 27.838 165.928 27.838ZM188.36 31.372C186.438 31.372 184.981 30.7933 183.989 29.636C182.997 28.4787 182.501 26.9287 182.501 24.986V12.865H177.696V9.3H187.058V25.172C187.058 26.1227 187.317 26.784 187.833 27.156C188.35 27.5073 188.918 27.683 189.538 27.683C189.91 27.683 190.282 27.6417 190.654 27.559C191.047 27.4763 191.481 27.3523 191.956 27.187L192.948 30.535C192.163 30.783 191.44 30.9793 190.778 31.124C190.138 31.2893 189.332 31.372 188.36 31.372Z" fill="#00DA9A"/>
<rect x="1.5" y="43.5" width="238" height="143" rx="15.5" fill="black" fill-opacity="0.4" stroke="#979797" stroke-width="3"/>
<rect x="71.5" y="51.5" width="90" height="29" rx="9.5" fill="#E9E9E9" stroke="#00DA9A"/>
<path d="M117.5 86L120.387 81H114.613L117.5 86Z" fill="#00DA9A"/>
<path d="M87.0379 72V63.552H83.9179V61.568H92.5259V63.552H89.4059V72H87.0379ZM97.8156 72.192C97.1223 72.192 96.4663 72.032 95.8476 71.712C95.229 71.3813 94.7276 70.9067 94.3436 70.288C93.9596 69.6587 93.7676 68.9067 93.7676 68.032C93.7676 67.1573 93.9596 66.4107 94.3436 65.792C94.7276 65.1627 95.229 64.688 95.8476 64.368C96.4663 64.0373 97.1223 63.872 97.8156 63.872C98.509 63.872 99.165 64.0373 99.7836 64.368C100.402 64.688 100.904 65.1627 101.288 65.792C101.672 66.4107 101.864 67.1573 101.864 68.032C101.864 68.9067 101.672 69.6587 101.288 70.288C100.904 70.9067 100.402 71.3813 99.7836 71.712C99.165 72.032 98.509 72.192 97.8156 72.192ZM97.8156 70.288C98.1783 70.288 98.477 70.1973 98.7116 70.016C98.957 69.8347 99.1383 69.5733 99.2556 69.232C99.3836 68.8907 99.4476 68.4907 99.4476 68.032C99.4476 67.5733 99.3836 67.1733 99.2556 66.832C99.1383 66.4907 98.957 66.2293 98.7116 66.048C98.477 65.8667 98.1783 65.776 97.8156 65.776C97.453 65.776 97.149 65.8667 96.9036 66.048C96.669 66.2293 96.4876 66.4907 96.3596 66.832C96.2423 67.1733 96.1836 67.5733 96.1836 68.032C96.1836 68.4907 96.2423 68.8907 96.3596 69.232C96.4876 69.5733 96.669 69.8347 96.9036 70.016C97.149 70.1973 97.453 70.288 97.8156 70.288ZM107.409 72.192C106.716 72.192 106.06 72.032 105.441 71.712C104.823 71.3813 104.321 70.9067 103.937 70.288C103.553 69.6587 103.361 68.9067 103.361 68.032C103.361 67.1573 103.553 66.4107 103.937 65.792C104.321 65.1627 104.823 64.688 105.441 64.368C106.06 64.0373 106.716 63.872 107.409 63.872C108.103 63.872 108.759 64.0373 109.377 64.368C109.996 64.688 110.497 65.1627 110.881 65.792C111.265 66.4107 111.457 67.1573 111.457 68.032C111.457 68.9067 111.265 69.6587 110.881 70.288C110.497 70.9067 109.996 71.3813 109.377 71.712C108.759 72.032 108.103 72.192 107.409 72.192ZM107.409 70.288C107.772 70.288 108.071 70.1973 108.305 70.016C108.551 69.8347 108.732 69.5733 108.849 69.232C108.977 68.8907 109.041 68.4907 109.041 68.032C109.041 67.5733 108.977 67.1733 108.849 66.832C108.732 66.4907 108.551 66.2293 108.305 66.048C108.071 65.8667 107.772 65.776 107.409 65.776C107.047 65.776 106.743 65.8667 106.497 66.048C106.263 66.2293 106.081 66.4907 105.953 66.832C105.836 67.1733 105.777 67.5733 105.777 68.032C105.777 68.4907 105.836 68.8907 105.953 69.232C106.081 69.5733 106.263 69.8347 106.497 70.016C106.743 70.1973 107.047 70.288 107.409 70.288ZM118.523 72.192C117.531 72.192 116.779 71.8933 116.267 71.296C115.755 70.6987 115.499 69.8987 115.499 68.896V62.64H113.019V60.8H117.851V68.992C117.851 69.4827 117.984 69.824 118.251 70.016C118.518 70.1973 118.811 70.288 119.131 70.288C119.323 70.288 119.515 70.2667 119.707 70.224C119.91 70.1813 120.134 70.1173 120.379 70.032L120.891 71.76C120.486 71.888 120.112 71.9893 119.771 72.064C119.44 72.1493 119.024 72.192 118.523 72.192ZM128.005 72.192C127.162 72.192 126.49 72.048 125.989 71.76C125.498 71.4613 125.141 71.0507 124.917 70.528C124.693 70.0053 124.581 69.3973 124.581 68.704V65.904H122.597V64.16L124.693 64.064L124.997 61.632H126.933V64.064H130.293V65.904H126.933V68.688C126.933 69.0827 126.992 69.4027 127.109 69.648C127.226 69.8933 127.408 70.0747 127.653 70.192C127.898 70.2987 128.213 70.352 128.597 70.352C128.906 70.352 129.189 70.3253 129.445 70.272C129.701 70.2187 129.946 70.1493 130.181 70.064L130.597 71.76C130.245 71.8667 129.856 71.9627 129.429 72.048C129.013 72.144 128.538 72.192 128.005 72.192ZM135.839 72V65.904H132.639V64.064H138.191V72H135.839ZM136.911 62.816C136.463 62.816 136.089 62.688 135.791 62.432C135.492 62.1653 135.343 61.8187 135.343 61.392C135.343 60.9547 135.492 60.6027 135.791 60.336C136.089 60.0587 136.463 59.92 136.911 59.92C137.369 59.92 137.743 60.0587 138.031 60.336C138.329 60.6027 138.479 60.9547 138.479 61.392C138.479 61.8187 138.329 62.1653 138.031 62.432C137.743 62.688 137.369 62.816 136.911 62.816ZM142.136 74.944V64.064H144.056L144.232 64.864H144.28C144.611 64.576 144.979 64.3413 145.384 64.16C145.8 63.968 146.222 63.872 146.648 63.872C147.31 63.872 147.875 64.0373 148.344 64.368C148.824 64.6987 149.192 65.168 149.448 65.776C149.704 66.384 149.832 67.0933 149.832 67.904C149.832 68.8107 149.667 69.584 149.336 70.224C149.016 70.864 148.595 71.3547 148.072 71.696C147.55 72.0267 146.99 72.192 146.392 72.192C146.04 72.192 145.694 72.1173 145.352 71.968C145.022 71.8187 144.718 71.6053 144.44 71.328H144.376L144.488 72.624V74.944H142.136ZM145.848 70.272C146.147 70.272 146.414 70.192 146.648 70.032C146.883 69.872 147.07 69.6213 147.208 69.28C147.347 68.928 147.416 68.48 147.416 67.936C147.416 67.456 147.363 67.0613 147.256 66.752C147.15 66.432 146.99 66.192 146.776 66.032C146.574 65.872 146.302 65.792 145.96 65.792C145.704 65.792 145.454 65.8507 145.208 65.968C144.974 66.0747 144.734 66.2613 144.488 66.528V69.744C144.712 69.9253 144.942 70.0587 145.176 70.144C145.422 70.2293 145.646 70.272 145.848 70.272Z" fill="#00DA9A"/>
<rect x="21.5" y="90.5" width="198" height="44" rx="10.5" stroke="#00DA9A" stroke-width="3"/>
<path d="M30.024 118V107.568H32.376V111.6H35.224V107.568H37.576V118H35.224V113.648H32.376V118H30.024ZM43.0418 118V111.904H39.8418V110.064H45.3938V118H43.0418ZM44.1138 108.816C43.6658 108.816 43.2924 108.688 42.9938 108.432C42.6951 108.165 42.5458 107.819 42.5458 107.392C42.5458 106.955 42.6951 106.603 42.9938 106.336C43.2924 106.059 43.6658 105.92 44.1138 105.92C44.5724 105.92 44.9458 106.059 45.2338 106.336C45.5324 106.603 45.6818 106.955 45.6818 107.392C45.6818 107.819 45.5324 108.165 45.2338 108.432C44.9458 108.688 44.5724 108.816 44.1138 108.816ZM52.6195 121.376C51.9262 121.376 51.3075 121.301 50.7635 121.152C50.2302 121.013 49.8035 120.795 49.4835 120.496C49.1742 120.197 49.0195 119.813 49.0195 119.344C49.0195 119.024 49.1208 118.731 49.3235 118.464C49.5368 118.197 49.8462 117.963 50.2515 117.76V117.696C50.0275 117.547 49.8355 117.365 49.6755 117.152C49.5262 116.939 49.4515 116.667 49.4515 116.336C49.4515 116.069 49.5368 115.803 49.7075 115.536C49.8888 115.269 50.1182 115.04 50.3955 114.848V114.784C50.1075 114.592 49.8622 114.32 49.6595 113.968C49.4568 113.616 49.3555 113.211 49.3555 112.752C49.3555 112.112 49.5102 111.579 49.8195 111.152C50.1395 110.725 50.5555 110.405 51.0675 110.192C51.5902 109.979 52.1502 109.872 52.7475 109.872C53.2382 109.872 53.6755 109.936 54.0595 110.064H57.2755V111.792H55.6755C55.7715 111.909 55.8515 112.064 55.9155 112.256C55.9902 112.437 56.0275 112.629 56.0275 112.832C56.0275 113.44 55.8782 113.941 55.5795 114.336C55.2915 114.72 54.9022 115.008 54.4115 115.2C53.9208 115.392 53.3662 115.488 52.7475 115.488C52.5982 115.488 52.4275 115.477 52.2355 115.456C52.0435 115.424 51.8515 115.381 51.6595 115.328C51.5315 115.413 51.4408 115.499 51.3875 115.584C51.3342 115.669 51.3075 115.781 51.3075 115.92C51.3075 116.123 51.4142 116.272 51.6275 116.368C51.8515 116.464 52.1928 116.512 52.6515 116.512H54.1235C55.1688 116.512 55.9635 116.667 56.5075 116.976C57.0622 117.285 57.3395 117.797 57.3395 118.512C57.3395 119.067 57.1475 119.557 56.7635 119.984C56.3795 120.421 55.8302 120.763 55.1155 121.008C54.4115 121.253 53.5795 121.376 52.6195 121.376ZM52.7475 114.064C52.9715 114.064 53.1742 114.016 53.3555 113.92C53.5368 113.824 53.6808 113.68 53.7875 113.488C53.8942 113.285 53.9475 113.04 53.9475 112.752C53.9475 112.475 53.8942 112.24 53.7875 112.048C53.6808 111.856 53.5368 111.712 53.3555 111.616C53.1742 111.509 52.9715 111.456 52.7475 111.456C52.5342 111.456 52.3368 111.509 52.1555 111.616C51.9742 111.712 51.8302 111.856 51.7235 112.048C51.6168 112.24 51.5635 112.475 51.5635 112.752C51.5635 113.04 51.6168 113.285 51.7235 113.488C51.8302 113.68 51.9742 113.824 52.1555 113.92C52.3368 114.016 52.5342 114.064 52.7475 114.064ZM52.9555 119.888C53.3822 119.888 53.7555 119.845 54.0755 119.76C54.3955 119.675 54.6462 119.557 54.8275 119.408C55.0088 119.269 55.0995 119.109 55.0995 118.928C55.0995 118.661 54.9822 118.491 54.7475 118.416C54.5128 118.352 54.1662 118.32 53.7075 118.32H52.7155C52.4275 118.32 52.1875 118.309 51.9955 118.288C51.8142 118.267 51.6488 118.24 51.4995 118.208C51.2968 118.336 51.1528 118.459 51.0675 118.576C50.9822 118.704 50.9395 118.843 50.9395 118.992C50.9395 119.28 51.1208 119.499 51.4835 119.648C51.8462 119.808 52.3368 119.888 52.9555 119.888ZM58.9333 118V106.784H61.2853V109.536L61.1573 111.056H61.2053C61.5039 110.747 61.8666 110.475 62.2933 110.24C62.7306 109.995 63.2479 109.872 63.8453 109.872C64.7413 109.872 65.3919 110.16 65.7973 110.736C66.2133 111.312 66.4213 112.101 66.4213 113.104V118H64.0693V113.408C64.0693 112.875 63.9786 112.485 63.7973 112.24C63.6266 111.995 63.3279 111.872 62.9013 111.872C62.5813 111.872 62.2986 111.947 62.0533 112.096C61.8186 112.235 61.5626 112.437 61.2853 112.704V118H58.9333ZM73.695 118.192C72.703 118.192 71.951 117.893 71.439 117.296C70.927 116.699 70.671 115.899 70.671 114.896V108.64H68.191V106.8H73.023V114.992C73.023 115.483 73.1563 115.824 73.423 116.016C73.6897 116.197 73.983 116.288 74.303 116.288C74.495 116.288 74.687 116.267 74.879 116.224C75.0817 116.181 75.3057 116.117 75.551 116.032L76.063 117.76C75.6577 117.888 75.2843 117.989 74.943 118.064C74.6123 118.149 74.1963 118.192 73.695 118.192ZM81.4168 118V111.904H78.2168V110.064H83.7688V118H81.4168ZM82.4888 108.816C82.0408 108.816 81.6674 108.688 81.3688 108.432C81.0701 108.165 80.9208 107.819 80.9208 107.392C80.9208 106.955 81.0701 106.603 81.3688 106.336C81.6674 106.059 82.0408 105.92 82.4888 105.92C82.9474 105.92 83.3208 106.059 83.6088 106.336C83.9074 106.603 84.0568 106.955 84.0568 107.392C84.0568 107.819 83.9074 108.165 83.6088 108.432C83.3208 108.688 82.9474 108.816 82.4888 108.816ZM90.9945 121.376C90.3012 121.376 89.6825 121.301 89.1385 121.152C88.6052 121.013 88.1785 120.795 87.8585 120.496C87.5492 120.197 87.3945 119.813 87.3945 119.344C87.3945 119.024 87.4958 118.731 87.6985 118.464C87.9118 118.197 88.2212 117.963 88.6265 117.76V117.696C88.4025 117.547 88.2105 117.365 88.0505 117.152C87.9012 116.939 87.8265 116.667 87.8265 116.336C87.8265 116.069 87.9118 115.803 88.0825 115.536C88.2638 115.269 88.4932 115.04 88.7705 114.848V114.784C88.4825 114.592 88.2372 114.32 88.0345 113.968C87.8318 113.616 87.7305 113.211 87.7305 112.752C87.7305 112.112 87.8852 111.579 88.1945 111.152C88.5145 110.725 88.9305 110.405 89.4425 110.192C89.9652 109.979 90.5252 109.872 91.1225 109.872C91.6132 109.872 92.0505 109.936 92.4345 110.064H95.6505V111.792H94.0505C94.1465 111.909 94.2265 112.064 94.2905 112.256C94.3652 112.437 94.4025 112.629 94.4025 112.832C94.4025 113.44 94.2532 113.941 93.9545 114.336C93.6665 114.72 93.2772 115.008 92.7865 115.2C92.2958 115.392 91.7412 115.488 91.1225 115.488C90.9732 115.488 90.8025 115.477 90.6105 115.456C90.4185 115.424 90.2265 115.381 90.0345 115.328C89.9065 115.413 89.8158 115.499 89.7625 115.584C89.7092 115.669 89.6825 115.781 89.6825 115.92C89.6825 116.123 89.7892 116.272 90.0025 116.368C90.2265 116.464 90.5678 116.512 91.0265 116.512H92.4985C93.5438 116.512 94.3385 116.667 94.8825 116.976C95.4372 117.285 95.7145 117.797 95.7145 118.512C95.7145 119.067 95.5225 119.557 95.1385 119.984C94.7545 120.421 94.2052 120.763 93.4905 121.008C92.7865 121.253 91.9545 121.376 90.9945 121.376ZM91.1225 114.064C91.3465 114.064 91.5492 114.016 91.7305 113.92C91.9118 113.824 92.0558 113.68 92.1625 113.488C92.2692 113.285 92.3225 113.04 92.3225 112.752C92.3225 112.475 92.2692 112.24 92.1625 112.048C92.0558 111.856 91.9118 111.712 91.7305 111.616C91.5492 111.509 91.3465 111.456 91.1225 111.456C90.9092 111.456 90.7118 111.509 90.5305 111.616C90.3492 111.712 90.2052 111.856 90.0985 112.048C89.9918 112.24 89.9385 112.475 89.9385 112.752C89.9385 113.04 89.9918 113.285 90.0985 113.488C90.2052 113.68 90.3492 113.824 90.5305 113.92C90.7118 114.016 90.9092 114.064 91.1225 114.064ZM91.3305 119.888C91.7572 119.888 92.1305 119.845 92.4505 119.76C92.7705 119.675 93.0212 119.557 93.2025 119.408C93.3838 119.269 93.4745 119.109 93.4745 118.928C93.4745 118.661 93.3572 118.491 93.1225 118.416C92.8878 118.352 92.5412 118.32 92.0825 118.32H91.0905C90.8025 118.32 90.5625 118.309 90.3705 118.288C90.1892 118.267 90.0238 118.24 89.8745 118.208C89.6718 118.336 89.5278 118.459 89.4425 118.576C89.3572 118.704 89.3145 118.843 89.3145 118.992C89.3145 119.28 89.4958 119.499 89.8585 119.648C90.2212 119.808 90.7118 119.888 91.3305 119.888ZM97.3083 118V106.784H99.6603V109.536L99.5323 111.056H99.5803C99.8789 110.747 100.242 110.475 100.668 110.24C101.106 109.995 101.623 109.872 102.22 109.872C103.116 109.872 103.767 110.16 104.172 110.736C104.588 111.312 104.796 112.101 104.796 113.104V118H102.444V113.408C102.444 112.875 102.354 112.485 102.172 112.24C102.002 111.995 101.703 111.872 101.276 111.872C100.956 111.872 100.674 111.947 100.428 112.096C100.194 112.235 99.9376 112.437 99.6603 112.704V118H97.3083ZM111.958 118.192C111.115 118.192 110.443 118.048 109.942 117.76C109.451 117.461 109.094 117.051 108.87 116.528C108.646 116.005 108.534 115.397 108.534 114.704V111.904H106.55V110.16L108.646 110.064L108.95 107.632H110.886V110.064H114.246V111.904H110.886V114.688C110.886 115.083 110.945 115.403 111.062 115.648C111.179 115.893 111.361 116.075 111.606 116.192C111.851 116.299 112.166 116.352 112.55 116.352C112.859 116.352 113.142 116.325 113.398 116.272C113.654 116.219 113.899 116.149 114.134 116.064L114.55 117.76C114.198 117.867 113.809 117.963 113.382 118.048C112.966 118.144 112.491 118.192 111.958 118.192ZM120.624 118.192C119.802 118.192 119.056 118.032 118.384 117.712C117.722 117.381 117.194 116.907 116.8 116.288C116.416 115.659 116.224 114.907 116.224 114.032C116.224 113.168 116.421 112.427 116.816 111.808C117.21 111.179 117.722 110.699 118.352 110.368C118.981 110.037 119.648 109.872 120.352 109.872C121.173 109.872 121.861 110.043 122.416 110.384C122.97 110.715 123.386 111.168 123.664 111.744C123.952 112.309 124.096 112.955 124.096 113.68C124.096 113.893 124.08 114.101 124.048 114.304C124.026 114.496 124.005 114.64 123.984 114.736H117.968V113.152H122.4L122.032 113.6C122.032 112.96 121.893 112.48 121.616 112.16C121.349 111.829 120.954 111.664 120.432 111.664C120.048 111.664 119.712 111.749 119.424 111.92C119.136 112.091 118.912 112.352 118.752 112.704C118.592 113.056 118.512 113.499 118.512 114.032C118.512 114.576 118.608 115.024 118.8 115.376C118.992 115.717 119.269 115.973 119.632 116.144C119.994 116.315 120.432 116.4 120.944 116.4C121.306 116.4 121.648 116.352 121.968 116.256C122.298 116.16 122.64 116.021 122.992 115.84L123.776 117.264C123.317 117.552 122.81 117.781 122.256 117.952C121.701 118.112 121.157 118.192 120.624 118.192ZM129.034 118.192C128.031 118.192 127.22 117.824 126.602 117.088C125.994 116.341 125.69 115.323 125.69 114.032C125.69 113.168 125.85 112.427 126.17 111.808C126.5 111.189 126.927 110.715 127.45 110.384C127.972 110.043 128.516 109.872 129.082 109.872C129.519 109.872 129.898 109.947 130.218 110.096C130.538 110.245 130.826 110.453 131.082 110.72H131.146L131.034 109.488V106.784H133.385V118H131.466L131.29 117.184H131.242C130.954 117.472 130.612 117.712 130.218 117.904C129.834 118.096 129.439 118.192 129.034 118.192ZM129.641 116.272C129.908 116.272 130.154 116.219 130.378 116.112C130.612 115.995 130.831 115.803 131.034 115.536V112.32C130.82 112.128 130.602 111.995 130.378 111.92C130.164 111.835 129.94 111.792 129.706 111.792C129.418 111.792 129.151 111.872 128.906 112.032C128.66 112.192 128.463 112.437 128.314 112.768C128.175 113.088 128.106 113.499 128.106 114C128.106 114.779 128.239 115.355 128.506 115.728C128.772 116.091 129.151 116.272 129.641 116.272ZM149.821 118.192C149.17 118.192 148.552 118.08 147.965 117.856C147.389 117.632 146.877 117.296 146.429 116.848C145.981 116.389 145.629 115.829 145.373 115.168C145.117 114.496 144.989 113.723 144.989 112.848C144.989 111.696 145.208 110.715 145.645 109.904C146.093 109.083 146.69 108.459 147.437 108.032C148.194 107.595 149.037 107.376 149.965 107.376C150.626 107.376 151.224 107.515 151.757 107.792C152.29 108.059 152.733 108.363 153.085 108.704L151.789 110.16C151.544 109.925 151.272 109.744 150.973 109.616C150.685 109.477 150.349 109.408 149.965 109.408C149.474 109.408 149.037 109.547 148.653 109.824C148.269 110.091 147.965 110.475 147.741 110.976C147.517 111.477 147.405 112.075 147.405 112.768C147.405 113.483 147.517 114.096 147.741 114.608C147.965 115.109 148.274 115.493 148.669 115.76C149.074 116.027 149.538 116.16 150.061 116.16C150.445 116.16 150.792 116.075 151.101 115.904C151.41 115.733 151.693 115.509 151.949 115.232L153.245 116.656C152.818 117.157 152.317 117.541 151.741 117.808C151.165 118.064 150.525 118.192 149.821 118.192ZM158.519 118.192C157.825 118.192 157.169 118.032 156.551 117.712C155.932 117.381 155.431 116.907 155.047 116.288C154.663 115.659 154.471 114.907 154.471 114.032C154.471 113.157 154.663 112.411 155.047 111.792C155.431 111.163 155.932 110.688 156.551 110.368C157.169 110.037 157.825 109.872 158.519 109.872C159.212 109.872 159.868 110.037 160.487 110.368C161.105 110.688 161.607 111.163 161.991 111.792C162.375 112.411 162.567 113.157 162.567 114.032C162.567 114.907 162.375 115.659 161.991 116.288C161.607 116.907 161.105 117.381 160.487 117.712C159.868 118.032 159.212 118.192 158.519 118.192ZM158.519 116.288C158.881 116.288 159.18 116.197 159.415 116.016C159.66 115.835 159.841 115.573 159.959 115.232C160.087 114.891 160.151 114.491 160.151 114.032C160.151 113.573 160.087 113.173 159.959 112.832C159.841 112.491 159.66 112.229 159.415 112.048C159.18 111.867 158.881 111.776 158.519 111.776C158.156 111.776 157.852 111.867 157.607 112.048C157.372 112.229 157.191 112.491 157.063 112.832C156.945 113.173 156.887 113.573 156.887 114.032C156.887 114.491 156.945 114.891 157.063 115.232C157.191 115.573 157.372 115.835 157.607 116.016C157.852 116.197 158.156 116.288 158.519 116.288ZM164.465 118V110.064H166.385L166.561 111.12H166.625C166.966 110.779 167.355 110.485 167.793 110.24C168.241 109.995 168.763 109.872 169.361 109.872C170.257 109.872 170.913 110.16 171.329 110.736C171.745 111.312 171.953 112.101 171.953 113.104V118H169.601V113.408C169.601 112.875 169.51 112.485 169.329 112.24C169.158 111.995 168.859 111.872 168.433 111.872C168.113 111.872 167.83 111.947 167.585 112.096C167.35 112.235 167.094 112.437 166.817 112.704V118H164.465ZM179.114 118.192C178.272 118.192 177.6 118.048 177.098 117.76C176.608 117.461 176.25 117.051 176.026 116.528C175.802 116.005 175.69 115.397 175.69 114.704V111.904H173.706V110.16L175.802 110.064L176.106 107.632H178.042V110.064H181.402V111.904H178.042V114.688C178.042 115.083 178.101 115.403 178.218 115.648C178.336 115.893 178.517 116.075 178.762 116.192C179.008 116.299 179.322 116.352 179.706 116.352C180.016 116.352 180.298 116.325 180.554 116.272C180.81 116.219 181.056 116.149 181.29 116.064L181.706 117.76C181.354 117.867 180.965 117.963 180.538 118.048C180.122 118.144 179.648 118.192 179.114 118.192ZM187.78 118.192C186.959 118.192 186.212 118.032 185.54 117.712C184.879 117.381 184.351 116.907 183.956 116.288C183.572 115.659 183.38 114.907 183.38 114.032C183.38 113.168 183.577 112.427 183.972 111.808C184.367 111.179 184.879 110.699 185.508 110.368C186.137 110.037 186.804 109.872 187.508 109.872C188.329 109.872 189.017 110.043 189.572 110.384C190.127 110.715 190.543 111.168 190.82 111.744C191.108 112.309 191.252 112.955 191.252 113.68C191.252 113.893 191.236 114.101 191.204 114.304C191.183 114.496 191.161 114.64 191.14 114.736H185.124V113.152H189.556L189.188 113.6C189.188 112.96 189.049 112.48 188.772 112.16C188.505 111.829 188.111 111.664 187.588 111.664C187.204 111.664 186.868 111.749 186.58 111.92C186.292 112.091 186.068 112.352 185.908 112.704C185.748 113.056 185.668 113.499 185.668 114.032C185.668 114.576 185.764 115.024 185.956 115.376C186.148 115.717 186.425 115.973 186.788 116.144C187.151 116.315 187.588 116.4 188.1 116.4C188.463 116.4 188.804 116.352 189.124 116.256C189.455 116.16 189.796 116.021 190.148 115.84L190.932 117.264C190.473 117.552 189.967 117.781 189.412 117.952C188.857 118.112 188.313 118.192 187.78 118.192ZM193.246 118V110.064H195.166L195.342 111.12H195.406C195.747 110.779 196.136 110.485 196.574 110.24C197.022 109.995 197.544 109.872 198.142 109.872C199.038 109.872 199.694 110.16 200.11 110.736C200.526 111.312 200.734 112.101 200.734 113.104V118H198.382V113.408C198.382 112.875 198.291 112.485 198.11 112.24C197.939 111.995 197.64 111.872 197.214 111.872C196.894 111.872 196.611 111.947 196.366 112.096C196.131 112.235 195.875 112.437 195.598 112.704V118H193.246ZM207.896 118.192C207.053 118.192 206.381 118.048 205.88 117.76C205.389 117.461 205.032 117.051 204.808 116.528C204.584 116.005 204.472 115.397 204.472 114.704V111.904H202.488V110.16L204.584 110.064L204.888 107.632H206.824V110.064H210.184V111.904H206.824V114.688C206.824 115.083 206.882 115.403 207 115.648C207.117 115.893 207.298 116.075 207.544 116.192C207.789 116.299 208.104 116.352 208.488 116.352C208.797 116.352 209.08 116.325 209.336 116.272C209.592 116.219 209.837 116.149 210.072 116.064L210.488 117.76C210.136 117.867 209.746 117.963 209.32 118.048C208.904 118.144 208.429 118.192 207.896 118.192Z" fill="#00DA9A"/>
<line x1="29" y1="153.5" x2="203" y2="153.5" stroke="#EBEBEB"/>
<line x1="29" y1="145.5" x2="203" y2="145.5" stroke="#EBEBEB"/>
<line x1="29" y1="161.5" x2="203" y2="161.5" stroke="#EBEBEB"/>
<line x1="29" y1="169.5" x2="203" y2="169.5" stroke="#EBEBEB"/>
</svg>
