<svg width="100%" height="100%" viewBox="0 0 213 58" fill="none"
    xmlns="http://www.w3.org/2000/svg">
    <rect x="1" y="1" width="48" height="48" rx="16" stroke="#00DA9A" stroke-width="2"/>
    <rect x="8" y="8" width="34" height="34" rx="8" fill="#00DA9A" stroke="#00DA9A" stroke-width="2"/>
    <path d="M75.036 37.372C73.7753 37.372 72.5767 37.155 71.44 36.721C70.324 36.287 69.332 35.636 68.464 34.768C67.596 33.8793 66.914 32.7943 66.418 31.513C65.922 30.211 65.674 28.7127 65.674 27.018C65.674 24.786 66.0977 22.8847 66.945 21.314C67.813 19.7227 68.9703 18.5137 70.417 17.687C71.8843 16.8397 73.517 16.416 75.315 16.416C76.5963 16.416 77.7537 16.6847 78.787 17.222C79.8203 17.7387 80.678 18.3277 81.36 18.989L78.849 21.81C78.3737 21.3553 77.8467 21.004 77.268 20.756C76.71 20.4873 76.059 20.353 75.315 20.353C74.3643 20.353 73.517 20.6217 72.773 21.159C72.029 21.6757 71.44 22.4197 71.006 23.391C70.572 24.3623 70.355 25.5197 70.355 26.863C70.355 28.2477 70.572 29.436 71.006 30.428C71.44 31.3993 72.0393 32.1433 72.804 32.66C73.5893 33.1767 74.4883 33.435 75.501 33.435C76.245 33.435 76.9167 33.2697 77.516 32.939C78.1153 32.6083 78.663 32.1743 79.159 31.637L81.67 34.396C80.8433 35.3673 79.872 36.1113 78.756 36.628C77.64 37.124 76.4 37.372 75.036 37.372ZM84.8199 37V15.269H89.3769V20.601L89.1289 23.546H89.2219C89.8006 22.9467 90.5032 22.4197 91.3299 21.965C92.1772 21.4897 93.1796 21.252 94.3369 21.252C96.0729 21.252 97.3336 21.81 98.1189 22.926C98.9249 24.042 99.3279 25.5713 99.3279 27.514V37H94.7709V28.103C94.7709 27.0697 94.5952 26.3153 94.2439 25.84C93.9132 25.3647 93.3346 25.127 92.5079 25.127C91.8879 25.127 91.3402 25.2717 90.8649 25.561C90.4102 25.8297 89.9142 26.2223 89.3769 26.739V37H84.8199ZM111.406 37.372C109.814 37.372 108.368 37.062 107.066 36.442C105.784 35.8013 104.761 34.8817 103.997 33.683C103.253 32.4637 102.881 31.0067 102.881 29.312C102.881 27.638 103.263 26.2017 104.028 25.003C104.792 23.7837 105.784 22.8537 107.004 22.213C108.223 21.5723 109.515 21.252 110.879 21.252C112.47 21.252 113.803 21.5827 114.878 22.244C115.952 22.8847 116.758 23.763 117.296 24.879C117.854 25.9743 118.133 27.2247 118.133 28.63C118.133 29.0433 118.102 29.4463 118.04 29.839C117.998 30.211 117.957 30.49 117.916 30.676H106.26V27.607H114.847L114.134 28.475C114.134 27.235 113.865 26.305 113.328 25.685C112.811 25.0443 112.046 24.724 111.034 24.724C110.29 24.724 109.639 24.8893 109.081 25.22C108.523 25.5507 108.089 26.057 107.779 26.739C107.469 27.421 107.314 28.2787 107.314 29.312C107.314 30.366 107.5 31.234 107.872 31.916C108.244 32.5773 108.781 33.0733 109.484 33.404C110.186 33.7347 111.034 33.9 112.026 33.9C112.728 33.9 113.39 33.807 114.01 33.621C114.65 33.435 115.312 33.1663 115.994 32.815L117.513 35.574C116.624 36.132 115.642 36.5763 114.568 36.907C113.493 37.217 112.439 37.372 111.406 37.372ZM130.397 37.372C128.785 37.372 127.328 37.062 126.026 36.442C124.744 35.8013 123.721 34.8817 122.957 33.683C122.213 32.4637 121.841 31.0067 121.841 29.312C121.841 27.6173 122.254 26.1707 123.081 24.972C123.907 23.7527 124.992 22.833 126.336 22.213C127.7 21.5723 129.167 21.252 130.738 21.252C131.957 21.252 133.063 21.4483 134.055 21.841C135.047 22.213 135.863 22.709 136.504 23.329L134.396 26.15C133.796 25.7367 133.218 25.437 132.66 25.251C132.122 25.0443 131.564 24.941 130.986 24.941C130.118 24.941 129.343 25.1167 128.661 25.468C127.979 25.8193 127.452 26.3257 127.08 26.987C126.708 27.6483 126.522 28.4233 126.522 29.312C126.522 30.2007 126.697 30.9757 127.049 31.637C127.421 32.2983 127.927 32.8047 128.568 33.156C129.229 33.5073 129.983 33.683 130.831 33.683C131.637 33.683 132.37 33.5383 133.032 33.249C133.714 32.9597 134.334 32.6187 134.892 32.226L136.721 35.109C135.811 35.8737 134.788 36.442 133.652 36.814C132.536 37.186 131.451 37.372 130.397 37.372ZM140.708 37V15.269H145.265V27.824H145.389L151.031 21.624H156.022L145.265 33.125V37H140.708ZM151.558 37L147.094 30.025L149.698 27.204L156.487 37H151.558ZM167.417 37.372C166.715 37.372 165.991 37.1963 165.247 36.845C164.524 36.4937 163.852 35.9873 163.232 35.326H163.108L162.736 37H159.171V15.269H163.728V20.601L163.573 23.019H163.666C164.266 22.461 164.927 22.027 165.65 21.717C166.394 21.407 167.138 21.252 167.882 21.252C169.184 21.252 170.29 21.5723 171.199 22.213C172.129 22.8537 172.842 23.763 173.338 24.941C173.834 26.0983 174.082 27.4623 174.082 29.033C174.082 30.7897 173.762 32.2983 173.121 33.559C172.501 34.799 171.685 35.7497 170.672 36.411C169.66 37.0517 168.575 37.372 167.417 37.372ZM166.394 33.652C166.952 33.652 167.459 33.497 167.913 33.187C168.368 32.877 168.73 32.3913 168.998 31.73C169.267 31.048 169.401 30.18 169.401 29.126C169.401 28.196 169.298 27.4313 169.091 26.832C168.885 26.212 168.575 25.747 168.161 25.437C167.769 25.127 167.242 24.972 166.58 24.972C166.084 24.972 165.599 25.0857 165.123 25.313C164.669 25.5197 164.204 25.8813 163.728 26.398V32.629C164.162 32.9803 164.607 33.2387 165.061 33.404C165.537 33.5693 165.981 33.652 166.394 33.652ZM184.827 37.372C183.484 37.372 182.213 37.062 181.014 36.442C179.816 35.8013 178.844 34.8817 178.1 33.683C177.356 32.4637 176.984 31.0067 176.984 29.312C176.984 27.6173 177.356 26.1707 178.1 24.972C178.844 23.7527 179.816 22.833 181.014 22.213C182.213 21.5723 183.484 21.252 184.827 21.252C186.171 21.252 187.442 21.5723 188.64 22.213C189.839 22.833 190.81 23.7527 191.554 24.972C192.298 26.1707 192.67 27.6173 192.67 29.312C192.67 31.0067 192.298 32.4637 191.554 33.683C190.81 34.8817 189.839 35.8013 188.64 36.442C187.442 37.062 186.171 37.372 184.827 37.372ZM184.827 33.683C185.53 33.683 186.109 33.5073 186.563 33.156C187.039 32.8047 187.39 32.2983 187.617 31.637C187.865 30.9757 187.989 30.2007 187.989 29.312C187.989 28.4233 187.865 27.6483 187.617 26.987C187.39 26.3257 187.039 25.8193 186.563 25.468C186.109 25.1167 185.53 24.941 184.827 24.941C184.125 24.941 183.536 25.1167 183.06 25.468C182.606 25.8193 182.254 26.3257 182.006 26.987C181.779 27.6483 181.665 28.4233 181.665 29.312C181.665 30.2007 181.779 30.9757 182.006 31.637C182.254 32.2983 182.606 32.8047 183.06 33.156C183.536 33.5073 184.125 33.683 184.827 33.683ZM195.262 37L200.594 29.002L195.603 21.624H200.501L202.082 24.104C202.33 24.538 202.599 24.9823 202.888 25.437C203.178 25.871 203.446 26.305 203.694 26.739H203.818C204.004 26.305 204.211 25.8607 204.438 25.406C204.686 24.9513 204.903 24.5173 205.089 24.104L206.453 21.624H211.227L206.205 29.529L211.537 37H206.639L204.872 34.458C204.583 34.024 204.283 33.5797 203.973 33.125C203.684 32.6703 203.395 32.226 203.105 31.792H202.981C202.754 32.226 202.516 32.6703 202.268 33.125C202.02 33.559 201.783 34.0033 201.555 34.458L200.036 37H195.262Z" fill="#00CF92"/>
    <path d="M54.8682 40.8057L49.2246 46.4502L48.6729 47.002L49.2461 47.5312L55.917 53.6885L52.667 56.9395L46.167 50.4395L43.4697 53.1367L39.9941 56.6113L32.1875 33.1895L54.8682 40.8057Z" fill="#71FFAC" stroke="#00CF92" stroke-width="1.5"/>
</svg>