<svg width="100%" height="100%" viewBox="0 0 313 247" fill="none"
    xmlns="http://www.w3.org/2000/svg">
    <rect x="1" y="41" width="310.13" height="48" rx="16" stroke="#00DA9A" stroke-width="2"/>
    <rect x="0.867065" y="136" width="309.529" height="32" fill="#CCCCCC" fill-opacity="0.5"/>
    <rect x="1" y="93" width="310.13" height="153" rx="16" stroke="#00DA9A" stroke-width="2"/>
    <rect x="298.258" y="102" width="6.93623" height="136" fill="#BCBCBC"/>
    <rect x="298.258" y="102" width="6.93623" height="44" fill="#7E7E7E"/>
    <path d="M24.9 125.276C23.704 125.276 22.6537 124.977 21.749 124.379C20.8443 123.781 20.139 122.907 19.633 121.757C19.127 120.592 18.874 119.15 18.874 117.433C18.874 115.762 19.127 114.359 19.633 113.224C20.139 112.074 20.8443 111.208 21.749 110.625C22.6537 110.027 23.704 109.728 24.9 109.728C26.096 109.728 27.1463 110.027 28.051 110.625C28.9557 111.208 29.661 112.074 30.167 113.224C30.673 114.359 30.926 115.762 30.926 117.433C30.926 119.15 30.673 120.592 30.167 121.757C29.661 122.907 28.9557 123.781 28.051 124.379C27.1463 124.977 26.096 125.276 24.9 125.276ZM24.9 122.355C25.4213 122.355 25.8737 122.171 26.257 121.803C26.6403 121.42 26.9317 120.868 27.131 120.147C27.3457 119.411 27.453 118.506 27.453 117.433C27.453 116.39 27.3457 115.516 27.131 114.811C26.9317 114.106 26.6403 113.569 26.257 113.201C25.8737 112.833 25.4213 112.649 24.9 112.649C24.3787 112.649 23.9263 112.833 23.543 113.201C23.1597 113.569 22.8607 114.106 22.646 114.811C22.4467 115.516 22.347 116.39 22.347 117.433C22.347 118.506 22.4467 119.411 22.646 120.147C22.8607 120.868 23.1597 121.42 23.543 121.803C23.9263 122.171 24.3787 122.355 24.9 122.355ZM33.447 129.232V113.592H36.207L36.46 114.742H36.529C37.0043 114.328 37.5333 113.991 38.116 113.73C38.714 113.454 39.3197 113.316 39.933 113.316C40.8837 113.316 41.6963 113.554 42.371 114.029C43.061 114.504 43.59 115.179 43.958 116.053C44.326 116.927 44.51 117.947 44.51 119.112C44.51 120.415 44.2723 121.527 43.797 122.447C43.337 123.367 42.7313 124.072 41.98 124.563C41.2287 125.038 40.4237 125.276 39.565 125.276C39.059 125.276 38.5607 125.169 38.07 124.954C37.5947 124.739 37.1577 124.433 36.759 124.034H36.667L36.828 125.897V129.232H33.447ZM38.783 122.516C39.2123 122.516 39.5957 122.401 39.933 122.171C40.2703 121.941 40.5387 121.581 40.738 121.09C40.9373 120.584 41.037 119.94 41.037 119.158C41.037 118.468 40.9603 117.901 40.807 117.456C40.6537 116.996 40.4237 116.651 40.117 116.421C39.8257 116.191 39.4347 116.076 38.944 116.076C38.576 116.076 38.2157 116.16 37.863 116.329C37.5257 116.482 37.1807 116.751 36.828 117.134V121.757C37.15 122.018 37.4797 122.209 37.817 122.332C38.1697 122.455 38.4917 122.516 38.783 122.516ZM54.506 125.276C53.2947 125.276 52.3287 125.069 51.608 124.655C50.9027 124.226 50.389 123.635 50.067 122.884C49.745 122.133 49.584 121.259 49.584 120.262V116.237H46.732V113.73L49.745 113.592L50.182 110.096H52.965V113.592H57.795V116.237H52.965V120.239C52.965 120.806 53.0494 121.266 53.218 121.619C53.3867 121.972 53.6474 122.232 54 122.401C54.3527 122.554 54.805 122.631 55.357 122.631C55.8017 122.631 56.208 122.593 56.576 122.516C56.944 122.439 57.2967 122.34 57.634 122.217L58.232 124.655C57.726 124.808 57.1664 124.946 56.553 125.069C55.955 125.207 55.2727 125.276 54.506 125.276ZM65.767 125V116.237H61.167V113.592H69.148V125H65.767ZM67.308 111.798C66.664 111.798 66.1274 111.614 65.698 111.246C65.2687 110.863 65.054 110.364 65.054 109.751C65.054 109.122 65.2687 108.616 65.698 108.233C66.1274 107.834 66.664 107.635 67.308 107.635C67.9674 107.635 68.504 107.834 68.918 108.233C69.3474 108.616 69.562 109.122 69.562 109.751C69.562 110.364 69.3474 110.863 68.918 111.246C68.504 111.614 67.9674 111.798 67.308 111.798ZM80.0641 125.276C79.0674 125.276 78.1244 125.046 77.2351 124.586C76.3457 124.111 75.6251 123.428 75.0731 122.539C74.5211 121.634 74.2451 120.553 74.2451 119.296C74.2451 118.039 74.5211 116.965 75.0731 116.076C75.6251 115.171 76.3457 114.489 77.2351 114.029C78.1244 113.554 79.0674 113.316 80.0641 113.316C81.0607 113.316 82.0037 113.554 82.8931 114.029C83.7824 114.489 84.5031 115.171 85.0551 116.076C85.6071 116.965 85.8831 118.039 85.8831 119.296C85.8831 120.553 85.6071 121.634 85.0551 122.539C84.5031 123.428 83.7824 124.111 82.8931 124.586C82.0037 125.046 81.0607 125.276 80.0641 125.276ZM80.0641 122.539C80.5854 122.539 81.0147 122.409 81.3521 122.148C81.7047 121.887 81.9654 121.512 82.1341 121.021C82.3181 120.53 82.4101 119.955 82.4101 119.296C82.4101 118.637 82.3181 118.062 82.1341 117.571C81.9654 117.08 81.7047 116.705 81.3521 116.444C81.0147 116.183 80.5854 116.053 80.0641 116.053C79.5427 116.053 79.1057 116.183 78.7531 116.444C78.4157 116.705 78.1551 117.08 77.9711 117.571C77.8024 118.062 77.7181 118.637 77.7181 119.296C77.7181 119.955 77.8024 120.53 77.9711 121.021C78.1551 121.512 78.4157 121.887 78.7531 122.148C79.1057 122.409 79.5427 122.539 80.0641 122.539ZM88.6111 125V113.592H91.3711L91.6241 115.11H91.7161C92.2067 114.619 92.7664 114.198 93.3951 113.845C94.0391 113.492 94.7904 113.316 95.6491 113.316C96.9371 113.316 97.8801 113.73 98.4781 114.558C99.0761 115.386 99.3751 116.521 99.3751 117.962V125H95.9941V118.399C95.9941 117.632 95.8637 117.073 95.6031 116.72C95.3577 116.367 94.9284 116.191 94.3151 116.191C93.8551 116.191 93.4487 116.298 93.0961 116.513C92.7587 116.712 92.3907 117.004 91.9921 117.387V125H88.6111ZM116.354 125V122.263H120.287V113.822H117.044V111.729C117.703 111.622 118.271 111.514 118.746 111.407C119.237 111.284 119.674 111.146 120.057 110.993C120.44 110.824 120.816 110.625 121.184 110.395H123.668V122.263H126.98V125H116.354Z" fill="#00CF92"/>
    <path d="M24.9 159.276C23.704 159.276 22.6537 158.977 21.749 158.379C20.8443 157.781 20.139 156.907 19.633 155.757C19.127 154.592 18.874 153.15 18.874 151.433C18.874 149.762 19.127 148.359 19.633 147.224C20.139 146.074 20.8443 145.208 21.749 144.625C22.6537 144.027 23.704 143.728 24.9 143.728C26.096 143.728 27.1463 144.027 28.051 144.625C28.9557 145.208 29.661 146.074 30.167 147.224C30.673 148.359 30.926 149.762 30.926 151.433C30.926 153.15 30.673 154.592 30.167 155.757C29.661 156.907 28.9557 157.781 28.051 158.379C27.1463 158.977 26.096 159.276 24.9 159.276ZM24.9 156.355C25.4213 156.355 25.8737 156.171 26.257 155.803C26.6403 155.42 26.9317 154.868 27.131 154.147C27.3457 153.411 27.453 152.506 27.453 151.433C27.453 150.39 27.3457 149.516 27.131 148.811C26.9317 148.106 26.6403 147.569 26.257 147.201C25.8737 146.833 25.4213 146.649 24.9 146.649C24.3787 146.649 23.9263 146.833 23.543 147.201C23.1597 147.569 22.8607 148.106 22.646 148.811C22.4467 149.516 22.347 150.39 22.347 151.433C22.347 152.506 22.4467 153.411 22.646 154.147C22.8607 154.868 23.1597 155.42 23.543 155.803C23.9263 156.171 24.3787 156.355 24.9 156.355ZM33.447 163.232V147.592H36.207L36.46 148.742H36.529C37.0043 148.328 37.5333 147.991 38.116 147.73C38.714 147.454 39.3197 147.316 39.933 147.316C40.8837 147.316 41.6963 147.554 42.371 148.029C43.061 148.504 43.59 149.179 43.958 150.053C44.326 150.927 44.51 151.947 44.51 153.112C44.51 154.415 44.2723 155.527 43.797 156.447C43.337 157.367 42.7313 158.072 41.98 158.563C41.2287 159.038 40.4237 159.276 39.565 159.276C39.059 159.276 38.5607 159.169 38.07 158.954C37.5947 158.739 37.1577 158.433 36.759 158.034H36.667L36.828 159.897V163.232H33.447ZM38.783 156.516C39.2123 156.516 39.5957 156.401 39.933 156.171C40.2703 155.941 40.5387 155.581 40.738 155.09C40.9373 154.584 41.037 153.94 41.037 153.158C41.037 152.468 40.9603 151.901 40.807 151.456C40.6537 150.996 40.4237 150.651 40.117 150.421C39.8257 150.191 39.4347 150.076 38.944 150.076C38.576 150.076 38.2157 150.16 37.863 150.329C37.5257 150.482 37.1807 150.751 36.828 151.134V155.757C37.15 156.018 37.4797 156.209 37.817 156.332C38.1697 156.455 38.4917 156.516 38.783 156.516ZM54.506 159.276C53.2947 159.276 52.3287 159.069 51.608 158.655C50.9027 158.226 50.389 157.635 50.067 156.884C49.745 156.133 49.584 155.259 49.584 154.262V150.237H46.732V147.73L49.745 147.592L50.182 144.096H52.965V147.592H57.795V150.237H52.965V154.239C52.965 154.806 53.0494 155.266 53.218 155.619C53.3867 155.972 53.6474 156.232 54 156.401C54.3527 156.554 54.805 156.631 55.357 156.631C55.8017 156.631 56.208 156.593 56.576 156.516C56.944 156.439 57.2967 156.34 57.634 156.217L58.232 158.655C57.726 158.808 57.1664 158.946 56.553 159.069C55.955 159.207 55.2727 159.276 54.506 159.276ZM65.767 159V150.237H61.167V147.592H69.148V159H65.767ZM67.308 145.798C66.664 145.798 66.1274 145.614 65.698 145.246C65.2687 144.863 65.054 144.364 65.054 143.751C65.054 143.122 65.2687 142.616 65.698 142.233C66.1274 141.834 66.664 141.635 67.308 141.635C67.9674 141.635 68.504 141.834 68.918 142.233C69.3474 142.616 69.562 143.122 69.562 143.751C69.562 144.364 69.3474 144.863 68.918 145.246C68.504 145.614 67.9674 145.798 67.308 145.798ZM80.0641 159.276C79.0674 159.276 78.1244 159.046 77.2351 158.586C76.3457 158.111 75.6251 157.428 75.0731 156.539C74.5211 155.634 74.2451 154.553 74.2451 153.296C74.2451 152.039 74.5211 150.965 75.0731 150.076C75.6251 149.171 76.3457 148.489 77.2351 148.029C78.1244 147.554 79.0674 147.316 80.0641 147.316C81.0607 147.316 82.0037 147.554 82.8931 148.029C83.7824 148.489 84.5031 149.171 85.0551 150.076C85.6071 150.965 85.8831 152.039 85.8831 153.296C85.8831 154.553 85.6071 155.634 85.0551 156.539C84.5031 157.428 83.7824 158.111 82.8931 158.586C82.0037 159.046 81.0607 159.276 80.0641 159.276ZM80.0641 156.539C80.5854 156.539 81.0147 156.409 81.3521 156.148C81.7047 155.887 81.9654 155.512 82.1341 155.021C82.3181 154.53 82.4101 153.955 82.4101 153.296C82.4101 152.637 82.3181 152.062 82.1341 151.571C81.9654 151.08 81.7047 150.705 81.3521 150.444C81.0147 150.183 80.5854 150.053 80.0641 150.053C79.5427 150.053 79.1057 150.183 78.7531 150.444C78.4157 150.705 78.1551 151.08 77.9711 151.571C77.8024 152.062 77.7181 152.637 77.7181 153.296C77.7181 153.955 77.8024 154.53 77.9711 155.021C78.1551 155.512 78.4157 155.887 78.7531 156.148C79.1057 156.409 79.5427 156.539 80.0641 156.539ZM88.6111 159V147.592H91.3711L91.6241 149.11H91.7161C92.2067 148.619 92.7664 148.198 93.3951 147.845C94.0391 147.492 94.7904 147.316 95.6491 147.316C96.9371 147.316 97.8801 147.73 98.4781 148.558C99.0761 149.386 99.3751 150.521 99.3751 151.962V159H95.9941V152.399C95.9941 151.632 95.8637 151.073 95.6031 150.72C95.3577 150.367 94.9284 150.191 94.3151 150.191C93.8551 150.191 93.4487 150.298 93.0961 150.513C92.7587 150.712 92.3907 151.004 91.9921 151.387V159H88.6111ZM115.871 159V157.068C117.266 155.887 118.485 154.822 119.528 153.871C120.586 152.905 121.406 152.023 121.989 151.226C122.572 150.413 122.863 149.662 122.863 148.972C122.863 148.251 122.648 147.707 122.219 147.339C121.805 146.956 121.222 146.764 120.471 146.764C119.888 146.764 119.352 146.917 118.861 147.224C118.386 147.515 117.941 147.86 117.527 148.259L115.71 146.442C116.461 145.66 117.236 145.077 118.033 144.694C118.846 144.311 119.812 144.119 120.931 144.119C121.943 144.119 122.832 144.311 123.599 144.694C124.381 145.077 124.987 145.622 125.416 146.327C125.861 147.017 126.083 147.83 126.083 148.765C126.083 149.593 125.83 150.429 125.324 151.272C124.833 152.115 124.174 152.966 123.346 153.825C122.533 154.668 121.659 155.504 120.724 156.332C121.138 156.286 121.59 156.248 122.081 156.217C122.572 156.171 123.001 156.148 123.369 156.148H126.842V159H115.871Z" fill="#00CF92"/>
    <path d="M24.9 193.276C23.704 193.276 22.6537 192.977 21.749 192.379C20.8443 191.781 20.139 190.907 19.633 189.757C19.127 188.592 18.874 187.15 18.874 185.433C18.874 183.762 19.127 182.359 19.633 181.224C20.139 180.074 20.8443 179.208 21.749 178.625C22.6537 178.027 23.704 177.728 24.9 177.728C26.096 177.728 27.1463 178.027 28.051 178.625C28.9557 179.208 29.661 180.074 30.167 181.224C30.673 182.359 30.926 183.762 30.926 185.433C30.926 187.15 30.673 188.592 30.167 189.757C29.661 190.907 28.9557 191.781 28.051 192.379C27.1463 192.977 26.096 193.276 24.9 193.276ZM24.9 190.355C25.4213 190.355 25.8737 190.171 26.257 189.803C26.6403 189.42 26.9317 188.868 27.131 188.147C27.3457 187.411 27.453 186.506 27.453 185.433C27.453 184.39 27.3457 183.516 27.131 182.811C26.9317 182.106 26.6403 181.569 26.257 181.201C25.8737 180.833 25.4213 180.649 24.9 180.649C24.3787 180.649 23.9263 180.833 23.543 181.201C23.1597 181.569 22.8607 182.106 22.646 182.811C22.4467 183.516 22.347 184.39 22.347 185.433C22.347 186.506 22.4467 187.411 22.646 188.147C22.8607 188.868 23.1597 189.42 23.543 189.803C23.9263 190.171 24.3787 190.355 24.9 190.355ZM33.447 197.232V181.592H36.207L36.46 182.742H36.529C37.0043 182.328 37.5333 181.991 38.116 181.73C38.714 181.454 39.3197 181.316 39.933 181.316C40.8837 181.316 41.6963 181.554 42.371 182.029C43.061 182.504 43.59 183.179 43.958 184.053C44.326 184.927 44.51 185.947 44.51 187.112C44.51 188.415 44.2723 189.527 43.797 190.447C43.337 191.367 42.7313 192.072 41.98 192.563C41.2287 193.038 40.4237 193.276 39.565 193.276C39.059 193.276 38.5607 193.169 38.07 192.954C37.5947 192.739 37.1577 192.433 36.759 192.034H36.667L36.828 193.897V197.232H33.447ZM38.783 190.516C39.2123 190.516 39.5957 190.401 39.933 190.171C40.2703 189.941 40.5387 189.581 40.738 189.09C40.9373 188.584 41.037 187.94 41.037 187.158C41.037 186.468 40.9603 185.901 40.807 185.456C40.6537 184.996 40.4237 184.651 40.117 184.421C39.8257 184.191 39.4347 184.076 38.944 184.076C38.576 184.076 38.2157 184.16 37.863 184.329C37.5257 184.482 37.1807 184.751 36.828 185.134V189.757C37.15 190.018 37.4797 190.209 37.817 190.332C38.1697 190.455 38.4917 190.516 38.783 190.516ZM54.506 193.276C53.2947 193.276 52.3287 193.069 51.608 192.655C50.9027 192.226 50.389 191.635 50.067 190.884C49.745 190.133 49.584 189.259 49.584 188.262V184.237H46.732V181.73L49.745 181.592L50.182 178.096H52.965V181.592H57.795V184.237H52.965V188.239C52.965 188.806 53.0494 189.266 53.218 189.619C53.3867 189.972 53.6474 190.232 54 190.401C54.3527 190.554 54.805 190.631 55.357 190.631C55.8017 190.631 56.208 190.593 56.576 190.516C56.944 190.439 57.2967 190.34 57.634 190.217L58.232 192.655C57.726 192.808 57.1664 192.946 56.553 193.069C55.955 193.207 55.2727 193.276 54.506 193.276ZM65.767 193V184.237H61.167V181.592H69.148V193H65.767ZM67.308 179.798C66.664 179.798 66.1274 179.614 65.698 179.246C65.2687 178.863 65.054 178.364 65.054 177.751C65.054 177.122 65.2687 176.616 65.698 176.233C66.1274 175.834 66.664 175.635 67.308 175.635C67.9674 175.635 68.504 175.834 68.918 176.233C69.3474 176.616 69.562 177.122 69.562 177.751C69.562 178.364 69.3474 178.863 68.918 179.246C68.504 179.614 67.9674 179.798 67.308 179.798ZM80.0641 193.276C79.0674 193.276 78.1244 193.046 77.2351 192.586C76.3457 192.111 75.6251 191.428 75.0731 190.539C74.5211 189.634 74.2451 188.553 74.2451 187.296C74.2451 186.039 74.5211 184.965 75.0731 184.076C75.6251 183.171 76.3457 182.489 77.2351 182.029C78.1244 181.554 79.0674 181.316 80.0641 181.316C81.0607 181.316 82.0037 181.554 82.8931 182.029C83.7824 182.489 84.5031 183.171 85.0551 184.076C85.6071 184.965 85.8831 186.039 85.8831 187.296C85.8831 188.553 85.6071 189.634 85.0551 190.539C84.5031 191.428 83.7824 192.111 82.8931 192.586C82.0037 193.046 81.0607 193.276 80.0641 193.276ZM80.0641 190.539C80.5854 190.539 81.0147 190.409 81.3521 190.148C81.7047 189.887 81.9654 189.512 82.1341 189.021C82.3181 188.53 82.4101 187.955 82.4101 187.296C82.4101 186.637 82.3181 186.062 82.1341 185.571C81.9654 185.08 81.7047 184.705 81.3521 184.444C81.0147 184.183 80.5854 184.053 80.0641 184.053C79.5427 184.053 79.1057 184.183 78.7531 184.444C78.4157 184.705 78.1551 185.08 77.9711 185.571C77.8024 186.062 77.7181 186.637 77.7181 187.296C77.7181 187.955 77.8024 188.53 77.9711 189.021C78.1551 189.512 78.4157 189.887 78.7531 190.148C79.1057 190.409 79.5427 190.539 80.0641 190.539ZM88.6111 193V181.592H91.3711L91.6241 183.11H91.7161C92.2067 182.619 92.7664 182.198 93.3951 181.845C94.0391 181.492 94.7904 181.316 95.6491 181.316C96.9371 181.316 97.8801 181.73 98.4781 182.558C99.0761 183.386 99.3751 184.521 99.3751 185.962V193H95.9941V186.399C95.9941 185.632 95.8637 185.073 95.6031 184.72C95.3577 184.367 94.9284 184.191 94.3151 184.191C93.8551 184.191 93.4487 184.298 93.0961 184.513C92.7587 184.712 92.3907 185.004 91.9921 185.387V193H88.6111ZM120.954 193.276C120.126 193.276 119.367 193.184 118.677 193C118.002 192.831 117.397 192.594 116.86 192.287C116.323 191.98 115.871 191.62 115.503 191.206L117.067 189.067C117.558 189.496 118.11 189.849 118.723 190.125C119.336 190.401 119.973 190.539 120.632 190.539C121.153 190.539 121.621 190.478 122.035 190.355C122.449 190.217 122.771 190.018 123.001 189.757C123.246 189.496 123.369 189.182 123.369 188.814C123.369 188.385 123.239 188.017 122.978 187.71C122.717 187.388 122.265 187.143 121.621 186.974C120.992 186.805 120.103 186.721 118.953 186.721V184.329C119.919 184.329 120.686 184.245 121.253 184.076C121.82 183.907 122.234 183.677 122.495 183.386C122.756 183.095 122.886 182.757 122.886 182.374C122.886 181.853 122.694 181.454 122.311 181.178C121.928 180.902 121.399 180.764 120.724 180.764C120.157 180.764 119.62 180.879 119.114 181.109C118.623 181.324 118.125 181.638 117.619 182.052L115.917 179.982C116.638 179.399 117.412 178.947 118.24 178.625C119.068 178.288 119.95 178.119 120.885 178.119C121.943 178.119 122.878 178.28 123.691 178.602C124.504 178.909 125.132 179.361 125.577 179.959C126.037 180.542 126.267 181.262 126.267 182.121C126.267 182.872 126.022 183.516 125.531 184.053C125.04 184.59 124.358 185.027 123.484 185.364V185.456C124.097 185.625 124.649 185.87 125.14 186.192C125.646 186.499 126.037 186.89 126.313 187.365C126.604 187.84 126.75 188.392 126.75 189.021C126.75 189.926 126.482 190.7 125.945 191.344C125.408 191.973 124.703 192.456 123.829 192.793C122.955 193.115 121.997 193.276 120.954 193.276Z" fill="#00CF92"/>
    <path d="M24.9 227.276C23.704 227.276 22.6537 226.977 21.749 226.379C20.8443 225.781 20.139 224.907 19.633 223.757C19.127 222.592 18.874 221.15 18.874 219.433C18.874 217.762 19.127 216.359 19.633 215.224C20.139 214.074 20.8443 213.208 21.749 212.625C22.6537 212.027 23.704 211.728 24.9 211.728C26.096 211.728 27.1463 212.027 28.051 212.625C28.9557 213.208 29.661 214.074 30.167 215.224C30.673 216.359 30.926 217.762 30.926 219.433C30.926 221.15 30.673 222.592 30.167 223.757C29.661 224.907 28.9557 225.781 28.051 226.379C27.1463 226.977 26.096 227.276 24.9 227.276ZM24.9 224.355C25.4213 224.355 25.8737 224.171 26.257 223.803C26.6403 223.42 26.9317 222.868 27.131 222.147C27.3457 221.411 27.453 220.506 27.453 219.433C27.453 218.39 27.3457 217.516 27.131 216.811C26.9317 216.106 26.6403 215.569 26.257 215.201C25.8737 214.833 25.4213 214.649 24.9 214.649C24.3787 214.649 23.9263 214.833 23.543 215.201C23.1597 215.569 22.8607 216.106 22.646 216.811C22.4467 217.516 22.347 218.39 22.347 219.433C22.347 220.506 22.4467 221.411 22.646 222.147C22.8607 222.868 23.1597 223.42 23.543 223.803C23.9263 224.171 24.3787 224.355 24.9 224.355ZM33.447 231.232V215.592H36.207L36.46 216.742H36.529C37.0043 216.328 37.5333 215.991 38.116 215.73C38.714 215.454 39.3197 215.316 39.933 215.316C40.8837 215.316 41.6963 215.554 42.371 216.029C43.061 216.504 43.59 217.179 43.958 218.053C44.326 218.927 44.51 219.947 44.51 221.112C44.51 222.415 44.2723 223.527 43.797 224.447C43.337 225.367 42.7313 226.072 41.98 226.563C41.2287 227.038 40.4237 227.276 39.565 227.276C39.059 227.276 38.5607 227.169 38.07 226.954C37.5947 226.739 37.1577 226.433 36.759 226.034H36.667L36.828 227.897V231.232H33.447ZM38.783 224.516C39.2123 224.516 39.5957 224.401 39.933 224.171C40.2703 223.941 40.5387 223.581 40.738 223.09C40.9373 222.584 41.037 221.94 41.037 221.158C41.037 220.468 40.9603 219.901 40.807 219.456C40.6537 218.996 40.4237 218.651 40.117 218.421C39.8257 218.191 39.4347 218.076 38.944 218.076C38.576 218.076 38.2157 218.16 37.863 218.329C37.5257 218.482 37.1807 218.751 36.828 219.134V223.757C37.15 224.018 37.4797 224.209 37.817 224.332C38.1697 224.455 38.4917 224.516 38.783 224.516ZM54.506 227.276C53.2947 227.276 52.3287 227.069 51.608 226.655C50.9027 226.226 50.389 225.635 50.067 224.884C49.745 224.133 49.584 223.259 49.584 222.262V218.237H46.732V215.73L49.745 215.592L50.182 212.096H52.965V215.592H57.795V218.237H52.965V222.239C52.965 222.806 53.0494 223.266 53.218 223.619C53.3867 223.972 53.6474 224.232 54 224.401C54.3527 224.554 54.805 224.631 55.357 224.631C55.8017 224.631 56.208 224.593 56.576 224.516C56.944 224.439 57.2967 224.34 57.634 224.217L58.232 226.655C57.726 226.808 57.1664 226.946 56.553 227.069C55.955 227.207 55.2727 227.276 54.506 227.276ZM65.767 227V218.237H61.167V215.592H69.148V227H65.767ZM67.308 213.798C66.664 213.798 66.1274 213.614 65.698 213.246C65.2687 212.863 65.054 212.364 65.054 211.751C65.054 211.122 65.2687 210.616 65.698 210.233C66.1274 209.834 66.664 209.635 67.308 209.635C67.9674 209.635 68.504 209.834 68.918 210.233C69.3474 210.616 69.562 211.122 69.562 211.751C69.562 212.364 69.3474 212.863 68.918 213.246C68.504 213.614 67.9674 213.798 67.308 213.798ZM80.0641 227.276C79.0674 227.276 78.1244 227.046 77.2351 226.586C76.3457 226.111 75.6251 225.428 75.0731 224.539C74.5211 223.634 74.2451 222.553 74.2451 221.296C74.2451 220.039 74.5211 218.965 75.0731 218.076C75.6251 217.171 76.3457 216.489 77.2351 216.029C78.1244 215.554 79.0674 215.316 80.0641 215.316C81.0607 215.316 82.0037 215.554 82.8931 216.029C83.7824 216.489 84.5031 217.171 85.0551 218.076C85.6071 218.965 85.8831 220.039 85.8831 221.296C85.8831 222.553 85.6071 223.634 85.0551 224.539C84.5031 225.428 83.7824 226.111 82.8931 226.586C82.0037 227.046 81.0607 227.276 80.0641 227.276ZM80.0641 224.539C80.5854 224.539 81.0147 224.409 81.3521 224.148C81.7047 223.887 81.9654 223.512 82.1341 223.021C82.3181 222.53 82.4101 221.955 82.4101 221.296C82.4101 220.637 82.3181 220.062 82.1341 219.571C81.9654 219.08 81.7047 218.705 81.3521 218.444C81.0147 218.183 80.5854 218.053 80.0641 218.053C79.5427 218.053 79.1057 218.183 78.7531 218.444C78.4157 218.705 78.1551 219.08 77.9711 219.571C77.8024 220.062 77.7181 220.637 77.7181 221.296C77.7181 221.955 77.8024 222.53 77.9711 223.021C78.1551 223.512 78.4157 223.887 78.7531 224.148C79.1057 224.409 79.5427 224.539 80.0641 224.539ZM88.6111 227V215.592H91.3711L91.6241 217.11H91.7161C92.2067 216.619 92.7664 216.198 93.3951 215.845C94.0391 215.492 94.7904 215.316 95.6491 215.316C96.9371 215.316 97.8801 215.73 98.4781 216.558C99.0761 217.386 99.3751 218.521 99.3751 219.962V227H95.9941V220.399C95.9941 219.632 95.8637 219.073 95.6031 218.72C95.3577 218.367 94.9284 218.191 94.3151 218.191C93.8551 218.191 93.4487 218.298 93.0961 218.513C92.7587 218.712 92.3907 219.004 91.9921 219.387V227H88.6111ZM122.38 227V218.467C122.38 218.007 122.395 217.478 122.426 216.88C122.457 216.267 122.48 215.73 122.495 215.27H122.403C122.158 215.669 121.889 216.075 121.598 216.489C121.322 216.903 121.061 217.325 120.816 217.754L118.608 220.928H127.371V223.504H115.342V221.181L121.437 212.395H125.531V227H122.38Z" fill="#00CF92"/>
    <path d="M25.0616 73.276C24.0496 73.276 23.0453 73.092 22.0486 72.724C21.0673 72.356 20.1703 71.8193 19.3576 71.114L21.3126 68.791C21.88 69.251 22.501 69.6267 23.1756 69.918C23.8656 70.2093 24.571 70.355 25.2916 70.355C26.0123 70.355 26.5413 70.2323 26.8786 69.987C27.2313 69.7417 27.4076 69.4273 27.4076 69.044C27.4076 68.6913 27.3156 68.4153 27.1316 68.216C26.9476 68.0013 26.6793 67.8173 26.3266 67.664C25.974 67.4953 25.56 67.3113 25.0846 67.112L23.1526 66.284C22.6006 66.0693 22.0793 65.7857 21.5886 65.433C21.098 65.065 20.6993 64.6203 20.3926 64.099C20.1013 63.5623 19.9556 62.926 19.9556 62.19C19.9556 61.362 20.1856 60.6183 20.6456 59.959C21.121 59.2843 21.765 58.7477 22.5776 58.349C23.4056 57.935 24.364 57.728 25.4526 57.728C26.3573 57.728 27.2466 57.8967 28.1206 58.234C28.9946 58.5713 29.769 59.062 30.4436 59.706L28.7186 61.845C28.1973 61.4617 27.676 61.1703 27.1546 60.971C26.6333 60.7563 26.0046 60.649 25.2686 60.649C24.7166 60.649 24.2643 60.764 23.9116 60.994C23.559 61.224 23.3826 61.5613 23.3826 62.006C23.3826 62.2973 23.49 62.5427 23.7046 62.742C23.9193 62.9413 24.2106 63.1177 24.5786 63.271C24.9466 63.4243 25.3683 63.593 25.8436 63.777L27.6606 64.559C28.3353 64.8043 28.9103 65.111 29.3856 65.479C29.861 65.8317 30.229 66.2687 30.4896 66.79C30.7503 67.3113 30.8806 67.9247 30.8806 68.63C30.8806 69.458 30.6506 70.2247 30.1906 70.93C29.746 71.6353 29.0866 72.2027 28.2126 72.632C27.354 73.0613 26.3036 73.276 25.0616 73.276ZM39.5887 73.276C38.408 73.276 37.3347 73.046 36.3687 72.586C35.418 72.1107 34.659 71.4283 34.0917 70.539C33.5397 69.6343 33.2637 68.5533 33.2637 67.296C33.2637 66.054 33.5473 64.9883 34.1147 64.099C34.682 63.1943 35.418 62.5043 36.3227 62.029C37.2273 61.5537 38.1857 61.316 39.1977 61.316C40.3783 61.316 41.3673 61.5613 42.1647 62.052C42.962 62.5273 43.56 63.179 43.9587 64.007C44.3727 64.8197 44.5797 65.7473 44.5797 66.79C44.5797 67.0967 44.5567 67.3957 44.5107 67.687C44.48 67.963 44.4493 68.17 44.4187 68.308H35.7707V66.031H42.1417L41.6127 66.675C41.6127 65.755 41.4133 65.065 41.0147 64.605C40.6313 64.1297 40.064 63.892 39.3127 63.892C38.7607 63.892 38.2777 64.0147 37.8637 64.26C37.4497 64.5053 37.1277 64.881 36.8977 65.387C36.6677 65.893 36.5527 66.5293 36.5527 67.296C36.5527 68.078 36.6907 68.722 36.9667 69.228C37.2427 69.7187 37.6413 70.0867 38.1627 70.332C38.684 70.5773 39.3127 70.7 40.0487 70.7C40.57 70.7 41.0607 70.631 41.5207 70.493C41.996 70.355 42.4867 70.1557 42.9927 69.895L44.1197 71.942C43.4603 72.356 42.732 72.6857 41.9347 72.931C41.1373 73.161 40.3553 73.276 39.5887 73.276ZM54.8747 73.276C53.4487 73.276 52.3677 72.8467 51.6317 71.988C50.8957 71.1293 50.5277 69.9793 50.5277 68.538V59.545H46.9627V56.9H53.9087V68.676C53.9087 69.3813 54.1003 69.872 54.4837 70.148C54.867 70.4087 55.2887 70.539 55.7487 70.539C56.0247 70.539 56.3007 70.5083 56.5767 70.447C56.868 70.3857 57.19 70.2937 57.5427 70.171L58.2787 72.655C57.696 72.839 57.1593 72.9847 56.6687 73.092C56.1933 73.2147 55.5953 73.276 54.8747 73.276ZM67.1707 73.276C65.99 73.276 64.9167 73.046 63.9507 72.586C63 72.1107 62.241 71.4283 61.6737 70.539C61.1217 69.6343 60.8457 68.5533 60.8457 67.296C60.8457 66.054 61.1294 64.9883 61.6967 64.099C62.264 63.1943 63 62.5043 63.9047 62.029C64.8094 61.5537 65.7677 61.316 66.7797 61.316C67.9604 61.316 68.9494 61.5613 69.7467 62.052C70.544 62.5273 71.142 63.179 71.5407 64.007C71.9547 64.8197 72.1617 65.7473 72.1617 66.79C72.1617 67.0967 72.1387 67.3957 72.0927 67.687C72.062 67.963 72.0314 68.17 72.0007 68.308H63.3527V66.031H69.7237L69.1947 66.675C69.1947 65.755 68.9954 65.065 68.5967 64.605C68.2134 64.1297 67.646 63.892 66.8947 63.892C66.3427 63.892 65.8597 64.0147 65.4457 64.26C65.0317 64.5053 64.7097 64.881 64.4797 65.387C64.2497 65.893 64.1347 66.5293 64.1347 67.296C64.1347 68.078 64.2727 68.722 64.5487 69.228C64.8247 69.7187 65.2234 70.0867 65.7447 70.332C66.266 70.5773 66.8947 70.7 67.6307 70.7C68.152 70.7 68.6427 70.631 69.1027 70.493C69.578 70.355 70.0687 70.1557 70.5747 69.895L71.7017 71.942C71.0424 72.356 70.314 72.6857 69.5167 72.931C68.7194 73.161 67.9374 73.276 67.1707 73.276ZM81.2607 73.276C80.0647 73.276 78.9837 73.046 78.0177 72.586C77.067 72.1107 76.308 71.4283 75.7407 70.539C75.1887 69.6343 74.9127 68.5533 74.9127 67.296C74.9127 66.0387 75.2194 64.9653 75.8327 64.076C76.446 63.1713 77.251 62.489 78.2477 62.029C79.2597 61.5537 80.3484 61.316 81.5137 61.316C82.4184 61.316 83.2387 61.4617 83.9747 61.753C84.7107 62.029 85.3164 62.397 85.7917 62.857L84.2277 64.95C83.783 64.6433 83.3537 64.421 82.9397 64.283C82.541 64.1297 82.127 64.053 81.6977 64.053C81.0537 64.053 80.4787 64.1833 79.9727 64.444C79.4667 64.7047 79.0757 65.0803 78.7997 65.571C78.5237 66.0617 78.3857 66.6367 78.3857 67.296C78.3857 67.9553 78.516 68.5303 78.7767 69.021C79.0527 69.5117 79.4284 69.8873 79.9037 70.148C80.3944 70.4087 80.954 70.539 81.5827 70.539C82.1807 70.539 82.725 70.4317 83.2157 70.217C83.7217 70.0023 84.1817 69.7493 84.5957 69.458L85.9527 71.597C85.278 72.1643 84.519 72.586 83.6757 72.862C82.8477 73.138 82.0427 73.276 81.2607 73.276ZM96.0867 73.276C94.8754 73.276 93.9094 73.069 93.1887 72.655C92.4834 72.2257 91.9697 71.6353 91.6477 70.884C91.3257 70.1327 91.1647 69.2587 91.1647 68.262V64.237H88.3127V61.73L91.3257 61.592L91.7627 58.096H94.5457V61.592H99.3757V64.237H94.5457V68.239C94.5457 68.8063 94.6301 69.2663 94.7987 69.619C94.9674 69.9717 95.2281 70.2323 95.5807 70.401C95.9334 70.5543 96.3857 70.631 96.9377 70.631C97.3824 70.631 97.7887 70.5927 98.1567 70.516C98.5247 70.4393 98.8774 70.3397 99.2147 70.217L99.8127 72.655C99.3067 72.8083 98.7471 72.9463 98.1337 73.069C97.5357 73.207 96.8534 73.276 96.0867 73.276ZM119.897 73.276C119.13 73.276 118.463 73.1227 117.896 72.816C117.344 72.5093 116.914 72.0953 116.608 71.574C116.301 71.0527 116.148 70.47 116.148 69.826C116.148 68.5533 116.723 67.5797 117.873 66.905C119.038 66.2303 120.97 65.8163 123.669 65.663C123.623 65.3103 123.508 65.0113 123.324 64.766C123.14 64.5207 122.871 64.3367 122.519 64.214C122.181 64.076 121.752 64.007 121.231 64.007C120.863 64.007 120.495 64.053 120.127 64.145C119.759 64.2217 119.375 64.3443 118.977 64.513C118.593 64.6663 118.187 64.8503 117.758 65.065L116.562 62.857C117.083 62.5503 117.627 62.282 118.195 62.052C118.777 61.822 119.375 61.6457 119.989 61.523C120.617 61.385 121.254 61.316 121.898 61.316C122.971 61.316 123.891 61.5077 124.658 61.891C125.424 62.259 126.015 62.8263 126.429 63.593C126.843 64.3443 127.05 65.3027 127.05 66.468V73H124.29L124.037 71.712H123.945C123.377 72.1413 122.749 72.5093 122.059 72.816C121.369 73.1227 120.648 73.276 119.897 73.276ZM120.978 70.654C121.484 70.654 121.959 70.5543 122.404 70.355C122.848 70.1403 123.27 69.8797 123.669 69.573V67.687C122.549 67.7483 121.675 67.8633 121.047 68.032C120.433 68.2007 120.004 68.4153 119.759 68.676C119.513 68.9367 119.391 69.2357 119.391 69.573C119.391 69.803 119.452 70.0023 119.575 70.171C119.713 70.3397 119.897 70.4623 120.127 70.539C120.372 70.6157 120.656 70.654 120.978 70.654ZM130.192 73V61.592H132.952L133.205 63.11H133.297C133.787 62.6193 134.347 62.1977 134.976 61.845C135.62 61.4923 136.371 61.316 137.23 61.316C138.518 61.316 139.461 61.73 140.059 62.558C140.657 63.386 140.956 64.5207 140.956 65.962V73H137.575V66.399C137.575 65.6323 137.444 65.0727 137.184 64.72C136.938 64.3673 136.509 64.191 135.896 64.191C135.436 64.191 135.029 64.2983 134.677 64.513C134.339 64.7123 133.971 65.0037 133.573 65.387V73H130.192ZM163.018 73.276C162.021 73.276 161.078 73.046 160.189 72.586C159.299 72.1107 158.579 71.4283 158.027 70.539C157.475 69.6343 157.199 68.5533 157.199 67.296C157.199 66.0387 157.475 64.9653 158.027 64.076C158.579 63.1713 159.299 62.489 160.189 62.029C161.078 61.5537 162.021 61.316 163.018 61.316C164.014 61.316 164.957 61.5537 165.847 62.029C166.736 62.489 167.457 63.1713 168.009 64.076C168.561 64.9653 168.837 66.0387 168.837 67.296C168.837 68.5533 168.561 69.6343 168.009 70.539C167.457 71.4283 166.736 72.1107 165.847 72.586C164.957 73.046 164.014 73.276 163.018 73.276ZM163.018 70.539C163.539 70.539 163.968 70.4087 164.306 70.148C164.658 69.8873 164.919 69.5117 165.088 69.021C165.272 68.5303 165.364 67.9553 165.364 67.296C165.364 66.6367 165.272 66.0617 165.088 65.571C164.919 65.0803 164.658 64.7047 164.306 64.444C163.968 64.1833 163.539 64.053 163.018 64.053C162.496 64.053 162.059 64.1833 161.707 64.444C161.369 64.7047 161.109 65.0803 160.925 65.571C160.756 66.0617 160.672 66.6367 160.672 67.296C160.672 67.9553 160.756 68.5303 160.925 69.021C161.109 69.5117 161.369 69.8873 161.707 70.148C162.059 70.4087 162.496 70.539 163.018 70.539ZM171.565 77.232V61.592H174.325L174.578 62.742H174.647C175.122 62.328 175.651 61.9907 176.234 61.73C176.832 61.454 177.437 61.316 178.051 61.316C179.001 61.316 179.814 61.5537 180.489 62.029C181.179 62.5043 181.708 63.179 182.076 64.053C182.444 64.927 182.628 65.9467 182.628 67.112C182.628 68.4153 182.39 69.527 181.915 70.447C181.455 71.367 180.849 72.0723 180.098 72.563C179.346 73.0383 178.541 73.276 177.683 73.276C177.177 73.276 176.678 73.1687 176.188 72.954C175.712 72.7393 175.275 72.4327 174.877 72.034H174.785L174.946 73.897V77.232H171.565ZM176.901 70.516C177.33 70.516 177.713 70.401 178.051 70.171C178.388 69.941 178.656 69.5807 178.856 69.09C179.055 68.584 179.155 67.94 179.155 67.158C179.155 66.468 179.078 65.9007 178.925 65.456C178.771 64.996 178.541 64.651 178.235 64.421C177.943 64.191 177.552 64.076 177.062 64.076C176.694 64.076 176.333 64.1603 175.981 64.329C175.643 64.4823 175.298 64.7507 174.946 65.134V69.757C175.268 70.0177 175.597 70.2093 175.935 70.332C176.287 70.4547 176.609 70.516 176.901 70.516ZM192.624 73.276C191.412 73.276 190.446 73.069 189.726 72.655C189.02 72.2257 188.507 71.6353 188.185 70.884C187.863 70.1327 187.702 69.2587 187.702 68.262V64.237H184.85V61.73L187.863 61.592L188.3 58.096H191.083V61.592H195.913V64.237H191.083V68.239C191.083 68.8063 191.167 69.2663 191.336 69.619C191.504 69.9717 191.765 70.2323 192.118 70.401C192.47 70.5543 192.923 70.631 193.475 70.631C193.919 70.631 194.326 70.5927 194.694 70.516C195.062 70.4393 195.414 70.3397 195.752 70.217L196.35 72.655C195.844 72.8083 195.284 72.9463 194.671 73.069C194.073 73.207 193.39 73.276 192.624 73.276ZM203.885 73V64.237H199.285V61.592H207.266V73H203.885ZM205.426 59.798C204.782 59.798 204.245 59.614 203.816 59.246C203.387 58.8627 203.172 58.3643 203.172 57.751C203.172 57.1223 203.387 56.6163 203.816 56.233C204.245 55.8343 204.782 55.635 205.426 55.635C206.085 55.635 206.622 55.8343 207.036 56.233C207.465 56.6163 207.68 57.1223 207.68 57.751C207.68 58.3643 207.465 58.8627 207.036 59.246C206.622 59.614 206.085 59.798 205.426 59.798ZM218.182 73.276C217.185 73.276 216.242 73.046 215.353 72.586C214.464 72.1107 213.743 71.4283 213.191 70.539C212.639 69.6343 212.363 68.5533 212.363 67.296C212.363 66.0387 212.639 64.9653 213.191 64.076C213.743 63.1713 214.464 62.489 215.353 62.029C216.242 61.5537 217.185 61.316 218.182 61.316C219.179 61.316 220.122 61.5537 221.011 62.029C221.9 62.489 222.621 63.1713 223.173 64.076C223.725 64.9653 224.001 66.0387 224.001 67.296C224.001 68.5533 223.725 69.6343 223.173 70.539C222.621 71.4283 221.9 72.1107 221.011 72.586C220.122 73.046 219.179 73.276 218.182 73.276ZM218.182 70.539C218.703 70.539 219.133 70.4087 219.47 70.148C219.823 69.8873 220.083 69.5117 220.252 69.021C220.436 68.5303 220.528 67.9553 220.528 67.296C220.528 66.6367 220.436 66.0617 220.252 65.571C220.083 65.0803 219.823 64.7047 219.47 64.444C219.133 64.1833 218.703 64.053 218.182 64.053C217.661 64.053 217.224 64.1833 216.871 64.444C216.534 64.7047 216.273 65.0803 216.089 65.571C215.92 66.0617 215.836 66.6367 215.836 67.296C215.836 67.9553 215.92 68.5303 216.089 69.021C216.273 69.5117 216.534 69.8873 216.871 70.148C217.224 70.4087 217.661 70.539 218.182 70.539ZM226.729 73V61.592H229.489L229.742 63.11H229.834C230.325 62.6193 230.884 62.1977 231.513 61.845C232.157 61.4923 232.908 61.316 233.767 61.316C235.055 61.316 235.998 61.73 236.596 62.558C237.194 63.386 237.493 64.5207 237.493 65.962V73H234.112V66.399C234.112 65.6323 233.982 65.0727 233.721 64.72C233.476 64.3673 233.046 64.191 232.433 64.191C231.973 64.191 231.567 64.2983 231.214 64.513C230.877 64.7123 230.509 65.0037 230.11 65.387V73H226.729Z" fill="#00CF92"/>
    <path d="M284.352 69.4707C283.98 68.8141 284.454 68 285.209 68V68C285.566 68 285.894 68.1925 286.068 68.5033L290.016 75.5443C290.398 76.2255 291.379 76.2255 291.761 75.5443L295.708 68.5033C295.883 68.1925 296.211 68 296.567 68V68C297.322 68 297.797 68.8141 297.424 69.4707L291.758 79.4655C291.375 80.1412 290.401 80.1412 290.018 79.4655L284.352 69.4707Z" fill="#666666"/>
    <path d="M297.424 59.5293C297.797 60.1859 297.322 61 296.567 61V61C296.211 61 295.883 60.8075 295.708 60.4967L291.761 53.4557C291.379 52.7745 290.398 52.7745 290.016 53.4557L286.068 60.4967C285.894 60.8075 285.566 61 285.209 61V61C284.454 61 283.98 60.1859 284.352 59.5293L290.018 49.5345C290.401 48.8588 291.375 48.8588 291.758 49.5345L297.424 59.5293Z" fill="#666666"/>
    <path d="M81.24 23V2.136H87C89.0267 2.136 90.7867 2.49867 92.28 3.224C93.7947 3.94933 94.968 5.08 95.8 6.616C96.632 8.13067 97.048 10.0827 97.048 12.472C97.048 14.8613 96.632 16.8347 95.8 18.392C94.9893 19.9493 93.848 21.112 92.376 21.88C90.904 22.6267 89.208 23 87.288 23H81.24ZM85.976 19.192H86.744C87.8533 19.192 88.8133 18.9787 89.624 18.552C90.4347 18.1253 91.064 17.4213 91.512 16.44C91.9813 15.4587 92.216 14.136 92.216 12.472C92.216 10.808 91.9813 9.50667 91.512 8.568C91.064 7.608 90.4347 6.936 89.624 6.552C88.8133 6.14667 87.8533 5.944 86.744 5.944H85.976V19.192ZM101.9 23V7.128H105.74L106.124 10.584H106.22C107.009 9.28267 107.958 8.32267 109.068 7.704C110.198 7.064 111.393 6.744 112.652 6.744C113.356 6.744 113.921 6.79733 114.347 6.904C114.796 7.01067 115.254 7.17067 115.724 7.384L114.764 11.32C114.273 11.1707 113.825 11.064 113.42 11C113.036 10.9147 112.545 10.872 111.948 10.872C110.966 10.872 109.996 11.16 109.036 11.736C108.097 12.312 107.286 13.3147 106.604 14.744V23H101.9ZM126.975 23.384C125.588 23.384 124.276 23.064 123.039 22.424C121.802 21.7627 120.799 20.8133 120.031 19.576C119.263 18.3173 118.879 16.8133 118.879 15.064C118.879 13.3147 119.263 11.8213 120.031 10.584C120.799 9.32533 121.802 8.376 123.039 7.736C124.276 7.07467 125.588 6.744 126.975 6.744C128.362 6.744 129.674 7.07467 130.911 7.736C132.148 8.376 133.151 9.32533 133.919 10.584C134.687 11.8213 135.071 13.3147 135.071 15.064C135.071 16.8133 134.687 18.3173 133.919 19.576C133.151 20.8133 132.148 21.7627 130.911 22.424C129.674 23.064 128.362 23.384 126.975 23.384ZM126.975 19.576C127.7 19.576 128.298 19.3947 128.767 19.032C129.258 18.6693 129.62 18.1467 129.855 17.464C130.111 16.7813 130.239 15.9813 130.239 15.064C130.239 14.1467 130.111 13.3467 129.855 12.664C129.62 11.9813 129.258 11.4587 128.767 11.096C128.298 10.7333 127.7 10.552 126.975 10.552C126.25 10.552 125.642 10.7333 125.151 11.096C124.682 11.4587 124.319 11.9813 124.063 12.664C123.828 13.3467 123.711 14.1467 123.711 15.064C123.711 15.9813 123.828 16.7813 124.063 17.464C124.319 18.1467 124.682 18.6693 125.151 19.032C125.642 19.3947 126.25 19.576 126.975 19.576ZM138.867 28.888V7.128H142.707L143.059 8.728H143.155C143.816 8.152 144.552 7.68267 145.363 7.32C146.195 6.936 147.037 6.744 147.891 6.744C149.213 6.744 150.344 7.07467 151.283 7.736C152.242 8.39733 152.979 9.336 153.491 10.552C154.003 11.768 154.259 13.1867 154.259 14.808C154.259 16.6213 153.928 18.168 153.267 19.448C152.627 20.728 151.784 21.7093 150.739 22.392C149.693 23.0533 148.573 23.384 147.379 23.384C146.675 23.384 145.981 23.2347 145.299 22.936C144.637 22.6373 144.029 22.2107 143.475 21.656H143.347L143.571 24.248V28.888H138.867ZM146.291 19.544C146.888 19.544 147.421 19.384 147.891 19.064C148.36 18.744 148.733 18.2427 149.011 17.56C149.288 16.856 149.427 15.96 149.427 14.872C149.427 13.912 149.32 13.1227 149.107 12.504C148.893 11.864 148.573 11.384 148.147 11.064C147.741 10.744 147.197 10.584 146.515 10.584C146.003 10.584 145.501 10.7013 145.01 10.936C144.541 11.1493 144.061 11.5227 143.571 12.056V18.488C144.019 18.8507 144.477 19.1173 144.947 19.288C145.437 19.4587 145.885 19.544 146.291 19.544ZM163.942 23.384C161.937 23.384 160.315 22.648 159.078 21.176C157.862 19.6827 157.254 17.6453 157.254 15.064C157.254 13.336 157.574 11.8533 158.214 10.616C158.875 9.37867 159.729 8.42933 160.774 7.768C161.819 7.08533 162.907 6.744 164.038 6.744C164.913 6.744 165.67 6.89333 166.31 7.192C166.95 7.49067 167.526 7.90667 168.038 8.44H168.166L167.942 5.976V0.567999H172.646V23H168.806L168.454 21.368H168.358C167.782 21.944 167.099 22.424 166.31 22.808C165.542 23.192 164.753 23.384 163.942 23.384ZM165.158 19.544C165.691 19.544 166.182 19.4373 166.63 19.224C167.099 18.9893 167.537 18.6053 167.942 18.072V11.64C167.515 11.256 167.078 10.9893 166.63 10.84C166.203 10.6693 165.755 10.584 165.286 10.584C164.71 10.584 164.177 10.744 163.686 11.064C163.195 11.384 162.801 11.8747 162.502 12.536C162.225 13.176 162.086 13.9973 162.086 15C162.086 16.5573 162.353 17.7093 162.886 18.456C163.419 19.1813 164.177 19.544 165.158 19.544ZM184.538 23.384C183.151 23.384 181.839 23.064 180.602 22.424C179.364 21.7627 178.362 20.8133 177.594 19.576C176.826 18.3173 176.442 16.8133 176.442 15.064C176.442 13.3147 176.826 11.8213 177.594 10.584C178.362 9.32533 179.364 8.376 180.602 7.736C181.839 7.07467 183.151 6.744 184.538 6.744C185.924 6.744 187.236 7.07467 188.474 7.736C189.711 8.376 190.714 9.32533 191.482 10.584C192.25 11.8213 192.634 13.3147 192.634 15.064C192.634 16.8133 192.25 18.3173 191.482 19.576C190.714 20.8133 189.711 21.7627 188.474 22.424C187.236 23.064 185.924 23.384 184.538 23.384ZM184.538 19.576C185.263 19.576 185.86 19.3947 186.33 19.032C186.82 18.6693 187.183 18.1467 187.418 17.464C187.674 16.7813 187.802 15.9813 187.802 15.064C187.802 14.1467 187.674 13.3467 187.418 12.664C187.183 11.9813 186.82 11.4587 186.33 11.096C185.86 10.7333 185.263 10.552 184.538 10.552C183.812 10.552 183.204 10.7333 182.714 11.096C182.244 11.4587 181.882 11.9813 181.626 12.664C181.391 13.3467 181.274 14.1467 181.274 15.064C181.274 15.9813 181.391 16.7813 181.626 17.464C181.882 18.1467 182.244 18.6693 182.714 19.032C183.204 19.3947 183.812 19.576 184.538 19.576ZM196.845 23L194.253 7.128H198.797L199.789 14.488C199.896 15.256 199.981 16.0347 200.045 16.824C200.13 17.592 200.216 18.3813 200.301 19.192H200.397C200.504 18.3813 200.61 17.5813 200.717 16.792C200.845 16.0027 200.984 15.2347 201.133 14.488L202.125 9.24H205.549L206.573 14.488C206.722 15.256 206.861 16.0347 206.989 16.824C207.138 17.592 207.266 18.3813 207.373 19.192H207.501C207.608 18.3813 207.682 17.592 207.725 16.824C207.789 16.0347 207.864 15.256 207.949 14.488L208.845 7.128H213.197L210.765 23H205.229L204.365 17.848C204.28 17.144 204.184 16.408 204.077 15.64C203.992 14.872 203.896 14.04 203.789 13.144H203.661C203.597 13.8053 203.522 14.5093 203.437 15.256C203.352 15.9813 203.245 16.8453 203.117 17.848L202.285 23H196.845ZM215.617 23V7.128H219.457L219.809 9.24H219.937C220.619 8.55733 221.398 7.97067 222.273 7.48C223.169 6.98933 224.214 6.744 225.409 6.744C227.201 6.744 228.513 7.32 229.345 8.472C230.177 9.624 230.593 11.2027 230.593 13.208V23H225.889V13.816C225.889 12.7493 225.707 11.9707 225.345 11.48C225.003 10.9893 224.406 10.744 223.553 10.744C222.913 10.744 222.347 10.8933 221.857 11.192C221.387 11.4693 220.875 11.8747 220.321 12.408V23H215.617Z" fill="#00DA9A"/>
</svg>