<svg width="100%" height="100%" viewBox="0 0 360 77" fill="none"
    xmlns="http://www.w3.org/2000/svg">
    <rect x="1" y="1" width="358" height="75" stroke="#00DA9A" stroke-width="2"/>
    <path d="M28.294 51V47.156H33.006V34.632H28.294V30.788H42.306V34.632H37.594V47.156H42.306V51H28.294ZM46.8199 51V35.624H50.5399L50.8809 37.67H51.0049C51.6662 37.0087 52.4206 36.4403 53.2679 35.965C54.1359 35.4897 55.1486 35.252 56.3059 35.252C58.0419 35.252 59.3129 35.81 60.1189 36.926C60.9249 38.042 61.3279 39.5713 61.3279 41.514V51H56.7709V42.103C56.7709 41.0697 56.5952 40.3153 56.2439 39.84C55.9132 39.3647 55.3346 39.127 54.5079 39.127C53.8879 39.127 53.3402 39.2717 52.8649 39.561C52.4102 39.8297 51.9142 40.2223 51.3769 40.739V51H46.8199ZM75.4208 51.372C73.4988 51.372 72.0418 50.7933 71.0498 49.636C70.0578 48.4787 69.5618 46.9287 69.5618 44.986V32.865H64.7568V29.3H74.1188V45.172C74.1188 46.1227 74.3771 46.784 74.8938 47.156C75.4104 47.5073 75.9788 47.683 76.5988 47.683C76.9708 47.683 77.3428 47.6417 77.7148 47.559C78.1074 47.4763 78.5414 47.3523 79.0168 47.187L80.0088 50.535C79.2234 50.783 78.5001 50.9793 77.8388 51.124C77.1981 51.2893 76.3921 51.372 75.4208 51.372ZM90.3817 51V39.189H84.1817V35.624H94.9387V51H90.3817ZM92.4587 33.206C91.5907 33.206 90.8673 32.958 90.2887 32.462C89.71 31.9453 89.4207 31.2737 89.4207 30.447C89.4207 29.5997 89.71 28.9177 90.2887 28.401C90.8673 27.8637 91.5907 27.595 92.4587 27.595C93.3473 27.595 94.0707 27.8637 94.6287 28.401C95.2073 28.9177 95.4967 29.5997 95.4967 30.447C95.4967 31.2737 95.2073 31.9453 94.6287 32.462C94.0707 32.958 93.3473 33.206 92.4587 33.206ZM102.584 51V35.624H106.304L106.645 37.67H106.769C107.43 37.0087 108.184 36.4403 109.032 35.965C109.9 35.4897 110.912 35.252 112.07 35.252C113.806 35.252 115.077 35.81 115.883 36.926C116.689 38.042 117.092 39.5713 117.092 41.514V51H112.535V42.103C112.535 41.0697 112.359 40.3153 112.008 39.84C111.677 39.3647 111.098 39.127 110.272 39.127C109.652 39.127 109.104 39.2717 108.629 39.561C108.174 39.8297 107.678 40.2223 107.141 40.739V51H102.584ZM129.169 51.372C127.578 51.372 126.131 51.062 124.829 50.442C123.548 49.8013 122.525 48.8817 121.76 47.683C121.016 46.4637 120.644 45.0067 120.644 43.312C120.644 41.638 121.027 40.2017 121.791 39.003C122.556 37.7837 123.548 36.8537 124.767 36.213C125.987 35.5723 127.278 35.252 128.642 35.252C130.234 35.252 131.567 35.5827 132.641 36.244C133.716 36.8847 134.522 37.763 135.059 38.879C135.617 39.9743 135.896 41.2247 135.896 42.63C135.896 43.0433 135.865 43.4463 135.803 43.839C135.762 44.211 135.721 44.49 135.679 44.676H124.023V41.607H132.61L131.897 42.475C131.897 41.235 131.629 40.305 131.091 39.685C130.575 39.0443 129.81 38.724 128.797 38.724C128.053 38.724 127.402 38.8893 126.844 39.22C126.286 39.5507 125.852 40.057 125.542 40.739C125.232 41.421 125.077 42.2787 125.077 43.312C125.077 44.366 125.263 45.234 125.635 45.916C126.007 46.5773 126.545 47.0733 127.247 47.404C127.95 47.7347 128.797 47.9 129.789 47.9C130.492 47.9 131.153 47.807 131.773 47.621C132.414 47.435 133.075 47.1663 133.757 46.815L135.276 49.574C134.388 50.132 133.406 50.5763 132.331 50.907C131.257 51.217 130.203 51.372 129.169 51.372ZM144.533 51V34.632H138.488V30.788H155.166V34.632H149.121V51H144.533ZM166.345 51.372C164.754 51.372 163.307 51.062 162.005 50.442C160.724 49.8013 159.701 48.8817 158.936 47.683C158.192 46.4637 157.82 45.0067 157.82 43.312C157.82 41.638 158.203 40.2017 158.967 39.003C159.732 37.7837 160.724 36.8537 161.943 36.213C163.163 35.5723 164.454 35.252 165.818 35.252C167.41 35.252 168.743 35.5827 169.817 36.244C170.892 36.8847 171.698 37.763 172.235 38.879C172.793 39.9743 173.072 41.2247 173.072 42.63C173.072 43.0433 173.041 43.4463 172.979 43.839C172.938 44.211 172.897 44.49 172.855 44.676H161.199V41.607H169.786L169.073 42.475C169.073 41.235 168.805 40.305 168.267 39.685C167.751 39.0443 166.986 38.724 165.973 38.724C165.229 38.724 164.578 38.8893 164.02 39.22C163.462 39.5507 163.028 40.057 162.718 40.739C162.408 41.421 162.253 42.2787 162.253 43.312C162.253 44.366 162.439 45.234 162.811 45.916C163.183 46.5773 163.721 47.0733 164.423 47.404C165.126 47.7347 165.973 47.9 166.965 47.9C167.668 47.9 168.329 47.807 168.949 47.621C169.59 47.435 170.251 47.1663 170.933 46.815L172.452 49.574C171.564 50.132 170.582 50.5763 169.507 50.907C168.433 51.217 167.379 51.372 166.345 51.372ZM175.85 51L181.182 43.002L176.191 35.624H181.089L182.67 38.104C182.918 38.538 183.187 38.9823 183.476 39.437C183.765 39.871 184.034 40.305 184.282 40.739H184.406C184.592 40.305 184.799 39.8607 185.026 39.406C185.274 38.9513 185.491 38.5173 185.677 38.104L187.041 35.624H191.815L186.793 43.529L192.125 51H187.227L185.46 48.458C185.171 48.024 184.871 47.5797 184.561 47.125C184.272 46.6703 183.982 46.226 183.693 45.792H183.569C183.342 46.226 183.104 46.6703 182.856 47.125C182.608 47.559 182.37 48.0033 182.143 48.458L180.624 51H175.85ZM205.319 51.372C203.686 51.372 202.384 51.093 201.413 50.535C200.462 49.9563 199.77 49.1607 199.336 48.148C198.902 47.1353 198.685 45.9573 198.685 44.614V39.189H194.841V35.81L198.902 35.624L199.491 30.912H203.242V35.624H209.752V39.189H203.242V44.583C203.242 45.3477 203.356 45.9677 203.583 46.443C203.81 46.9183 204.162 47.2697 204.637 47.497C205.112 47.7037 205.722 47.807 206.466 47.807C207.065 47.807 207.613 47.7553 208.109 47.652C208.605 47.5487 209.08 47.4143 209.535 47.249L210.341 50.535C209.659 50.7417 208.905 50.9277 208.078 51.093C207.272 51.279 206.352 51.372 205.319 51.372ZM214.173 51V30.788H220.962C222.367 30.788 223.628 30.943 224.744 31.253C225.86 31.5423 226.738 32.0487 227.379 32.772C228.04 33.4953 228.371 34.508 228.371 35.81C228.371 36.7193 228.092 37.5977 227.534 38.445C226.976 39.2923 226.098 39.871 224.899 40.181V40.305C226.346 40.553 227.441 41.0697 228.185 41.855C228.929 42.6197 229.301 43.684 229.301 45.048C229.301 46.412 228.96 47.5383 228.278 48.427C227.596 49.295 226.666 49.946 225.488 50.38C224.331 50.7933 223.018 51 221.551 51H214.173ZM218.73 38.91H220.745C221.861 38.91 222.667 38.693 223.163 38.259C223.659 37.8043 223.907 37.1947 223.907 36.43C223.907 35.686 223.649 35.159 223.132 34.849C222.636 34.5183 221.851 34.353 220.776 34.353H218.73V38.91ZM218.73 47.435H221.179C222.419 47.435 223.339 47.2077 223.938 46.753C224.537 46.2983 224.837 45.6163 224.837 44.707C224.837 43.8183 224.537 43.1777 223.938 42.785C223.339 42.3923 222.419 42.196 221.179 42.196H218.73V47.435ZM242.712 51.372C240.79 51.372 239.333 50.7933 238.341 49.636C237.349 48.4787 236.853 46.9287 236.853 44.986V32.865H232.048V29.3H241.41V45.172C241.41 46.1227 241.668 46.784 242.185 47.156C242.701 47.5073 243.27 47.683 243.89 47.683C244.262 47.683 244.634 47.6417 245.006 47.559C245.398 47.4763 245.832 47.3523 246.308 47.187L247.3 50.535C246.514 50.783 245.791 50.9793 245.13 51.124C244.489 51.2893 243.683 51.372 242.712 51.372ZM258.355 51.372C257.011 51.372 255.74 51.062 254.542 50.442C253.343 49.8013 252.372 48.8817 251.628 47.683C250.884 46.4637 250.512 45.0067 250.512 43.312C250.512 41.6173 250.884 40.1707 251.628 38.972C252.372 37.7527 253.343 36.833 254.542 36.213C255.74 35.5723 257.011 35.252 258.355 35.252C259.698 35.252 260.969 35.5723 262.168 36.213C263.366 36.833 264.338 37.7527 265.082 38.972C265.826 40.1707 266.198 41.6173 266.198 43.312C266.198 45.0067 265.826 46.4637 265.082 47.683C264.338 48.8817 263.366 49.8013 262.168 50.442C260.969 51.062 259.698 51.372 258.355 51.372ZM258.355 47.683C259.057 47.683 259.636 47.5073 260.091 47.156C260.566 46.8047 260.917 46.2983 261.145 45.637C261.393 44.9757 261.517 44.2007 261.517 43.312C261.517 42.4233 261.393 41.6483 261.145 40.987C260.917 40.3257 260.566 39.8193 260.091 39.468C259.636 39.1167 259.057 38.941 258.355 38.941C257.652 38.941 257.063 39.1167 256.588 39.468C256.133 39.8193 255.782 40.3257 255.534 40.987C255.306 41.6483 255.193 42.4233 255.193 43.312C255.193 44.2007 255.306 44.9757 255.534 45.637C255.782 46.2983 256.133 46.8047 256.588 47.156C257.063 47.5073 257.652 47.683 258.355 47.683ZM278.276 51.372C276.664 51.372 275.207 51.062 273.905 50.442C272.623 49.8013 271.6 48.8817 270.836 47.683C270.092 46.4637 269.72 45.0067 269.72 43.312C269.72 41.6173 270.133 40.1707 270.96 38.972C271.786 37.7527 272.871 36.833 274.215 36.213C275.579 35.5723 277.046 35.252 278.617 35.252C279.836 35.252 280.942 35.4483 281.934 35.841C282.926 36.213 283.742 36.709 284.383 37.329L282.275 40.15C281.675 39.7367 281.097 39.437 280.539 39.251C280.001 39.0443 279.443 38.941 278.865 38.941C277.997 38.941 277.222 39.1167 276.54 39.468C275.858 39.8193 275.331 40.3257 274.959 40.987C274.587 41.6483 274.401 42.4233 274.401 43.312C274.401 44.2007 274.576 44.9757 274.928 45.637C275.3 46.2983 275.806 46.8047 276.447 47.156C277.108 47.5073 277.862 47.683 278.71 47.683C279.516 47.683 280.249 47.5383 280.911 47.249C281.593 46.9597 282.213 46.6187 282.771 46.226L284.6 49.109C283.69 49.8737 282.667 50.442 281.531 50.814C280.415 51.186 279.33 51.372 278.276 51.372ZM288.586 51V29.269H293.143V41.824H293.267L298.909 35.624H303.9L293.143 47.125V51H288.586ZM299.436 51L294.972 44.025L297.576 41.204L304.365 51H299.436Z" fill="#00CF92"/>
    <circle cx="322.5" cy="39.5" r="13.5" stroke="#00CF92" stroke-width="2"/>
    <ellipse cx="317" cy="34.5" rx="2" ry="2.5" fill="#00DA9A"/>
    <ellipse cx="328" cy="34.5" rx="2" ry="2.5" fill="#00DA9A"/>
    <path d="M328.62 43.566C329.278 43.296 329.973 43.797 329.68 44.4449C329.326 45.2272 328.686 45.9472 327.803 46.5355C326.397 47.4732 324.489 48 322.5 48C320.511 48 318.603 47.4732 317.197 46.5355C316.314 45.9472 315.674 45.2272 315.32 44.4449C315.027 43.797 315.722 43.296 316.38 43.566L318.704 44.5198C321.136 45.5175 323.864 45.5175 326.296 44.5198L328.62 43.566Z" fill="#00DA9A"/>
</svg>