<svg width="292" height="300" viewBox="0 0 292 300" fill="none" xmlns="http://www.w3.org/2000/svg">
<path d="M71.176 31V10.136H75.944V18.68H76.04L82.216 10.136H87.432L75.944 25.304V31H71.176ZM82.792 31L77.928 21.304L80.712 17.624L88.008 31H82.792ZM98.7475 31.384C97.1048 31.384 95.6115 31.064 94.2675 30.424C92.9448 29.7627 91.8888 28.8133 91.0995 27.576C90.3315 26.3173 89.9475 24.8133 89.9475 23.064C89.9475 21.336 90.3422 19.8533 91.1315 18.616C91.9208 17.3573 92.9448 16.3973 94.2035 15.736C95.4622 15.0747 96.7955 14.744 98.2035 14.744C99.8462 14.744 101.222 15.0853 102.332 15.768C103.441 16.4293 104.273 17.336 104.828 18.488C105.404 19.6187 105.692 20.9093 105.692 22.36C105.692 22.7867 105.66 23.2027 105.596 23.608C105.553 23.992 105.51 24.28 105.468 24.472H93.4355V21.304H102.3L101.564 22.2C101.564 20.92 101.286 19.96 100.732 19.32C100.198 18.6587 99.4088 18.328 98.3635 18.328C97.5955 18.328 96.9235 18.4987 96.3475 18.84C95.7715 19.1813 95.3235 19.704 95.0035 20.408C94.6835 21.112 94.5235 21.9973 94.5235 23.064C94.5235 24.152 94.7155 25.048 95.0995 25.752C95.4835 26.4347 96.0382 26.9467 96.7635 27.288C97.4888 27.6293 98.3635 27.8 99.3875 27.8C100.113 27.8 100.796 27.704 101.436 27.512C102.097 27.32 102.78 27.0427 103.484 26.68L105.052 29.528C104.134 30.104 103.121 30.5627 102.012 30.904C100.902 31.224 99.8142 31.384 98.7475 31.384ZM111.951 37.208C111.482 37.208 111.044 37.176 110.639 37.112C110.234 37.048 109.86 36.9733 109.519 36.888L110.351 33.304C110.564 33.368 110.778 33.4107 110.991 33.432C111.204 33.4747 111.407 33.496 111.599 33.496C112.516 33.496 113.231 33.2933 113.743 32.888C114.276 32.504 114.671 32.0133 114.927 31.416L115.247 30.584L108.367 15.128H113.039L115.695 21.944C115.994 22.6907 116.271 23.4693 116.527 24.28C116.783 25.0693 117.039 25.88 117.295 26.712H117.423C117.636 25.9227 117.871 25.1227 118.127 24.312C118.383 23.5013 118.628 22.712 118.863 21.944L121.199 15.128H125.647L119.375 31.16C118.884 32.4827 118.308 33.592 117.647 34.488C117.007 35.384 116.228 36.056 115.311 36.504C114.415 36.9733 113.295 37.208 111.951 37.208ZM137.379 31.384C136.653 31.384 135.907 31.2027 135.139 30.84C134.392 30.4773 133.699 29.9547 133.059 29.272H132.931L132.547 31H128.867V8.568H133.571V14.072L133.411 16.568H133.507C134.125 15.992 134.808 15.544 135.555 15.224C136.323 14.904 137.091 14.744 137.859 14.744C139.203 14.744 140.344 15.0747 141.283 15.736C142.242 16.3973 142.979 17.336 143.491 18.552C144.003 19.7467 144.259 21.1547 144.259 22.776C144.259 24.5893 143.928 26.1467 143.267 27.448C142.627 28.728 141.784 29.7093 140.739 30.392C139.693 31.0533 138.573 31.384 137.379 31.384ZM136.323 27.544C136.899 27.544 137.421 27.384 137.891 27.064C138.36 26.744 138.733 26.2427 139.011 25.56C139.288 24.856 139.427 23.96 139.427 22.872C139.427 21.912 139.32 21.1227 139.107 20.504C138.893 19.864 138.573 19.384 138.147 19.064C137.741 18.744 137.197 18.584 136.515 18.584C136.003 18.584 135.501 18.7013 135.01 18.936C134.541 19.1493 134.061 19.5227 133.571 20.056V26.488C134.019 26.8507 134.477 27.1173 134.947 27.288C135.437 27.4587 135.896 27.544 136.323 27.544ZM154.646 31V18.808H148.246V15.128H159.35V31H154.646ZM156.79 12.632C155.894 12.632 155.147 12.376 154.55 11.864C153.953 11.3307 153.654 10.6373 153.654 9.784C153.654 8.90933 153.953 8.20533 154.55 7.672C155.147 7.11733 155.894 6.84 156.79 6.84C157.707 6.84 158.454 7.11733 159.03 7.672C159.627 8.20533 159.926 8.90933 159.926 9.784C159.926 10.6373 159.627 11.3307 159.03 11.864C158.454 12.376 157.707 12.632 156.79 12.632ZM167.242 31V15.128H171.082L171.434 17.24H171.562C172.244 16.5573 173.023 15.9707 173.898 15.48C174.794 14.9893 175.839 14.744 177.034 14.744C178.826 14.744 180.138 15.32 180.97 16.472C181.802 17.624 182.218 19.2027 182.218 21.208V31H177.514V21.816C177.514 20.7493 177.332 19.9707 176.97 19.48C176.628 18.9893 176.031 18.744 175.178 18.744C174.538 18.744 173.972 18.8933 173.482 19.192C173.012 19.4693 172.5 19.8747 171.946 20.408V31H167.242ZM192.317 31.384C190.312 31.384 188.69 30.648 187.453 29.176C186.237 27.6827 185.629 25.6453 185.629 23.064C185.629 21.336 185.949 19.8533 186.589 18.616C187.25 17.3787 188.104 16.4293 189.149 15.768C190.194 15.0853 191.282 14.744 192.413 14.744C193.288 14.744 194.045 14.8933 194.685 15.192C195.325 15.4907 195.901 15.9067 196.413 16.44H196.541L196.317 13.976V8.568H201.021V31H197.181L196.829 29.368H196.733C196.157 29.944 195.474 30.424 194.685 30.808C193.917 31.192 193.128 31.384 192.317 31.384ZM193.533 27.544C194.066 27.544 194.557 27.4373 195.005 27.224C195.474 26.9893 195.912 26.6053 196.317 26.072V19.64C195.89 19.256 195.453 18.9893 195.005 18.84C194.578 18.6693 194.13 18.584 193.661 18.584C193.085 18.584 192.552 18.744 192.061 19.064C191.57 19.384 191.176 19.8747 190.877 20.536C190.6 21.176 190.461 21.9973 190.461 23C190.461 24.5573 190.728 25.7093 191.261 26.456C191.794 27.1813 192.552 27.544 193.533 27.544ZM212.785 31.384C211.377 31.384 209.979 31.1493 208.593 30.68C207.206 30.1893 206.011 29.6133 205.009 28.952L207.025 26.008C207.985 26.6267 208.998 27.096 210.065 27.416C211.153 27.736 212.273 27.896 213.425 27.896C214.299 27.896 214.939 27.768 215.345 27.512C215.75 27.2347 215.953 26.9147 215.953 26.552C215.953 26.3173 215.889 26.1253 215.761 25.976C215.654 25.8053 215.451 25.656 215.153 25.528C214.875 25.3787 214.481 25.24 213.969 25.112C213.478 24.984 212.838 24.8347 212.049 24.664C209.894 24.1947 208.347 23.5547 207.409 22.744C206.47 21.9333 206.001 20.92 206.001 19.704C206.001 18.2107 206.651 17.016 207.953 16.12C209.254 15.2027 211.035 14.744 213.297 14.744C214.726 14.744 216.017 14.9787 217.169 15.448C218.342 15.896 219.345 16.3867 220.177 16.92L218.065 19.736C217.275 19.2453 216.433 18.872 215.537 18.616C214.641 18.36 213.755 18.232 212.881 18.232C212.39 18.232 211.985 18.2853 211.665 18.392C211.345 18.4773 211.099 18.6267 210.929 18.84C210.758 19.032 210.673 19.2453 210.673 19.48C210.673 19.9067 210.95 20.2267 211.505 20.44C212.059 20.632 213.009 20.8773 214.353 21.176C215.974 21.5387 217.243 21.9547 218.161 22.424C219.078 22.8933 219.707 23.4373 220.049 24.056C220.411 24.6533 220.593 25.3893 220.593 26.264C220.593 27.224 220.294 28.088 219.697 28.856C219.121 29.624 218.246 30.2427 217.073 30.712C215.921 31.16 214.491 31.384 212.785 31.384Z" fill="#00DA9A"/>
<rect x="1" y="45" width="290" height="254" rx="16" stroke="#00DA9A" stroke-width="2"/>
<path d="M14.31 92V77.656H23.836V80.384H17.544V83.706H22.912V86.434H17.544V92H14.31ZM31.7914 92.264C30.8381 92.264 29.9361 92.044 29.0854 91.604C28.2347 91.1493 27.5454 90.4967 27.0174 89.646C26.4894 88.7807 26.2254 87.7467 26.2254 86.544C26.2254 85.3413 26.4894 84.3147 27.0174 83.464C27.5454 82.5987 28.2347 81.946 29.0854 81.506C29.9361 81.0513 30.8381 80.824 31.7914 80.824C32.7447 80.824 33.6467 81.0513 34.4974 81.506C35.3481 81.946 36.0374 82.5987 36.5654 83.464C37.0934 84.3147 37.3574 85.3413 37.3574 86.544C37.3574 87.7467 37.0934 88.7807 36.5654 89.646C36.0374 90.4967 35.3481 91.1493 34.4974 91.604C33.6467 92.044 32.7447 92.264 31.7914 92.264ZM31.7914 89.646C32.2901 89.646 32.7007 89.5213 33.0234 89.272C33.3607 89.0227 33.6101 88.6633 33.7714 88.194C33.9474 87.7247 34.0354 87.1747 34.0354 86.544C34.0354 85.9133 33.9474 85.3633 33.7714 84.894C33.6101 84.4247 33.3607 84.0653 33.0234 83.816C32.7007 83.5667 32.2901 83.442 31.7914 83.442C31.2927 83.442 30.8747 83.5667 30.5374 83.816C30.2147 84.0653 29.9654 84.4247 29.7894 84.894C29.6281 85.3633 29.5474 85.9133 29.5474 86.544C29.5474 87.1747 29.6281 87.7247 29.7894 88.194C29.9654 88.6633 30.2147 89.0227 30.5374 89.272C30.8747 89.5213 31.2927 89.646 31.7914 89.646ZM40.9348 92V81.088H43.5748L43.8388 83.464H43.9048C44.4475 82.5693 45.1001 81.9093 45.8628 81.484C46.6401 81.044 47.4615 80.824 48.3268 80.824C48.8108 80.824 49.1995 80.8607 49.4928 80.934C49.8008 81.0073 50.1161 81.1173 50.4388 81.264L49.7788 83.97C49.4415 83.8673 49.1335 83.794 48.8548 83.75C48.5908 83.6913 48.2535 83.662 47.8428 83.662C47.1681 83.662 46.5008 83.86 45.8408 84.256C45.1955 84.652 44.6381 85.3413 44.1688 86.324V92H40.9348ZM53.4442 92L51.6622 81.088H54.7862L55.4682 86.148C55.5416 86.676 55.6002 87.2113 55.6442 87.754C55.7029 88.282 55.7616 88.8247 55.8202 89.382H55.8862C55.9596 88.8247 56.0329 88.2747 56.1062 87.732C56.1942 87.1893 56.2896 86.6613 56.3922 86.148L57.0742 82.54H59.4282L60.1322 86.148C60.2349 86.676 60.3302 87.2113 60.4182 87.754C60.5209 88.282 60.6089 88.8247 60.6822 89.382H60.7702C60.8436 88.8247 60.8949 88.282 60.9242 87.754C60.9682 87.2113 61.0196 86.676 61.0782 86.148L61.6942 81.088H64.6862L63.0142 92H59.2082L58.6142 88.458C58.5556 87.974 58.4896 87.468 58.4162 86.94C58.3576 86.412 58.2916 85.84 58.2182 85.224H58.1302C58.0862 85.6787 58.0349 86.1627 57.9762 86.676C57.9176 87.1747 57.8442 87.7687 57.7562 88.458L57.1842 92H53.4442ZM69.6936 92.264C68.9603 92.264 68.3223 92.1173 67.7796 91.824C67.2516 91.5307 66.841 91.1347 66.5476 90.636C66.2543 90.1373 66.1076 89.58 66.1076 88.964C66.1076 87.7467 66.6576 86.8153 67.7576 86.17C68.8723 85.5247 70.7203 85.1287 73.3016 84.982C73.2576 84.6447 73.1476 84.3587 72.9716 84.124C72.7956 83.8893 72.539 83.7133 72.2016 83.596C71.879 83.464 71.4683 83.398 70.9696 83.398C70.6176 83.398 70.2656 83.442 69.9136 83.53C69.5616 83.6033 69.195 83.7207 68.8136 83.882C68.447 84.0287 68.0583 84.2047 67.6476 84.41L66.5036 82.298C67.0023 82.0047 67.523 81.748 68.0656 81.528C68.623 81.308 69.195 81.1393 69.7816 81.022C70.383 80.89 70.9916 80.824 71.6076 80.824C72.6343 80.824 73.5143 81.0073 74.2476 81.374C74.981 81.726 75.5456 82.2687 75.9416 83.002C76.3376 83.7207 76.5356 84.6373 76.5356 85.752V92H73.8956L73.6536 90.768H73.5656C73.023 91.1787 72.4216 91.5307 71.7616 91.824C71.1016 92.1173 70.4123 92.264 69.6936 92.264ZM70.7276 89.756C71.2116 89.756 71.6663 89.6607 72.0916 89.47C72.517 89.2647 72.9203 89.0153 73.3016 88.722V86.918C72.231 86.9767 71.395 87.0867 70.7936 87.248C70.207 87.4093 69.7963 87.6147 69.5616 87.864C69.327 88.1133 69.2096 88.3993 69.2096 88.722C69.2096 88.942 69.2683 89.1327 69.3856 89.294C69.5176 89.4553 69.6936 89.5727 69.9136 89.646C70.1483 89.7193 70.4196 89.756 70.7276 89.756ZM80.509 92V81.088H83.149L83.413 83.464H83.479C84.0217 82.5693 84.6744 81.9093 85.437 81.484C86.2144 81.044 87.0357 80.824 87.901 80.824C88.385 80.824 88.7737 80.8607 89.067 80.934C89.375 81.0073 89.6904 81.1173 90.013 81.264L89.353 83.97C89.0157 83.8673 88.7077 83.794 88.429 83.75C88.165 83.6913 87.8277 83.662 87.417 83.662C86.7424 83.662 86.075 83.86 85.415 84.256C84.7697 84.652 84.2124 85.3413 83.743 86.324V92H80.509ZM96.7804 92.264C95.4018 92.264 94.2871 91.758 93.4364 90.746C92.6004 89.7193 92.1824 88.3187 92.1824 86.544C92.1824 85.356 92.4024 84.3367 92.8424 83.486C93.2971 82.6353 93.8838 81.9827 94.6024 81.528C95.3211 81.0587 96.0691 80.824 96.8464 80.824C97.4478 80.824 97.9684 80.9267 98.4084 81.132C98.8484 81.3373 99.2444 81.6233 99.5964 81.99H99.6844L99.5304 80.296V76.578H102.764V92H100.124L99.8824 90.878H99.8164C99.4204 91.274 98.9511 91.604 98.4084 91.868C97.8804 92.132 97.3378 92.264 96.7804 92.264ZM97.6164 89.624C97.9831 89.624 98.3204 89.5507 98.6284 89.404C98.9511 89.2427 99.2518 88.9787 99.5304 88.612V84.19C99.2371 83.926 98.9364 83.7427 98.6284 83.64C98.3351 83.5227 98.0271 83.464 97.7044 83.464C97.3084 83.464 96.9418 83.574 96.6044 83.794C96.2671 84.014 95.9958 84.3513 95.7904 84.806C95.5998 85.246 95.5044 85.8107 95.5044 86.5C95.5044 87.5707 95.6878 88.3627 96.0544 88.876C96.4211 89.3747 96.9418 89.624 97.6164 89.624Z" fill="#00DA9A"/>
<rect x="140" y="57" width="139" height="53" rx="16" stroke="#00DA9A" stroke-width="2"/>
<path d="M202.912 95L200.128 74.136H205.024L205.664 85.24C205.664 85.8373 205.675 86.424 205.696 87C205.717 87.5547 205.728 88.12 205.728 88.696C205.749 89.2507 205.76 89.848 205.76 90.488H205.888C205.973 89.848 206.069 89.2507 206.176 88.696C206.304 88.12 206.432 87.544 206.56 86.968C206.688 86.392 206.805 85.816 206.912 85.24L208.32 79.416H211.328L212.64 85.24C212.768 85.816 212.885 86.3813 212.992 86.936C213.099 87.4907 213.216 88.0667 213.344 88.664C213.472 89.24 213.579 89.848 213.664 90.488H213.792C213.813 89.848 213.824 89.24 213.824 88.664C213.845 88.0667 213.856 87.4907 213.856 86.936C213.877 86.3813 213.899 85.816 213.92 85.24L214.496 74.136H219.072L216.512 95H211.456L210.24 88.536C210.112 87.8747 209.995 87.2027 209.888 86.52C209.781 85.8373 209.707 85.1867 209.664 84.568H209.568C209.504 85.1867 209.429 85.8373 209.344 86.52C209.259 87.2027 209.152 87.8747 209.024 88.536L207.808 95H202.912Z" fill="#00DA9A"/>
<path d="M13.628 151V136.656H18.446C19.4433 136.656 20.338 136.766 21.13 136.986C21.922 137.191 22.5453 137.551 23 138.064C23.4693 138.577 23.704 139.296 23.704 140.22C23.704 140.865 23.506 141.489 23.11 142.09C22.714 142.691 22.0907 143.102 21.24 143.322V143.41C22.2667 143.586 23.044 143.953 23.572 144.51C24.1 145.053 24.364 145.808 24.364 146.776C24.364 147.744 24.122 148.543 23.638 149.174C23.154 149.79 22.494 150.252 21.658 150.56C20.8367 150.853 19.9053 151 18.864 151H13.628ZM16.862 142.42H18.292C19.084 142.42 19.656 142.266 20.008 141.958C20.36 141.635 20.536 141.203 20.536 140.66C20.536 140.132 20.3527 139.758 19.986 139.538C19.634 139.303 19.0767 139.186 18.314 139.186H16.862V142.42ZM16.862 148.47H18.6C19.48 148.47 20.1327 148.309 20.558 147.986C20.9833 147.663 21.196 147.179 21.196 146.534C21.196 145.903 20.9833 145.449 20.558 145.17C20.1327 144.891 19.48 144.752 18.6 144.752H16.862V148.47ZM30.1194 151.264C29.3861 151.264 28.7481 151.117 28.2054 150.824C27.6774 150.531 27.2667 150.135 26.9734 149.636C26.6801 149.137 26.5334 148.58 26.5334 147.964C26.5334 146.747 27.0834 145.815 28.1834 145.17C29.2981 144.525 31.1461 144.129 33.7274 143.982C33.6834 143.645 33.5734 143.359 33.3974 143.124C33.2214 142.889 32.9647 142.713 32.6274 142.596C32.3047 142.464 31.8941 142.398 31.3954 142.398C31.0434 142.398 30.6914 142.442 30.3394 142.53C29.9874 142.603 29.6207 142.721 29.2394 142.882C28.8727 143.029 28.4841 143.205 28.0734 143.41L26.9294 141.298C27.4281 141.005 27.9487 140.748 28.4914 140.528C29.0487 140.308 29.6207 140.139 30.2074 140.022C30.8087 139.89 31.4174 139.824 32.0334 139.824C33.0601 139.824 33.9401 140.007 34.6734 140.374C35.4067 140.726 35.9714 141.269 36.3674 142.002C36.7634 142.721 36.9614 143.637 36.9614 144.752V151H34.3214L34.0794 149.768H33.9914C33.4487 150.179 32.8474 150.531 32.1874 150.824C31.5274 151.117 30.8381 151.264 30.1194 151.264ZM31.1534 148.756C31.6374 148.756 32.0921 148.661 32.5174 148.47C32.9427 148.265 33.3461 148.015 33.7274 147.722V145.918C32.6567 145.977 31.8207 146.087 31.2194 146.248C30.6327 146.409 30.2221 146.615 29.9874 146.864C29.7527 147.113 29.6354 147.399 29.6354 147.722C29.6354 147.942 29.6941 148.133 29.8114 148.294C29.9434 148.455 30.1194 148.573 30.3394 148.646C30.5741 148.719 30.8454 148.756 31.1534 148.756ZM45.9288 151.264C44.7848 151.264 43.7508 151.044 42.8268 150.604C41.9175 150.149 41.1915 149.497 40.6488 148.646C40.1208 147.781 39.8568 146.747 39.8568 145.544C39.8568 144.341 40.1501 143.315 40.7368 142.464C41.3235 141.599 42.0935 140.946 43.0468 140.506C44.0148 140.051 45.0561 139.824 46.1708 139.824C47.0361 139.824 47.8208 139.963 48.5248 140.242C49.2288 140.506 49.8081 140.858 50.2628 141.298L48.7668 143.3C48.3415 143.007 47.9308 142.794 47.5348 142.662C47.1535 142.515 46.7575 142.442 46.3468 142.442C45.7308 142.442 45.1808 142.567 44.6968 142.816C44.2128 143.065 43.8388 143.425 43.5748 143.894C43.3108 144.363 43.1788 144.913 43.1788 145.544C43.1788 146.175 43.3035 146.725 43.5528 147.194C43.8168 147.663 44.1761 148.023 44.6308 148.272C45.1001 148.521 45.6355 148.646 46.2368 148.646C46.8088 148.646 47.3295 148.543 47.7988 148.338C48.2828 148.133 48.7228 147.891 49.1188 147.612L50.4168 149.658C49.7715 150.201 49.0455 150.604 48.2388 150.868C47.4468 151.132 46.6768 151.264 45.9288 151.264ZM53.2462 151V135.578H56.4802V144.488H56.5682L60.5722 140.088H64.1142L56.4802 148.25V151H53.2462ZM60.9462 151L57.7782 146.05L59.6262 144.048L64.4442 151H60.9462ZM66.6356 151L64.8536 140.088H67.9776L68.6596 145.148C68.733 145.676 68.7916 146.211 68.8356 146.754C68.8943 147.282 68.953 147.825 69.0116 148.382H69.0776C69.151 147.825 69.2243 147.275 69.2976 146.732C69.3856 146.189 69.481 145.661 69.5836 145.148L70.2656 141.54H72.6196L73.3236 145.148C73.4263 145.676 73.5216 146.211 73.6096 146.754C73.7123 147.282 73.8003 147.825 73.8736 148.382H73.9616C74.035 147.825 74.0863 147.282 74.1156 146.754C74.1596 146.211 74.211 145.676 74.2696 145.148L74.8856 140.088H77.8776L76.2056 151H72.3996L71.8056 147.458C71.747 146.974 71.681 146.468 71.6076 145.94C71.549 145.412 71.483 144.84 71.4096 144.224H71.3216C71.2776 144.679 71.2263 145.163 71.1676 145.676C71.109 146.175 71.0356 146.769 70.9476 147.458L70.3756 151H66.6356ZM82.885 151.264C82.1517 151.264 81.5137 151.117 80.971 150.824C80.443 150.531 80.0324 150.135 79.739 149.636C79.4457 149.137 79.299 148.58 79.299 147.964C79.299 146.747 79.849 145.815 80.949 145.17C82.0637 144.525 83.9117 144.129 86.493 143.982C86.449 143.645 86.339 143.359 86.163 143.124C85.987 142.889 85.7304 142.713 85.393 142.596C85.0704 142.464 84.6597 142.398 84.161 142.398C83.809 142.398 83.457 142.442 83.105 142.53C82.753 142.603 82.3864 142.721 82.005 142.882C81.6384 143.029 81.2497 143.205 80.839 143.41L79.695 141.298C80.1937 141.005 80.7144 140.748 81.257 140.528C81.8144 140.308 82.3864 140.139 82.973 140.022C83.5744 139.89 84.183 139.824 84.799 139.824C85.8257 139.824 86.7057 140.007 87.439 140.374C88.1724 140.726 88.737 141.269 89.133 142.002C89.529 142.721 89.727 143.637 89.727 144.752V151H87.087L86.845 149.768H86.757C86.2144 150.179 85.613 150.531 84.953 150.824C84.293 151.117 83.6037 151.264 82.885 151.264ZM83.919 148.756C84.403 148.756 84.8577 148.661 85.283 148.47C85.7084 148.265 86.1117 148.015 86.493 147.722V145.918C85.4224 145.977 84.5864 146.087 83.985 146.248C83.3984 146.409 82.9877 146.615 82.753 146.864C82.5184 147.113 82.401 147.399 82.401 147.722C82.401 147.942 82.4597 148.133 82.577 148.294C82.709 148.455 82.885 148.573 83.105 148.646C83.3397 148.719 83.611 148.756 83.919 148.756ZM93.7004 151V140.088H96.3404L96.6044 142.464H96.6704C97.2131 141.569 97.8658 140.909 98.6284 140.484C99.4058 140.044 100.227 139.824 101.092 139.824C101.576 139.824 101.965 139.861 102.258 139.934C102.566 140.007 102.882 140.117 103.204 140.264L102.544 142.97C102.207 142.867 101.899 142.794 101.62 142.75C101.356 142.691 101.019 142.662 100.608 142.662C99.9338 142.662 99.2664 142.86 98.6064 143.256C97.9611 143.652 97.4038 144.341 96.9344 145.324V151H93.7004ZM109.972 151.264C108.593 151.264 107.479 150.758 106.628 149.746C105.792 148.719 105.374 147.319 105.374 145.544C105.374 144.356 105.594 143.337 106.034 142.486C106.489 141.635 107.075 140.983 107.794 140.528C108.513 140.059 109.261 139.824 110.038 139.824C110.639 139.824 111.16 139.927 111.6 140.132C112.04 140.337 112.436 140.623 112.788 140.99H112.876L112.722 139.296V135.578H115.956V151H113.316L113.074 149.878H113.008C112.612 150.274 112.143 150.604 111.6 150.868C111.072 151.132 110.529 151.264 109.972 151.264ZM110.808 148.624C111.175 148.624 111.512 148.551 111.82 148.404C112.143 148.243 112.443 147.979 112.722 147.612V143.19C112.429 142.926 112.128 142.743 111.82 142.64C111.527 142.523 111.219 142.464 110.896 142.464C110.5 142.464 110.133 142.574 109.796 142.794C109.459 143.014 109.187 143.351 108.982 143.806C108.791 144.246 108.696 144.811 108.696 145.5C108.696 146.571 108.879 147.363 109.246 147.876C109.613 148.375 110.133 148.624 110.808 148.624Z" fill="#00DA9A"/>
<rect x="140" y="116" width="139" height="53" rx="16" stroke="#00DA9A" stroke-width="2"/>
<path d="M200.288 154L206.784 133.136H212.416L218.912 154H213.92L211.232 143.44C210.976 142.395 210.699 141.285 210.4 140.112C210.101 138.939 209.824 137.808 209.568 136.72H209.44C209.184 137.808 208.917 138.939 208.64 140.112C208.363 141.285 208.085 142.395 207.808 143.44L205.088 154H200.288ZM204.576 149.04V145.36H214.56V149.04H204.576Z" fill="#00DA9A"/>
<path d="M14.354 210V195.656H17.588V207.272H23.968V210H14.354ZM32.4514 210.264C31.3221 210.264 30.2954 210.044 29.3714 209.604C28.4621 209.149 27.7361 208.497 27.1934 207.646C26.6654 206.781 26.4014 205.747 26.4014 204.544C26.4014 203.356 26.6727 202.337 27.2154 201.486C27.7581 200.621 28.4621 199.961 29.3274 199.506C30.1927 199.051 31.1094 198.824 32.0774 198.824C33.2067 198.824 34.1527 199.059 34.9154 199.528C35.6781 199.983 36.2501 200.606 36.6314 201.398C37.0274 202.175 37.2254 203.063 37.2254 204.06C37.2254 204.353 37.2034 204.639 37.1594 204.918C37.1301 205.182 37.1007 205.38 37.0714 205.512H28.7994V203.334H34.8934L34.3874 203.95C34.3874 203.07 34.1967 202.41 33.8154 201.97C33.4487 201.515 32.9061 201.288 32.1874 201.288C31.6594 201.288 31.1974 201.405 30.8014 201.64C30.4054 201.875 30.0974 202.234 29.8774 202.718C29.6574 203.202 29.5474 203.811 29.5474 204.544C29.5474 205.292 29.6794 205.908 29.9434 206.392C30.2074 206.861 30.5887 207.213 31.0874 207.448C31.5861 207.683 32.1874 207.8 32.8914 207.8C33.3901 207.8 33.8594 207.734 34.2994 207.602C34.7541 207.47 35.2234 207.279 35.7074 207.03L36.7854 208.988C36.1547 209.384 35.4581 209.699 34.6954 209.934C33.9327 210.154 33.1847 210.264 32.4514 210.264ZM43.0688 210V198.802C43.0688 197.966 43.2375 197.211 43.5748 196.536C43.9268 195.847 44.4548 195.304 45.1588 194.908C45.8775 194.512 46.8088 194.314 47.9528 194.314C48.5835 194.314 49.1775 194.38 49.7348 194.512C50.2921 194.629 50.7981 194.761 51.2528 194.908L50.6368 197.284C50.2848 197.152 49.9181 197.049 49.5368 196.976C49.1701 196.903 48.7741 196.866 48.3488 196.866C47.6595 196.866 47.1461 197.02 46.8088 197.328C46.4715 197.636 46.3028 198.12 46.3028 198.78V210H43.0688ZM40.1868 201.618V199.22L43.1788 199.088H50.0648V201.618H40.1868ZM60.1102 210.264C58.9516 210.264 58.0276 210.066 57.3382 209.67C56.6636 209.259 56.1722 208.695 55.8642 207.976C55.5562 207.257 55.4022 206.421 55.4022 205.468V201.618H52.6742V199.22L55.5562 199.088L55.9742 195.744H58.6362V199.088H63.2562V201.618H58.6362V205.446C58.6362 205.989 58.7169 206.429 58.8782 206.766C59.0396 207.103 59.2889 207.353 59.6262 207.514C59.9636 207.661 60.3962 207.734 60.9242 207.734C61.3496 207.734 61.7382 207.697 62.0902 207.624C62.4422 207.551 62.7796 207.455 63.1022 207.338L63.6742 209.67C63.1902 209.817 62.6549 209.949 62.0682 210.066C61.4962 210.198 60.8436 210.264 60.1102 210.264Z" fill="#00DA9A"/>
<rect x="140" y="175" width="139" height="53" rx="16" stroke="#00DA9A" stroke-width="2"/>
<path d="M209.536 213.384C208.128 213.384 206.731 213.128 205.344 212.616C203.979 212.104 202.731 211.357 201.6 210.376L204.32 207.144C205.109 207.784 205.973 208.307 206.912 208.712C207.872 209.117 208.853 209.32 209.856 209.32C210.859 209.32 211.595 209.149 212.064 208.808C212.555 208.467 212.8 208.029 212.8 207.496C212.8 207.005 212.672 206.621 212.416 206.344C212.16 206.045 211.787 205.789 211.296 205.576C210.805 205.341 210.229 205.085 209.568 204.808L206.88 203.656C206.112 203.357 205.387 202.963 204.704 202.472C204.021 201.96 203.467 201.341 203.04 200.616C202.635 199.869 202.432 198.984 202.432 197.96C202.432 196.808 202.752 195.773 203.392 194.856C204.053 193.917 204.949 193.171 206.08 192.616C207.232 192.04 208.565 191.752 210.08 191.752C211.339 191.752 212.576 191.987 213.792 192.456C215.008 192.925 216.085 193.608 217.024 194.504L214.624 197.48C213.899 196.947 213.173 196.541 212.448 196.264C211.723 195.965 210.848 195.816 209.824 195.816C209.056 195.816 208.427 195.976 207.936 196.296C207.445 196.616 207.2 197.085 207.2 197.704C207.2 198.109 207.349 198.451 207.648 198.728C207.947 199.005 208.352 199.251 208.864 199.464C209.376 199.677 209.963 199.912 210.624 200.168L213.152 201.256C214.091 201.597 214.891 202.024 215.552 202.536C216.213 203.027 216.725 203.635 217.088 204.36C217.451 205.085 217.632 205.939 217.632 206.92C217.632 208.072 217.312 209.139 216.672 210.12C216.053 211.101 215.136 211.891 213.92 212.488C212.725 213.085 211.264 213.384 209.536 213.384Z" fill="#00DA9A"/>
<path d="M13.54 269V254.656H18.622C19.634 254.656 20.558 254.795 21.394 255.074C22.23 255.338 22.8973 255.8 23.396 256.46C23.9093 257.105 24.166 257.993 24.166 259.122C24.166 260.222 23.9093 261.117 23.396 261.806C22.8973 262.495 22.23 263.009 21.394 263.346C20.558 263.669 19.634 263.83 18.622 263.83H16.774V269H13.54ZM16.774 261.256H18.358C19.2087 261.256 19.854 261.08 20.294 260.728C20.7487 260.361 20.976 259.826 20.976 259.122C20.976 258.418 20.7487 257.927 20.294 257.648C19.854 257.369 19.2087 257.23 18.358 257.23H16.774V261.256ZM18.028 262.994L20.272 260.904L24.848 269H21.218L18.028 262.994ZM31.3074 269V260.618H26.9074V258.088H34.5414V269H31.3074ZM32.7814 256.372C32.1654 256.372 31.6521 256.196 31.2414 255.844C30.8307 255.477 30.6254 255.001 30.6254 254.414C30.6254 253.813 30.8307 253.329 31.2414 252.962C31.6521 252.581 32.1654 252.39 32.7814 252.39C33.4121 252.39 33.9254 252.581 34.3214 252.962C34.7321 253.329 34.9374 253.813 34.9374 254.414C34.9374 255.001 34.7321 255.477 34.3214 255.844C33.9254 256.196 33.4121 256.372 32.7814 256.372ZM44.4768 273.642C43.5235 273.642 42.6728 273.539 41.9248 273.334C41.1915 273.143 40.6048 272.843 40.1648 272.432C39.7395 272.021 39.5268 271.493 39.5268 270.848C39.5268 270.408 39.6661 270.005 39.9448 269.638C40.2381 269.271 40.6635 268.949 41.2208 268.67V268.582C40.9128 268.377 40.6488 268.127 40.4288 267.834C40.2235 267.541 40.1208 267.167 40.1208 266.712C40.1208 266.345 40.2381 265.979 40.4728 265.612C40.7221 265.245 41.0375 264.93 41.4188 264.666V264.578C41.0228 264.314 40.6855 263.94 40.4068 263.456C40.1281 262.972 39.9888 262.415 39.9888 261.784C39.9888 260.904 40.2015 260.171 40.6268 259.584C41.0668 258.997 41.6388 258.557 42.3428 258.264C43.0615 257.971 43.8315 257.824 44.6528 257.824C45.3275 257.824 45.9288 257.912 46.4568 258.088H50.8788V260.464H48.6788C48.8108 260.625 48.9208 260.838 49.0088 261.102C49.1115 261.351 49.1628 261.615 49.1628 261.894C49.1628 262.73 48.9575 263.419 48.5468 263.962C48.1508 264.49 47.6155 264.886 46.9408 265.15C46.2661 265.414 45.5035 265.546 44.6528 265.546C44.4475 265.546 44.2128 265.531 43.9488 265.502C43.6848 265.458 43.4208 265.399 43.1568 265.326C42.9808 265.443 42.8561 265.561 42.7828 265.678C42.7095 265.795 42.6728 265.949 42.6728 266.14C42.6728 266.419 42.8195 266.624 43.1128 266.756C43.4208 266.888 43.8901 266.954 44.5208 266.954H46.5448C47.9821 266.954 49.0748 267.167 49.8228 267.592C50.5855 268.017 50.9668 268.721 50.9668 269.704C50.9668 270.467 50.7028 271.141 50.1748 271.728C49.6468 272.329 48.8915 272.799 47.9088 273.136C46.9408 273.473 45.7968 273.642 44.4768 273.642ZM44.6528 263.588C44.9608 263.588 45.2395 263.522 45.4888 263.39C45.7381 263.258 45.9361 263.06 46.0828 262.796C46.2295 262.517 46.3028 262.18 46.3028 261.784C46.3028 261.403 46.2295 261.08 46.0828 260.816C45.9361 260.552 45.7381 260.354 45.4888 260.222C45.2395 260.075 44.9608 260.002 44.6528 260.002C44.3595 260.002 44.0881 260.075 43.8388 260.222C43.5895 260.354 43.3915 260.552 43.2448 260.816C43.0981 261.08 43.0248 261.403 43.0248 261.784C43.0248 262.18 43.0981 262.517 43.2448 262.796C43.3915 263.06 43.5895 263.258 43.8388 263.39C44.0881 263.522 44.3595 263.588 44.6528 263.588ZM44.9388 271.596C45.5255 271.596 46.0388 271.537 46.4788 271.42C46.9188 271.303 47.2635 271.141 47.5128 270.936C47.7621 270.745 47.8868 270.525 47.8868 270.276C47.8868 269.909 47.7255 269.675 47.4028 269.572C47.0801 269.484 46.6035 269.44 45.9728 269.44H44.6088C44.2128 269.44 43.8828 269.425 43.6188 269.396C43.3695 269.367 43.1421 269.33 42.9368 269.286C42.6581 269.462 42.4601 269.631 42.3428 269.792C42.2255 269.968 42.1668 270.159 42.1668 270.364C42.1668 270.76 42.4161 271.061 42.9148 271.266C43.4135 271.486 44.0881 271.596 44.9388 271.596ZM53.1582 269V253.578H56.3922V257.362L56.2162 259.452H56.2822C56.6929 259.027 57.1916 258.653 57.7782 258.33C58.3796 257.993 59.0909 257.824 59.9122 257.824C61.1442 257.824 62.0389 258.22 62.5962 259.012C63.1682 259.804 63.4542 260.889 63.4542 262.268V269H60.2202V262.686C60.2202 261.953 60.0956 261.417 59.8462 261.08C59.6116 260.743 59.2009 260.574 58.6142 260.574C58.1742 260.574 57.7856 260.677 57.4482 260.882C57.1256 261.073 56.7736 261.351 56.3922 261.718V269H53.1582ZM73.3016 269.264C72.143 269.264 71.219 269.066 70.5296 268.67C69.855 268.259 69.3636 267.695 69.0556 266.976C68.7476 266.257 68.5936 265.421 68.5936 264.468V260.618H65.8656V258.22L68.7476 258.088L69.1656 254.744H71.8276V258.088H76.4476V260.618H71.8276V264.446C71.8276 264.989 71.9083 265.429 72.0696 265.766C72.231 266.103 72.4803 266.353 72.8176 266.514C73.155 266.661 73.5876 266.734 74.1156 266.734C74.541 266.734 74.9296 266.697 75.2816 266.624C75.6336 266.551 75.971 266.455 76.2936 266.338L76.8656 268.67C76.3816 268.817 75.8463 268.949 75.2596 269.066C74.6876 269.198 74.035 269.264 73.3016 269.264Z" fill="#00DA9A"/>
<rect x="140" y="234" width="139" height="53" rx="16" stroke="#00DA9A" stroke-width="2"/>
<path d="M202.24 272V251.136H208C210.027 251.136 211.787 251.499 213.28 252.224C214.795 252.949 215.968 254.08 216.8 255.616C217.632 257.131 218.048 259.083 218.048 261.472C218.048 263.861 217.632 265.835 216.8 267.392C215.989 268.949 214.848 270.112 213.376 270.88C211.904 271.627 210.208 272 208.288 272H202.24ZM206.976 268.192H207.744C208.853 268.192 209.813 267.979 210.624 267.552C211.435 267.125 212.064 266.421 212.512 265.44C212.981 264.459 213.216 263.136 213.216 261.472C213.216 259.808 212.981 258.507 212.512 257.568C212.064 256.608 211.435 255.936 210.624 255.552C209.813 255.147 208.853 254.944 207.744 254.944H206.976V268.192Z" fill="#00DA9A"/>
</svg>
