<svg width="100%" height="100%" viewBox="0 0 218 160" fill="none"
    xmlns="http://www.w3.org/2000/svg">
    <rect x="0.5" y="40.5" width="217" height="119" rx="9.5" fill="white" stroke="#009F71"/>
    <path d="M13.6316 60V51.552H10.5116V49.568H19.1196V51.552H15.9996V60H13.6316ZM24.0574 60V53.904H20.8574V52.064H26.4094V60H24.0574ZM25.1294 50.816C24.6814 50.816 24.308 50.688 24.0094 50.432C23.7107 50.1653 23.5614 49.8187 23.5614 49.392C23.5614 48.9547 23.7107 48.6027 24.0094 48.336C24.308 48.0587 24.6814 47.92 25.1294 47.92C25.588 47.92 25.9614 48.0587 26.2494 48.336C26.548 48.6027 26.6974 48.9547 26.6974 49.392C26.6974 49.8187 26.548 50.1653 26.2494 50.432C25.9614 50.688 25.588 50.816 25.1294 50.816ZM35.4111 60.192C34.5685 60.192 33.8965 60.048 33.3951 59.76C32.9045 59.4613 32.5471 59.0507 32.3231 58.528C32.0991 58.0053 31.9871 57.3973 31.9871 56.704V53.904H30.0031V52.16L32.0991 52.064L32.4031 49.632H34.3391V52.064H37.6991V53.904H34.3391V56.688C34.3391 57.0827 34.3978 57.4027 34.5151 57.648C34.6325 57.8933 34.8138 58.0747 35.0591 58.192C35.3045 58.2987 35.6191 58.352 36.0031 58.352C36.3125 58.352 36.5951 58.3253 36.8511 58.272C37.1071 58.2187 37.3525 58.1493 37.5871 58.064L38.0031 59.76C37.6511 59.8667 37.2618 59.9627 36.8351 60.048C36.4191 60.144 35.9445 60.192 35.4111 60.192ZM45.1169 60.192C44.1249 60.192 43.3729 59.8933 42.8609 59.296C42.3489 58.6987 42.0929 57.8987 42.0929 56.896V50.64H39.6129V48.8H44.4449V56.992C44.4449 57.4827 44.5782 57.824 44.8449 58.016C45.1115 58.1973 45.4049 58.288 45.7249 58.288C45.9169 58.288 46.1089 58.2667 46.3009 58.224C46.5035 58.1813 46.7275 58.1173 46.9729 58.032L47.4849 59.76C47.0795 59.888 46.7062 59.9893 46.3649 60.064C46.0342 60.1493 45.6182 60.192 45.1169 60.192ZM53.6706 60.192C52.8493 60.192 52.1026 60.032 51.4306 59.712C50.7693 59.3813 50.2413 58.9067 49.8466 58.288C49.4626 57.6587 49.2706 56.9067 49.2706 56.032C49.2706 55.168 49.468 54.4267 49.8626 53.808C50.2573 53.1787 50.7693 52.6987 51.3986 52.368C52.028 52.0373 52.6946 51.872 53.3986 51.872C54.22 51.872 54.908 52.0427 55.4626 52.384C56.0173 52.7147 56.4333 53.168 56.7106 53.744C56.9986 54.3093 57.1426 54.9547 57.1426 55.68C57.1426 55.8933 57.1266 56.1013 57.0946 56.304C57.0733 56.496 57.052 56.64 57.0306 56.736H51.0146V55.152H55.4466L55.0786 55.6C55.0786 54.96 54.94 54.48 54.6626 54.16C54.396 53.8293 54.0013 53.664 53.4786 53.664C53.0946 53.664 52.7586 53.7493 52.4706 53.92C52.1826 54.0907 51.9586 54.352 51.7986 54.704C51.6386 55.056 51.5586 55.4987 51.5586 56.032C51.5586 56.576 51.6546 57.024 51.8466 57.376C52.0386 57.7173 52.316 57.9733 52.6786 58.144C53.0413 58.3147 53.4786 58.4 53.9906 58.4C54.3533 58.4 54.6946 58.352 55.0146 58.256C55.3453 58.16 55.6866 58.0213 56.0386 57.84L56.8226 59.264C56.364 59.552 55.8573 59.7813 55.3026 59.952C54.748 60.112 54.204 60.192 53.6706 60.192Z" fill="#009F71"/>
    <path d="M14.5884 84.144C14.1004 84.144 13.6364 84.06 13.1964 83.892C12.7644 83.724 12.3804 83.472 12.0444 83.136C11.7084 82.792 11.4444 82.372 11.2524 81.876C11.0604 81.372 10.9644 80.792 10.9644 80.136C10.9644 79.272 11.1284 78.536 11.4564 77.928C11.7924 77.312 12.2404 76.844 12.8004 76.524C13.3684 76.196 14.0004 76.032 14.6964 76.032C15.1924 76.032 15.6404 76.136 16.0404 76.344C16.4404 76.544 16.7724 76.772 17.0364 77.028L16.0644 78.12C15.8804 77.944 15.6764 77.808 15.4524 77.712C15.2364 77.608 14.9844 77.556 14.6964 77.556C14.3284 77.556 14.0004 77.66 13.7124 77.868C13.4244 78.068 13.1964 78.356 13.0284 78.732C12.8604 79.108 12.7764 79.556 12.7764 80.076C12.7764 80.612 12.8604 81.072 13.0284 81.456C13.1964 81.832 13.4284 82.12 13.7244 82.32C14.0284 82.52 14.3764 82.62 14.7684 82.62C15.0564 82.62 15.3164 82.556 15.5484 82.428C15.7804 82.3 15.9924 82.132 16.1844 81.924L17.1564 82.992C16.8364 83.368 16.4604 83.656 16.0284 83.856C15.5964 84.048 15.1164 84.144 14.5884 84.144ZM21.1117 84.144C20.5917 84.144 20.0997 84.024 19.6357 83.784C19.1717 83.536 18.7957 83.18 18.5077 82.716C18.2197 82.244 18.0757 81.68 18.0757 81.024C18.0757 80.368 18.2197 79.808 18.5077 79.344C18.7957 78.872 19.1717 78.516 19.6357 78.276C20.0997 78.028 20.5917 77.904 21.1117 77.904C21.6317 77.904 22.1237 78.028 22.5877 78.276C23.0517 78.516 23.4277 78.872 23.7157 79.344C24.0037 79.808 24.1477 80.368 24.1477 81.024C24.1477 81.68 24.0037 82.244 23.7157 82.716C23.4277 83.18 23.0517 83.536 22.5877 83.784C22.1237 84.024 21.6317 84.144 21.1117 84.144ZM21.1117 82.716C21.3837 82.716 21.6077 82.648 21.7837 82.512C21.9677 82.376 22.1037 82.18 22.1917 81.924C22.2877 81.668 22.3357 81.368 22.3357 81.024C22.3357 80.68 22.2877 80.38 22.1917 80.124C22.1037 79.868 21.9677 79.672 21.7837 79.536C21.6077 79.4 21.3837 79.332 21.1117 79.332C20.8397 79.332 20.6117 79.4 20.4277 79.536C20.2517 79.672 20.1157 79.868 20.0197 80.124C19.9317 80.38 19.8877 80.68 19.8877 81.024C19.8877 81.368 19.9317 81.668 20.0197 81.924C20.1157 82.18 20.2517 82.376 20.4277 82.512C20.6117 82.648 20.8397 82.716 21.1117 82.716ZM25.571 84V78.048H27.011L27.143 78.84H27.191C27.447 78.584 27.739 78.364 28.067 78.18C28.403 77.996 28.795 77.904 29.243 77.904C29.915 77.904 30.407 78.12 30.719 78.552C31.031 78.984 31.187 79.576 31.187 80.328V84H29.423V80.556C29.423 80.156 29.355 79.864 29.219 79.68C29.091 79.496 28.867 79.404 28.547 79.404C28.307 79.404 28.095 79.46 27.911 79.572C27.735 79.676 27.543 79.828 27.335 80.028V84H25.571ZM36.5583 84.144C35.9263 84.144 35.4223 84.036 35.0463 83.82C34.6783 83.596 34.4103 83.288 34.2423 82.896C34.0743 82.504 33.9903 82.048 33.9903 81.528V79.428H32.5023V78.12L34.0743 78.048L34.3023 76.224H35.7543V78.048H38.2743V79.428H35.7543V81.516C35.7543 81.812 35.7983 82.052 35.8863 82.236C35.9743 82.42 36.1103 82.556 36.2943 82.644C36.4783 82.724 36.7143 82.764 37.0023 82.764C37.2343 82.764 37.4463 82.744 37.6383 82.704C37.8303 82.664 38.0143 82.612 38.1903 82.548L38.5023 83.82C38.2383 83.9 37.9463 83.972 37.6263 84.036C37.3143 84.108 36.9583 84.144 36.5583 84.144ZM43.0577 84.144C42.4417 84.144 41.8817 84.024 41.3777 83.784C40.8817 83.536 40.4857 83.18 40.1897 82.716C39.9017 82.244 39.7577 81.68 39.7577 81.024C39.7577 80.376 39.9057 79.82 40.2017 79.356C40.4977 78.884 40.8817 78.524 41.3537 78.276C41.8257 78.028 42.3257 77.904 42.8537 77.904C43.4697 77.904 43.9857 78.032 44.4017 78.288C44.8177 78.536 45.1297 78.876 45.3377 79.308C45.5537 79.732 45.6617 80.216 45.6617 80.76C45.6617 80.92 45.6497 81.076 45.6257 81.228C45.6097 81.372 45.5937 81.48 45.5777 81.552H41.0657V80.364H44.3897L44.1137 80.7C44.1137 80.22 44.0097 79.86 43.8017 79.62C43.6017 79.372 43.3057 79.248 42.9137 79.248C42.6257 79.248 42.3737 79.312 42.1577 79.44C41.9417 79.568 41.7737 79.764 41.6537 80.028C41.5337 80.292 41.4737 80.624 41.4737 81.024C41.4737 81.432 41.5457 81.768 41.6897 82.032C41.8337 82.288 42.0417 82.48 42.3137 82.608C42.5857 82.736 42.9137 82.8 43.2977 82.8C43.5697 82.8 43.8257 82.764 44.0657 82.692C44.3137 82.62 44.5697 82.516 44.8337 82.38L45.4217 83.448C45.0777 83.664 44.6977 83.836 44.2817 83.964C43.8657 84.084 43.4577 84.144 43.0577 84.144ZM47.157 84V78.048H48.597L48.729 78.84H48.777C49.033 78.584 49.325 78.364 49.653 78.18C49.989 77.996 50.381 77.904 50.829 77.904C51.501 77.904 51.993 78.12 52.305 78.552C52.617 78.984 52.773 79.576 52.773 80.328V84H51.009V80.556C51.009 80.156 50.941 79.864 50.805 79.68C50.677 79.496 50.453 79.404 50.133 79.404C49.893 79.404 49.681 79.46 49.497 79.572C49.321 79.676 49.129 79.828 48.921 80.028V84H47.157ZM58.1443 84.144C57.5123 84.144 57.0083 84.036 56.6323 83.82C56.2643 83.596 55.9963 83.288 55.8283 82.896C55.6603 82.504 55.5763 82.048 55.5763 81.528V79.428H54.0883V78.12L55.6603 78.048L55.8883 76.224H57.3403V78.048H59.8603V79.428H57.3403V81.516C57.3403 81.812 57.3843 82.052 57.4723 82.236C57.5603 82.42 57.6963 82.556 57.8803 82.644C58.0643 82.724 58.3003 82.764 58.5883 82.764C58.8203 82.764 59.0323 82.744 59.2243 82.704C59.4163 82.664 59.6003 82.612 59.7763 82.548L60.0883 83.82C59.8243 83.9 59.5323 83.972 59.2123 84.036C58.9003 84.108 58.5443 84.144 58.1443 84.144Z" fill="#00DA9A"/>
    <line x1="208.586" y1="59" x2="198" y2="48.4143" stroke="#868599" stroke-width="2" stroke-linecap="round"/>
    <line x1="198" y1="58.9189" x2="208.586" y2="48.3332" stroke="#868599" stroke-width="2" stroke-linecap="round"/>
    <path d="M62.8873 23V2.136H67.8153L69.8633 9.528L70.5673 12.408H70.6953L71.3993 9.528L73.4473 2.136H78.3753V23H74.4073V16.536C74.4073 15.96 74.4286 15.2453 74.4713 14.392C74.5139 13.5173 74.5673 12.6107 74.6313 11.672C74.6953 10.7333 74.7593 9.83733 74.8233 8.984C74.9086 8.13067 74.9726 7.42667 75.0153 6.872H74.9193L73.3193 12.44L71.7193 17.464H69.4153L67.7833 12.44L66.2793 6.872H66.1833C66.2259 7.42667 66.2793 8.13067 66.3433 8.984C66.4286 9.83733 66.5033 10.7333 66.5673 11.672C66.6313 12.6107 66.6846 13.5173 66.7273 14.392C66.7699 15.2453 66.7913 15.96 66.7913 16.536V23H62.8873ZM89.8188 23.384C88.4321 23.384 87.1201 23.064 85.8828 22.424C84.6454 21.7627 83.6428 20.8133 82.8748 19.576C82.1068 18.3173 81.7228 16.8133 81.7228 15.064C81.7228 13.3147 82.1068 11.8213 82.8748 10.584C83.6428 9.32533 84.6454 8.376 85.8828 7.736C87.1201 7.07467 88.4321 6.744 89.8188 6.744C91.2054 6.744 92.5174 7.07467 93.7548 7.736C94.9921 8.376 95.9948 9.32533 96.7628 10.584C97.5308 11.8213 97.9148 13.3147 97.9148 15.064C97.9148 16.8133 97.5308 18.3173 96.7628 19.576C95.9948 20.8133 94.9921 21.7627 93.7548 22.424C92.5174 23.064 91.2054 23.384 89.8188 23.384ZM89.8188 19.576C90.5441 19.576 91.1414 19.3947 91.6108 19.032C92.1014 18.6693 92.4641 18.1467 92.6988 17.464C92.9548 16.7813 93.0828 15.9813 93.0828 15.064C93.0828 14.1467 92.9548 13.3467 92.6988 12.664C92.4641 11.9813 92.1014 11.4587 91.6108 11.096C91.1414 10.7333 90.5441 10.552 89.8188 10.552C89.0934 10.552 88.4854 10.7333 87.9948 11.096C87.5254 11.4587 87.1628 11.9813 86.9068 12.664C86.6721 13.3467 86.5548 14.1467 86.5548 15.064C86.5548 15.9813 86.6721 16.7813 86.9068 17.464C87.1628 18.1467 87.5254 18.6693 87.9948 19.032C88.4854 19.3947 89.0934 19.576 89.8188 19.576ZM107.598 23.384C105.593 23.384 103.972 22.648 102.734 21.176C101.518 19.6827 100.91 17.6453 100.91 15.064C100.91 13.336 101.23 11.8533 101.87 10.616C102.532 9.37867 103.385 8.42933 104.43 7.768C105.476 7.08533 106.564 6.744 107.694 6.744C108.569 6.744 109.326 6.89333 109.966 7.192C110.606 7.49067 111.182 7.90667 111.694 8.44H111.822L111.598 5.976V0.567999H116.302V23H112.462L112.11 21.368H112.014C111.438 21.944 110.756 22.424 109.966 22.808C109.198 23.192 108.409 23.384 107.598 23.384ZM108.814 19.544C109.348 19.544 109.838 19.4373 110.286 19.224C110.756 18.9893 111.193 18.6053 111.598 18.072V11.64C111.172 11.256 110.734 10.9893 110.286 10.84C109.86 10.6693 109.412 10.584 108.942 10.584C108.366 10.584 107.833 10.744 107.342 11.064C106.852 11.384 106.457 11.8747 106.158 12.536C105.881 13.176 105.742 13.9973 105.742 15C105.742 16.5573 106.009 17.7093 106.542 18.456C107.076 19.1813 107.833 19.544 108.814 19.544ZM125.762 23.384C124.695 23.384 123.767 23.1707 122.978 22.744C122.21 22.3173 121.612 21.7413 121.186 21.016C120.759 20.2907 120.546 19.48 120.546 18.584C120.546 16.8133 121.346 15.4587 122.946 14.52C124.567 13.5813 127.255 13.0053 131.01 12.792C130.946 12.3013 130.786 11.8853 130.53 11.544C130.274 11.2027 129.9 10.9467 129.41 10.776C128.94 10.584 128.343 10.488 127.618 10.488C127.106 10.488 126.594 10.552 126.082 10.68C125.57 10.7867 125.036 10.9573 124.482 11.192C123.948 11.4053 123.383 11.6613 122.786 11.96L121.122 8.888C121.847 8.46133 122.604 8.088 123.394 7.768C124.204 7.448 125.036 7.20267 125.89 7.032C126.764 6.84 127.65 6.744 128.546 6.744C130.039 6.744 131.319 7.01067 132.386 7.544C133.452 8.056 134.274 8.84533 134.85 9.912C135.426 10.9573 135.714 12.2907 135.714 13.912V23H131.874L131.522 21.208H131.394C130.604 21.8053 129.73 22.3173 128.77 22.744C127.81 23.1707 126.807 23.384 125.762 23.384ZM127.266 19.736C127.97 19.736 128.631 19.5973 129.25 19.32C129.868 19.0213 130.455 18.6587 131.01 18.232V15.608C129.452 15.6933 128.236 15.8533 127.362 16.088C126.508 16.3227 125.911 16.6213 125.57 16.984C125.228 17.3467 125.058 17.7627 125.058 18.232C125.058 18.552 125.143 18.8293 125.314 19.064C125.506 19.2987 125.762 19.4693 126.082 19.576C126.423 19.6827 126.818 19.736 127.266 19.736ZM150.421 23.384C148.437 23.384 146.933 22.7867 145.909 21.592C144.885 20.3973 144.373 18.7973 144.373 16.792V4.28H139.413V0.599998H149.077V16.984C149.077 17.9653 149.344 18.648 149.877 19.032C150.411 19.3947 150.997 19.576 151.637 19.576C152.021 19.576 152.405 19.5333 152.789 19.448C153.195 19.3627 153.643 19.2347 154.133 19.064L155.157 22.52C154.347 22.776 153.6 22.9787 152.917 23.128C152.256 23.2987 151.424 23.384 150.421 23.384Z" fill="#00DA9A"/>
    <rect x="152.5" y="136.5" width="57" height="18" rx="9" stroke="#00DA9A"/>
    <path d="M177.405 150.336C176.781 150.336 176.233 150.18 175.761 149.868C175.289 149.556 174.921 149.1 174.657 148.5C174.393 147.892 174.261 147.14 174.261 146.244C174.261 145.372 174.393 144.64 174.657 144.048C174.921 143.448 175.289 142.996 175.761 142.692C176.233 142.38 176.781 142.224 177.405 142.224C178.029 142.224 178.577 142.38 179.049 142.692C179.521 142.996 179.889 143.448 180.153 144.048C180.417 144.64 180.549 145.372 180.549 146.244C180.549 147.14 180.417 147.892 180.153 148.5C179.889 149.1 179.521 149.556 179.049 149.868C178.577 150.18 178.029 150.336 177.405 150.336ZM177.405 148.812C177.677 148.812 177.913 148.716 178.113 148.524C178.313 148.324 178.465 148.036 178.569 147.66C178.681 147.276 178.737 146.804 178.737 146.244C178.737 145.7 178.681 145.244 178.569 144.876C178.465 144.508 178.313 144.228 178.113 144.036C177.913 143.844 177.677 143.748 177.405 143.748C177.133 143.748 176.897 143.844 176.697 144.036C176.497 144.228 176.341 144.508 176.229 144.876C176.125 145.244 176.073 145.7 176.073 146.244C176.073 146.804 176.125 147.276 176.229 147.66C176.341 148.036 176.497 148.324 176.697 148.524C176.897 148.716 177.133 148.812 177.405 148.812ZM181.816 150.192V142.368H183.604V145.572H183.64L185.956 142.368H187.912L183.604 148.056V150.192H181.816ZM186.172 150.192L184.348 146.556L185.392 145.176L188.128 150.192H186.172Z" fill="#00DA9A"/>
</svg>
