<svg width="100%" height="100%" viewBox="0 0 330 243" fill="none"
    xmlns="http://www.w3.org/2000/svg">
    <rect width="330" height="243" fill="#D9D9D9" fill-opacity="0.5"/>
    <rect x="56.5" y="63.5" width="217" height="119" rx="9.5" fill="white" stroke="#009F71"/>
    <path d="M69.6316 83V74.552H66.5116V72.568H75.1196V74.552H71.9996V83H69.6316ZM80.0574 83V76.904H76.8574V75.064H82.4094V83H80.0574ZM81.1294 73.816C80.6814 73.816 80.308 73.688 80.0094 73.432C79.7107 73.1653 79.5614 72.8187 79.5614 72.392C79.5614 71.9547 79.7107 71.6027 80.0094 71.336C80.308 71.0587 80.6814 70.92 81.1294 70.92C81.588 70.92 81.9614 71.0587 82.2494 71.336C82.548 71.6027 82.6974 71.9547 82.6974 72.392C82.6974 72.8187 82.548 73.1653 82.2494 73.432C81.9614 73.688 81.588 73.816 81.1294 73.816ZM91.4111 83.192C90.5685 83.192 89.8965 83.048 89.3951 82.76C88.9045 82.4613 88.5471 82.0507 88.3231 81.528C88.0991 81.0053 87.9871 80.3973 87.9871 79.704V76.904H86.0031V75.16L88.0991 75.064L88.4031 72.632H90.3391V75.064H93.6991V76.904H90.3391V79.688C90.3391 80.0827 90.3978 80.4027 90.5151 80.648C90.6325 80.8933 90.8138 81.0747 91.0591 81.192C91.3045 81.2987 91.6191 81.352 92.0031 81.352C92.3125 81.352 92.5951 81.3253 92.8511 81.272C93.1071 81.2187 93.3525 81.1493 93.5871 81.064L94.0031 82.76C93.6511 82.8667 93.2618 82.9627 92.8351 83.048C92.4191 83.144 91.9445 83.192 91.4111 83.192ZM101.117 83.192C100.125 83.192 99.3729 82.8933 98.8609 82.296C98.3489 81.6987 98.0929 80.8987 98.0929 79.896V73.64H95.6129V71.8H100.445V79.992C100.445 80.4827 100.578 80.824 100.845 81.016C101.112 81.1973 101.405 81.288 101.725 81.288C101.917 81.288 102.109 81.2667 102.301 81.224C102.504 81.1813 102.728 81.1173 102.973 81.032L103.485 82.76C103.08 82.888 102.706 82.9893 102.365 83.064C102.034 83.1493 101.618 83.192 101.117 83.192ZM109.671 83.192C108.849 83.192 108.103 83.032 107.431 82.712C106.769 82.3813 106.241 81.9067 105.847 81.288C105.463 80.6587 105.271 79.9067 105.271 79.032C105.271 78.168 105.468 77.4267 105.863 76.808C106.257 76.1787 106.769 75.6987 107.399 75.368C108.028 75.0373 108.695 74.872 109.399 74.872C110.22 74.872 110.908 75.0427 111.463 75.384C112.017 75.7147 112.433 76.168 112.711 76.744C112.999 77.3093 113.143 77.9547 113.143 78.68C113.143 78.8933 113.127 79.1013 113.095 79.304C113.073 79.496 113.052 79.64 113.031 79.736H107.015V78.152H111.447L111.079 78.6C111.079 77.96 110.94 77.48 110.663 77.16C110.396 76.8293 110.001 76.664 109.479 76.664C109.095 76.664 108.759 76.7493 108.471 76.92C108.183 77.0907 107.959 77.352 107.799 77.704C107.639 78.056 107.559 78.4987 107.559 79.032C107.559 79.576 107.655 80.024 107.847 80.376C108.039 80.7173 108.316 80.9733 108.679 81.144C109.041 81.3147 109.479 81.4 109.991 81.4C110.353 81.4 110.695 81.352 111.015 81.256C111.345 81.16 111.687 81.0213 112.039 80.84L112.823 82.264C112.364 82.552 111.857 82.7813 111.303 82.952C110.748 83.112 110.204 83.192 109.671 83.192Z" fill="#009F71"/>
    <path d="M70.5884 107.144C70.1004 107.144 69.6364 107.06 69.1964 106.892C68.7644 106.724 68.3804 106.472 68.0444 106.136C67.7084 105.792 67.4444 105.372 67.2524 104.876C67.0604 104.372 66.9644 103.792 66.9644 103.136C66.9644 102.272 67.1284 101.536 67.4564 100.928C67.7924 100.312 68.2404 99.844 68.8004 99.524C69.3684 99.196 70.0004 99.032 70.6964 99.032C71.1924 99.032 71.6404 99.136 72.0404 99.344C72.4404 99.544 72.7724 99.772 73.0364 100.028L72.0644 101.12C71.8804 100.944 71.6764 100.808 71.4524 100.712C71.2364 100.608 70.9844 100.556 70.6964 100.556C70.3284 100.556 70.0004 100.66 69.7124 100.868C69.4244 101.068 69.1964 101.356 69.0284 101.732C68.8604 102.108 68.7764 102.556 68.7764 103.076C68.7764 103.612 68.8604 104.072 69.0284 104.456C69.1964 104.832 69.4284 105.12 69.7244 105.32C70.0284 105.52 70.3764 105.62 70.7684 105.62C71.0564 105.62 71.3164 105.556 71.5484 105.428C71.7804 105.3 71.9924 105.132 72.1844 104.924L73.1564 105.992C72.8364 106.368 72.4604 106.656 72.0284 106.856C71.5964 107.048 71.1164 107.144 70.5884 107.144ZM77.1117 107.144C76.5917 107.144 76.0997 107.024 75.6357 106.784C75.1717 106.536 74.7957 106.18 74.5077 105.716C74.2197 105.244 74.0757 104.68 74.0757 104.024C74.0757 103.368 74.2197 102.808 74.5077 102.344C74.7957 101.872 75.1717 101.516 75.6357 101.276C76.0997 101.028 76.5917 100.904 77.1117 100.904C77.6317 100.904 78.1237 101.028 78.5877 101.276C79.0517 101.516 79.4277 101.872 79.7157 102.344C80.0037 102.808 80.1477 103.368 80.1477 104.024C80.1477 104.68 80.0037 105.244 79.7157 105.716C79.4277 106.18 79.0517 106.536 78.5877 106.784C78.1237 107.024 77.6317 107.144 77.1117 107.144ZM77.1117 105.716C77.3837 105.716 77.6077 105.648 77.7837 105.512C77.9677 105.376 78.1037 105.18 78.1917 104.924C78.2877 104.668 78.3357 104.368 78.3357 104.024C78.3357 103.68 78.2877 103.38 78.1917 103.124C78.1037 102.868 77.9677 102.672 77.7837 102.536C77.6077 102.4 77.3837 102.332 77.1117 102.332C76.8397 102.332 76.6117 102.4 76.4277 102.536C76.2517 102.672 76.1157 102.868 76.0197 103.124C75.9317 103.38 75.8877 103.68 75.8877 104.024C75.8877 104.368 75.9317 104.668 76.0197 104.924C76.1157 105.18 76.2517 105.376 76.4277 105.512C76.6117 105.648 76.8397 105.716 77.1117 105.716ZM81.571 107V101.048H83.011L83.143 101.84H83.191C83.447 101.584 83.739 101.364 84.067 101.18C84.403 100.996 84.795 100.904 85.243 100.904C85.915 100.904 86.407 101.12 86.719 101.552C87.031 101.984 87.187 102.576 87.187 103.328V107H85.423V103.556C85.423 103.156 85.355 102.864 85.219 102.68C85.091 102.496 84.867 102.404 84.547 102.404C84.307 102.404 84.095 102.46 83.911 102.572C83.735 102.676 83.543 102.828 83.335 103.028V107H81.571ZM92.5583 107.144C91.9263 107.144 91.4223 107.036 91.0463 106.82C90.6783 106.596 90.4103 106.288 90.2423 105.896C90.0743 105.504 89.9903 105.048 89.9903 104.528V102.428H88.5023V101.12L90.0743 101.048L90.3023 99.224H91.7543V101.048H94.2743V102.428H91.7543V104.516C91.7543 104.812 91.7983 105.052 91.8863 105.236C91.9743 105.42 92.1103 105.556 92.2943 105.644C92.4783 105.724 92.7143 105.764 93.0023 105.764C93.2343 105.764 93.4463 105.744 93.6383 105.704C93.8303 105.664 94.0143 105.612 94.1903 105.548L94.5023 106.82C94.2383 106.9 93.9463 106.972 93.6263 107.036C93.3143 107.108 92.9583 107.144 92.5583 107.144ZM99.0577 107.144C98.4417 107.144 97.8817 107.024 97.3777 106.784C96.8817 106.536 96.4857 106.18 96.1897 105.716C95.9017 105.244 95.7577 104.68 95.7577 104.024C95.7577 103.376 95.9057 102.82 96.2017 102.356C96.4977 101.884 96.8817 101.524 97.3537 101.276C97.8257 101.028 98.3257 100.904 98.8537 100.904C99.4697 100.904 99.9857 101.032 100.402 101.288C100.818 101.536 101.13 101.876 101.338 102.308C101.554 102.732 101.662 103.216 101.662 103.76C101.662 103.92 101.65 104.076 101.626 104.228C101.61 104.372 101.594 104.48 101.578 104.552H97.0657V103.364H100.39L100.114 103.7C100.114 103.22 100.01 102.86 99.8017 102.62C99.6017 102.372 99.3057 102.248 98.9137 102.248C98.6257 102.248 98.3737 102.312 98.1577 102.44C97.9417 102.568 97.7737 102.764 97.6537 103.028C97.5337 103.292 97.4737 103.624 97.4737 104.024C97.4737 104.432 97.5457 104.768 97.6897 105.032C97.8337 105.288 98.0417 105.48 98.3137 105.608C98.5857 105.736 98.9137 105.8 99.2977 105.8C99.5697 105.8 99.8257 105.764 100.066 105.692C100.314 105.62 100.57 105.516 100.834 105.38L101.422 106.448C101.078 106.664 100.698 106.836 100.282 106.964C99.8657 107.084 99.4577 107.144 99.0577 107.144ZM103.157 107V101.048H104.597L104.729 101.84H104.777C105.033 101.584 105.325 101.364 105.653 101.18C105.989 100.996 106.381 100.904 106.829 100.904C107.501 100.904 107.993 101.12 108.305 101.552C108.617 101.984 108.773 102.576 108.773 103.328V107H107.009V103.556C107.009 103.156 106.941 102.864 106.805 102.68C106.677 102.496 106.453 102.404 106.133 102.404C105.893 102.404 105.681 102.46 105.497 102.572C105.321 102.676 105.129 102.828 104.921 103.028V107H103.157ZM114.144 107.144C113.512 107.144 113.008 107.036 112.632 106.82C112.264 106.596 111.996 106.288 111.828 105.896C111.66 105.504 111.576 105.048 111.576 104.528V102.428H110.088V101.12L111.66 101.048L111.888 99.224H113.34V101.048H115.86V102.428H113.34V104.516C113.34 104.812 113.384 105.052 113.472 105.236C113.56 105.42 113.696 105.556 113.88 105.644C114.064 105.724 114.3 105.764 114.588 105.764C114.82 105.764 115.032 105.744 115.224 105.704C115.416 105.664 115.6 105.612 115.776 105.548L116.088 106.82C115.824 106.9 115.532 106.972 115.212 107.036C114.9 107.108 114.544 107.144 114.144 107.144Z" fill="#00DA9A"/>
    <line x1="264.586" y1="82" x2="254" y2="71.4143" stroke="#868599" stroke-width="2" stroke-linecap="round"/>
    <line x1="254" y1="81.9189" x2="264.586" y2="71.3332" stroke="#868599" stroke-width="2" stroke-linecap="round"/>
    <path d="M118.887 46V25.136H123.815L125.863 32.528L126.567 35.408H126.695L127.399 32.528L129.447 25.136H134.375V46H130.407V39.536C130.407 38.96 130.429 38.2453 130.471 37.392C130.514 36.5173 130.567 35.6107 130.631 34.672C130.695 33.7333 130.759 32.8373 130.823 31.984C130.909 31.1307 130.973 30.4267 131.015 29.872H130.919L129.319 35.44L127.719 40.464H125.415L123.783 35.44L122.279 29.872H122.183C122.226 30.4267 122.279 31.1307 122.343 31.984C122.429 32.8373 122.503 33.7333 122.567 34.672C122.631 35.6107 122.685 36.5173 122.727 37.392C122.77 38.2453 122.791 38.96 122.791 39.536V46H118.887ZM145.819 46.384C144.432 46.384 143.12 46.064 141.883 45.424C140.645 44.7627 139.643 43.8133 138.875 42.576C138.107 41.3173 137.723 39.8133 137.723 38.064C137.723 36.3147 138.107 34.8213 138.875 33.584C139.643 32.3253 140.645 31.376 141.883 30.736C143.12 30.0747 144.432 29.744 145.819 29.744C147.205 29.744 148.517 30.0747 149.755 30.736C150.992 31.376 151.995 32.3253 152.763 33.584C153.531 34.8213 153.915 36.3147 153.915 38.064C153.915 39.8133 153.531 41.3173 152.763 42.576C151.995 43.8133 150.992 44.7627 149.755 45.424C148.517 46.064 147.205 46.384 145.819 46.384ZM145.819 42.576C146.544 42.576 147.141 42.3947 147.611 42.032C148.101 41.6693 148.464 41.1467 148.699 40.464C148.955 39.7813 149.083 38.9813 149.083 38.064C149.083 37.1467 148.955 36.3467 148.699 35.664C148.464 34.9813 148.101 34.4587 147.611 34.096C147.141 33.7333 146.544 33.552 145.819 33.552C145.093 33.552 144.485 33.7333 143.995 34.096C143.525 34.4587 143.163 34.9813 142.907 35.664C142.672 36.3467 142.555 37.1467 142.555 38.064C142.555 38.9813 142.672 39.7813 142.907 40.464C143.163 41.1467 143.525 41.6693 143.995 42.032C144.485 42.3947 145.093 42.576 145.819 42.576ZM163.598 46.384C161.593 46.384 159.972 45.648 158.734 44.176C157.518 42.6827 156.91 40.6453 156.91 38.064C156.91 36.336 157.23 34.8533 157.87 33.616C158.532 32.3787 159.385 31.4293 160.43 30.768C161.476 30.0853 162.564 29.744 163.694 29.744C164.569 29.744 165.326 29.8933 165.966 30.192C166.606 30.4907 167.182 30.9067 167.694 31.44H167.822L167.598 28.976V23.568H172.302V46H168.462L168.11 44.368H168.014C167.438 44.944 166.756 45.424 165.966 45.808C165.198 46.192 164.409 46.384 163.598 46.384ZM164.814 42.544C165.348 42.544 165.838 42.4373 166.286 42.224C166.756 41.9893 167.193 41.6053 167.598 41.072V34.64C167.172 34.256 166.734 33.9893 166.286 33.84C165.86 33.6693 165.412 33.584 164.942 33.584C164.366 33.584 163.833 33.744 163.342 34.064C162.852 34.384 162.457 34.8747 162.158 35.536C161.881 36.176 161.742 36.9973 161.742 38C161.742 39.5573 162.009 40.7093 162.542 41.456C163.076 42.1813 163.833 42.544 164.814 42.544ZM181.762 46.384C180.695 46.384 179.767 46.1707 178.978 45.744C178.21 45.3173 177.612 44.7413 177.186 44.016C176.759 43.2907 176.546 42.48 176.546 41.584C176.546 39.8133 177.346 38.4587 178.946 37.52C180.567 36.5813 183.255 36.0053 187.01 35.792C186.946 35.3013 186.786 34.8853 186.53 34.544C186.274 34.2027 185.9 33.9467 185.41 33.776C184.94 33.584 184.343 33.488 183.618 33.488C183.106 33.488 182.594 33.552 182.082 33.68C181.57 33.7867 181.036 33.9573 180.482 34.192C179.948 34.4053 179.383 34.6613 178.786 34.96L177.122 31.888C177.847 31.4613 178.604 31.088 179.394 30.768C180.204 30.448 181.036 30.2027 181.89 30.032C182.764 29.84 183.65 29.744 184.546 29.744C186.039 29.744 187.319 30.0107 188.386 30.544C189.452 31.056 190.274 31.8453 190.85 32.912C191.426 33.9573 191.714 35.2907 191.714 36.912V46H187.874L187.522 44.208H187.394C186.604 44.8053 185.73 45.3173 184.77 45.744C183.81 46.1707 182.807 46.384 181.762 46.384ZM183.266 42.736C183.97 42.736 184.631 42.5973 185.25 42.32C185.868 42.0213 186.455 41.6587 187.01 41.232V38.608C185.452 38.6933 184.236 38.8533 183.362 39.088C182.508 39.3227 181.911 39.6213 181.57 39.984C181.228 40.3467 181.058 40.7627 181.058 41.232C181.058 41.552 181.143 41.8293 181.314 42.064C181.506 42.2987 181.762 42.4693 182.082 42.576C182.423 42.6827 182.818 42.736 183.266 42.736ZM206.421 46.384C204.437 46.384 202.933 45.7867 201.909 44.592C200.885 43.3973 200.373 41.7973 200.373 39.792V27.28H195.413V23.6H205.077V39.984C205.077 40.9653 205.344 41.648 205.877 42.032C206.411 42.3947 206.997 42.576 207.637 42.576C208.021 42.576 208.405 42.5333 208.789 42.448C209.195 42.3627 209.643 42.2347 210.133 42.064L211.157 45.52C210.347 45.776 209.6 45.9787 208.917 46.128C208.256 46.2987 207.424 46.384 206.421 46.384Z" fill="#00DA9A"/>
    <rect x="208.5" y="159.5" width="57" height="18" rx="9" stroke="#00DA9A"/>
    <path d="M233.405 173.336C232.781 173.336 232.233 173.18 231.761 172.868C231.289 172.556 230.921 172.1 230.657 171.5C230.393 170.892 230.261 170.14 230.261 169.244C230.261 168.372 230.393 167.64 230.657 167.048C230.921 166.448 231.289 165.996 231.761 165.692C232.233 165.38 232.781 165.224 233.405 165.224C234.029 165.224 234.577 165.38 235.049 165.692C235.521 165.996 235.889 166.448 236.153 167.048C236.417 167.64 236.549 168.372 236.549 169.244C236.549 170.14 236.417 170.892 236.153 171.5C235.889 172.1 235.521 172.556 235.049 172.868C234.577 173.18 234.029 173.336 233.405 173.336ZM233.405 171.812C233.677 171.812 233.913 171.716 234.113 171.524C234.313 171.324 234.465 171.036 234.569 170.66C234.681 170.276 234.737 169.804 234.737 169.244C234.737 168.7 234.681 168.244 234.569 167.876C234.465 167.508 234.313 167.228 234.113 167.036C233.913 166.844 233.677 166.748 233.405 166.748C233.133 166.748 232.897 166.844 232.697 167.036C232.497 167.228 232.341 167.508 232.229 167.876C232.125 168.244 232.073 168.7 232.073 169.244C232.073 169.804 232.125 170.276 232.229 170.66C232.341 171.036 232.497 171.324 232.697 171.524C232.897 171.716 233.133 171.812 233.405 171.812ZM237.816 173.192V165.368H239.604V168.572H239.64L241.956 165.368H243.912L239.604 171.056V173.192H237.816ZM242.172 173.192L240.348 169.556L241.392 168.176L244.128 173.192H242.172Z" fill="#00DA9A"/>
</svg>
