<svg width="254" height="92" viewBox="0 0 254 92" fill="none" xmlns="http://www.w3.org/2000/svg">
<rect x="216.5" y="54.5" width="37" height="37" rx="6.5" stroke="#00DA9A"/>
<path d="M229.959 62.5306L239.265 72.8129L234.612 77.7534L229.959 82.6939" stroke="#666666" stroke-width="3" stroke-linecap="round" stroke-linejoin="round"/>
<rect x="37.5" y="91.5" width="37" height="37" rx="6.5" transform="rotate(-180 37.5 91.5)" stroke="#00DA9A"/>
<path d="M24.0409 83.4694L14.7347 73.1871L19.3878 68.2466L24.0409 63.3061" stroke="#666666" stroke-width="3" stroke-linecap="round" stroke-linejoin="round"/>
<path d="M33.4 31V10.136H40.792C42.3067 10.136 43.672 10.3493 44.888 10.776C46.1253 11.1813 47.1067 11.8747 47.832 12.856C48.5787 13.8373 48.952 15.1707 48.952 16.856C48.952 18.4773 48.5787 19.8107 47.832 20.856C47.0853 21.9013 46.0933 22.68 44.856 23.192C43.6187 23.6827 42.264 23.928 40.792 23.928H38.104V31H33.4ZM38.104 20.184H40.504C41.8053 20.184 42.7653 19.896 43.384 19.32C44.024 18.744 44.344 17.9227 44.344 16.856C44.344 15.7467 44.0133 14.9787 43.352 14.552C42.712 14.104 41.7627 13.88 40.504 13.88H38.104V20.184ZM57.3555 31.384C56.2888 31.384 55.3608 31.1707 54.5715 30.744C53.8035 30.3173 53.2062 29.7413 52.7795 29.016C52.3528 28.2907 52.1395 27.48 52.1395 26.584C52.1395 24.8133 52.9395 23.4587 54.5395 22.52C56.1608 21.5813 58.8488 21.0053 62.6035 20.792C62.5395 20.3013 62.3795 19.8853 62.1235 19.544C61.8675 19.2027 61.4942 18.9467 61.0035 18.776C60.5342 18.584 59.9368 18.488 59.2115 18.488C58.6995 18.488 58.1875 18.552 57.6755 18.68C57.1635 18.7867 56.6302 18.9573 56.0755 19.192C55.5422 19.4053 54.9768 19.6613 54.3795 19.96L52.7155 16.888C53.4408 16.4613 54.1982 16.088 54.9875 15.768C55.7982 15.448 56.6302 15.2027 57.4835 15.032C58.3582 14.84 59.2435 14.744 60.1395 14.744C61.6328 14.744 62.9128 15.0107 63.9795 15.544C65.0462 16.056 65.8675 16.8453 66.4435 17.912C67.0195 18.9573 67.3075 20.2907 67.3075 21.912V31H63.4675L63.1155 29.208H62.9875C62.1982 29.8053 61.3235 30.3173 60.3635 30.744C59.4035 31.1707 58.4008 31.384 57.3555 31.384ZM58.8595 27.736C59.5635 27.736 60.2248 27.5973 60.8435 27.32C61.4622 27.0213 62.0488 26.6587 62.6035 26.232V23.608C61.0462 23.6933 59.8302 23.8533 58.9555 24.088C58.1022 24.3227 57.5048 24.6213 57.1635 24.984C56.8222 25.3467 56.6515 25.7627 56.6515 26.232C56.6515 26.552 56.7368 26.8293 56.9075 27.064C57.0995 27.2987 57.3555 27.4693 57.6755 27.576C58.0168 27.6827 58.4115 27.736 58.8595 27.736ZM78.239 37.752C76.8523 37.752 75.615 37.6027 74.527 37.304C73.4603 37.0267 72.607 36.5893 71.967 35.992C71.3483 35.3947 71.039 34.6267 71.039 33.688C71.039 33.048 71.2417 32.4613 71.647 31.928C72.0737 31.3947 72.6923 30.9253 73.503 30.52V30.392C73.055 30.0933 72.671 29.7307 72.351 29.304C72.0523 28.8773 71.903 28.3333 71.903 27.672C71.903 27.1387 72.0737 26.6053 72.415 26.072C72.7777 25.5387 73.2363 25.08 73.791 24.696V24.568C73.215 24.184 72.7243 23.64 72.319 22.936C71.9137 22.232 71.711 21.4213 71.711 20.504C71.711 19.224 72.0203 18.1573 72.639 17.304C73.279 16.4507 74.111 15.8107 75.135 15.384C76.1803 14.9573 77.3003 14.744 78.495 14.744C79.4763 14.744 80.351 14.872 81.119 15.128H87.551V18.584H84.351C84.543 18.8187 84.703 19.128 84.831 19.512C84.9803 19.8747 85.055 20.2587 85.055 20.664C85.055 21.88 84.7563 22.8827 84.159 23.672C83.583 24.44 82.8043 25.016 81.823 25.4C80.8417 25.784 79.7323 25.976 78.495 25.976C78.1963 25.976 77.855 25.9547 77.471 25.912C77.087 25.848 76.703 25.7627 76.319 25.656C76.063 25.8267 75.8817 25.9973 75.775 26.168C75.6683 26.3387 75.615 26.5627 75.615 26.84C75.615 27.2453 75.8283 27.544 76.255 27.736C76.703 27.928 77.3857 28.024 78.303 28.024H81.247C83.3377 28.024 84.927 28.3333 86.015 28.952C87.1243 29.5707 87.679 30.5947 87.679 32.024C87.679 33.1333 87.295 34.1147 86.527 34.968C85.759 35.8427 84.6603 36.5253 83.231 37.016C81.823 37.5067 80.159 37.752 78.239 37.752ZM78.495 23.128C78.943 23.128 79.3483 23.032 79.711 22.84C80.0737 22.648 80.3617 22.36 80.575 21.976C80.7883 21.5707 80.895 21.08 80.895 20.504C80.895 19.9493 80.7883 19.48 80.575 19.096C80.3617 18.712 80.0737 18.424 79.711 18.232C79.3483 18.0187 78.943 17.912 78.495 17.912C78.0683 17.912 77.6737 18.0187 77.311 18.232C76.9483 18.424 76.6603 18.712 76.447 19.096C76.2337 19.48 76.127 19.9493 76.127 20.504C76.127 21.08 76.2337 21.5707 76.447 21.976C76.6603 22.36 76.9483 22.648 77.311 22.84C77.6737 23.032 78.0683 23.128 78.495 23.128ZM78.911 34.776C79.7643 34.776 80.511 34.6907 81.151 34.52C81.791 34.3493 82.2923 34.1147 82.655 33.816C83.0177 33.5387 83.199 33.2187 83.199 32.856C83.199 32.3227 82.9643 31.9813 82.495 31.832C82.0257 31.704 81.3323 31.64 80.415 31.64H78.431C77.855 31.64 77.375 31.6187 76.991 31.576C76.6283 31.5333 76.2977 31.48 75.999 31.416C75.5937 31.672 75.3057 31.9173 75.135 32.152C74.9643 32.408 74.879 32.6853 74.879 32.984C74.879 33.56 75.2417 33.9973 75.967 34.296C76.6923 34.616 77.6737 34.776 78.911 34.776ZM97.4585 31V18.808H91.0585V15.128H102.163V31H97.4585ZM99.6025 12.632C98.7065 12.632 97.9598 12.376 97.3625 11.864C96.7652 11.3307 96.4665 10.6373 96.4665 9.784C96.4665 8.90933 96.7652 8.20533 97.3625 7.672C97.9598 7.11733 98.7065 6.84 99.6025 6.84C100.52 6.84 101.267 7.11733 101.843 7.672C102.44 8.20533 102.739 8.90933 102.739 9.784C102.739 10.6373 102.44 11.3307 101.843 11.864C101.267 12.376 100.52 12.632 99.6025 12.632ZM110.054 31V15.128H113.894L114.246 17.24H114.374C115.057 16.5573 115.835 15.9707 116.71 15.48C117.606 14.9893 118.651 14.744 119.846 14.744C121.638 14.744 122.95 15.32 123.782 16.472C124.614 17.624 125.03 19.2027 125.03 21.208V31H120.326V21.816C120.326 20.7493 120.145 19.9707 119.782 19.48C119.441 18.9893 118.843 18.744 117.99 18.744C117.35 18.744 116.785 18.8933 116.294 19.192C115.825 19.4693 115.313 19.8747 114.758 20.408V31H110.054ZM134.106 31.384C133.039 31.384 132.111 31.1707 131.322 30.744C130.554 30.3173 129.956 29.7413 129.53 29.016C129.103 28.2907 128.89 27.48 128.89 26.584C128.89 24.8133 129.69 23.4587 131.29 22.52C132.911 21.5813 135.599 21.0053 139.354 20.792C139.29 20.3013 139.13 19.8853 138.874 19.544C138.618 19.2027 138.244 18.9467 137.754 18.776C137.284 18.584 136.687 18.488 135.962 18.488C135.45 18.488 134.938 18.552 134.426 18.68C133.914 18.7867 133.38 18.9573 132.826 19.192C132.292 19.4053 131.727 19.6613 131.13 19.96L129.466 16.888C130.191 16.4613 130.948 16.088 131.738 15.768C132.548 15.448 133.38 15.2027 134.234 15.032C135.108 14.84 135.994 14.744 136.89 14.744C138.383 14.744 139.663 15.0107 140.73 15.544C141.796 16.056 142.618 16.8453 143.194 17.912C143.77 18.9573 144.058 20.2907 144.058 21.912V31H140.218L139.866 29.208H139.738C138.948 29.8053 138.074 30.3173 137.114 30.744C136.154 31.1707 135.151 31.384 134.106 31.384ZM135.61 27.736C136.314 27.736 136.975 27.5973 137.594 27.32C138.212 27.0213 138.799 26.6587 139.354 26.232V23.608C137.796 23.6933 136.58 23.8533 135.706 24.088C134.852 24.3227 134.255 24.6213 133.914 24.984C133.572 25.3467 133.402 25.7627 133.402 26.232C133.402 26.552 133.487 26.8293 133.658 27.064C133.85 27.2987 134.106 27.4693 134.426 27.576C134.767 27.6827 135.162 27.736 135.61 27.736ZM158.541 31.384C156.856 31.384 155.512 31.096 154.509 30.52C153.528 29.9227 152.813 29.1013 152.365 28.056C151.917 27.0107 151.693 25.7947 151.693 24.408V18.808H147.725V15.32L151.917 15.128L152.525 10.264H156.397V15.128H163.117V18.808H156.397V24.376C156.397 25.1653 156.514 25.8053 156.749 26.296C156.984 26.7867 157.346 27.1493 157.837 27.384C158.328 27.5973 158.957 27.704 159.725 27.704C160.344 27.704 160.909 27.6507 161.421 27.544C161.933 27.4373 162.424 27.2987 162.893 27.128L163.725 30.52C163.021 30.7333 162.242 30.9253 161.389 31.096C160.557 31.288 159.608 31.384 158.541 31.384ZM174.209 31V18.808H167.809V15.128H178.913V31H174.209ZM176.353 12.632C175.457 12.632 174.71 12.376 174.113 11.864C173.515 11.3307 173.217 10.6373 173.217 9.784C173.217 8.90933 173.515 8.20533 174.113 7.672C174.71 7.11733 175.457 6.84 176.353 6.84C177.27 6.84 178.017 7.11733 178.593 7.672C179.19 8.20533 179.489 8.90933 179.489 9.784C179.489 10.6373 179.19 11.3307 178.593 11.864C178.017 12.376 177.27 12.632 176.353 12.632ZM194.1 31.384C192.713 31.384 191.401 31.064 190.164 30.424C188.927 29.7627 187.924 28.8133 187.156 27.576C186.388 26.3173 186.004 24.8133 186.004 23.064C186.004 21.3147 186.388 19.8213 187.156 18.584C187.924 17.3253 188.927 16.376 190.164 15.736C191.401 15.0747 192.713 14.744 194.1 14.744C195.487 14.744 196.799 15.0747 198.036 15.736C199.273 16.376 200.276 17.3253 201.044 18.584C201.812 19.8213 202.196 21.3147 202.196 23.064C202.196 24.8133 201.812 26.3173 201.044 27.576C200.276 28.8133 199.273 29.7627 198.036 30.424C196.799 31.064 195.487 31.384 194.1 31.384ZM194.1 27.576C194.825 27.576 195.423 27.3947 195.892 27.032C196.383 26.6693 196.745 26.1467 196.98 25.464C197.236 24.7813 197.364 23.9813 197.364 23.064C197.364 22.1467 197.236 21.3467 196.98 20.664C196.745 19.9813 196.383 19.4587 195.892 19.096C195.423 18.7333 194.825 18.552 194.1 18.552C193.375 18.552 192.767 18.7333 192.276 19.096C191.807 19.4587 191.444 19.9813 191.188 20.664C190.953 21.3467 190.836 22.1467 190.836 23.064C190.836 23.9813 190.953 24.7813 191.188 25.464C191.444 26.1467 191.807 26.6693 192.276 27.032C192.767 27.3947 193.375 27.576 194.1 27.576ZM205.992 31V15.128H209.832L210.184 17.24H210.312C210.994 16.5573 211.773 15.9707 212.648 15.48C213.544 14.9893 214.589 14.744 215.784 14.744C217.576 14.744 218.888 15.32 219.72 16.472C220.552 17.624 220.968 19.2027 220.968 21.208V31H216.264V21.816C216.264 20.7493 216.082 19.9707 215.72 19.48C215.378 18.9893 214.781 18.744 213.928 18.744C213.288 18.744 212.722 18.8933 212.232 19.192C211.762 19.4693 211.25 19.8747 210.696 20.408V31H205.992Z" fill="#00DA9A"/>
<circle cx="59" cy="74" r="12.5" stroke="#00DA9A"/>
<path d="M55.264 79V77.096H58V71.224H55.744V69.768C56.2027 69.6933 56.5973 69.6187 56.928 69.544C57.2693 69.4587 57.5733 69.3627 57.84 69.256C58.1067 69.1387 58.368 69 58.624 68.84H60.352V77.096H62.656V79H55.264Z" fill="#00CF92"/>
<circle cx="93" cy="74" r="12.5" stroke="#00DA9A"/>
<path d="M88.928 79V77.656C89.8987 76.8347 90.7467 76.0933 91.472 75.432C92.208 74.76 92.7787 74.1467 93.184 73.592C93.5893 73.0267 93.792 72.504 93.792 72.024C93.792 71.5227 93.6427 71.144 93.344 70.888C93.056 70.6213 92.6507 70.488 92.128 70.488C91.7227 70.488 91.3493 70.5947 91.008 70.808C90.6773 71.0107 90.368 71.2507 90.08 71.528L88.816 70.264C89.3387 69.72 89.8773 69.3147 90.432 69.048C90.9973 68.7813 91.6693 68.648 92.448 68.648C93.152 68.648 93.7707 68.7813 94.304 69.048C94.848 69.3147 95.2693 69.6933 95.568 70.184C95.8773 70.664 96.032 71.2293 96.032 71.88C96.032 72.456 95.856 73.0373 95.504 73.624C95.1627 74.2107 94.704 74.8027 94.128 75.4C93.5627 75.9867 92.9547 76.568 92.304 77.144C92.592 77.112 92.9067 77.0853 93.248 77.064C93.5893 77.032 93.888 77.016 94.144 77.016H96.56V79H88.928Z" fill="#00CF92"/>
<circle cx="127" cy="74" r="12.5" fill="#00DA9A" stroke="#00DA9A"/>
<path d="M126.464 79.192C125.888 79.192 125.36 79.128 124.88 79C124.411 78.8827 123.989 78.7173 123.616 78.504C123.243 78.2907 122.928 78.04 122.672 77.752L123.76 76.264C124.101 76.5627 124.485 76.808 124.912 77C125.339 77.192 125.781 77.288 126.24 77.288C126.603 77.288 126.928 77.2453 127.216 77.16C127.504 77.064 127.728 76.9253 127.888 76.744C128.059 76.5627 128.144 76.344 128.144 76.088C128.144 75.7893 128.053 75.5333 127.872 75.32C127.691 75.096 127.376 74.9253 126.928 74.808C126.491 74.6907 125.872 74.632 125.072 74.632V72.968C125.744 72.968 126.277 72.9093 126.672 72.792C127.067 72.6747 127.355 72.5147 127.536 72.312C127.717 72.1093 127.808 71.8747 127.808 71.608C127.808 71.2453 127.675 70.968 127.408 70.776C127.141 70.584 126.773 70.488 126.304 70.488C125.909 70.488 125.536 70.568 125.184 70.728C124.843 70.8773 124.496 71.096 124.144 71.384L122.96 69.944C123.461 69.5387 124 69.224 124.576 69C125.152 68.7653 125.765 68.648 126.416 68.648C127.152 68.648 127.803 68.76 128.368 68.984C128.933 69.1973 129.371 69.512 129.68 69.928C130 70.3333 130.16 70.8347 130.16 71.432C130.16 71.9547 129.989 72.4027 129.648 72.776C129.307 73.1493 128.832 73.4533 128.224 73.688V73.752C128.651 73.8693 129.035 74.04 129.376 74.264C129.728 74.4773 130 74.7493 130.192 75.08C130.395 75.4107 130.496 75.7947 130.496 76.232C130.496 76.8613 130.309 77.4 129.936 77.848C129.563 78.2853 129.072 78.6213 128.464 78.856C127.856 79.08 127.189 79.192 126.464 79.192Z" fill="white"/>
<circle cx="161" cy="74" r="12.5" stroke="#00DA9A"/>
<path d="M161.456 79V73.064C161.456 72.744 161.467 72.376 161.488 71.96C161.509 71.5333 161.525 71.16 161.536 70.84H161.472C161.301 71.1173 161.115 71.4 160.912 71.688C160.72 71.976 160.539 72.2693 160.368 72.568L158.832 74.776H164.928V76.568H156.56V74.952L160.8 68.84H163.648V79H161.456Z" fill="#00CF92"/>
<circle cx="195" cy="74" r="12.5" stroke="#00DA9A"/>
<path d="M194.528 79.192C193.941 79.192 193.413 79.128 192.944 79C192.475 78.872 192.059 78.7013 191.696 78.488C191.333 78.2747 191.013 78.0347 190.736 77.768L191.792 76.28C192.016 76.4613 192.251 76.632 192.496 76.792C192.741 76.9413 193.003 77.064 193.28 77.16C193.568 77.2453 193.872 77.288 194.192 77.288C194.576 77.288 194.917 77.2293 195.216 77.112C195.515 76.984 195.744 76.8027 195.904 76.568C196.075 76.3333 196.16 76.0453 196.16 75.704C196.16 75.192 195.984 74.8027 195.632 74.536C195.28 74.2693 194.837 74.136 194.304 74.136C193.973 74.136 193.691 74.1733 193.456 74.248C193.232 74.3227 192.944 74.456 192.592 74.648L191.552 73.976L191.824 68.84H198.048V70.824H193.856L193.68 72.728C193.925 72.6427 194.144 72.584 194.336 72.552C194.539 72.5093 194.768 72.488 195.024 72.488C195.653 72.488 196.229 72.6 196.752 72.824C197.285 73.048 197.712 73.3947 198.032 73.864C198.352 74.3333 198.512 74.9253 198.512 75.64C198.512 76.3973 198.325 77.0427 197.952 77.576C197.579 78.0987 197.088 78.4987 196.48 78.776C195.872 79.0533 195.221 79.192 194.528 79.192Z" fill="#00CF92"/>
</svg>
