<svg width="313" height="96" viewBox="0 0 313 96" fill="none" xmlns="http://www.w3.org/2000/svg">
<rect x="1" y="47" width="310.13" height="48" rx="16" stroke="#00DA9A" stroke-width="2"/>
<path d="M21.232 76.907L19.76 75.895L21.991 72.284L18.472 70.72L19.001 69.087L22.727 70.076L23.003 65.982H24.797L25.073 70.076L28.799 69.087L29.328 70.72L25.809 72.284L28.04 75.895L26.568 76.907L23.9 73.641L21.232 76.907ZM35.023 76.907L33.551 75.895L35.782 72.284L32.263 70.72L32.792 69.087L36.518 70.076L36.794 65.982H38.588L38.864 70.076L42.59 69.087L43.119 70.72L39.6 72.284L41.831 75.895L40.359 76.907L37.691 73.641L35.023 76.907ZM48.814 76.907L47.342 75.895L49.573 72.284L46.054 70.72L46.583 69.087L50.309 70.076L50.585 65.982H52.379L52.655 70.076L56.381 69.087L56.91 70.72L53.391 72.284L55.622 75.895L54.15 76.907L51.482 73.641L48.814 76.907ZM62.605 76.907L61.133 75.895L63.364 72.284L59.845 70.72L60.374 69.087L64.1 70.076L64.376 65.982H66.17L66.446 70.076L70.172 69.087L70.701 70.72L67.182 72.284L69.413 75.895L67.941 76.907L65.273 73.641L62.605 76.907ZM76.3961 76.907L74.9241 75.895L77.1551 72.284L73.6361 70.72L74.1651 69.087L77.8911 70.076L78.1671 65.982H79.9611L80.2371 70.076L83.9631 69.087L84.4921 70.72L80.9731 72.284L83.2041 75.895L81.7321 76.907L79.0641 73.641L76.3961 76.907ZM90.1871 76.907L88.7151 75.895L90.9461 72.284L87.4271 70.72L87.9561 69.087L91.6821 70.076L91.9581 65.982H93.7521L94.0281 70.076L97.7541 69.087L98.2831 70.72L94.7641 72.284L96.9951 75.895L95.5231 76.907L92.8551 73.641L90.1871 76.907ZM103.978 76.907L102.506 75.895L104.737 72.284L101.218 70.72L101.747 69.087L105.473 70.076L105.749 65.982H107.543L107.819 70.076L111.545 69.087L112.074 70.72L108.555 72.284L110.786 75.895L109.314 76.907L106.646 73.641L103.978 76.907ZM117.769 76.907L116.297 75.895L118.528 72.284L115.009 70.72L115.538 69.087L119.264 70.076L119.54 65.982H121.334L121.61 70.076L125.336 69.087L125.865 70.72L122.346 72.284L124.577 75.895L123.105 76.907L120.437 73.641L117.769 76.907ZM131.56 76.907L130.088 75.895L132.319 72.284L128.8 70.72L129.329 69.087L133.055 70.076L133.331 65.982H135.125L135.401 70.076L139.127 69.087L139.656 70.72L136.137 72.284L138.368 75.895L136.896 76.907L134.228 73.641L131.56 76.907ZM145.351 76.907L143.879 75.895L146.11 72.284L142.591 70.72L143.12 69.087L146.846 70.076L147.122 65.982H148.916L149.192 70.076L152.918 69.087L153.447 70.72L149.928 72.284L152.159 75.895L150.687 76.907L148.019 73.641L145.351 76.907ZM159.142 76.907L157.67 75.895L159.901 72.284L156.382 70.72L156.911 69.087L160.637 70.076L160.913 65.982H162.707L162.983 70.076L166.709 69.087L167.238 70.72L163.719 72.284L165.95 75.895L164.478 76.907L161.81 73.641L159.142 76.907ZM172.933 76.907L171.461 75.895L173.692 72.284L170.173 70.72L170.702 69.087L174.428 70.076L174.704 65.982H176.498L176.774 70.076L180.5 69.087L181.029 70.72L177.51 72.284L179.741 75.895L178.269 76.907L175.601 73.641L172.933 76.907Z" fill="#00CF92"/>
<path d="M33.4 31V10.136H40.792C42.3067 10.136 43.672 10.3493 44.888 10.776C46.1253 11.1813 47.1067 11.8747 47.832 12.856C48.5787 13.8373 48.952 15.1707 48.952 16.856C48.952 18.4773 48.5787 19.8107 47.832 20.856C47.0853 21.9013 46.0933 22.68 44.856 23.192C43.6187 23.6827 42.264 23.928 40.792 23.928H38.104V31H33.4ZM38.104 20.184H40.504C41.8053 20.184 42.7653 19.896 43.384 19.32C44.024 18.744 44.344 17.9227 44.344 16.856C44.344 15.7467 44.0133 14.9787 43.352 14.552C42.712 14.104 41.7627 13.88 40.504 13.88H38.104V20.184ZM57.3555 31.384C56.2888 31.384 55.3608 31.1707 54.5715 30.744C53.8035 30.3173 53.2062 29.7413 52.7795 29.016C52.3528 28.2907 52.1395 27.48 52.1395 26.584C52.1395 24.8133 52.9395 23.4587 54.5395 22.52C56.1608 21.5813 58.8488 21.0053 62.6035 20.792C62.5395 20.3013 62.3795 19.8853 62.1235 19.544C61.8675 19.2027 61.4942 18.9467 61.0035 18.776C60.5342 18.584 59.9368 18.488 59.2115 18.488C58.6995 18.488 58.1875 18.552 57.6755 18.68C57.1635 18.7867 56.6302 18.9573 56.0755 19.192C55.5422 19.4053 54.9768 19.6613 54.3795 19.96L52.7155 16.888C53.4408 16.4613 54.1982 16.088 54.9875 15.768C55.7982 15.448 56.6302 15.2027 57.4835 15.032C58.3582 14.84 59.2435 14.744 60.1395 14.744C61.6328 14.744 62.9128 15.0107 63.9795 15.544C65.0462 16.056 65.8675 16.8453 66.4435 17.912C67.0195 18.9573 67.3075 20.2907 67.3075 21.912V31H63.4675L63.1155 29.208H62.9875C62.1982 29.8053 61.3235 30.3173 60.3635 30.744C59.4035 31.1707 58.4008 31.384 57.3555 31.384ZM58.8595 27.736C59.5635 27.736 60.2248 27.5973 60.8435 27.32C61.4622 27.0213 62.0488 26.6587 62.6035 26.232V23.608C61.0462 23.6933 59.8302 23.8533 58.9555 24.088C58.1022 24.3227 57.5048 24.6213 57.1635 24.984C56.8222 25.3467 56.6515 25.7627 56.6515 26.232C56.6515 26.552 56.7368 26.8293 56.9075 27.064C57.0995 27.2987 57.3555 27.4693 57.6755 27.576C58.0168 27.6827 58.4115 27.736 58.8595 27.736ZM78.847 31.384C77.439 31.384 76.0417 31.1493 74.655 30.68C73.2683 30.1893 72.0737 29.6133 71.071 28.952L73.087 26.008C74.047 26.6267 75.0603 27.096 76.127 27.416C77.215 27.736 78.335 27.896 79.487 27.896C80.3617 27.896 81.0017 27.768 81.407 27.512C81.8123 27.2347 82.015 26.9147 82.015 26.552C82.015 26.3173 81.951 26.1253 81.823 25.976C81.7163 25.8053 81.5137 25.656 81.215 25.528C80.9377 25.3787 80.543 25.24 80.031 25.112C79.5403 24.984 78.9003 24.8347 78.111 24.664C75.9563 24.1947 74.4097 23.5547 73.471 22.744C72.5323 21.9333 72.063 20.92 72.063 19.704C72.063 18.2107 72.7137 17.016 74.015 16.12C75.3163 15.2027 77.0977 14.744 79.359 14.744C80.7883 14.744 82.079 14.9787 83.231 15.448C84.4043 15.896 85.407 16.3867 86.239 16.92L84.127 19.736C83.3377 19.2453 82.495 18.872 81.599 18.616C80.703 18.36 79.8177 18.232 78.943 18.232C78.4523 18.232 78.047 18.2853 77.727 18.392C77.407 18.4773 77.1617 18.6267 76.991 18.84C76.8203 19.032 76.735 19.2453 76.735 19.48C76.735 19.9067 77.0123 20.2267 77.567 20.44C78.1217 20.632 79.071 20.8773 80.415 21.176C82.0363 21.5387 83.3057 21.9547 84.223 22.424C85.1403 22.8933 85.7697 23.4373 86.111 24.056C86.4737 24.6533 86.655 25.3893 86.655 26.264C86.655 27.224 86.3563 28.088 85.759 28.856C85.183 29.624 84.3083 30.2427 83.135 30.712C81.983 31.16 80.5537 31.384 78.847 31.384ZM98.0345 31.384C96.6265 31.384 95.2292 31.1493 93.8425 30.68C92.4558 30.1893 91.2612 29.6133 90.2585 28.952L92.2745 26.008C93.2345 26.6267 94.2478 27.096 95.3145 27.416C96.4025 27.736 97.5225 27.896 98.6745 27.896C99.5492 27.896 100.189 27.768 100.595 27.512C101 27.2347 101.203 26.9147 101.203 26.552C101.203 26.3173 101.139 26.1253 101.011 25.976C100.904 25.8053 100.701 25.656 100.403 25.528C100.125 25.3787 99.7305 25.24 99.2185 25.112C98.7278 24.984 98.0878 24.8347 97.2985 24.664C95.1438 24.1947 93.5972 23.5547 92.6585 22.744C91.7198 21.9333 91.2505 20.92 91.2505 19.704C91.2505 18.2107 91.9012 17.016 93.2025 16.12C94.5038 15.2027 96.2852 14.744 98.5465 14.744C99.9758 14.744 101.267 14.9787 102.419 15.448C103.592 15.896 104.595 16.3867 105.427 16.92L103.315 19.736C102.525 19.2453 101.683 18.872 100.787 18.616C99.8905 18.36 99.0052 18.232 98.1305 18.232C97.6398 18.232 97.2345 18.2853 96.9145 18.392C96.5945 18.4773 96.3492 18.6267 96.1785 18.84C96.0078 19.032 95.9225 19.2453 95.9225 19.48C95.9225 19.9067 96.1998 20.2267 96.7545 20.44C97.3092 20.632 98.2585 20.8773 99.6025 21.176C101.224 21.5387 102.493 21.9547 103.411 22.424C104.328 22.8933 104.957 23.4373 105.299 24.056C105.661 24.6533 105.843 25.3893 105.843 26.264C105.843 27.224 105.544 28.088 104.947 28.856C104.371 29.624 103.496 30.2427 102.323 30.712C101.171 31.16 99.7412 31.384 98.0345 31.384ZM110.47 31L107.878 15.128H112.422L113.414 22.488C113.521 23.256 113.606 24.0347 113.67 24.824C113.755 25.592 113.841 26.3813 113.926 27.192H114.022C114.129 26.3813 114.235 25.5813 114.342 24.792C114.47 24.0027 114.609 23.2347 114.758 22.488L115.75 17.24H119.174L120.198 22.488C120.347 23.256 120.486 24.0347 120.614 24.824C120.763 25.592 120.891 26.3813 120.998 27.192H121.126C121.233 26.3813 121.307 25.592 121.35 24.824C121.414 24.0347 121.489 23.256 121.574 22.488L122.47 15.128H126.822L124.39 31H118.854L117.99 25.848C117.905 25.144 117.809 24.408 117.702 23.64C117.617 22.872 117.521 22.04 117.414 21.144H117.286C117.222 21.8053 117.147 22.5093 117.062 23.256C116.977 23.9813 116.87 24.8453 116.742 25.848L115.91 31H110.47ZM136.538 31.384C135.151 31.384 133.839 31.064 132.602 30.424C131.364 29.7627 130.362 28.8133 129.594 27.576C128.826 26.3173 128.442 24.8133 128.442 23.064C128.442 21.3147 128.826 19.8213 129.594 18.584C130.362 17.3253 131.364 16.376 132.602 15.736C133.839 15.0747 135.151 14.744 136.538 14.744C137.924 14.744 139.236 15.0747 140.474 15.736C141.711 16.376 142.714 17.3253 143.482 18.584C144.25 19.8213 144.634 21.3147 144.634 23.064C144.634 24.8133 144.25 26.3173 143.482 27.576C142.714 28.8133 141.711 29.7627 140.474 30.424C139.236 31.064 137.924 31.384 136.538 31.384ZM136.538 27.576C137.263 27.576 137.86 27.3947 138.33 27.032C138.82 26.6693 139.183 26.1467 139.418 25.464C139.674 24.7813 139.802 23.9813 139.802 23.064C139.802 22.1467 139.674 21.3467 139.418 20.664C139.183 19.9813 138.82 19.4587 138.33 19.096C137.86 18.7333 137.263 18.552 136.538 18.552C135.812 18.552 135.204 18.7333 134.714 19.096C134.244 19.4587 133.882 19.9813 133.626 20.664C133.391 21.3467 133.274 22.1467 133.274 23.064C133.274 23.9813 133.391 24.7813 133.626 25.464C133.882 26.1467 134.244 26.6693 134.714 27.032C135.204 27.3947 135.812 27.576 136.538 27.576ZM149.837 31V15.128H153.677L154.061 18.584H154.157C154.946 17.2827 155.896 16.3227 157.005 15.704C158.136 15.064 159.33 14.744 160.589 14.744C161.293 14.744 161.858 14.7973 162.285 14.904C162.733 15.0107 163.192 15.1707 163.661 15.384L162.701 19.32C162.21 19.1707 161.762 19.064 161.357 19C160.973 18.9147 160.482 18.872 159.885 18.872C158.904 18.872 157.933 19.16 156.973 19.736C156.034 20.312 155.224 21.3147 154.541 22.744V31H149.837ZM173.505 31.384C171.499 31.384 169.878 30.648 168.641 29.176C167.425 27.6827 166.817 25.6453 166.817 23.064C166.817 21.336 167.137 19.8533 167.777 18.616C168.438 17.3787 169.291 16.4293 170.337 15.768C171.382 15.0853 172.47 14.744 173.601 14.744C174.475 14.744 175.233 14.8933 175.873 15.192C176.513 15.4907 177.089 15.9067 177.601 16.44H177.729L177.505 13.976V8.568H182.208V31H178.369L178.017 29.368H177.921C177.345 29.944 176.662 30.424 175.873 30.808C175.105 31.192 174.315 31.384 173.505 31.384ZM174.72 27.544C175.254 27.544 175.745 27.4373 176.193 27.224C176.662 26.9893 177.099 26.6053 177.505 26.072V19.64C177.078 19.256 176.641 18.9893 176.193 18.84C175.766 18.6693 175.318 18.584 174.849 18.584C174.273 18.584 173.739 18.744 173.249 19.064C172.758 19.384 172.363 19.8747 172.065 20.536C171.787 21.176 171.649 21.9973 171.649 23C171.649 24.5573 171.915 25.7093 172.449 26.456C172.982 27.1813 173.739 27.544 174.72 27.544ZM186.868 31V27.032H191.732V14.104H186.868V10.136H201.332V14.104H196.468V27.032H201.332V31H186.868ZM205.992 31V15.128H209.832L210.184 17.24H210.312C210.994 16.5573 211.773 15.9707 212.648 15.48C213.544 14.9893 214.589 14.744 215.784 14.744C217.576 14.744 218.888 15.32 219.72 16.472C220.552 17.624 220.968 19.2027 220.968 21.208V31H216.264V21.816C216.264 20.7493 216.082 19.9707 215.72 19.48C215.378 18.9893 214.781 18.744 213.928 18.744C213.288 18.744 212.722 18.8933 212.232 19.192C211.762 19.4693 211.25 19.8747 210.696 20.408V31H205.992ZM225.179 36.888V15.128H229.019L229.371 16.728H229.467C230.128 16.152 230.864 15.6827 231.675 15.32C232.507 14.936 233.35 14.744 234.203 14.744C235.526 14.744 236.656 15.0747 237.595 15.736C238.555 16.3973 239.291 17.336 239.803 18.552C240.315 19.768 240.571 21.1867 240.571 22.808C240.571 24.6213 240.24 26.168 239.579 27.448C238.939 28.728 238.096 29.7093 237.051 30.392C236.006 31.0533 234.886 31.384 233.691 31.384C232.987 31.384 232.294 31.2347 231.611 30.936C230.95 30.6373 230.342 30.2107 229.787 29.656H229.659L229.883 32.248V36.888H225.179ZM232.603 27.544C233.2 27.544 233.734 27.384 234.203 27.064C234.672 26.744 235.046 26.2427 235.323 25.56C235.6 24.856 235.739 23.96 235.739 22.872C235.739 21.912 235.632 21.1227 235.419 20.504C235.206 19.864 234.886 19.384 234.459 19.064C234.054 18.744 233.51 18.584 232.827 18.584C232.315 18.584 231.814 18.7013 231.323 18.936C230.854 19.1493 230.374 19.5227 229.883 20.056V26.488C230.331 26.8507 230.79 27.1173 231.259 27.288C231.75 27.4587 232.198 27.544 232.603 27.544ZM249.199 31.384C247.385 31.384 246.073 30.808 245.263 29.656C244.452 28.504 244.047 26.9253 244.047 24.92V15.128H248.751V24.312C248.751 25.3787 248.911 26.1573 249.231 26.648C249.572 27.1387 250.18 27.384 251.055 27.384C251.652 27.384 252.185 27.256 252.655 27C253.124 26.744 253.625 26.264 254.159 25.56V15.128H258.863V31H255.023L254.671 28.728H254.543C253.839 29.5173 253.06 30.1573 252.207 30.648C251.353 31.1387 250.351 31.384 249.199 31.384ZM273.666 31.384C271.981 31.384 270.637 31.096 269.634 30.52C268.653 29.9227 267.938 29.1013 267.49 28.056C267.042 27.0107 266.818 25.7947 266.818 24.408V18.808H262.85V15.32L267.042 15.128L267.65 10.264H271.522V15.128H278.242V18.808H271.522V24.376C271.522 25.1653 271.639 25.8053 271.874 26.296C272.109 26.7867 272.471 27.1493 272.962 27.384C273.453 27.5973 274.082 27.704 274.85 27.704C275.469 27.704 276.034 27.6507 276.546 27.544C277.058 27.4373 277.549 27.2987 278.018 27.128L278.85 30.52C278.146 30.7333 277.367 30.9253 276.514 31.096C275.682 31.288 274.733 31.384 273.666 31.384Z" fill="#00DA9A"/>
<line x1="182.5" y1="55" x2="182.5" y2="87" stroke="#00CF92"/>
</svg>
