<svg width="100%" height="100%" viewBox="0 0 288 58" fill="none"
    xmlns="http://www.w3.org/2000/svg">
    <rect x="1" y="1" width="48" height="48" rx="24" stroke="#00DA9A" stroke-width="2"/>
    <rect x="8" y="8" width="34" height="34" rx="17" fill="#00DA9A" stroke="#00DA9A" stroke-width="2"/>
    <path d="M66.17 37V16.788H73.331C74.757 16.788 76.059 16.9843 77.237 17.377C78.415 17.749 79.3553 18.4 80.058 19.33C80.7813 20.2393 81.143 21.4897 81.143 23.081C81.143 24.631 80.7813 25.8917 80.058 26.863C79.3553 27.8343 78.415 28.5577 77.237 29.033C76.059 29.4877 74.757 29.715 73.331 29.715H70.727V37H66.17ZM70.727 26.088H72.959C74.1577 26.088 75.067 25.84 75.687 25.344C76.3277 24.8273 76.648 24.073 76.648 23.081C76.648 22.089 76.3277 21.3967 75.687 21.004C75.067 20.6113 74.1577 20.415 72.959 20.415H70.727V26.088ZM72.494 28.537L75.656 25.592L82.104 37H76.989L72.494 28.537ZM89.5319 37.372C88.4986 37.372 87.5996 37.1653 86.8349 36.752C86.0909 36.3387 85.5122 35.7807 85.0989 35.078C84.6856 34.3753 84.4789 33.59 84.4789 32.722C84.4789 31.0067 85.2539 29.6943 86.8039 28.785C88.3746 27.8757 90.9786 27.3177 94.6159 27.111C94.5539 26.6357 94.3989 26.2327 94.1509 25.902C93.9029 25.5713 93.5412 25.3233 93.0659 25.158C92.6112 24.972 92.0326 24.879 91.3299 24.879C90.8339 24.879 90.3379 24.941 89.8419 25.065C89.3459 25.1683 88.8292 25.3337 88.2919 25.561C87.7752 25.7677 87.2276 26.0157 86.6489 26.305L85.0369 23.329C85.7396 22.9157 86.4732 22.554 87.2379 22.244C88.0232 21.934 88.8292 21.6963 89.6559 21.531C90.5032 21.345 91.3609 21.252 92.2289 21.252C93.6756 21.252 94.9156 21.5103 95.9489 22.027C96.9822 22.523 97.7779 23.2877 98.3359 24.321C98.8939 25.3337 99.1729 26.6253 99.1729 28.196V37H95.4529L95.1119 35.264H94.9879C94.2232 35.8427 93.3759 36.3387 92.4459 36.752C91.5159 37.1653 90.5446 37.372 89.5319 37.372ZM90.9889 33.838C91.6709 33.838 92.3116 33.7037 92.9109 33.435C93.5102 33.1457 94.0786 32.7943 94.6159 32.381V29.839C93.1072 29.9217 91.9292 30.0767 91.0819 30.304C90.2552 30.5313 89.6766 30.8207 89.3459 31.172C89.0152 31.5233 88.8499 31.9263 88.8499 32.381C88.8499 32.691 88.9326 32.9597 89.0979 33.187C89.2839 33.4143 89.5319 33.5797 89.8419 33.683C90.1726 33.7863 90.5549 33.838 90.9889 33.838ZM109.112 37.372C107.169 37.372 105.598 36.659 104.4 35.233C103.222 33.7863 102.633 31.8127 102.633 29.312C102.633 27.638 102.943 26.2017 103.563 25.003C104.203 23.8043 105.03 22.8847 106.043 22.244C107.055 21.5827 108.109 21.252 109.205 21.252C110.052 21.252 110.786 21.3967 111.406 21.686C112.026 21.9753 112.584 22.3783 113.08 22.895H113.204L112.987 20.508V15.269H117.544V37H113.824L113.483 35.419H113.39C112.832 35.977 112.17 36.442 111.406 36.814C110.662 37.186 109.897 37.372 109.112 37.372ZM110.29 33.652C110.806 33.652 111.282 33.5487 111.716 33.342C112.17 33.1147 112.594 32.7427 112.987 32.226V25.995C112.573 25.623 112.15 25.3647 111.716 25.22C111.302 25.0547 110.868 24.972 110.414 24.972C109.856 24.972 109.339 25.127 108.864 25.437C108.388 25.747 108.006 26.2223 107.717 26.863C107.448 27.483 107.314 28.2787 107.314 29.25C107.314 30.7587 107.572 31.8747 108.089 32.598C108.605 33.3007 109.339 33.652 110.29 33.652ZM128.382 37V25.189H122.182V21.624H132.939V37H128.382ZM130.459 19.206C129.591 19.206 128.867 18.958 128.289 18.462C127.71 17.9453 127.421 17.2737 127.421 16.447C127.421 15.5997 127.71 14.9177 128.289 14.401C128.867 13.8637 129.591 13.595 130.459 13.595C131.347 13.595 132.071 13.8637 132.629 14.401C133.207 14.9177 133.497 15.5997 133.497 16.447C133.497 17.2737 133.207 17.9453 132.629 18.462C132.071 18.958 131.347 19.206 130.459 19.206ZM147.652 37.372C146.308 37.372 145.037 37.062 143.839 36.442C142.64 35.8013 141.669 34.8817 140.925 33.683C140.181 32.4637 139.809 31.0067 139.809 29.312C139.809 27.6173 140.181 26.1707 140.925 24.972C141.669 23.7527 142.64 22.833 143.839 22.213C145.037 21.5723 146.308 21.252 147.652 21.252C148.995 21.252 150.266 21.5723 151.465 22.213C152.663 22.833 153.635 23.7527 154.379 24.972C155.123 26.1707 155.495 27.6173 155.495 29.312C155.495 31.0067 155.123 32.4637 154.379 33.683C153.635 34.8817 152.663 35.8013 151.465 36.442C150.266 37.062 148.995 37.372 147.652 37.372ZM147.652 33.683C148.354 33.683 148.933 33.5073 149.388 33.156C149.863 32.8047 150.214 32.2983 150.442 31.637C150.69 30.9757 150.814 30.2007 150.814 29.312C150.814 28.4233 150.69 27.6483 150.442 26.987C150.214 26.3257 149.863 25.8193 149.388 25.468C148.933 25.1167 148.354 24.941 147.652 24.941C146.949 24.941 146.36 25.1167 145.885 25.468C145.43 25.8193 145.079 26.3257 144.831 26.987C144.603 27.6483 144.49 28.4233 144.49 29.312C144.49 30.2007 144.603 30.9757 144.831 31.637C145.079 32.2983 145.43 32.8047 145.885 33.156C146.36 33.5073 146.949 33.683 147.652 33.683ZM166.239 37.372C165.185 37.372 164.317 37.0207 163.635 36.318C162.974 35.6153 162.643 34.7577 162.643 33.745C162.643 32.7323 162.974 31.8747 163.635 31.172C164.317 30.4487 165.185 30.087 166.239 30.087C167.314 30.087 168.182 30.4487 168.843 31.172C169.505 31.8747 169.835 32.7323 169.835 33.745C169.835 34.7577 169.505 35.6153 168.843 36.318C168.182 37.0207 167.314 37.372 166.239 37.372ZM177.821 37V16.788H184.61C186.016 16.788 187.276 16.943 188.392 17.253C189.508 17.5423 190.387 18.0487 191.027 18.772C191.689 19.4953 192.019 20.508 192.019 21.81C192.019 22.7193 191.74 23.5977 191.182 24.445C190.624 25.2923 189.746 25.871 188.547 26.181V26.305C189.994 26.553 191.089 27.0697 191.833 27.855C192.577 28.6197 192.949 29.684 192.949 31.048C192.949 32.412 192.608 33.5383 191.926 34.427C191.244 35.295 190.314 35.946 189.136 36.38C187.979 36.7933 186.667 37 185.199 37H177.821ZM182.378 24.91H184.393C185.509 24.91 186.315 24.693 186.811 24.259C187.307 23.8043 187.555 23.1947 187.555 22.43C187.555 21.686 187.297 21.159 186.78 20.849C186.284 20.5183 185.499 20.353 184.424 20.353H182.378V24.91ZM182.378 33.435H184.827C186.067 33.435 186.987 33.2077 187.586 32.753C188.186 32.2983 188.485 31.6163 188.485 30.707C188.485 29.8183 188.186 29.1777 187.586 28.785C186.987 28.3923 186.067 28.196 184.827 28.196H182.378V33.435ZM201.028 37.372C199.272 37.372 198.001 36.814 197.215 35.698C196.43 34.582 196.037 33.0527 196.037 31.11V21.624H200.594V30.521C200.594 31.5543 200.749 32.3087 201.059 32.784C201.39 33.2593 201.979 33.497 202.826 33.497C203.405 33.497 203.922 33.373 204.376 33.125C204.831 32.877 205.317 32.412 205.833 31.73V21.624H210.39V37H206.67L206.329 34.799H206.205C205.523 35.5637 204.769 36.1837 203.942 36.659C203.116 37.1343 202.144 37.372 201.028 37.372ZM224.731 37.372C223.098 37.372 221.796 37.093 220.825 36.535C219.874 35.9563 219.182 35.1607 218.748 34.148C218.314 33.1353 218.097 31.9573 218.097 30.614V25.189H214.253V21.81L218.314 21.624L218.903 16.912H222.654V21.624H229.164V25.189H222.654V30.583C222.654 31.3477 222.768 31.9677 222.995 32.443C223.222 32.9183 223.574 33.2697 224.049 33.497C224.524 33.7037 225.134 33.807 225.878 33.807C226.477 33.807 227.025 33.7553 227.521 33.652C228.017 33.5487 228.492 33.4143 228.947 33.249L229.753 36.535C229.071 36.7417 228.317 36.9277 227.49 37.093C226.684 37.279 225.764 37.372 224.731 37.372ZM243.319 37.372C241.686 37.372 240.384 37.093 239.413 36.535C238.462 35.9563 237.77 35.1607 237.336 34.148C236.902 33.1353 236.685 31.9573 236.685 30.614V25.189H232.841V21.81L236.902 21.624L237.491 16.912H241.242V21.624H247.752V25.189H241.242V30.583C241.242 31.3477 241.356 31.9677 241.583 32.443C241.81 32.9183 242.162 33.2697 242.637 33.497C243.112 33.7037 243.722 33.807 244.466 33.807C245.065 33.807 245.613 33.7553 246.109 33.652C246.605 33.5487 247.08 33.4143 247.535 33.249L248.341 36.535C247.659 36.7417 246.905 36.9277 246.078 37.093C245.272 37.279 244.352 37.372 243.319 37.372ZM259.179 37.372C257.836 37.372 256.565 37.062 255.366 36.442C254.167 35.8013 253.196 34.8817 252.452 33.683C251.708 32.4637 251.336 31.0067 251.336 29.312C251.336 27.6173 251.708 26.1707 252.452 24.972C253.196 23.7527 254.167 22.833 255.366 22.213C256.565 21.5723 257.836 21.252 259.179 21.252C260.522 21.252 261.793 21.5723 262.992 22.213C264.191 22.833 265.162 23.7527 265.906 24.972C266.65 26.1707 267.022 27.6173 267.022 29.312C267.022 31.0067 266.65 32.4637 265.906 33.683C265.162 34.8817 264.191 35.8013 262.992 36.442C261.793 37.062 260.522 37.372 259.179 37.372ZM259.179 33.683C259.882 33.683 260.46 33.5073 260.915 33.156C261.39 32.8047 261.742 32.2983 261.969 31.637C262.217 30.9757 262.341 30.2007 262.341 29.312C262.341 28.4233 262.217 27.6483 261.969 26.987C261.742 26.3257 261.39 25.8193 260.915 25.468C260.46 25.1167 259.882 24.941 259.179 24.941C258.476 24.941 257.887 25.1167 257.412 25.468C256.957 25.8193 256.606 26.3257 256.358 26.987C256.131 27.6483 256.017 28.4233 256.017 29.312C256.017 30.2007 256.131 30.9757 256.358 31.637C256.606 32.2983 256.957 32.8047 257.412 33.156C257.887 33.5073 258.476 33.683 259.179 33.683ZM270.699 37V21.624H274.419L274.76 23.67H274.884C275.545 23.0087 276.299 22.4403 277.147 21.965C278.015 21.4897 279.027 21.252 280.185 21.252C281.921 21.252 283.192 21.81 283.998 22.926C284.804 24.042 285.207 25.5713 285.207 27.514V37H280.65V28.103C280.65 27.0697 280.474 26.3153 280.123 25.84C279.792 25.3647 279.213 25.127 278.387 25.127C277.767 25.127 277.219 25.2717 276.744 25.561C276.289 25.8297 275.793 26.2223 275.256 26.739V37H270.699Z" fill="#00CF92"/>
    <path d="M54.8682 40.8057L49.2246 46.4502L48.6729 47.002L49.2461 47.5312L55.917 53.6885L52.667 56.9395L46.167 50.4395L43.4697 53.1367L39.9941 56.6113L32.1875 33.1895L54.8682 40.8057Z" fill="#71FFAC" stroke="#00CF92" stroke-width="1.5"/>
</svg>