<svg width="100%" height="100%" viewBox="0 0 338 119" fill="none"
    xmlns="http://www.w3.org/2000/svg">
    <rect x="0.5" y="44.5" width="337" height="74" rx="16.5" stroke="#00DA9A"/>
    <rect x="13" y="68" width="28" height="28" rx="14" stroke="#00DA9A" stroke-width="2"/>
    <rect x="18" y="73" width="18" height="18" rx="9" fill="#00DA9A" stroke="#00DA9A" stroke-width="2"/>
    <path d="M50.12 88V77.568H53.816C54.552 77.568 55.224 77.6693 55.832 77.872C56.44 78.064 56.9253 78.4 57.288 78.88C57.6613 79.3493 57.848 79.9947 57.848 80.816C57.848 81.616 57.6613 82.2667 57.288 82.768C56.9253 83.2693 56.44 83.6427 55.832 83.888C55.224 84.1227 54.552 84.24 53.816 84.24H52.472V88H50.12ZM52.472 82.368H53.624C54.2427 82.368 54.712 82.24 55.032 81.984C55.3627 81.7173 55.528 81.328 55.528 80.816C55.528 80.304 55.3627 79.9467 55.032 79.744C54.712 79.5413 54.2427 79.44 53.624 79.44H52.472V82.368ZM53.384 83.632L55.016 82.112L58.344 88H55.704L53.384 83.632ZM62.1778 88.192C61.6444 88.192 61.1804 88.0853 60.7858 87.872C60.4018 87.6587 60.1031 87.3707 59.8898 87.008C59.6764 86.6453 59.5698 86.24 59.5698 85.792C59.5698 84.9067 59.9698 84.2293 60.7698 83.76C61.5804 83.2907 62.9244 83.0027 64.8018 82.896C64.7698 82.6507 64.6898 82.4427 64.5618 82.272C64.4338 82.1013 64.2471 81.9733 64.0018 81.888C63.7671 81.792 63.4684 81.744 63.1058 81.744C62.8498 81.744 62.5938 81.776 62.3378 81.84C62.0818 81.8933 61.8151 81.9787 61.5378 82.096C61.2711 82.2027 60.9884 82.3307 60.6898 82.48L59.8578 80.944C60.2204 80.7307 60.5991 80.544 60.9938 80.384C61.3991 80.224 61.8151 80.1013 62.2418 80.016C62.6791 79.92 63.1218 79.872 63.5698 79.872C64.3164 79.872 64.9564 80.0053 65.4898 80.272C66.0231 80.528 66.4338 80.9227 66.7218 81.456C67.0098 81.9787 67.1538 82.6453 67.1538 83.456V88H65.2338L65.0578 87.104H64.9938C64.5991 87.4027 64.1618 87.6587 63.6818 87.872C63.2018 88.0853 62.7004 88.192 62.1778 88.192ZM62.9298 86.368C63.2818 86.368 63.6124 86.2987 63.9218 86.16C64.2311 86.0107 64.5244 85.8293 64.8018 85.616V84.304C64.0231 84.3467 63.4151 84.4267 62.9778 84.544C62.5511 84.6613 62.2524 84.8107 62.0818 84.992C61.9111 85.1733 61.8258 85.3813 61.8258 85.616C61.8258 85.776 61.8684 85.9147 61.9538 86.032C62.0498 86.1493 62.1778 86.2347 62.3378 86.288C62.5084 86.3413 62.7058 86.368 62.9298 86.368ZM72.2835 88.192C71.2808 88.192 70.4702 87.824 69.8515 87.088C69.2435 86.3413 68.9395 85.3227 68.9395 84.032C68.9395 83.168 69.0995 82.4267 69.4195 81.808C69.7502 81.1893 70.1768 80.7147 70.6995 80.384C71.2222 80.0427 71.7662 79.872 72.3315 79.872C72.7688 79.872 73.1475 79.9467 73.4675 80.096C73.7875 80.2453 74.0755 80.4533 74.3315 80.72H74.3955L74.2835 79.488V76.784H76.6355V88H74.7155L74.5395 87.184H74.4915C74.2035 87.472 73.8622 87.712 73.4675 87.904C73.0835 88.096 72.6888 88.192 72.2835 88.192ZM72.8915 86.272C73.1582 86.272 73.4035 86.2187 73.6275 86.112C73.8622 85.9947 74.0808 85.8027 74.2835 85.536V82.32C74.0702 82.128 73.8515 81.9947 73.6275 81.92C73.4142 81.8347 73.1902 81.792 72.9555 81.792C72.6675 81.792 72.4008 81.872 72.1555 82.032C71.9102 82.192 71.7128 82.4373 71.5635 82.768C71.4248 83.088 71.3555 83.4987 71.3555 84C71.3555 84.7787 71.4888 85.3547 71.7555 85.728C72.0222 86.0907 72.4008 86.272 72.8915 86.272ZM82.2293 88V81.904H79.0293V80.064H84.5813V88H82.2293ZM83.3013 78.816C82.8533 78.816 82.4799 78.688 82.1813 78.432C81.8826 78.1653 81.7333 77.8187 81.7333 77.392C81.7333 76.9547 81.8826 76.6027 82.1813 76.336C82.4799 76.0587 82.8533 75.92 83.3013 75.92C83.7599 75.92 84.1333 76.0587 84.4213 76.336C84.7199 76.6027 84.8693 76.9547 84.8693 77.392C84.8693 77.8187 84.7199 78.1653 84.4213 78.432C84.1333 78.688 83.7599 78.816 83.3013 78.816ZM92.175 88.192C91.4817 88.192 90.8257 88.032 90.207 87.712C89.5883 87.3813 89.087 86.9067 88.703 86.288C88.319 85.6587 88.127 84.9067 88.127 84.032C88.127 83.1573 88.319 82.4107 88.703 81.792C89.087 81.1627 89.5883 80.688 90.207 80.368C90.8257 80.0373 91.4817 79.872 92.175 79.872C92.8683 79.872 93.5243 80.0373 94.143 80.368C94.7617 80.688 95.263 81.1627 95.647 81.792C96.031 82.4107 96.223 83.1573 96.223 84.032C96.223 84.9067 96.031 85.6587 95.647 86.288C95.263 86.9067 94.7617 87.3813 94.143 87.712C93.5243 88.032 92.8683 88.192 92.175 88.192ZM92.175 86.288C92.5377 86.288 92.8363 86.1973 93.071 86.016C93.3163 85.8347 93.4977 85.5733 93.615 85.232C93.743 84.8907 93.807 84.4907 93.807 84.032C93.807 83.5733 93.743 83.1733 93.615 82.832C93.4977 82.4907 93.3163 82.2293 93.071 82.048C92.8363 81.8667 92.5377 81.776 92.175 81.776C91.8123 81.776 91.5083 81.8667 91.263 82.048C91.0283 82.2293 90.847 82.4907 90.719 82.832C90.6017 83.1733 90.543 83.5733 90.543 84.032C90.543 84.4907 90.6017 84.8907 90.719 85.232C90.847 85.5733 91.0283 85.8347 91.263 86.016C91.5083 86.1973 91.8123 86.288 92.175 86.288ZM101.769 88.192C101.225 88.192 100.777 88.0107 100.425 87.648C100.083 87.2853 99.9128 86.8427 99.9128 86.32C99.9128 85.7973 100.083 85.3547 100.425 84.992C100.777 84.6187 101.225 84.432 101.769 84.432C102.323 84.432 102.771 84.6187 103.113 84.992C103.454 85.3547 103.625 85.7973 103.625 86.32C103.625 86.8427 103.454 87.2853 103.113 87.648C102.771 88.0107 102.323 88.192 101.769 88.192ZM107.747 88V77.568H111.251C111.976 77.568 112.627 77.648 113.203 77.808C113.779 77.9573 114.232 78.2187 114.562 78.592C114.904 78.9653 115.075 79.488 115.075 80.16C115.075 80.6293 114.931 81.0827 114.642 81.52C114.355 81.9573 113.901 82.256 113.283 82.416V82.48C114.029 82.608 114.595 82.8747 114.979 83.28C115.363 83.6747 115.555 84.224 115.555 84.928C115.555 85.632 115.379 86.2133 115.027 86.672C114.675 87.12 114.195 87.456 113.587 87.68C112.989 87.8933 112.312 88 111.555 88H107.747ZM110.099 81.76H111.139C111.715 81.76 112.131 81.648 112.387 81.424C112.643 81.1893 112.771 80.8747 112.771 80.48C112.771 80.096 112.637 79.824 112.371 79.664C112.115 79.4933 111.709 79.408 111.155 79.408H110.099V81.76ZM110.099 86.16H111.363C112.003 86.16 112.477 86.0427 112.787 85.808C113.096 85.5733 113.251 85.2213 113.251 84.752C113.251 84.2933 113.096 83.9627 112.787 83.76C112.477 83.5573 112.003 83.456 111.363 83.456H110.099V86.16ZM119.724 88.192C118.818 88.192 118.162 87.904 117.756 87.328C117.351 86.752 117.148 85.9627 117.148 84.96V80.064H119.5V84.656C119.5 85.1893 119.58 85.5787 119.74 85.824C119.911 86.0693 120.215 86.192 120.652 86.192C120.951 86.192 121.218 86.128 121.452 86C121.687 85.872 121.938 85.632 122.204 85.28V80.064H124.556V88H122.636L122.46 86.864H122.396C122.044 87.2587 121.655 87.5787 121.228 87.824C120.802 88.0693 120.3 88.192 119.724 88.192ZM131.958 88.192C131.115 88.192 130.443 88.048 129.942 87.76C129.451 87.4613 129.094 87.0507 128.87 86.528C128.646 86.0053 128.534 85.3973 128.534 84.704V81.904H126.55V80.16L128.646 80.064L128.95 77.632H130.886V80.064H134.246V81.904H130.886V84.688C130.886 85.0827 130.945 85.4027 131.062 85.648C131.179 85.8933 131.361 86.0747 131.606 86.192C131.851 86.2987 132.166 86.352 132.55 86.352C132.859 86.352 133.142 86.3253 133.398 86.272C133.654 86.2187 133.899 86.1493 134.134 86.064L134.55 87.76C134.198 87.8667 133.809 87.9627 133.382 88.048C132.966 88.144 132.491 88.192 131.958 88.192ZM141.552 88.192C140.709 88.192 140.037 88.048 139.536 87.76C139.045 87.4613 138.688 87.0507 138.464 86.528C138.24 86.0053 138.128 85.3973 138.128 84.704V81.904H136.144V80.16L138.24 80.064L138.544 77.632H140.48V80.064H143.84V81.904H140.48V84.688C140.48 85.0827 140.538 85.4027 140.656 85.648C140.773 85.8933 140.954 86.0747 141.2 86.192C141.445 86.2987 141.76 86.352 142.144 86.352C142.453 86.352 142.736 86.3253 142.992 86.272C143.248 86.2187 143.493 86.1493 143.728 86.064L144.144 87.76C143.792 87.8667 143.402 87.9627 142.976 88.048C142.56 88.144 142.085 88.192 141.552 88.192ZM149.738 88.192C149.044 88.192 148.388 88.032 147.77 87.712C147.151 87.3813 146.65 86.9067 146.266 86.288C145.882 85.6587 145.69 84.9067 145.69 84.032C145.69 83.1573 145.882 82.4107 146.266 81.792C146.65 81.1627 147.151 80.688 147.77 80.368C148.388 80.0373 149.044 79.872 149.738 79.872C150.431 79.872 151.087 80.0373 151.706 80.368C152.324 80.688 152.826 81.1627 153.21 81.792C153.594 82.4107 153.786 83.1573 153.786 84.032C153.786 84.9067 153.594 85.6587 153.21 86.288C152.826 86.9067 152.324 87.3813 151.706 87.712C151.087 88.032 150.431 88.192 149.738 88.192ZM149.738 86.288C150.1 86.288 150.399 86.1973 150.634 86.016C150.879 85.8347 151.06 85.5733 151.178 85.232C151.306 84.8907 151.37 84.4907 151.37 84.032C151.37 83.5733 151.306 83.1733 151.178 82.832C151.06 82.4907 150.879 82.2293 150.634 82.048C150.399 81.8667 150.1 81.776 149.738 81.776C149.375 81.776 149.071 81.8667 148.826 82.048C148.591 82.2293 148.41 82.4907 148.282 82.832C148.164 83.1733 148.106 83.5733 148.106 84.032C148.106 84.4907 148.164 84.8907 148.282 85.232C148.41 85.5733 148.591 85.8347 148.826 86.016C149.071 86.1973 149.375 86.288 149.738 86.288ZM155.683 88V80.064H157.603L157.779 81.12H157.843C158.185 80.7787 158.574 80.4853 159.011 80.24C159.459 79.9947 159.982 79.872 160.579 79.872C161.475 79.872 162.131 80.16 162.547 80.736C162.963 81.312 163.171 82.1013 163.171 83.104V88H160.819V83.408C160.819 82.8747 160.729 82.4853 160.547 82.24C160.377 81.9947 160.078 81.872 159.651 81.872C159.331 81.872 159.049 81.9467 158.803 82.096C158.569 82.2347 158.313 82.4373 158.035 82.704V88H155.683Z" fill="#00CF92"/>
    <path d="M56.8682 94.8057L51.2246 100.45L50.6729 101.002L51.2461 101.531L57.917 107.688L54.667 110.939L48.167 104.439L45.4697 107.137L41.9941 110.611L34.1875 87.1895L56.8682 94.8057Z" fill="#71FFAC" stroke="#00CF92" stroke-width="1.5"/>
    <rect x="174" y="68" width="28" height="28" rx="14" stroke="#00DA9A" stroke-width="2"/>
    <path d="M211.12 88V77.568H214.816C215.552 77.568 216.224 77.6693 216.832 77.872C217.44 78.064 217.925 78.4 218.288 78.88C218.661 79.3493 218.848 79.9947 218.848 80.816C218.848 81.616 218.661 82.2667 218.288 82.768C217.925 83.2693 217.44 83.6427 216.832 83.888C216.224 84.1227 215.552 84.24 214.816 84.24H213.472V88H211.12ZM213.472 82.368H214.624C215.243 82.368 215.712 82.24 216.032 81.984C216.363 81.7173 216.528 81.328 216.528 80.816C216.528 80.304 216.363 79.9467 216.032 79.744C215.712 79.5413 215.243 79.44 214.624 79.44H213.472V82.368ZM214.384 83.632L216.016 82.112L219.344 88H216.704L214.384 83.632ZM223.178 88.192C222.644 88.192 222.18 88.0853 221.786 87.872C221.402 87.6587 221.103 87.3707 220.89 87.008C220.676 86.6453 220.57 86.24 220.57 85.792C220.57 84.9067 220.97 84.2293 221.77 83.76C222.58 83.2907 223.924 83.0027 225.802 82.896C225.77 82.6507 225.69 82.4427 225.562 82.272C225.434 82.1013 225.247 81.9733 225.002 81.888C224.767 81.792 224.468 81.744 224.106 81.744C223.85 81.744 223.594 81.776 223.338 81.84C223.082 81.8933 222.815 81.9787 222.538 82.096C222.271 82.2027 221.988 82.3307 221.69 82.48L220.858 80.944C221.22 80.7307 221.599 80.544 221.994 80.384C222.399 80.224 222.815 80.1013 223.242 80.016C223.679 79.92 224.122 79.872 224.57 79.872C225.316 79.872 225.956 80.0053 226.49 80.272C227.023 80.528 227.434 80.9227 227.722 81.456C228.01 81.9787 228.154 82.6453 228.154 83.456V88H226.234L226.058 87.104H225.994C225.599 87.4027 225.162 87.6587 224.682 87.872C224.202 88.0853 223.7 88.192 223.178 88.192ZM223.93 86.368C224.282 86.368 224.612 86.2987 224.922 86.16C225.231 86.0107 225.524 85.8293 225.802 85.616V84.304C225.023 84.3467 224.415 84.4267 223.978 84.544C223.551 84.6613 223.252 84.8107 223.082 84.992C222.911 85.1733 222.826 85.3813 222.826 85.616C222.826 85.776 222.868 85.9147 222.954 86.032C223.05 86.1493 223.178 86.2347 223.338 86.288C223.508 86.3413 223.706 86.368 223.93 86.368ZM233.284 88.192C232.281 88.192 231.47 87.824 230.852 87.088C230.244 86.3413 229.94 85.3227 229.94 84.032C229.94 83.168 230.1 82.4267 230.42 81.808C230.75 81.1893 231.177 80.7147 231.7 80.384C232.222 80.0427 232.766 79.872 233.332 79.872C233.769 79.872 234.148 79.9467 234.468 80.096C234.788 80.2453 235.076 80.4533 235.332 80.72H235.396L235.284 79.488V76.784H237.635V88H235.716L235.54 87.184H235.492C235.204 87.472 234.862 87.712 234.468 87.904C234.084 88.096 233.689 88.192 233.284 88.192ZM233.891 86.272C234.158 86.272 234.404 86.2187 234.628 86.112C234.862 85.9947 235.081 85.8027 235.284 85.536V82.32C235.07 82.128 234.852 81.9947 234.628 81.92C234.414 81.8347 234.19 81.792 233.956 81.792C233.668 81.792 233.401 81.872 233.156 82.032C232.91 82.192 232.713 82.4373 232.564 82.768C232.425 83.088 232.356 83.4987 232.356 84C232.356 84.7787 232.489 85.3547 232.756 85.728C233.022 86.0907 233.401 86.272 233.891 86.272ZM243.229 88V81.904H240.029V80.064H245.581V88H243.229ZM244.301 78.816C243.853 78.816 243.48 78.688 243.181 78.432C242.883 78.1653 242.733 77.8187 242.733 77.392C242.733 76.9547 242.883 76.6027 243.181 76.336C243.48 76.0587 243.853 75.92 244.301 75.92C244.76 75.92 245.133 76.0587 245.421 76.336C245.72 76.6027 245.869 76.9547 245.869 77.392C245.869 77.8187 245.72 78.1653 245.421 78.432C245.133 78.688 244.76 78.816 244.301 78.816ZM253.175 88.192C252.482 88.192 251.826 88.032 251.207 87.712C250.588 87.3813 250.087 86.9067 249.703 86.288C249.319 85.6587 249.127 84.9067 249.127 84.032C249.127 83.1573 249.319 82.4107 249.703 81.792C250.087 81.1627 250.588 80.688 251.207 80.368C251.826 80.0373 252.482 79.872 253.175 79.872C253.868 79.872 254.524 80.0373 255.143 80.368C255.762 80.688 256.263 81.1627 256.647 81.792C257.031 82.4107 257.223 83.1573 257.223 84.032C257.223 84.9067 257.031 85.6587 256.647 86.288C256.263 86.9067 255.762 87.3813 255.143 87.712C254.524 88.032 253.868 88.192 253.175 88.192ZM253.175 86.288C253.538 86.288 253.836 86.1973 254.071 86.016C254.316 85.8347 254.498 85.5733 254.615 85.232C254.743 84.8907 254.807 84.4907 254.807 84.032C254.807 83.5733 254.743 83.1733 254.615 82.832C254.498 82.4907 254.316 82.2293 254.071 82.048C253.836 81.8667 253.538 81.776 253.175 81.776C252.812 81.776 252.508 81.8667 252.263 82.048C252.028 82.2293 251.847 82.4907 251.719 82.832C251.602 83.1733 251.543 83.5733 251.543 84.032C251.543 84.4907 251.602 84.8907 251.719 85.232C251.847 85.5733 252.028 85.8347 252.263 86.016C252.508 86.1973 252.812 86.288 253.175 86.288ZM262.769 88.192C262.225 88.192 261.777 88.0107 261.425 87.648C261.083 87.2853 260.913 86.8427 260.913 86.32C260.913 85.7973 261.083 85.3547 261.425 84.992C261.777 84.6187 262.225 84.432 262.769 84.432C263.323 84.432 263.771 84.6187 264.113 84.992C264.454 85.3547 264.625 85.7973 264.625 86.32C264.625 86.8427 264.454 87.2853 264.113 87.648C263.771 88.0107 263.323 88.192 262.769 88.192ZM268.747 88V77.568H272.251C272.976 77.568 273.627 77.648 274.203 77.808C274.779 77.9573 275.232 78.2187 275.562 78.592C275.904 78.9653 276.075 79.488 276.075 80.16C276.075 80.6293 275.931 81.0827 275.642 81.52C275.355 81.9573 274.901 82.256 274.283 82.416V82.48C275.029 82.608 275.595 82.8747 275.979 83.28C276.363 83.6747 276.555 84.224 276.555 84.928C276.555 85.632 276.379 86.2133 276.027 86.672C275.675 87.12 275.195 87.456 274.587 87.68C273.989 87.8933 273.312 88 272.555 88H268.747ZM271.099 81.76H272.139C272.715 81.76 273.131 81.648 273.387 81.424C273.643 81.1893 273.771 80.8747 273.771 80.48C273.771 80.096 273.637 79.824 273.371 79.664C273.115 79.4933 272.709 79.408 272.155 79.408H271.099V81.76ZM271.099 86.16H272.363C273.003 86.16 273.477 86.0427 273.787 85.808C274.096 85.5733 274.251 85.2213 274.251 84.752C274.251 84.2933 274.096 83.9627 273.787 83.76C273.477 83.5573 273.003 83.456 272.363 83.456H271.099V86.16ZM280.724 88.192C279.818 88.192 279.162 87.904 278.756 87.328C278.351 86.752 278.148 85.9627 278.148 84.96V80.064H280.5V84.656C280.5 85.1893 280.58 85.5787 280.74 85.824C280.911 86.0693 281.215 86.192 281.652 86.192C281.951 86.192 282.218 86.128 282.452 86C282.687 85.872 282.938 85.632 283.204 85.28V80.064H285.556V88H283.636L283.46 86.864H283.396C283.044 87.2587 282.655 87.5787 282.228 87.824C281.802 88.0693 281.3 88.192 280.724 88.192ZM292.958 88.192C292.115 88.192 291.443 88.048 290.942 87.76C290.451 87.4613 290.094 87.0507 289.87 86.528C289.646 86.0053 289.534 85.3973 289.534 84.704V81.904H287.55V80.16L289.646 80.064L289.95 77.632H291.886V80.064H295.246V81.904H291.886V84.688C291.886 85.0827 291.945 85.4027 292.062 85.648C292.179 85.8933 292.361 86.0747 292.606 86.192C292.851 86.2987 293.166 86.352 293.55 86.352C293.859 86.352 294.142 86.3253 294.398 86.272C294.654 86.2187 294.899 86.1493 295.134 86.064L295.55 87.76C295.198 87.8667 294.809 87.9627 294.382 88.048C293.966 88.144 293.491 88.192 292.958 88.192ZM302.552 88.192C301.709 88.192 301.037 88.048 300.536 87.76C300.045 87.4613 299.688 87.0507 299.464 86.528C299.24 86.0053 299.128 85.3973 299.128 84.704V81.904H297.144V80.16L299.24 80.064L299.544 77.632H301.48V80.064H304.84V81.904H301.48V84.688C301.48 85.0827 301.538 85.4027 301.656 85.648C301.773 85.8933 301.954 86.0747 302.2 86.192C302.445 86.2987 302.76 86.352 303.144 86.352C303.453 86.352 303.736 86.3253 303.992 86.272C304.248 86.2187 304.493 86.1493 304.728 86.064L305.144 87.76C304.792 87.8667 304.402 87.9627 303.976 88.048C303.56 88.144 303.085 88.192 302.552 88.192ZM310.738 88.192C310.044 88.192 309.388 88.032 308.77 87.712C308.151 87.3813 307.65 86.9067 307.266 86.288C306.882 85.6587 306.69 84.9067 306.69 84.032C306.69 83.1573 306.882 82.4107 307.266 81.792C307.65 81.1627 308.151 80.688 308.77 80.368C309.388 80.0373 310.044 79.872 310.738 79.872C311.431 79.872 312.087 80.0373 312.706 80.368C313.324 80.688 313.826 81.1627 314.21 81.792C314.594 82.4107 314.786 83.1573 314.786 84.032C314.786 84.9067 314.594 85.6587 314.21 86.288C313.826 86.9067 313.324 87.3813 312.706 87.712C312.087 88.032 311.431 88.192 310.738 88.192ZM310.738 86.288C311.1 86.288 311.399 86.1973 311.634 86.016C311.879 85.8347 312.06 85.5733 312.178 85.232C312.306 84.8907 312.37 84.4907 312.37 84.032C312.37 83.5733 312.306 83.1733 312.178 82.832C312.06 82.4907 311.879 82.2293 311.634 82.048C311.399 81.8667 311.1 81.776 310.738 81.776C310.375 81.776 310.071 81.8667 309.826 82.048C309.591 82.2293 309.41 82.4907 309.282 82.832C309.164 83.1733 309.106 83.5733 309.106 84.032C309.106 84.4907 309.164 84.8907 309.282 85.232C309.41 85.5733 309.591 85.8347 309.826 86.016C310.071 86.1973 310.375 86.288 310.738 86.288ZM316.683 88V80.064H318.603L318.779 81.12H318.843C319.185 80.7787 319.574 80.4853 320.011 80.24C320.459 79.9947 320.982 79.872 321.579 79.872C322.475 79.872 323.131 80.16 323.547 80.736C323.963 81.312 324.171 82.1013 324.171 83.104V88H321.819V83.408C321.819 82.8747 321.729 82.4853 321.547 82.24C321.377 81.9947 321.078 81.872 320.651 81.872C320.331 81.872 320.049 81.9467 319.803 82.096C319.569 82.2347 319.313 82.4373 319.035 82.704V88H316.683Z" fill="#00CF92"/>
    <path d="M128.17 31V10.788H135.331C136.757 10.788 138.059 10.9843 139.237 11.377C140.415 11.749 141.355 12.4 142.058 13.33C142.781 14.2393 143.143 15.4897 143.143 17.081C143.143 18.631 142.781 19.8917 142.058 20.863C141.355 21.8343 140.415 22.5577 139.237 23.033C138.059 23.4877 136.757 23.715 135.331 23.715H132.727V31H128.17ZM132.727 20.088H134.959C136.158 20.088 137.067 19.84 137.687 19.344C138.328 18.8273 138.648 18.073 138.648 17.081C138.648 16.089 138.328 15.3967 137.687 15.004C137.067 14.6113 136.158 14.415 134.959 14.415H132.727V20.088ZM134.494 22.537L137.656 19.592L144.104 31H138.989L134.494 22.537ZM151.532 31.372C150.499 31.372 149.6 31.1653 148.835 30.752C148.091 30.3387 147.512 29.7807 147.099 29.078C146.686 28.3753 146.479 27.59 146.479 26.722C146.479 25.0067 147.254 23.6943 148.804 22.785C150.375 21.8757 152.979 21.3177 156.616 21.111C156.554 20.6357 156.399 20.2327 156.151 19.902C155.903 19.5713 155.541 19.3233 155.066 19.158C154.611 18.972 154.033 18.879 153.33 18.879C152.834 18.879 152.338 18.941 151.842 19.065C151.346 19.1683 150.829 19.3337 150.292 19.561C149.775 19.7677 149.228 20.0157 148.649 20.305L147.037 17.329C147.74 16.9157 148.473 16.554 149.238 16.244C150.023 15.934 150.829 15.6963 151.656 15.531C152.503 15.345 153.361 15.252 154.229 15.252C155.676 15.252 156.916 15.5103 157.949 16.027C158.982 16.523 159.778 17.2877 160.336 18.321C160.894 19.3337 161.173 20.6253 161.173 22.196V31H157.453L157.112 29.264H156.988C156.223 29.8427 155.376 30.3387 154.446 30.752C153.516 31.1653 152.545 31.372 151.532 31.372ZM152.989 27.838C153.671 27.838 154.312 27.7037 154.911 27.435C155.51 27.1457 156.079 26.7943 156.616 26.381V23.839C155.107 23.9217 153.929 24.0767 153.082 24.304C152.255 24.5313 151.677 24.8207 151.346 25.172C151.015 25.5233 150.85 25.9263 150.85 26.381C150.85 26.691 150.933 26.9597 151.098 27.187C151.284 27.4143 151.532 27.5797 151.842 27.683C152.173 27.7863 152.555 27.838 152.989 27.838ZM171.112 31.372C169.169 31.372 167.598 30.659 166.4 29.233C165.222 27.7863 164.633 25.8127 164.633 23.312C164.633 21.638 164.943 20.2017 165.563 19.003C166.203 17.8043 167.03 16.8847 168.043 16.244C169.055 15.5827 170.109 15.252 171.205 15.252C172.052 15.252 172.786 15.3967 173.406 15.686C174.026 15.9753 174.584 16.3783 175.08 16.895H175.204L174.987 14.508V9.269H179.544V31H175.824L175.483 29.419H175.39C174.832 29.977 174.17 30.442 173.406 30.814C172.662 31.186 171.897 31.372 171.112 31.372ZM172.29 27.652C172.806 27.652 173.282 27.5487 173.716 27.342C174.17 27.1147 174.594 26.7427 174.987 26.226V19.995C174.573 19.623 174.15 19.3647 173.716 19.22C173.302 19.0547 172.868 18.972 172.414 18.972C171.856 18.972 171.339 19.127 170.864 19.437C170.388 19.747 170.006 20.2223 169.717 20.863C169.448 21.483 169.314 22.2787 169.314 23.25C169.314 24.7587 169.572 25.8747 170.089 26.598C170.605 27.3007 171.339 27.652 172.29 27.652ZM190.382 31V19.189H184.182V15.624H194.939V31H190.382ZM192.459 13.206C191.591 13.206 190.867 12.958 190.289 12.462C189.71 11.9453 189.421 11.2737 189.421 10.447C189.421 9.59967 189.71 8.91767 190.289 8.401C190.867 7.86367 191.591 7.595 192.459 7.595C193.347 7.595 194.071 7.86367 194.629 8.401C195.207 8.91767 195.497 9.59967 195.497 10.447C195.497 11.2737 195.207 11.9453 194.629 12.462C194.071 12.958 193.347 13.206 192.459 13.206ZM209.652 31.372C208.308 31.372 207.037 31.062 205.839 30.442C204.64 29.8013 203.669 28.8817 202.925 27.683C202.181 26.4637 201.809 25.0067 201.809 23.312C201.809 21.6173 202.181 20.1707 202.925 18.972C203.669 17.7527 204.64 16.833 205.839 16.213C207.037 15.5723 208.308 15.252 209.652 15.252C210.995 15.252 212.266 15.5723 213.465 16.213C214.663 16.833 215.635 17.7527 216.379 18.972C217.123 20.1707 217.495 21.6173 217.495 23.312C217.495 25.0067 217.123 26.4637 216.379 27.683C215.635 28.8817 214.663 29.8013 213.465 30.442C212.266 31.062 210.995 31.372 209.652 31.372ZM209.652 27.683C210.354 27.683 210.933 27.5073 211.388 27.156C211.863 26.8047 212.214 26.2983 212.442 25.637C212.69 24.9757 212.814 24.2007 212.814 23.312C212.814 22.4233 212.69 21.6483 212.442 20.987C212.214 20.3257 211.863 19.8193 211.388 19.468C210.933 19.1167 210.354 18.941 209.652 18.941C208.949 18.941 208.36 19.1167 207.885 19.468C207.43 19.8193 207.079 20.3257 206.831 20.987C206.603 21.6483 206.49 22.4233 206.49 23.312C206.49 24.2007 206.603 24.9757 206.831 25.637C207.079 26.2983 207.43 26.8047 207.885 27.156C208.36 27.5073 208.949 27.683 209.652 27.683Z" fill="#00DA9A"/>
</svg>