<svg width="100%" height="100%" viewBox="0 0 298 60" fill="none"
    xmlns="http://www.w3.org/2000/svg">
    <rect x="1" y="1" width="291" height="49" rx="24" stroke="#00CF92" stroke-width="2"/>
    <path d="M27.17 37V16.788H34.331C35.757 16.788 37.059 16.9843 38.237 17.377C39.415 17.749 40.3553 18.4 41.058 19.33C41.7813 20.2393 42.143 21.4897 42.143 23.081C42.143 24.631 41.7813 25.8917 41.058 26.863C40.3553 27.8343 39.415 28.5577 38.237 29.033C37.059 29.4877 35.757 29.715 34.331 29.715H31.727V37H27.17ZM31.727 26.088H33.959C35.1577 26.088 36.067 25.84 36.687 25.344C37.3277 24.8273 37.648 24.073 37.648 23.081C37.648 22.089 37.3277 21.3967 36.687 21.004C36.067 20.6113 35.1577 20.415 33.959 20.415H31.727V26.088ZM33.494 28.537L36.656 25.592L43.104 37H37.989L33.494 28.537ZM52.8879 37.372C51.5446 37.372 50.2736 37.062 49.0749 36.442C47.8762 35.8013 46.9049 34.8817 46.1609 33.683C45.4169 32.4637 45.0449 31.0067 45.0449 29.312C45.0449 27.6173 45.4169 26.1707 46.1609 24.972C46.9049 23.7527 47.8762 22.833 49.0749 22.213C50.2736 21.5723 51.5446 21.252 52.8879 21.252C54.2312 21.252 55.5022 21.5723 56.7009 22.213C57.8996 22.833 58.8709 23.7527 59.6149 24.972C60.3589 26.1707 60.7309 27.6173 60.7309 29.312C60.7309 31.0067 60.3589 32.4637 59.6149 33.683C58.8709 34.8817 57.8996 35.8013 56.7009 36.442C55.5022 37.062 54.2312 37.372 52.8879 37.372ZM52.8879 33.683C53.5906 33.683 54.1692 33.5073 54.6239 33.156C55.0992 32.8047 55.4506 32.2983 55.6779 31.637C55.9259 30.9757 56.0499 30.2007 56.0499 29.312C56.0499 28.4233 55.9259 27.6483 55.6779 26.987C55.4506 26.3257 55.0992 25.8193 54.6239 25.468C54.1692 25.1167 53.5906 24.941 52.8879 24.941C52.1852 24.941 51.5962 25.1167 51.1209 25.468C50.6662 25.8193 50.3149 26.3257 50.0669 26.987C49.8396 27.6483 49.7259 28.4233 49.7259 29.312C49.7259 30.2007 49.8396 30.9757 50.0669 31.637C50.3149 32.2983 50.6662 32.8047 51.1209 33.156C51.5962 33.5073 52.1852 33.683 52.8879 33.683ZM69.0888 37.372C67.3321 37.372 66.0611 36.814 65.2758 35.698C64.4904 34.582 64.0978 33.0527 64.0978 31.11V21.624H68.6548V30.521C68.6548 31.5543 68.8098 32.3087 69.1198 32.784C69.4504 33.2593 70.0394 33.497 70.8868 33.497C71.4654 33.497 71.9821 33.373 72.4368 33.125C72.8914 32.877 73.3771 32.412 73.8938 31.73V21.624H78.4508V37H74.7308L74.3898 34.799H74.2658C73.5838 35.5637 72.8294 36.1837 72.0028 36.659C71.1761 37.1343 70.2048 37.372 69.0888 37.372ZM82.9957 37V21.624H86.7157L87.0567 23.67H87.1807C87.842 23.0087 88.5963 22.4403 89.4437 21.965C90.3117 21.4897 91.3243 21.252 92.4817 21.252C94.2177 21.252 95.4887 21.81 96.2947 22.926C97.1007 24.042 97.5037 25.5713 97.5037 27.514V37H92.9467V28.103C92.9467 27.0697 92.771 26.3153 92.4197 25.84C92.089 25.3647 91.5103 25.127 90.6837 25.127C90.0637 25.127 89.516 25.2717 89.0407 25.561C88.586 25.8297 88.09 26.2223 87.5527 26.739V37H82.9957ZM107.288 37.372C105.345 37.372 103.774 36.659 102.576 35.233C101.398 33.7863 100.809 31.8127 100.809 29.312C100.809 27.638 101.119 26.2017 101.739 25.003C102.379 23.8043 103.206 22.8847 104.219 22.244C105.231 21.5827 106.285 21.252 107.381 21.252C108.228 21.252 108.962 21.3967 109.582 21.686C110.202 21.9753 110.76 22.3783 111.256 22.895H111.38L111.163 20.508V15.269H115.72V37H112L111.659 35.419H111.566C111.008 35.977 110.346 36.442 109.582 36.814C108.838 37.186 108.073 37.372 107.288 37.372ZM108.466 33.652C108.982 33.652 109.458 33.5487 109.892 33.342C110.346 33.1147 110.77 32.7427 111.163 32.226V25.995C110.749 25.623 110.326 25.3647 109.892 25.22C109.478 25.0547 109.044 24.972 108.59 24.972C108.032 24.972 107.515 25.127 107.04 25.437C106.564 25.747 106.182 26.2223 105.893 26.863C105.624 27.483 105.49 28.2787 105.49 29.25C105.49 30.7587 105.748 31.8747 106.265 32.598C106.781 33.3007 107.515 33.652 108.466 33.652ZM128.169 37.372C126.578 37.372 125.131 37.062 123.829 36.442C122.548 35.8013 121.525 34.8817 120.76 33.683C120.016 32.4637 119.644 31.0067 119.644 29.312C119.644 27.638 120.027 26.2017 120.791 25.003C121.556 23.7837 122.548 22.8537 123.767 22.213C124.987 21.5723 126.278 21.252 127.642 21.252C129.234 21.252 130.567 21.5827 131.641 22.244C132.716 22.8847 133.522 23.763 134.059 24.879C134.617 25.9743 134.896 27.2247 134.896 28.63C134.896 29.0433 134.865 29.4463 134.803 29.839C134.762 30.211 134.721 30.49 134.679 30.676H123.023V27.607H131.61L130.897 28.475C130.897 27.235 130.629 26.305 130.091 25.685C129.575 25.0443 128.81 24.724 127.797 24.724C127.053 24.724 126.402 24.8893 125.844 25.22C125.286 25.5507 124.852 26.057 124.542 26.739C124.232 27.421 124.077 28.2787 124.077 29.312C124.077 30.366 124.263 31.234 124.635 31.916C125.007 32.5773 125.545 33.0733 126.247 33.404C126.95 33.7347 127.797 33.9 128.789 33.9C129.492 33.9 130.153 33.807 130.773 33.621C131.414 33.435 132.075 33.1663 132.757 32.815L134.276 35.574C133.388 36.132 132.406 36.5763 131.331 36.907C130.257 37.217 129.203 37.372 128.169 37.372ZM144.463 37.372C142.521 37.372 140.95 36.659 139.751 35.233C138.573 33.7863 137.984 31.8127 137.984 29.312C137.984 27.638 138.294 26.2017 138.914 25.003C139.555 23.8043 140.382 22.8847 141.394 22.244C142.407 21.5827 143.461 21.252 144.556 21.252C145.404 21.252 146.137 21.3967 146.757 21.686C147.377 21.9753 147.935 22.3783 148.431 22.895H148.555L148.338 20.508V15.269H152.895V37H149.175L148.834 35.419H148.741C148.183 35.977 147.522 36.442 146.757 36.814C146.013 37.186 145.249 37.372 144.463 37.372ZM145.641 33.652C146.158 33.652 146.633 33.5487 147.067 33.342C147.522 33.1147 147.946 32.7427 148.338 32.226V25.995C147.925 25.623 147.501 25.3647 147.067 25.22C146.654 25.0547 146.22 24.972 145.765 24.972C145.207 24.972 144.691 25.127 144.215 25.437C143.74 25.747 143.358 26.2223 143.068 26.863C142.8 27.483 142.665 28.2787 142.665 29.25C142.665 30.7587 142.924 31.8747 143.44 32.598C143.957 33.3007 144.691 33.652 145.641 33.652ZM157.409 37V16.788H164.198C165.604 16.788 166.864 16.943 167.98 17.253C169.096 17.5423 169.975 18.0487 170.615 18.772C171.277 19.4953 171.607 20.508 171.607 21.81C171.607 22.7193 171.328 23.5977 170.77 24.445C170.212 25.2923 169.334 25.871 168.135 26.181V26.305C169.582 26.553 170.677 27.0697 171.421 27.855C172.165 28.6197 172.537 29.684 172.537 31.048C172.537 32.412 172.196 33.5383 171.514 34.427C170.832 35.295 169.902 35.946 168.724 36.38C167.567 36.7933 166.255 37 164.787 37H157.409ZM161.966 24.91H163.981C165.097 24.91 165.903 24.693 166.399 24.259C166.895 23.8043 167.143 23.1947 167.143 22.43C167.143 21.686 166.885 21.159 166.368 20.849C165.872 20.5183 165.087 20.353 164.012 20.353H161.966V24.91ZM161.966 33.435H164.415C165.655 33.435 166.575 33.2077 167.174 32.753C167.774 32.2983 168.073 31.6163 168.073 30.707C168.073 29.8183 167.774 29.1777 167.174 28.785C166.575 28.3923 165.655 28.196 164.415 28.196H161.966V33.435ZM180.616 37.372C178.859 37.372 177.588 36.814 176.803 35.698C176.018 34.582 175.625 33.0527 175.625 31.11V21.624H180.182V30.521C180.182 31.5543 180.337 32.3087 180.647 32.784C180.978 33.2593 181.567 33.497 182.414 33.497C182.993 33.497 183.509 33.373 183.964 33.125C184.419 32.877 184.904 32.412 185.421 31.73V21.624H189.978V37H186.258L185.917 34.799H185.793C185.111 35.5637 184.357 36.1837 183.53 36.659C182.703 37.1343 181.732 37.372 180.616 37.372ZM204.319 37.372C202.686 37.372 201.384 37.093 200.413 36.535C199.462 35.9563 198.77 35.1607 198.336 34.148C197.902 33.1353 197.685 31.9573 197.685 30.614V25.189H193.841V21.81L197.902 21.624L198.491 16.912H202.242V21.624H208.752V25.189H202.242V30.583C202.242 31.3477 202.356 31.9677 202.583 32.443C202.81 32.9183 203.162 33.2697 203.637 33.497C204.112 33.7037 204.722 33.807 205.466 33.807C206.065 33.807 206.613 33.7553 207.109 33.652C207.605 33.5487 208.08 33.4143 208.535 33.249L209.341 36.535C208.659 36.7417 207.905 36.9277 207.078 37.093C206.272 37.279 205.352 37.372 204.319 37.372ZM222.907 37.372C221.274 37.372 219.972 37.093 219.001 36.535C218.05 35.9563 217.358 35.1607 216.924 34.148C216.49 33.1353 216.273 31.9573 216.273 30.614V25.189H212.429V21.81L216.49 21.624L217.079 16.912H220.83V21.624H227.34V25.189H220.83V30.583C220.83 31.3477 220.944 31.9677 221.171 32.443C221.398 32.9183 221.75 33.2697 222.225 33.497C222.7 33.7037 223.31 33.807 224.054 33.807C224.653 33.807 225.201 33.7553 225.697 33.652C226.193 33.5487 226.668 33.4143 227.123 33.249L227.929 36.535C227.247 36.7417 226.493 36.9277 225.666 37.093C224.86 37.279 223.94 37.372 222.907 37.372ZM238.767 37.372C237.423 37.372 236.152 37.062 234.954 36.442C233.755 35.8013 232.784 34.8817 232.04 33.683C231.296 32.4637 230.924 31.0067 230.924 29.312C230.924 27.6173 231.296 26.1707 232.04 24.972C232.784 23.7527 233.755 22.833 234.954 22.213C236.152 21.5723 237.423 21.252 238.767 21.252C240.11 21.252 241.381 21.5723 242.58 22.213C243.778 22.833 244.75 23.7527 245.494 24.972C246.238 26.1707 246.61 27.6173 246.61 29.312C246.61 31.0067 246.238 32.4637 245.494 33.683C244.75 34.8817 243.778 35.8013 242.58 36.442C241.381 37.062 240.11 37.372 238.767 37.372ZM238.767 33.683C239.469 33.683 240.048 33.5073 240.503 33.156C240.978 32.8047 241.329 32.2983 241.557 31.637C241.805 30.9757 241.929 30.2007 241.929 29.312C241.929 28.4233 241.805 27.6483 241.557 26.987C241.329 26.3257 240.978 25.8193 240.503 25.468C240.048 25.1167 239.469 24.941 238.767 24.941C238.064 24.941 237.475 25.1167 237 25.468C236.545 25.8193 236.194 26.3257 235.946 26.987C235.718 27.6483 235.605 28.4233 235.605 29.312C235.605 30.2007 235.718 30.9757 235.946 31.637C236.194 32.2983 236.545 32.8047 237 33.156C237.475 33.5073 238.064 33.683 238.767 33.683ZM250.287 37V21.624H254.007L254.348 23.67H254.472C255.133 23.0087 255.887 22.4403 256.735 21.965C257.603 21.4897 258.615 21.252 259.773 21.252C261.509 21.252 262.78 21.81 263.586 22.926C264.392 24.042 264.795 25.5713 264.795 27.514V37H260.238V28.103C260.238 27.0697 260.062 26.3153 259.711 25.84C259.38 25.3647 258.801 25.127 257.975 25.127C257.355 25.127 256.807 25.2717 256.332 25.561C255.877 25.8297 255.381 26.2223 254.844 26.739V37H250.287Z" fill="#00CF92"/>
    <path d="M290.247 49.5316L296.918 55.6884L293.667 58.9393L287.697 52.9697L287.167 52.4393L286.636 52.9697L284.47 55.1363L280.994 58.6116L273.187 35.1898L295.869 42.8061L290.225 48.4501L289.673 49.0022L290.247 49.5316Z" fill="#71FFAC" stroke="#00CF92" stroke-width="1.5"/>
</svg>