<svg width="100%" height="100%" viewBox="0 0 340 110" fill="none"
    xmlns="http://www.w3.org/2000/svg">
    <path d="M111.536 38.384C110.128 38.384 108.731 38.128 107.344 37.616C105.979 37.104 104.731 36.3573 103.6 35.376L106.32 32.144C107.109 32.784 107.973 33.3067 108.912 33.712C109.872 34.1173 110.853 34.32 111.856 34.32C112.859 34.32 113.595 34.1493 114.064 33.808C114.555 33.4667 114.8 33.0293 114.8 32.496C114.8 32.0053 114.672 31.6213 114.416 31.344C114.16 31.0453 113.787 30.7893 113.296 30.576C112.805 30.3413 112.229 30.0853 111.568 29.808L108.88 28.656C108.112 28.3573 107.387 27.9627 106.704 27.472C106.021 26.96 105.467 26.3413 105.04 25.616C104.635 24.8693 104.432 23.984 104.432 22.96C104.432 21.808 104.752 20.7733 105.392 19.856C106.053 18.9173 106.949 18.1707 108.08 17.616C109.232 17.04 110.565 16.752 112.08 16.752C113.339 16.752 114.576 16.9867 115.792 17.456C117.008 17.9253 118.085 18.608 119.024 19.504L116.624 22.48C115.899 21.9467 115.173 21.5413 114.448 21.264C113.723 20.9653 112.848 20.816 111.824 20.816C111.056 20.816 110.427 20.976 109.936 21.296C109.445 21.616 109.2 22.0853 109.2 22.704C109.2 23.1093 109.349 23.4507 109.648 23.728C109.947 24.0053 110.352 24.2507 110.864 24.464C111.376 24.6773 111.963 24.912 112.624 25.168L115.152 26.256C116.091 26.5973 116.891 27.024 117.552 27.536C118.213 28.0267 118.725 28.6347 119.088 29.36C119.451 30.0853 119.632 30.9387 119.632 31.92C119.632 33.072 119.312 34.1387 118.672 35.12C118.053 36.1013 117.136 36.8907 115.92 37.488C114.725 38.0853 113.264 38.384 111.536 38.384ZM131.748 38.384C130.105 38.384 128.612 38.064 127.268 37.424C125.945 36.7627 124.889 35.8133 124.1 34.576C123.332 33.3173 122.948 31.8133 122.948 30.064C122.948 28.336 123.342 26.8533 124.132 25.616C124.921 24.3573 125.945 23.3973 127.204 22.736C128.462 22.0747 129.796 21.744 131.204 21.744C132.846 21.744 134.222 22.0853 135.332 22.768C136.441 23.4293 137.273 24.336 137.828 25.488C138.404 26.6187 138.692 27.9093 138.692 29.36C138.692 29.7867 138.66 30.2027 138.596 30.608C138.553 30.992 138.51 31.28 138.468 31.472H126.436V28.304H135.3L134.564 29.2C134.564 27.92 134.286 26.96 133.732 26.32C133.198 25.6587 132.409 25.328 131.364 25.328C130.596 25.328 129.924 25.4987 129.348 25.84C128.772 26.1813 128.324 26.704 128.004 27.408C127.684 28.112 127.524 28.9973 127.524 30.064C127.524 31.152 127.716 32.048 128.1 32.752C128.484 33.4347 129.038 33.9467 129.764 34.288C130.489 34.6293 131.364 34.8 132.388 34.8C133.113 34.8 133.796 34.704 134.436 34.512C135.097 34.32 135.78 34.0427 136.484 33.68L138.052 36.528C137.134 37.104 136.121 37.5627 135.012 37.904C133.902 38.224 132.814 38.384 131.748 38.384ZM149.239 44.752C147.852 44.752 146.615 44.6027 145.527 44.304C144.46 44.0267 143.607 43.5893 142.967 42.992C142.348 42.3947 142.039 41.6267 142.039 40.688C142.039 40.048 142.242 39.4613 142.647 38.928C143.074 38.3947 143.692 37.9253 144.503 37.52V37.392C144.055 37.0933 143.671 36.7307 143.351 36.304C143.052 35.8773 142.903 35.3333 142.903 34.672C142.903 34.1387 143.074 33.6053 143.415 33.072C143.778 32.5387 144.236 32.08 144.791 31.696V31.568C144.215 31.184 143.724 30.64 143.319 29.936C142.914 29.232 142.711 28.4213 142.711 27.504C142.711 26.224 143.02 25.1573 143.639 24.304C144.279 23.4507 145.111 22.8107 146.135 22.384C147.18 21.9573 148.3 21.744 149.495 21.744C150.476 21.744 151.351 21.872 152.119 22.128H158.551V25.584H155.351C155.543 25.8187 155.703 26.128 155.831 26.512C155.98 26.8747 156.055 27.2587 156.055 27.664C156.055 28.88 155.756 29.8827 155.159 30.672C154.583 31.44 153.804 32.016 152.823 32.4C151.842 32.784 150.732 32.976 149.495 32.976C149.196 32.976 148.855 32.9547 148.471 32.912C148.087 32.848 147.703 32.7627 147.319 32.656C147.063 32.8267 146.882 32.9973 146.775 33.168C146.668 33.3387 146.615 33.5627 146.615 33.84C146.615 34.2453 146.828 34.544 147.255 34.736C147.703 34.928 148.386 35.024 149.303 35.024H152.247C154.338 35.024 155.927 35.3333 157.015 35.952C158.124 36.5707 158.679 37.5947 158.679 39.024C158.679 40.1333 158.295 41.1147 157.527 41.968C156.759 42.8427 155.66 43.5253 154.231 44.016C152.823 44.5067 151.159 44.752 149.239 44.752ZM149.495 30.128C149.943 30.128 150.348 30.032 150.711 29.84C151.074 29.648 151.362 29.36 151.575 28.976C151.788 28.5707 151.895 28.08 151.895 27.504C151.895 26.9493 151.788 26.48 151.575 26.096C151.362 25.712 151.074 25.424 150.711 25.232C150.348 25.0187 149.943 24.912 149.495 24.912C149.068 24.912 148.674 25.0187 148.311 25.232C147.948 25.424 147.66 25.712 147.447 26.096C147.234 26.48 147.127 26.9493 147.127 27.504C147.127 28.08 147.234 28.5707 147.447 28.976C147.66 29.36 147.948 29.648 148.311 29.84C148.674 30.032 149.068 30.128 149.495 30.128ZM149.911 41.776C150.764 41.776 151.511 41.6907 152.151 41.52C152.791 41.3493 153.292 41.1147 153.655 40.816C154.018 40.5387 154.199 40.2187 154.199 39.856C154.199 39.3227 153.964 38.9813 153.495 38.832C153.026 38.704 152.332 38.64 151.415 38.64H149.431C148.855 38.64 148.375 38.6187 147.991 38.576C147.628 38.5333 147.298 38.48 146.999 38.416C146.594 38.672 146.306 38.9173 146.135 39.152C145.964 39.408 145.879 39.6853 145.879 39.984C145.879 40.56 146.242 40.9973 146.967 41.296C147.692 41.616 148.674 41.776 149.911 41.776ZM160.683 38V22.128H164.235L164.555 24.08H164.683C164.981 23.44 165.397 22.896 165.931 22.448C166.464 21.9787 167.189 21.744 168.107 21.744C168.789 21.744 169.376 21.968 169.867 22.416C170.357 22.8427 170.688 23.4827 170.859 24.336C171.157 23.6107 171.584 23.0027 172.139 22.512C172.715 22 173.461 21.744 174.379 21.744C175.509 21.744 176.384 22.2027 177.003 23.12C177.621 24.0373 177.931 25.2853 177.931 26.864V38H173.451V27.184C173.451 26.224 173.163 25.744 172.587 25.744C172.288 25.744 172.021 25.872 171.787 26.128C171.573 26.3627 171.36 26.7467 171.147 27.28V38H167.467V27.184C167.467 26.6933 167.392 26.3307 167.243 26.096C167.093 25.8613 166.869 25.744 166.571 25.744C166.272 25.744 166.016 25.872 165.803 26.128C165.589 26.3627 165.376 26.7467 165.163 27.28V38H160.683ZM189.31 38.384C187.667 38.384 186.174 38.064 184.83 37.424C183.507 36.7627 182.451 35.8133 181.662 34.576C180.894 33.3173 180.51 31.8133 180.51 30.064C180.51 28.336 180.905 26.8533 181.694 25.616C182.483 24.3573 183.507 23.3973 184.766 22.736C186.025 22.0747 187.358 21.744 188.766 21.744C190.409 21.744 191.785 22.0853 192.894 22.768C194.003 23.4293 194.835 24.336 195.39 25.488C195.966 26.6187 196.254 27.9093 196.254 29.36C196.254 29.7867 196.222 30.2027 196.158 30.608C196.115 30.992 196.073 31.28 196.03 31.472H183.998V28.304H192.862L192.126 29.2C192.126 27.92 191.849 26.96 191.294 26.32C190.761 25.6587 189.971 25.328 188.926 25.328C188.158 25.328 187.486 25.4987 186.91 25.84C186.334 26.1813 185.886 26.704 185.566 27.408C185.246 28.112 185.086 28.9973 185.086 30.064C185.086 31.152 185.278 32.048 185.662 32.752C186.046 33.4347 186.601 33.9467 187.326 34.288C188.051 34.6293 188.926 34.8 189.95 34.8C190.675 34.8 191.358 34.704 191.998 34.512C192.659 34.32 193.342 34.0427 194.046 33.68L195.614 36.528C194.697 37.104 193.683 37.5627 192.574 37.904C191.465 38.224 190.377 38.384 189.31 38.384ZM200.242 38V22.128H204.082L204.434 24.24H204.562C205.244 23.5573 206.023 22.9707 206.898 22.48C207.794 21.9893 208.839 21.744 210.034 21.744C211.826 21.744 213.138 22.32 213.97 23.472C214.802 24.624 215.218 26.2027 215.218 28.208V38H210.514V28.816C210.514 27.7493 210.332 26.9707 209.97 26.48C209.628 25.9893 209.031 25.744 208.178 25.744C207.538 25.744 206.972 25.8933 206.482 26.192C206.012 26.4693 205.5 26.8747 204.946 27.408V38H200.242ZM229.541 38.384C227.856 38.384 226.512 38.096 225.509 37.52C224.528 36.9227 223.813 36.1013 223.365 35.056C222.917 34.0107 222.693 32.7947 222.693 31.408V25.808H218.725V22.32L222.917 22.128L223.525 17.264H227.397V22.128H234.117V25.808H227.397V31.376C227.397 32.1653 227.514 32.8053 227.749 33.296C227.984 33.7867 228.346 34.1493 228.837 34.384C229.328 34.5973 229.957 34.704 230.725 34.704C231.344 34.704 231.909 34.6507 232.421 34.544C232.933 34.4373 233.424 34.2987 233.893 34.128L234.725 37.52C234.021 37.7333 233.242 37.9253 232.389 38.096C231.557 38.288 230.608 38.384 229.541 38.384Z" fill="#00DA9A"/>
    <rect x="1" y="57" width="338" height="48" rx="16" stroke="#00DA9A" stroke-width="2"/>
    <path d="M20.4 87.216C19.62 87.216 18.882 87.036 18.186 86.676C17.49 86.304 16.926 85.77 16.494 85.074C16.062 84.366 15.846 83.52 15.846 82.536C15.846 81.552 16.062 80.712 16.494 80.016C16.926 79.308 17.49 78.774 18.186 78.414C18.882 78.042 19.62 77.856 20.4 77.856C21.18 77.856 21.918 78.042 22.614 78.414C23.31 78.774 23.874 79.308 24.306 80.016C24.738 80.712 24.954 81.552 24.954 82.536C24.954 83.52 24.738 84.366 24.306 85.074C23.874 85.77 23.31 86.304 22.614 86.676C21.918 87.036 21.18 87.216 20.4 87.216ZM20.4 85.074C20.808 85.074 21.144 84.972 21.408 84.768C21.684 84.564 21.888 84.27 22.02 83.886C22.164 83.502 22.236 83.052 22.236 82.536C22.236 82.02 22.164 81.57 22.02 81.186C21.888 80.802 21.684 80.508 21.408 80.304C21.144 80.1 20.808 79.998 20.4 79.998C19.992 79.998 19.65 80.1 19.374 80.304C19.11 80.508 18.906 80.802 18.762 81.186C18.63 81.57 18.564 82.02 18.564 82.536C18.564 83.052 18.63 83.502 18.762 83.886C18.906 84.27 19.11 84.564 19.374 84.768C19.65 84.972 19.992 85.074 20.4 85.074ZM27.089 90.312V78.072H29.249L29.447 78.972H29.501C29.873 78.648 30.287 78.384 30.743 78.18C31.211 77.964 31.685 77.856 32.165 77.856C32.909 77.856 33.545 78.042 34.073 78.414C34.613 78.786 35.027 79.314 35.315 79.998C35.603 80.682 35.747 81.48 35.747 82.392C35.747 83.412 35.561 84.282 35.189 85.002C34.829 85.722 34.355 86.274 33.767 86.658C33.179 87.03 32.549 87.216 31.877 87.216C31.481 87.216 31.091 87.132 30.707 86.964C30.335 86.796 29.993 86.556 29.681 86.244H29.609L29.735 87.702V90.312H27.089ZM31.265 85.056C31.601 85.056 31.901 84.966 32.165 84.786C32.429 84.606 32.639 84.324 32.795 83.94C32.951 83.544 33.029 83.04 33.029 82.428C33.029 81.888 32.969 81.444 32.849 81.096C32.729 80.736 32.549 80.466 32.309 80.286C32.081 80.106 31.775 80.016 31.391 80.016C31.103 80.016 30.821 80.082 30.545 80.214C30.281 80.334 30.011 80.544 29.735 80.844V84.462C29.987 84.666 30.245 84.816 30.509 84.912C30.785 85.008 31.037 85.056 31.265 85.056ZM43.5699 87.216C42.6219 87.216 41.8659 87.054 41.3019 86.73C40.7499 86.394 40.3479 85.932 40.0959 85.344C39.8439 84.756 39.7179 84.072 39.7179 83.292V80.142H37.4859V78.18L39.8439 78.072L40.1859 75.336H42.3639V78.072H46.1439V80.142H42.3639V83.274C42.3639 83.718 42.4299 84.078 42.5619 84.354C42.6939 84.63 42.8979 84.834 43.1739 84.966C43.4499 85.086 43.8039 85.146 44.2359 85.146C44.5839 85.146 44.9019 85.116 45.1899 85.056C45.4779 84.996 45.7539 84.918 46.0179 84.822L46.4859 86.73C46.0899 86.85 45.6519 86.958 45.1719 87.054C44.7039 87.162 44.1699 87.216 43.5699 87.216ZM52.3829 87V80.142H48.7829V78.072H55.0289V87H52.3829ZM53.5889 76.668C53.0849 76.668 52.6649 76.524 52.3289 76.236C51.9929 75.936 51.8249 75.546 51.8249 75.066C51.8249 74.574 51.9929 74.178 52.3289 73.878C52.6649 73.566 53.0849 73.41 53.5889 73.41C54.1049 73.41 54.5249 73.566 54.8489 73.878C55.1849 74.178 55.3529 74.574 55.3529 75.066C55.3529 75.546 55.1849 75.936 54.8489 76.236C54.5249 76.524 54.1049 76.668 53.5889 76.668ZM63.5719 87.216C62.7919 87.216 62.0539 87.036 61.3579 86.676C60.6619 86.304 60.0979 85.77 59.6659 85.074C59.2339 84.366 59.0179 83.52 59.0179 82.536C59.0179 81.552 59.2339 80.712 59.6659 80.016C60.0979 79.308 60.6619 78.774 61.3579 78.414C62.0539 78.042 62.7919 77.856 63.5719 77.856C64.3519 77.856 65.0899 78.042 65.7859 78.414C66.4819 78.774 67.0459 79.308 67.4779 80.016C67.9099 80.712 68.1259 81.552 68.1259 82.536C68.1259 83.52 67.9099 84.366 67.4779 85.074C67.0459 85.77 66.4819 86.304 65.7859 86.676C65.0899 87.036 64.3519 87.216 63.5719 87.216ZM63.5719 85.074C63.9799 85.074 64.3159 84.972 64.5799 84.768C64.8559 84.564 65.0599 84.27 65.1919 83.886C65.3359 83.502 65.4079 83.052 65.4079 82.536C65.4079 82.02 65.3359 81.57 65.1919 81.186C65.0599 80.802 64.8559 80.508 64.5799 80.304C64.3159 80.1 63.9799 79.998 63.5719 79.998C63.1639 79.998 62.8219 80.1 62.5459 80.304C62.2819 80.508 62.0779 80.802 61.9339 81.186C61.8019 81.57 61.7359 82.02 61.7359 82.536C61.7359 83.052 61.8019 83.502 61.9339 83.886C62.0779 84.27 62.2819 84.564 62.5459 84.768C62.8219 84.972 63.1639 85.074 63.5719 85.074ZM70.2608 87V78.072H72.4208L72.6188 79.26H72.6908C73.0748 78.876 73.5128 78.546 74.0048 78.27C74.5088 77.994 75.0968 77.856 75.7688 77.856C76.7768 77.856 77.5148 78.18 77.9828 78.828C78.4508 79.476 78.6848 80.364 78.6848 81.492V87H76.0388V81.834C76.0388 81.234 75.9368 80.796 75.7328 80.52C75.5408 80.244 75.2048 80.106 74.7248 80.106C74.3648 80.106 74.0468 80.19 73.7708 80.358C73.5068 80.514 73.2188 80.742 72.9068 81.042V87H70.2608ZM91.9728 87V84.858H95.0508V78.252H92.5128V76.614C93.0288 76.53 93.4728 76.446 93.8448 76.362C94.2288 76.266 94.5708 76.158 94.8708 76.038C95.1708 75.906 95.4648 75.75 95.7528 75.57H97.6968V84.858H100.289V87H91.9728Z" fill="#00CF92"/>
    <g filter="url(#filter0_d_214_341)">
        <rect x="111" y="57" width="120" height="48" rx="17" fill="#00DA9A"/>
    </g>
    <path d="M245.4 87.216C244.62 87.216 243.882 87.036 243.186 86.676C242.49 86.304 241.926 85.77 241.494 85.074C241.062 84.366 240.846 83.52 240.846 82.536C240.846 81.552 241.062 80.712 241.494 80.016C241.926 79.308 242.49 78.774 243.186 78.414C243.882 78.042 244.62 77.856 245.4 77.856C246.18 77.856 246.918 78.042 247.614 78.414C248.31 78.774 248.874 79.308 249.306 80.016C249.738 80.712 249.954 81.552 249.954 82.536C249.954 83.52 249.738 84.366 249.306 85.074C248.874 85.77 248.31 86.304 247.614 86.676C246.918 87.036 246.18 87.216 245.4 87.216ZM245.4 85.074C245.808 85.074 246.144 84.972 246.408 84.768C246.684 84.564 246.888 84.27 247.02 83.886C247.164 83.502 247.236 83.052 247.236 82.536C247.236 82.02 247.164 81.57 247.02 81.186C246.888 80.802 246.684 80.508 246.408 80.304C246.144 80.1 245.808 79.998 245.4 79.998C244.992 79.998 244.65 80.1 244.374 80.304C244.11 80.508 243.906 80.802 243.762 81.186C243.63 81.57 243.564 82.02 243.564 82.536C243.564 83.052 243.63 83.502 243.762 83.886C243.906 84.27 244.11 84.564 244.374 84.768C244.65 84.972 244.992 85.074 245.4 85.074ZM252.089 90.312V78.072H254.249L254.447 78.972H254.501C254.873 78.648 255.287 78.384 255.743 78.18C256.211 77.964 256.685 77.856 257.165 77.856C257.909 77.856 258.545 78.042 259.073 78.414C259.613 78.786 260.027 79.314 260.315 79.998C260.603 80.682 260.747 81.48 260.747 82.392C260.747 83.412 260.561 84.282 260.189 85.002C259.829 85.722 259.355 86.274 258.767 86.658C258.179 87.03 257.549 87.216 256.877 87.216C256.481 87.216 256.091 87.132 255.707 86.964C255.335 86.796 254.993 86.556 254.681 86.244H254.609L254.735 87.702V90.312H252.089ZM256.265 85.056C256.601 85.056 256.901 84.966 257.165 84.786C257.429 84.606 257.639 84.324 257.795 83.94C257.951 83.544 258.029 83.04 258.029 82.428C258.029 81.888 257.969 81.444 257.849 81.096C257.729 80.736 257.549 80.466 257.309 80.286C257.081 80.106 256.775 80.016 256.391 80.016C256.103 80.016 255.821 80.082 255.545 80.214C255.281 80.334 255.011 80.544 254.735 80.844V84.462C254.987 84.666 255.245 84.816 255.509 84.912C255.785 85.008 256.037 85.056 256.265 85.056ZM268.57 87.216C267.622 87.216 266.866 87.054 266.302 86.73C265.75 86.394 265.348 85.932 265.096 85.344C264.844 84.756 264.718 84.072 264.718 83.292V80.142H262.486V78.18L264.844 78.072L265.186 75.336H267.364V78.072H271.144V80.142H267.364V83.274C267.364 83.718 267.43 84.078 267.562 84.354C267.694 84.63 267.898 84.834 268.174 84.966C268.45 85.086 268.804 85.146 269.236 85.146C269.584 85.146 269.902 85.116 270.19 85.056C270.478 84.996 270.754 84.918 271.018 84.822L271.486 86.73C271.09 86.85 270.652 86.958 270.172 87.054C269.704 87.162 269.17 87.216 268.57 87.216ZM277.383 87V80.142H273.783V78.072H280.029V87H277.383ZM278.589 76.668C278.085 76.668 277.665 76.524 277.329 76.236C276.993 75.936 276.825 75.546 276.825 75.066C276.825 74.574 276.993 74.178 277.329 73.878C277.665 73.566 278.085 73.41 278.589 73.41C279.105 73.41 279.525 73.566 279.849 73.878C280.185 74.178 280.353 74.574 280.353 75.066C280.353 75.546 280.185 75.936 279.849 76.236C279.525 76.524 279.105 76.668 278.589 76.668ZM288.572 87.216C287.792 87.216 287.054 87.036 286.358 86.676C285.662 86.304 285.098 85.77 284.666 85.074C284.234 84.366 284.018 83.52 284.018 82.536C284.018 81.552 284.234 80.712 284.666 80.016C285.098 79.308 285.662 78.774 286.358 78.414C287.054 78.042 287.792 77.856 288.572 77.856C289.352 77.856 290.09 78.042 290.786 78.414C291.482 78.774 292.046 79.308 292.478 80.016C292.91 80.712 293.126 81.552 293.126 82.536C293.126 83.52 292.91 84.366 292.478 85.074C292.046 85.77 291.482 86.304 290.786 86.676C290.09 87.036 289.352 87.216 288.572 87.216ZM288.572 85.074C288.98 85.074 289.316 84.972 289.58 84.768C289.856 84.564 290.06 84.27 290.192 83.886C290.336 83.502 290.408 83.052 290.408 82.536C290.408 82.02 290.336 81.57 290.192 81.186C290.06 80.802 289.856 80.508 289.58 80.304C289.316 80.1 288.98 79.998 288.572 79.998C288.164 79.998 287.822 80.1 287.546 80.304C287.282 80.508 287.078 80.802 286.934 81.186C286.802 81.57 286.736 82.02 286.736 82.536C286.736 83.052 286.802 83.502 286.934 83.886C287.078 84.27 287.282 84.564 287.546 84.768C287.822 84.972 288.164 85.074 288.572 85.074ZM295.261 87V78.072H297.421L297.619 79.26H297.691C298.075 78.876 298.513 78.546 299.005 78.27C299.509 77.994 300.097 77.856 300.769 77.856C301.777 77.856 302.515 78.18 302.983 78.828C303.451 79.476 303.685 80.364 303.685 81.492V87H301.039V81.834C301.039 81.234 300.937 80.796 300.733 80.52C300.541 80.244 300.205 80.106 299.725 80.106C299.365 80.106 299.047 80.19 298.771 80.358C298.507 80.514 298.219 80.742 297.907 81.042V87H295.261ZM320.573 87.216C319.925 87.216 319.331 87.144 318.791 87C318.263 86.868 317.789 86.682 317.369 86.442C316.949 86.202 316.595 85.92 316.307 85.596L317.531 83.922C317.915 84.258 318.347 84.534 318.827 84.75C319.307 84.966 319.805 85.074 320.321 85.074C320.729 85.074 321.095 85.026 321.419 84.93C321.743 84.822 321.995 84.666 322.175 84.462C322.367 84.258 322.463 84.012 322.463 83.724C322.463 83.388 322.361 83.1 322.157 82.86C321.953 82.608 321.599 82.416 321.095 82.284C320.603 82.152 319.907 82.086 319.007 82.086V80.214C319.763 80.214 320.363 80.148 320.807 80.016C321.251 79.884 321.575 79.704 321.779 79.476C321.983 79.248 322.085 78.984 322.085 78.684C322.085 78.276 321.935 77.964 321.635 77.748C321.335 77.532 320.921 77.424 320.393 77.424C319.949 77.424 319.529 77.514 319.133 77.694C318.749 77.862 318.359 78.108 317.963 78.432L316.631 76.812C317.195 76.356 317.801 76.002 318.449 75.75C319.097 75.486 319.787 75.354 320.519 75.354C321.347 75.354 322.079 75.48 322.715 75.732C323.351 75.972 323.843 76.326 324.191 76.794C324.551 77.25 324.731 77.814 324.731 78.486C324.731 79.074 324.539 79.578 324.155 79.998C323.771 80.418 323.237 80.76 322.553 81.024V81.096C323.033 81.228 323.465 81.42 323.849 81.672C324.245 81.912 324.551 82.218 324.767 82.59C324.995 82.962 325.109 83.394 325.109 83.886C325.109 84.594 324.899 85.2 324.479 85.704C324.059 86.196 323.507 86.574 322.823 86.838C322.139 87.09 321.389 87.216 320.573 87.216Z" fill="#00CF92"/>
    <path d="M131.4 87.216C130.62 87.216 129.882 87.036 129.186 86.676C128.49 86.304 127.926 85.77 127.494 85.074C127.062 84.366 126.846 83.52 126.846 82.536C126.846 81.552 127.062 80.712 127.494 80.016C127.926 79.308 128.49 78.774 129.186 78.414C129.882 78.042 130.62 77.856 131.4 77.856C132.18 77.856 132.918 78.042 133.614 78.414C134.31 78.774 134.874 79.308 135.306 80.016C135.738 80.712 135.954 81.552 135.954 82.536C135.954 83.52 135.738 84.366 135.306 85.074C134.874 85.77 134.31 86.304 133.614 86.676C132.918 87.036 132.18 87.216 131.4 87.216ZM131.4 85.074C131.808 85.074 132.144 84.972 132.408 84.768C132.684 84.564 132.888 84.27 133.02 83.886C133.164 83.502 133.236 83.052 133.236 82.536C133.236 82.02 133.164 81.57 133.02 81.186C132.888 80.802 132.684 80.508 132.408 80.304C132.144 80.1 131.808 79.998 131.4 79.998C130.992 79.998 130.65 80.1 130.374 80.304C130.11 80.508 129.906 80.802 129.762 81.186C129.63 81.57 129.564 82.02 129.564 82.536C129.564 83.052 129.63 83.502 129.762 83.886C129.906 84.27 130.11 84.564 130.374 84.768C130.65 84.972 130.992 85.074 131.4 85.074ZM138.089 90.312V78.072H140.249L140.447 78.972H140.501C140.873 78.648 141.287 78.384 141.743 78.18C142.211 77.964 142.685 77.856 143.165 77.856C143.909 77.856 144.545 78.042 145.073 78.414C145.613 78.786 146.027 79.314 146.315 79.998C146.603 80.682 146.747 81.48 146.747 82.392C146.747 83.412 146.561 84.282 146.189 85.002C145.829 85.722 145.355 86.274 144.767 86.658C144.179 87.03 143.549 87.216 142.877 87.216C142.481 87.216 142.091 87.132 141.707 86.964C141.335 86.796 140.993 86.556 140.681 86.244H140.609L140.735 87.702V90.312H138.089ZM142.265 85.056C142.601 85.056 142.901 84.966 143.165 84.786C143.429 84.606 143.639 84.324 143.795 83.94C143.951 83.544 144.029 83.04 144.029 82.428C144.029 81.888 143.969 81.444 143.849 81.096C143.729 80.736 143.549 80.466 143.309 80.286C143.081 80.106 142.775 80.016 142.391 80.016C142.103 80.016 141.821 80.082 141.545 80.214C141.281 80.334 141.011 80.544 140.735 80.844V84.462C140.987 84.666 141.245 84.816 141.509 84.912C141.785 85.008 142.037 85.056 142.265 85.056ZM154.57 87.216C153.622 87.216 152.866 87.054 152.302 86.73C151.75 86.394 151.348 85.932 151.096 85.344C150.844 84.756 150.718 84.072 150.718 83.292V80.142H148.486V78.18L150.844 78.072L151.186 75.336H153.364V78.072H157.144V80.142H153.364V83.274C153.364 83.718 153.43 84.078 153.562 84.354C153.694 84.63 153.898 84.834 154.174 84.966C154.45 85.086 154.804 85.146 155.236 85.146C155.584 85.146 155.902 85.116 156.19 85.056C156.478 84.996 156.754 84.918 157.018 84.822L157.486 86.73C157.09 86.85 156.652 86.958 156.172 87.054C155.704 87.162 155.17 87.216 154.57 87.216ZM163.383 87V80.142H159.783V78.072H166.029V87H163.383ZM164.589 76.668C164.085 76.668 163.665 76.524 163.329 76.236C162.993 75.936 162.825 75.546 162.825 75.066C162.825 74.574 162.993 74.178 163.329 73.878C163.665 73.566 164.085 73.41 164.589 73.41C165.105 73.41 165.525 73.566 165.849 73.878C166.185 74.178 166.353 74.574 166.353 75.066C166.353 75.546 166.185 75.936 165.849 76.236C165.525 76.524 165.105 76.668 164.589 76.668ZM174.572 87.216C173.792 87.216 173.054 87.036 172.358 86.676C171.662 86.304 171.098 85.77 170.666 85.074C170.234 84.366 170.018 83.52 170.018 82.536C170.018 81.552 170.234 80.712 170.666 80.016C171.098 79.308 171.662 78.774 172.358 78.414C173.054 78.042 173.792 77.856 174.572 77.856C175.352 77.856 176.09 78.042 176.786 78.414C177.482 78.774 178.046 79.308 178.478 80.016C178.91 80.712 179.126 81.552 179.126 82.536C179.126 83.52 178.91 84.366 178.478 85.074C178.046 85.77 177.482 86.304 176.786 86.676C176.09 87.036 175.352 87.216 174.572 87.216ZM174.572 85.074C174.98 85.074 175.316 84.972 175.58 84.768C175.856 84.564 176.06 84.27 176.192 83.886C176.336 83.502 176.408 83.052 176.408 82.536C176.408 82.02 176.336 81.57 176.192 81.186C176.06 80.802 175.856 80.508 175.58 80.304C175.316 80.1 174.98 79.998 174.572 79.998C174.164 79.998 173.822 80.1 173.546 80.304C173.282 80.508 173.078 80.802 172.934 81.186C172.802 81.57 172.736 82.02 172.736 82.536C172.736 83.052 172.802 83.502 172.934 83.886C173.078 84.27 173.282 84.564 173.546 84.768C173.822 84.972 174.164 85.074 174.572 85.074ZM181.261 87V78.072H183.421L183.619 79.26H183.691C184.075 78.876 184.513 78.546 185.005 78.27C185.509 77.994 186.097 77.856 186.769 77.856C187.777 77.856 188.515 78.18 188.983 78.828C189.451 79.476 189.685 80.364 189.685 81.492V87H187.039V81.834C187.039 81.234 186.937 80.796 186.733 80.52C186.541 80.244 186.205 80.106 185.725 80.106C185.365 80.106 185.047 80.19 184.771 80.358C184.507 80.514 184.219 80.742 183.907 81.042V87H181.261ZM202.595 87V85.488C203.687 84.564 204.641 83.73 205.457 82.986C206.285 82.23 206.927 81.54 207.383 80.916C207.839 80.28 208.067 79.692 208.067 79.152C208.067 78.588 207.899 78.162 207.563 77.874C207.239 77.574 206.783 77.424 206.195 77.424C205.739 77.424 205.319 77.544 204.935 77.784C204.563 78.012 204.215 78.282 203.891 78.594L202.469 77.172C203.057 76.56 203.663 76.104 204.287 75.804C204.923 75.504 205.679 75.354 206.555 75.354C207.347 75.354 208.043 75.504 208.643 75.804C209.255 76.104 209.729 76.53 210.065 77.082C210.413 77.622 210.587 78.258 210.587 78.99C210.587 79.638 210.389 80.292 209.993 80.952C209.609 81.612 209.093 82.278 208.445 82.95C207.809 83.61 207.125 84.264 206.393 84.912C206.717 84.876 207.071 84.846 207.455 84.822C207.839 84.786 208.175 84.768 208.463 84.768H211.181V87H202.595Z" fill="white"/>
    <defs>
        <filter id="filter0_d_214_341" x="106" y="52" width="130" height="58" filterUnits="userSpaceOnUse" color-interpolation-filters="sRGB">
            <feFlood flood-opacity="0" result="BackgroundImageFix"/>
            <feColorMatrix in="SourceAlpha" type="matrix" values="0 0 0 0 0 0 0 0 0 0 0 0 0 0 0 0 0 0 127 0" result="hardAlpha"/>
            <feMorphology radius="1" operator="dilate" in="SourceAlpha" result="effect1_dropShadow_214_341"/>
            <feOffset/>
            <feGaussianBlur stdDeviation="2"/>
            <feComposite in2="hardAlpha" operator="out"/>
            <feColorMatrix type="matrix" values="0 0 0 0 0 0 0 0 0 0 0 0 0 0 0 0 0 0 0.25 0"/>
            <feBlend mode="normal" in2="BackgroundImageFix" result="effect1_dropShadow_214_341"/>
            <feBlend mode="normal" in="SourceGraphic" in2="effect1_dropShadow_214_341" result="shape"/>
        </filter>
    </defs>
</svg>