<svg width="100%" height="100%" viewBox="0 0 340 116" fill="none"
    xmlns="http://www.w3.org/2000/svg">
    <path d="M46.536 38.384C45.128 38.384 43.7307 38.128 42.344 37.616C40.9787 37.104 39.7307 36.3573 38.6 35.376L41.32 32.144C42.1093 32.784 42.9733 33.3067 43.912 33.712C44.872 34.1173 45.8533 34.32 46.856 34.32C47.8587 34.32 48.5947 34.1493 49.064 33.808C49.5547 33.4667 49.8 33.0293 49.8 32.496C49.8 32.0053 49.672 31.6213 49.416 31.344C49.16 31.0453 48.7867 30.7893 48.296 30.576C47.8053 30.3413 47.2293 30.0853 46.568 29.808L43.88 28.656C43.112 28.3573 42.3867 27.9627 41.704 27.472C41.0213 26.96 40.4667 26.3413 40.04 25.616C39.6347 24.8693 39.432 23.984 39.432 22.96C39.432 21.808 39.752 20.7733 40.392 19.856C41.0533 18.9173 41.9493 18.1707 43.08 17.616C44.232 17.04 45.5653 16.752 47.08 16.752C48.3387 16.752 49.576 16.9867 50.792 17.456C52.008 17.9253 53.0853 18.608 54.024 19.504L51.624 22.48C50.8987 21.9467 50.1733 21.5413 49.448 21.264C48.7227 20.9653 47.848 20.816 46.824 20.816C46.056 20.816 45.4267 20.976 44.936 21.296C44.4453 21.616 44.2 22.0853 44.2 22.704C44.2 23.1093 44.3493 23.4507 44.648 23.728C44.9467 24.0053 45.352 24.2507 45.864 24.464C46.376 24.6773 46.9627 24.912 47.624 25.168L50.152 26.256C51.0907 26.5973 51.8907 27.024 52.552 27.536C53.2133 28.0267 53.7253 28.6347 54.088 29.36C54.4507 30.0853 54.632 30.9387 54.632 31.92C54.632 33.072 54.312 34.1387 53.672 35.12C53.0533 36.1013 52.136 36.8907 50.92 37.488C49.7253 38.0853 48.264 38.384 46.536 38.384ZM66.7475 38.384C65.1048 38.384 63.6115 38.064 62.2675 37.424C60.9448 36.7627 59.8888 35.8133 59.0995 34.576C58.3315 33.3173 57.9475 31.8133 57.9475 30.064C57.9475 28.336 58.3422 26.8533 59.1315 25.616C59.9208 24.3573 60.9448 23.3973 62.2035 22.736C63.4622 22.0747 64.7955 21.744 66.2035 21.744C67.8462 21.744 69.2222 22.0853 70.3315 22.768C71.4408 23.4293 72.2728 24.336 72.8275 25.488C73.4035 26.6187 73.6915 27.9093 73.6915 29.36C73.6915 29.7867 73.6595 30.2027 73.5955 30.608C73.5528 30.992 73.5102 31.28 73.4675 31.472H61.4355V28.304H70.2995L69.5635 29.2C69.5635 27.92 69.2862 26.96 68.7315 26.32C68.1982 25.6587 67.4088 25.328 66.3635 25.328C65.5955 25.328 64.9235 25.4987 64.3475 25.84C63.7715 26.1813 63.3235 26.704 63.0035 27.408C62.6835 28.112 62.5235 28.9973 62.5235 30.064C62.5235 31.152 62.7155 32.048 63.0995 32.752C63.4835 33.4347 64.0382 33.9467 64.7635 34.288C65.4888 34.6293 66.3635 34.8 67.3875 34.8C68.1128 34.8 68.7955 34.704 69.4355 34.512C70.0968 34.32 70.7795 34.0427 71.4835 33.68L73.0515 36.528C72.1342 37.104 71.1208 37.5627 70.0115 37.904C68.9022 38.224 67.8142 38.384 66.7475 38.384ZM84.239 44.752C82.8523 44.752 81.615 44.6027 80.527 44.304C79.4603 44.0267 78.607 43.5893 77.967 42.992C77.3483 42.3947 77.039 41.6267 77.039 40.688C77.039 40.048 77.2417 39.4613 77.647 38.928C78.0737 38.3947 78.6923 37.9253 79.503 37.52V37.392C79.055 37.0933 78.671 36.7307 78.351 36.304C78.0523 35.8773 77.903 35.3333 77.903 34.672C77.903 34.1387 78.0737 33.6053 78.415 33.072C78.7777 32.5387 79.2363 32.08 79.791 31.696V31.568C79.215 31.184 78.7243 30.64 78.319 29.936C77.9137 29.232 77.711 28.4213 77.711 27.504C77.711 26.224 78.0203 25.1573 78.639 24.304C79.279 23.4507 80.111 22.8107 81.135 22.384C82.1803 21.9573 83.3003 21.744 84.495 21.744C85.4763 21.744 86.351 21.872 87.119 22.128H93.551V25.584H90.351C90.543 25.8187 90.703 26.128 90.831 26.512C90.9803 26.8747 91.055 27.2587 91.055 27.664C91.055 28.88 90.7563 29.8827 90.159 30.672C89.583 31.44 88.8043 32.016 87.823 32.4C86.8417 32.784 85.7323 32.976 84.495 32.976C84.1963 32.976 83.855 32.9547 83.471 32.912C83.087 32.848 82.703 32.7627 82.319 32.656C82.063 32.8267 81.8817 32.9973 81.775 33.168C81.6683 33.3387 81.615 33.5627 81.615 33.84C81.615 34.2453 81.8283 34.544 82.255 34.736C82.703 34.928 83.3857 35.024 84.303 35.024H87.247C89.3377 35.024 90.927 35.3333 92.015 35.952C93.1243 36.5707 93.679 37.5947 93.679 39.024C93.679 40.1333 93.295 41.1147 92.527 41.968C91.759 42.8427 90.6603 43.5253 89.231 44.016C87.823 44.5067 86.159 44.752 84.239 44.752ZM84.495 30.128C84.943 30.128 85.3483 30.032 85.711 29.84C86.0737 29.648 86.3617 29.36 86.575 28.976C86.7883 28.5707 86.895 28.08 86.895 27.504C86.895 26.9493 86.7883 26.48 86.575 26.096C86.3617 25.712 86.0737 25.424 85.711 25.232C85.3483 25.0187 84.943 24.912 84.495 24.912C84.0683 24.912 83.6737 25.0187 83.311 25.232C82.9483 25.424 82.6603 25.712 82.447 26.096C82.2337 26.48 82.127 26.9493 82.127 27.504C82.127 28.08 82.2337 28.5707 82.447 28.976C82.6603 29.36 82.9483 29.648 83.311 29.84C83.6737 30.032 84.0683 30.128 84.495 30.128ZM84.911 41.776C85.7643 41.776 86.511 41.6907 87.151 41.52C87.791 41.3493 88.2923 41.1147 88.655 40.816C89.0177 40.5387 89.199 40.2187 89.199 39.856C89.199 39.3227 88.9643 38.9813 88.495 38.832C88.0257 38.704 87.3323 38.64 86.415 38.64H84.431C83.855 38.64 83.375 38.6187 82.991 38.576C82.6283 38.5333 82.2977 38.48 81.999 38.416C81.5937 38.672 81.3057 38.9173 81.135 39.152C80.9643 39.408 80.879 39.6853 80.879 39.984C80.879 40.56 81.2417 40.9973 81.967 41.296C82.6923 41.616 83.6737 41.776 84.911 41.776ZM95.6825 38V22.128H99.2345L99.5545 24.08H99.6825C99.9812 23.44 100.397 22.896 100.931 22.448C101.464 21.9787 102.189 21.744 103.107 21.744C103.789 21.744 104.376 21.968 104.867 22.416C105.357 22.8427 105.688 23.4827 105.859 24.336C106.157 23.6107 106.584 23.0027 107.139 22.512C107.715 22 108.461 21.744 109.379 21.744C110.509 21.744 111.384 22.2027 112.003 23.12C112.621 24.0373 112.931 25.2853 112.931 26.864V38H108.451V27.184C108.451 26.224 108.163 25.744 107.587 25.744C107.288 25.744 107.021 25.872 106.787 26.128C106.573 26.3627 106.36 26.7467 106.147 27.28V38H102.467V27.184C102.467 26.6933 102.392 26.3307 102.243 26.096C102.093 25.8613 101.869 25.744 101.571 25.744C101.272 25.744 101.016 25.872 100.803 26.128C100.589 26.3627 100.376 26.7467 100.163 27.28V38H95.6825ZM124.31 38.384C122.667 38.384 121.174 38.064 119.83 37.424C118.507 36.7627 117.451 35.8133 116.662 34.576C115.894 33.3173 115.51 31.8133 115.51 30.064C115.51 28.336 115.905 26.8533 116.694 25.616C117.483 24.3573 118.507 23.3973 119.766 22.736C121.025 22.0747 122.358 21.744 123.766 21.744C125.409 21.744 126.785 22.0853 127.894 22.768C129.003 23.4293 129.835 24.336 130.39 25.488C130.966 26.6187 131.254 27.9093 131.254 29.36C131.254 29.7867 131.222 30.2027 131.158 30.608C131.115 30.992 131.073 31.28 131.03 31.472H118.998V28.304H127.862L127.126 29.2C127.126 27.92 126.849 26.96 126.294 26.32C125.761 25.6587 124.971 25.328 123.926 25.328C123.158 25.328 122.486 25.4987 121.91 25.84C121.334 26.1813 120.886 26.704 120.566 27.408C120.246 28.112 120.086 28.9973 120.086 30.064C120.086 31.152 120.278 32.048 120.662 32.752C121.046 33.4347 121.601 33.9467 122.326 34.288C123.051 34.6293 123.926 34.8 124.95 34.8C125.675 34.8 126.358 34.704 126.998 34.512C127.659 34.32 128.342 34.0427 129.046 33.68L130.614 36.528C129.697 37.104 128.683 37.5627 127.574 37.904C126.465 38.224 125.377 38.384 124.31 38.384ZM135.242 38V22.128H139.082L139.434 24.24H139.562C140.244 23.5573 141.023 22.9707 141.898 22.48C142.794 21.9893 143.839 21.744 145.034 21.744C146.826 21.744 148.138 22.32 148.97 23.472C149.802 24.624 150.218 26.2027 150.218 28.208V38H145.514V28.816C145.514 27.7493 145.332 26.9707 144.97 26.48C144.628 25.9893 144.031 25.744 143.178 25.744C142.538 25.744 141.972 25.8933 141.482 26.192C141.012 26.4693 140.5 26.8747 139.946 27.408V38H135.242ZM164.541 38.384C162.856 38.384 161.512 38.096 160.509 37.52C159.528 36.9227 158.813 36.1013 158.365 35.056C157.917 34.0107 157.693 32.7947 157.693 31.408V25.808H153.725V22.32L157.917 22.128L158.525 17.264H162.397V22.128H169.117V25.808H162.397V31.376C162.397 32.1653 162.514 32.8053 162.749 33.296C162.984 33.7867 163.346 34.1493 163.837 34.384C164.328 34.5973 164.957 34.704 165.725 34.704C166.344 34.704 166.909 34.6507 167.421 34.544C167.933 34.4373 168.424 34.2987 168.893 34.128L169.725 37.52C169.021 37.7333 168.242 37.9253 167.389 38.096C166.557 38.288 165.608 38.384 164.541 38.384ZM180.913 38.384C179.825 38.384 178.929 38.0213 178.225 37.296C177.542 36.5707 177.201 35.6853 177.201 34.64C177.201 33.5947 177.542 32.7093 178.225 31.984C178.929 31.2373 179.825 30.864 180.913 30.864C182.022 30.864 182.918 31.2373 183.601 31.984C184.283 32.7093 184.625 33.5947 184.625 34.64C184.625 35.6853 184.283 36.5707 183.601 37.296C182.918 38.0213 182.022 38.384 180.913 38.384ZM192.868 38V17.136H199.876C201.327 17.136 202.628 17.296 203.78 17.616C204.932 17.9147 205.839 18.4373 206.5 19.184C207.183 19.9307 207.524 20.976 207.524 22.32C207.524 23.2587 207.236 24.1653 206.66 25.04C206.084 25.9147 205.177 26.512 203.94 26.832V26.96C205.433 27.216 206.564 27.7493 207.332 28.56C208.1 29.3493 208.484 30.448 208.484 31.856C208.484 33.264 208.132 34.4267 207.428 35.344C206.724 36.24 205.764 36.912 204.548 37.36C203.353 37.7867 201.999 38 200.484 38H192.868ZM197.572 25.52H199.652C200.804 25.52 201.636 25.296 202.148 24.848C202.66 24.3787 202.916 23.7493 202.916 22.96C202.916 22.192 202.649 21.648 202.116 21.328C201.604 20.9867 200.793 20.816 199.684 20.816H197.572V25.52ZM197.572 34.32H200.1C201.38 34.32 202.329 34.0853 202.948 33.616C203.567 33.1467 203.876 32.4427 203.876 31.504C203.876 30.5867 203.567 29.9253 202.948 29.52C202.329 29.1147 201.38 28.912 200.1 28.912H197.572V34.32ZM216.824 38.384C215.01 38.384 213.698 37.808 212.888 36.656C212.077 35.504 211.672 33.9253 211.672 31.92V22.128H216.376V31.312C216.376 32.3787 216.536 33.1573 216.856 33.648C217.197 34.1387 217.805 34.384 218.68 34.384C219.277 34.384 219.81 34.256 220.28 34C220.749 33.744 221.25 33.264 221.784 32.56V22.128H226.488V38H222.648L222.296 35.728H222.168C221.464 36.5173 220.685 37.1573 219.832 37.648C218.978 38.1387 217.976 38.384 216.824 38.384ZM241.291 38.384C239.606 38.384 238.262 38.096 237.259 37.52C236.278 36.9227 235.563 36.1013 235.115 35.056C234.667 34.0107 234.443 32.7947 234.443 31.408V25.808H230.475V22.32L234.667 22.128L235.275 17.264H239.147V22.128H245.867V25.808H239.147V31.376C239.147 32.1653 239.264 32.8053 239.499 33.296C239.734 33.7867 240.096 34.1493 240.587 34.384C241.078 34.5973 241.707 34.704 242.475 34.704C243.094 34.704 243.659 34.6507 244.171 34.544C244.683 34.4373 245.174 34.2987 245.643 34.128L246.475 37.52C245.771 37.7333 244.992 37.9253 244.139 38.096C243.307 38.288 242.358 38.384 241.291 38.384ZM260.479 38.384C258.793 38.384 257.449 38.096 256.447 37.52C255.465 36.9227 254.751 36.1013 254.303 35.056C253.855 34.0107 253.631 32.7947 253.631 31.408V25.808H249.663V22.32L253.855 22.128L254.463 17.264H258.335V22.128H265.055V25.808H258.335V31.376C258.335 32.1653 258.452 32.8053 258.687 33.296C258.921 33.7867 259.284 34.1493 259.775 34.384C260.265 34.5973 260.895 34.704 261.663 34.704C262.281 34.704 262.847 34.6507 263.359 34.544C263.871 34.4373 264.361 34.2987 264.831 34.128L265.663 37.52C264.959 37.7333 264.18 37.9253 263.327 38.096C262.495 38.288 261.545 38.384 260.479 38.384ZM276.85 38.384C275.463 38.384 274.151 38.064 272.914 37.424C271.677 36.7627 270.674 35.8133 269.906 34.576C269.138 33.3173 268.754 31.8133 268.754 30.064C268.754 28.3147 269.138 26.8213 269.906 25.584C270.674 24.3253 271.677 23.376 272.914 22.736C274.151 22.0747 275.463 21.744 276.85 21.744C278.237 21.744 279.549 22.0747 280.786 22.736C282.023 23.376 283.026 24.3253 283.794 25.584C284.562 26.8213 284.946 28.3147 284.946 30.064C284.946 31.8133 284.562 33.3173 283.794 34.576C283.026 35.8133 282.023 36.7627 280.786 37.424C279.549 38.064 278.237 38.384 276.85 38.384ZM276.85 34.576C277.575 34.576 278.173 34.3947 278.642 34.032C279.133 33.6693 279.495 33.1467 279.73 32.464C279.986 31.7813 280.114 30.9813 280.114 30.064C280.114 29.1467 279.986 28.3467 279.73 27.664C279.495 26.9813 279.133 26.4587 278.642 26.096C278.173 25.7333 277.575 25.552 276.85 25.552C276.125 25.552 275.517 25.7333 275.026 26.096C274.557 26.4587 274.194 26.9813 273.938 27.664C273.703 28.3467 273.586 29.1467 273.586 30.064C273.586 30.9813 273.703 31.7813 273.938 32.464C274.194 33.1467 274.557 33.6693 275.026 34.032C275.517 34.3947 276.125 34.576 276.85 34.576ZM288.742 38V22.128H292.582L292.934 24.24H293.062C293.744 23.5573 294.523 22.9707 295.398 22.48C296.294 21.9893 297.339 21.744 298.534 21.744C300.326 21.744 301.638 22.32 302.47 23.472C303.302 24.624 303.718 26.2027 303.718 28.208V38H299.014V28.816C299.014 27.7493 298.832 26.9707 298.47 26.48C298.128 25.9893 297.531 25.744 296.678 25.744C296.038 25.744 295.472 25.8933 294.982 26.192C294.512 26.4693 294 26.8747 293.446 27.408V38H288.742Z" fill="#00DA9A"/>
    <rect x="1" y="56" width="338" height="48" rx="16" stroke="#00DA9A" stroke-width="2"/>
    <path d="M20.4 86.216C19.62 86.216 18.882 86.036 18.186 85.676C17.49 85.304 16.926 84.77 16.494 84.074C16.062 83.366 15.846 82.52 15.846 81.536C15.846 80.552 16.062 79.712 16.494 79.016C16.926 78.308 17.49 77.774 18.186 77.414C18.882 77.042 19.62 76.856 20.4 76.856C21.18 76.856 21.918 77.042 22.614 77.414C23.31 77.774 23.874 78.308 24.306 79.016C24.738 79.712 24.954 80.552 24.954 81.536C24.954 82.52 24.738 83.366 24.306 84.074C23.874 84.77 23.31 85.304 22.614 85.676C21.918 86.036 21.18 86.216 20.4 86.216ZM20.4 84.074C20.808 84.074 21.144 83.972 21.408 83.768C21.684 83.564 21.888 83.27 22.02 82.886C22.164 82.502 22.236 82.052 22.236 81.536C22.236 81.02 22.164 80.57 22.02 80.186C21.888 79.802 21.684 79.508 21.408 79.304C21.144 79.1 20.808 78.998 20.4 78.998C19.992 78.998 19.65 79.1 19.374 79.304C19.11 79.508 18.906 79.802 18.762 80.186C18.63 80.57 18.564 81.02 18.564 81.536C18.564 82.052 18.63 82.502 18.762 82.886C18.906 83.27 19.11 83.564 19.374 83.768C19.65 83.972 19.992 84.074 20.4 84.074ZM27.089 89.312V77.072H29.249L29.447 77.972H29.501C29.873 77.648 30.287 77.384 30.743 77.18C31.211 76.964 31.685 76.856 32.165 76.856C32.909 76.856 33.545 77.042 34.073 77.414C34.613 77.786 35.027 78.314 35.315 78.998C35.603 79.682 35.747 80.48 35.747 81.392C35.747 82.412 35.561 83.282 35.189 84.002C34.829 84.722 34.355 85.274 33.767 85.658C33.179 86.03 32.549 86.216 31.877 86.216C31.481 86.216 31.091 86.132 30.707 85.964C30.335 85.796 29.993 85.556 29.681 85.244H29.609L29.735 86.702V89.312H27.089ZM31.265 84.056C31.601 84.056 31.901 83.966 32.165 83.786C32.429 83.606 32.639 83.324 32.795 82.94C32.951 82.544 33.029 82.04 33.029 81.428C33.029 80.888 32.969 80.444 32.849 80.096C32.729 79.736 32.549 79.466 32.309 79.286C32.081 79.106 31.775 79.016 31.391 79.016C31.103 79.016 30.821 79.082 30.545 79.214C30.281 79.334 30.011 79.544 29.735 79.844V83.462C29.987 83.666 30.245 83.816 30.509 83.912C30.785 84.008 31.037 84.056 31.265 84.056ZM43.5699 86.216C42.6219 86.216 41.8659 86.054 41.3019 85.73C40.7499 85.394 40.3479 84.932 40.0959 84.344C39.8439 83.756 39.7179 83.072 39.7179 82.292V79.142H37.4859V77.18L39.8439 77.072L40.1859 74.336H42.3639V77.072H46.1439V79.142H42.3639V82.274C42.3639 82.718 42.4299 83.078 42.5619 83.354C42.6939 83.63 42.8979 83.834 43.1739 83.966C43.4499 84.086 43.8039 84.146 44.2359 84.146C44.5839 84.146 44.9019 84.116 45.1899 84.056C45.4779 83.996 45.7539 83.918 46.0179 83.822L46.4859 85.73C46.0899 85.85 45.6519 85.958 45.1719 86.054C44.7039 86.162 44.1699 86.216 43.5699 86.216ZM52.3829 86V79.142H48.7829V77.072H55.0289V86H52.3829ZM53.5889 75.668C53.0849 75.668 52.6649 75.524 52.3289 75.236C51.9929 74.936 51.8249 74.546 51.8249 74.066C51.8249 73.574 51.9929 73.178 52.3289 72.878C52.6649 72.566 53.0849 72.41 53.5889 72.41C54.1049 72.41 54.5249 72.566 54.8489 72.878C55.1849 73.178 55.3529 73.574 55.3529 74.066C55.3529 74.546 55.1849 74.936 54.8489 75.236C54.5249 75.524 54.1049 75.668 53.5889 75.668ZM63.5719 86.216C62.7919 86.216 62.0539 86.036 61.3579 85.676C60.6619 85.304 60.0979 84.77 59.6659 84.074C59.2339 83.366 59.0179 82.52 59.0179 81.536C59.0179 80.552 59.2339 79.712 59.6659 79.016C60.0979 78.308 60.6619 77.774 61.3579 77.414C62.0539 77.042 62.7919 76.856 63.5719 76.856C64.3519 76.856 65.0899 77.042 65.7859 77.414C66.4819 77.774 67.0459 78.308 67.4779 79.016C67.9099 79.712 68.1259 80.552 68.1259 81.536C68.1259 82.52 67.9099 83.366 67.4779 84.074C67.0459 84.77 66.4819 85.304 65.7859 85.676C65.0899 86.036 64.3519 86.216 63.5719 86.216ZM63.5719 84.074C63.9799 84.074 64.3159 83.972 64.5799 83.768C64.8559 83.564 65.0599 83.27 65.1919 82.886C65.3359 82.502 65.4079 82.052 65.4079 81.536C65.4079 81.02 65.3359 80.57 65.1919 80.186C65.0599 79.802 64.8559 79.508 64.5799 79.304C64.3159 79.1 63.9799 78.998 63.5719 78.998C63.1639 78.998 62.8219 79.1 62.5459 79.304C62.2819 79.508 62.0779 79.802 61.9339 80.186C61.8019 80.57 61.7359 81.02 61.7359 81.536C61.7359 82.052 61.8019 82.502 61.9339 82.886C62.0779 83.27 62.2819 83.564 62.5459 83.768C62.8219 83.972 63.1639 84.074 63.5719 84.074ZM70.2608 86V77.072H72.4208L72.6188 78.26H72.6908C73.0748 77.876 73.5128 77.546 74.0048 77.27C74.5088 76.994 75.0968 76.856 75.7688 76.856C76.7768 76.856 77.5148 77.18 77.9828 77.828C78.4508 78.476 78.6848 79.364 78.6848 80.492V86H76.0388V80.834C76.0388 80.234 75.9368 79.796 75.7328 79.52C75.5408 79.244 75.2048 79.106 74.7248 79.106C74.3648 79.106 74.0468 79.19 73.7708 79.358C73.5068 79.514 73.2188 79.742 72.9068 80.042V86H70.2608ZM91.9728 86V83.858H95.0508V77.252H92.5128V75.614C93.0288 75.53 93.4728 75.446 93.8448 75.362C94.2288 75.266 94.5708 75.158 94.8708 75.038C95.1708 74.906 95.4648 74.75 95.7528 74.57H97.6968V83.858H100.289V86H91.9728Z" fill="#00CF92"/>
    <rect x="111" y="57" width="120" height="46" fill="#979797"/>
    <path d="M245.4 86.216C244.62 86.216 243.882 86.036 243.186 85.676C242.49 85.304 241.926 84.77 241.494 84.074C241.062 83.366 240.846 82.52 240.846 81.536C240.846 80.552 241.062 79.712 241.494 79.016C241.926 78.308 242.49 77.774 243.186 77.414C243.882 77.042 244.62 76.856 245.4 76.856C246.18 76.856 246.918 77.042 247.614 77.414C248.31 77.774 248.874 78.308 249.306 79.016C249.738 79.712 249.954 80.552 249.954 81.536C249.954 82.52 249.738 83.366 249.306 84.074C248.874 84.77 248.31 85.304 247.614 85.676C246.918 86.036 246.18 86.216 245.4 86.216ZM245.4 84.074C245.808 84.074 246.144 83.972 246.408 83.768C246.684 83.564 246.888 83.27 247.02 82.886C247.164 82.502 247.236 82.052 247.236 81.536C247.236 81.02 247.164 80.57 247.02 80.186C246.888 79.802 246.684 79.508 246.408 79.304C246.144 79.1 245.808 78.998 245.4 78.998C244.992 78.998 244.65 79.1 244.374 79.304C244.11 79.508 243.906 79.802 243.762 80.186C243.63 80.57 243.564 81.02 243.564 81.536C243.564 82.052 243.63 82.502 243.762 82.886C243.906 83.27 244.11 83.564 244.374 83.768C244.65 83.972 244.992 84.074 245.4 84.074ZM252.089 89.312V77.072H254.249L254.447 77.972H254.501C254.873 77.648 255.287 77.384 255.743 77.18C256.211 76.964 256.685 76.856 257.165 76.856C257.909 76.856 258.545 77.042 259.073 77.414C259.613 77.786 260.027 78.314 260.315 78.998C260.603 79.682 260.747 80.48 260.747 81.392C260.747 82.412 260.561 83.282 260.189 84.002C259.829 84.722 259.355 85.274 258.767 85.658C258.179 86.03 257.549 86.216 256.877 86.216C256.481 86.216 256.091 86.132 255.707 85.964C255.335 85.796 254.993 85.556 254.681 85.244H254.609L254.735 86.702V89.312H252.089ZM256.265 84.056C256.601 84.056 256.901 83.966 257.165 83.786C257.429 83.606 257.639 83.324 257.795 82.94C257.951 82.544 258.029 82.04 258.029 81.428C258.029 80.888 257.969 80.444 257.849 80.096C257.729 79.736 257.549 79.466 257.309 79.286C257.081 79.106 256.775 79.016 256.391 79.016C256.103 79.016 255.821 79.082 255.545 79.214C255.281 79.334 255.011 79.544 254.735 79.844V83.462C254.987 83.666 255.245 83.816 255.509 83.912C255.785 84.008 256.037 84.056 256.265 84.056ZM268.57 86.216C267.622 86.216 266.866 86.054 266.302 85.73C265.75 85.394 265.348 84.932 265.096 84.344C264.844 83.756 264.718 83.072 264.718 82.292V79.142H262.486V77.18L264.844 77.072L265.186 74.336H267.364V77.072H271.144V79.142H267.364V82.274C267.364 82.718 267.43 83.078 267.562 83.354C267.694 83.63 267.898 83.834 268.174 83.966C268.45 84.086 268.804 84.146 269.236 84.146C269.584 84.146 269.902 84.116 270.19 84.056C270.478 83.996 270.754 83.918 271.018 83.822L271.486 85.73C271.09 85.85 270.652 85.958 270.172 86.054C269.704 86.162 269.17 86.216 268.57 86.216ZM277.383 86V79.142H273.783V77.072H280.029V86H277.383ZM278.589 75.668C278.085 75.668 277.665 75.524 277.329 75.236C276.993 74.936 276.825 74.546 276.825 74.066C276.825 73.574 276.993 73.178 277.329 72.878C277.665 72.566 278.085 72.41 278.589 72.41C279.105 72.41 279.525 72.566 279.849 72.878C280.185 73.178 280.353 73.574 280.353 74.066C280.353 74.546 280.185 74.936 279.849 75.236C279.525 75.524 279.105 75.668 278.589 75.668ZM288.572 86.216C287.792 86.216 287.054 86.036 286.358 85.676C285.662 85.304 285.098 84.77 284.666 84.074C284.234 83.366 284.018 82.52 284.018 81.536C284.018 80.552 284.234 79.712 284.666 79.016C285.098 78.308 285.662 77.774 286.358 77.414C287.054 77.042 287.792 76.856 288.572 76.856C289.352 76.856 290.09 77.042 290.786 77.414C291.482 77.774 292.046 78.308 292.478 79.016C292.91 79.712 293.126 80.552 293.126 81.536C293.126 82.52 292.91 83.366 292.478 84.074C292.046 84.77 291.482 85.304 290.786 85.676C290.09 86.036 289.352 86.216 288.572 86.216ZM288.572 84.074C288.98 84.074 289.316 83.972 289.58 83.768C289.856 83.564 290.06 83.27 290.192 82.886C290.336 82.502 290.408 82.052 290.408 81.536C290.408 81.02 290.336 80.57 290.192 80.186C290.06 79.802 289.856 79.508 289.58 79.304C289.316 79.1 288.98 78.998 288.572 78.998C288.164 78.998 287.822 79.1 287.546 79.304C287.282 79.508 287.078 79.802 286.934 80.186C286.802 80.57 286.736 81.02 286.736 81.536C286.736 82.052 286.802 82.502 286.934 82.886C287.078 83.27 287.282 83.564 287.546 83.768C287.822 83.972 288.164 84.074 288.572 84.074ZM295.261 86V77.072H297.421L297.619 78.26H297.691C298.075 77.876 298.513 77.546 299.005 77.27C299.509 76.994 300.097 76.856 300.769 76.856C301.777 76.856 302.515 77.18 302.983 77.828C303.451 78.476 303.685 79.364 303.685 80.492V86H301.039V80.834C301.039 80.234 300.937 79.796 300.733 79.52C300.541 79.244 300.205 79.106 299.725 79.106C299.365 79.106 299.047 79.19 298.771 79.358C298.507 79.514 298.219 79.742 297.907 80.042V86H295.261ZM320.573 86.216C319.925 86.216 319.331 86.144 318.791 86C318.263 85.868 317.789 85.682 317.369 85.442C316.949 85.202 316.595 84.92 316.307 84.596L317.531 82.922C317.915 83.258 318.347 83.534 318.827 83.75C319.307 83.966 319.805 84.074 320.321 84.074C320.729 84.074 321.095 84.026 321.419 83.93C321.743 83.822 321.995 83.666 322.175 83.462C322.367 83.258 322.463 83.012 322.463 82.724C322.463 82.388 322.361 82.1 322.157 81.86C321.953 81.608 321.599 81.416 321.095 81.284C320.603 81.152 319.907 81.086 319.007 81.086V79.214C319.763 79.214 320.363 79.148 320.807 79.016C321.251 78.884 321.575 78.704 321.779 78.476C321.983 78.248 322.085 77.984 322.085 77.684C322.085 77.276 321.935 76.964 321.635 76.748C321.335 76.532 320.921 76.424 320.393 76.424C319.949 76.424 319.529 76.514 319.133 76.694C318.749 76.862 318.359 77.108 317.963 77.432L316.631 75.812C317.195 75.356 317.801 75.002 318.449 74.75C319.097 74.486 319.787 74.354 320.519 74.354C321.347 74.354 322.079 74.48 322.715 74.732C323.351 74.972 323.843 75.326 324.191 75.794C324.551 76.25 324.731 76.814 324.731 77.486C324.731 78.074 324.539 78.578 324.155 78.998C323.771 79.418 323.237 79.76 322.553 80.024V80.096C323.033 80.228 323.465 80.42 323.849 80.672C324.245 80.912 324.551 81.218 324.767 81.59C324.995 81.962 325.109 82.394 325.109 82.886C325.109 83.594 324.899 84.2 324.479 84.704C324.059 85.196 323.507 85.574 322.823 85.838C322.139 86.09 321.389 86.216 320.573 86.216Z" fill="#00CF92"/>
    <path d="M131.4 86.216C130.62 86.216 129.882 86.036 129.186 85.676C128.49 85.304 127.926 84.77 127.494 84.074C127.062 83.366 126.846 82.52 126.846 81.536C126.846 80.552 127.062 79.712 127.494 79.016C127.926 78.308 128.49 77.774 129.186 77.414C129.882 77.042 130.62 76.856 131.4 76.856C132.18 76.856 132.918 77.042 133.614 77.414C134.31 77.774 134.874 78.308 135.306 79.016C135.738 79.712 135.954 80.552 135.954 81.536C135.954 82.52 135.738 83.366 135.306 84.074C134.874 84.77 134.31 85.304 133.614 85.676C132.918 86.036 132.18 86.216 131.4 86.216ZM131.4 84.074C131.808 84.074 132.144 83.972 132.408 83.768C132.684 83.564 132.888 83.27 133.02 82.886C133.164 82.502 133.236 82.052 133.236 81.536C133.236 81.02 133.164 80.57 133.02 80.186C132.888 79.802 132.684 79.508 132.408 79.304C132.144 79.1 131.808 78.998 131.4 78.998C130.992 78.998 130.65 79.1 130.374 79.304C130.11 79.508 129.906 79.802 129.762 80.186C129.63 80.57 129.564 81.02 129.564 81.536C129.564 82.052 129.63 82.502 129.762 82.886C129.906 83.27 130.11 83.564 130.374 83.768C130.65 83.972 130.992 84.074 131.4 84.074ZM138.089 89.312V77.072H140.249L140.447 77.972H140.501C140.873 77.648 141.287 77.384 141.743 77.18C142.211 76.964 142.685 76.856 143.165 76.856C143.909 76.856 144.545 77.042 145.073 77.414C145.613 77.786 146.027 78.314 146.315 78.998C146.603 79.682 146.747 80.48 146.747 81.392C146.747 82.412 146.561 83.282 146.189 84.002C145.829 84.722 145.355 85.274 144.767 85.658C144.179 86.03 143.549 86.216 142.877 86.216C142.481 86.216 142.091 86.132 141.707 85.964C141.335 85.796 140.993 85.556 140.681 85.244H140.609L140.735 86.702V89.312H138.089ZM142.265 84.056C142.601 84.056 142.901 83.966 143.165 83.786C143.429 83.606 143.639 83.324 143.795 82.94C143.951 82.544 144.029 82.04 144.029 81.428C144.029 80.888 143.969 80.444 143.849 80.096C143.729 79.736 143.549 79.466 143.309 79.286C143.081 79.106 142.775 79.016 142.391 79.016C142.103 79.016 141.821 79.082 141.545 79.214C141.281 79.334 141.011 79.544 140.735 79.844V83.462C140.987 83.666 141.245 83.816 141.509 83.912C141.785 84.008 142.037 84.056 142.265 84.056ZM154.57 86.216C153.622 86.216 152.866 86.054 152.302 85.73C151.75 85.394 151.348 84.932 151.096 84.344C150.844 83.756 150.718 83.072 150.718 82.292V79.142H148.486V77.18L150.844 77.072L151.186 74.336H153.364V77.072H157.144V79.142H153.364V82.274C153.364 82.718 153.43 83.078 153.562 83.354C153.694 83.63 153.898 83.834 154.174 83.966C154.45 84.086 154.804 84.146 155.236 84.146C155.584 84.146 155.902 84.116 156.19 84.056C156.478 83.996 156.754 83.918 157.018 83.822L157.486 85.73C157.09 85.85 156.652 85.958 156.172 86.054C155.704 86.162 155.17 86.216 154.57 86.216ZM163.383 86V79.142H159.783V77.072H166.029V86H163.383ZM164.589 75.668C164.085 75.668 163.665 75.524 163.329 75.236C162.993 74.936 162.825 74.546 162.825 74.066C162.825 73.574 162.993 73.178 163.329 72.878C163.665 72.566 164.085 72.41 164.589 72.41C165.105 72.41 165.525 72.566 165.849 72.878C166.185 73.178 166.353 73.574 166.353 74.066C166.353 74.546 166.185 74.936 165.849 75.236C165.525 75.524 165.105 75.668 164.589 75.668ZM174.572 86.216C173.792 86.216 173.054 86.036 172.358 85.676C171.662 85.304 171.098 84.77 170.666 84.074C170.234 83.366 170.018 82.52 170.018 81.536C170.018 80.552 170.234 79.712 170.666 79.016C171.098 78.308 171.662 77.774 172.358 77.414C173.054 77.042 173.792 76.856 174.572 76.856C175.352 76.856 176.09 77.042 176.786 77.414C177.482 77.774 178.046 78.308 178.478 79.016C178.91 79.712 179.126 80.552 179.126 81.536C179.126 82.52 178.91 83.366 178.478 84.074C178.046 84.77 177.482 85.304 176.786 85.676C176.09 86.036 175.352 86.216 174.572 86.216ZM174.572 84.074C174.98 84.074 175.316 83.972 175.58 83.768C175.856 83.564 176.06 83.27 176.192 82.886C176.336 82.502 176.408 82.052 176.408 81.536C176.408 81.02 176.336 80.57 176.192 80.186C176.06 79.802 175.856 79.508 175.58 79.304C175.316 79.1 174.98 78.998 174.572 78.998C174.164 78.998 173.822 79.1 173.546 79.304C173.282 79.508 173.078 79.802 172.934 80.186C172.802 80.57 172.736 81.02 172.736 81.536C172.736 82.052 172.802 82.502 172.934 82.886C173.078 83.27 173.282 83.564 173.546 83.768C173.822 83.972 174.164 84.074 174.572 84.074ZM181.261 86V77.072H183.421L183.619 78.26H183.691C184.075 77.876 184.513 77.546 185.005 77.27C185.509 76.994 186.097 76.856 186.769 76.856C187.777 76.856 188.515 77.18 188.983 77.828C189.451 78.476 189.685 79.364 189.685 80.492V86H187.039V80.834C187.039 80.234 186.937 79.796 186.733 79.52C186.541 79.244 186.205 79.106 185.725 79.106C185.365 79.106 185.047 79.19 184.771 79.358C184.507 79.514 184.219 79.742 183.907 80.042V86H181.261ZM202.595 86V84.488C203.687 83.564 204.641 82.73 205.457 81.986C206.285 81.23 206.927 80.54 207.383 79.916C207.839 79.28 208.067 78.692 208.067 78.152C208.067 77.588 207.899 77.162 207.563 76.874C207.239 76.574 206.783 76.424 206.195 76.424C205.739 76.424 205.319 76.544 204.935 76.784C204.563 77.012 204.215 77.282 203.891 77.594L202.469 76.172C203.057 75.56 203.663 75.104 204.287 74.804C204.923 74.504 205.679 74.354 206.555 74.354C207.347 74.354 208.043 74.504 208.643 74.804C209.255 75.104 209.729 75.53 210.065 76.082C210.413 76.622 210.587 77.258 210.587 77.99C210.587 78.638 210.389 79.292 209.993 79.952C209.609 80.612 209.093 81.278 208.445 81.95C207.809 82.61 207.125 83.264 206.393 83.912C206.717 83.876 207.071 83.846 207.455 83.822C207.839 83.786 208.175 83.768 208.463 83.768H211.181V86H202.595Z" fill="#71FFAC"/>
    <path d="M223.868 98.8057L218.225 104.45L217.673 105.002L218.246 105.531L224.917 111.688L221.667 114.939L215.167 108.439L212.47 111.137L208.994 114.611L201.188 91.1895L223.868 98.8057Z" fill="#71FFAC" stroke="#00CF92" stroke-width="1.5"/>
</svg>