<svg width="100%" height="100%" viewBox="0 0 227 88" fill="none"
    xmlns="http://www.w3.org/2000/svg">
    <path d="M65.536 31.384C64.128 31.384 62.7307 31.128 61.344 30.616C59.9787 30.104 58.7307 29.3573 57.6 28.376L60.32 25.144C61.1093 25.784 61.9733 26.3067 62.912 26.712C63.872 27.1173 64.8533 27.32 65.856 27.32C66.8587 27.32 67.5947 27.1493 68.064 26.808C68.5547 26.4667 68.8 26.0293 68.8 25.496C68.8 25.0053 68.672 24.6213 68.416 24.344C68.16 24.0453 67.7867 23.7893 67.296 23.576C66.8053 23.3413 66.2293 23.0853 65.568 22.808L62.88 21.656C62.112 21.3573 61.3867 20.9627 60.704 20.472C60.0213 19.96 59.4667 19.3413 59.04 18.616C58.6347 17.8693 58.432 16.984 58.432 15.96C58.432 14.808 58.752 13.7733 59.392 12.856C60.0533 11.9173 60.9493 11.1707 62.08 10.616C63.232 10.04 64.5653 9.752 66.08 9.752C67.3387 9.752 68.576 9.98667 69.792 10.456C71.008 10.9253 72.0853 11.608 73.024 12.504L70.624 15.48C69.8987 14.9467 69.1733 14.5413 68.448 14.264C67.7227 13.9653 66.848 13.816 65.824 13.816C65.056 13.816 64.4267 13.976 63.936 14.296C63.4453 14.616 63.2 15.0853 63.2 15.704C63.2 16.1093 63.3493 16.4507 63.648 16.728C63.9467 17.0053 64.352 17.2507 64.864 17.464C65.376 17.6773 65.9627 17.912 66.624 18.168L69.152 19.256C70.0907 19.5973 70.8907 20.024 71.552 20.536C72.2133 21.0267 72.7253 21.6347 73.088 22.36C73.4507 23.0853 73.632 23.9387 73.632 24.92C73.632 26.072 73.312 27.1387 72.672 28.12C72.0533 29.1013 71.136 29.8907 69.92 30.488C68.7253 31.0853 67.264 31.384 65.536 31.384ZM87.8275 31.384C85.8435 31.384 84.3395 30.7867 83.3155 29.592C82.2915 28.3973 81.7795 26.7973 81.7795 24.792V12.28H76.8195V8.6H86.4835V24.984C86.4835 25.9653 86.7502 26.648 87.2835 27.032C87.8168 27.3947 88.4035 27.576 89.0435 27.576C89.4275 27.576 89.8115 27.5333 90.1955 27.448C90.6008 27.3627 91.0488 27.2347 91.5395 27.064L92.5635 30.52C91.7528 30.776 91.0062 30.9787 90.3235 31.128C89.6622 31.2987 88.8302 31.384 87.8275 31.384ZM103.271 31V18.808H96.871V15.128H107.975V31H103.271ZM105.415 12.632C104.519 12.632 103.772 12.376 103.175 11.864C102.578 11.3307 102.279 10.6373 102.279 9.784C102.279 8.90933 102.578 8.20533 103.175 7.672C103.772 7.11733 104.519 6.84 105.415 6.84C106.332 6.84 107.079 7.11733 107.655 7.672C108.252 8.20533 108.551 8.90933 108.551 9.784C108.551 10.6373 108.252 11.3307 107.655 11.864C107.079 12.376 106.332 12.632 105.415 12.632ZM121.755 31.384C119.749 31.384 118.128 30.648 116.891 29.176C115.675 27.6827 115.067 25.6453 115.067 23.064C115.067 21.336 115.387 19.8533 116.027 18.616C116.688 17.3787 117.541 16.4293 118.587 15.768C119.632 15.0853 120.72 14.744 121.851 14.744C122.725 14.744 123.483 14.8933 124.123 15.192C124.763 15.4907 125.339 15.9067 125.851 16.44H125.979L125.755 13.976V8.568H130.458V31H126.619L126.267 29.368H126.171C125.595 29.944 124.912 30.424 124.123 30.808C123.355 31.192 122.565 31.384 121.755 31.384ZM122.97 27.544C123.504 27.544 123.995 27.4373 124.443 27.224C124.912 26.9893 125.349 26.6053 125.755 26.072V19.64C125.328 19.256 124.891 18.9893 124.443 18.84C124.016 18.6693 123.568 18.584 123.099 18.584C122.523 18.584 121.989 18.744 121.499 19.064C121.008 19.384 120.613 19.8747 120.315 20.536C120.037 21.176 119.899 21.9973 119.899 23C119.899 24.5573 120.165 25.7093 120.699 26.456C121.232 27.1813 121.989 27.544 122.97 27.544ZM143.31 31.384C141.667 31.384 140.174 31.064 138.83 30.424C137.507 29.7627 136.451 28.8133 135.662 27.576C134.894 26.3173 134.51 24.8133 134.51 23.064C134.51 21.336 134.905 19.8533 135.694 18.616C136.483 17.3573 137.507 16.3973 138.766 15.736C140.025 15.0747 141.358 14.744 142.766 14.744C144.409 14.744 145.785 15.0853 146.894 15.768C148.003 16.4293 148.835 17.336 149.39 18.488C149.966 19.6187 150.254 20.9093 150.254 22.36C150.254 22.7867 150.222 23.2027 150.158 23.608C150.115 23.992 150.073 24.28 150.03 24.472H137.998V21.304H146.862L146.126 22.2C146.126 20.92 145.849 19.96 145.294 19.32C144.761 18.6587 143.971 18.328 142.926 18.328C142.158 18.328 141.486 18.4987 140.91 18.84C140.334 19.1813 139.886 19.704 139.566 20.408C139.246 21.112 139.086 21.9973 139.086 23.064C139.086 24.152 139.278 25.048 139.662 25.752C140.046 26.4347 140.601 26.9467 141.326 27.288C142.051 27.6293 142.926 27.8 143.95 27.8C144.675 27.8 145.358 27.704 145.998 27.512C146.659 27.32 147.342 27.0427 148.046 26.68L149.614 29.528C148.697 30.104 147.683 30.5627 146.574 30.904C145.465 31.224 144.377 31.384 143.31 31.384ZM155.65 31V15.128H159.49L159.874 18.584H159.97C160.759 17.2827 161.708 16.3227 162.818 15.704C163.948 15.064 165.143 14.744 166.402 14.744C167.106 14.744 167.671 14.7973 168.097 14.904C168.546 15.0107 169.004 15.1707 169.474 15.384L168.514 19.32C168.023 19.1707 167.575 19.064 167.17 19C166.786 18.9147 166.295 18.872 165.698 18.872C164.716 18.872 163.746 19.16 162.786 19.736C161.847 20.312 161.036 21.3147 160.354 22.744V31H155.65Z" fill="#00DA9A"/>
    <rect y="59" width="227" height="5" rx="2.5" fill="#D9D9D9"/>
    <rect y="59" width="107" height="5" rx="2.5" fill="#00DA9A"/>
    <circle cx="106.5" cy="61.5" r="8.5" fill="#6DFAA8"/>
    <path d="M130.868 70.8057L125.225 76.4502L124.673 77.002L125.246 77.5312L131.917 83.6885L128.667 86.9395L122.167 80.4395L119.47 83.1367L115.994 86.6113L108.188 63.1895L130.868 70.8057Z" fill="#71FFAC" stroke="#00CF92" stroke-width="1.5"/>
</svg>