<svg width="100%" height="100%" viewBox="0 0 229 61" fill="none"
    xmlns="http://www.w3.org/2000/svg">
    <rect x="43" y="1" width="143" height="59" rx="16" stroke="#00CF92" stroke-width="2"/>
    <path d="M77.238 42.372C75.874 42.372 74.5203 42.124 73.177 41.628C71.8543 41.132 70.6453 40.4087 69.55 39.458L72.185 36.327C72.9497 36.947 73.7867 37.4533 74.696 37.846C75.626 38.2387 76.5767 38.435 77.548 38.435C78.5193 38.435 79.2323 38.2697 79.687 37.939C80.1623 37.6083 80.4 37.1847 80.4 36.668C80.4 36.1927 80.276 35.8207 80.028 35.552C79.78 35.2627 79.4183 35.0147 78.943 34.808C78.4677 34.5807 77.9097 34.3327 77.269 34.064L74.665 32.948C73.921 32.6587 73.2183 32.2763 72.557 31.801C71.8957 31.305 71.3583 30.7057 70.945 30.003C70.5523 29.2797 70.356 28.422 70.356 27.43C70.356 26.314 70.666 25.3117 71.286 24.423C71.9267 23.5137 72.7947 22.7903 73.89 22.253C75.006 21.695 76.2977 21.416 77.765 21.416C78.9843 21.416 80.183 21.6433 81.361 22.098C82.539 22.5527 83.5827 23.214 84.492 24.082L82.167 26.965C81.4643 26.4483 80.7617 26.0557 80.059 25.787C79.3563 25.4977 78.509 25.353 77.517 25.353C76.773 25.353 76.1633 25.508 75.688 25.818C75.2127 26.128 74.975 26.5827 74.975 27.182C74.975 27.5747 75.1197 27.9053 75.409 28.174C75.6983 28.4427 76.091 28.6803 76.587 28.887C77.083 29.0937 77.6513 29.321 78.292 29.569L80.741 30.623C81.6503 30.9537 82.4253 31.367 83.066 31.863C83.7067 32.3383 84.2027 32.9273 84.554 33.63C84.9053 34.3327 85.081 35.1593 85.081 36.11C85.081 37.226 84.771 38.2593 84.151 39.21C83.5517 40.1607 82.663 40.9253 81.485 41.504C80.3277 42.0827 78.912 42.372 77.238 42.372ZM98.6159 42.372C96.9832 42.372 95.6812 42.093 94.7099 41.535C93.7592 40.9563 93.0669 40.1607 92.6329 39.148C92.1989 38.1353 91.9819 36.9573 91.9819 35.614V30.189H88.1379V26.81L92.1989 26.624L92.7879 21.912H96.5389V26.624H103.049V30.189H96.5389V35.583C96.5389 36.3477 96.6526 36.9677 96.8799 37.443C97.1072 37.9183 97.4586 38.2697 97.9339 38.497C98.4092 38.7037 99.0189 38.807 99.7629 38.807C100.362 38.807 100.91 38.7553 101.406 38.652C101.902 38.5487 102.377 38.4143 102.832 38.249L103.638 41.535C102.956 41.7417 102.202 41.9277 101.375 42.093C100.569 42.279 99.6492 42.372 98.6159 42.372ZM112.12 42.372C111.086 42.372 110.187 42.1653 109.423 41.752C108.679 41.3387 108.1 40.7807 107.687 40.078C107.273 39.3753 107.067 38.59 107.067 37.722C107.067 36.0067 107.842 34.6943 109.392 33.785C110.962 32.8757 113.566 32.3177 117.204 32.111C117.142 31.6357 116.987 31.2327 116.739 30.902C116.491 30.5713 116.129 30.3233 115.654 30.158C115.199 29.972 114.62 29.879 113.918 29.879C113.422 29.879 112.926 29.941 112.43 30.065C111.934 30.1683 111.417 30.3337 110.88 30.561C110.363 30.7677 109.815 31.0157 109.237 31.305L107.625 28.329C108.327 27.9157 109.061 27.554 109.826 27.244C110.611 26.934 111.417 26.6963 112.244 26.531C113.091 26.345 113.949 26.252 114.817 26.252C116.263 26.252 117.503 26.5103 118.537 27.027C119.57 27.523 120.366 28.2877 120.924 29.321C121.482 30.3337 121.761 31.6253 121.761 33.196V42H118.041L117.7 40.264H117.576C116.811 40.8427 115.964 41.3387 115.034 41.752C114.104 42.1653 113.132 42.372 112.12 42.372ZM113.577 38.838C114.259 38.838 114.899 38.7037 115.499 38.435C116.098 38.1457 116.666 37.7943 117.204 37.381V34.839C115.695 34.9217 114.517 35.0767 113.67 35.304C112.843 35.5313 112.264 35.8207 111.934 36.172C111.603 36.5233 111.438 36.9263 111.438 37.381C111.438 37.691 111.52 37.9597 111.686 38.187C111.872 38.4143 112.12 38.5797 112.43 38.683C112.76 38.7863 113.143 38.838 113.577 38.838ZM135.792 42.372C134.159 42.372 132.857 42.093 131.886 41.535C130.935 40.9563 130.243 40.1607 129.809 39.148C129.375 38.1353 129.158 36.9573 129.158 35.614V30.189H125.314V26.81L129.375 26.624L129.964 21.912H133.715V26.624H140.225V30.189H133.715V35.583C133.715 36.3477 133.828 36.9677 134.056 37.443C134.283 37.9183 134.634 38.2697 135.11 38.497C135.585 38.7037 136.195 38.807 136.939 38.807C137.538 38.807 138.086 38.7553 138.582 38.652C139.078 38.5487 139.553 38.4143 140.008 38.249L140.814 41.535C140.132 41.7417 139.377 41.9277 138.551 42.093C137.745 42.279 136.825 42.372 135.792 42.372ZM152.582 42.372C150.99 42.372 149.544 42.062 148.242 41.442C146.96 40.8013 145.937 39.8817 145.173 38.683C144.429 37.4637 144.057 36.0067 144.057 34.312C144.057 32.638 144.439 31.2017 145.204 30.003C145.968 28.7837 146.96 27.8537 148.18 27.213C149.399 26.5723 150.691 26.252 152.055 26.252C153.646 26.252 154.979 26.5827 156.054 27.244C157.128 27.8847 157.934 28.763 158.472 29.879C159.03 30.9743 159.309 32.2247 159.309 33.63C159.309 34.0433 159.278 34.4463 159.216 34.839C159.174 35.211 159.133 35.49 159.092 35.676H147.436V32.607H156.023L155.31 33.475C155.31 32.235 155.041 31.305 154.504 30.685C153.987 30.0443 153.222 29.724 152.21 29.724C151.466 29.724 150.815 29.8893 150.257 30.22C149.699 30.5507 149.265 31.057 148.955 31.739C148.645 32.421 148.49 33.2787 148.49 34.312C148.49 35.366 148.676 36.234 149.048 36.916C149.42 37.5773 149.957 38.0733 150.66 38.404C151.362 38.7347 152.21 38.9 153.202 38.9C153.904 38.9 154.566 38.807 155.186 38.621C155.826 38.435 156.488 38.1663 157.17 37.815L158.689 40.574C157.8 41.132 156.818 41.5763 155.744 41.907C154.669 42.217 153.615 42.372 152.582 42.372Z" fill="#00CF92"/>
    <path d="M30.7071 30.7071C31.0976 30.3166 31.0976 29.6834 30.7071 29.2929L24.3431 22.9289C23.9526 22.5384 23.3195 22.5384 22.9289 22.9289C22.5384 23.3195 22.5384 23.9526 22.9289 24.3431L28.5858 30L22.9289 35.6569C22.5384 36.0474 22.5384 36.6805 22.9289 37.0711C23.3195 37.4616 23.9526 37.4616 24.3431 37.0711L30.7071 30.7071ZM0 31H30V29H0V31Z" fill="#00CF92"/>
    <path d="M228.707 30.7071C229.098 30.3166 229.098 29.6834 228.707 29.2929L222.343 22.9289C221.953 22.5384 221.319 22.5384 220.929 22.9289C220.538 23.3195 220.538 23.9526 220.929 24.3431L226.586 30L220.929 35.6569C220.538 36.0474 220.538 36.6805 220.929 37.0711C221.319 37.4616 221.953 37.4616 222.343 37.0711L228.707 30.7071ZM198 31H228V29H198V31Z" fill="#00CF92"/>
</svg>