<svg width="100%" height="100%" viewBox="0 0 230 76" fill="none"
    xmlns="http://www.w3.org/2000/svg">
    <path d="M15 73L3 59.7413L9 53.3706L15 47" stroke="#666666" stroke-width="5" stroke-linecap="round" stroke-linejoin="round"/>
    <path d="M215 45L227 58.2587L221 64.6294L215 71" stroke="#666666" stroke-width="5" stroke-linecap="round" stroke-linejoin="round"/>
    <path d="M35.854 68.276C34.842 68.276 33.8377 68.092 32.841 67.724C31.8597 67.356 30.9627 66.8193 30.15 66.114L32.105 63.791C32.6723 64.251 33.2933 64.6267 33.968 64.918C34.658 65.2093 35.3633 65.355 36.084 65.355C36.8047 65.355 37.3337 65.2323 37.671 64.987C38.0237 64.7417 38.2 64.4273 38.2 64.044C38.2 63.6913 38.108 63.4153 37.924 63.216C37.74 63.0013 37.4717 62.8173 37.119 62.664C36.7663 62.4953 36.3523 62.3113 35.877 62.112L33.945 61.284C33.393 61.0693 32.8717 60.7857 32.381 60.433C31.8903 60.065 31.4917 59.6203 31.185 59.099C30.8937 58.5623 30.748 57.926 30.748 57.19C30.748 56.362 30.978 55.6183 31.438 54.959C31.9133 54.2843 32.5573 53.7477 33.37 53.349C34.198 52.935 35.1563 52.728 36.245 52.728C37.1497 52.728 38.039 52.8967 38.913 53.234C39.787 53.5713 40.5613 54.062 41.236 54.706L39.511 56.845C38.9897 56.4617 38.4683 56.1703 37.947 55.971C37.4257 55.7563 36.797 55.649 36.061 55.649C35.509 55.649 35.0567 55.764 34.704 55.994C34.3513 56.224 34.175 56.5613 34.175 57.006C34.175 57.2973 34.2823 57.5427 34.497 57.742C34.7117 57.9413 35.003 58.1177 35.371 58.271C35.739 58.4243 36.1607 58.593 36.636 58.777L38.453 59.559C39.1277 59.8043 39.7027 60.111 40.178 60.479C40.6533 60.8317 41.0213 61.2687 41.282 61.79C41.5427 62.3113 41.673 62.9247 41.673 63.63C41.673 64.458 41.443 65.2247 40.983 65.93C40.5383 66.6353 39.879 67.2027 39.005 67.632C38.1463 68.0613 37.096 68.276 35.854 68.276ZM51.715 68.276C50.5037 68.276 49.5377 68.069 48.817 67.655C48.1117 67.2257 47.598 66.6353 47.276 65.884C46.954 65.1327 46.793 64.2587 46.793 63.262V59.237H43.941V56.73L46.954 56.592L47.391 53.096H50.174V56.592H55.004V59.237H50.174V63.239C50.174 63.8063 50.2583 64.2663 50.427 64.619C50.5957 64.9717 50.8563 65.2323 51.209 65.401C51.5617 65.5543 52.014 65.631 52.566 65.631C53.0107 65.631 53.417 65.5927 53.785 65.516C54.153 65.4393 54.5057 65.3397 54.843 65.217L55.441 67.655C54.935 67.8083 54.3753 67.9463 53.762 68.069C53.164 68.207 52.4817 68.276 51.715 68.276ZM64.172 68.276C62.9914 68.276 61.918 68.046 60.952 67.586C60.0014 67.1107 59.2424 66.4283 58.675 65.539C58.123 64.6343 57.847 63.5533 57.847 62.296C57.847 61.054 58.1307 59.9883 58.698 59.099C59.2654 58.1943 60.0014 57.5043 60.906 57.029C61.8107 56.5537 62.769 56.316 63.781 56.316C64.9617 56.316 65.9507 56.5613 66.748 57.052C67.5454 57.5273 68.1434 58.179 68.542 59.007C68.956 59.8197 69.163 60.7473 69.163 61.79C69.163 62.0967 69.14 62.3957 69.094 62.687C69.0634 62.963 69.0327 63.17 69.002 63.308H60.354V61.031H66.725L66.196 61.675C66.196 60.755 65.9967 60.065 65.598 59.605C65.2147 59.1297 64.6474 58.892 63.896 58.892C63.344 58.892 62.861 59.0147 62.447 59.26C62.033 59.5053 61.711 59.881 61.481 60.387C61.251 60.893 61.136 61.5293 61.136 62.296C61.136 63.078 61.274 63.722 61.55 64.228C61.826 64.7187 62.2247 65.0867 62.746 65.332C63.2674 65.5773 63.896 65.7 64.632 65.7C65.1534 65.7 65.644 65.631 66.104 65.493C66.5794 65.355 67.07 65.1557 67.576 64.895L68.703 66.942C68.0437 67.356 67.3154 67.6857 66.518 67.931C65.7207 68.161 64.9387 68.276 64.172 68.276ZM72.029 72.232V56.592H74.789L75.042 57.742H75.111C75.5864 57.328 76.1154 56.9907 76.698 56.73C77.296 56.454 77.9017 56.316 78.515 56.316C79.4657 56.316 80.2784 56.5537 80.953 57.029C81.643 57.5043 82.172 58.179 82.54 59.053C82.908 59.927 83.092 60.9467 83.092 62.112C83.092 63.4153 82.8544 64.527 82.379 65.447C81.919 66.367 81.3134 67.0723 80.562 67.563C79.8107 68.0383 79.0057 68.276 78.147 68.276C77.641 68.276 77.1427 68.1687 76.652 67.954C76.1767 67.7393 75.7397 67.4327 75.341 67.034H75.249L75.41 68.897V72.232H72.029ZM77.365 65.516C77.7944 65.516 78.1777 65.401 78.515 65.171C78.8524 64.941 79.1207 64.5807 79.32 64.09C79.5194 63.584 79.619 62.94 79.619 62.158C79.619 61.468 79.5424 60.9007 79.389 60.456C79.2357 59.996 79.0057 59.651 78.699 59.421C78.4077 59.191 78.0167 59.076 77.526 59.076C77.158 59.076 76.7977 59.1603 76.445 59.329C76.1077 59.4823 75.7627 59.7507 75.41 60.134V64.757C75.732 65.0177 76.0617 65.2093 76.399 65.332C76.7517 65.4547 77.0737 65.516 77.365 65.516ZM85.8201 72.232V56.592H88.5801L88.8331 57.742H88.9021C89.3774 57.328 89.9064 56.9907 90.4891 56.73C91.0871 56.454 91.6927 56.316 92.3061 56.316C93.2567 56.316 94.0694 56.5537 94.7441 57.029C95.4341 57.5043 95.9631 58.179 96.3311 59.053C96.6991 59.927 96.8831 60.9467 96.8831 62.112C96.8831 63.4153 96.6454 64.527 96.1701 65.447C95.7101 66.367 95.1044 67.0723 94.3531 67.563C93.6017 68.0383 92.7967 68.276 91.9381 68.276C91.4321 68.276 90.9337 68.1687 90.4431 67.954C89.9677 67.7393 89.5307 67.4327 89.1321 67.034H89.0401L89.2011 68.897V72.232H85.8201ZM91.1561 65.516C91.5854 65.516 91.9687 65.401 92.3061 65.171C92.6434 64.941 92.9117 64.5807 93.1111 64.09C93.3104 63.584 93.4101 62.94 93.4101 62.158C93.4101 61.468 93.3334 60.9007 93.1801 60.456C93.0267 59.996 92.7967 59.651 92.4901 59.421C92.1987 59.191 91.8077 59.076 91.3171 59.076C90.9491 59.076 90.5887 59.1603 90.2361 59.329C89.8987 59.4823 89.5537 59.7507 89.2011 60.134V64.757C89.5231 65.0177 89.8527 65.2093 90.1901 65.332C90.5427 65.4547 90.8647 65.516 91.1561 65.516ZM105.545 68.276C104.364 68.276 103.291 68.046 102.325 67.586C101.374 67.1107 100.615 66.4283 100.048 65.539C99.4961 64.6343 99.2201 63.5533 99.2201 62.296C99.2201 61.054 99.5037 59.9883 100.071 59.099C100.638 58.1943 101.374 57.5043 102.279 57.029C103.184 56.5537 104.142 56.316 105.154 56.316C106.335 56.316 107.324 56.5613 108.121 57.052C108.918 57.5273 109.516 58.179 109.915 59.007C110.329 59.8197 110.536 60.7473 110.536 61.79C110.536 62.0967 110.513 62.3957 110.467 62.687C110.436 62.963 110.406 63.17 110.375 63.308H101.727V61.031H108.098L107.569 61.675C107.569 60.755 107.37 60.065 106.971 59.605C106.588 59.1297 106.02 58.892 105.269 58.892C104.717 58.892 104.234 59.0147 103.82 59.26C103.406 59.5053 103.084 59.881 102.854 60.387C102.624 60.893 102.509 61.5293 102.509 62.296C102.509 63.078 102.647 63.722 102.923 64.228C103.199 64.7187 103.598 65.0867 104.119 65.332C104.64 65.5773 105.269 65.7 106.005 65.7C106.526 65.7 107.017 65.631 107.477 65.493C107.952 65.355 108.443 65.1557 108.949 64.895L110.076 66.942C109.417 67.356 108.688 67.6857 107.891 67.931C107.094 68.161 106.312 68.276 105.545 68.276ZM114.414 68V56.592H117.174L117.45 59.076H117.519C118.086 58.1407 118.769 57.4507 119.566 57.006C120.379 56.546 121.237 56.316 122.142 56.316C122.648 56.316 123.054 56.3543 123.361 56.431C123.683 56.5077 124.013 56.6227 124.35 56.776L123.66 59.605C123.307 59.4977 122.985 59.421 122.694 59.375C122.418 59.3137 122.065 59.283 121.636 59.283C120.931 59.283 120.233 59.49 119.543 59.904C118.868 60.318 118.286 61.0387 117.795 62.066V68H114.414ZM132.437 68.276C131.655 68.276 131.011 68.0153 130.505 67.494C130.014 66.9727 129.769 66.3363 129.769 65.585C129.769 64.8337 130.014 64.1973 130.505 63.676C131.011 63.1393 131.655 62.871 132.437 62.871C133.234 62.871 133.878 63.1393 134.369 63.676C134.86 64.1973 135.105 64.8337 135.105 65.585C135.105 66.3363 134.86 66.9727 134.369 67.494C133.878 68.0153 133.234 68.276 132.437 68.276ZM141.03 68V65.148H144.526V55.856H141.03V53.004H151.426V55.856H147.93V65.148H151.426V68H141.03ZM162.043 68.276C160.832 68.276 159.866 68.069 159.145 67.655C158.44 67.2257 157.926 66.6353 157.604 65.884C157.282 65.1327 157.121 64.2587 157.121 63.262V59.237H154.269V56.73L157.282 56.592L157.719 53.096H160.502V56.592H165.332V59.237H160.502V63.239C160.502 63.8063 160.586 64.2663 160.755 64.619C160.924 64.9717 161.184 65.2323 161.537 65.401C161.89 65.5543 162.342 65.631 162.894 65.631C163.339 65.631 163.745 65.5927 164.113 65.516C164.481 65.4393 164.834 65.3397 165.171 65.217L165.769 67.655C165.263 67.8083 164.703 67.9463 164.09 68.069C163.492 68.207 162.81 68.276 162.043 68.276ZM174.5 68.276C173.319 68.276 172.246 68.046 171.28 67.586C170.329 67.1107 169.57 66.4283 169.003 65.539C168.451 64.6343 168.175 63.5533 168.175 62.296C168.175 61.054 168.459 59.9883 169.026 59.099C169.593 58.1943 170.329 57.5043 171.234 57.029C172.139 56.5537 173.097 56.316 174.109 56.316C175.29 56.316 176.279 56.5613 177.076 57.052C177.873 57.5273 178.471 58.179 178.87 59.007C179.284 59.8197 179.491 60.7473 179.491 61.79C179.491 62.0967 179.468 62.3957 179.422 62.687C179.391 62.963 179.361 63.17 179.33 63.308H170.682V61.031H177.053L176.524 61.675C176.524 60.755 176.325 60.065 175.926 59.605C175.543 59.1297 174.975 58.892 174.224 58.892C173.672 58.892 173.189 59.0147 172.775 59.26C172.361 59.5053 172.039 59.881 171.809 60.387C171.579 60.893 171.464 61.5293 171.464 62.296C171.464 63.078 171.602 63.722 171.878 64.228C172.154 64.7187 172.553 65.0867 173.074 65.332C173.595 65.5773 174.224 65.7 174.96 65.7C175.481 65.7 175.972 65.631 176.432 65.493C176.907 65.355 177.398 65.1557 177.904 64.895L179.031 66.942C178.372 67.356 177.643 67.6857 176.846 67.931C176.049 68.161 175.267 68.276 174.5 68.276ZM181.506 68V56.592H184.059L184.289 57.995H184.381C184.596 57.535 184.895 57.144 185.278 56.822C185.662 56.4847 186.183 56.316 186.842 56.316C187.333 56.316 187.755 56.477 188.107 56.799C188.46 57.1057 188.698 57.5657 188.82 58.179C189.035 57.6577 189.342 57.2207 189.74 56.868C190.154 56.5 190.691 56.316 191.35 56.316C192.163 56.316 192.792 56.6457 193.236 57.305C193.681 57.9643 193.903 58.8613 193.903 59.996V68H190.683V60.226C190.683 59.536 190.476 59.191 190.062 59.191C189.848 59.191 189.656 59.283 189.487 59.467C189.334 59.6357 189.181 59.9117 189.027 60.295V68H186.382V60.226C186.382 59.8733 186.329 59.6127 186.221 59.444C186.114 59.2753 185.953 59.191 185.738 59.191C185.524 59.191 185.34 59.283 185.186 59.467C185.033 59.6357 184.88 59.9117 184.726 60.295V68H181.506ZM201.3 68.276C200.288 68.276 199.284 68.1073 198.287 67.77C197.291 67.4173 196.432 67.0033 195.711 66.528L197.16 64.412C197.85 64.8567 198.579 65.194 199.345 65.424C200.127 65.654 200.932 65.769 201.76 65.769C202.389 65.769 202.849 65.677 203.14 65.493C203.432 65.2937 203.577 65.0637 203.577 64.803C203.577 64.6343 203.531 64.4963 203.439 64.389C203.363 64.2663 203.217 64.159 203.002 64.067C202.803 63.9597 202.519 63.86 202.151 63.768C201.799 63.676 201.339 63.5687 200.771 63.446C199.223 63.1087 198.111 62.6487 197.436 62.066C196.762 61.4833 196.424 60.755 196.424 59.881C196.424 58.8077 196.892 57.949 197.827 57.305C198.763 56.6457 200.043 56.316 201.668 56.316C202.696 56.316 203.623 56.4847 204.451 56.822C205.295 57.144 206.015 57.4967 206.613 57.88L205.095 59.904C204.528 59.5513 203.922 59.283 203.278 59.099C202.634 58.915 201.998 58.823 201.369 58.823C201.017 58.823 200.725 58.8613 200.495 58.938C200.265 58.9993 200.089 59.1067 199.966 59.26C199.844 59.398 199.782 59.5513 199.782 59.72C199.782 60.0267 199.982 60.2567 200.38 60.41C200.779 60.548 201.461 60.7243 202.427 60.939C203.593 61.1997 204.505 61.4987 205.164 61.836C205.824 62.1733 206.276 62.5643 206.521 63.009C206.782 63.4383 206.912 63.9673 206.912 64.596C206.912 65.286 206.698 65.907 206.268 66.459C205.854 67.011 205.226 67.4557 204.382 67.793C203.554 68.115 202.527 68.276 201.3 68.276Z" fill="#00DA9A"/>
    <path d="M60.536 31.384C59.128 31.384 57.7307 31.128 56.344 30.616C54.9787 30.104 53.7307 29.3573 52.6 28.376L55.32 25.144C56.1093 25.784 56.9733 26.3067 57.912 26.712C58.872 27.1173 59.8533 27.32 60.856 27.32C61.8587 27.32 62.5947 27.1493 63.064 26.808C63.5547 26.4667 63.8 26.0293 63.8 25.496C63.8 25.0053 63.672 24.6213 63.416 24.344C63.16 24.0453 62.7867 23.7893 62.296 23.576C61.8053 23.3413 61.2293 23.0853 60.568 22.808L57.88 21.656C57.112 21.3573 56.3867 20.9627 55.704 20.472C55.0213 19.96 54.4667 19.3413 54.04 18.616C53.6347 17.8693 53.432 16.984 53.432 15.96C53.432 14.808 53.752 13.7733 54.392 12.856C55.0533 11.9173 55.9493 11.1707 57.08 10.616C58.232 10.04 59.5653 9.752 61.08 9.752C62.3387 9.752 63.576 9.98667 64.792 10.456C66.008 10.9253 67.0853 11.608 68.024 12.504L65.624 15.48C64.8987 14.9467 64.1733 14.5413 63.448 14.264C62.7227 13.9653 61.848 13.816 60.824 13.816C60.056 13.816 59.4267 13.976 58.936 14.296C58.4453 14.616 58.2 15.0853 58.2 15.704C58.2 16.1093 58.3493 16.4507 58.648 16.728C58.9467 17.0053 59.352 17.2507 59.864 17.464C60.376 17.6773 60.9627 17.912 61.624 18.168L64.152 19.256C65.0907 19.5973 65.8907 20.024 66.552 20.536C67.2133 21.0267 67.7253 21.6347 68.088 22.36C68.4507 23.0853 68.632 23.9387 68.632 24.92C68.632 26.072 68.312 27.1387 67.672 28.12C67.0533 29.1013 66.136 29.8907 64.92 30.488C63.7253 31.0853 62.264 31.384 60.536 31.384ZM82.6035 31.384C80.9182 31.384 79.5742 31.096 78.5715 30.52C77.5902 29.9227 76.8755 29.1013 76.4275 28.056C75.9795 27.0107 75.7555 25.7947 75.7555 24.408V18.808H71.7875V15.32L75.9795 15.128L76.5875 10.264H80.4595V15.128H87.1795V18.808H80.4595V24.376C80.4595 25.1653 80.5768 25.8053 80.8115 26.296C81.0462 26.7867 81.4088 27.1493 81.8995 27.384C82.3902 27.5973 83.0195 27.704 83.7875 27.704C84.4062 27.704 84.9715 27.6507 85.4835 27.544C85.9955 27.4373 86.4862 27.2987 86.9555 27.128L87.7875 30.52C87.0835 30.7333 86.3048 30.9253 85.4515 31.096C84.6195 31.288 83.6702 31.384 82.6035 31.384ZM99.935 31.384C98.2923 31.384 96.799 31.064 95.455 30.424C94.1323 29.7627 93.0763 28.8133 92.287 27.576C91.519 26.3173 91.135 24.8133 91.135 23.064C91.135 21.336 91.5297 19.8533 92.319 18.616C93.1083 17.3573 94.1323 16.3973 95.391 15.736C96.6497 15.0747 97.983 14.744 99.391 14.744C101.034 14.744 102.41 15.0853 103.519 15.768C104.628 16.4293 105.46 17.336 106.015 18.488C106.591 19.6187 106.879 20.9093 106.879 22.36C106.879 22.7867 106.847 23.2027 106.783 23.608C106.74 23.992 106.698 24.28 106.655 24.472H94.623V21.304H103.487L102.751 22.2C102.751 20.92 102.474 19.96 101.919 19.32C101.386 18.6587 100.596 18.328 99.551 18.328C98.783 18.328 98.111 18.4987 97.535 18.84C96.959 19.1813 96.511 19.704 96.191 20.408C95.871 21.112 95.711 21.9973 95.711 23.064C95.711 24.152 95.903 25.048 96.287 25.752C96.671 26.4347 97.2257 26.9467 97.951 27.288C98.6763 27.6293 99.551 27.8 100.575 27.8C101.3 27.8 101.983 27.704 102.623 27.512C103.284 27.32 103.967 27.0427 104.671 26.68L106.239 29.528C105.322 30.104 104.308 30.5627 103.199 30.904C102.09 31.224 101.002 31.384 99.935 31.384ZM110.867 36.888V15.128H114.707L115.059 16.728H115.155C115.816 16.152 116.552 15.6827 117.363 15.32C118.195 14.936 119.037 14.744 119.891 14.744C121.213 14.744 122.344 15.0747 123.283 15.736C124.242 16.3973 124.979 17.336 125.491 18.552C126.003 19.768 126.259 21.1867 126.259 22.808C126.259 24.6213 125.928 26.168 125.267 27.448C124.627 28.728 123.784 29.7093 122.739 30.392C121.693 31.0533 120.573 31.384 119.379 31.384C118.675 31.384 117.981 31.2347 117.299 30.936C116.637 30.6373 116.029 30.2107 115.475 29.656H115.347L115.571 32.248V36.888H110.867ZM118.291 27.544C118.888 27.544 119.421 27.384 119.891 27.064C120.36 26.744 120.733 26.2427 121.011 25.56C121.288 24.856 121.427 23.96 121.427 22.872C121.427 21.912 121.32 21.1227 121.107 20.504C120.893 19.864 120.573 19.384 120.147 19.064C119.741 18.744 119.197 18.584 118.515 18.584C118.003 18.584 117.501 18.7013 117.01 18.936C116.541 19.1493 116.061 19.5227 115.571 20.056V26.488C116.019 26.8507 116.477 27.1173 116.947 27.288C117.437 27.4587 117.885 27.544 118.291 27.544ZM130.054 36.888V15.128H133.894L134.246 16.728H134.342C135.003 16.152 135.739 15.6827 136.55 15.32C137.382 14.936 138.225 14.744 139.078 14.744C140.401 14.744 141.531 15.0747 142.47 15.736C143.43 16.3973 144.166 17.336 144.678 18.552C145.19 19.768 145.446 21.1867 145.446 22.808C145.446 24.6213 145.115 26.168 144.454 27.448C143.814 28.728 142.971 29.7093 141.926 30.392C140.881 31.0533 139.761 31.384 138.566 31.384C137.862 31.384 137.169 31.2347 136.486 30.936C135.825 30.6373 135.217 30.2107 134.662 29.656H134.534L134.758 32.248V36.888H130.054ZM137.478 27.544C138.075 27.544 138.609 27.384 139.078 27.064C139.547 26.744 139.921 26.2427 140.198 25.56C140.475 24.856 140.614 23.96 140.614 22.872C140.614 21.912 140.507 21.1227 140.294 20.504C140.081 19.864 139.761 19.384 139.334 19.064C138.929 18.744 138.385 18.584 137.702 18.584C137.19 18.584 136.689 18.7013 136.198 18.936C135.729 19.1493 135.249 19.5227 134.758 20.056V26.488C135.206 26.8507 135.665 27.1173 136.134 27.288C136.625 27.4587 137.073 27.544 137.478 27.544ZM157.498 31.384C155.855 31.384 154.362 31.064 153.018 30.424C151.695 29.7627 150.639 28.8133 149.85 27.576C149.082 26.3173 148.698 24.8133 148.698 23.064C148.698 21.336 149.092 19.8533 149.882 18.616C150.671 17.3573 151.695 16.3973 152.954 15.736C154.212 15.0747 155.546 14.744 156.954 14.744C158.596 14.744 159.972 15.0853 161.082 15.768C162.191 16.4293 163.023 17.336 163.578 18.488C164.154 19.6187 164.442 20.9093 164.442 22.36C164.442 22.7867 164.41 23.2027 164.346 23.608C164.303 23.992 164.26 24.28 164.218 24.472H152.186V21.304H161.05L160.314 22.2C160.314 20.92 160.036 19.96 159.482 19.32C158.948 18.6587 158.159 18.328 157.114 18.328C156.346 18.328 155.674 18.4987 155.098 18.84C154.522 19.1813 154.074 19.704 153.754 20.408C153.434 21.112 153.274 21.9973 153.274 23.064C153.274 24.152 153.466 25.048 153.85 25.752C154.234 26.4347 154.788 26.9467 155.514 27.288C156.239 27.6293 157.114 27.8 158.138 27.8C158.863 27.8 159.546 27.704 160.186 27.512C160.847 27.32 161.53 27.0427 162.234 26.68L163.802 29.528C162.884 30.104 161.871 30.5627 160.762 30.904C159.652 31.224 158.564 31.384 157.498 31.384ZM169.837 31V15.128H173.677L174.061 18.584H174.157C174.946 17.2827 175.896 16.3227 177.005 15.704C178.136 15.064 179.33 14.744 180.589 14.744C181.293 14.744 181.858 14.7973 182.285 14.904C182.733 15.0107 183.192 15.1707 183.661 15.384L182.701 19.32C182.21 19.1707 181.762 19.064 181.357 19C180.973 18.9147 180.482 18.872 179.885 18.872C178.904 18.872 177.933 19.16 176.973 19.736C176.034 20.312 175.224 21.3147 174.541 22.744V31H169.837Z" fill="#009F71"/>
</svg>