<svg width="100%" height="100%" viewBox="0 0 230 71" fill="none"
    xmlns="http://www.w3.org/2000/svg">
    <path d="M15 68L3 54.7413L9 48.3706L15 42" stroke="#666666" stroke-width="5" stroke-linecap="round" stroke-linejoin="round"/>
    <path d="M215 42L227 55.2587L221 61.6294L215 68" stroke="#666666" stroke-width="5" stroke-linecap="round" stroke-linejoin="round"/>
    <path d="M35.854 63.276C34.842 63.276 33.8377 63.092 32.841 62.724C31.8597 62.356 30.9627 61.8193 30.15 61.114L32.105 58.791C32.6723 59.251 33.2933 59.6267 33.968 59.918C34.658 60.2093 35.3633 60.355 36.084 60.355C36.8047 60.355 37.3337 60.2323 37.671 59.987C38.0237 59.7417 38.2 59.4273 38.2 59.044C38.2 58.6913 38.108 58.4153 37.924 58.216C37.74 58.0013 37.4717 57.8173 37.119 57.664C36.7663 57.4953 36.3523 57.3113 35.877 57.112L33.945 56.284C33.393 56.0693 32.8717 55.7857 32.381 55.433C31.8903 55.065 31.4917 54.6203 31.185 54.099C30.8937 53.5623 30.748 52.926 30.748 52.19C30.748 51.362 30.978 50.6183 31.438 49.959C31.9133 49.2843 32.5573 48.7477 33.37 48.349C34.198 47.935 35.1563 47.728 36.245 47.728C37.1497 47.728 38.039 47.8967 38.913 48.234C39.787 48.5713 40.5613 49.062 41.236 49.706L39.511 51.845C38.9897 51.4617 38.4683 51.1703 37.947 50.971C37.4257 50.7563 36.797 50.649 36.061 50.649C35.509 50.649 35.0567 50.764 34.704 50.994C34.3513 51.224 34.175 51.5613 34.175 52.006C34.175 52.2973 34.2823 52.5427 34.497 52.742C34.7117 52.9413 35.003 53.1177 35.371 53.271C35.739 53.4243 36.1607 53.593 36.636 53.777L38.453 54.559C39.1277 54.8043 39.7027 55.111 40.178 55.479C40.6533 55.8317 41.0213 56.2687 41.282 56.79C41.5427 57.3113 41.673 57.9247 41.673 58.63C41.673 59.458 41.443 60.2247 40.983 60.93C40.5383 61.6353 39.879 62.2027 39.005 62.632C38.1463 63.0613 37.096 63.276 35.854 63.276ZM51.715 63.276C50.5037 63.276 49.5377 63.069 48.817 62.655C48.1117 62.2257 47.598 61.6353 47.276 60.884C46.954 60.1327 46.793 59.2587 46.793 58.262V54.237H43.941V51.73L46.954 51.592L47.391 48.096H50.174V51.592H55.004V54.237H50.174V58.239C50.174 58.8063 50.2583 59.2663 50.427 59.619C50.5957 59.9717 50.8563 60.2323 51.209 60.401C51.5617 60.5543 52.014 60.631 52.566 60.631C53.0107 60.631 53.417 60.5927 53.785 60.516C54.153 60.4393 54.5057 60.3397 54.843 60.217L55.441 62.655C54.935 62.8083 54.3753 62.9463 53.762 63.069C53.164 63.207 52.4817 63.276 51.715 63.276ZM64.172 63.276C62.9914 63.276 61.918 63.046 60.952 62.586C60.0014 62.1107 59.2424 61.4283 58.675 60.539C58.123 59.6343 57.847 58.5533 57.847 57.296C57.847 56.054 58.1307 54.9883 58.698 54.099C59.2654 53.1943 60.0014 52.5043 60.906 52.029C61.8107 51.5537 62.769 51.316 63.781 51.316C64.9617 51.316 65.9507 51.5613 66.748 52.052C67.5454 52.5273 68.1434 53.179 68.542 54.007C68.956 54.8197 69.163 55.7473 69.163 56.79C69.163 57.0967 69.14 57.3957 69.094 57.687C69.0634 57.963 69.0327 58.17 69.002 58.308H60.354V56.031H66.725L66.196 56.675C66.196 55.755 65.9967 55.065 65.598 54.605C65.2147 54.1297 64.6474 53.892 63.896 53.892C63.344 53.892 62.861 54.0147 62.447 54.26C62.033 54.5053 61.711 54.881 61.481 55.387C61.251 55.893 61.136 56.5293 61.136 57.296C61.136 58.078 61.274 58.722 61.55 59.228C61.826 59.7187 62.2247 60.0867 62.746 60.332C63.2674 60.5773 63.896 60.7 64.632 60.7C65.1534 60.7 65.644 60.631 66.104 60.493C66.5794 60.355 67.07 60.1557 67.576 59.895L68.703 61.942C68.0437 62.356 67.3154 62.6857 66.518 62.931C65.7207 63.161 64.9387 63.276 64.172 63.276ZM72.029 67.232V51.592H74.789L75.042 52.742H75.111C75.5864 52.328 76.1154 51.9907 76.698 51.73C77.296 51.454 77.9017 51.316 78.515 51.316C79.4657 51.316 80.2784 51.5537 80.953 52.029C81.643 52.5043 82.172 53.179 82.54 54.053C82.908 54.927 83.092 55.9467 83.092 57.112C83.092 58.4153 82.8544 59.527 82.379 60.447C81.919 61.367 81.3134 62.0723 80.562 62.563C79.8107 63.0383 79.0057 63.276 78.147 63.276C77.641 63.276 77.1427 63.1687 76.652 62.954C76.1767 62.7393 75.7397 62.4327 75.341 62.034H75.249L75.41 63.897V67.232H72.029ZM77.365 60.516C77.7944 60.516 78.1777 60.401 78.515 60.171C78.8524 59.941 79.1207 59.5807 79.32 59.09C79.5194 58.584 79.619 57.94 79.619 57.158C79.619 56.468 79.5424 55.9007 79.389 55.456C79.2357 54.996 79.0057 54.651 78.699 54.421C78.4077 54.191 78.0167 54.076 77.526 54.076C77.158 54.076 76.7977 54.1603 76.445 54.329C76.1077 54.4823 75.7627 54.7507 75.41 55.134V59.757C75.732 60.0177 76.0617 60.2093 76.399 60.332C76.7517 60.4547 77.0737 60.516 77.365 60.516ZM85.8201 67.232V51.592H88.5801L88.8331 52.742H88.9021C89.3774 52.328 89.9064 51.9907 90.4891 51.73C91.0871 51.454 91.6927 51.316 92.3061 51.316C93.2567 51.316 94.0694 51.5537 94.7441 52.029C95.4341 52.5043 95.9631 53.179 96.3311 54.053C96.6991 54.927 96.8831 55.9467 96.8831 57.112C96.8831 58.4153 96.6454 59.527 96.1701 60.447C95.7101 61.367 95.1044 62.0723 94.3531 62.563C93.6017 63.0383 92.7967 63.276 91.9381 63.276C91.4321 63.276 90.9337 63.1687 90.4431 62.954C89.9677 62.7393 89.5307 62.4327 89.1321 62.034H89.0401L89.2011 63.897V67.232H85.8201ZM91.1561 60.516C91.5854 60.516 91.9687 60.401 92.3061 60.171C92.6434 59.941 92.9117 59.5807 93.1111 59.09C93.3104 58.584 93.4101 57.94 93.4101 57.158C93.4101 56.468 93.3334 55.9007 93.1801 55.456C93.0267 54.996 92.7967 54.651 92.4901 54.421C92.1987 54.191 91.8077 54.076 91.3171 54.076C90.9491 54.076 90.5887 54.1603 90.2361 54.329C89.8987 54.4823 89.5537 54.7507 89.2011 55.134V59.757C89.5231 60.0177 89.8527 60.2093 90.1901 60.332C90.5427 60.4547 90.8647 60.516 91.1561 60.516ZM105.545 63.276C104.364 63.276 103.291 63.046 102.325 62.586C101.374 62.1107 100.615 61.4283 100.048 60.539C99.4961 59.6343 99.2201 58.5533 99.2201 57.296C99.2201 56.054 99.5037 54.9883 100.071 54.099C100.638 53.1943 101.374 52.5043 102.279 52.029C103.184 51.5537 104.142 51.316 105.154 51.316C106.335 51.316 107.324 51.5613 108.121 52.052C108.918 52.5273 109.516 53.179 109.915 54.007C110.329 54.8197 110.536 55.7473 110.536 56.79C110.536 57.0967 110.513 57.3957 110.467 57.687C110.436 57.963 110.406 58.17 110.375 58.308H101.727V56.031H108.098L107.569 56.675C107.569 55.755 107.37 55.065 106.971 54.605C106.588 54.1297 106.02 53.892 105.269 53.892C104.717 53.892 104.234 54.0147 103.82 54.26C103.406 54.5053 103.084 54.881 102.854 55.387C102.624 55.893 102.509 56.5293 102.509 57.296C102.509 58.078 102.647 58.722 102.923 59.228C103.199 59.7187 103.598 60.0867 104.119 60.332C104.64 60.5773 105.269 60.7 106.005 60.7C106.526 60.7 107.017 60.631 107.477 60.493C107.952 60.355 108.443 60.1557 108.949 59.895L110.076 61.942C109.417 62.356 108.688 62.6857 107.891 62.931C107.094 63.161 106.312 63.276 105.545 63.276ZM114.414 63V51.592H117.174L117.45 54.076H117.519C118.086 53.1407 118.769 52.4507 119.566 52.006C120.379 51.546 121.237 51.316 122.142 51.316C122.648 51.316 123.054 51.3543 123.361 51.431C123.683 51.5077 124.013 51.6227 124.35 51.776L123.66 54.605C123.307 54.4977 122.985 54.421 122.694 54.375C122.418 54.3137 122.065 54.283 121.636 54.283C120.931 54.283 120.233 54.49 119.543 54.904C118.868 55.318 118.286 56.0387 117.795 57.066V63H114.414ZM132.437 63.276C131.655 63.276 131.011 63.0153 130.505 62.494C130.014 61.9727 129.769 61.3363 129.769 60.585C129.769 59.8337 130.014 59.1973 130.505 58.676C131.011 58.1393 131.655 57.871 132.437 57.871C133.234 57.871 133.878 58.1393 134.369 58.676C134.86 59.1973 135.105 59.8337 135.105 60.585C135.105 61.3363 134.86 61.9727 134.369 62.494C133.878 63.0153 133.234 63.276 132.437 63.276ZM141.03 63V60.148H144.526V50.856H141.03V48.004H151.426V50.856H147.93V60.148H151.426V63H141.03ZM162.043 63.276C160.832 63.276 159.866 63.069 159.145 62.655C158.44 62.2257 157.926 61.6353 157.604 60.884C157.282 60.1327 157.121 59.2587 157.121 58.262V54.237H154.269V51.73L157.282 51.592L157.719 48.096H160.502V51.592H165.332V54.237H160.502V58.239C160.502 58.8063 160.586 59.2663 160.755 59.619C160.924 59.9717 161.184 60.2323 161.537 60.401C161.89 60.5543 162.342 60.631 162.894 60.631C163.339 60.631 163.745 60.5927 164.113 60.516C164.481 60.4393 164.834 60.3397 165.171 60.217L165.769 62.655C165.263 62.8083 164.703 62.9463 164.09 63.069C163.492 63.207 162.81 63.276 162.043 63.276ZM174.5 63.276C173.319 63.276 172.246 63.046 171.28 62.586C170.329 62.1107 169.57 61.4283 169.003 60.539C168.451 59.6343 168.175 58.5533 168.175 57.296C168.175 56.054 168.459 54.9883 169.026 54.099C169.593 53.1943 170.329 52.5043 171.234 52.029C172.139 51.5537 173.097 51.316 174.109 51.316C175.29 51.316 176.279 51.5613 177.076 52.052C177.873 52.5273 178.471 53.179 178.87 54.007C179.284 54.8197 179.491 55.7473 179.491 56.79C179.491 57.0967 179.468 57.3957 179.422 57.687C179.391 57.963 179.361 58.17 179.33 58.308H170.682V56.031H177.053L176.524 56.675C176.524 55.755 176.325 55.065 175.926 54.605C175.543 54.1297 174.975 53.892 174.224 53.892C173.672 53.892 173.189 54.0147 172.775 54.26C172.361 54.5053 172.039 54.881 171.809 55.387C171.579 55.893 171.464 56.5293 171.464 57.296C171.464 58.078 171.602 58.722 171.878 59.228C172.154 59.7187 172.553 60.0867 173.074 60.332C173.595 60.5773 174.224 60.7 174.96 60.7C175.481 60.7 175.972 60.631 176.432 60.493C176.907 60.355 177.398 60.1557 177.904 59.895L179.031 61.942C178.372 62.356 177.643 62.6857 176.846 62.931C176.049 63.161 175.267 63.276 174.5 63.276ZM181.506 63V51.592H184.059L184.289 52.995H184.381C184.596 52.535 184.895 52.144 185.278 51.822C185.662 51.4847 186.183 51.316 186.842 51.316C187.333 51.316 187.755 51.477 188.107 51.799C188.46 52.1057 188.698 52.5657 188.82 53.179C189.035 52.6577 189.342 52.2207 189.74 51.868C190.154 51.5 190.691 51.316 191.35 51.316C192.163 51.316 192.792 51.6457 193.236 52.305C193.681 52.9643 193.903 53.8613 193.903 54.996V63H190.683V55.226C190.683 54.536 190.476 54.191 190.062 54.191C189.848 54.191 189.656 54.283 189.487 54.467C189.334 54.6357 189.181 54.9117 189.027 55.295V63H186.382V55.226C186.382 54.8733 186.329 54.6127 186.221 54.444C186.114 54.2753 185.953 54.191 185.738 54.191C185.524 54.191 185.34 54.283 185.186 54.467C185.033 54.6357 184.88 54.9117 184.726 55.295V63H181.506ZM201.3 63.276C200.288 63.276 199.284 63.1073 198.287 62.77C197.291 62.4173 196.432 62.0033 195.711 61.528L197.16 59.412C197.85 59.8567 198.579 60.194 199.345 60.424C200.127 60.654 200.932 60.769 201.76 60.769C202.389 60.769 202.849 60.677 203.14 60.493C203.432 60.2937 203.577 60.0637 203.577 59.803C203.577 59.6343 203.531 59.4963 203.439 59.389C203.363 59.2663 203.217 59.159 203.002 59.067C202.803 58.9597 202.519 58.86 202.151 58.768C201.799 58.676 201.339 58.5687 200.771 58.446C199.223 58.1087 198.111 57.6487 197.436 57.066C196.762 56.4833 196.424 55.755 196.424 54.881C196.424 53.8077 196.892 52.949 197.827 52.305C198.763 51.6457 200.043 51.316 201.668 51.316C202.696 51.316 203.623 51.4847 204.451 51.822C205.295 52.144 206.015 52.4967 206.613 52.88L205.095 54.904C204.528 54.5513 203.922 54.283 203.278 54.099C202.634 53.915 201.998 53.823 201.369 53.823C201.017 53.823 200.725 53.8613 200.495 53.938C200.265 53.9993 200.089 54.1067 199.966 54.26C199.844 54.398 199.782 54.5513 199.782 54.72C199.782 55.0267 199.982 55.2567 200.38 55.41C200.779 55.548 201.461 55.7243 202.427 55.939C203.593 56.1997 204.505 56.4987 205.164 56.836C205.824 57.1733 206.276 57.5643 206.521 58.009C206.782 58.4383 206.912 58.9673 206.912 59.596C206.912 60.286 206.698 60.907 206.268 61.459C205.854 62.011 205.226 62.4557 204.382 62.793C203.554 63.115 202.527 63.276 201.3 63.276Z" fill="#009F71"/>
    <path d="M61.536 31.384C60.128 31.384 58.7307 31.128 57.344 30.616C55.9787 30.104 54.7307 29.3573 53.6 28.376L56.32 25.144C57.1093 25.784 57.9733 26.3067 58.912 26.712C59.872 27.1173 60.8533 27.32 61.856 27.32C62.8587 27.32 63.5947 27.1493 64.064 26.808C64.5547 26.4667 64.8 26.0293 64.8 25.496C64.8 25.0053 64.672 24.6213 64.416 24.344C64.16 24.0453 63.7867 23.7893 63.296 23.576C62.8053 23.3413 62.2293 23.0853 61.568 22.808L58.88 21.656C58.112 21.3573 57.3867 20.9627 56.704 20.472C56.0213 19.96 55.4667 19.3413 55.04 18.616C54.6347 17.8693 54.432 16.984 54.432 15.96C54.432 14.808 54.752 13.7733 55.392 12.856C56.0533 11.9173 56.9493 11.1707 58.08 10.616C59.232 10.04 60.5653 9.752 62.08 9.752C63.3387 9.752 64.576 9.98667 65.792 10.456C67.008 10.9253 68.0853 11.608 69.024 12.504L66.624 15.48C65.8987 14.9467 65.1733 14.5413 64.448 14.264C63.7227 13.9653 62.848 13.816 61.824 13.816C61.056 13.816 60.4267 13.976 59.936 14.296C59.4453 14.616 59.2 15.0853 59.2 15.704C59.2 16.1093 59.3493 16.4507 59.648 16.728C59.9467 17.0053 60.352 17.2507 60.864 17.464C61.376 17.6773 61.9627 17.912 62.624 18.168L65.152 19.256C66.0907 19.5973 66.8907 20.024 67.552 20.536C68.2133 21.0267 68.7253 21.6347 69.088 22.36C69.4507 23.0853 69.632 23.9387 69.632 24.92C69.632 26.072 69.312 27.1387 68.672 28.12C68.0533 29.1013 67.136 29.8907 65.92 30.488C64.7253 31.0853 63.264 31.384 61.536 31.384ZM83.6035 31.384C81.9182 31.384 80.5742 31.096 79.5715 30.52C78.5902 29.9227 77.8755 29.1013 77.4275 28.056C76.9795 27.0107 76.7555 25.7947 76.7555 24.408V18.808H72.7875V15.32L76.9795 15.128L77.5875 10.264H81.4595V15.128H88.1795V18.808H81.4595V24.376C81.4595 25.1653 81.5768 25.8053 81.8115 26.296C82.0462 26.7867 82.4088 27.1493 82.8995 27.384C83.3902 27.5973 84.0195 27.704 84.7875 27.704C85.4062 27.704 85.9715 27.6507 86.4835 27.544C86.9955 27.4373 87.4862 27.2987 87.9555 27.128L88.7875 30.52C88.0835 30.7333 87.3048 30.9253 86.4515 31.096C85.6195 31.288 84.6702 31.384 83.6035 31.384ZM100.935 31.384C99.2923 31.384 97.799 31.064 96.455 30.424C95.1323 29.7627 94.0763 28.8133 93.287 27.576C92.519 26.3173 92.135 24.8133 92.135 23.064C92.135 21.336 92.5297 19.8533 93.319 18.616C94.1083 17.3573 95.1323 16.3973 96.391 15.736C97.6497 15.0747 98.983 14.744 100.391 14.744C102.034 14.744 103.41 15.0853 104.519 15.768C105.628 16.4293 106.46 17.336 107.015 18.488C107.591 19.6187 107.879 20.9093 107.879 22.36C107.879 22.7867 107.847 23.2027 107.783 23.608C107.74 23.992 107.698 24.28 107.655 24.472H95.623V21.304H104.487L103.751 22.2C103.751 20.92 103.474 19.96 102.919 19.32C102.386 18.6587 101.596 18.328 100.551 18.328C99.783 18.328 99.111 18.4987 98.535 18.84C97.959 19.1813 97.511 19.704 97.191 20.408C96.871 21.112 96.711 21.9973 96.711 23.064C96.711 24.152 96.903 25.048 97.287 25.752C97.671 26.4347 98.2257 26.9467 98.951 27.288C99.6763 27.6293 100.551 27.8 101.575 27.8C102.3 27.8 102.983 27.704 103.623 27.512C104.284 27.32 104.967 27.0427 105.671 26.68L107.239 29.528C106.322 30.104 105.308 30.5627 104.199 30.904C103.09 31.224 102.002 31.384 100.935 31.384ZM111.867 36.888V15.128H115.707L116.059 16.728H116.155C116.816 16.152 117.552 15.6827 118.363 15.32C119.195 14.936 120.037 14.744 120.891 14.744C122.213 14.744 123.344 15.0747 124.283 15.736C125.242 16.3973 125.979 17.336 126.491 18.552C127.003 19.768 127.259 21.1867 127.259 22.808C127.259 24.6213 126.928 26.168 126.267 27.448C125.627 28.728 124.784 29.7093 123.739 30.392C122.693 31.0533 121.573 31.384 120.379 31.384C119.675 31.384 118.981 31.2347 118.299 30.936C117.637 30.6373 117.029 30.2107 116.475 29.656H116.347L116.571 32.248V36.888H111.867ZM119.291 27.544C119.888 27.544 120.421 27.384 120.891 27.064C121.36 26.744 121.733 26.2427 122.011 25.56C122.288 24.856 122.427 23.96 122.427 22.872C122.427 21.912 122.32 21.1227 122.107 20.504C121.893 19.864 121.573 19.384 121.147 19.064C120.741 18.744 120.197 18.584 119.515 18.584C119.003 18.584 118.501 18.7013 118.01 18.936C117.541 19.1493 117.061 19.5227 116.571 20.056V26.488C117.019 26.8507 117.477 27.1173 117.947 27.288C118.437 27.4587 118.885 27.544 119.291 27.544ZM131.054 36.888V15.128H134.894L135.246 16.728H135.342C136.003 16.152 136.739 15.6827 137.55 15.32C138.382 14.936 139.225 14.744 140.078 14.744C141.401 14.744 142.531 15.0747 143.47 15.736C144.43 16.3973 145.166 17.336 145.678 18.552C146.19 19.768 146.446 21.1867 146.446 22.808C146.446 24.6213 146.115 26.168 145.454 27.448C144.814 28.728 143.971 29.7093 142.926 30.392C141.881 31.0533 140.761 31.384 139.566 31.384C138.862 31.384 138.169 31.2347 137.486 30.936C136.825 30.6373 136.217 30.2107 135.662 29.656H135.534L135.758 32.248V36.888H131.054ZM138.478 27.544C139.075 27.544 139.609 27.384 140.078 27.064C140.547 26.744 140.921 26.2427 141.198 25.56C141.475 24.856 141.614 23.96 141.614 22.872C141.614 21.912 141.507 21.1227 141.294 20.504C141.081 19.864 140.761 19.384 140.334 19.064C139.929 18.744 139.385 18.584 138.702 18.584C138.19 18.584 137.689 18.7013 137.198 18.936C136.729 19.1493 136.249 19.5227 135.758 20.056V26.488C136.206 26.8507 136.665 27.1173 137.134 27.288C137.625 27.4587 138.073 27.544 138.478 27.544ZM158.498 31.384C156.855 31.384 155.362 31.064 154.018 30.424C152.695 29.7627 151.639 28.8133 150.85 27.576C150.082 26.3173 149.698 24.8133 149.698 23.064C149.698 21.336 150.092 19.8533 150.882 18.616C151.671 17.3573 152.695 16.3973 153.954 15.736C155.212 15.0747 156.546 14.744 157.954 14.744C159.596 14.744 160.972 15.0853 162.082 15.768C163.191 16.4293 164.023 17.336 164.578 18.488C165.154 19.6187 165.442 20.9093 165.442 22.36C165.442 22.7867 165.41 23.2027 165.346 23.608C165.303 23.992 165.26 24.28 165.218 24.472H153.186V21.304H162.05L161.314 22.2C161.314 20.92 161.036 19.96 160.482 19.32C159.948 18.6587 159.159 18.328 158.114 18.328C157.346 18.328 156.674 18.4987 156.098 18.84C155.522 19.1813 155.074 19.704 154.754 20.408C154.434 21.112 154.274 21.9973 154.274 23.064C154.274 24.152 154.466 25.048 154.85 25.752C155.234 26.4347 155.788 26.9467 156.514 27.288C157.239 27.6293 158.114 27.8 159.138 27.8C159.863 27.8 160.546 27.704 161.186 27.512C161.847 27.32 162.53 27.0427 163.234 26.68L164.802 29.528C163.884 30.104 162.871 30.5627 161.762 30.904C160.652 31.224 159.564 31.384 158.498 31.384ZM170.837 31V15.128H174.677L175.061 18.584H175.157C175.946 17.2827 176.896 16.3227 178.005 15.704C179.136 15.064 180.33 14.744 181.589 14.744C182.293 14.744 182.858 14.7973 183.285 14.904C183.733 15.0107 184.192 15.1707 184.661 15.384L183.701 19.32C183.21 19.1707 182.762 19.064 182.357 19C181.973 18.9147 181.482 18.872 180.885 18.872C179.904 18.872 178.933 19.16 177.973 19.736C177.034 20.312 176.224 21.3147 175.541 22.744V31H170.837Z" fill="#00DA9A"/>
</svg>