<svg width="100%" height="100%" viewBox="0 0 254 90" fill="none"
    xmlns="http://www.w3.org/2000/svg">
    <path d="M39.232 31V14.104H32.992V10.136H50.208V14.104H43.968V31H39.232ZM61.7475 31.384C60.1048 31.384 58.6115 31.064 57.2675 30.424C55.9448 29.7627 54.8888 28.8133 54.0995 27.576C53.3315 26.3173 52.9475 24.8133 52.9475 23.064C52.9475 21.336 53.3422 19.8533 54.1315 18.616C54.9208 17.3573 55.9448 16.3973 57.2035 15.736C58.4622 15.0747 59.7955 14.744 61.2035 14.744C62.8462 14.744 64.2222 15.0853 65.3315 15.768C66.4408 16.4293 67.2728 17.336 67.8275 18.488C68.4035 19.6187 68.6915 20.9093 68.6915 22.36C68.6915 22.7867 68.6595 23.2027 68.5955 23.608C68.5528 23.992 68.5102 24.28 68.4675 24.472H56.4355V21.304H65.2995L64.5635 22.2C64.5635 20.92 64.2862 19.96 63.7315 19.32C63.1982 18.6587 62.4088 18.328 61.3635 18.328C60.5955 18.328 59.9235 18.4987 59.3475 18.84C58.7715 19.1813 58.3235 19.704 58.0035 20.408C57.6835 21.112 57.5235 21.9973 57.5235 23.064C57.5235 24.152 57.7155 25.048 58.0995 25.752C58.4835 26.4347 59.0382 26.9467 59.7635 27.288C60.4888 27.6293 61.3635 27.8 62.3875 27.8C63.1128 27.8 63.7955 27.704 64.4355 27.512C65.0968 27.32 65.7795 27.0427 66.4835 26.68L68.0515 29.528C67.1342 30.104 66.1208 30.5627 65.0115 30.904C63.9022 31.224 62.8142 31.384 61.7475 31.384ZM71.559 31L77.063 22.744L71.911 15.128H76.967L78.599 17.688C78.855 18.136 79.1323 18.5947 79.431 19.064C79.7297 19.512 80.007 19.96 80.263 20.408H80.391C80.583 19.96 80.7963 19.5013 81.031 19.032C81.287 18.5627 81.511 18.1147 81.703 17.688L83.111 15.128H88.039L82.855 23.288L88.359 31H83.303L81.479 28.376C81.1803 27.928 80.871 27.4693 80.551 27C80.2523 26.5307 79.9537 26.072 79.655 25.624H79.527C79.2923 26.072 79.047 26.5307 78.791 27C78.535 27.448 78.2897 27.9067 78.055 28.376L76.487 31H71.559ZM101.979 31.384C100.293 31.384 98.9492 31.096 97.9465 30.52C96.9652 29.9227 96.2505 29.1013 95.8025 28.056C95.3545 27.0107 95.1305 25.7947 95.1305 24.408V18.808H91.1625V15.32L95.3545 15.128L95.9625 10.264H99.8345V15.128H106.555V18.808H99.8345V24.376C99.8345 25.1653 99.9518 25.8053 100.187 26.296C100.421 26.7867 100.784 27.1493 101.275 27.384C101.765 27.5973 102.395 27.704 103.163 27.704C103.781 27.704 104.347 27.6507 104.859 27.544C105.371 27.4373 105.861 27.2987 106.331 27.128L107.163 30.52C106.459 30.7333 105.68 30.9253 104.827 31.096C103.995 31.288 103.045 31.384 101.979 31.384ZM118.286 31.384C116.878 31.384 115.481 31.128 114.094 30.616C112.729 30.104 111.481 29.3573 110.35 28.376L113.07 25.144C113.859 25.784 114.723 26.3067 115.662 26.712C116.622 27.1173 117.603 27.32 118.606 27.32C119.609 27.32 120.345 27.1493 120.814 26.808C121.305 26.4667 121.55 26.0293 121.55 25.496C121.55 25.0053 121.422 24.6213 121.166 24.344C120.91 24.0453 120.537 23.7893 120.046 23.576C119.555 23.3413 118.979 23.0853 118.318 22.808L115.63 21.656C114.862 21.3573 114.137 20.9627 113.454 20.472C112.771 19.96 112.217 19.3413 111.79 18.616C111.385 17.8693 111.182 16.984 111.182 15.96C111.182 14.808 111.502 13.7733 112.142 12.856C112.803 11.9173 113.699 11.1707 114.83 10.616C115.982 10.04 117.315 9.752 118.83 9.752C120.089 9.752 121.326 9.98667 122.542 10.456C123.758 10.9253 124.835 11.608 125.774 12.504L123.374 15.48C122.649 14.9467 121.923 14.5413 121.198 14.264C120.473 13.9653 119.598 13.816 118.574 13.816C117.806 13.816 117.177 13.976 116.686 14.296C116.195 14.616 115.95 15.0853 115.95 15.704C115.95 16.1093 116.099 16.4507 116.398 16.728C116.697 17.0053 117.102 17.2507 117.614 17.464C118.126 17.6773 118.713 17.912 119.374 18.168L121.902 19.256C122.841 19.5973 123.641 20.024 124.302 20.536C124.963 21.0267 125.475 21.6347 125.838 22.36C126.201 23.0853 126.382 23.9387 126.382 24.92C126.382 26.072 126.062 27.1387 125.422 28.12C124.803 29.1013 123.886 29.8907 122.67 30.488C121.475 31.0853 120.014 31.384 118.286 31.384ZM140.578 31.384C138.594 31.384 137.09 30.7867 136.066 29.592C135.042 28.3973 134.53 26.7973 134.53 24.792V12.28H129.57V8.6H139.234V24.984C139.234 25.9653 139.5 26.648 140.034 27.032C140.567 27.3947 141.154 27.576 141.794 27.576C142.178 27.576 142.562 27.5333 142.946 27.448C143.351 27.3627 143.799 27.2347 144.29 27.064L145.314 30.52C144.503 30.776 143.756 30.9787 143.074 31.128C142.412 31.2987 141.58 31.384 140.578 31.384ZM156.021 31V18.808H149.621V15.128H160.725V31H156.021ZM158.165 12.632C157.269 12.632 156.522 12.376 155.925 11.864C155.328 11.3307 155.029 10.6373 155.029 9.784C155.029 8.90933 155.328 8.20533 155.925 7.672C156.522 7.11733 157.269 6.84 158.165 6.84C159.082 6.84 159.829 7.11733 160.405 7.672C161.002 8.20533 161.301 8.90933 161.301 9.784C161.301 10.6373 161.002 11.3307 160.405 11.864C159.829 12.376 159.082 12.632 158.165 12.632ZM174.505 31.384C172.499 31.384 170.878 30.648 169.641 29.176C168.425 27.6827 167.817 25.6453 167.817 23.064C167.817 21.336 168.137 19.8533 168.777 18.616C169.438 17.3787 170.291 16.4293 171.337 15.768C172.382 15.0853 173.47 14.744 174.601 14.744C175.475 14.744 176.233 14.8933 176.873 15.192C177.513 15.4907 178.089 15.9067 178.601 16.44H178.729L178.505 13.976V8.568H183.208V31H179.369L179.017 29.368H178.921C178.345 29.944 177.662 30.424 176.873 30.808C176.105 31.192 175.315 31.384 174.505 31.384ZM175.72 27.544C176.254 27.544 176.745 27.4373 177.193 27.224C177.662 26.9893 178.099 26.6053 178.505 26.072V19.64C178.078 19.256 177.641 18.9893 177.193 18.84C176.766 18.6693 176.318 18.584 175.849 18.584C175.273 18.584 174.739 18.744 174.249 19.064C173.758 19.384 173.363 19.8747 173.065 20.536C172.787 21.176 172.649 21.9973 172.649 23C172.649 24.5573 172.915 25.7093 173.449 26.456C173.982 27.1813 174.739 27.544 175.72 27.544ZM196.06 31.384C194.417 31.384 192.924 31.064 191.58 30.424C190.257 29.7627 189.201 28.8133 188.412 27.576C187.644 26.3173 187.26 24.8133 187.26 23.064C187.26 21.336 187.655 19.8533 188.444 18.616C189.233 17.3573 190.257 16.3973 191.516 15.736C192.775 15.0747 194.108 14.744 195.516 14.744C197.159 14.744 198.535 15.0853 199.644 15.768C200.753 16.4293 201.585 17.336 202.14 18.488C202.716 19.6187 203.004 20.9093 203.004 22.36C203.004 22.7867 202.972 23.2027 202.908 23.608C202.865 23.992 202.823 24.28 202.78 24.472H190.748V21.304H199.612L198.876 22.2C198.876 20.92 198.599 19.96 198.044 19.32C197.511 18.6587 196.721 18.328 195.676 18.328C194.908 18.328 194.236 18.4987 193.66 18.84C193.084 19.1813 192.636 19.704 192.316 20.408C191.996 21.112 191.836 21.9973 191.836 23.064C191.836 24.152 192.028 25.048 192.412 25.752C192.796 26.4347 193.351 26.9467 194.076 27.288C194.801 27.6293 195.676 27.8 196.7 27.8C197.425 27.8 198.108 27.704 198.748 27.512C199.409 27.32 200.092 27.0427 200.796 26.68L202.364 29.528C201.447 30.104 200.433 30.5627 199.324 30.904C198.215 31.224 197.127 31.384 196.06 31.384ZM208.4 31V15.128H212.24L212.624 18.584H212.72C213.509 17.2827 214.458 16.3227 215.568 15.704C216.698 15.064 217.893 14.744 219.152 14.744C219.856 14.744 220.421 14.7973 220.847 14.904C221.296 15.0107 221.754 15.1707 222.224 15.384L221.264 19.32C220.773 19.1707 220.325 19.064 219.92 19C219.536 18.9147 219.045 18.872 218.448 18.872C217.466 18.872 216.496 19.16 215.536 19.736C214.597 20.312 213.786 21.3147 213.104 22.744V31H208.4Z" fill="#00DA9A"/>
    <rect x="14" y="61" width="2" height="14" fill="#D9D9D9"/>
    <rect x="131" y="61" width="2" height="14" fill="#D9D9D9"/>
    <rect x="239" y="61" width="2" height="14" fill="#D9D9D9"/>
    <rect x="14" y="59" width="227" height="5" rx="2.5" fill="#D9D9D9"/>
    <path d="M1.104 87V79.176H6.288V80.664H2.88V82.236H5.772V83.712H2.88V85.512H6.408V87H1.104ZM9.88331 87.144C9.48331 87.144 9.13531 87.064 8.83931 86.904C8.55131 86.744 8.32731 86.528 8.16731 86.256C8.00731 85.984 7.92731 85.68 7.92731 85.344C7.92731 84.68 8.22731 84.172 8.82731 83.82C9.43531 83.468 10.4433 83.252 11.8513 83.172C11.8273 82.988 11.7673 82.832 11.6713 82.704C11.5753 82.576 11.4353 82.48 11.2513 82.416C11.0753 82.344 10.8513 82.308 10.5793 82.308C10.3873 82.308 10.1953 82.332 10.0033 82.38C9.81131 82.42 9.61131 82.484 9.40331 82.572C9.20331 82.652 8.99131 82.748 8.76731 82.86L8.14331 81.708C8.41531 81.548 8.69931 81.408 8.99531 81.288C9.29931 81.168 9.61131 81.076 9.93131 81.012C10.2593 80.94 10.5913 80.904 10.9273 80.904C11.4873 80.904 11.9673 81.004 12.3673 81.204C12.7673 81.396 13.0753 81.692 13.2913 82.092C13.5073 82.484 13.6153 82.984 13.6153 83.592V87H12.1753L12.0433 86.328H11.9953C11.6993 86.552 11.3713 86.744 11.0113 86.904C10.6513 87.064 10.2753 87.144 9.88331 87.144ZM10.4473 85.776C10.7113 85.776 10.9593 85.724 11.1913 85.62C11.4233 85.508 11.6433 85.372 11.8513 85.212V84.228C11.2673 84.26 10.8113 84.32 10.4833 84.408C10.1633 84.496 9.93931 84.608 9.81131 84.744C9.68331 84.88 9.61931 85.036 9.61931 85.212C9.61931 85.332 9.65131 85.436 9.71531 85.524C9.78731 85.612 9.88331 85.676 10.0033 85.716C10.1313 85.756 10.2793 85.776 10.4473 85.776ZM17.9426 87.144C17.4146 87.144 16.8906 87.056 16.3706 86.88C15.8506 86.696 15.4026 86.48 15.0266 86.232L15.7826 85.128C16.1426 85.36 16.5226 85.536 16.9226 85.656C17.3306 85.776 17.7506 85.836 18.1826 85.836C18.5106 85.836 18.7506 85.788 18.9026 85.692C19.0546 85.588 19.1306 85.468 19.1306 85.332C19.1306 85.244 19.1066 85.172 19.0586 85.116C19.0186 85.052 18.9426 84.996 18.8306 84.948C18.7266 84.892 18.5786 84.84 18.3866 84.792C18.2026 84.744 17.9626 84.688 17.6666 84.624C16.8586 84.448 16.2786 84.208 15.9266 83.904C15.5746 83.6 15.3986 83.22 15.3986 82.764C15.3986 82.204 15.6426 81.756 16.1306 81.42C16.6186 81.076 17.2866 80.904 18.1346 80.904C18.6706 80.904 19.1546 80.992 19.5866 81.168C20.0266 81.336 20.4026 81.52 20.7146 81.72L19.9226 82.776C19.6266 82.592 19.3106 82.452 18.9746 82.356C18.6386 82.26 18.3066 82.212 17.9786 82.212C17.7946 82.212 17.6426 82.232 17.5226 82.272C17.4026 82.304 17.3106 82.36 17.2466 82.44C17.1826 82.512 17.1506 82.592 17.1506 82.68C17.1506 82.84 17.2546 82.96 17.4626 83.04C17.6706 83.112 18.0266 83.204 18.5306 83.316C19.1386 83.452 19.6146 83.608 19.9586 83.784C20.3026 83.96 20.5386 84.164 20.6666 84.396C20.8026 84.62 20.8706 84.896 20.8706 85.224C20.8706 85.584 20.7586 85.908 20.5346 86.196C20.3186 86.484 19.9906 86.716 19.5506 86.892C19.1186 87.06 18.5826 87.144 17.9426 87.144ZM23.3019 89.328C23.1259 89.328 22.9619 89.316 22.8099 89.292C22.6579 89.268 22.5179 89.24 22.3899 89.208L22.7019 87.864C22.7819 87.888 22.8619 87.904 22.9419 87.912C23.0219 87.928 23.0979 87.936 23.1699 87.936C23.5139 87.936 23.7819 87.86 23.9739 87.708C24.1739 87.564 24.3219 87.38 24.4179 87.156L24.5379 86.844L21.9579 81.048H23.7099L24.7059 83.604C24.8179 83.884 24.9219 84.176 25.0179 84.48C25.1139 84.776 25.2099 85.08 25.3059 85.392H25.3539C25.4339 85.096 25.5219 84.796 25.6179 84.492C25.7139 84.188 25.8059 83.892 25.8939 83.604L26.7699 81.048H28.4379L26.0859 87.06C25.9019 87.556 25.6859 87.972 25.4379 88.308C25.1979 88.644 24.9059 88.896 24.5619 89.064C24.2259 89.24 23.8059 89.328 23.3019 89.328Z" fill="#00DA9A"/>
    <path d="M110.696 87V79.176H112.544L113.312 81.948L113.576 83.028H113.624L113.888 81.948L114.656 79.176H116.504V87H115.016V84.576C115.016 84.36 115.024 84.092 115.04 83.772C115.056 83.444 115.076 83.104 115.1 82.752C115.124 82.4 115.148 82.064 115.172 81.744C115.204 81.424 115.228 81.16 115.244 80.952H115.208L114.608 83.04L114.008 84.924H113.144L112.532 83.04L111.968 80.952H111.932C111.948 81.16 111.968 81.424 111.992 81.744C112.024 82.064 112.052 82.4 112.076 82.752C112.1 83.104 112.12 83.444 112.136 83.772C112.152 84.092 112.16 84.36 112.16 84.576V87H110.696ZM121.155 87.144C120.539 87.144 119.979 87.024 119.475 86.784C118.979 86.536 118.583 86.18 118.287 85.716C117.999 85.244 117.855 84.68 117.855 84.024C117.855 83.376 118.003 82.82 118.299 82.356C118.595 81.884 118.979 81.524 119.451 81.276C119.923 81.028 120.423 80.904 120.951 80.904C121.567 80.904 122.083 81.032 122.499 81.288C122.915 81.536 123.227 81.876 123.435 82.308C123.651 82.732 123.759 83.216 123.759 83.76C123.759 83.92 123.747 84.076 123.723 84.228C123.707 84.372 123.691 84.48 123.675 84.552H119.163V83.364H122.487L122.211 83.7C122.211 83.22 122.107 82.86 121.899 82.62C121.699 82.372 121.403 82.248 121.011 82.248C120.723 82.248 120.471 82.312 120.255 82.44C120.039 82.568 119.871 82.764 119.751 83.028C119.631 83.292 119.571 83.624 119.571 84.024C119.571 84.432 119.643 84.768 119.787 85.032C119.931 85.288 120.139 85.48 120.411 85.608C120.683 85.736 121.011 85.8 121.395 85.8C121.667 85.8 121.923 85.764 122.163 85.692C122.411 85.62 122.667 85.516 122.931 85.38L123.519 86.448C123.175 86.664 122.795 86.836 122.379 86.964C121.963 87.084 121.555 87.144 121.155 87.144ZM127.463 87.144C126.711 87.144 126.103 86.868 125.639 86.316C125.183 85.756 124.955 84.992 124.955 84.024C124.955 83.376 125.075 82.82 125.315 82.356C125.563 81.892 125.883 81.536 126.275 81.288C126.667 81.032 127.075 80.904 127.499 80.904C127.827 80.904 128.111 80.96 128.351 81.072C128.591 81.184 128.807 81.34 128.999 81.54H129.047L128.963 80.616V78.588H130.727V87H129.287L129.155 86.388H129.119C128.903 86.604 128.647 86.784 128.351 86.928C128.063 87.072 127.767 87.144 127.463 87.144ZM127.919 85.704C128.119 85.704 128.303 85.664 128.471 85.584C128.647 85.496 128.811 85.352 128.963 85.152V82.74C128.803 82.596 128.639 82.496 128.471 82.44C128.311 82.376 128.143 82.344 127.967 82.344C127.751 82.344 127.551 82.404 127.367 82.524C127.183 82.644 127.035 82.828 126.923 83.076C126.819 83.316 126.767 83.624 126.767 84C126.767 84.584 126.867 85.016 127.067 85.296C127.267 85.568 127.551 85.704 127.919 85.704ZM134.922 87V82.428H132.522V81.048H136.686V87H134.922ZM135.726 80.112C135.39 80.112 135.11 80.016 134.886 79.824C134.662 79.624 134.55 79.364 134.55 79.044C134.55 78.716 134.662 78.452 134.886 78.252C135.11 78.044 135.39 77.94 135.726 77.94C136.07 77.94 136.35 78.044 136.566 78.252C136.79 78.452 136.902 78.716 136.902 79.044C136.902 79.364 136.79 79.624 136.566 79.824C136.35 80.016 136.07 80.112 135.726 80.112ZM141.457 87.144C140.777 87.144 140.285 86.928 139.981 86.496C139.677 86.064 139.525 85.472 139.525 84.72V81.048H141.289V84.492C141.289 84.892 141.349 85.184 141.469 85.368C141.597 85.552 141.825 85.644 142.153 85.644C142.377 85.644 142.577 85.596 142.753 85.5C142.929 85.404 143.117 85.224 143.317 84.96V81.048H145.081V87H143.641L143.509 86.148H143.461C143.197 86.444 142.905 86.684 142.585 86.868C142.265 87.052 141.889 87.144 141.457 87.144ZM146.397 87V81.048H147.729L147.849 81.78H147.897C148.009 81.54 148.165 81.336 148.365 81.168C148.565 80.992 148.837 80.904 149.181 80.904C149.437 80.904 149.657 80.988 149.841 81.156C150.025 81.316 150.149 81.556 150.213 81.876C150.325 81.604 150.485 81.376 150.693 81.192C150.909 81 151.189 80.904 151.533 80.904C151.957 80.904 152.285 81.076 152.517 81.42C152.749 81.764 152.865 82.232 152.865 82.824V87H151.185V82.944C151.185 82.584 151.077 82.404 150.861 82.404C150.749 82.404 150.649 82.452 150.561 82.548C150.481 82.636 150.401 82.78 150.321 82.98V87H148.941V82.944C148.941 82.76 148.913 82.624 148.857 82.536C148.801 82.448 148.717 82.404 148.605 82.404C148.493 82.404 148.397 82.452 148.317 82.548C148.237 82.636 148.157 82.78 148.077 82.98V87H146.397Z" fill="#00DA9A"/>
    <path d="M225.768 86V78.176H227.532V81.2H229.668V78.176H231.432V86H229.668V82.736H227.532V86H225.768ZM234.883 86.144C234.483 86.144 234.135 86.064 233.839 85.904C233.551 85.744 233.327 85.528 233.167 85.256C233.007 84.984 232.927 84.68 232.927 84.344C232.927 83.68 233.227 83.172 233.827 82.82C234.435 82.468 235.443 82.252 236.851 82.172C236.827 81.988 236.767 81.832 236.671 81.704C236.575 81.576 236.435 81.48 236.251 81.416C236.075 81.344 235.851 81.308 235.579 81.308C235.387 81.308 235.195 81.332 235.003 81.38C234.811 81.42 234.611 81.484 234.403 81.572C234.203 81.652 233.991 81.748 233.767 81.86L233.143 80.708C233.415 80.548 233.699 80.408 233.995 80.288C234.299 80.168 234.611 80.076 234.931 80.012C235.259 79.94 235.591 79.904 235.927 79.904C236.487 79.904 236.967 80.004 237.367 80.204C237.767 80.396 238.075 80.692 238.291 81.092C238.507 81.484 238.615 81.984 238.615 82.592V86H237.175L237.043 85.328H236.995C236.699 85.552 236.371 85.744 236.011 85.904C235.651 86.064 235.275 86.144 234.883 86.144ZM235.447 84.776C235.711 84.776 235.959 84.724 236.191 84.62C236.423 84.508 236.643 84.372 236.851 84.212V83.228C236.267 83.26 235.811 83.32 235.483 83.408C235.163 83.496 234.939 83.608 234.811 83.744C234.683 83.88 234.619 84.036 234.619 84.212C234.619 84.332 234.651 84.436 234.715 84.524C234.787 84.612 234.883 84.676 235.003 84.716C235.131 84.756 235.279 84.776 235.447 84.776ZM240.783 86V80.048H242.223L242.367 81.344H242.403C242.699 80.856 243.055 80.496 243.471 80.264C243.895 80.024 244.343 79.904 244.815 79.904C245.079 79.904 245.291 79.924 245.451 79.964C245.619 80.004 245.791 80.064 245.967 80.144L245.607 81.62C245.423 81.564 245.255 81.524 245.103 81.5C244.959 81.468 244.775 81.452 244.551 81.452C244.183 81.452 243.819 81.56 243.459 81.776C243.107 81.992 242.803 82.368 242.547 82.904V86H240.783ZM249.658 86.144C248.906 86.144 248.298 85.868 247.834 85.316C247.378 84.756 247.15 83.992 247.15 83.024C247.15 82.376 247.27 81.82 247.51 81.356C247.758 80.892 248.078 80.536 248.47 80.288C248.862 80.032 249.27 79.904 249.694 79.904C250.022 79.904 250.306 79.96 250.546 80.072C250.786 80.184 251.002 80.34 251.194 80.54H251.242L251.158 79.616V77.588H252.922V86H251.482L251.35 85.388H251.314C251.098 85.604 250.842 85.784 250.546 85.928C250.258 86.072 249.962 86.144 249.658 86.144ZM250.114 84.704C250.314 84.704 250.498 84.664 250.666 84.584C250.842 84.496 251.006 84.352 251.158 84.152V81.74C250.998 81.596 250.834 81.496 250.666 81.44C250.506 81.376 250.338 81.344 250.162 81.344C249.946 81.344 249.746 81.404 249.562 81.524C249.378 81.644 249.23 81.828 249.118 82.076C249.014 82.316 248.962 82.624 248.962 83C248.962 83.584 249.062 84.016 249.262 84.296C249.462 84.568 249.746 84.704 250.114 84.704Z" fill="#00DA9A"/>
    <rect x="14" y="59" width="115" height="5" rx="2.5" fill="#00DA9A"/>
    <circle cx="131.5" cy="61.5" r="8.5" fill="#6DFAA8"/>
    <path d="M158.868 69.8057L153.225 75.4502L152.673 76.002L153.246 76.5312L159.917 82.6885L156.667 85.9395L150.167 79.4395L147.47 82.1367L143.994 85.6113L136.188 62.1895L158.868 69.8057Z" fill="#71FFAC" stroke="#00CF92" stroke-width="1.5"/>
</svg>