<svg width="313" height="96" viewBox="0 0 313 96" fill="none" xmlns="http://www.w3.org/2000/svg">
<rect x="1" y="47" width="310.13" height="48" rx="16" stroke="#00DA9A" stroke-width="2"/>
<path d="M23.4055 79V66.856H18.9205V64.004H31.2945V66.856H26.8095V79H23.4055ZM39.5885 79.276C38.4079 79.276 37.3345 79.046 36.3685 78.586C35.4179 78.1107 34.6589 77.4283 34.0915 76.539C33.5395 75.6343 33.2635 74.5533 33.2635 73.296C33.2635 72.054 33.5472 70.9883 34.1145 70.099C34.6819 69.1943 35.4179 68.5043 36.3225 68.029C37.2272 67.5537 38.1855 67.316 39.1975 67.316C40.3782 67.316 41.3672 67.5613 42.1645 68.052C42.9619 68.5273 43.5599 69.179 43.9585 70.007C44.3725 70.8197 44.5795 71.7473 44.5795 72.79C44.5795 73.0967 44.5565 73.3957 44.5105 73.687C44.4799 73.963 44.4492 74.17 44.4185 74.308H35.7705V72.031H42.1415L41.6125 72.675C41.6125 71.755 41.4132 71.065 41.0145 70.605C40.6312 70.1297 40.0639 69.892 39.3125 69.892C38.7605 69.892 38.2775 70.0147 37.8635 70.26C37.4495 70.5053 37.1275 70.881 36.8975 71.387C36.6675 71.893 36.5525 72.5293 36.5525 73.296C36.5525 74.078 36.6905 74.722 36.9665 75.228C37.2425 75.7187 37.6412 76.0867 38.1625 76.332C38.6839 76.5773 39.3125 76.7 40.0485 76.7C40.5699 76.7 41.0605 76.631 41.5205 76.493C41.9959 76.355 42.4865 76.1557 42.9925 75.895L44.1195 77.942C43.4602 78.356 42.7319 78.6857 41.9345 78.931C41.1372 79.161 40.3552 79.276 39.5885 79.276ZM46.6406 79L50.5966 73.066L46.8936 67.592H50.5276L51.7006 69.432C51.8846 69.754 52.0839 70.0837 52.2986 70.421C52.5132 70.743 52.7126 71.065 52.8966 71.387H52.9886C53.1266 71.065 53.2799 70.7353 53.4486 70.398C53.6326 70.0607 53.7936 69.7387 53.9316 69.432L54.9436 67.592H58.4856L54.7596 73.457L58.7156 79H55.0816L53.7706 77.114C53.5559 76.792 53.3336 76.4623 53.1036 76.125C52.8889 75.7877 52.6742 75.458 52.4596 75.136H52.3676C52.1989 75.458 52.0226 75.7877 51.8386 76.125C51.6546 76.447 51.4782 76.7767 51.3096 77.114L50.1826 79H46.6406ZM68.5046 79.276C67.2932 79.276 66.3272 79.069 65.6066 78.655C64.9012 78.2257 64.3876 77.6353 64.0656 76.884C63.7436 76.1327 63.5826 75.2587 63.5826 74.262V70.237H60.7306V67.73L63.7436 67.592L64.1806 64.096H66.9636V67.592H71.7936V70.237H66.9636V74.239C66.9636 74.8063 67.0479 75.2663 67.2166 75.619C67.3852 75.9717 67.6459 76.2323 67.9986 76.401C68.3512 76.5543 68.8036 76.631 69.3556 76.631C69.8002 76.631 70.2066 76.5927 70.5746 76.516C70.9426 76.4393 71.2952 76.3397 71.6326 76.217L72.2306 78.655C71.7246 78.8083 71.1649 78.9463 70.5516 79.069C69.9536 79.207 69.2712 79.276 68.5046 79.276Z" fill="#00CF92"/>
<path d="M77.232 31V14.104H70.992V10.136H88.208V14.104H81.968V31H77.232ZM99.7475 31.384C98.1048 31.384 96.6115 31.064 95.2675 30.424C93.9448 29.7627 92.8888 28.8133 92.0995 27.576C91.3315 26.3173 90.9475 24.8133 90.9475 23.064C90.9475 21.336 91.3422 19.8533 92.1315 18.616C92.9208 17.3573 93.9448 16.3973 95.2035 15.736C96.4622 15.0747 97.7955 14.744 99.2035 14.744C100.846 14.744 102.222 15.0853 103.332 15.768C104.441 16.4293 105.273 17.336 105.828 18.488C106.404 19.6187 106.692 20.9093 106.692 22.36C106.692 22.7867 106.66 23.2027 106.596 23.608C106.553 23.992 106.51 24.28 106.468 24.472H94.4355V21.304H103.3L102.564 22.2C102.564 20.92 102.286 19.96 101.732 19.32C101.198 18.6587 100.409 18.328 99.3635 18.328C98.5955 18.328 97.9235 18.4987 97.3475 18.84C96.7715 19.1813 96.3235 19.704 96.0035 20.408C95.6835 21.112 95.5235 21.9973 95.5235 23.064C95.5235 24.152 95.7155 25.048 96.0995 25.752C96.4835 26.4347 97.0382 26.9467 97.7635 27.288C98.4888 27.6293 99.3635 27.8 100.388 27.8C101.113 27.8 101.796 27.704 102.436 27.512C103.097 27.32 103.78 27.0427 104.484 26.68L106.052 29.528C105.134 30.104 104.121 30.5627 103.012 30.904C101.902 31.224 100.814 31.384 99.7475 31.384ZM109.559 31L115.063 22.744L109.911 15.128H114.967L116.599 17.688C116.855 18.136 117.132 18.5947 117.431 19.064C117.73 19.512 118.007 19.96 118.263 20.408H118.391C118.583 19.96 118.796 19.5013 119.031 19.032C119.287 18.5627 119.511 18.1147 119.703 17.688L121.111 15.128H126.039L120.855 23.288L126.359 31H121.303L119.479 28.376C119.18 27.928 118.871 27.4693 118.551 27C118.252 26.5307 117.954 26.072 117.655 25.624H117.527C117.292 26.072 117.047 26.5307 116.791 27C116.535 27.448 116.29 27.9067 116.055 28.376L114.487 31H109.559ZM139.979 31.384C138.293 31.384 136.949 31.096 135.947 30.52C134.965 29.9227 134.251 29.1013 133.803 28.056C133.355 27.0107 133.131 25.7947 133.131 24.408V18.808H129.163V15.32L133.355 15.128L133.963 10.264H137.835V15.128H144.555V18.808H137.835V24.376C137.835 25.1653 137.952 25.8053 138.187 26.296C138.421 26.7867 138.784 27.1493 139.275 27.384C139.765 27.5973 140.395 27.704 141.163 27.704C141.781 27.704 142.347 27.6507 142.859 27.544C143.371 27.4373 143.861 27.2987 144.331 27.128L145.163 30.52C144.459 30.7333 143.68 30.9253 142.827 31.096C141.995 31.288 141.045 31.384 139.979 31.384ZM149.118 31V27.032H153.982V14.104H149.118V10.136H163.582V14.104H158.718V27.032H163.582V31H149.118ZM168.242 31V15.128H172.082L172.434 17.24H172.562C173.244 16.5573 174.023 15.9707 174.898 15.48C175.794 14.9893 176.839 14.744 178.034 14.744C179.826 14.744 181.138 15.32 181.97 16.472C182.802 17.624 183.218 19.2027 183.218 21.208V31H178.514V21.816C178.514 20.7493 178.332 19.9707 177.97 19.48C177.628 18.9893 177.031 18.744 176.178 18.744C175.538 18.744 174.972 18.8933 174.482 19.192C174.012 19.4693 173.5 19.8747 172.946 20.408V31H168.242ZM187.429 36.888V15.128H191.269L191.621 16.728H191.717C192.378 16.152 193.114 15.6827 193.925 15.32C194.757 14.936 195.6 14.744 196.453 14.744C197.776 14.744 198.906 15.0747 199.845 15.736C200.805 16.3973 201.541 17.336 202.053 18.552C202.565 19.768 202.821 21.1867 202.821 22.808C202.821 24.6213 202.49 26.168 201.829 27.448C201.189 28.728 200.346 29.7093 199.301 30.392C198.256 31.0533 197.136 31.384 195.941 31.384C195.237 31.384 194.544 31.2347 193.861 30.936C193.2 30.6373 192.592 30.2107 192.037 29.656H191.909L192.133 32.248V36.888H187.429ZM194.853 27.544C195.45 27.544 195.984 27.384 196.453 27.064C196.922 26.744 197.296 26.2427 197.573 25.56C197.85 24.856 197.989 23.96 197.989 22.872C197.989 21.912 197.882 21.1227 197.669 20.504C197.456 19.864 197.136 19.384 196.709 19.064C196.304 18.744 195.76 18.584 195.077 18.584C194.565 18.584 194.064 18.7013 193.573 18.936C193.104 19.1493 192.624 19.5227 192.133 20.056V26.488C192.581 26.8507 193.04 27.1173 193.509 27.288C194 27.4587 194.448 27.544 194.853 27.544ZM211.449 31.384C209.635 31.384 208.323 30.808 207.513 29.656C206.702 28.504 206.297 26.9253 206.297 24.92V15.128H211.001V24.312C211.001 25.3787 211.161 26.1573 211.481 26.648C211.822 27.1387 212.43 27.384 213.305 27.384C213.902 27.384 214.435 27.256 214.905 27C215.374 26.744 215.875 26.264 216.409 25.56V15.128H221.113V31H217.273L216.921 28.728H216.793C216.089 29.5173 215.31 30.1573 214.457 30.648C213.603 31.1387 212.601 31.384 211.449 31.384ZM235.916 31.384C234.231 31.384 232.887 31.096 231.884 30.52C230.903 29.9227 230.188 29.1013 229.74 28.056C229.292 27.0107 229.068 25.7947 229.068 24.408V18.808H225.1V15.32L229.292 15.128L229.9 10.264H233.772V15.128H240.492V18.808H233.772V24.376C233.772 25.1653 233.889 25.8053 234.124 26.296C234.359 26.7867 234.721 27.1493 235.212 27.384C235.703 27.5973 236.332 27.704 237.1 27.704C237.719 27.704 238.284 27.6507 238.796 27.544C239.308 27.4373 239.799 27.2987 240.268 27.128L241.1 30.52C240.396 30.7333 239.617 30.9253 238.764 31.096C237.932 31.288 236.983 31.384 235.916 31.384Z" fill="#00DA9A"/>
<line x1="73.5" y1="55" x2="73.5" y2="87" stroke="#00CF92"/>
</svg>
