<svg width="100%" height="100%" viewBox="0 0 360 77" fill="none"
    xmlns="http://www.w3.org/2000/svg">
    <rect x="1" y="1" width="358" height="75" stroke="#00DA9A" stroke-width="2"/>
    <path d="M103.006 50V33.632H96.961V29.788H113.639V33.632H107.594V50H103.006ZM124.818 50.372C123.227 50.372 121.78 50.062 120.478 49.442C119.197 48.8013 118.174 47.8817 117.409 46.683C116.665 45.4637 116.293 44.0067 116.293 42.312C116.293 40.638 116.675 39.2017 117.44 38.003C118.205 36.7837 119.197 35.8537 120.416 35.213C121.635 34.5723 122.927 34.252 124.291 34.252C125.882 34.252 127.215 34.5827 128.29 35.244C129.365 35.8847 130.171 36.763 130.708 37.879C131.266 38.9743 131.545 40.2247 131.545 41.63C131.545 42.0433 131.514 42.4463 131.452 42.839C131.411 43.211 131.369 43.49 131.328 43.676H119.672V40.607H128.259L127.546 41.475C127.546 40.235 127.277 39.305 126.74 38.685C126.223 38.0443 125.459 37.724 124.446 37.724C123.702 37.724 123.051 37.8893 122.493 38.22C121.935 38.5507 121.501 39.057 121.191 39.739C120.881 40.421 120.726 41.2787 120.726 42.312C120.726 43.366 120.912 44.234 121.284 44.916C121.656 45.5773 122.193 46.0733 122.896 46.404C123.599 46.7347 124.446 46.9 125.438 46.9C126.141 46.9 126.802 46.807 127.422 46.621C128.063 46.435 128.724 46.1663 129.406 45.815L130.925 48.574C130.036 49.132 129.055 49.5763 127.98 49.907C126.905 50.217 125.851 50.372 124.818 50.372ZM134.323 50L139.655 42.002L134.664 34.624H139.562L141.143 37.104C141.391 37.538 141.659 37.9823 141.949 38.437C142.238 38.871 142.507 39.305 142.755 39.739H142.879C143.065 39.305 143.271 38.8607 143.499 38.406C143.747 37.9513 143.964 37.5173 144.15 37.104L145.514 34.624H150.288L145.266 42.529L150.598 50H145.7L143.933 47.458C143.643 47.024 143.344 46.5797 143.034 46.125C142.744 45.6703 142.455 45.226 142.166 44.792H142.042C141.814 45.226 141.577 45.6703 141.329 46.125C141.081 46.559 140.843 47.0033 140.616 47.458L139.097 50H134.323ZM163.792 50.372C162.159 50.372 160.857 50.093 159.886 49.535C158.935 48.9563 158.243 48.1607 157.809 47.148C157.375 46.1353 157.158 44.9573 157.158 43.614V38.189H153.314V34.81L157.375 34.624L157.964 29.912H161.715V34.624H168.225V38.189H161.715V43.583C161.715 44.3477 161.828 44.9677 162.056 45.443C162.283 45.9183 162.634 46.2697 163.11 46.497C163.585 46.7037 164.195 46.807 164.939 46.807C165.538 46.807 166.086 46.7553 166.582 46.652C167.078 46.5487 167.553 46.4143 168.008 46.249L168.814 49.535C168.132 49.7417 167.377 49.9277 166.551 50.093C165.745 50.279 164.825 50.372 163.792 50.372ZM172.646 50V29.788H179.435C180.84 29.788 182.101 29.943 183.217 30.253C184.333 30.5423 185.211 31.0487 185.852 31.772C186.513 32.4953 186.844 33.508 186.844 34.81C186.844 35.7193 186.565 36.5977 186.007 37.445C185.449 38.2923 184.57 38.871 183.372 39.181V39.305C184.818 39.553 185.914 40.0697 186.658 40.855C187.402 41.6197 187.774 42.684 187.774 44.048C187.774 45.412 187.433 46.5383 186.751 47.427C186.069 48.295 185.139 48.946 183.961 49.38C182.803 49.7933 181.491 50 180.024 50H172.646ZM177.203 37.91H179.218C180.334 37.91 181.14 37.693 181.636 37.259C182.132 36.8043 182.38 36.1947 182.38 35.43C182.38 34.686 182.121 34.159 181.605 33.849C181.109 33.5183 180.323 33.353 179.249 33.353H177.203V37.91ZM177.203 46.435H179.652C180.892 46.435 181.811 46.2077 182.411 45.753C183.01 45.2983 183.31 44.6163 183.31 43.707C183.31 42.8183 183.01 42.1777 182.411 41.785C181.811 41.3923 180.892 41.196 179.652 41.196H177.203V46.435ZM201.184 50.372C199.262 50.372 197.805 49.7933 196.813 48.636C195.821 47.4787 195.325 45.9287 195.325 43.986V31.865H190.52V28.3H199.882V44.172C199.882 45.1227 200.141 45.784 200.657 46.156C201.174 46.5073 201.742 46.683 202.362 46.683C202.734 46.683 203.106 46.6417 203.478 46.559C203.871 46.4763 204.305 46.3523 204.78 46.187L205.772 49.535C204.987 49.783 204.264 49.9793 203.602 50.124C202.962 50.2893 202.156 50.372 201.184 50.372ZM216.827 50.372C215.484 50.372 214.213 50.062 213.014 49.442C211.816 48.8013 210.844 47.8817 210.1 46.683C209.356 45.4637 208.984 44.0067 208.984 42.312C208.984 40.6173 209.356 39.1707 210.1 37.972C210.844 36.7527 211.816 35.833 213.014 35.213C214.213 34.5723 215.484 34.252 216.827 34.252C218.171 34.252 219.442 34.5723 220.64 35.213C221.839 35.833 222.81 36.7527 223.554 37.972C224.298 39.1707 224.67 40.6173 224.67 42.312C224.67 44.0067 224.298 45.4637 223.554 46.683C222.81 47.8817 221.839 48.8013 220.64 49.442C219.442 50.062 218.171 50.372 216.827 50.372ZM216.827 46.683C217.53 46.683 218.109 46.5073 218.563 46.156C219.039 45.8047 219.39 45.2983 219.617 44.637C219.865 43.9757 219.989 43.2007 219.989 42.312C219.989 41.4233 219.865 40.6483 219.617 39.987C219.39 39.3257 219.039 38.8193 218.563 38.468C218.109 38.1167 217.53 37.941 216.827 37.941C216.125 37.941 215.536 38.1167 215.06 38.468C214.606 38.8193 214.254 39.3257 214.006 39.987C213.779 40.6483 213.665 41.4233 213.665 42.312C213.665 43.2007 213.779 43.9757 214.006 44.637C214.254 45.2983 214.606 45.8047 215.06 46.156C215.536 46.5073 216.125 46.683 216.827 46.683ZM236.748 50.372C235.136 50.372 233.679 50.062 232.377 49.442C231.096 48.8013 230.073 47.8817 229.308 46.683C228.564 45.4637 228.192 44.0067 228.192 42.312C228.192 40.6173 228.606 39.1707 229.432 37.972C230.259 36.7527 231.344 35.833 232.687 35.213C234.051 34.5723 235.519 34.252 237.089 34.252C238.309 34.252 239.414 34.4483 240.406 34.841C241.398 35.213 242.215 35.709 242.855 36.329L240.747 39.15C240.148 38.7367 239.569 38.437 239.011 38.251C238.474 38.0443 237.916 37.941 237.337 37.941C236.469 37.941 235.694 38.1167 235.012 38.468C234.33 38.8193 233.803 39.3257 233.431 39.987C233.059 40.6483 232.873 41.4233 232.873 42.312C232.873 43.2007 233.049 43.9757 233.4 44.637C233.772 45.2983 234.279 45.8047 234.919 46.156C235.581 46.5073 236.335 46.683 237.182 46.683C237.988 46.683 238.722 46.5383 239.383 46.249C240.065 45.9597 240.685 45.6187 241.243 45.226L243.072 48.109C242.163 48.8737 241.14 49.442 240.003 49.814C238.887 50.186 237.802 50.372 236.748 50.372ZM247.059 50V28.269H251.616V40.824H251.74L257.382 34.624H262.373L251.616 46.125V50H247.059ZM257.909 50L253.445 43.025L256.049 40.204L262.838 50H257.909Z" fill="#00CF92"/>
</svg>