<svg width="100%" height="100%" viewBox="0 0 227 71" fill="none" xmlns="http://www.w3.org/2000/svg">
<path d="M11.424 24V11.328H6.744V8.352H19.656V11.328H14.976V24H11.424ZM22.4306 24L20.4866 12.096H23.8946L24.6386 17.616C24.7186 18.192 24.7826 18.776 24.8306 19.368C24.8946 19.944 24.9586 20.536 25.0226 21.144H25.0946C25.1746 20.536 25.2546 19.936 25.3346 19.344C25.4306 18.752 25.5346 18.176 25.6466 17.616L26.3906 13.68H28.9586L29.7266 17.616C29.8386 18.192 29.9426 18.776 30.0386 19.368C30.1506 19.944 30.2466 20.536 30.3266 21.144H30.4226C30.5026 20.536 30.5586 19.944 30.5906 19.368C30.6386 18.776 30.6946 18.192 30.7586 17.616L31.4306 12.096H34.6946L32.8706 24H28.7186L28.0706 20.136C28.0066 19.608 27.9346 19.056 27.8546 18.48C27.7906 17.904 27.7186 17.28 27.6386 16.608H27.5426C27.4946 17.104 27.4386 17.632 27.3746 18.192C27.3106 18.736 27.2306 19.384 27.1346 20.136L26.5106 24H22.4306ZM41.9813 24.288C40.9413 24.288 39.9573 24.048 39.0293 23.568C38.1013 23.072 37.3493 22.36 36.7733 21.432C36.1973 20.488 35.9093 19.36 35.9093 18.048C35.9093 16.736 36.1973 15.616 36.7733 14.688C37.3493 13.744 38.1013 13.032 39.0293 12.552C39.9573 12.056 40.9413 11.808 41.9813 11.808C43.0213 11.808 44.0053 12.056 44.9333 12.552C45.8613 13.032 46.6133 13.744 47.1893 14.688C47.7653 15.616 48.0533 16.736 48.0533 18.048C48.0533 19.36 47.7653 20.488 47.1893 21.432C46.6133 22.36 45.8613 23.072 44.9333 23.568C44.0053 24.048 43.0213 24.288 41.9813 24.288ZM41.9813 21.432C42.5253 21.432 42.9733 21.296 43.3253 21.024C43.6933 20.752 43.9653 20.36 44.1413 19.848C44.3333 19.336 44.4293 18.736 44.4293 18.048C44.4293 17.36 44.3333 16.76 44.1413 16.248C43.9653 15.736 43.6933 15.344 43.3253 15.072C42.9733 14.8 42.5253 14.664 41.9813 14.664C41.4373 14.664 40.9813 14.8 40.6133 15.072C40.2613 15.344 39.9893 15.736 39.7973 16.248C39.6213 16.76 39.5333 17.36 39.5333 18.048C39.5333 18.736 39.6213 19.336 39.7973 19.848C39.9893 20.36 40.2613 20.752 40.6133 21.024C40.9813 21.296 41.4373 21.432 41.9813 21.432ZM50.7079 24V8.352H54.2359V14.4H58.5079V8.352H62.0359V24H58.5079V17.472H54.2359V24H50.7079ZM68.9385 24.288C68.1385 24.288 67.4425 24.128 66.8505 23.808C66.2745 23.488 65.8265 23.056 65.5065 22.512C65.1865 21.968 65.0265 21.36 65.0265 20.688C65.0265 19.36 65.6265 18.344 66.8265 17.64C68.0425 16.936 70.0585 16.504 72.8745 16.344C72.8265 15.976 72.7065 15.664 72.5145 15.408C72.3225 15.152 72.0425 14.96 71.6745 14.832C71.3225 14.688 70.8745 14.616 70.3305 14.616C69.9465 14.616 69.5625 14.664 69.1785 14.76C68.7945 14.84 68.3945 14.968 67.9785 15.144C67.5785 15.304 67.1545 15.496 66.7065 15.72L65.4585 13.416C66.0025 13.096 66.5705 12.816 67.1625 12.576C67.7705 12.336 68.3945 12.152 69.0345 12.024C69.6905 11.88 70.3545 11.808 71.0265 11.808C72.1465 11.808 73.1065 12.008 73.9065 12.408C74.7065 12.792 75.3225 13.384 75.7545 14.184C76.1865 14.968 76.4025 15.968 76.4025 17.184V24H73.5225L73.2585 22.656H73.1625C72.5705 23.104 71.9145 23.488 71.1945 23.808C70.4745 24.128 69.7225 24.288 68.9385 24.288ZM70.0665 21.552C70.5945 21.552 71.0905 21.448 71.5545 21.24C72.0185 21.016 72.4585 20.744 72.8745 20.424V18.456C71.7065 18.52 70.7945 18.64 70.1385 18.816C69.4985 18.992 69.0505 19.216 68.7945 19.488C68.5385 19.76 68.4105 20.072 68.4105 20.424C68.4105 20.664 68.4745 20.872 68.6025 21.048C68.7465 21.224 68.9385 21.352 69.1785 21.432C69.4345 21.512 69.7305 21.552 70.0665 21.552ZM79.6811 24V12.096H82.5611L82.8251 13.68H82.9211C83.4331 13.168 84.0171 12.728 84.6731 12.36C85.3451 11.992 86.1291 11.808 87.0251 11.808C88.3691 11.808 89.3531 12.24 89.9771 13.104C90.6011 13.968 90.9131 15.152 90.9131 16.656V24H87.3851V17.112C87.3851 16.312 87.2491 15.728 86.9771 15.36C86.7211 14.992 86.2731 14.808 85.6331 14.808C85.1531 14.808 84.7291 14.92 84.3611 15.144C84.0091 15.352 83.6251 15.656 83.2091 16.056V24H79.6811ZM98.4878 24.288C96.9838 24.288 95.7678 23.736 94.8398 22.632C93.9278 21.512 93.4718 19.984 93.4718 18.048C93.4718 16.752 93.7118 15.64 94.1918 14.712C94.6878 13.784 95.3278 13.072 96.1118 12.576C96.8958 12.064 97.7118 11.808 98.5598 11.808C99.2158 11.808 99.7838 11.92 100.264 12.144C100.744 12.368 101.176 12.68 101.56 13.08H101.656L101.488 11.232V7.176H105.016V24H102.136L101.872 22.776H101.8C101.368 23.208 100.856 23.568 100.264 23.856C99.6878 24.144 99.0958 24.288 98.4878 24.288ZM99.3997 21.408C99.7998 21.408 100.168 21.328 100.504 21.168C100.856 20.992 101.184 20.704 101.488 20.304V15.48C101.168 15.192 100.84 14.992 100.504 14.88C100.184 14.752 99.8478 14.688 99.4958 14.688C99.0638 14.688 98.6638 14.808 98.2958 15.048C97.9278 15.288 97.6318 15.656 97.4078 16.152C97.1998 16.632 97.0958 17.248 97.0958 18C97.0958 19.168 97.2958 20.032 97.6958 20.592C98.0958 21.136 98.6638 21.408 99.3997 21.408ZM116.214 24.288C114.726 24.288 113.598 23.84 112.83 22.944C112.062 22.048 111.678 20.848 111.678 19.344V9.96H107.958V7.2H115.206V19.488C115.206 20.224 115.406 20.736 115.806 21.024C116.206 21.296 116.646 21.432 117.126 21.432C117.414 21.432 117.702 21.4 117.99 21.336C118.294 21.272 118.63 21.176 118.998 21.048L119.766 23.64C119.158 23.832 118.598 23.984 118.086 24.096C117.59 24.224 116.966 24.288 116.214 24.288ZM129.045 24.288C127.813 24.288 126.693 24.048 125.685 23.568C124.693 23.072 123.901 22.36 123.309 21.432C122.733 20.488 122.445 19.36 122.445 18.048C122.445 16.752 122.741 15.64 123.333 14.712C123.925 13.768 124.693 13.048 125.637 12.552C126.581 12.056 127.581 11.808 128.637 11.808C129.869 11.808 130.901 12.064 131.733 12.576C132.565 13.072 133.189 13.752 133.605 14.616C134.037 15.464 134.253 16.432 134.253 17.52C134.253 17.84 134.229 18.152 134.181 18.456C134.149 18.744 134.117 18.96 134.085 19.104H125.061V16.728H131.709L131.157 17.4C131.157 16.44 130.949 15.72 130.533 15.24C130.133 14.744 129.541 14.496 128.757 14.496C128.181 14.496 127.677 14.624 127.245 14.88C126.813 15.136 126.477 15.528 126.237 16.056C125.997 16.584 125.877 17.248 125.877 18.048C125.877 18.864 126.021 19.536 126.309 20.064C126.597 20.576 127.013 20.96 127.557 21.216C128.101 21.472 128.757 21.6 129.525 21.6C130.069 21.6 130.581 21.528 131.061 21.384C131.557 21.24 132.069 21.032 132.597 20.76L133.773 22.896C133.085 23.328 132.325 23.672 131.493 23.928C130.661 24.168 129.845 24.288 129.045 24.288ZM142.668 24.288C141.612 24.288 140.564 24.096 139.524 23.712C138.5 23.328 137.564 22.768 136.716 22.032L138.756 19.608C139.348 20.088 139.996 20.48 140.7 20.784C141.42 21.088 142.156 21.24 142.908 21.24C143.66 21.24 144.212 21.112 144.564 20.856C144.932 20.6 145.116 20.272 145.116 19.872C145.116 19.504 145.02 19.216 144.828 19.008C144.636 18.784 144.356 18.592 143.988 18.432C143.62 18.256 143.188 18.064 142.692 17.856L140.676 16.992C140.1 16.768 139.556 16.472 139.044 16.104C138.532 15.72 138.116 15.256 137.796 14.712C137.492 14.152 137.34 13.488 137.34 12.72C137.34 11.856 137.58 11.08 138.06 10.392C138.556 9.688 139.228 9.128 140.076 8.712C140.94 8.28 141.94 8.064 143.076 8.064C144.02 8.064 144.948 8.24 145.86 8.592C146.772 8.944 147.58 9.456 148.284 10.128L146.484 12.36C145.94 11.96 145.396 11.656 144.852 11.448C144.308 11.224 143.652 11.112 142.884 11.112C142.308 11.112 141.836 11.232 141.468 11.472C141.1 11.712 140.916 12.064 140.916 12.528C140.916 12.832 141.028 13.088 141.252 13.296C141.476 13.504 141.78 13.688 142.164 13.848C142.548 14.008 142.988 14.184 143.484 14.376L145.38 15.192C146.084 15.448 146.684 15.768 147.18 16.152C147.676 16.52 148.06 16.976 148.332 17.52C148.604 18.064 148.74 18.704 148.74 19.44C148.74 20.304 148.5 21.104 148.02 21.84C147.556 22.576 146.868 23.168 145.956 23.616C145.06 24.064 143.964 24.288 142.668 24.288ZM159.386 24.288C157.898 24.288 156.77 23.84 156.002 22.944C155.234 22.048 154.85 20.848 154.85 19.344V9.96H151.13V7.2H158.378V19.488C158.378 20.224 158.578 20.736 158.978 21.024C159.378 21.296 159.818 21.432 160.298 21.432C160.586 21.432 160.874 21.4 161.162 21.336C161.466 21.272 161.802 21.176 162.17 21.048L162.938 23.64C162.33 23.832 161.77 23.984 161.258 24.096C160.762 24.224 160.138 24.288 159.386 24.288ZM170.969 24V14.856H166.169V12.096H174.497V24H170.969ZM172.577 10.224C171.905 10.224 171.345 10.032 170.897 9.648C170.449 9.248 170.225 8.728 170.225 8.088C170.225 7.432 170.449 6.904 170.897 6.504C171.345 6.088 171.905 5.88 172.577 5.88C173.265 5.88 173.825 6.088 174.257 6.504C174.705 6.904 174.929 7.432 174.929 8.088C174.929 8.728 174.705 9.248 174.257 9.648C173.825 10.032 173.265 10.224 172.577 10.224ZM184.832 24.288C183.328 24.288 182.112 23.736 181.184 22.632C180.272 21.512 179.816 19.984 179.816 18.048C179.816 16.752 180.056 15.64 180.536 14.712C181.032 13.784 181.672 13.072 182.456 12.576C183.24 12.064 184.056 11.808 184.904 11.808C185.56 11.808 186.128 11.92 186.608 12.144C187.088 12.368 187.52 12.68 187.904 13.08H188L187.832 11.232V7.176H191.359V24H188.48L188.216 22.776H188.144C187.712 23.208 187.2 23.568 186.608 23.856C186.032 24.144 185.44 24.288 184.832 24.288ZM185.743 21.408C186.144 21.408 186.512 21.328 186.848 21.168C187.2 20.992 187.528 20.704 187.832 20.304V15.48C187.512 15.192 187.184 14.992 186.848 14.88C186.528 14.752 186.192 14.688 185.84 14.688C185.408 14.688 185.008 14.808 184.64 15.048C184.272 15.288 183.976 15.656 183.752 16.152C183.544 16.632 183.44 17.248 183.44 18C183.44 19.168 183.64 20.032 184.04 20.592C184.44 21.136 185.008 21.408 185.743 21.408ZM200.998 24.288C199.766 24.288 198.646 24.048 197.638 23.568C196.646 23.072 195.854 22.36 195.262 21.432C194.686 20.488 194.398 19.36 194.398 18.048C194.398 16.752 194.694 15.64 195.286 14.712C195.878 13.768 196.646 13.048 197.59 12.552C198.534 12.056 199.534 11.808 200.59 11.808C201.822 11.808 202.854 12.064 203.686 12.576C204.518 13.072 205.142 13.752 205.558 14.616C205.99 15.464 206.206 16.432 206.206 17.52C206.206 17.84 206.182 18.152 206.134 18.456C206.102 18.744 206.07 18.96 206.038 19.104H197.014V16.728H203.662L203.11 17.4C203.11 16.44 202.902 15.72 202.486 15.24C202.086 14.744 201.494 14.496 200.71 14.496C200.134 14.496 199.63 14.624 199.198 14.88C198.766 15.136 198.43 15.528 198.19 16.056C197.95 16.584 197.83 17.248 197.83 18.048C197.83 18.864 197.974 19.536 198.262 20.064C198.55 20.576 198.966 20.96 199.51 21.216C200.054 21.472 200.71 21.6 201.478 21.6C202.022 21.6 202.534 21.528 203.014 21.384C203.51 21.24 204.022 21.032 204.55 20.76L205.726 22.896C205.038 23.328 204.278 23.672 203.446 23.928C202.614 24.168 201.798 24.288 200.998 24.288ZM210.253 24V12.096H213.133L213.421 14.688H213.493C214.085 13.712 214.797 12.992 215.629 12.528C216.477 12.048 217.373 11.808 218.317 11.808C218.845 11.808 219.269 11.848 219.589 11.928C219.925 12.008 220.269 12.128 220.621 12.288L219.901 15.24C219.533 15.128 219.197 15.048 218.893 15C218.605 14.936 218.237 14.904 217.789 14.904C217.053 14.904 216.325 15.12 215.605 15.552C214.901 15.984 214.293 16.736 213.781 17.808V24H210.253Z" fill="var(--sl-color-accent)"/>
<rect y="41" width="227" height="5" rx="2.5" fill="#D9D9D9"/>
<rect x="54" y="41" width="117" height="5" rx="2.5" fill="var(--sl-color-accent)"/>
<circle cx="49.5" cy="43.5" r="8.5" fill="var(--sl-color-accent-high)"/>
<circle cx="168.5" cy="43.5" r="8.5" fill="var(--sl-color-accent-high)"/>
<path d="M73.8682 53.8057L68.2246 59.4502L67.6729 60.002L68.2461 60.5312L74.917 66.6885L71.667 69.9395L65.167 63.4395L62.4697 66.1367L58.9941 69.6113L51.1875 46.1895L73.8682 53.8057Z" fill="var(--sl-color-accent-low)" stroke="var(--sl-color-accent)" stroke-width="1.5"/>
</svg>
