<svg width="100%" height="100%" viewBox="0 0 154 173" fill="none"
    xmlns="http://www.w3.org/2000/svg">
    <path d="M0.576 31L6.656 20.28L0.928 10.136H6.208L8.224 14.072C8.45867 14.5413 8.704 15.0533 8.96 15.608C9.216 16.1627 9.504 16.7707 9.824 17.432H9.952C10.1867 16.7707 10.4213 16.1627 10.656 15.608C10.8907 15.0533 11.1253 14.5413 11.36 14.072L13.216 10.136H18.272L12.544 20.504L18.624 31H13.376L11.104 26.744C10.8267 26.1893 10.5493 25.6453 10.272 25.112C10.016 24.5573 9.73867 23.96 9.44 23.32H9.312C9.056 23.96 8.8 24.5573 8.544 25.112C8.288 25.6453 8.032 26.1893 7.776 26.744L5.6 31H0.576ZM26.4195 31V23.96L19.6995 10.136H24.7555L26.8675 15.16C27.1875 15.9493 27.4968 16.7387 27.7955 17.528C28.1155 18.296 28.4355 19.096 28.7555 19.928H28.8835C29.2248 19.096 29.5555 18.296 29.8755 17.528C30.2168 16.7387 30.5368 15.9493 30.8355 15.16L32.9475 10.136H37.8755L31.1555 23.96V31H26.4195ZM47.911 31.384C46.503 31.384 45.1057 31.128 43.719 30.616C42.3537 30.104 41.1057 29.3573 39.975 28.376L42.695 25.144C43.4843 25.784 44.3483 26.3067 45.287 26.712C46.247 27.1173 47.2283 27.32 48.231 27.32C49.2337 27.32 49.9697 27.1493 50.439 26.808C50.9297 26.4667 51.175 26.0293 51.175 25.496C51.175 25.0053 51.047 24.6213 50.791 24.344C50.535 24.0453 50.1617 23.7893 49.671 23.576C49.1803 23.3413 48.6043 23.0853 47.943 22.808L45.255 21.656C44.487 21.3573 43.7617 20.9627 43.079 20.472C42.3963 19.96 41.8417 19.3413 41.415 18.616C41.0097 17.8693 40.807 16.984 40.807 15.96C40.807 14.808 41.127 13.7733 41.767 12.856C42.4283 11.9173 43.3243 11.1707 44.455 10.616C45.607 10.04 46.9403 9.752 48.455 9.752C49.7137 9.752 50.951 9.98667 52.167 10.456C53.383 10.9253 54.4603 11.608 55.399 12.504L52.999 15.48C52.2737 14.9467 51.5483 14.5413 50.823 14.264C50.0977 13.9653 49.223 13.816 48.199 13.816C47.431 13.816 46.8017 13.976 46.311 14.296C45.8203 14.616 45.575 15.0853 45.575 15.704C45.575 16.1093 45.7243 16.4507 46.023 16.728C46.3217 17.0053 46.727 17.2507 47.239 17.464C47.751 17.6773 48.3377 17.912 48.999 18.168L51.527 19.256C52.4657 19.5973 53.2657 20.024 53.927 20.536C54.5883 21.0267 55.1003 21.6347 55.463 22.36C55.8257 23.0853 56.007 23.9387 56.007 24.92C56.007 26.072 55.687 27.1387 55.047 28.12C54.4283 29.1013 53.511 29.8907 52.295 30.488C51.1003 31.0853 49.639 31.384 47.911 31.384ZM70.2025 31.384C68.2185 31.384 66.7145 30.7867 65.6905 29.592C64.6665 28.3973 64.1545 26.7973 64.1545 24.792V12.28H59.1945V8.6H68.8585V24.984C68.8585 25.9653 69.1252 26.648 69.6585 27.032C70.1918 27.3947 70.7785 27.576 71.4185 27.576C71.8025 27.576 72.1865 27.5333 72.5705 27.448C72.9758 27.3627 73.4238 27.2347 73.9145 27.064L74.9385 30.52C74.1278 30.776 73.3812 30.9787 72.6985 31.128C72.0372 31.2987 71.2052 31.384 70.2025 31.384ZM85.646 31V18.808H79.246V15.128H90.35V31H85.646ZM87.79 12.632C86.894 12.632 86.1473 12.376 85.55 11.864C84.9527 11.3307 84.654 10.6373 84.654 9.784C84.654 8.90933 84.9527 8.20533 85.55 7.672C86.1473 7.11733 86.894 6.84 87.79 6.84C88.7073 6.84 89.454 7.11733 90.03 7.672C90.6273 8.20533 90.926 8.90933 90.926 9.784C90.926 10.6373 90.6273 11.3307 90.03 11.864C89.454 12.376 88.7073 12.632 87.79 12.632ZM104.13 31.384C102.124 31.384 100.503 30.648 99.2655 29.176C98.0495 27.6827 97.4415 25.6453 97.4415 23.064C97.4415 21.336 97.7615 19.8533 98.4015 18.616C99.0628 17.3787 99.9162 16.4293 100.962 15.768C102.007 15.0853 103.095 14.744 104.226 14.744C105.1 14.744 105.858 14.8933 106.498 15.192C107.138 15.4907 107.714 15.9067 108.226 16.44H108.354L108.13 13.976V8.568H112.833V31H108.994L108.642 29.368H108.546C107.97 29.944 107.287 30.424 106.498 30.808C105.73 31.192 104.94 31.384 104.13 31.384ZM105.345 27.544C105.879 27.544 106.37 27.4373 106.818 27.224C107.287 26.9893 107.724 26.6053 108.13 26.072V19.64C107.703 19.256 107.266 18.9893 106.818 18.84C106.391 18.6693 105.943 18.584 105.474 18.584C104.898 18.584 104.364 18.744 103.874 19.064C103.383 19.384 102.988 19.8747 102.69 20.536C102.412 21.176 102.274 21.9973 102.274 23C102.274 24.5573 102.54 25.7093 103.074 26.456C103.607 27.1813 104.364 27.544 105.345 27.544ZM125.685 31.384C124.042 31.384 122.549 31.064 121.205 30.424C119.882 29.7627 118.826 28.8133 118.037 27.576C117.269 26.3173 116.885 24.8133 116.885 23.064C116.885 21.336 117.28 19.8533 118.069 18.616C118.858 17.3573 119.882 16.3973 121.141 15.736C122.4 15.0747 123.733 14.744 125.141 14.744C126.784 14.744 128.16 15.0853 129.269 15.768C130.378 16.4293 131.21 17.336 131.765 18.488C132.341 19.6187 132.629 20.9093 132.629 22.36C132.629 22.7867 132.597 23.2027 132.533 23.608C132.49 23.992 132.448 24.28 132.405 24.472H120.373V21.304H129.237L128.501 22.2C128.501 20.92 128.224 19.96 127.669 19.32C127.136 18.6587 126.346 18.328 125.301 18.328C124.533 18.328 123.861 18.4987 123.285 18.84C122.709 19.1813 122.261 19.704 121.941 20.408C121.621 21.112 121.461 21.9973 121.461 23.064C121.461 24.152 121.653 25.048 122.037 25.752C122.421 26.4347 122.976 26.9467 123.701 27.288C124.426 27.6293 125.301 27.8 126.325 27.8C127.05 27.8 127.733 27.704 128.373 27.512C129.034 27.32 129.717 27.0427 130.421 26.68L131.989 29.528C131.072 30.104 130.058 30.5627 128.949 30.904C127.84 31.224 126.752 31.384 125.685 31.384ZM138.025 31V15.128H141.865L142.249 18.584H142.345C143.134 17.2827 144.083 16.3227 145.193 15.704C146.323 15.064 147.518 14.744 148.777 14.744C149.481 14.744 150.046 14.7973 150.472 14.904C150.921 15.0107 151.379 15.1707 151.849 15.384L150.889 19.32C150.398 19.1707 149.95 19.064 149.545 19C149.161 18.9147 148.67 18.872 148.073 18.872C147.091 18.872 146.121 19.16 145.161 19.736C144.222 20.312 143.411 21.3147 142.729 22.744V31H138.025Z" fill="#00DA9A"/>
    <rect x="9.5" y="41.5" width="131" height="131" fill="#EAE8E8" stroke="#00DA9A"/>
    <path d="M77 41L74.1132 46L79.8868 46L77 41ZM77 172L79.8868 167L74.1133 167L77 172ZM77 45.5L76.5 45.5L76.5 167.5L77 167.5L77.5 167.5L77.5 45.5L77 45.5Z" fill="#00DA9A"/>
    <path d="M10 107L15 109.887L15 104.113L10 107ZM140 107L135 104.113L135 109.887L140 107ZM14.5 107L14.5 107.5L135.5 107.5L135.5 107L135.5 106.5L14.5 106.5L14.5 107Z" fill="#00DA9A"/>
    <rect x="89" y="119" width="19" height="19" rx="9.5" stroke="white" stroke-width="2"/>
    <rect x="84" y="122" width="19" height="19" rx="9.5" stroke="white" stroke-opacity="0.3" stroke-width="2"/>
    <rect x="78" y="126" width="19" height="18" rx="9" stroke="white" stroke-opacity="0.3" stroke-width="2"/>
    <rect x="74" y="133" width="19" height="19" rx="9.5" stroke="white" stroke-opacity="0.2" stroke-width="2"/>
    <path d="M125.782 138.784L119.389 145.179L118.837 145.73L119.41 146.26L126.917 153.188L123.167 156.939L115.917 149.689L112.97 152.637L108.994 156.611L100.188 130.189L125.782 138.784Z" fill="#71FFAC" stroke="#00CF92" stroke-width="1.5"/>
    <path d="M21.18 103L23.08 99.65L21.29 96.48H22.94L23.57 97.71C23.6433 97.8567 23.72 98.0167 23.8 98.19C23.88 98.3633 23.97 98.5533 24.07 98.76H24.11C24.1833 98.5533 24.2567 98.3633 24.33 98.19C24.4033 98.0167 24.4767 97.8567 24.55 97.71L25.13 96.48H26.71L24.92 99.72L26.82 103H25.18L24.47 101.67C24.3833 101.497 24.2967 101.327 24.21 101.16C24.13 100.987 24.0433 100.8 23.95 100.6H23.91C23.83 100.8 23.75 100.987 23.67 101.16C23.59 101.327 23.51 101.497 23.43 101.67L22.75 103H21.18Z" fill="#00DA9A"/>
    <path d="M70.26 59V56.8L68.16 52.48H69.74L70.4 54.05C70.5 54.2967 70.5967 54.5433 70.69 54.79C70.79 55.03 70.89 55.28 70.99 55.54H71.03C71.1367 55.28 71.24 55.03 71.34 54.79C71.4467 54.5433 71.5467 54.2967 71.64 54.05L72.3 52.48H73.84L71.74 56.8V59H70.26Z" fill="#00DA9A"/>
</svg>