<svg xmlns="http://www.w3.org/2000/svg" width="64" height="64" viewBox="0 0 64 64"><rect width="64" height="64" rx="8" fill="hsl(302.7,65%,45%)"/><circle cx="15.90" cy="11.59" r="5.38" fill="hsl(302.7,70%,74%)" opacity="0.83"/><path d="M35.11 8.76 L61.24 50.35 L26.89 20.22 Z" fill="hsl(309.7,70%,66%)" opacity="0.74"/><ellipse cx="21.97" cy="20.04" rx="3.15" ry="4.04" fill="hsl(316.7,60%,71%)" opacity="0.86"/><circle cx="1.39" cy="40.94" r="4.31" fill="hsl(323.7,70%,74%)" opacity="0.73"/><path d="M49.23 25.82 L10.37 10.15 L23.58 56.81 Z" fill="hsl(330.7,70%,46%)" opacity="0.79"/><ellipse cx="12.60" cy="50.01" rx="4.54" ry="1.77" fill="hsl(337.7,60%,36%)" opacity="0.59"/><circle cx="46.52" cy="16.22" r="4.99" fill="hsl(344.7,70%,62%)" opacity="0.70"/><path d="M40.06 26.12 L8.70 51.13 L11.15 52.86 Z" fill="hsl(351.7,70%,74%)" opacity="0.45"/><ellipse cx="43.12" cy="32.94" rx="3.31" ry="3.03" fill="hsl(358.7,60%,70%)" opacity="0.48"/><circle cx="35.03" cy="52.24" r="1.78" fill="hsl(5.7,70%,75%)" opacity="0.84"/><path d="M8.56 27.30 L54.84 21.70 L34.48 8.94 Z" fill="hsl(12.7,70%,79%)" opacity="0.60"/><ellipse cx="23.77" cy="22.95" rx="3.97" ry="3.95" fill="hsl(19.7,60%,78%)" opacity="0.32"/><circle cx="53.65" cy="42.08" r="1.89" fill="hsl(26.7,70%,57%)" opacity="0.56"/><path d="M1.73 28.10 L35.19 32.26 L47.42 33.37 Z" fill="hsl(33.7,70%,47%)" opacity="0.59"/><ellipse cx="14.62" cy="44.20" rx="2.53" ry="4.49" fill="hsl(40.7,60%,39%)" opacity="0.62"/><circle cx="23.11" cy="43.65" r="6.60" fill="hsl(47.7,70%,68%)" opacity="0.79"/><path d="M33.07 20.31 L46.96 37.21 L33.93 10.31 Z" fill="hsl(54.7,70%,52%)" opacity="0.71"/><ellipse cx="10.87" cy="11.10" rx="2.23" ry="2.77" fill="hsl(61.7,60%,57%)" opacity="0.38"/><circle cx="19.03" cy="18.26" r="5.83" fill="hsl(68.7,70%,46%)" opacity="0.66"/><path d="M30.10 60.85 L3.43 7.32 L41.82 24.27 Z" fill="hsl(75.7,70%,74%)" opacity="0.33"/><ellipse cx="42.09" cy="57.03" rx="3.99" ry="1.26" fill="hsl(82.7,60%,63%)" opacity="0.66"/><circle cx="15.20" cy="7.54" r="4.36" fill="hsl(89.7,70%,68%)" opacity="0.61"/><path d="M4.74 29.49 L59.18 41.73 L7.72 1.61 Z" fill="hsl(96.7,70%,76%)" opacity="0.77"/><ellipse cx="11.33" cy="38.00" rx="4.15" ry="4.14" fill="hsl(103.7,60%,80%)" opacity="0.73"/><circle cx="0.51" cy="5.32" r="2.84" fill="hsl(110.7,70%,69%)" opacity="0.96"/><path d="M35.82 34.80 L0.76 29.98 L20.38 54.52 Z" fill="hsl(117.7,70%,43%)" opacity="0.40"/><ellipse cx="10.72" cy="29.94" rx="2.29" ry="3.90" fill="hsl(124.7,60%,66%)" opacity="0.71"/><circle cx="4.13" cy="8.94" r="5.59" fill="hsl(131.7,70%,78%)" opacity="0.57"/><path d="M35.88 10.17 L49.81 17.05 L13.43 22.43 Z" fill="hsl(138.7,70%,70%)" opacity="0.44"/><ellipse cx="40.15" cy="53.15" rx="2.90" ry="4.10" fill="hsl(145.7,60%,76%)" opacity="0.60"/><circle cx="63.10" cy="60.68" r="1.99" fill="hsl(152.7,70%,41%)" opacity="0.85"/><path d="M2.53 18.38 L7.59 23.61 L62.13 60.04 Z" fill="hsl(159.7,70%,47%)" opacity="0.52"/><ellipse cx="18.37" cy="23.55" rx="5.43" ry="1.03" fill="hsl(166.7,60%,72%)" opacity="0.53"/><circle cx="28.38" cy="12.31" r="2.04" fill="hsl(173.7,70%,71%)" opacity="0.81"/><path d="M52.59 56.89 L60.54 16.75 L21.36 4.22 Z" fill="hsl(180.7,70%,55%)" opacity="0.63"/><ellipse cx="32.65" cy="52.37" rx="3.47" ry="4.18" fill="hsl(187.7,60%,70%)" opacity="0.73"/><circle cx="56.38" cy="19.53" r="1.28" fill="hsl(194.7,70%,53%)" opacity="0.87"/><path d="M16.23 34.13 L23.64 43.39 L6.05 49.43 Z" fill="hsl(201.7,70%,47%)" opacity="0.30"/><ellipse cx="26.79" cy="57.65" rx="2.31" ry="4.10" fill="hsl(208.7,60%,43%)" opacity="0.32"/><circle cx="36.03" cy="23.43" r="5.78" fill="hsl(215.7,70%,42%)" opacity="0.60"/><path d="M57.66 45.64 L24.67 51.39 L47.35 62.13 Z" fill="hsl(222.7,70%,54%)" opacity="0.46"/><ellipse cx="63.56" cy="9.28" rx="2.84" ry="2.27" fill="hsl(229.7,60%,54%)" opacity="0.79"/><circle cx="3.53" cy="8.34" r="4.92" fill="hsl(236.7,70%,47%)" opacity="0.90"/><path d="M41.23 54.72 L42.01 49.63 L35.83 63.21 Z" fill="hsl(243.7,70%,64%)" opacity="0.70"/><ellipse cx="42.92" cy="35.58" rx="2.54" ry="2.70" fill="hsl(250.7,60%,48%)" opacity="0.64"/><circle cx="2.04" cy="1.34" r="6.46" fill="hsl(257.7,70%,78%)" opacity="0.90"/><path d="M19.40 11.22 L42.03 16.56 L53.74 3.29 Z" fill="hsl(264.7,70%,55%)" opacity="0.40"/><ellipse cx="62.86" cy="61.89" rx="2.97" ry="3.99" fill="hsl(271.7,60%,75%)" opacity="0.56"/><circle cx="6.29" cy="43.62" r="1.48" fill="hsl(278.7,70%,47%)" opacity="0.51"/><path d="M60.74 14.78 L57.85 28.76 L7.76 54.39 Z" fill="hsl(285.7,70%,54%)" opacity="0.30"/><ellipse cx="45.30" cy="61.86" rx="5.88" ry="5.66" fill="hsl(292.7,60%,79%)" opacity="0.80"/><circle cx="43.28" cy="58.94" r="3.82" fill="hsl(299.7,70%,64%)" opacity="0.59"/><path d="M30.05 14.48 L11.69 54.70 L33.09 36.01 Z" fill="hsl(306.7,70%,74%)" opacity="0.57"/><ellipse cx="43.85" cy="62.25" rx="3.33" ry="2.37" fill="hsl(313.7,60%,58%)" opacity="0.53"/><circle cx="0.89" cy="18.12" r="2.47" fill="hsl(320.7,70%,41%)" opacity="0.49"/><path d="M34.45 20.47 L33.88 58.43 L42.72 17.19 Z" fill="hsl(327.7,70%,45%)" opacity="0.58"/><ellipse cx="18.69" cy="54.42" rx="5.03" ry="3.32" fill="hsl(334.7,60%,80%)" opacity="0.78"/><circle cx="9.08" cy="26.58" r="3.08" fill="hsl(341.7,70%,46%)" opacity="0.97"/><path d="M46.00 50.08 L20.92 61.48 L62.69 8.45 Z" fill="hsl(348.7,70%,51%)" opacity="0.44"/><ellipse cx="33.09" cy="10.01" rx="3.05" ry="2.12" fill="hsl(355.7,60%,66%)" opacity="0.57"/><circle cx="9.87" cy="63.28" r="5.15" fill="hsl(2.7,70%,59%)" opacity="0.58"/><path d="M57.63 28.38 L36.62 33.60 L31.84 53.36 Z" fill="hsl(9.7,70%,53%)" opacity="0.65"/><ellipse cx="42.01" cy="21.10" rx="3.87" ry="5.72" fill="hsl(16.7,60%,52%)" opacity="0.68"/><circle cx="52.88" cy="32.00" r="1.18" fill="hsl(23.7,70%,42%)" opacity="0.45"/><path d="M53.95 13.62 L47.34 12.80 L42.96 27.46 Z" fill="hsl(30.7,70%,73%)" opacity="0.43"/><ellipse cx="42.49" cy="17.96" rx="2.37" ry="4.60" fill="hsl(37.7,60%,41%)" opacity="0.86"/><circle cx="56.39" cy="9.23" r="1.24" fill="hsl(44.7,70%,79%)" opacity="0.87"/><path d="M59.06 50.47 L59.63 29.83 L15.84 3.61 Z" fill="hsl(51.7,70%,44%)" opacity="0.74"/><ellipse cx="9.84" cy="28.59" rx="3.59" ry="3.58" fill="hsl(58.7,60%,60%)" opacity="0.63"/><circle cx="62.97" cy="20.58" r="3.51" fill="hsl(65.7,70%,41%)" opacity="0.86"/><path d="M50.91 45.88 L33.19 19.41 L49.35 35.32 Z" fill="hsl(72.7,70%,67%)" opacity="0.70"/><ellipse cx="40.93" cy="45.69" rx="3.55" ry="5.40" fill="hsl(79.7,60%,37%)" opacity="0.72"/><circle cx="60.54" cy="37.30" r="2.53" fill="hsl(86.7,70%,66%)" opacity="0.50"/><path d="M10.43 57.99 L4.99 11.20 L45.83 37.16 Z" fill="hsl(93.7,70%,41%)" opacity="0.69"/><ellipse cx="36.71" cy="34.75" rx="1.73" ry="4.70" fill="hsl(100.7,60%,73%)" opacity="0.73"/><circle cx="8.81" cy="57.86" r="4.95" fill="hsl(107.7,70%,58%)" opacity="0.97"/><path d="M32.83 63.18 L56.34 4.16 L3.67 3.04 Z" fill="hsl(114.7,70%,77%)" opacity="0.74"/><ellipse cx="20.17" cy="43.36" rx="1.09" ry="4.29" fill="hsl(121.7,60%,56%)" opacity="0.44"/><circle cx="17.99" cy="47.38" r="3.75" fill="hsl(128.7,70%,75%)" opacity="0.91"/><path d="M3.69 57.94 L11.08 20.80 L2.54 21.61 Z" fill="hsl(135.7,70%,67%)" opacity="0.60"/><ellipse cx="27.65" cy="33.40" rx="4.24" ry="4.34" fill="hsl(142.7,60%,67%)" opacity="0.35"/><circle cx="63.28" cy="9.92" r="1.36" fill="hsl(149.7,70%,73%)" opacity="0.71"/><path d="M29.41 4.67 L19.62 47.17 L61.94 45.25 Z" fill="hsl(156.7,70%,67%)" opacity="0.67"/><ellipse cx="45.98" cy="7.04" rx="5.18" ry="1.84" fill="hsl(163.7,60%,50%)" opacity="0.50"/><circle cx="21.11" cy="11.31" r="2.38" fill="hsl(170.7,70%,44%)" opacity="0.77"/><path d="M51.08 22.62 L5.32 37.66 L18.08 63.72 Z" fill="hsl(177.7,70%,59%)" opacity="0.58"/><ellipse cx="14.17" cy="26.00" rx="4.19" ry="5.90" fill="hsl(184.7,60%,60%)" opacity="0.45"/><circle cx="10.32" cy="38.15" r="5.41" fill="hsl(191.7,70%,48%)" opacity="0.89"/><path d="M0.44 49.78 L4.67 63.02 L39.28 49.30 Z" fill="hsl(198.7,70%,56%)" opacity="0.58"/><ellipse cx="30.08" cy="11.61" rx="3.29" ry="4.09" fill="hsl(205.7,60%,63%)" opacity="0.38"/><circle cx="50.39" cy="9.73" r="6.02" fill="hsl(212.7,70%,51%)" opacity="0.46"/><path d="M45.57 56.22 L3.94 61.91 L52.26 43.84 Z" fill="hsl(219.7,70%,63%)" opacity="0.60"/><ellipse cx="24.35" cy="8.01" rx="1.50" ry="4.63" fill="hsl(226.7,60%,62%)" opacity="0.42"/><circle cx="10.49" cy="21.74" r="6.94" fill="hsl(233.7,70%,74%)" opacity="0.87"/><path d="M54.79 35.67 L48.49 63.23 L54.68 16.87 Z" fill="hsl(240.7,70%,68%)" opacity="0.35"/><ellipse cx="37.37" cy="17.80" rx="3.57" ry="1.14" fill="hsl(247.7,60%,70%)" opacity="0.72"/><circle cx="47.05" cy="53.72" r="4.37" fill="hsl(254.7,70%,68%)" opacity="0.48"/><path d="M16.34 24.95 L18.54 6.47 L45.58 26.43 Z" fill="hsl(261.7,70%,49%)" opacity="0.56"/><ellipse cx="26.46" cy="41.89" rx="3.90" ry="3.06" fill="hsl(268.7,60%,46%)" opacity="0.81"/><circle cx="13.02" cy="40.98" r="4.60" fill="hsl(275.7,70%,76%)" opacity="0.40"/><path d="M26.21 34.12 L20.65 43.44 L24.73 42.77 Z" fill="hsl(282.7,70%,40%)" opacity="0.58"/><ellipse cx="38.56" cy="53.59" rx="2.52" ry="3.22" fill="hsl(289.7,60%,59%)" opacity="0.57"/><circle cx="12.22" cy="49.69" r="6.98" fill="hsl(296.7,70%,76%)" opacity="0.42"/><path d="M28.31 47.07 L47.66 18.82 L2.23 55.86 Z" fill="hsl(303.7,70%,47%)" opacity="0.77"/><ellipse cx="29.67" cy="37.17" rx="2.12" ry="4.62" fill="hsl(310.7,60%,41%)" opacity="0.68"/><circle cx="49.08" cy="30.27" r="1.90" fill="hsl(317.7,70%,69%)" opacity="0.41"/><path d="M56.56 14.72 L45.78 18.65 L44.74 20.36 Z" fill="hsl(324.7,70%,44%)" opacity="0.40"/><ellipse cx="12.44" cy="3.57" rx="3.75" ry="3.32" fill="hsl(331.7,60%,47%)" opacity="0.66"/><circle cx="8.27" cy="5.08" r="5.05" fill="hsl(338.7,70%,59%)" opacity="0.76"/><path d="M34.53 4.98 L24.26 3.69 L17.18 5.51 Z" fill="hsl(345.7,70%,52%)" opacity="0.54"/><ellipse cx="35.58" cy="25.33" rx="1.32" ry="2.72" fill="hsl(352.7,60%,61%)" opacity="0.68"/><circle cx="31.78" cy="4.70" r="3.35" fill="hsl(359.7,70%,66%)" opacity="0.79"/><path d="M5.18 49.99 L15.07 42.99 L48.98 40.36 Z" fill="hsl(6.7,70%,67%)" opacity="0.60"/><ellipse cx="32.44" cy="2.68" rx="2.78" ry="5.06" fill="hsl(13.7,60%,69%)" opacity="0.45"/><circle cx="39.22" cy="4.47" r="4.39" fill="hsl(20.7,70%,54%)" opacity="0.64"/><path d="M27.38 22.48 L7.49 21.88 L23.92 34.22 Z" fill="hsl(27.7,70%,65%)" opacity="0.62"/><ellipse cx="61.25" cy="28.34" rx="2.39" ry="3.10" fill="hsl(34.7,60%,73%)" opacity="0.73"/><circle cx="41.98" cy="50.53" r="3.97" fill="hsl(41.7,70%,76%)" opacity="0.46"/><path d="M42.83 60.48 L11.97 61.45 L2.21 53.67 Z" fill="hsl(48.7,70%,48%)" opacity="0.39"/><ellipse cx="17.42" cy="46.96" rx="4.07" ry="2.39" fill="hsl(55.7,60%,66%)" opacity="0.80"/><circle cx="56.49" cy="7.66" r="3.72" fill="hsl(62.7,70%,64%)" opacity="0.48"/><path d="M1.63 26.80 L2.65 22.71 L3.04 45.47 Z" fill="hsl(69.7,70%,56%)" opacity="0.44"/><ellipse cx="31.40" cy="62.29" rx="4.64" ry="3.63" fill="hsl(76.7,60%,35%)" opacity="0.67"/><circle cx="44.43" cy="0.23" r="6.19" fill="hsl(83.7,70%,62%)" opacity="0.48"/><path d="M39.44 9.45 L11.40 41.39 L46.63 5.05 Z" fill="hsl(90.7,70%,67%)" opacity="0.36"/><ellipse cx="63.88" cy="43.94" rx="4.81" ry="5.39" fill="hsl(97.7,60%,56%)" opacity="0.57"/><circle cx="40.51" cy="0.54" r="1.64" fill="hsl(104.7,70%,70%)" opacity="0.75"/><path d="M54.48 3.18 L9.97 34.78 L57.31 26.10 Z" fill="hsl(111.7,70%,79%)" opacity="0.67"/><ellipse cx="31.86" cy="19.61" rx="3.45" ry="5.41" fill="hsl(118.7,60%,41%)" opacity="0.56"/><circle cx="59.35" cy="53.97" r="1.98" fill="hsl(125.7,70%,58%)" opacity="0.98"/><path d="M41.65 14.44 L56.41 25.18 L12.23 55.44 Z" fill="hsl(132.7,70%,57%)" opacity="0.41"/><ellipse cx="5.19" cy="60.45" rx="4.80" ry="2.91" fill="hsl(139.7,60%,57%)" opacity="0.82"/><circle cx="21.12" cy="46.43" r="6.39" fill="hsl(146.7,70%,74%)" opacity="0.77"/><path d="M1.61 9.40 L37.18 61.48 L17.51 9.61 Z" fill="hsl(153.7,70%,43%)" opacity="0.72"/><ellipse cx="15.88" cy="10.97" rx="4.57" ry="2.68" fill="hsl(160.7,60%,52%)" opacity="0.66"/><circle cx="27.32" cy="62.84" r="2.62" fill="hsl(167.7,70%,62%)" opacity="0.90"/><path d="M22.19 25.41 L45.05 48.92 L9.22 57.87 Z" fill="hsl(174.7,70%,51%)" opacity="0.39"/><ellipse cx="27.75" cy="30.49" rx="1.37" ry="4.96" fill="hsl(181.7,60%,58%)" opacity="0.71"/><circle cx="54.88" cy="47.79" r="3.09" fill="hsl(188.7,70%,54%)" opacity="0.77"/><path d="M3.65 52.50 L50.64 29.19 L52.00 61.40 Z" fill="hsl(195.7,70%,77%)" opacity="0.37"/><ellipse cx="20.45" cy="0.93" rx="4.98" ry="3.78" fill="hsl(202.7,60%,64%)" opacity="0.38"/><circle cx="44.57" cy="37.27" r="2.26" fill="hsl(209.7,70%,74%)" opacity="0.53"/><path d="M12.49 35.80 L44.22 56.88 L48.12 13.81 Z" fill="hsl(216.7,70%,66%)" opacity="0.75"/><ellipse cx="49.12" cy="24.13" rx="2.82" ry="3.89" fill="hsl(223.7,60%,66%)" opacity="0.88"/><circle cx="4.78" cy="12.23" r="3.30" fill="hsl(230.7,70%,42%)" opacity="0.94"/><path d="M30.11 32.61 L53.11 61.44 L58.18 50.59 Z" fill="hsl(237.7,70%,67%)" opacity="0.40"/><ellipse cx="36.64" cy="60.06" rx="5.27" ry="2.22" fill="hsl(244.7,60%,44%)" opacity="0.82"/><circle cx="57.63" cy="28.64" r="4.88" fill="hsl(251.7,70%,50%)" opacity="0.98"/><path d="M59.36 6.50 L42.68 27.59 L26.94 31.22 Z" fill="hsl(258.7,70%,76%)" opacity="0.57"/><ellipse cx="6.70" cy="2.26" rx="1.13" ry="1.39" fill="hsl(265.7,60%,70%)" opacity="0.31"/><circle cx="38.24" cy="13.59" r="1.39" fill="hsl(272.7,70%,80%)" opacity="0.85"/><path d="M62.30 29.04 L11.10 8.60 L6.08 28.53 Z" fill="hsl(279.7,70%,66%)" opacity="0.46"/><ellipse cx="9.94" cy="4.15" rx="4.17" ry="3.64" fill="hsl(286.7,60%,45%)" opacity="0.58"/><circle cx="8.66" cy="15.14" r="3.68" fill="hsl(293.7,70%,58%)" opacity="0.60"/><path d="M58.73 22.06 L10.78 55.32 L54.51 42.00 Z" fill="hsl(300.7,70%,48%)" opacity="0.71"/><ellipse cx="59.92" cy="3.19" rx="5.20" ry="5.50" fill="hsl(307.7,60%,71%)" opacity="0.35"/><circle cx="21.34" cy="22.42" r="5.04" fill="hsl(314.7,70%,46%)" opacity="0.61"/><path d="M20.49 60.99 L22.88 58.89 L60.35 12.10 Z" fill="hsl(321.7,70%,59%)" opacity="0.62"/><ellipse cx="20.85" cy="3.08" rx="3.70" ry="5.43" fill="hsl(328.7,60%,38%)" opacity="0.66"/><circle cx="49.53" cy="18.50" r="2.03" fill="hsl(335.7,70%,69%)" opacity="0.76"/><path d="M51.78 19.26 L44.60 16.19 L4.05 58.49 Z" fill="hsl(342.7,70%,48%)" opacity="0.39"/><ellipse cx="50.62" cy="42.08" rx="1.99" ry="1.51" fill="hsl(349.7,60%,62%)" opacity="0.88"/><circle cx="37.00" cy="39.62" r="3.44" fill="hsl(356.7,70%,75%)" opacity="0.68"/><path d="M33.92 8.66 L28.40 36.06 L25.89 44.68 Z" fill="hsl(3.7,70%,54%)" opacity="0.74"/><ellipse cx="2.91" cy="16.40" rx="3.03" ry="5.35" fill="hsl(10.7,60%,72%)" opacity="0.45"/><circle cx="7.97" cy="44.24" r="1.36" fill="hsl(17.7,70%,71%)" opacity="0.87"/><path d="M8.26 62.56 L18.77 22.56 L31.71 51.68 Z" fill="hsl(24.7,70%,66%)" opacity="0.42"/><ellipse cx="24.64" cy="8.32" rx="5.65" ry="5.48" fill="hsl(31.7,60%,47%)" opacity="0.64"/><circle cx="55.49" cy="45.68" r="1.81" fill="hsl(38.7,70%,53%)" opacity="0.61"/><path d="M35.06 56.85 L13.22 39.96 L61.76 60.50 Z" fill="hsl(45.7,70%,51%)" opacity="0.39"/><ellipse cx="8.38" cy="23.77" rx="1.20" ry="2.47" fill="hsl(52.7,60%,67%)" opacity="0.67"/><circle cx="51.17" cy="52.66" r="3.37" fill="hsl(59.7,70%,60%)" opacity="0.99"/><path d="M40.87 48.64 L61.22 10.15 L58.78 46.98 Z" fill="hsl(66.7,70%,43%)" opacity="0.33"/><ellipse cx="1.78" cy="52.03" rx="1.03" ry="1.57" fill="hsl(73.7,60%,73%)" opacity="0.72"/><circle cx="54.65" cy="8.51" r="5.29" fill="hsl(80.7,70%,48%)" opacity="0.98"/><path d="M3.72 19.24 L23.73 53.14 L5.49 11.70 Z" fill="hsl(87.7,70%,54%)" opacity="0.61"/><ellipse cx="34.05" cy="56.18" rx="3.26" ry="2.21" fill="hsl(94.7,60%,43%)" opacity="0.63"/><circle cx="8.13" cy="17.07" r="1.31" fill="hsl(101.7,70%,72%)" opacity="0.57"/><path d="M5.08 51.70 L4.78 55.81 L19.93 15.25 Z" fill="hsl(108.7,70%,68%)" opacity="0.60"/><ellipse cx="10.65" cy="33.81" rx="4.06" ry="3.13" fill="hsl(115.7,60%,52%)" opacity="0.46"/><circle cx="18.95" cy="6.23" r="5.81" fill="hsl(122.7,70%,57%)" opacity="0.57"/><path d="M52.77 61.36 L41.13 30.21 L56.66 61.66 Z" fill="hsl(129.7,70%,70%)" opacity="0.36"/><ellipse cx="55.34" cy="43.50" rx="2.16" ry="1.28" fill="hsl(136.7,60%,64%)" opacity="0.35"/><circle cx="61.40" cy="46.76" r="3.85" fill="hsl(143.7,70%,43%)" opacity="0.81"/><path d="M56.97 43.79 L22.55 59.17 L10.78 57.18 Z" fill="hsl(150.7,70%,78%)" opacity="0.37"/><ellipse cx="56.48" cy="49.12" rx="4.30" ry="3.99" fill="hsl(157.7,60%,67%)" opacity="0.70"/><circle cx="22.26" cy="11.32" r="1.81" fill="hsl(164.7,70%,71%)" opacity="1.00"/><path d="M58.01 50.85 L29.37 60.84 L13.05 8.47 Z" fill="hsl(171.7,70%,45%)" opacity="0.56"/><ellipse cx="62.46" cy="62.98" rx="4.28" ry="2.05" fill="hsl(178.7,60%,38%)" opacity="0.90"/><circle cx="9.41" cy="5.05" r="5.09" fill="hsl(185.7,70%,40%)" opacity="0.89"/><path d="M59.04 61.05 L50.48 2.62 L26.74 31.80 Z" fill="hsl(192.7,70%,73%)" opacity="0.75"/><ellipse cx="25.72" cy="48.54" rx="5.56" ry="5.37" fill="hsl(199.7,60%,73%)" opacity="0.70"/><circle cx="54.16" cy="22.33" r="2.35" fill="hsl(206.7,70%,62%)" opacity="0.71"/><path d="M16.11 30.66 L41.68 5.68 L58.20 33.70 Z" fill="hsl(213.7,70%,60%)" opacity="0.33"/><ellipse cx="54.84" cy="9.85" rx="5.94" ry="3.47" fill="hsl(220.7,60%,51%)" opacity="0.82"/><circle cx="5.42" cy="48.57" r="5.68" fill="hsl(227.7,70%,69%)" opacity="0.59"/><path d="M17.20 0.19 L39.80 37.69 L23.21 43.28 Z" fill="hsl(234.7,70%,44%)" opacity="0.73"/><ellipse cx="18.32" cy="59.31" rx="1.20" ry="5.61" fill="hsl(241.7,60%,68%)" opacity="0.73"/><circle cx="44.20" cy="6.84" r="4.39" fill="hsl(248.7,70%,47%)" opacity="0.83"/><path d="M48.40 40.56 L25.06 33.63 L54.99 50.93 Z" fill="hsl(255.7,70%,66%)" opacity="0.68"/><ellipse cx="62.70" cy="35.39" rx="1.26" ry="5.51" fill="hsl(262.7,60%,63%)" opacity="0.87"/><circle cx="56.30" cy="25.57" r="3.69" fill="hsl(269.7,70%,63%)" opacity="0.61"/><path d="M36.56 13.25 L57.33 34.41 L20.50 4.00 Z" fill="hsl(276.7,70%,51%)" opacity="0.53"/><ellipse cx="33.15" cy="50.73" rx="1.98" ry="5.25" fill="hsl(283.7,60%,52%)" opacity="0.39"/><circle cx="52.64" cy="2.04" r="2.70" fill="hsl(290.7,70%,46%)" opacity="0.89"/><path d="M48.35 62.06 L10.54 60.58 L8.07 54.94 Z" fill="hsl(297.7,70%,49%)" opacity="0.31"/><ellipse cx="58.13" cy="1.10" rx="4.47" ry="1.54" fill="hsl(304.7,60%,71%)" opacity="0.39"/><circle cx="12.16" cy="14.19" r="3.88" fill="hsl(311.7,70%,55%)" opacity="0.87"/><path d="M43.84 37.09 L61.96 31.15 L2.32 50.09 Z" fill="hsl(318.7,70%,79%)" opacity="0.59"/><ellipse cx="13.95" cy="48.77" rx="4.28" ry="3.51" fill="hsl(325.7,60%,46%)" opacity="0.72"/><circle cx="17.75" cy="15.62" r="5.38" fill="hsl(332.7,70%,59%)" opacity="0.51"/><path d="M23.86 58.82 L58.56 41.47 L16.91 6.59 Z" fill="hsl(339.7,70%,63%)" opacity="0.74"/><ellipse cx="9.71" cy="36.91" rx="1.03" ry="5.71" fill="hsl(346.7,60%,79%)" opacity="0.61"/><circle cx="26.46" cy="44.08" r="2.77" fill="hsl(353.7,70%,56%)" opacity="0.57"/><path d="M55.51 32.73 L59.89 17.22 L0.84 28.71 Z" fill="hsl(0.7,70%,61%)" opacity="0.53"/><ellipse cx="52.99" cy="57.59" rx="4.56" ry="4.85" fill="hsl(7.7,60%,39%)" opacity="0.63"/><circle cx="22.74" cy="11.42" r="3.13" fill="hsl(14.7,70%,67%)" opacity="0.50"/><path d="M0.14 61.31 L16.45 2.51 L20.51 5.84 Z" fill="hsl(21.7,70%,65%)" opacity="0.46"/><ellipse cx="31.07" cy="61.95" rx="4.26" ry="5.34" fill="hsl(28.7,60%,39%)" opacity="0.50"/><circle cx="0.48" cy="38.84" r="6.66" fill="hsl(35.7,70%,75%)" opacity="0.58"/></svg>