<svg xmlns="http://www.w3.org/2000/svg" width="64" height="64" viewBox="0 0 64 64"><rect width="64" height="64" rx="8" fill="hsl(43.1,65%,45%)"/><circle cx="16.89" cy="51.79" r="1.71" fill="hsl(43.1,70%,53%)" opacity="0.62"/><path d="M29.25 24.22 L38.60 8.66 L45.96 29.76 Z" fill="hsl(50.1,70%,42%)" opacity="0.77"/><ellipse cx="26.62" cy="28.56" rx="1.37" ry="4.67" fill="hsl(57.1,60%,53%)" opacity="0.83"/><circle cx="31.55" cy="18.12" r="1.39" fill="hsl(64.1,70%,66%)" opacity="0.65"/><path d="M29.76 4.85 L8.65 53.87 L48.80 37.12 Z" fill="hsl(71.1,70%,66%)" opacity="0.40"/><ellipse cx="46.68" cy="2.37" rx="4.01" ry="1.32" fill="hsl(78.1,60%,48%)" opacity="0.51"/><circle cx="42.55" cy="7.30" r="6.79" fill="hsl(85.1,70%,46%)" opacity="0.93"/><path d="M56.87 36.18 L6.42 43.42 L54.54 47.40 Z" fill="hsl(92.1,70%,40%)" opacity="0.79"/><ellipse cx="4.28" cy="34.07" rx="4.64" ry="1.58" fill="hsl(99.1,60%,45%)" opacity="0.85"/><circle cx="8.24" cy="2.34" r="6.62" fill="hsl(106.1,70%,70%)" opacity="0.45"/><path d="M7.44 40.97 L53.83 42.81 L38.83 20.01 Z" fill="hsl(113.1,70%,77%)" opacity="0.52"/><ellipse cx="23.04" cy="61.52" rx="4.44" ry="2.02" fill="hsl(120.1,60%,60%)" opacity="0.71"/><circle cx="28.67" cy="55.42" r="3.79" fill="hsl(127.1,70%,61%)" opacity="0.85"/><path d="M11.96 30.17 L45.32 6.05 L24.93 60.22 Z" fill="hsl(134.1,70%,66%)" opacity="0.73"/><ellipse cx="17.03" cy="40.45" rx="1.34" ry="4.12" fill="hsl(141.1,60%,76%)" opacity="0.72"/><circle cx="14.04" cy="55.60" r="3.39" fill="hsl(148.1,70%,63%)" opacity="0.74"/><path d="M37.29 0.48 L10.40 58.29 L12.80 49.97 Z" fill="hsl(155.1,70%,49%)" opacity="0.61"/><ellipse cx="6.77" cy="33.87" rx="5.26" ry="3.02" fill="hsl(162.1,60%,53%)" opacity="0.66"/><circle cx="30.85" cy="60.60" r="5.78" fill="hsl(169.1,70%,79%)" opacity="0.79"/><path d="M6.95 52.54 L37.32 38.30 L46.28 42.39 Z" fill="hsl(176.1,70%,70%)" opacity="0.57"/><ellipse cx="8.22" cy="22.26" rx="2.85" ry="5.27" fill="hsl(183.1,60%,76%)" opacity="0.37"/><circle cx="7.54" cy="58.31" r="4.34" fill="hsl(190.1,70%,47%)" opacity="0.82"/><path d="M62.50 62.39 L4.10 6.99 L33.76 4.97 Z" fill="hsl(197.1,70%,65%)" opacity="0.49"/><ellipse cx="3.16" cy="57.01" rx="5.89" ry="1.69" fill="hsl(204.1,60%,76%)" opacity="0.83"/><circle cx="7.26" cy="8.21" r="1.02" fill="hsl(211.1,70%,59%)" opacity="0.49"/><path d="M29.98 22.69 L57.30 5.05 L11.78 42.42 Z" fill="hsl(218.1,70%,79%)" opacity="0.74"/><ellipse cx="31.72" cy="37.48" rx="2.61" ry="1.10" fill="hsl(225.1,60%,67%)" opacity="0.51"/><circle cx="6.89" cy="55.30" r="5.97" fill="hsl(232.1,70%,73%)" opacity="0.70"/><path d="M38.17 5.47 L6.19 14.48 L32.03 12.21 Z" fill="hsl(239.1,70%,60%)" opacity="0.32"/><ellipse cx="50.71" cy="57.81" rx="2.52" ry="5.70" fill="hsl(246.1,60%,52%)" opacity="0.38"/><circle cx="36.54" cy="24.07" r="1.77" fill="hsl(253.1,70%,76%)" opacity="0.47"/><path d="M63.45 46.53 L36.99 19.59 L29.27 60.86 Z" fill="hsl(260.1,70%,63%)" opacity="0.43"/><ellipse cx="28.67" cy="4.00" rx="1.56" ry="4.44" fill="hsl(267.1,60%,77%)" opacity="0.76"/><circle cx="48.79" cy="27.99" r="2.30" fill="hsl(274.1,70%,69%)" opacity="0.51"/><path d="M24.12 32.97 L43.91 55.21 L22.51 55.54 Z" fill="hsl(281.1,70%,66%)" opacity="0.32"/><ellipse cx="14.02" cy="48.31" rx="5.15" ry="1.01" fill="hsl(288.1,60%,46%)" opacity="0.76"/><circle cx="2.53" cy="32.33" r="3.00" fill="hsl(295.1,70%,42%)" opacity="0.95"/><path d="M61.12 62.71 L32.37 14.84 L37.60 48.09 Z" fill="hsl(302.1,70%,79%)" opacity="0.73"/><ellipse cx="56.78" cy="49.64" rx="4.53" ry="3.84" fill="hsl(309.1,60%,73%)" opacity="0.67"/><circle cx="2.13" cy="24.86" r="6.49" fill="hsl(316.1,70%,55%)" opacity="0.43"/><path d="M20.78 41.09 L62.57 34.81 L49.85 30.09 Z" fill="hsl(323.1,70%,77%)" opacity="0.63"/><ellipse cx="45.79" cy="7.73" rx="1.35" ry="5.90" fill="hsl(330.1,60%,65%)" opacity="0.59"/><circle cx="12.80" cy="55.68" r="6.76" fill="hsl(337.1,70%,44%)" opacity="0.55"/><path d="M35.91 54.80 L25.29 45.21 L7.35 26.11 Z" fill="hsl(344.1,70%,66%)" opacity="0.53"/><ellipse cx="10.92" cy="16.58" rx="5.60" ry="1.15" fill="hsl(351.1,60%,51%)" opacity="0.74"/><circle cx="40.95" cy="10.63" r="4.50" fill="hsl(358.1,70%,74%)" opacity="0.83"/><path d="M60.20 42.99 L10.71 62.14 L3.57 0.59 Z" fill="hsl(5.1,70%,67%)" opacity="0.68"/><ellipse cx="63.77" cy="13.26" rx="5.25" ry="4.24" fill="hsl(12.1,60%,39%)" opacity="0.86"/><circle cx="63.36" cy="43.16" r="5.29" fill="hsl(19.1,70%,58%)" opacity="0.50"/><path d="M45.22 14.95 L20.89 27.06 L44.28 19.93 Z" fill="hsl(26.1,70%,70%)" opacity="0.41"/><ellipse cx="58.59" cy="47.65" rx="1.22" ry="1.71" fill="hsl(33.1,60%,61%)" opacity="0.90"/><circle cx="19.71" cy="20.66" r="2.83" fill="hsl(40.1,70%,79%)" opacity="0.82"/><path d="M11.75 20.37 L53.44 16.76 L33.48 32.36 Z" fill="hsl(47.1,70%,71%)" opacity="0.65"/><ellipse cx="49.84" cy="36.25" rx="1.89" ry="2.30" fill="hsl(54.1,60%,48%)" opacity="0.84"/><circle cx="29.87" cy="46.57" r="5.62" fill="hsl(61.1,70%,80%)" opacity="0.78"/><path d="M16.99 12.93 L35.75 20.09 L26.81 5.19 Z" fill="hsl(68.1,70%,56%)" opacity="0.63"/><ellipse cx="44.38" cy="40.02" rx="1.39" ry="4.26" fill="hsl(75.1,60%,54%)" opacity="0.45"/><circle cx="41.60" cy="36.63" r="6.14" fill="hsl(82.1,70%,64%)" opacity="0.46"/><path d="M32.31 47.49 L0.02 23.41 L23.14 46.63 Z" fill="hsl(89.1,70%,69%)" opacity="0.68"/><ellipse cx="50.94" cy="27.52" rx="5.80" ry="3.80" fill="hsl(96.1,60%,72%)" opacity="0.31"/><circle cx="2.51" cy="55.15" r="1.69" fill="hsl(103.1,70%,61%)" opacity="0.59"/><path d="M61.59 23.74 L33.42 2.18 L60.30 3.12 Z" fill="hsl(110.1,70%,56%)" opacity="0.62"/><ellipse cx="13.07" cy="29.16" rx="5.47" ry="4.84" fill="hsl(117.1,60%,39%)" opacity="0.34"/><circle cx="20.02" cy="44.64" r="5.92" fill="hsl(124.1,70%,57%)" opacity="0.75"/><path d="M61.01 35.62 L0.35 20.25 L26.23 3.26 Z" fill="hsl(131.1,70%,41%)" opacity="0.39"/><ellipse cx="9.59" cy="20.52" rx="1.15" ry="3.73" fill="hsl(138.1,60%,70%)" opacity="0.58"/><circle cx="32.38" cy="4.25" r="1.14" fill="hsl(145.1,70%,50%)" opacity="0.56"/><path d="M45.70 58.29 L24.38 7.85 L22.47 42.13 Z" fill="hsl(152.1,70%,52%)" opacity="0.77"/><ellipse cx="62.52" cy="11.47" rx="1.65" ry="3.06" fill="hsl(159.1,60%,41%)" opacity="0.86"/><circle cx="16.05" cy="1.30" r="1.59" fill="hsl(166.1,70%,52%)" opacity="0.46"/><path d="M56.09 2.15 L61.29 40.58 L37.28 59.60 Z" fill="hsl(173.1,70%,66%)" opacity="0.60"/><ellipse cx="19.20" cy="11.28" rx="3.92" ry="1.45" fill="hsl(180.1,60%,60%)" opacity="0.42"/><circle cx="25.15" cy="34.13" r="4.61" fill="hsl(187.1,70%,51%)" opacity="0.98"/><path d="M49.65 11.88 L40.30 1.26 L60.83 16.88 Z" fill="hsl(194.1,70%,50%)" opacity="0.39"/><ellipse cx="32.24" cy="57.98" rx="2.58" ry="4.07" fill="hsl(201.1,60%,47%)" opacity="0.49"/><circle cx="59.23" cy="57.75" r="5.22" fill="hsl(208.1,70%,77%)" opacity="0.70"/><path d="M24.40 30.31 L56.78 17.92 L14.26 12.83 Z" fill="hsl(215.1,70%,52%)" opacity="0.59"/><ellipse cx="10.70" cy="61.93" rx="2.56" ry="5.17" fill="hsl(222.1,60%,52%)" opacity="0.78"/><circle cx="35.71" cy="31.63" r="1.35" fill="hsl(229.1,70%,55%)" opacity="0.89"/><path d="M27.28 43.68 L43.68 55.59 L21.61 2.61 Z" fill="hsl(236.1,70%,45%)" opacity="0.66"/><ellipse cx="17.77" cy="28.09" rx="4.18" ry="5.45" fill="hsl(243.1,60%,53%)" opacity="0.73"/><circle cx="44.64" cy="18.67" r="3.31" fill="hsl(250.1,70%,78%)" opacity="0.44"/><path d="M2.83 24.92 L5.45 60.37 L4.07 13.44 Z" fill="hsl(257.1,70%,65%)" opacity="0.70"/><ellipse cx="27.28" cy="7.81" rx="3.01" ry="1.01" fill="hsl(264.1,60%,70%)" opacity="0.72"/><circle cx="63.85" cy="54.84" r="2.53" fill="hsl(271.1,70%,54%)" opacity="0.44"/><path d="M7.95 53.63 L37.93 2.46 L47.19 57.16 Z" fill="hsl(278.1,70%,43%)" opacity="0.62"/><ellipse cx="19.09" cy="27.46" rx="1.37" ry="2.67" fill="hsl(285.1,60%,73%)" opacity="0.56"/><circle cx="62.46" cy="48.91" r="5.04" fill="hsl(292.1,70%,42%)" opacity="0.82"/><path d="M26.84 30.24 L51.52 25.12 L27.00 51.53 Z" fill="hsl(299.1,70%,70%)" opacity="0.64"/><ellipse cx="10.30" cy="51.20" rx="3.76" ry="3.01" fill="hsl(306.1,60%,78%)" opacity="0.73"/><circle cx="52.50" cy="28.87" r="2.12" fill="hsl(313.1,70%,61%)" opacity="0.42"/><path d="M21.04 24.40 L49.03 6.71 L32.67 25.30 Z" fill="hsl(320.1,70%,56%)" opacity="0.43"/><ellipse cx="34.14" cy="37.57" rx="2.61" ry="5.41" fill="hsl(327.1,60%,66%)" opacity="0.61"/><circle cx="41.48" cy="22.39" r="4.08" fill="hsl(334.1,70%,70%)" opacity="0.56"/><path d="M16.96 38.47 L46.91 63.24 L24.94 20.53 Z" fill="hsl(341.1,70%,69%)" opacity="0.45"/><ellipse cx="12.92" cy="32.76" rx="2.94" ry="4.49" fill="hsl(348.1,60%,36%)" opacity="0.47"/><circle cx="31.23" cy="2.80" r="1.09" fill="hsl(355.1,70%,57%)" opacity="0.83"/><path d="M22.47 32.69 L4.99 44.96 L0.59 33.27 Z" fill="hsl(2.1,70%,64%)" opacity="0.63"/><ellipse cx="25.78" cy="22.82" rx="1.10" ry="2.50" fill="hsl(9.1,60%,49%)" opacity="0.72"/><circle cx="13.69" cy="50.56" r="4.60" fill="hsl(16.1,70%,61%)" opacity="0.88"/><path d="M9.04 13.06 L58.20 32.76 L10.02 12.21 Z" fill="hsl(23.1,70%,50%)" opacity="0.50"/><ellipse cx="47.05" cy="33.75" rx="4.74" ry="1.85" fill="hsl(30.1,60%,52%)" opacity="0.87"/><circle cx="16.08" cy="29.05" r="1.15" fill="hsl(37.1,70%,72%)" opacity="0.61"/><path d="M62.91 41.92 L0.38 48.77 L49.77 14.70 Z" fill="hsl(44.1,70%,52%)" opacity="0.46"/><ellipse cx="56.67" cy="59.13" rx="3.60" ry="5.48" fill="hsl(51.1,60%,50%)" opacity="0.75"/><circle cx="47.42" cy="16.67" r="2.60" fill="hsl(58.1,70%,41%)" opacity="0.47"/><path d="M44.75 28.52 L11.15 4.23 L49.94 38.85 Z" fill="hsl(65.1,70%,79%)" opacity="0.39"/><ellipse cx="45.85" cy="21.36" rx="2.17" ry="4.70" fill="hsl(72.1,60%,40%)" opacity="0.56"/><circle cx="17.09" cy="59.49" r="1.86" fill="hsl(79.1,70%,79%)" opacity="0.99"/><path d="M3.22 20.30 L35.33 15.52 L21.18 33.68 Z" fill="hsl(86.1,70%,51%)" opacity="0.74"/><ellipse cx="10.11" cy="61.65" rx="4.34" ry="3.76" fill="hsl(93.1,60%,71%)" opacity="0.32"/><circle cx="33.59" cy="7.76" r="6.78" fill="hsl(100.1,70%,59%)" opacity="0.53"/><path d="M40.81 47.07 L17.69 13.96 L49.51 50.29 Z" fill="hsl(107.1,70%,80%)" opacity="0.61"/><ellipse cx="19.88" cy="54.35" rx="4.59" ry="1.69" fill="hsl(114.1,60%,46%)" opacity="0.82"/><circle cx="48.12" cy="46.58" r="3.21" fill="hsl(121.1,70%,53%)" opacity="0.77"/><path d="M49.88 39.08 L42.23 7.45 L44.07 18.55 Z" fill="hsl(128.1,70%,71%)" opacity="0.57"/><ellipse cx="4.76" cy="10.16" rx="5.86" ry="1.54" fill="hsl(135.1,60%,38%)" opacity="0.89"/><circle cx="0.37" cy="28.30" r="3.62" fill="hsl(142.1,70%,74%)" opacity="0.93"/><path d="M32.98 20.88 L38.94 41.18 L22.12 7.05 Z" fill="hsl(149.1,70%,79%)" opacity="0.53"/><ellipse cx="36.92" cy="32.35" rx="3.21" ry="3.44" fill="hsl(156.1,60%,57%)" opacity="0.81"/><circle cx="49.17" cy="25.88" r="2.26" fill="hsl(163.1,70%,55%)" opacity="0.89"/><path d="M48.21 8.34 L54.81 8.59 L19.42 51.86 Z" fill="hsl(170.1,70%,72%)" opacity="0.38"/><ellipse cx="5.33" cy="55.38" rx="1.72" ry="3.30" fill="hsl(177.1,60%,75%)" opacity="0.67"/><circle cx="24.10" cy="63.89" r="3.36" fill="hsl(184.1,70%,61%)" opacity="0.44"/><path d="M27.93 2.34 L40.77 35.53 L7.35 33.37 Z" fill="hsl(191.1,70%,65%)" opacity="0.44"/><ellipse cx="62.15" cy="32.17" rx="1.61" ry="5.31" fill="hsl(198.1,60%,69%)" opacity="0.71"/><circle cx="25.22" cy="61.55" r="1.97" fill="hsl(205.1,70%,65%)" opacity="0.78"/><path d="M37.19 53.94 L48.95 21.61 L20.91 20.82 Z" fill="hsl(212.1,70%,67%)" opacity="0.61"/><ellipse cx="44.21" cy="21.36" rx="2.93" ry="2.97" fill="hsl(219.1,60%,58%)" opacity="0.36"/><circle cx="13.90" cy="42.73" r="1.75" fill="hsl(226.1,70%,62%)" opacity="0.89"/><path d="M40.71 48.36 L38.03 1.19 L8.04 22.30 Z" fill="hsl(233.1,70%,67%)" opacity="0.65"/><ellipse cx="34.19" cy="51.75" rx="4.09" ry="1.16" fill="hsl(240.1,60%,57%)" opacity="0.44"/><circle cx="12.45" cy="35.19" r="5.75" fill="hsl(247.1,70%,72%)" opacity="0.98"/><path d="M1.69 16.56 L16.87 31.00 L6.77 47.12 Z" fill="hsl(254.1,70%,52%)" opacity="0.67"/><ellipse cx="6.30" cy="18.87" rx="1.22" ry="3.30" fill="hsl(261.1,60%,57%)" opacity="0.46"/><circle cx="46.81" cy="49.82" r="6.82" fill="hsl(268.1,70%,75%)" opacity="0.47"/><path d="M15.53 9.13 L25.70 9.22 L9.70 7.07 Z" fill="hsl(275.1,70%,49%)" opacity="0.36"/><ellipse cx="58.50" cy="41.03" rx="2.51" ry="1.99" fill="hsl(282.1,60%,64%)" opacity="0.70"/><circle cx="39.62" cy="10.75" r="3.01" fill="hsl(289.1,70%,50%)" opacity="0.98"/><path d="M35.34 23.09 L14.39 2.27 L45.76 1.24 Z" fill="hsl(296.1,70%,53%)" opacity="0.51"/><ellipse cx="33.15" cy="27.51" rx="2.63" ry="3.20" fill="hsl(303.1,60%,59%)" opacity="0.35"/><circle cx="35.20" cy="31.18" r="1.26" fill="hsl(310.1,70%,67%)" opacity="0.93"/><path d="M35.12 10.51 L13.47 60.45 L5.21 63.87 Z" fill="hsl(317.1,70%,56%)" opacity="0.46"/><ellipse cx="13.14" cy="35.51" rx="4.93" ry="4.50" fill="hsl(324.1,60%,42%)" opacity="0.77"/><circle cx="17.95" cy="38.03" r="2.78" fill="hsl(331.1,70%,45%)" opacity="0.97"/><path d="M53.68 8.86 L15.91 14.12 L0.70 15.61 Z" fill="hsl(338.1,70%,42%)" opacity="0.72"/><ellipse cx="42.86" cy="59.08" rx="5.54" ry="2.75" fill="hsl(345.1,60%,71%)" opacity="0.33"/><circle cx="58.22" cy="51.74" r="1.42" fill="hsl(352.1,70%,59%)" opacity="0.70"/><path d="M3.11 38.66 L57.95 41.82 L48.17 36.26 Z" fill="hsl(359.1,70%,40%)" opacity="0.70"/><ellipse cx="3.14" cy="42.07" rx="2.88" ry="5.12" fill="hsl(6.1,60%,57%)" opacity="0.45"/><circle cx="36.97" cy="56.62" r="4.53" fill="hsl(13.1,70%,76%)" opacity="0.48"/><path d="M10.00 13.62 L28.84 30.85 L30.03 40.43 Z" fill="hsl(20.1,70%,73%)" opacity="0.41"/><ellipse cx="28.75" cy="60.71" rx="2.64" ry="1.04" fill="hsl(27.1,60%,72%)" opacity="0.39"/><circle cx="9.31" cy="63.86" r="5.62" fill="hsl(34.1,70%,47%)" opacity="0.49"/><path d="M54.35 49.12 L31.42 20.37 L29.71 61.70 Z" fill="hsl(41.1,70%,56%)" opacity="0.53"/><ellipse cx="3.94" cy="13.83" rx="4.68" ry="5.13" fill="hsl(48.1,60%,49%)" opacity="0.58"/><circle cx="56.23" cy="2.87" r="4.46" fill="hsl(55.1,70%,72%)" opacity="0.53"/><path d="M19.86 29.54 L29.52 24.74 L46.96 18.27 Z" fill="hsl(62.1,70%,76%)" opacity="0.33"/><ellipse cx="31.64" cy="9.70" rx="2.46" ry="5.90" fill="hsl(69.1,60%,77%)" opacity="0.71"/><circle cx="8.69" cy="44.55" r="6.60" fill="hsl(76.1,70%,66%)" opacity="0.55"/><path d="M58.05 5.14 L2.97 55.08 L40.55 36.48 Z" fill="hsl(83.1,70%,57%)" opacity="0.63"/><ellipse cx="34.86" cy="51.66" rx="2.31" ry="2.25" fill="hsl(90.1,60%,39%)" opacity="0.36"/><circle cx="2.15" cy="12.95" r="3.37" fill="hsl(97.1,70%,40%)" opacity="0.46"/><path d="M35.57 54.51 L10.23 27.28 L43.65 9.55 Z" fill="hsl(104.1,70%,66%)" opacity="0.36"/><ellipse cx="45.73" cy="1.28" rx="2.57" ry="5.34" fill="hsl(111.1,60%,80%)" opacity="0.79"/><circle cx="28.69" cy="8.24" r="2.58" fill="hsl(118.1,70%,41%)" opacity="0.92"/><path d="M28.50 30.57 L59.63 18.96 L14.82 36.57 Z" fill="hsl(125.1,70%,60%)" opacity="0.54"/><ellipse cx="6.77" cy="32.44" rx="4.79" ry="3.85" fill="hsl(132.1,60%,51%)" opacity="0.52"/><circle cx="26.30" cy="38.70" r="2.63" fill="hsl(139.1,70%,59%)" opacity="0.79"/><path d="M12.77 26.77 L40.53 5.37 L46.25 0.98 Z" fill="hsl(146.1,70%,43%)" opacity="0.52"/><ellipse cx="37.07" cy="2.96" rx="4.50" ry="2.89" fill="hsl(153.1,60%,53%)" opacity="0.77"/><circle cx="48.36" cy="49.69" r="2.64" fill="hsl(160.1,70%,73%)" opacity="0.88"/><path d="M58.75 12.20 L46.98 50.41 L50.10 34.83 Z" fill="hsl(167.1,70%,45%)" opacity="0.70"/><ellipse cx="23.41" cy="15.65" rx="3.65" ry="2.54" fill="hsl(174.1,60%,57%)" opacity="0.71"/><circle cx="32.14" cy="22.39" r="5.65" fill="hsl(181.1,70%,75%)" opacity="0.90"/><path d="M57.70 34.78 L12.75 43.31 L17.43 63.53 Z" fill="hsl(188.1,70%,73%)" opacity="0.42"/><ellipse cx="25.73" cy="53.15" rx="4.51" ry="1.02" fill="hsl(195.1,60%,48%)" opacity="0.38"/><circle cx="27.09" cy="55.35" r="1.21" fill="hsl(202.1,70%,51%)" opacity="0.86"/><path d="M37.63 6.01 L7.38 28.67 L27.70 55.29 Z" fill="hsl(209.1,70%,67%)" opacity="0.52"/><ellipse cx="58.21" cy="41.58" rx="2.22" ry="5.72" fill="hsl(216.1,60%,78%)" opacity="0.63"/><circle cx="31.18" cy="47.20" r="1.23" fill="hsl(223.1,70%,76%)" opacity="0.93"/><path d="M47.26 61.99 L25.83 55.16 L48.11 25.63 Z" fill="hsl(230.1,70%,71%)" opacity="0.39"/><ellipse cx="52.78" cy="21.45" rx="5.10" ry="4.00" fill="hsl(237.1,60%,69%)" opacity="0.36"/><circle cx="22.78" cy="52.69" r="4.22" fill="hsl(244.1,70%,64%)" opacity="0.95"/><path d="M14.25 62.47 L52.91 41.40 L58.40 35.04 Z" fill="hsl(251.1,70%,77%)" opacity="0.60"/><ellipse cx="6.63" cy="20.91" rx="2.46" ry="2.85" fill="hsl(258.1,60%,74%)" opacity="0.70"/><circle cx="35.02" cy="52.83" r="4.92" fill="hsl(265.1,70%,72%)" opacity="0.56"/><path d="M15.57 23.01 L31.64 55.85 L18.35 36.86 Z" fill="hsl(272.1,70%,70%)" opacity="0.37"/><ellipse cx="32.43" cy="26.87" rx="4.93" ry="1.24" fill="hsl(279.1,60%,50%)" opacity="0.41"/><circle cx="0.70" cy="5.20" r="5.70" fill="hsl(286.1,70%,58%)" opacity="0.86"/><path d="M9.80 16.26 L48.02 51.35 L47.17 15.52 Z" fill="hsl(293.1,70%,59%)" opacity="0.37"/><ellipse cx="59.67" cy="51.89" rx="1.03" ry="2.98" fill="hsl(300.1,60%,57%)" opacity="0.35"/><circle cx="15.05" cy="63.01" r="1.57" fill="hsl(307.1,70%,46%)" opacity="0.75"/><path d="M43.36 20.44 L18.99 38.42 L27.20 11.36 Z" fill="hsl(314.1,70%,42%)" opacity="0.60"/><ellipse cx="30.29" cy="9.01" rx="5.15" ry="5.20" fill="hsl(321.1,60%,41%)" opacity="0.88"/><circle cx="17.33" cy="19.22" r="5.22" fill="hsl(328.1,70%,73%)" opacity="0.96"/><path d="M3.51 37.70 L30.29 37.18 L46.79 21.91 Z" fill="hsl(335.1,70%,65%)" opacity="0.78"/><ellipse cx="40.99" cy="19.25" rx="3.56" ry="4.75" fill="hsl(342.1,60%,57%)" opacity="0.42"/><circle cx="25.90" cy="19.50" r="5.95" fill="hsl(349.1,70%,65%)" opacity="0.87"/><path d="M2.96 35.56 L31.47 7.30 L56.53 16.97 Z" fill="hsl(356.1,70%,64%)" opacity="0.58"/><ellipse cx="63.53" cy="9.12" rx="2.35" ry="1.51" fill="hsl(3.1,60%,67%)" opacity="0.72"/><circle cx="27.69" cy="58.17" r="3.61" fill="hsl(10.1,70%,66%)" opacity="0.77"/><path d="M54.25 56.64 L43.10 57.69 L33.53 59.53 Z" fill="hsl(17.1,70%,68%)" opacity="0.62"/><ellipse cx="18.95" cy="60.01" rx="2.61" ry="3.73" fill="hsl(24.1,60%,37%)" opacity="0.56"/><circle cx="8.85" cy="25.48" r="5.50" fill="hsl(31.1,70%,55%)" opacity="0.53"/><path d="M41.35 1.72 L21.79 11.60 L28.82 20.81 Z" fill="hsl(38.1,70%,64%)" opacity="0.43"/><ellipse cx="1.95" cy="23.65" rx="4.76" ry="4.21" fill="hsl(45.1,60%,52%)" opacity="0.88"/><circle cx="13.55" cy="44.63" r="5.19" fill="hsl(52.1,70%,57%)" opacity="0.50"/><path d="M9.18 3.96 L2.28 27.56 L5.34 16.07 Z" fill="hsl(59.1,70%,62%)" opacity="0.49"/><ellipse cx="28.80" cy="46.54" rx="3.19" ry="1.24" fill="hsl(66.1,60%,55%)" opacity="0.38"/><circle cx="23.08" cy="52.00" r="6.02" fill="hsl(73.1,70%,76%)" opacity="0.61"/><path d="M35.16 24.27 L44.56 24.04 L63.08 34.11 Z" fill="hsl(80.1,70%,42%)" opacity="0.53"/><ellipse cx="38.56" cy="21.83" rx="1.28" ry="2.90" fill="hsl(87.1,60%,57%)" opacity="0.43"/><circle cx="13.03" cy="51.60" r="6.08" fill="hsl(94.1,70%,75%)" opacity="0.87"/><path d="M16.58 8.56 L39.02 13.88 L13.45 63.71 Z" fill="hsl(101.1,70%,78%)" opacity="0.51"/><ellipse cx="27.75" cy="31.09" rx="1.22" ry="5.70" fill="hsl(108.1,60%,42%)" opacity="0.45"/><circle cx="27.57" cy="44.64" r="6.03" fill="hsl(115.1,70%,67%)" opacity="0.53"/><path d="M12.21 25.45 L3.45 31.98 L50.84 30.43 Z" fill="hsl(122.1,70%,61%)" opacity="0.75"/><ellipse cx="33.32" cy="59.59" rx="1.38" ry="1.97" fill="hsl(129.1,60%,42%)" opacity="0.61"/><circle cx="0.23" cy="48.17" r="5.85" fill="hsl(136.1,70%,69%)" opacity="0.78"/></svg>