<svg xmlns="http://www.w3.org/2000/svg" width="64" height="64" viewBox="0 0 64 64"><rect width="64" height="64" rx="8" fill="hsl(326.9,65%,45%)"/><circle cx="21.04" cy="61.23" r="3.79" fill="hsl(326.9,70%,61%)" opacity="0.80"/><path d="M20.78 23.14 L38.44 5.80 L19.97 15.18 Z" fill="hsl(333.9,70%,56%)" opacity="0.34"/><ellipse cx="23.65" cy="36.92" rx="5.56" ry="2.56" fill="hsl(340.9,60%,78%)" opacity="0.75"/><circle cx="37.46" cy="44.46" r="1.35" fill="hsl(347.9,70%,63%)" opacity="0.63"/><path d="M4.51 54.93 L14.25 60.37 L0.51 42.96 Z" fill="hsl(354.9,70%,71%)" opacity="0.35"/><ellipse cx="38.56" cy="19.50" rx="5.82" ry="1.81" fill="hsl(1.9,60%,50%)" opacity="0.68"/><circle cx="45.14" cy="37.28" r="2.76" fill="hsl(8.9,70%,68%)" opacity="0.60"/><path d="M53.48 27.01 L60.89 62.44 L48.47 31.00 Z" fill="hsl(15.9,70%,46%)" opacity="0.35"/><ellipse cx="42.10" cy="61.16" rx="2.30" ry="3.52" fill="hsl(22.9,60%,75%)" opacity="0.36"/><circle cx="26.00" cy="3.59" r="5.06" fill="hsl(29.9,70%,72%)" opacity="0.63"/><path d="M2.76 37.26 L3.18 38.17 L61.76 39.01 Z" fill="hsl(36.9,70%,43%)" opacity="0.53"/><ellipse cx="2.38" cy="62.58" rx="3.64" ry="2.56" fill="hsl(43.9,60%,73%)" opacity="0.43"/><circle cx="9.20" cy="43.92" r="5.74" fill="hsl(50.9,70%,72%)" opacity="0.41"/><path d="M24.25 30.82 L47.61 11.81 L36.64 60.29 Z" fill="hsl(57.9,70%,67%)" opacity="0.39"/><ellipse cx="9.49" cy="26.38" rx="3.12" ry="5.18" fill="hsl(64.9,60%,69%)" opacity="0.46"/><circle cx="17.78" cy="33.49" r="3.16" fill="hsl(71.9,70%,41%)" opacity="0.42"/><path d="M30.90 24.91 L48.13 55.10 L60.58 36.35 Z" fill="hsl(78.9,70%,45%)" opacity="0.57"/><ellipse cx="26.42" cy="8.93" rx="1.30" ry="3.57" fill="hsl(85.9,60%,79%)" opacity="0.37"/><circle cx="46.60" cy="50.14" r="5.70" fill="hsl(92.9,70%,66%)" opacity="0.53"/><path d="M44.69 59.47 L45.99 14.03 L12.08 25.24 Z" fill="hsl(99.9,70%,67%)" opacity="0.62"/><ellipse cx="49.24" cy="53.09" rx="3.58" ry="4.92" fill="hsl(106.9,60%,64%)" opacity="0.47"/><circle cx="42.76" cy="36.69" r="4.43" fill="hsl(113.9,70%,46%)" opacity="0.88"/><path d="M10.87 22.16 L6.14 1.12 L41.68 6.19 Z" fill="hsl(120.9,70%,56%)" opacity="0.42"/><ellipse cx="49.09" cy="46.80" rx="2.79" ry="5.09" fill="hsl(127.9,60%,77%)" opacity="0.42"/><circle cx="29.04" cy="41.06" r="6.90" fill="hsl(134.9,70%,60%)" opacity="0.66"/><path d="M11.99 13.72 L26.15 46.59 L23.85 60.70 Z" fill="hsl(141.9,70%,66%)" opacity="0.51"/><ellipse cx="10.60" cy="35.35" rx="4.58" ry="2.12" fill="hsl(148.9,60%,46%)" opacity="0.61"/><circle cx="40.83" cy="48.82" r="2.00" fill="hsl(155.9,70%,50%)" opacity="0.72"/><path d="M18.92 62.62 L38.44 35.73 L45.69 63.95 Z" fill="hsl(162.9,70%,44%)" opacity="0.64"/><ellipse cx="17.99" cy="21.27" rx="4.95" ry="2.89" fill="hsl(169.9,60%,64%)" opacity="0.57"/><circle cx="53.68" cy="20.01" r="6.59" fill="hsl(176.9,70%,65%)" opacity="0.59"/><path d="M16.98 5.63 L25.36 4.39 L10.50 41.89 Z" fill="hsl(183.9,70%,79%)" opacity="0.45"/><ellipse cx="62.03" cy="43.96" rx="3.88" ry="3.08" fill="hsl(190.9,60%,62%)" opacity="0.65"/><circle cx="63.61" cy="19.83" r="2.51" fill="hsl(197.9,70%,75%)" opacity="0.87"/><path d="M63.64 54.73 L25.67 6.19 L19.31 25.00 Z" fill="hsl(204.9,70%,55%)" opacity="0.68"/><ellipse cx="13.02" cy="23.33" rx="1.52" ry="2.91" fill="hsl(211.9,60%,69%)" opacity="0.75"/><circle cx="40.08" cy="32.99" r="5.98" fill="hsl(218.9,70%,42%)" opacity="0.65"/><path d="M2.13 12.46 L25.64 54.02 L23.71 29.72 Z" fill="hsl(225.9,70%,71%)" opacity="0.37"/><ellipse cx="20.38" cy="3.42" rx="5.06" ry="1.13" fill="hsl(232.9,60%,53%)" opacity="0.44"/><circle cx="49.40" cy="16.43" r="1.79" fill="hsl(239.9,70%,70%)" opacity="0.76"/><path d="M45.98 36.47 L52.79 13.63 L55.48 6.76 Z" fill="hsl(246.9,70%,48%)" opacity="0.48"/><ellipse cx="38.85" cy="20.44" rx="5.36" ry="4.94" fill="hsl(253.9,60%,77%)" opacity="0.47"/><circle cx="32.31" cy="32.54" r="6.48" fill="hsl(260.9,70%,73%)" opacity="0.75"/><path d="M23.26 53.57 L24.28 4.36 L16.48 39.22 Z" fill="hsl(267.9,70%,69%)" opacity="0.68"/><ellipse cx="45.32" cy="47.62" rx="3.61" ry="5.90" fill="hsl(274.9,60%,62%)" opacity="0.57"/><circle cx="30.56" cy="3.02" r="2.63" fill="hsl(281.9,70%,72%)" opacity="0.81"/><path d="M44.96 23.63 L51.15 15.65 L35.73 2.11 Z" fill="hsl(288.9,70%,43%)" opacity="0.56"/><ellipse cx="5.18" cy="24.62" rx="2.39" ry="2.69" fill="hsl(295.9,60%,71%)" opacity="0.54"/><circle cx="29.61" cy="63.61" r="5.02" fill="hsl(302.9,70%,65%)" opacity="0.55"/><path d="M15.61 55.69 L13.76 13.60 L15.94 23.27 Z" fill="hsl(309.9,70%,59%)" opacity="0.33"/><ellipse cx="13.29" cy="2.75" rx="4.61" ry="3.00" fill="hsl(316.9,60%,51%)" opacity="0.51"/><circle cx="4.49" cy="11.23" r="3.21" fill="hsl(323.9,70%,63%)" opacity="0.83"/><path d="M10.55 27.36 L22.97 40.75 L1.54 29.94 Z" fill="hsl(330.9,70%,77%)" opacity="0.66"/><ellipse cx="49.23" cy="23.70" rx="2.25" ry="5.77" fill="hsl(337.9,60%,69%)" opacity="0.37"/><circle cx="10.11" cy="6.97" r="3.79" fill="hsl(344.9,70%,47%)" opacity="0.93"/><path d="M54.52 47.04 L40.34 52.02 L32.40 11.10 Z" fill="hsl(351.9,70%,72%)" opacity="0.46"/><ellipse cx="49.22" cy="58.30" rx="3.04" ry="5.81" fill="hsl(358.9,60%,38%)" opacity="0.89"/><circle cx="34.98" cy="22.61" r="3.33" fill="hsl(5.9,70%,78%)" opacity="0.94"/><path d="M40.73 55.90 L29.54 6.87 L18.02 20.45 Z" fill="hsl(12.9,70%,46%)" opacity="0.37"/><ellipse cx="35.88" cy="30.21" rx="4.78" ry="1.35" fill="hsl(19.9,60%,39%)" opacity="0.81"/><circle cx="22.99" cy="48.40" r="2.11" fill="hsl(26.9,70%,54%)" opacity="0.73"/><path d="M2.91 57.14 L50.47 24.60 L46.31 2.94 Z" fill="hsl(33.9,70%,60%)" opacity="0.68"/><ellipse cx="21.83" cy="42.01" rx="2.39" ry="3.57" fill="hsl(40.9,60%,56%)" opacity="0.56"/><circle cx="14.02" cy="12.62" r="2.17" fill="hsl(47.9,70%,53%)" opacity="0.88"/><path d="M44.08 45.88 L21.79 41.74 L50.77 36.64 Z" fill="hsl(54.9,70%,45%)" opacity="0.37"/><ellipse cx="33.85" cy="47.18" rx="5.09" ry="4.47" fill="hsl(61.9,60%,75%)" opacity="0.62"/><circle cx="24.93" cy="29.86" r="2.06" fill="hsl(68.9,70%,53%)" opacity="0.71"/><path d="M50.72 12.54 L9.98 28.08 L29.34 60.55 Z" fill="hsl(75.9,70%,46%)" opacity="0.61"/><ellipse cx="55.29" cy="37.59" rx="1.06" ry="5.86" fill="hsl(82.9,60%,57%)" opacity="0.77"/><circle cx="60.15" cy="5.63" r="2.58" fill="hsl(89.9,70%,70%)" opacity="0.54"/><path d="M44.14 54.77 L34.62 55.37 L12.46 52.19 Z" fill="hsl(96.9,70%,62%)" opacity="0.35"/><ellipse cx="14.87" cy="10.02" rx="1.37" ry="5.08" fill="hsl(103.9,60%,51%)" opacity="0.85"/><circle cx="26.21" cy="14.49" r="3.69" fill="hsl(110.9,70%,64%)" opacity="0.48"/><path d="M3.79 22.58 L43.70 12.54 L21.04 61.83 Z" fill="hsl(117.9,70%,60%)" opacity="0.34"/><ellipse cx="32.77" cy="46.19" rx="1.91" ry="2.06" fill="hsl(124.9,60%,56%)" opacity="0.34"/><circle cx="44.16" cy="25.26" r="4.44" fill="hsl(131.9,70%,65%)" opacity="0.83"/><path d="M53.23 59.46 L58.60 14.59 L4.07 32.86 Z" fill="hsl(138.9,70%,77%)" opacity="0.37"/><ellipse cx="63.98" cy="43.43" rx="1.07" ry="5.47" fill="hsl(145.9,60%,65%)" opacity="0.56"/><circle cx="39.33" cy="20.27" r="4.24" fill="hsl(152.9,70%,52%)" opacity="0.45"/><path d="M60.19 25.76 L50.16 31.25 L35.64 17.66 Z" fill="hsl(159.9,70%,64%)" opacity="0.37"/><ellipse cx="53.34" cy="50.75" rx="3.17" ry="2.32" fill="hsl(166.9,60%,42%)" opacity="0.87"/><circle cx="42.00" cy="0.80" r="1.39" fill="hsl(173.9,70%,53%)" opacity="0.60"/><path d="M56.65 63.05 L0.69 33.88 L2.46 2.24 Z" fill="hsl(180.9,70%,75%)" opacity="0.64"/><ellipse cx="13.21" cy="10.99" rx="1.45" ry="3.51" fill="hsl(187.9,60%,42%)" opacity="0.89"/><circle cx="51.91" cy="47.79" r="6.78" fill="hsl(194.9,70%,72%)" opacity="0.67"/><path d="M55.09 21.49 L63.69 9.08 L10.33 4.17 Z" fill="hsl(201.9,70%,67%)" opacity="0.37"/><ellipse cx="17.26" cy="11.14" rx="1.35" ry="2.43" fill="hsl(208.9,60%,72%)" opacity="0.42"/><circle cx="16.13" cy="60.21" r="5.12" fill="hsl(215.9,70%,40%)" opacity="0.55"/><path d="M47.47 20.68 L48.75 26.89 L17.34 54.44 Z" fill="hsl(222.9,70%,47%)" opacity="0.69"/><ellipse cx="34.91" cy="2.08" rx="1.24" ry="3.87" fill="hsl(229.9,60%,67%)" opacity="0.50"/><circle cx="43.71" cy="25.59" r="4.30" fill="hsl(236.9,70%,64%)" opacity="0.90"/><path d="M38.61 32.36 L10.05 8.26 L42.09 32.70 Z" fill="hsl(243.9,70%,47%)" opacity="0.40"/><ellipse cx="63.79" cy="47.37" rx="5.73" ry="5.88" fill="hsl(250.9,60%,46%)" opacity="0.89"/><circle cx="2.87" cy="47.51" r="7.00" fill="hsl(257.9,70%,58%)" opacity="0.81"/><path d="M7.83 30.97 L3.48 58.49 L62.38 53.41 Z" fill="hsl(264.9,70%,60%)" opacity="0.31"/><ellipse cx="50.01" cy="50.43" rx="5.15" ry="4.89" fill="hsl(271.9,60%,44%)" opacity="0.89"/><circle cx="11.57" cy="6.20" r="5.11" fill="hsl(278.9,70%,50%)" opacity="0.89"/><path d="M17.66 34.61 L34.79 52.02 L63.96 37.80 Z" fill="hsl(285.9,70%,52%)" opacity="0.31"/><ellipse cx="42.17" cy="28.01" rx="4.06" ry="5.90" fill="hsl(292.9,60%,68%)" opacity="0.36"/><circle cx="19.65" cy="63.35" r="2.83" fill="hsl(299.9,70%,52%)" opacity="0.87"/><path d="M42.92 51.53 L51.79 26.59 L31.78 51.01 Z" fill="hsl(306.9,70%,64%)" opacity="0.63"/><ellipse cx="13.71" cy="16.52" rx="4.64" ry="2.62" fill="hsl(313.9,60%,44%)" opacity="0.64"/><circle cx="11.41" cy="30.88" r="1.10" fill="hsl(320.9,70%,57%)" opacity="0.44"/><path d="M10.56 62.01 L7.77 61.80 L46.67 7.67 Z" fill="hsl(327.9,70%,45%)" opacity="0.45"/><ellipse cx="28.59" cy="13.23" rx="4.79" ry="5.59" fill="hsl(334.9,60%,75%)" opacity="0.64"/><circle cx="29.32" cy="33.47" r="1.32" fill="hsl(341.9,70%,71%)" opacity="0.97"/><path d="M21.03 15.74 L39.36 12.84 L14.06 20.04 Z" fill="hsl(348.9,70%,74%)" opacity="0.40"/><ellipse cx="26.93" cy="42.83" rx="4.30" ry="4.45" fill="hsl(355.9,60%,44%)" opacity="0.37"/><circle cx="41.09" cy="33.88" r="2.63" fill="hsl(2.9,70%,63%)" opacity="0.47"/><path d="M21.28 60.24 L7.93 48.87 L29.89 2.48 Z" fill="hsl(9.9,70%,76%)" opacity="0.80"/><ellipse cx="41.36" cy="16.48" rx="5.95" ry="3.84" fill="hsl(16.9,60%,64%)" opacity="0.60"/><circle cx="5.93" cy="22.14" r="6.25" fill="hsl(23.9,70%,48%)" opacity="0.82"/><path d="M13.56 58.88 L57.46 14.40 L32.52 10.13 Z" fill="hsl(30.9,70%,54%)" opacity="0.78"/><ellipse cx="36.24" cy="7.68" rx="1.66" ry="1.87" fill="hsl(37.9,60%,42%)" opacity="0.46"/><circle cx="24.48" cy="36.80" r="6.53" fill="hsl(44.9,70%,51%)" opacity="0.52"/><path d="M52.61 10.74 L59.25 59.21 L1.83 33.11 Z" fill="hsl(51.9,70%,58%)" opacity="0.32"/><ellipse cx="21.71" cy="20.64" rx="4.11" ry="4.99" fill="hsl(58.9,60%,80%)" opacity="0.83"/><circle cx="9.02" cy="36.29" r="4.22" fill="hsl(65.9,70%,71%)" opacity="0.45"/><path d="M31.84 63.54 L61.94 17.36 L9.28 17.25 Z" fill="hsl(72.9,70%,55%)" opacity="0.41"/><ellipse cx="1.54" cy="3.33" rx="1.73" ry="4.20" fill="hsl(79.9,60%,48%)" opacity="0.85"/><circle cx="50.63" cy="47.54" r="1.10" fill="hsl(86.9,70%,59%)" opacity="0.97"/><path d="M2.69 46.47 L56.58 26.46 L10.97 12.92 Z" fill="hsl(93.9,70%,68%)" opacity="0.63"/><ellipse cx="58.11" cy="45.71" rx="2.28" ry="1.67" fill="hsl(100.9,60%,62%)" opacity="0.39"/><circle cx="3.20" cy="49.67" r="4.01" fill="hsl(107.9,70%,70%)" opacity="0.64"/><path d="M56.68 55.85 L22.59 52.65 L6.53 44.38 Z" fill="hsl(114.9,70%,60%)" opacity="0.65"/><ellipse cx="0.57" cy="27.82" rx="4.01" ry="1.98" fill="hsl(121.9,60%,75%)" opacity="0.47"/><circle cx="9.40" cy="25.06" r="3.65" fill="hsl(128.9,70%,66%)" opacity="0.81"/><path d="M20.99 38.66 L58.08 61.01 L19.34 45.16 Z" fill="hsl(135.9,70%,70%)" opacity="0.51"/><ellipse cx="30.15" cy="39.90" rx="3.36" ry="1.93" fill="hsl(142.9,60%,74%)" opacity="0.73"/><circle cx="17.74" cy="59.78" r="2.02" fill="hsl(149.9,70%,67%)" opacity="0.51"/><path d="M22.39 1.15 L26.92 14.64 L20.93 32.73 Z" fill="hsl(156.9,70%,43%)" opacity="0.37"/><ellipse cx="46.47" cy="18.64" rx="1.90" ry="3.82" fill="hsl(163.9,60%,63%)" opacity="0.56"/><circle cx="57.84" cy="29.88" r="2.36" fill="hsl(170.9,70%,74%)" opacity="0.44"/><path d="M27.64 0.06 L7.29 54.12 L62.71 35.74 Z" fill="hsl(177.9,70%,69%)" opacity="0.74"/><ellipse cx="57.51" cy="26.29" rx="2.97" ry="5.51" fill="hsl(184.9,60%,59%)" opacity="0.72"/><circle cx="57.79" cy="5.03" r="2.46" fill="hsl(191.9,70%,57%)" opacity="0.58"/><path d="M59.73 48.36 L45.69 49.85 L22.91 52.60 Z" fill="hsl(198.9,70%,57%)" opacity="0.59"/><ellipse cx="63.64" cy="35.46" rx="5.02" ry="2.87" fill="hsl(205.9,60%,46%)" opacity="0.59"/><circle cx="9.51" cy="22.49" r="3.89" fill="hsl(212.9,70%,79%)" opacity="0.87"/><path d="M50.86 21.91 L37.48 32.28 L51.73 6.09 Z" fill="hsl(219.9,70%,69%)" opacity="0.67"/><ellipse cx="44.58" cy="31.26" rx="3.44" ry="4.38" fill="hsl(226.9,60%,77%)" opacity="0.67"/><circle cx="23.28" cy="12.13" r="5.89" fill="hsl(233.9,70%,66%)" opacity="0.83"/><path d="M38.38 20.12 L32.29 49.76 L18.07 36.07 Z" fill="hsl(240.9,70%,69%)" opacity="0.61"/><ellipse cx="45.35" cy="4.64" rx="2.36" ry="3.58" fill="hsl(247.9,60%,61%)" opacity="0.71"/><circle cx="63.34" cy="36.97" r="1.09" fill="hsl(254.9,70%,70%)" opacity="0.83"/><path d="M32.07 63.27 L63.78 38.95 L55.09 31.13 Z" fill="hsl(261.9,70%,52%)" opacity="0.78"/><ellipse cx="24.03" cy="3.80" rx="1.64" ry="4.56" fill="hsl(268.9,60%,77%)" opacity="0.75"/><circle cx="15.85" cy="17.02" r="3.32" fill="hsl(275.9,70%,64%)" opacity="0.65"/><path d="M27.45 25.71 L6.49 43.63 L42.42 54.09 Z" fill="hsl(282.9,70%,62%)" opacity="0.68"/><ellipse cx="44.27" cy="32.31" rx="5.09" ry="3.72" fill="hsl(289.9,60%,56%)" opacity="0.39"/><circle cx="17.29" cy="42.65" r="6.11" fill="hsl(296.9,70%,46%)" opacity="0.88"/><path d="M54.05 34.04 L21.32 3.76 L13.24 6.96 Z" fill="hsl(303.9,70%,62%)" opacity="0.57"/><ellipse cx="62.49" cy="20.04" rx="2.35" ry="5.91" fill="hsl(310.9,60%,42%)" opacity="0.76"/><circle cx="21.62" cy="20.84" r="1.59" fill="hsl(317.9,70%,72%)" opacity="0.59"/><path d="M4.04 8.47 L16.82 24.82 L55.77 36.74 Z" fill="hsl(324.9,70%,49%)" opacity="0.61"/><ellipse cx="48.65" cy="53.46" rx="1.40" ry="1.23" fill="hsl(331.9,60%,43%)" opacity="0.58"/><circle cx="35.50" cy="58.84" r="5.50" fill="hsl(338.9,70%,52%)" opacity="0.63"/><path d="M1.25 45.45 L7.65 56.59 L61.47 2.45 Z" fill="hsl(345.9,70%,53%)" opacity="0.58"/><ellipse cx="51.08" cy="61.31" rx="4.80" ry="3.70" fill="hsl(352.9,60%,55%)" opacity="0.52"/><circle cx="44.55" cy="30.08" r="4.83" fill="hsl(359.9,70%,48%)" opacity="0.53"/><path d="M4.25 34.19 L61.14 57.44 L39.33 7.01 Z" fill="hsl(6.9,70%,68%)" opacity="0.61"/><ellipse cx="63.45" cy="61.28" rx="3.63" ry="3.34" fill="hsl(13.9,60%,37%)" opacity="0.43"/><circle cx="5.43" cy="19.99" r="3.52" fill="hsl(20.9,70%,65%)" opacity="0.80"/><path d="M42.43 7.54 L3.18 9.83 L39.40 27.71 Z" fill="hsl(27.9,70%,74%)" opacity="0.56"/><ellipse cx="6.92" cy="2.15" rx="1.28" ry="5.70" fill="hsl(34.9,60%,73%)" opacity="0.48"/><circle cx="8.01" cy="43.55" r="4.08" fill="hsl(41.9,70%,49%)" opacity="0.88"/><path d="M5.81 17.02 L31.84 26.35 L38.72 29.49 Z" fill="hsl(48.9,70%,61%)" opacity="0.49"/><ellipse cx="36.18" cy="13.12" rx="3.83" ry="1.41" fill="hsl(55.9,60%,40%)" opacity="0.45"/><circle cx="11.61" cy="15.98" r="4.87" fill="hsl(62.9,70%,45%)" opacity="0.84"/><path d="M22.10 24.39 L50.58 40.14 L53.51 16.47 Z" fill="hsl(69.9,70%,75%)" opacity="0.51"/><ellipse cx="17.63" cy="5.68" rx="4.05" ry="1.68" fill="hsl(76.9,60%,57%)" opacity="0.66"/><circle cx="55.87" cy="27.67" r="3.32" fill="hsl(83.9,70%,41%)" opacity="0.91"/><path d="M15.00 8.82 L8.34 29.68 L10.66 49.71 Z" fill="hsl(90.9,70%,78%)" opacity="0.49"/><ellipse cx="60.95" cy="28.55" rx="4.72" ry="2.48" fill="hsl(97.9,60%,54%)" opacity="0.80"/><circle cx="43.80" cy="59.54" r="6.26" fill="hsl(104.9,70%,62%)" opacity="0.66"/><path d="M47.85 6.85 L32.49 42.30 L24.11 1.55 Z" fill="hsl(111.9,70%,56%)" opacity="0.35"/><ellipse cx="27.77" cy="54.91" rx="1.63" ry="4.45" fill="hsl(118.9,60%,78%)" opacity="0.61"/><circle cx="34.22" cy="53.59" r="5.62" fill="hsl(125.9,70%,51%)" opacity="0.88"/><path d="M3.91 39.25 L5.42 36.97 L21.74 38.45 Z" fill="hsl(132.9,70%,45%)" opacity="0.50"/><ellipse cx="61.57" cy="30.82" rx="2.82" ry="2.02" fill="hsl(139.9,60%,71%)" opacity="0.83"/><circle cx="18.26" cy="63.04" r="2.24" fill="hsl(146.9,70%,51%)" opacity="0.41"/><path d="M43.47 0.62 L29.12 34.53 L1.21 17.63 Z" fill="hsl(153.9,70%,74%)" opacity="0.64"/><ellipse cx="62.91" cy="52.59" rx="5.11" ry="1.72" fill="hsl(160.9,60%,76%)" opacity="0.70"/><circle cx="51.95" cy="43.87" r="3.84" fill="hsl(167.9,70%,76%)" opacity="0.44"/><path d="M15.09 14.07 L37.25 10.41 L39.62 8.21 Z" fill="hsl(174.9,70%,72%)" opacity="0.67"/><ellipse cx="3.32" cy="32.72" rx="5.31" ry="1.09" fill="hsl(181.9,60%,67%)" opacity="0.51"/><circle cx="21.06" cy="61.30" r="6.67" fill="hsl(188.9,70%,64%)" opacity="0.59"/><path d="M25.60 63.58 L18.72 19.00 L21.29 14.62 Z" fill="hsl(195.9,70%,58%)" opacity="0.47"/><ellipse cx="4.64" cy="20.14" rx="5.27" ry="3.34" fill="hsl(202.9,60%,44%)" opacity="0.79"/><circle cx="42.71" cy="47.39" r="3.75" fill="hsl(209.9,70%,45%)" opacity="0.45"/><path d="M58.62 51.65 L45.75 33.98 L6.05 38.73 Z" fill="hsl(216.9,70%,45%)" opacity="0.46"/><ellipse cx="41.44" cy="30.69" rx="2.24" ry="3.52" fill="hsl(223.9,60%,44%)" opacity="0.43"/><circle cx="42.14" cy="42.47" r="4.33" fill="hsl(230.9,70%,41%)" opacity="0.51"/><path d="M27.55 59.36 L49.06 63.09 L20.95 42.92 Z" fill="hsl(237.9,70%,44%)" opacity="0.63"/><ellipse cx="14.18" cy="29.51" rx="4.09" ry="2.67" fill="hsl(244.9,60%,46%)" opacity="0.75"/><circle cx="35.05" cy="50.28" r="1.77" fill="hsl(251.9,70%,68%)" opacity="0.57"/><path d="M48.77 24.70 L8.18 4.67 L20.45 36.67 Z" fill="hsl(258.9,70%,43%)" opacity="0.65"/><ellipse cx="54.04" cy="43.98" rx="5.82" ry="4.29" fill="hsl(265.9,60%,75%)" opacity="0.62"/><circle cx="42.30" cy="33.98" r="1.99" fill="hsl(272.9,70%,56%)" opacity="0.82"/><path d="M16.46 13.05 L32.65 38.16 L42.17 39.99 Z" fill="hsl(279.9,70%,44%)" opacity="0.77"/><ellipse cx="30.24" cy="62.63" rx="1.16" ry="4.95" fill="hsl(286.9,60%,61%)" opacity="0.64"/><circle cx="17.08" cy="32.69" r="2.84" fill="hsl(293.9,70%,70%)" opacity="0.85"/><path d="M62.48 61.80 L42.90 22.08 L62.34 62.57 Z" fill="hsl(300.9,70%,56%)" opacity="0.32"/><ellipse cx="4.47" cy="17.15" rx="4.86" ry="3.27" fill="hsl(307.9,60%,51%)" opacity="0.78"/><circle cx="42.05" cy="19.34" r="5.96" fill="hsl(314.9,70%,54%)" opacity="0.61"/><path d="M39.31 15.38 L6.35 13.54 L38.68 52.71 Z" fill="hsl(321.9,70%,51%)" opacity="0.76"/><ellipse cx="34.56" cy="7.38" rx="2.32" ry="4.95" fill="hsl(328.9,60%,40%)" opacity="0.75"/><circle cx="60.98" cy="13.30" r="1.05" fill="hsl(335.9,70%,44%)" opacity="0.86"/><path d="M62.86 57.64 L1.13 9.33 L11.54 50.04 Z" fill="hsl(342.9,70%,79%)" opacity="0.45"/><ellipse cx="57.17" cy="32.43" rx="4.30" ry="2.36" fill="hsl(349.9,60%,71%)" opacity="0.35"/><circle cx="29.30" cy="61.51" r="4.63" fill="hsl(356.9,70%,74%)" opacity="0.75"/><path d="M26.31 43.19 L43.72 53.67 L35.01 28.98 Z" fill="hsl(3.9,70%,75%)" opacity="0.34"/><ellipse cx="21.39" cy="30.87" rx="3.21" ry="5.88" fill="hsl(10.9,60%,71%)" opacity="0.37"/><circle cx="43.33" cy="44.59" r="4.59" fill="hsl(17.9,70%,49%)" opacity="0.73"/><path d="M33.22 54.84 L31.90 11.12 L27.69 45.06 Z" fill="hsl(24.9,70%,49%)" opacity="0.42"/><ellipse cx="31.17" cy="38.85" rx="3.42" ry="3.15" fill="hsl(31.9,60%,42%)" opacity="0.49"/><circle cx="9.30" cy="4.12" r="1.93" fill="hsl(38.9,70%,51%)" opacity="0.65"/><path d="M29.03 27.70 L35.55 30.18 L51.06 16.30 Z" fill="hsl(45.9,70%,77%)" opacity="0.53"/><ellipse cx="37.92" cy="40.12" rx="2.62" ry="1.77" fill="hsl(52.9,60%,72%)" opacity="0.59"/><circle cx="7.17" cy="48.71" r="3.96" fill="hsl(59.9,70%,52%)" opacity="0.84"/></svg>