<svg xmlns="http://www.w3.org/2000/svg" width="64" height="64" viewBox="0 0 64 64"><rect width="64" height="64" rx="8" fill="hsl(14.7,65%,45%)"/><circle cx="21.95" cy="20.02" r="5.79" fill="hsl(14.7,70%,75%)" opacity="0.60"/><path d="M63.36 19.84 L31.89 58.44 L28.01 1.60 Z" fill="hsl(21.7,70%,70%)" opacity="0.41"/><ellipse cx="37.55" cy="1.59" rx="1.79" ry="5.89" fill="hsl(28.7,60%,58%)" opacity="0.78"/><circle cx="25.35" cy="16.95" r="6.29" fill="hsl(35.7,70%,55%)" opacity="0.42"/><path d="M26.51 13.14 L25.46 20.80 L62.24 32.75 Z" fill="hsl(42.7,70%,61%)" opacity="0.72"/><ellipse cx="15.68" cy="47.43" rx="4.33" ry="2.52" fill="hsl(49.7,60%,36%)" opacity="0.33"/><circle cx="60.67" cy="0.23" r="3.37" fill="hsl(56.7,70%,65%)" opacity="0.42"/><path d="M27.44 49.12 L58.78 42.51 L13.40 32.35 Z" fill="hsl(63.7,70%,50%)" opacity="0.41"/><ellipse cx="30.17" cy="52.60" rx="1.91" ry="5.18" fill="hsl(70.7,60%,39%)" opacity="0.78"/><circle cx="18.82" cy="23.03" r="4.29" fill="hsl(77.7,70%,69%)" opacity="0.43"/><path d="M1.72 21.11 L3.83 60.90 L54.58 6.05 Z" fill="hsl(84.7,70%,68%)" opacity="0.44"/><ellipse cx="0.10" cy="2.27" rx="3.82" ry="5.65" fill="hsl(91.7,60%,64%)" opacity="0.40"/><circle cx="22.90" cy="21.06" r="1.50" fill="hsl(98.7,70%,58%)" opacity="0.53"/><path d="M19.31 8.74 L0.98 38.77 L25.44 5.12 Z" fill="hsl(105.7,70%,77%)" opacity="0.61"/><ellipse cx="10.12" cy="40.51" rx="1.27" ry="3.71" fill="hsl(112.7,60%,43%)" opacity="0.76"/><circle cx="18.99" cy="20.54" r="1.39" fill="hsl(119.7,70%,55%)" opacity="0.42"/><path d="M26.80 33.77 L60.71 31.39 L1.04 21.84 Z" fill="hsl(126.7,70%,43%)" opacity="0.61"/><ellipse cx="43.42" cy="53.99" rx="1.22" ry="3.30" fill="hsl(133.7,60%,75%)" opacity="0.39"/><circle cx="7.94" cy="14.09" r="1.30" fill="hsl(140.7,70%,54%)" opacity="0.57"/><path d="M29.68 61.38 L24.53 17.09 L11.40 45.20 Z" fill="hsl(147.7,70%,47%)" opacity="0.53"/><ellipse cx="40.32" cy="36.93" rx="3.02" ry="5.25" fill="hsl(154.7,60%,45%)" opacity="0.59"/><circle cx="6.88" cy="10.06" r="6.07" fill="hsl(161.7,70%,75%)" opacity="0.73"/><path d="M43.50 18.99 L11.19 28.18 L44.96 60.50 Z" fill="hsl(168.7,70%,53%)" opacity="0.53"/><ellipse cx="25.54" cy="38.78" rx="5.27" ry="2.70" fill="hsl(175.7,60%,59%)" opacity="0.44"/><circle cx="28.88" cy="16.53" r="3.72" fill="hsl(182.7,70%,43%)" opacity="0.58"/><path d="M12.99 12.12 L19.25 25.13 L31.90 38.31 Z" fill="hsl(189.7,70%,44%)" opacity="0.54"/><ellipse cx="49.22" cy="56.72" rx="1.75" ry="4.77" fill="hsl(196.7,60%,77%)" opacity="0.89"/><circle cx="33.79" cy="3.70" r="1.30" fill="hsl(203.7,70%,64%)" opacity="0.79"/><path d="M24.23 7.07 L52.49 1.34 L62.90 4.90 Z" fill="hsl(210.7,70%,70%)" opacity="0.46"/><ellipse cx="14.95" cy="49.58" rx="3.60" ry="4.87" fill="hsl(217.7,60%,43%)" opacity="0.57"/><circle cx="29.12" cy="22.94" r="3.09" fill="hsl(224.7,70%,43%)" opacity="0.72"/><path d="M28.53 17.26 L46.16 18.27 L2.51 52.25 Z" fill="hsl(231.7,70%,64%)" opacity="0.63"/><ellipse cx="29.95" cy="19.47" rx="3.79" ry="4.36" fill="hsl(238.7,60%,55%)" opacity="0.82"/><circle cx="12.08" cy="56.73" r="4.85" fill="hsl(245.7,70%,67%)" opacity="0.85"/><path d="M51.70 26.21 L61.48 40.17 L60.37 3.67 Z" fill="hsl(252.7,70%,78%)" opacity="0.31"/><ellipse cx="8.59" cy="59.57" rx="1.20" ry="1.35" fill="hsl(259.7,60%,46%)" opacity="0.49"/><circle cx="60.66" cy="40.03" r="3.37" fill="hsl(266.7,70%,69%)" opacity="0.83"/><path d="M21.25 29.30 L6.52 42.01 L51.29 15.68 Z" fill="hsl(273.7,70%,48%)" opacity="0.62"/><ellipse cx="62.52" cy="47.21" rx="5.86" ry="3.01" fill="hsl(280.7,60%,35%)" opacity="0.56"/><circle cx="46.84" cy="51.35" r="2.29" fill="hsl(287.7,70%,53%)" opacity="0.75"/><path d="M63.06 62.65 L31.84 14.30 L4.99 39.53 Z" fill="hsl(294.7,70%,76%)" opacity="0.38"/><ellipse cx="57.62" cy="38.20" rx="1.73" ry="5.92" fill="hsl(301.7,60%,64%)" opacity="0.68"/><circle cx="21.69" cy="15.53" r="4.73" fill="hsl(308.7,70%,63%)" opacity="0.42"/><path d="M59.93 36.06 L61.61 9.88 L54.14 60.91 Z" fill="hsl(315.7,70%,77%)" opacity="0.42"/><ellipse cx="7.72" cy="28.44" rx="4.19" ry="3.21" fill="hsl(322.7,60%,73%)" opacity="0.55"/><circle cx="21.75" cy="13.21" r="4.12" fill="hsl(329.7,70%,44%)" opacity="0.43"/><path d="M25.10 45.01 L49.38 13.01 L22.92 12.41 Z" fill="hsl(336.7,70%,51%)" opacity="0.66"/><ellipse cx="23.62" cy="34.03" rx="3.38" ry="4.05" fill="hsl(343.7,60%,42%)" opacity="0.74"/><circle cx="34.40" cy="53.58" r="4.34" fill="hsl(350.7,70%,57%)" opacity="0.60"/><path d="M4.45 47.85 L62.77 5.64 L44.92 10.59 Z" fill="hsl(357.7,70%,45%)" opacity="0.39"/><ellipse cx="4.78" cy="20.01" rx="1.91" ry="4.60" fill="hsl(4.7,60%,77%)" opacity="0.42"/><circle cx="1.88" cy="30.22" r="3.80" fill="hsl(11.7,70%,70%)" opacity="0.58"/><path d="M52.83 31.21 L48.80 28.06 L16.31 39.37 Z" fill="hsl(18.7,70%,43%)" opacity="0.66"/><ellipse cx="29.17" cy="31.65" rx="1.04" ry="1.96" fill="hsl(25.7,60%,74%)" opacity="0.55"/><circle cx="24.12" cy="18.89" r="3.70" fill="hsl(32.7,70%,77%)" opacity="0.72"/><path d="M36.77 57.67 L6.86 16.55 L41.69 40.00 Z" fill="hsl(39.7,70%,80%)" opacity="0.52"/><ellipse cx="34.58" cy="11.38" rx="5.30" ry="5.55" fill="hsl(46.7,60%,71%)" opacity="0.31"/><circle cx="34.67" cy="55.91" r="2.56" fill="hsl(53.7,70%,71%)" opacity="0.54"/><path d="M45.67 8.70 L15.00 2.05 L13.43 62.17 Z" fill="hsl(60.7,70%,43%)" opacity="0.52"/><ellipse cx="26.79" cy="40.01" rx="4.82" ry="3.41" fill="hsl(67.7,60%,68%)" opacity="0.39"/><circle cx="3.38" cy="20.08" r="6.27" fill="hsl(74.7,70%,58%)" opacity="0.69"/><path d="M11.38 57.64 L61.91 21.13 L19.83 22.07 Z" fill="hsl(81.7,70%,73%)" opacity="0.35"/><ellipse cx="12.66" cy="12.67" rx="1.61" ry="3.89" fill="hsl(88.7,60%,39%)" opacity="0.50"/><circle cx="18.83" cy="51.51" r="5.50" fill="hsl(95.7,70%,60%)" opacity="0.94"/><path d="M52.21 0.63 L3.93 7.03 L49.69 20.66 Z" fill="hsl(102.7,70%,43%)" opacity="0.62"/><ellipse cx="53.02" cy="33.54" rx="2.97" ry="1.79" fill="hsl(109.7,60%,79%)" opacity="0.69"/><circle cx="63.52" cy="23.65" r="4.82" fill="hsl(116.7,70%,48%)" opacity="0.66"/><path d="M3.16 53.37 L30.17 23.75 L62.67 1.79 Z" fill="hsl(123.7,70%,68%)" opacity="0.61"/><ellipse cx="36.83" cy="7.35" rx="1.76" ry="5.38" fill="hsl(130.7,60%,56%)" opacity="0.39"/><circle cx="32.75" cy="24.60" r="3.80" fill="hsl(137.7,70%,70%)" opacity="0.43"/><path d="M63.34 41.52 L12.61 33.35 L26.89 29.85 Z" fill="hsl(144.7,70%,72%)" opacity="0.68"/><ellipse cx="49.16" cy="8.59" rx="1.35" ry="2.80" fill="hsl(151.7,60%,55%)" opacity="0.73"/><circle cx="30.28" cy="5.15" r="2.02" fill="hsl(158.7,70%,64%)" opacity="0.53"/><path d="M38.47 39.13 L28.36 8.15 L60.51 60.68 Z" fill="hsl(165.7,70%,58%)" opacity="0.53"/><ellipse cx="47.83" cy="22.88" rx="5.96" ry="3.35" fill="hsl(172.7,60%,80%)" opacity="0.36"/><circle cx="41.20" cy="57.15" r="1.24" fill="hsl(179.7,70%,79%)" opacity="0.47"/><path d="M45.43 3.45 L59.00 62.53 L55.47 5.11 Z" fill="hsl(186.7,70%,63%)" opacity="0.63"/><ellipse cx="52.02" cy="28.60" rx="3.55" ry="4.16" fill="hsl(193.7,60%,36%)" opacity="0.45"/><circle cx="49.33" cy="28.10" r="5.92" fill="hsl(200.7,70%,42%)" opacity="0.99"/><path d="M0.42 22.17 L62.71 53.83 L35.68 14.48 Z" fill="hsl(207.7,70%,46%)" opacity="0.38"/><ellipse cx="57.00" cy="26.65" rx="4.86" ry="3.09" fill="hsl(214.7,60%,78%)" opacity="0.55"/><circle cx="19.96" cy="50.50" r="6.65" fill="hsl(221.7,70%,61%)" opacity="0.46"/><path d="M52.86 19.38 L9.99 44.49 L28.93 30.42 Z" fill="hsl(228.7,70%,42%)" opacity="0.33"/><ellipse cx="59.91" cy="11.70" rx="1.95" ry="3.73" fill="hsl(235.7,60%,75%)" opacity="0.64"/><circle cx="45.05" cy="59.25" r="4.52" fill="hsl(242.7,70%,65%)" opacity="0.90"/><path d="M18.40 0.58 L31.45 2.11 L22.86 36.50 Z" fill="hsl(249.7,70%,75%)" opacity="0.63"/><ellipse cx="31.42" cy="22.08" rx="2.99" ry="5.19" fill="hsl(256.7,60%,62%)" opacity="0.41"/><circle cx="40.35" cy="20.55" r="4.92" fill="hsl(263.7,70%,48%)" opacity="0.65"/><path d="M46.29 26.60 L21.70 23.83 L15.59 50.10 Z" fill="hsl(270.7,70%,49%)" opacity="0.77"/><ellipse cx="43.82" cy="48.30" rx="2.18" ry="2.00" fill="hsl(277.7,60%,62%)" opacity="0.78"/><circle cx="44.07" cy="24.10" r="5.64" fill="hsl(284.7,70%,56%)" opacity="0.76"/><path d="M55.92 15.73 L48.56 13.21 L3.17 52.35 Z" fill="hsl(291.7,70%,50%)" opacity="0.54"/><ellipse cx="13.64" cy="41.10" rx="5.26" ry="1.35" fill="hsl(298.7,60%,59%)" opacity="0.42"/><circle cx="39.54" cy="38.51" r="5.70" fill="hsl(305.7,70%,40%)" opacity="0.56"/><path d="M9.63 14.37 L45.21 5.71 L20.47 58.39 Z" fill="hsl(312.7,70%,56%)" opacity="0.72"/><ellipse cx="22.58" cy="19.47" rx="3.18" ry="3.12" fill="hsl(319.7,60%,38%)" opacity="0.30"/><circle cx="59.34" cy="31.10" r="4.78" fill="hsl(326.7,70%,77%)" opacity="0.86"/><path d="M8.93 27.37 L12.65 62.02 L33.55 36.13 Z" fill="hsl(333.7,70%,70%)" opacity="0.50"/><ellipse cx="60.75" cy="47.17" rx="2.35" ry="3.62" fill="hsl(340.7,60%,68%)" opacity="0.61"/><circle cx="55.46" cy="29.01" r="1.03" fill="hsl(347.7,70%,51%)" opacity="0.97"/><path d="M36.64 14.45 L19.33 55.12 L37.37 61.14 Z" fill="hsl(354.7,70%,78%)" opacity="0.51"/><ellipse cx="32.76" cy="15.77" rx="3.57" ry="2.85" fill="hsl(1.7,60%,47%)" opacity="0.79"/><circle cx="42.18" cy="19.79" r="5.00" fill="hsl(8.7,70%,64%)" opacity="0.58"/><path d="M53.77 2.85 L40.84 9.50 L49.05 54.40 Z" fill="hsl(15.7,70%,43%)" opacity="0.69"/><ellipse cx="40.77" cy="55.95" rx="1.16" ry="2.89" fill="hsl(22.7,60%,37%)" opacity="0.89"/><circle cx="32.59" cy="62.49" r="3.77" fill="hsl(29.7,70%,62%)" opacity="0.66"/><path d="M35.70 22.11 L52.13 52.30 L25.27 5.14 Z" fill="hsl(36.7,70%,45%)" opacity="0.44"/><ellipse cx="43.43" cy="54.49" rx="4.09" ry="4.73" fill="hsl(43.7,60%,36%)" opacity="0.52"/><circle cx="36.44" cy="55.41" r="4.78" fill="hsl(50.7,70%,51%)" opacity="0.43"/><path d="M29.11 2.41 L40.57 11.80 L9.60 55.73 Z" fill="hsl(57.7,70%,64%)" opacity="0.32"/><ellipse cx="59.40" cy="61.27" rx="2.75" ry="3.05" fill="hsl(64.7,60%,48%)" opacity="0.70"/><circle cx="4.40" cy="42.57" r="2.07" fill="hsl(71.7,70%,58%)" opacity="0.44"/><path d="M30.52 0.18 L56.69 45.15 L13.81 17.71 Z" fill="hsl(78.7,70%,66%)" opacity="0.66"/><ellipse cx="13.42" cy="49.07" rx="2.83" ry="5.51" fill="hsl(85.7,60%,45%)" opacity="0.41"/><circle cx="3.91" cy="18.15" r="6.19" fill="hsl(92.7,70%,72%)" opacity="0.90"/><path d="M30.22 40.49 L27.38 61.86 L38.07 2.61 Z" fill="hsl(99.7,70%,74%)" opacity="0.50"/><ellipse cx="62.26" cy="58.21" rx="3.57" ry="3.54" fill="hsl(106.7,60%,65%)" opacity="0.69"/><circle cx="56.93" cy="36.53" r="2.99" fill="hsl(113.7,70%,55%)" opacity="0.55"/><path d="M14.73 10.91 L61.28 27.41 L59.70 50.93 Z" fill="hsl(120.7,70%,59%)" opacity="0.71"/><ellipse cx="14.78" cy="21.81" rx="4.30" ry="5.29" fill="hsl(127.7,60%,46%)" opacity="0.42"/><circle cx="11.86" cy="42.00" r="6.20" fill="hsl(134.7,70%,44%)" opacity="0.44"/><path d="M29.77 16.59 L32.83 26.21 L13.32 1.23 Z" fill="hsl(141.7,70%,62%)" opacity="0.45"/><ellipse cx="19.59" cy="58.52" rx="4.83" ry="3.62" fill="hsl(148.7,60%,54%)" opacity="0.86"/><circle cx="48.38" cy="36.55" r="6.35" fill="hsl(155.7,70%,52%)" opacity="0.53"/><path d="M58.83 4.47 L36.95 56.83 L37.39 43.37 Z" fill="hsl(162.7,70%,40%)" opacity="0.72"/><ellipse cx="40.58" cy="61.73" rx="4.30" ry="3.91" fill="hsl(169.7,60%,74%)" opacity="0.53"/><circle cx="11.26" cy="14.29" r="1.25" fill="hsl(176.7,70%,74%)" opacity="0.45"/><path d="M45.00 18.41 L4.53 63.23 L40.07 38.68 Z" fill="hsl(183.7,70%,49%)" opacity="0.34"/><ellipse cx="23.97" cy="36.73" rx="1.75" ry="5.05" fill="hsl(190.7,60%,56%)" opacity="0.71"/><circle cx="57.29" cy="49.38" r="3.02" fill="hsl(197.7,70%,77%)" opacity="0.43"/><path d="M55.12 3.73 L27.52 26.05 L31.45 38.87 Z" fill="hsl(204.7,70%,64%)" opacity="0.71"/><ellipse cx="28.49" cy="45.80" rx="4.50" ry="2.19" fill="hsl(211.7,60%,55%)" opacity="0.58"/><circle cx="51.42" cy="29.09" r="5.52" fill="hsl(218.7,70%,44%)" opacity="0.45"/><path d="M53.32 8.28 L47.70 16.32 L9.57 14.44 Z" fill="hsl(225.7,70%,78%)" opacity="0.76"/><ellipse cx="27.85" cy="8.01" rx="3.12" ry="1.96" fill="hsl(232.7,60%,45%)" opacity="0.58"/><circle cx="5.42" cy="34.59" r="5.45" fill="hsl(239.7,70%,66%)" opacity="0.73"/><path d="M13.58 60.50 L48.59 43.52 L18.56 23.21 Z" fill="hsl(246.7,70%,60%)" opacity="0.54"/><ellipse cx="16.88" cy="11.61" rx="1.32" ry="5.88" fill="hsl(253.7,60%,76%)" opacity="0.36"/><circle cx="45.00" cy="26.62" r="5.02" fill="hsl(260.7,70%,72%)" opacity="0.81"/><path d="M11.38 52.31 L2.35 37.78 L13.96 14.45 Z" fill="hsl(267.7,70%,76%)" opacity="0.49"/><ellipse cx="46.73" cy="28.64" rx="3.14" ry="3.72" fill="hsl(274.7,60%,64%)" opacity="0.52"/><circle cx="57.81" cy="12.89" r="6.31" fill="hsl(281.7,70%,70%)" opacity="0.65"/><path d="M16.11 47.92 L23.05 27.47 L42.39 37.58 Z" fill="hsl(288.7,70%,64%)" opacity="0.60"/><ellipse cx="34.48" cy="48.77" rx="4.19" ry="5.65" fill="hsl(295.7,60%,66%)" opacity="0.70"/><circle cx="33.92" cy="16.05" r="5.56" fill="hsl(302.7,70%,45%)" opacity="0.46"/><path d="M13.87 2.90 L24.57 9.58 L40.32 48.37 Z" fill="hsl(309.7,70%,76%)" opacity="0.56"/><ellipse cx="48.99" cy="15.70" rx="1.88" ry="5.92" fill="hsl(316.7,60%,72%)" opacity="0.52"/><circle cx="35.59" cy="3.19" r="5.97" fill="hsl(323.7,70%,47%)" opacity="0.92"/><path d="M10.61 36.25 L33.41 63.19 L47.66 23.55 Z" fill="hsl(330.7,70%,48%)" opacity="0.34"/><ellipse cx="16.98" cy="53.15" rx="5.34" ry="5.18" fill="hsl(337.7,60%,41%)" opacity="0.78"/><circle cx="49.72" cy="0.85" r="1.96" fill="hsl(344.7,70%,49%)" opacity="0.99"/><path d="M12.07 56.57 L36.14 48.34 L30.60 62.77 Z" fill="hsl(351.7,70%,47%)" opacity="0.38"/><ellipse cx="35.09" cy="35.56" rx="3.31" ry="1.75" fill="hsl(358.7,60%,50%)" opacity="0.36"/><circle cx="63.82" cy="43.50" r="1.74" fill="hsl(5.7,70%,54%)" opacity="0.92"/><path d="M31.98 7.89 L15.12 46.88 L50.43 27.76 Z" fill="hsl(12.7,70%,78%)" opacity="0.66"/><ellipse cx="51.27" cy="10.50" rx="3.55" ry="4.76" fill="hsl(19.7,60%,39%)" opacity="0.43"/><circle cx="29.38" cy="18.36" r="6.92" fill="hsl(26.7,70%,72%)" opacity="0.82"/><path d="M16.67 35.56 L44.20 23.40 L55.49 62.56 Z" fill="hsl(33.7,70%,42%)" opacity="0.53"/><ellipse cx="35.47" cy="11.43" rx="1.15" ry="3.76" fill="hsl(40.7,60%,41%)" opacity="0.48"/><circle cx="37.17" cy="42.97" r="1.70" fill="hsl(47.7,70%,41%)" opacity="0.57"/><path d="M26.05 29.13 L14.63 61.42 L47.49 33.06 Z" fill="hsl(54.7,70%,41%)" opacity="0.56"/><ellipse cx="63.26" cy="55.75" rx="3.92" ry="2.02" fill="hsl(61.7,60%,41%)" opacity="0.37"/><circle cx="9.99" cy="17.71" r="2.41" fill="hsl(68.7,70%,41%)" opacity="0.98"/><path d="M43.95 51.55 L39.18 20.91 L25.43 16.02 Z" fill="hsl(75.7,70%,74%)" opacity="0.64"/><ellipse cx="20.93" cy="52.16" rx="2.73" ry="4.82" fill="hsl(82.7,60%,40%)" opacity="0.69"/><circle cx="63.98" cy="3.86" r="1.61" fill="hsl(89.7,70%,77%)" opacity="0.69"/><path d="M61.34 27.43 L63.24 13.42 L37.50 55.51 Z" fill="hsl(96.7,70%,51%)" opacity="0.78"/><ellipse cx="11.65" cy="59.42" rx="1.90" ry="3.02" fill="hsl(103.7,60%,50%)" opacity="0.60"/><circle cx="11.80" cy="15.93" r="4.43" fill="hsl(110.7,70%,70%)" opacity="0.45"/><path d="M39.88 7.77 L19.85 59.34 L63.17 49.41 Z" fill="hsl(117.7,70%,77%)" opacity="0.35"/><ellipse cx="48.96" cy="12.03" rx="5.35" ry="4.07" fill="hsl(124.7,60%,50%)" opacity="0.38"/><circle cx="8.47" cy="47.32" r="1.89" fill="hsl(131.7,70%,57%)" opacity="0.41"/><path d="M9.14 11.91 L31.97 38.12 L31.43 56.08 Z" fill="hsl(138.7,70%,46%)" opacity="0.44"/><ellipse cx="12.17" cy="15.70" rx="3.52" ry="3.00" fill="hsl(145.7,60%,57%)" opacity="0.31"/><circle cx="32.58" cy="35.59" r="2.70" fill="hsl(152.7,70%,72%)" opacity="0.70"/><path d="M6.57 24.43 L39.93 25.21 L7.96 59.10 Z" fill="hsl(159.7,70%,58%)" opacity="0.79"/><ellipse cx="40.87" cy="18.51" rx="3.42" ry="5.48" fill="hsl(166.7,60%,79%)" opacity="0.77"/><circle cx="27.75" cy="39.40" r="4.34" fill="hsl(173.7,70%,69%)" opacity="0.88"/><path d="M24.42 28.98 L59.02 5.46 L54.53 35.49 Z" fill="hsl(180.7,70%,64%)" opacity="0.59"/><ellipse cx="6.36" cy="10.80" rx="1.87" ry="4.91" fill="hsl(187.7,60%,35%)" opacity="0.50"/><circle cx="29.58" cy="57.73" r="3.11" fill="hsl(194.7,70%,52%)" opacity="0.67"/><path d="M57.58 1.21 L50.16 28.80 L62.10 14.71 Z" fill="hsl(201.7,70%,45%)" opacity="0.41"/><ellipse cx="33.34" cy="43.39" rx="3.08" ry="4.35" fill="hsl(208.7,60%,79%)" opacity="0.85"/><circle cx="62.63" cy="63.75" r="6.74" fill="hsl(215.7,70%,59%)" opacity="0.52"/><path d="M26.77 48.95 L34.93 21.17 L58.07 5.33 Z" fill="hsl(222.7,70%,41%)" opacity="0.62"/><ellipse cx="34.01" cy="24.22" rx="4.12" ry="3.04" fill="hsl(229.7,60%,50%)" opacity="0.60"/><circle cx="61.66" cy="14.89" r="5.80" fill="hsl(236.7,70%,52%)" opacity="0.41"/><path d="M61.55 34.63 L30.42 30.38 L7.00 28.09 Z" fill="hsl(243.7,70%,66%)" opacity="0.55"/><ellipse cx="26.46" cy="34.74" rx="4.74" ry="3.09" fill="hsl(250.7,60%,43%)" opacity="0.67"/><circle cx="1.05" cy="57.12" r="2.81" fill="hsl(257.7,70%,72%)" opacity="0.45"/><path d="M59.47 24.62 L3.47 18.25 L42.55 2.87 Z" fill="hsl(264.7,70%,47%)" opacity="0.66"/><ellipse cx="40.85" cy="30.59" rx="4.42" ry="1.82" fill="hsl(271.7,60%,46%)" opacity="0.30"/><circle cx="52.36" cy="33.70" r="3.61" fill="hsl(278.7,70%,76%)" opacity="0.62"/><path d="M35.16 51.50 L56.87 13.37 L3.47 51.06 Z" fill="hsl(285.7,70%,45%)" opacity="0.64"/><ellipse cx="45.86" cy="36.74" rx="3.11" ry="2.02" fill="hsl(292.7,60%,52%)" opacity="0.71"/><circle cx="14.07" cy="48.72" r="2.84" fill="hsl(299.7,70%,73%)" opacity="0.63"/><path d="M10.51 49.79 L0.98 53.80 L13.46 8.90 Z" fill="hsl(306.7,70%,52%)" opacity="0.75"/><ellipse cx="9.41" cy="6.92" rx="4.14" ry="2.87" fill="hsl(313.7,60%,38%)" opacity="0.79"/><circle cx="22.18" cy="7.29" r="1.94" fill="hsl(320.7,70%,47%)" opacity="0.95"/><path d="M33.64 54.82 L12.99 26.61 L6.79 29.38 Z" fill="hsl(327.7,70%,70%)" opacity="0.78"/><ellipse cx="10.22" cy="41.53" rx="3.92" ry="2.62" fill="hsl(334.7,60%,42%)" opacity="0.88"/><circle cx="35.42" cy="13.25" r="3.82" fill="hsl(341.7,70%,50%)" opacity="0.88"/><path d="M61.23 21.94 L40.94 54.81 L48.80 29.13 Z" fill="hsl(348.7,70%,57%)" opacity="0.35"/><ellipse cx="36.13" cy="24.13" rx="1.32" ry="1.50" fill="hsl(355.7,60%,45%)" opacity="0.73"/><circle cx="9.55" cy="49.02" r="4.80" fill="hsl(2.7,70%,74%)" opacity="0.96"/><path d="M12.03 1.17 L34.35 62.64 L45.08 19.54 Z" fill="hsl(9.7,70%,69%)" opacity="0.67"/><ellipse cx="41.79" cy="29.83" rx="2.71" ry="3.29" fill="hsl(16.7,60%,65%)" opacity="0.52"/><circle cx="7.87" cy="27.06" r="4.66" fill="hsl(23.7,70%,48%)" opacity="0.63"/><path d="M37.20 27.00 L49.93 34.80 L7.93 34.58 Z" fill="hsl(30.7,70%,50%)" opacity="0.71"/><ellipse cx="21.30" cy="41.57" rx="5.17" ry="2.13" fill="hsl(37.7,60%,36%)" opacity="0.82"/><circle cx="50.23" cy="0.76" r="2.67" fill="hsl(44.7,70%,69%)" opacity="0.87"/><path d="M60.76 14.42 L24.37 11.94 L16.91 14.43 Z" fill="hsl(51.7,70%,48%)" opacity="0.34"/><ellipse cx="6.48" cy="40.91" rx="3.07" ry="5.52" fill="hsl(58.7,60%,69%)" opacity="0.87"/><circle cx="21.30" cy="13.14" r="1.35" fill="hsl(65.7,70%,42%)" opacity="0.94"/><path d="M48.40 51.68 L60.59 3.23 L0.95 56.64 Z" fill="hsl(72.7,70%,45%)" opacity="0.40"/><ellipse cx="52.62" cy="36.74" rx="2.70" ry="1.57" fill="hsl(79.7,60%,64%)" opacity="0.51"/><circle cx="39.36" cy="47.65" r="6.42" fill="hsl(86.7,70%,75%)" opacity="0.84"/><path d="M54.59 2.52 L13.92 28.64 L32.71 34.25 Z" fill="hsl(93.7,70%,57%)" opacity="0.39"/><ellipse cx="51.20" cy="60.34" rx="5.71" ry="1.28" fill="hsl(100.7,60%,48%)" opacity="0.64"/><circle cx="30.93" cy="18.94" r="1.71" fill="hsl(107.7,70%,63%)" opacity="0.73"/></svg>