<svg xmlns="http://www.w3.org/2000/svg" width="64" height="64" viewBox="0 0 64 64"><rect width="64" height="64" rx="8" fill="hsl(30.0,65%,45%)"/><circle cx="23.00" cy="7.83" r="4.34" fill="hsl(30.0,70%,58%)" opacity="0.59"/><path d="M25.21 26.46 L62.51 17.87 L54.43 5.21 Z" fill="hsl(37.0,70%,60%)" opacity="0.43"/><ellipse cx="36.04" cy="39.34" rx="4.67" ry="3.05" fill="hsl(44.0,60%,42%)" opacity="0.50"/><circle cx="41.02" cy="18.59" r="4.13" fill="hsl(51.0,70%,61%)" opacity="0.43"/><path d="M22.07 48.73 L36.45 34.70 L63.13 28.09 Z" fill="hsl(58.0,70%,48%)" opacity="0.48"/><ellipse cx="45.07" cy="13.42" rx="2.78" ry="1.30" fill="hsl(65.0,60%,35%)" opacity="0.64"/><circle cx="43.69" cy="10.07" r="1.96" fill="hsl(72.0,70%,79%)" opacity="0.73"/><path d="M51.49 8.49 L56.38 21.62 L23.75 1.01 Z" fill="hsl(79.0,70%,45%)" opacity="0.45"/><ellipse cx="37.38" cy="60.18" rx="1.05" ry="1.65" fill="hsl(86.0,60%,51%)" opacity="0.51"/><circle cx="0.29" cy="12.23" r="4.86" fill="hsl(93.0,70%,76%)" opacity="0.71"/><path d="M0.54 54.67 L44.37 38.27 L23.94 46.47 Z" fill="hsl(100.0,70%,48%)" opacity="0.52"/><ellipse cx="21.73" cy="42.77" rx="2.81" ry="5.36" fill="hsl(107.0,60%,70%)" opacity="0.86"/><circle cx="57.48" cy="15.87" r="3.50" fill="hsl(114.0,70%,49%)" opacity="0.53"/><path d="M39.65 26.91 L27.62 62.44 L59.42 1.30 Z" fill="hsl(121.0,70%,74%)" opacity="0.35"/><ellipse cx="35.05" cy="46.17" rx="5.51" ry="4.07" fill="hsl(128.0,60%,62%)" opacity="0.33"/><circle cx="3.07" cy="49.08" r="5.21" fill="hsl(135.0,70%,78%)" opacity="0.94"/><path d="M15.23 16.15 L12.71 18.33 L26.85 12.28 Z" fill="hsl(142.0,70%,65%)" opacity="0.76"/><ellipse cx="3.91" cy="61.90" rx="4.66" ry="5.56" fill="hsl(149.0,60%,70%)" opacity="0.44"/><circle cx="10.75" cy="23.34" r="2.14" fill="hsl(156.0,70%,51%)" opacity="0.57"/><path d="M43.77 46.26 L31.31 24.01 L19.28 19.43 Z" fill="hsl(163.0,70%,41%)" opacity="0.65"/><ellipse cx="11.16" cy="32.42" rx="4.82" ry="1.72" fill="hsl(170.0,60%,79%)" opacity="0.83"/><circle cx="18.03" cy="5.77" r="6.95" fill="hsl(177.0,70%,61%)" opacity="0.97"/><path d="M11.35 11.94 L1.35 58.90 L43.51 51.23 Z" fill="hsl(184.0,70%,64%)" opacity="0.48"/><ellipse cx="48.97" cy="33.15" rx="4.85" ry="1.88" fill="hsl(191.0,60%,79%)" opacity="0.40"/><circle cx="61.57" cy="16.36" r="4.80" fill="hsl(198.0,70%,51%)" opacity="0.44"/><path d="M45.25 57.00 L11.41 40.56 L54.86 54.40 Z" fill="hsl(205.0,70%,53%)" opacity="0.43"/><ellipse cx="58.47" cy="55.04" rx="5.84" ry="3.32" fill="hsl(212.0,60%,58%)" opacity="0.78"/><circle cx="43.09" cy="4.37" r="4.40" fill="hsl(219.0,70%,47%)" opacity="0.96"/><path d="M45.84 14.93 L13.08 62.64 L18.43 48.57 Z" fill="hsl(226.0,70%,50%)" opacity="0.71"/><ellipse cx="13.24" cy="38.48" rx="2.21" ry="4.55" fill="hsl(233.0,60%,76%)" opacity="0.40"/><circle cx="1.24" cy="45.30" r="1.07" fill="hsl(240.0,70%,75%)" opacity="0.81"/><path d="M15.70 56.41 L38.63 23.64 L38.41 46.72 Z" fill="hsl(247.0,70%,60%)" opacity="0.36"/><ellipse cx="47.15" cy="24.54" rx="5.72" ry="4.20" fill="hsl(254.0,60%,37%)" opacity="0.49"/><circle cx="59.12" cy="15.59" r="5.73" fill="hsl(261.0,70%,68%)" opacity="0.57"/><path d="M12.20 26.70 L31.22 38.96 L13.58 60.76 Z" fill="hsl(268.0,70%,68%)" opacity="0.53"/><ellipse cx="1.82" cy="7.30" rx="4.21" ry="3.77" fill="hsl(275.0,60%,36%)" opacity="0.32"/><circle cx="42.51" cy="56.68" r="3.97" fill="hsl(282.0,70%,59%)" opacity="0.65"/><path d="M61.98 1.72 L12.49 2.43 L42.82 1.48 Z" fill="hsl(289.0,70%,64%)" opacity="0.67"/><ellipse cx="20.41" cy="26.01" rx="5.69" ry="2.99" fill="hsl(296.0,60%,38%)" opacity="0.87"/><circle cx="56.05" cy="30.45" r="5.13" fill="hsl(303.0,70%,73%)" opacity="0.87"/><path d="M11.53 16.27 L23.64 28.90 L42.82 28.29 Z" fill="hsl(310.0,70%,42%)" opacity="0.74"/><ellipse cx="58.17" cy="23.77" rx="1.66" ry="2.99" fill="hsl(317.0,60%,46%)" opacity="0.42"/><circle cx="44.22" cy="20.44" r="6.96" fill="hsl(324.0,70%,77%)" opacity="0.87"/><path d="M47.93 26.55 L8.86 62.84 L24.24 5.95 Z" fill="hsl(331.0,70%,61%)" opacity="0.63"/><ellipse cx="22.12" cy="30.89" rx="3.90" ry="4.08" fill="hsl(338.0,60%,56%)" opacity="0.32"/><circle cx="49.80" cy="0.56" r="3.86" fill="hsl(345.0,70%,55%)" opacity="0.95"/><path d="M42.34 62.37 L19.70 48.08 L11.85 22.37 Z" fill="hsl(352.0,70%,65%)" opacity="0.73"/><ellipse cx="34.18" cy="53.37" rx="1.52" ry="3.57" fill="hsl(359.0,60%,75%)" opacity="0.51"/><circle cx="62.32" cy="59.49" r="1.15" fill="hsl(6.0,70%,40%)" opacity="0.96"/><path d="M7.35 32.03 L11.15 29.47 L22.47 25.61 Z" fill="hsl(13.0,70%,68%)" opacity="0.70"/><ellipse cx="53.94" cy="27.49" rx="4.26" ry="1.96" fill="hsl(20.0,60%,45%)" opacity="0.63"/><circle cx="28.33" cy="60.42" r="5.76" fill="hsl(27.0,70%,63%)" opacity="0.72"/><path d="M36.82 59.79 L15.84 58.62 L7.12 48.34 Z" fill="hsl(34.0,70%,74%)" opacity="0.79"/><ellipse cx="9.86" cy="4.35" rx="2.78" ry="4.39" fill="hsl(41.0,60%,55%)" opacity="0.55"/><circle cx="41.76" cy="58.37" r="1.01" fill="hsl(48.0,70%,56%)" opacity="0.55"/><path d="M40.84 59.35 L53.62 40.29 L8.99 43.40 Z" fill="hsl(55.0,70%,54%)" opacity="0.39"/><ellipse cx="23.16" cy="18.67" rx="2.72" ry="2.29" fill="hsl(62.0,60%,51%)" opacity="0.75"/><circle cx="46.42" cy="50.47" r="2.18" fill="hsl(69.0,70%,66%)" opacity="0.75"/><path d="M40.89 57.19 L53.85 48.48 L35.91 12.67 Z" fill="hsl(76.0,70%,63%)" opacity="0.32"/><ellipse cx="19.93" cy="19.99" rx="2.71" ry="3.18" fill="hsl(83.0,60%,58%)" opacity="0.83"/><circle cx="46.85" cy="46.74" r="1.74" fill="hsl(90.0,70%,72%)" opacity="0.73"/><path d="M12.33 49.56 L48.95 13.74 L20.92 10.91 Z" fill="hsl(97.0,70%,57%)" opacity="0.52"/><ellipse cx="55.87" cy="24.33" rx="4.79" ry="2.22" fill="hsl(104.0,60%,58%)" opacity="0.78"/><circle cx="3.52" cy="3.99" r="1.18" fill="hsl(111.0,70%,80%)" opacity="0.60"/><path d="M37.22 46.13 L44.19 21.25 L22.53 33.65 Z" fill="hsl(118.0,70%,71%)" opacity="0.54"/><ellipse cx="28.08" cy="4.22" rx="5.69" ry="2.13" fill="hsl(125.0,60%,63%)" opacity="0.57"/><circle cx="19.11" cy="40.82" r="6.81" fill="hsl(132.0,70%,70%)" opacity="0.57"/><path d="M33.93 39.18 L21.95 32.67 L8.83 19.83 Z" fill="hsl(139.0,70%,65%)" opacity="0.49"/><ellipse cx="8.95" cy="62.98" rx="4.73" ry="4.83" fill="hsl(146.0,60%,70%)" opacity="0.42"/><circle cx="15.49" cy="1.16" r="1.78" fill="hsl(153.0,70%,62%)" opacity="0.43"/><path d="M59.19 62.80 L10.12 61.98 L39.81 42.55 Z" fill="hsl(160.0,70%,77%)" opacity="0.62"/><ellipse cx="32.74" cy="58.86" rx="1.99" ry="4.40" fill="hsl(167.0,60%,62%)" opacity="0.72"/><circle cx="53.92" cy="27.42" r="6.60" fill="hsl(174.0,70%,53%)" opacity="0.49"/><path d="M38.05 57.92 L33.43 58.50 L37.85 48.99 Z" fill="hsl(181.0,70%,48%)" opacity="0.56"/><ellipse cx="30.34" cy="34.47" rx="1.36" ry="1.44" fill="hsl(188.0,60%,66%)" opacity="0.36"/><circle cx="20.55" cy="57.03" r="1.84" fill="hsl(195.0,70%,49%)" opacity="0.46"/><path d="M36.59 7.33 L59.46 32.18 L60.19 18.58 Z" fill="hsl(202.0,70%,45%)" opacity="0.37"/><ellipse cx="22.88" cy="48.09" rx="4.35" ry="4.83" fill="hsl(209.0,60%,79%)" opacity="0.68"/><circle cx="29.54" cy="17.96" r="2.81" fill="hsl(216.0,70%,43%)" opacity="0.78"/><path d="M15.59 0.80 L23.34 32.77 L46.11 48.92 Z" fill="hsl(223.0,70%,61%)" opacity="0.64"/><ellipse cx="59.43" cy="33.88" rx="5.29" ry="2.75" fill="hsl(230.0,60%,45%)" opacity="0.79"/><circle cx="3.58" cy="53.28" r="2.39" fill="hsl(237.0,70%,65%)" opacity="0.89"/><path d="M53.75 18.24 L1.51 16.75 L0.17 22.62 Z" fill="hsl(244.0,70%,74%)" opacity="0.60"/><ellipse cx="40.28" cy="12.50" rx="4.67" ry="3.85" fill="hsl(251.0,60%,71%)" opacity="0.57"/><circle cx="35.54" cy="60.16" r="2.28" fill="hsl(258.0,70%,74%)" opacity="0.41"/><path d="M56.31 23.54 L43.30 54.74 L63.03 4.01 Z" fill="hsl(265.0,70%,56%)" opacity="0.34"/><ellipse cx="30.19" cy="17.21" rx="5.54" ry="1.30" fill="hsl(272.0,60%,60%)" opacity="0.79"/><circle cx="47.10" cy="22.25" r="2.42" fill="hsl(279.0,70%,59%)" opacity="0.66"/><path d="M48.41 54.09 L32.50 48.04 L60.29 14.04 Z" fill="hsl(286.0,70%,57%)" opacity="0.49"/><ellipse cx="26.25" cy="19.47" rx="5.67" ry="3.11" fill="hsl(293.0,60%,76%)" opacity="0.58"/><circle cx="4.68" cy="57.00" r="4.25" fill="hsl(300.0,70%,78%)" opacity="0.99"/><path d="M46.16 59.12 L12.69 3.25 L17.80 29.68 Z" fill="hsl(307.0,70%,77%)" opacity="0.34"/><ellipse cx="20.71" cy="30.54" rx="2.42" ry="5.66" fill="hsl(314.0,60%,72%)" opacity="0.65"/><circle cx="24.08" cy="45.60" r="1.80" fill="hsl(321.0,70%,72%)" opacity="0.42"/><path d="M30.71 30.11 L14.75 40.92 L62.84 39.84 Z" fill="hsl(328.0,70%,48%)" opacity="0.45"/><ellipse cx="0.10" cy="22.38" rx="1.77" ry="4.89" fill="hsl(335.0,60%,45%)" opacity="0.89"/><circle cx="1.13" cy="57.63" r="5.54" fill="hsl(342.0,70%,42%)" opacity="0.66"/><path d="M24.96 45.09 L4.81 12.83 L21.51 27.30 Z" fill="hsl(349.0,70%,70%)" opacity="0.33"/><ellipse cx="47.24" cy="23.95" rx="2.17" ry="2.53" fill="hsl(356.0,60%,73%)" opacity="0.69"/><circle cx="11.36" cy="3.86" r="2.24" fill="hsl(3.0,70%,67%)" opacity="0.90"/><path d="M12.20 46.74 L39.56 18.31 L9.12 3.45 Z" fill="hsl(10.0,70%,57%)" opacity="0.63"/><ellipse cx="12.88" cy="4.54" rx="4.65" ry="5.41" fill="hsl(17.0,60%,78%)" opacity="0.59"/><circle cx="49.43" cy="14.12" r="6.68" fill="hsl(24.0,70%,66%)" opacity="0.59"/><path d="M61.29 55.04 L3.99 8.95 L41.37 39.99 Z" fill="hsl(31.0,70%,52%)" opacity="0.51"/><ellipse cx="56.32" cy="21.41" rx="2.71" ry="2.80" fill="hsl(38.0,60%,63%)" opacity="0.85"/><circle cx="27.65" cy="41.81" r="3.31" fill="hsl(45.0,70%,74%)" opacity="0.97"/><path d="M48.89 62.20 L28.56 1.97 L5.14 24.56 Z" fill="hsl(52.0,70%,56%)" opacity="0.73"/><ellipse cx="24.11" cy="12.37" rx="4.92" ry="5.17" fill="hsl(59.0,60%,45%)" opacity="0.65"/><circle cx="32.89" cy="3.75" r="2.03" fill="hsl(66.0,70%,67%)" opacity="0.43"/><path d="M57.03 2.49 L58.59 56.21 L29.80 24.51 Z" fill="hsl(73.0,70%,71%)" opacity="0.31"/><ellipse cx="26.26" cy="6.60" rx="4.92" ry="3.63" fill="hsl(80.0,60%,45%)" opacity="0.83"/><circle cx="51.10" cy="55.38" r="6.57" fill="hsl(87.0,70%,67%)" opacity="0.47"/><path d="M35.93 13.11 L40.25 40.28 L27.16 50.53 Z" fill="hsl(94.0,70%,40%)" opacity="0.42"/><ellipse cx="29.03" cy="0.92" rx="1.73" ry="2.47" fill="hsl(101.0,60%,80%)" opacity="0.86"/><circle cx="32.46" cy="36.77" r="6.45" fill="hsl(108.0,70%,43%)" opacity="0.47"/><path d="M18.64 48.31 L63.85 14.71 L4.84 18.15 Z" fill="hsl(115.0,70%,47%)" opacity="0.79"/><ellipse cx="47.74" cy="45.52" rx="4.71" ry="1.89" fill="hsl(122.0,60%,62%)" opacity="0.65"/><circle cx="19.63" cy="41.99" r="3.21" fill="hsl(129.0,70%,49%)" opacity="0.86"/><path d="M52.39 1.33 L0.00 50.93 L16.61 14.79 Z" fill="hsl(136.0,70%,42%)" opacity="0.58"/><ellipse cx="38.45" cy="6.46" rx="1.15" ry="4.64" fill="hsl(143.0,60%,77%)" opacity="0.51"/><circle cx="4.18" cy="54.73" r="4.36" fill="hsl(150.0,70%,52%)" opacity="0.49"/><path d="M46.68 48.41 L7.60 24.19 L17.71 62.33 Z" fill="hsl(157.0,70%,53%)" opacity="0.31"/><ellipse cx="1.83" cy="38.46" rx="3.26" ry="1.77" fill="hsl(164.0,60%,51%)" opacity="0.35"/><circle cx="27.03" cy="23.40" r="6.08" fill="hsl(171.0,70%,49%)" opacity="0.93"/><path d="M59.55 48.20 L54.99 44.27 L15.34 5.91 Z" fill="hsl(178.0,70%,51%)" opacity="0.48"/><ellipse cx="32.37" cy="62.16" rx="5.44" ry="5.83" fill="hsl(185.0,60%,35%)" opacity="0.52"/><circle cx="27.21" cy="59.15" r="3.40" fill="hsl(192.0,70%,47%)" opacity="0.54"/><path d="M42.84 52.51 L19.86 39.80 L8.25 55.53 Z" fill="hsl(199.0,70%,57%)" opacity="0.53"/><ellipse cx="27.33" cy="41.77" rx="1.95" ry="2.25" fill="hsl(206.0,60%,51%)" opacity="0.59"/><circle cx="19.17" cy="37.57" r="3.98" fill="hsl(213.0,70%,77%)" opacity="0.93"/><path d="M31.73 58.54 L17.83 42.46 L17.44 0.87 Z" fill="hsl(220.0,70%,67%)" opacity="0.38"/><ellipse cx="46.14" cy="55.86" rx="3.25" ry="5.35" fill="hsl(227.0,60%,76%)" opacity="0.33"/><circle cx="19.91" cy="10.89" r="6.36" fill="hsl(234.0,70%,74%)" opacity="0.78"/><path d="M15.01 57.40 L29.58 54.71 L27.09 5.82 Z" fill="hsl(241.0,70%,59%)" opacity="0.65"/><ellipse cx="52.99" cy="54.71" rx="4.10" ry="5.35" fill="hsl(248.0,60%,77%)" opacity="0.34"/><circle cx="51.48" cy="14.51" r="4.46" fill="hsl(255.0,70%,41%)" opacity="0.91"/><path d="M54.59 46.61 L57.07 24.23 L22.27 43.47 Z" fill="hsl(262.0,70%,68%)" opacity="0.69"/><ellipse cx="13.96" cy="45.09" rx="4.02" ry="2.27" fill="hsl(269.0,60%,51%)" opacity="0.50"/><circle cx="38.58" cy="26.13" r="6.13" fill="hsl(276.0,70%,69%)" opacity="0.40"/><path d="M47.85 47.03 L50.70 31.92 L7.41 15.28 Z" fill="hsl(283.0,70%,44%)" opacity="0.52"/><ellipse cx="2.46" cy="53.35" rx="4.42" ry="4.86" fill="hsl(290.0,60%,50%)" opacity="0.36"/><circle cx="19.17" cy="44.89" r="4.35" fill="hsl(297.0,70%,42%)" opacity="0.83"/><path d="M4.66 8.57 L41.97 5.62 L61.33 13.34 Z" fill="hsl(304.0,70%,64%)" opacity="0.61"/><ellipse cx="3.11" cy="38.33" rx="3.15" ry="5.29" fill="hsl(311.0,60%,69%)" opacity="0.53"/><circle cx="54.15" cy="30.34" r="1.72" fill="hsl(318.0,70%,80%)" opacity="0.75"/><path d="M22.61 3.55 L52.70 14.29 L18.36 21.23 Z" fill="hsl(325.0,70%,71%)" opacity="0.74"/><ellipse cx="42.72" cy="27.47" rx="2.16" ry="4.22" fill="hsl(332.0,60%,76%)" opacity="0.45"/><circle cx="23.40" cy="8.25" r="4.44" fill="hsl(339.0,70%,47%)" opacity="0.86"/><path d="M34.75 18.82 L62.25 52.53 L15.55 9.64 Z" fill="hsl(346.0,70%,65%)" opacity="0.46"/><ellipse cx="29.24" cy="62.95" rx="1.43" ry="2.10" fill="hsl(353.0,60%,75%)" opacity="0.75"/><circle cx="25.99" cy="36.43" r="1.96" fill="hsl(0.0,70%,41%)" opacity="0.90"/><path d="M59.55 37.18 L13.17 55.71 L58.95 24.08 Z" fill="hsl(7.0,70%,42%)" opacity="0.43"/><ellipse cx="42.04" cy="34.14" rx="3.45" ry="3.51" fill="hsl(14.0,60%,44%)" opacity="0.32"/><circle cx="58.10" cy="24.25" r="2.88" fill="hsl(21.0,70%,74%)" opacity="0.71"/><path d="M27.37 10.70 L7.99 16.58 L33.99 45.24 Z" fill="hsl(28.0,70%,58%)" opacity="0.49"/><ellipse cx="62.90" cy="56.87" rx="1.26" ry="5.13" fill="hsl(35.0,60%,66%)" opacity="0.32"/><circle cx="27.61" cy="55.43" r="3.01" fill="hsl(42.0,70%,74%)" opacity="0.77"/><path d="M48.02 53.74 L9.57 9.95 L15.83 11.44 Z" fill="hsl(49.0,70%,78%)" opacity="0.58"/><ellipse cx="21.19" cy="34.38" rx="4.86" ry="4.49" fill="hsl(56.0,60%,55%)" opacity="0.59"/><circle cx="16.68" cy="35.11" r="1.40" fill="hsl(63.0,70%,54%)" opacity="0.59"/><path d="M0.64 30.31 L18.91 38.25 L60.22 0.35 Z" fill="hsl(70.0,70%,60%)" opacity="0.66"/><ellipse cx="37.11" cy="11.42" rx="4.26" ry="5.80" fill="hsl(77.0,60%,76%)" opacity="0.55"/><circle cx="34.20" cy="60.11" r="5.03" fill="hsl(84.0,70%,53%)" opacity="0.69"/><path d="M45.67 13.29 L48.90 62.89 L21.69 7.93 Z" fill="hsl(91.0,70%,40%)" opacity="0.61"/><ellipse cx="40.29" cy="36.29" rx="1.00" ry="2.07" fill="hsl(98.0,60%,75%)" opacity="0.73"/><circle cx="18.54" cy="55.66" r="5.29" fill="hsl(105.0,70%,61%)" opacity="0.50"/><path d="M15.39 9.85 L3.75 16.04 L10.17 55.64 Z" fill="hsl(112.0,70%,75%)" opacity="0.46"/><ellipse cx="40.89" cy="4.74" rx="1.75" ry="2.56" fill="hsl(119.0,60%,66%)" opacity="0.50"/><circle cx="48.35" cy="47.01" r="4.10" fill="hsl(126.0,70%,65%)" opacity="0.61"/><path d="M54.88 11.39 L0.53 10.22 L30.88 34.91 Z" fill="hsl(133.0,70%,48%)" opacity="0.32"/><ellipse cx="11.88" cy="15.78" rx="3.32" ry="1.52" fill="hsl(140.0,60%,46%)" opacity="0.34"/><circle cx="56.73" cy="50.60" r="5.62" fill="hsl(147.0,70%,69%)" opacity="0.95"/><path d="M21.52 34.44 L13.82 35.59 L3.11 52.92 Z" fill="hsl(154.0,70%,44%)" opacity="0.76"/><ellipse cx="38.09" cy="6.30" rx="2.02" ry="4.27" fill="hsl(161.0,60%,58%)" opacity="0.43"/><circle cx="2.55" cy="53.36" r="3.68" fill="hsl(168.0,70%,71%)" opacity="0.73"/><path d="M60.05 59.94 L38.00 62.90 L17.30 43.12 Z" fill="hsl(175.0,70%,61%)" opacity="0.51"/><ellipse cx="60.93" cy="37.73" rx="5.99" ry="4.48" fill="hsl(182.0,60%,42%)" opacity="0.44"/><circle cx="63.65" cy="6.00" r="3.04" fill="hsl(189.0,70%,49%)" opacity="0.76"/><path d="M0.99 45.00 L48.95 2.57 L24.29 61.53 Z" fill="hsl(196.0,70%,64%)" opacity="0.73"/><ellipse cx="37.10" cy="15.76" rx="4.45" ry="5.62" fill="hsl(203.0,60%,43%)" opacity="0.80"/><circle cx="42.43" cy="1.55" r="4.90" fill="hsl(210.0,70%,70%)" opacity="0.90"/><path d="M38.99 1.87 L53.29 10.20 L49.92 63.28 Z" fill="hsl(217.0,70%,52%)" opacity="0.62"/><ellipse cx="27.45" cy="55.44" rx="2.66" ry="5.46" fill="hsl(224.0,60%,54%)" opacity="0.77"/><circle cx="12.48" cy="60.38" r="1.43" fill="hsl(231.0,70%,66%)" opacity="0.70"/><path d="M33.11 14.17 L44.41 5.71 L18.47 55.68 Z" fill="hsl(238.0,70%,46%)" opacity="0.54"/><ellipse cx="58.47" cy="4.20" rx="5.19" ry="4.84" fill="hsl(245.0,60%,72%)" opacity="0.54"/><circle cx="55.85" cy="29.66" r="1.57" fill="hsl(252.0,70%,61%)" opacity="1.00"/><path d="M52.19 50.20 L26.40 57.14 L25.36 45.10 Z" fill="hsl(259.0,70%,48%)" opacity="0.68"/><ellipse cx="4.52" cy="28.84" rx="1.17" ry="5.23" fill="hsl(266.0,60%,65%)" opacity="0.34"/><circle cx="14.30" cy="50.87" r="6.45" fill="hsl(273.0,70%,71%)" opacity="0.60"/><path d="M62.17 31.99 L48.89 24.61 L9.60 20.97 Z" fill="hsl(280.0,70%,62%)" opacity="0.38"/><ellipse cx="12.51" cy="14.91" rx="5.41" ry="2.31" fill="hsl(287.0,60%,64%)" opacity="0.81"/><circle cx="1.68" cy="22.02" r="2.79" fill="hsl(294.0,70%,54%)" opacity="0.81"/><path d="M54.18 18.37 L13.85 15.75 L6.12 8.41 Z" fill="hsl(301.0,70%,53%)" opacity="0.75"/><ellipse cx="26.48" cy="51.86" rx="5.78" ry="5.33" fill="hsl(308.0,60%,75%)" opacity="0.84"/><circle cx="26.57" cy="43.51" r="5.35" fill="hsl(315.0,70%,48%)" opacity="0.81"/><path d="M34.54 31.58 L32.60 62.87 L57.43 34.46 Z" fill="hsl(322.0,70%,54%)" opacity="0.42"/><ellipse cx="55.62" cy="28.86" rx="5.87" ry="5.72" fill="hsl(329.0,60%,45%)" opacity="0.55"/><circle cx="47.77" cy="46.19" r="6.58" fill="hsl(336.0,70%,70%)" opacity="0.93"/><path d="M53.13 39.97 L58.12 11.76 L11.61 22.52 Z" fill="hsl(343.0,70%,76%)" opacity="0.78"/><ellipse cx="46.30" cy="33.14" rx="5.56" ry="4.18" fill="hsl(350.0,60%,46%)" opacity="0.87"/><circle cx="18.19" cy="37.88" r="1.04" fill="hsl(357.0,70%,56%)" opacity="0.71"/><path d="M6.20 35.50 L61.20 50.45 L36.88 58.64 Z" fill="hsl(4.0,70%,45%)" opacity="0.32"/><ellipse cx="34.02" cy="56.28" rx="4.73" ry="5.15" fill="hsl(11.0,60%,70%)" opacity="0.85"/><circle cx="43.57" cy="25.63" r="6.25" fill="hsl(18.0,70%,50%)" opacity="0.52"/><path d="M39.88 59.41 L55.76 33.62 L54.07 6.10 Z" fill="hsl(25.0,70%,68%)" opacity="0.60"/><ellipse cx="49.99" cy="31.11" rx="1.26" ry="3.83" fill="hsl(32.0,60%,77%)" opacity="0.50"/><circle cx="2.94" cy="4.62" r="2.44" fill="hsl(39.0,70%,61%)" opacity="0.96"/><path d="M39.20 56.21 L3.27 11.83 L36.70 30.86 Z" fill="hsl(46.0,70%,69%)" opacity="0.71"/><ellipse cx="27.29" cy="10.42" rx="2.78" ry="3.49" fill="hsl(53.0,60%,59%)" opacity="0.35"/><circle cx="23.82" cy="16.57" r="3.04" fill="hsl(60.0,70%,60%)" opacity="0.55"/><path d="M56.62 61.34 L35.27 32.04 L20.58 27.32 Z" fill="hsl(67.0,70%,44%)" opacity="0.31"/><ellipse cx="43.17" cy="9.08" rx="3.58" ry="1.07" fill="hsl(74.0,60%,63%)" opacity="0.44"/><circle cx="13.60" cy="46.63" r="3.02" fill="hsl(81.0,70%,77%)" opacity="0.51"/><path d="M58.72 13.49 L6.68 2.92 L39.79 0.60 Z" fill="hsl(88.0,70%,63%)" opacity="0.38"/><ellipse cx="38.91" cy="15.31" rx="5.95" ry="5.72" fill="hsl(95.0,60%,70%)" opacity="0.80"/><circle cx="6.02" cy="31.32" r="2.26" fill="hsl(102.0,70%,59%)" opacity="0.96"/><path d="M57.67 44.86 L6.67 14.77 L10.15 63.27 Z" fill="hsl(109.0,70%,63%)" opacity="0.79"/><ellipse cx="24.77" cy="0.26" rx="2.19" ry="5.99" fill="hsl(116.0,60%,69%)" opacity="0.79"/><circle cx="14.66" cy="54.33" r="3.86" fill="hsl(123.0,70%,47%)" opacity="0.73"/></svg>