<svg xmlns="http://www.w3.org/2000/svg" width="64" height="64" viewBox="0 0 64 64"><rect width="64" height="64" rx="8" fill="hsl(142.8,65%,45%)"/><circle cx="23.67" cy="36.57" r="1.26" fill="hsl(142.8,70%,58%)" opacity="0.59"/><path d="M37.25 3.30 L45.62 0.93 L25.70 21.25 Z" fill="hsl(149.8,70%,80%)" opacity="0.62"/><ellipse cx="16.78" cy="49.89" rx="2.59" ry="3.73" fill="hsl(156.8,60%,60%)" opacity="0.54"/><circle cx="37.38" cy="60.79" r="5.31" fill="hsl(163.8,70%,65%)" opacity="0.99"/><path d="M32.94 44.18 L48.09 16.20 L54.55 6.80 Z" fill="hsl(170.8,70%,43%)" opacity="0.57"/><ellipse cx="45.67" cy="37.26" rx="1.43" ry="5.87" fill="hsl(177.8,60%,41%)" opacity="0.76"/><circle cx="60.21" cy="7.26" r="6.63" fill="hsl(184.8,70%,40%)" opacity="0.79"/><path d="M53.24 28.08 L54.84 3.62 L25.83 3.73 Z" fill="hsl(191.8,70%,67%)" opacity="0.54"/><ellipse cx="51.16" cy="19.34" rx="1.57" ry="3.67" fill="hsl(198.8,60%,56%)" opacity="0.54"/><circle cx="15.80" cy="28.15" r="1.38" fill="hsl(205.8,70%,55%)" opacity="0.76"/><path d="M63.79 3.09 L29.28 23.73 L63.67 58.74 Z" fill="hsl(212.8,70%,43%)" opacity="0.58"/><ellipse cx="35.63" cy="36.81" rx="5.37" ry="5.18" fill="hsl(219.8,60%,77%)" opacity="0.43"/><circle cx="29.42" cy="21.67" r="4.78" fill="hsl(226.8,70%,63%)" opacity="0.88"/><path d="M48.16 52.31 L26.46 31.95 L21.84 35.42 Z" fill="hsl(233.8,70%,70%)" opacity="0.54"/><ellipse cx="51.08" cy="13.24" rx="1.46" ry="3.94" fill="hsl(240.8,60%,38%)" opacity="0.31"/><circle cx="38.55" cy="17.15" r="4.24" fill="hsl(247.8,70%,72%)" opacity="0.50"/><path d="M26.08 13.97 L18.43 37.36 L52.59 51.85 Z" fill="hsl(254.8,70%,54%)" opacity="0.56"/><ellipse cx="5.94" cy="53.27" rx="2.58" ry="5.23" fill="hsl(261.8,60%,67%)" opacity="0.38"/><circle cx="17.13" cy="24.72" r="5.26" fill="hsl(268.8,70%,61%)" opacity="0.73"/><path d="M34.54 18.26 L17.39 19.32 L1.49 2.86 Z" fill="hsl(275.8,70%,71%)" opacity="0.63"/><ellipse cx="42.70" cy="56.95" rx="4.55" ry="4.81" fill="hsl(282.8,60%,45%)" opacity="0.73"/><circle cx="16.06" cy="62.44" r="4.09" fill="hsl(289.8,70%,54%)" opacity="0.62"/><path d="M45.54 16.55 L36.17 14.64 L56.28 40.70 Z" fill="hsl(296.8,70%,73%)" opacity="0.41"/><ellipse cx="59.46" cy="20.38" rx="3.15" ry="1.35" fill="hsl(303.8,60%,73%)" opacity="0.54"/><circle cx="59.73" cy="7.11" r="5.07" fill="hsl(310.8,70%,67%)" opacity="0.48"/><path d="M47.71 26.42 L6.38 9.34 L33.05 19.04 Z" fill="hsl(317.8,70%,52%)" opacity="0.75"/><ellipse cx="27.85" cy="58.52" rx="4.18" ry="4.17" fill="hsl(324.8,60%,55%)" opacity="0.66"/><circle cx="3.35" cy="59.66" r="2.11" fill="hsl(331.8,70%,42%)" opacity="0.85"/><path d="M18.58 24.56 L6.03 28.90 L30.98 40.07 Z" fill="hsl(338.8,70%,48%)" opacity="0.69"/><ellipse cx="7.57" cy="17.62" rx="5.95" ry="1.13" fill="hsl(345.8,60%,39%)" opacity="0.76"/><circle cx="47.31" cy="9.39" r="6.62" fill="hsl(352.8,70%,64%)" opacity="0.44"/><path d="M12.02 13.01 L52.08 54.53 L6.63 24.87 Z" fill="hsl(359.8,70%,61%)" opacity="0.44"/><ellipse cx="44.50" cy="4.94" rx="1.61" ry="3.38" fill="hsl(6.8,60%,51%)" opacity="0.46"/><circle cx="2.49" cy="16.57" r="5.00" fill="hsl(13.8,70%,41%)" opacity="0.47"/><path d="M55.38 4.16 L7.19 15.32 L38.36 10.60 Z" fill="hsl(20.8,70%,78%)" opacity="0.49"/><ellipse cx="2.04" cy="28.56" rx="2.21" ry="4.26" fill="hsl(27.8,60%,75%)" opacity="0.50"/><circle cx="12.56" cy="44.52" r="6.93" fill="hsl(34.8,70%,79%)" opacity="0.96"/><path d="M37.88 43.42 L7.18 45.56 L14.52 51.78 Z" fill="hsl(41.8,70%,43%)" opacity="0.30"/><ellipse cx="39.05" cy="7.80" rx="3.44" ry="3.69" fill="hsl(48.8,60%,69%)" opacity="0.59"/><circle cx="29.97" cy="49.02" r="6.96" fill="hsl(55.8,70%,63%)" opacity="0.61"/><path d="M37.84 59.60 L41.22 1.71 L7.70 21.07 Z" fill="hsl(62.8,70%,74%)" opacity="0.72"/><ellipse cx="49.38" cy="41.92" rx="5.90" ry="1.81" fill="hsl(69.8,60%,42%)" opacity="0.38"/><circle cx="31.28" cy="23.60" r="3.25" fill="hsl(76.8,70%,58%)" opacity="0.77"/><path d="M53.94 57.01 L34.37 37.46 L5.02 52.91 Z" fill="hsl(83.8,70%,79%)" opacity="0.41"/><ellipse cx="8.52" cy="32.46" rx="1.22" ry="4.28" fill="hsl(90.8,60%,78%)" opacity="0.73"/><circle cx="31.26" cy="56.44" r="2.84" fill="hsl(97.8,70%,68%)" opacity="0.60"/><path d="M12.29 27.82 L9.76 34.04 L59.59 33.35 Z" fill="hsl(104.8,70%,60%)" opacity="0.38"/><ellipse cx="4.39" cy="42.94" rx="3.18" ry="3.61" fill="hsl(111.8,60%,55%)" opacity="0.33"/><circle cx="20.84" cy="17.57" r="5.52" fill="hsl(118.8,70%,50%)" opacity="0.42"/><path d="M32.07 40.15 L5.40 21.92 L26.32 21.55 Z" fill="hsl(125.8,70%,60%)" opacity="0.73"/><ellipse cx="58.12" cy="0.30" rx="1.49" ry="2.05" fill="hsl(132.8,60%,53%)" opacity="0.52"/><circle cx="31.62" cy="56.98" r="3.59" fill="hsl(139.8,70%,56%)" opacity="0.86"/><path d="M3.66 14.16 L31.22 23.41 L5.79 58.68 Z" fill="hsl(146.8,70%,71%)" opacity="0.52"/><ellipse cx="52.30" cy="18.80" rx="5.68" ry="3.10" fill="hsl(153.8,60%,63%)" opacity="0.50"/><circle cx="48.53" cy="15.18" r="6.14" fill="hsl(160.8,70%,65%)" opacity="0.87"/><path d="M43.46 23.86 L51.68 14.41 L38.25 59.30 Z" fill="hsl(167.8,70%,49%)" opacity="0.31"/><ellipse cx="2.09" cy="55.35" rx="4.63" ry="3.05" fill="hsl(174.8,60%,57%)" opacity="0.55"/><circle cx="21.97" cy="33.26" r="6.64" fill="hsl(181.8,70%,54%)" opacity="0.93"/><path d="M1.24 10.64 L60.54 5.18 L41.21 44.84 Z" fill="hsl(188.8,70%,55%)" opacity="0.66"/><ellipse cx="6.39" cy="25.41" rx="2.06" ry="4.82" fill="hsl(195.8,60%,74%)" opacity="0.47"/><circle cx="29.08" cy="36.45" r="5.25" fill="hsl(202.8,70%,56%)" opacity="0.54"/><path d="M35.81 3.23 L45.19 18.13 L3.33 26.60 Z" fill="hsl(209.8,70%,49%)" opacity="0.70"/><ellipse cx="5.94" cy="40.97" rx="1.12" ry="1.51" fill="hsl(216.8,60%,55%)" opacity="0.66"/><circle cx="48.54" cy="23.72" r="1.83" fill="hsl(223.8,70%,64%)" opacity="0.89"/><path d="M27.58 11.38 L38.07 16.68 L9.63 23.72 Z" fill="hsl(230.8,70%,46%)" opacity="0.43"/><ellipse cx="7.48" cy="21.95" rx="3.87" ry="3.41" fill="hsl(237.8,60%,60%)" opacity="0.41"/><circle cx="31.70" cy="51.86" r="5.09" fill="hsl(244.8,70%,52%)" opacity="0.61"/><path d="M21.71 62.06 L34.95 1.83 L24.50 63.44 Z" fill="hsl(251.8,70%,55%)" opacity="0.73"/><ellipse cx="9.31" cy="53.02" rx="5.92" ry="4.47" fill="hsl(258.8,60%,40%)" opacity="0.44"/><circle cx="31.81" cy="40.95" r="3.49" fill="hsl(265.8,70%,80%)" opacity="0.72"/><path d="M61.09 44.49 L13.09 2.67 L57.26 14.14 Z" fill="hsl(272.8,70%,58%)" opacity="0.73"/><ellipse cx="40.47" cy="18.04" rx="5.62" ry="4.36" fill="hsl(279.8,60%,60%)" opacity="0.37"/><circle cx="18.84" cy="18.88" r="4.41" fill="hsl(286.8,70%,77%)" opacity="0.72"/><path d="M14.92 6.00 L41.27 8.59 L9.58 4.90 Z" fill="hsl(293.8,70%,65%)" opacity="0.58"/><ellipse cx="46.52" cy="5.36" rx="2.69" ry="4.14" fill="hsl(300.8,60%,74%)" opacity="0.44"/><circle cx="52.99" cy="24.95" r="3.07" fill="hsl(307.8,70%,68%)" opacity="0.63"/><path d="M30.90 23.54 L59.76 44.67 L12.93 36.38 Z" fill="hsl(314.8,70%,76%)" opacity="0.67"/><ellipse cx="45.29" cy="28.63" rx="5.21" ry="4.55" fill="hsl(321.8,60%,39%)" opacity="0.49"/><circle cx="35.11" cy="61.73" r="2.09" fill="hsl(328.8,70%,47%)" opacity="0.44"/><path d="M61.92 32.77 L11.74 14.65 L25.38 34.49 Z" fill="hsl(335.8,70%,59%)" opacity="0.64"/><ellipse cx="1.56" cy="11.10" rx="4.50" ry="5.75" fill="hsl(342.8,60%,40%)" opacity="0.52"/><circle cx="34.20" cy="4.79" r="2.66" fill="hsl(349.8,70%,41%)" opacity="0.82"/><path d="M40.61 17.50 L46.35 40.06 L9.11 58.75 Z" fill="hsl(356.8,70%,71%)" opacity="0.66"/><ellipse cx="27.65" cy="13.02" rx="5.70" ry="4.28" fill="hsl(3.8,60%,43%)" opacity="0.57"/><circle cx="33.99" cy="28.75" r="5.99" fill="hsl(10.8,70%,74%)" opacity="0.87"/><path d="M62.40 42.87 L50.91 56.58 L20.28 37.98 Z" fill="hsl(17.8,70%,78%)" opacity="0.73"/><ellipse cx="11.12" cy="59.79" rx="5.38" ry="2.37" fill="hsl(24.8,60%,36%)" opacity="0.60"/><circle cx="42.29" cy="27.91" r="6.82" fill="hsl(31.8,70%,58%)" opacity="0.93"/><path d="M40.64 16.90 L57.73 54.46 L29.61 9.14 Z" fill="hsl(38.8,70%,46%)" opacity="0.31"/><ellipse cx="24.09" cy="23.79" rx="1.49" ry="5.26" fill="hsl(45.8,60%,79%)" opacity="0.62"/><circle cx="20.51" cy="50.72" r="5.07" fill="hsl(52.8,70%,47%)" opacity="0.71"/><path d="M53.60 50.44 L7.92 37.99 L63.78 5.97 Z" fill="hsl(59.8,70%,72%)" opacity="0.64"/><ellipse cx="48.12" cy="32.89" rx="1.67" ry="3.43" fill="hsl(66.8,60%,39%)" opacity="0.58"/><circle cx="37.00" cy="4.44" r="5.72" fill="hsl(73.8,70%,75%)" opacity="0.54"/><path d="M57.98 12.80 L8.88 4.13 L44.37 27.91 Z" fill="hsl(80.8,70%,54%)" opacity="0.71"/><ellipse cx="26.80" cy="51.68" rx="3.71" ry="1.04" fill="hsl(87.8,60%,59%)" opacity="0.36"/><circle cx="4.85" cy="15.26" r="3.03" fill="hsl(94.8,70%,71%)" opacity="1.00"/><path d="M30.70 51.92 L18.06 13.21 L18.34 39.92 Z" fill="hsl(101.8,70%,45%)" opacity="0.75"/><ellipse cx="1.99" cy="63.88" rx="2.41" ry="2.90" fill="hsl(108.8,60%,60%)" opacity="0.66"/><circle cx="15.01" cy="15.13" r="6.44" fill="hsl(115.8,70%,69%)" opacity="0.72"/><path d="M42.21 62.92 L29.71 49.50 L18.39 21.22 Z" fill="hsl(122.8,70%,59%)" opacity="0.53"/><ellipse cx="45.81" cy="24.75" rx="4.27" ry="5.98" fill="hsl(129.8,60%,72%)" opacity="0.81"/><circle cx="63.24" cy="56.19" r="3.04" fill="hsl(136.8,70%,45%)" opacity="0.98"/><path d="M47.85 29.16 L48.88 45.17 L63.86 17.01 Z" fill="hsl(143.8,70%,69%)" opacity="0.58"/><ellipse cx="61.74" cy="26.64" rx="3.71" ry="4.88" fill="hsl(150.8,60%,79%)" opacity="0.48"/><circle cx="47.33" cy="42.22" r="5.58" fill="hsl(157.8,70%,62%)" opacity="0.65"/><path d="M2.52 1.12 L49.99 29.03 L15.05 5.04 Z" fill="hsl(164.8,70%,69%)" opacity="0.77"/><ellipse cx="48.26" cy="3.58" rx="2.60" ry="5.10" fill="hsl(171.8,60%,50%)" opacity="0.82"/><circle cx="26.04" cy="43.68" r="1.97" fill="hsl(178.8,70%,79%)" opacity="0.94"/><path d="M24.69 20.83 L56.46 48.19 L56.50 54.72 Z" fill="hsl(185.8,70%,59%)" opacity="0.40"/><ellipse cx="18.66" cy="58.32" rx="5.96" ry="5.09" fill="hsl(192.8,60%,49%)" opacity="0.87"/><circle cx="17.12" cy="27.04" r="3.04" fill="hsl(199.8,70%,79%)" opacity="0.45"/><path d="M11.97 3.14 L6.82 14.29 L8.32 7.63 Z" fill="hsl(206.8,70%,49%)" opacity="0.56"/><ellipse cx="57.35" cy="29.40" rx="2.46" ry="4.44" fill="hsl(213.8,60%,66%)" opacity="0.42"/><circle cx="41.66" cy="7.59" r="4.90" fill="hsl(220.8,70%,44%)" opacity="0.66"/><path d="M38.62 57.91 L23.30 52.97 L52.04 23.57 Z" fill="hsl(227.8,70%,72%)" opacity="0.73"/><ellipse cx="6.41" cy="55.65" rx="5.81" ry="5.84" fill="hsl(234.8,60%,67%)" opacity="0.32"/><circle cx="45.94" cy="31.78" r="5.07" fill="hsl(241.8,70%,53%)" opacity="0.55"/><path d="M53.73 54.60 L56.61 34.05 L62.06 60.13 Z" fill="hsl(248.8,70%,48%)" opacity="0.72"/><ellipse cx="30.82" cy="28.60" rx="5.19" ry="4.23" fill="hsl(255.8,60%,55%)" opacity="0.83"/><circle cx="31.24" cy="12.62" r="5.33" fill="hsl(262.8,70%,69%)" opacity="0.60"/><path d="M30.12 23.15 L50.81 27.46 L15.96 33.04 Z" fill="hsl(269.8,70%,52%)" opacity="0.51"/><ellipse cx="49.83" cy="53.00" rx="4.04" ry="1.30" fill="hsl(276.8,60%,77%)" opacity="0.36"/><circle cx="13.31" cy="10.37" r="1.62" fill="hsl(283.8,70%,41%)" opacity="0.98"/><path d="M0.58 62.60 L62.01 17.92 L24.02 13.82 Z" fill="hsl(290.8,70%,51%)" opacity="0.65"/><ellipse cx="40.81" cy="35.02" rx="4.03" ry="2.78" fill="hsl(297.8,60%,65%)" opacity="0.69"/><circle cx="0.90" cy="1.13" r="3.92" fill="hsl(304.8,70%,46%)" opacity="0.47"/><path d="M55.17 51.57 L20.57 29.31 L6.08 2.36 Z" fill="hsl(311.8,70%,59%)" opacity="0.62"/><ellipse cx="2.06" cy="22.16" rx="1.72" ry="2.23" fill="hsl(318.8,60%,52%)" opacity="0.77"/><circle cx="22.09" cy="29.98" r="5.03" fill="hsl(325.8,70%,66%)" opacity="0.87"/><path d="M48.70 20.63 L39.03 43.86 L13.01 31.30 Z" fill="hsl(332.8,70%,46%)" opacity="0.53"/><ellipse cx="20.91" cy="53.19" rx="3.53" ry="4.16" fill="hsl(339.8,60%,57%)" opacity="0.89"/><circle cx="63.66" cy="44.90" r="2.18" fill="hsl(346.8,70%,44%)" opacity="0.73"/><path d="M40.66 47.83 L59.07 56.53 L24.63 23.14 Z" fill="hsl(353.8,70%,47%)" opacity="0.44"/><ellipse cx="41.72" cy="34.45" rx="2.58" ry="2.90" fill="hsl(0.8,60%,62%)" opacity="0.40"/><circle cx="58.24" cy="15.32" r="3.39" fill="hsl(7.8,70%,77%)" opacity="0.42"/><path d="M26.09 46.82 L48.81 43.83 L1.79 42.78 Z" fill="hsl(14.8,70%,62%)" opacity="0.78"/><ellipse cx="7.51" cy="34.61" rx="2.53" ry="3.51" fill="hsl(21.8,60%,57%)" opacity="0.72"/><circle cx="29.88" cy="39.52" r="1.28" fill="hsl(28.8,70%,53%)" opacity="0.44"/><path d="M48.45 20.78 L40.64 60.15 L35.20 38.68 Z" fill="hsl(35.8,70%,46%)" opacity="0.43"/><ellipse cx="33.44" cy="60.09" rx="5.96" ry="5.59" fill="hsl(42.8,60%,38%)" opacity="0.81"/><circle cx="8.05" cy="47.17" r="3.52" fill="hsl(49.8,70%,67%)" opacity="0.55"/><path d="M24.74 42.70 L40.41 46.43 L32.37 2.33 Z" fill="hsl(56.8,70%,52%)" opacity="0.55"/><ellipse cx="33.23" cy="63.61" rx="5.70" ry="2.21" fill="hsl(63.8,60%,80%)" opacity="0.85"/><circle cx="53.44" cy="2.96" r="4.82" fill="hsl(70.8,70%,54%)" opacity="0.82"/><path d="M14.52 13.12 L6.79 44.75 L17.95 63.22 Z" fill="hsl(77.8,70%,71%)" opacity="0.68"/><ellipse cx="2.12" cy="39.61" rx="2.33" ry="1.70" fill="hsl(84.8,60%,53%)" opacity="0.50"/><circle cx="43.00" cy="20.65" r="3.45" fill="hsl(91.8,70%,79%)" opacity="0.61"/><path d="M63.98 21.32 L21.35 4.54 L31.48 9.84 Z" fill="hsl(98.8,70%,70%)" opacity="0.71"/><ellipse cx="50.83" cy="41.83" rx="4.99" ry="2.62" fill="hsl(105.8,60%,51%)" opacity="0.81"/><circle cx="42.74" cy="31.87" r="1.54" fill="hsl(112.8,70%,64%)" opacity="0.80"/><path d="M30.65 15.57 L39.55 46.73 L54.32 12.91 Z" fill="hsl(119.8,70%,45%)" opacity="0.75"/><ellipse cx="9.93" cy="19.52" rx="1.04" ry="2.50" fill="hsl(126.8,60%,79%)" opacity="0.42"/><circle cx="4.13" cy="2.73" r="1.05" fill="hsl(133.8,70%,58%)" opacity="0.92"/><path d="M56.41 3.36 L17.13 15.38 L50.85 47.34 Z" fill="hsl(140.8,70%,65%)" opacity="0.46"/><ellipse cx="47.52" cy="27.25" rx="2.28" ry="5.01" fill="hsl(147.8,60%,44%)" opacity="0.71"/><circle cx="12.76" cy="51.83" r="3.07" fill="hsl(154.8,70%,47%)" opacity="0.83"/><path d="M31.60 51.71 L60.45 1.30 L13.19 38.00 Z" fill="hsl(161.8,70%,53%)" opacity="0.35"/><ellipse cx="2.88" cy="30.85" rx="1.52" ry="3.18" fill="hsl(168.8,60%,77%)" opacity="0.83"/><circle cx="35.50" cy="25.49" r="4.63" fill="hsl(175.8,70%,48%)" opacity="0.69"/><path d="M52.87 12.78 L62.81 32.50 L59.25 15.90 Z" fill="hsl(182.8,70%,61%)" opacity="0.30"/><ellipse cx="24.87" cy="19.49" rx="4.47" ry="4.30" fill="hsl(189.8,60%,63%)" opacity="0.62"/><circle cx="63.47" cy="32.50" r="2.43" fill="hsl(196.8,70%,78%)" opacity="0.62"/><path d="M46.78 29.84 L9.44 12.17 L51.27 53.02 Z" fill="hsl(203.8,70%,67%)" opacity="0.41"/><ellipse cx="43.60" cy="26.08" rx="3.82" ry="4.94" fill="hsl(210.8,60%,40%)" opacity="0.70"/><circle cx="21.33" cy="24.96" r="2.52" fill="hsl(217.8,70%,56%)" opacity="0.89"/><path d="M17.86 12.25 L24.94 36.02 L61.17 5.44 Z" fill="hsl(224.8,70%,76%)" opacity="0.47"/><ellipse cx="36.83" cy="61.02" rx="1.30" ry="3.33" fill="hsl(231.8,60%,63%)" opacity="0.53"/><circle cx="39.84" cy="48.70" r="3.45" fill="hsl(238.8,70%,67%)" opacity="0.93"/><path d="M14.23 18.29 L10.97 38.07 L60.42 34.74 Z" fill="hsl(245.8,70%,71%)" opacity="0.38"/><ellipse cx="52.05" cy="27.33" rx="1.30" ry="3.81" fill="hsl(252.8,60%,76%)" opacity="0.78"/><circle cx="10.04" cy="38.99" r="5.87" fill="hsl(259.8,70%,51%)" opacity="0.78"/><path d="M43.19 62.64 L57.01 1.96 L58.06 14.32 Z" fill="hsl(266.8,70%,71%)" opacity="0.49"/><ellipse cx="31.89" cy="50.54" rx="1.42" ry="3.31" fill="hsl(273.8,60%,65%)" opacity="0.54"/><circle cx="28.96" cy="9.93" r="3.03" fill="hsl(280.8,70%,64%)" opacity="0.79"/><path d="M21.28 41.63 L0.18 0.27 L14.17 55.71 Z" fill="hsl(287.8,70%,58%)" opacity="0.37"/><ellipse cx="60.11" cy="18.08" rx="1.21" ry="4.56" fill="hsl(294.8,60%,76%)" opacity="0.36"/><circle cx="36.44" cy="30.25" r="1.77" fill="hsl(301.8,70%,62%)" opacity="0.98"/><path d="M45.36 46.16 L37.90 41.85 L55.14 0.55 Z" fill="hsl(308.8,70%,44%)" opacity="0.72"/><ellipse cx="2.00" cy="9.81" rx="1.46" ry="2.87" fill="hsl(315.8,60%,57%)" opacity="0.43"/><circle cx="50.68" cy="34.00" r="3.92" fill="hsl(322.8,70%,77%)" opacity="0.62"/><path d="M54.48 2.29 L46.16 30.24 L0.94 21.36 Z" fill="hsl(329.8,70%,73%)" opacity="0.51"/><ellipse cx="14.53" cy="3.75" rx="2.40" ry="1.16" fill="hsl(336.8,60%,68%)" opacity="0.77"/><circle cx="16.82" cy="62.79" r="2.73" fill="hsl(343.8,70%,44%)" opacity="0.59"/><path d="M55.48 60.38 L18.50 4.92 L25.01 10.34 Z" fill="hsl(350.8,70%,66%)" opacity="0.56"/><ellipse cx="37.62" cy="18.75" rx="4.46" ry="2.07" fill="hsl(357.8,60%,65%)" opacity="0.33"/><circle cx="61.26" cy="52.88" r="1.42" fill="hsl(4.8,70%,50%)" opacity="0.48"/><path d="M50.74 60.21 L5.53 37.76 L9.74 51.47 Z" fill="hsl(11.8,70%,70%)" opacity="0.69"/><ellipse cx="49.85" cy="20.47" rx="1.73" ry="5.18" fill="hsl(18.8,60%,60%)" opacity="0.64"/><circle cx="54.82" cy="28.56" r="2.37" fill="hsl(25.8,70%,74%)" opacity="0.91"/><path d="M59.33 0.15 L23.23 28.70 L56.99 5.18 Z" fill="hsl(32.8,70%,78%)" opacity="0.56"/><ellipse cx="3.43" cy="45.97" rx="4.98" ry="1.20" fill="hsl(39.8,60%,37%)" opacity="0.62"/><circle cx="5.68" cy="19.08" r="2.27" fill="hsl(46.8,70%,42%)" opacity="0.75"/><path d="M38.97 61.07 L59.33 53.84 L12.39 54.14 Z" fill="hsl(53.8,70%,79%)" opacity="0.57"/><ellipse cx="32.31" cy="43.29" rx="2.49" ry="1.75" fill="hsl(60.8,60%,51%)" opacity="0.49"/><circle cx="2.61" cy="49.29" r="3.54" fill="hsl(67.8,70%,72%)" opacity="0.62"/><path d="M63.70 15.29 L11.78 0.13 L12.54 28.03 Z" fill="hsl(74.8,70%,78%)" opacity="0.39"/><ellipse cx="21.32" cy="1.82" rx="2.34" ry="5.77" fill="hsl(81.8,60%,56%)" opacity="0.36"/><circle cx="0.21" cy="16.34" r="3.14" fill="hsl(88.8,70%,76%)" opacity="0.75"/><path d="M1.66 2.99 L36.85 6.79 L23.85 4.40 Z" fill="hsl(95.8,70%,63%)" opacity="0.31"/><ellipse cx="42.06" cy="50.61" rx="5.55" ry="4.10" fill="hsl(102.8,60%,72%)" opacity="0.40"/><circle cx="43.68" cy="58.29" r="3.54" fill="hsl(109.8,70%,66%)" opacity="0.56"/><path d="M48.54 16.79 L14.79 29.36 L20.08 27.32 Z" fill="hsl(116.8,70%,72%)" opacity="0.44"/><ellipse cx="5.24" cy="12.94" rx="2.28" ry="2.50" fill="hsl(123.8,60%,44%)" opacity="0.46"/><circle cx="6.02" cy="33.45" r="5.89" fill="hsl(130.8,70%,77%)" opacity="0.67"/><path d="M30.35 28.27 L32.95 46.96 L55.28 61.46 Z" fill="hsl(137.8,70%,42%)" opacity="0.49"/><ellipse cx="55.26" cy="31.93" rx="5.33" ry="2.76" fill="hsl(144.8,60%,40%)" opacity="0.44"/><circle cx="45.48" cy="26.76" r="5.72" fill="hsl(151.8,70%,44%)" opacity="0.83"/><path d="M22.21 33.85 L50.98 6.20 L32.34 55.90 Z" fill="hsl(158.8,70%,64%)" opacity="0.49"/><ellipse cx="35.71" cy="36.12" rx="5.18" ry="5.08" fill="hsl(165.8,60%,45%)" opacity="0.30"/><circle cx="11.41" cy="58.73" r="2.42" fill="hsl(172.8,70%,60%)" opacity="0.95"/><path d="M40.25 9.21 L19.42 58.68 L22.94 21.90 Z" fill="hsl(179.8,70%,53%)" opacity="0.37"/><ellipse cx="53.04" cy="38.90" rx="2.13" ry="3.91" fill="hsl(186.8,60%,66%)" opacity="0.39"/><circle cx="26.93" cy="13.31" r="1.96" fill="hsl(193.8,70%,66%)" opacity="0.80"/><path d="M19.64 16.38 L8.60 43.86 L9.90 19.42 Z" fill="hsl(200.8,70%,55%)" opacity="0.36"/><ellipse cx="2.68" cy="51.83" rx="2.32" ry="2.67" fill="hsl(207.8,60%,35%)" opacity="0.86"/><circle cx="34.88" cy="2.54" r="6.02" fill="hsl(214.8,70%,43%)" opacity="0.69"/><path d="M0.22 12.65 L20.29 37.86 L0.22 59.07 Z" fill="hsl(221.8,70%,75%)" opacity="0.59"/><ellipse cx="53.49" cy="53.07" rx="3.50" ry="5.08" fill="hsl(228.8,60%,44%)" opacity="0.67"/><circle cx="54.49" cy="22.23" r="4.81" fill="hsl(235.8,70%,68%)" opacity="0.42"/></svg>