<svg xmlns="http://www.w3.org/2000/svg" width="64" height="64" viewBox="0 0 64 64"><rect width="64" height="64" rx="8" fill="hsl(24.7,65%,45%)"/><circle cx="29.62" cy="21.78" r="3.24" fill="hsl(24.7,70%,53%)" opacity="0.56"/><path d="M2.09 32.02 L37.73 6.79 L12.11 14.48 Z" fill="hsl(31.7,70%,54%)" opacity="0.34"/><ellipse cx="44.70" cy="36.98" rx="1.90" ry="2.51" fill="hsl(38.7,60%,44%)" opacity="0.33"/><circle cx="26.33" cy="51.89" r="5.78" fill="hsl(45.7,70%,59%)" opacity="0.52"/><path d="M44.17 46.39 L37.75 22.48 L13.90 16.72 Z" fill="hsl(52.7,70%,44%)" opacity="0.68"/><ellipse cx="58.15" cy="7.45" rx="3.27" ry="3.17" fill="hsl(59.7,60%,67%)" opacity="0.33"/><circle cx="36.35" cy="17.76" r="5.43" fill="hsl(66.7,70%,61%)" opacity="0.97"/><path d="M26.14 24.48 L41.15 21.38 L30.14 34.96 Z" fill="hsl(73.7,70%,66%)" opacity="0.62"/><ellipse cx="10.09" cy="26.09" rx="4.54" ry="4.97" fill="hsl(80.7,60%,41%)" opacity="0.33"/><circle cx="47.07" cy="48.73" r="6.40" fill="hsl(87.7,70%,66%)" opacity="0.81"/><path d="M57.06 21.14 L23.17 22.42 L25.74 61.14 Z" fill="hsl(94.7,70%,68%)" opacity="0.58"/><ellipse cx="31.23" cy="12.27" rx="3.17" ry="3.57" fill="hsl(101.7,60%,61%)" opacity="0.35"/><circle cx="7.58" cy="37.71" r="4.21" fill="hsl(108.7,70%,52%)" opacity="0.82"/><path d="M45.52 0.74 L23.23 2.68 L14.90 4.49 Z" fill="hsl(115.7,70%,62%)" opacity="0.34"/><ellipse cx="1.54" cy="54.72" rx="4.31" ry="1.69" fill="hsl(122.7,60%,79%)" opacity="0.32"/><circle cx="48.14" cy="24.84" r="2.95" fill="hsl(129.7,70%,43%)" opacity="0.79"/><path d="M51.38 23.01 L55.03 35.83 L53.81 33.81 Z" fill="hsl(136.7,70%,73%)" opacity="0.48"/><ellipse cx="45.30" cy="61.88" rx="5.77" ry="1.74" fill="hsl(143.7,60%,40%)" opacity="0.84"/><circle cx="24.05" cy="22.71" r="4.93" fill="hsl(150.7,70%,62%)" opacity="0.94"/><path d="M23.64 32.42 L28.70 13.19 L28.23 47.59 Z" fill="hsl(157.7,70%,48%)" opacity="0.55"/><ellipse cx="31.52" cy="40.32" rx="2.70" ry="3.90" fill="hsl(164.7,60%,75%)" opacity="0.81"/><circle cx="34.10" cy="47.08" r="4.00" fill="hsl(171.7,70%,47%)" opacity="0.66"/><path d="M8.12 21.97 L25.69 62.16 L20.53 60.85 Z" fill="hsl(178.7,70%,48%)" opacity="0.69"/><ellipse cx="10.49" cy="6.47" rx="3.59" ry="1.66" fill="hsl(185.7,60%,48%)" opacity="0.54"/><circle cx="36.23" cy="24.42" r="6.12" fill="hsl(192.7,70%,47%)" opacity="0.63"/><path d="M12.66 17.75 L25.61 51.79 L45.43 10.44 Z" fill="hsl(199.7,70%,70%)" opacity="0.31"/><ellipse cx="25.85" cy="39.75" rx="1.11" ry="2.32" fill="hsl(206.7,60%,61%)" opacity="0.68"/><circle cx="19.93" cy="17.78" r="4.38" fill="hsl(213.7,70%,53%)" opacity="1.00"/><path d="M32.30 60.33 L0.27 13.45 L14.60 42.76 Z" fill="hsl(220.7,70%,70%)" opacity="0.48"/><ellipse cx="6.91" cy="45.59" rx="3.69" ry="5.73" fill="hsl(227.7,60%,72%)" opacity="0.63"/><circle cx="15.99" cy="45.71" r="5.35" fill="hsl(234.7,70%,71%)" opacity="0.59"/><path d="M57.53 53.87 L36.51 30.38 L1.50 29.80 Z" fill="hsl(241.7,70%,76%)" opacity="0.40"/><ellipse cx="42.24" cy="15.61" rx="3.35" ry="3.87" fill="hsl(248.7,60%,78%)" opacity="0.66"/><circle cx="60.96" cy="46.62" r="6.59" fill="hsl(255.7,70%,68%)" opacity="0.49"/><path d="M12.54 52.67 L35.40 54.10 L45.25 62.51 Z" fill="hsl(262.7,70%,64%)" opacity="0.60"/><ellipse cx="18.24" cy="4.17" rx="2.27" ry="5.25" fill="hsl(269.7,60%,67%)" opacity="0.68"/><circle cx="9.42" cy="57.34" r="5.25" fill="hsl(276.7,70%,52%)" opacity="0.85"/><path d="M51.21 22.94 L59.58 2.23 L11.81 43.77 Z" fill="hsl(283.7,70%,77%)" opacity="0.37"/><ellipse cx="26.98" cy="23.77" rx="1.77" ry="2.12" fill="hsl(290.7,60%,72%)" opacity="0.31"/><circle cx="18.57" cy="57.60" r="5.20" fill="hsl(297.7,70%,60%)" opacity="0.78"/><path d="M8.53 32.26 L12.60 30.28 L22.69 20.87 Z" fill="hsl(304.7,70%,50%)" opacity="0.77"/><ellipse cx="6.82" cy="32.60" rx="1.93" ry="3.60" fill="hsl(311.7,60%,64%)" opacity="0.42"/><circle cx="22.91" cy="51.65" r="2.28" fill="hsl(318.7,70%,79%)" opacity="0.51"/><path d="M21.96 57.54 L62.05 10.95 L26.18 22.32 Z" fill="hsl(325.7,70%,48%)" opacity="0.34"/><ellipse cx="8.53" cy="46.42" rx="4.57" ry="4.94" fill="hsl(332.7,60%,53%)" opacity="0.69"/><circle cx="8.67" cy="48.18" r="3.10" fill="hsl(339.7,70%,42%)" opacity="0.74"/><path d="M1.11 26.43 L13.85 51.54 L14.59 17.14 Z" fill="hsl(346.7,70%,51%)" opacity="0.57"/><ellipse cx="9.85" cy="7.14" rx="1.86" ry="5.15" fill="hsl(353.7,60%,61%)" opacity="0.35"/><circle cx="43.25" cy="14.77" r="4.41" fill="hsl(0.7,70%,75%)" opacity="1.00"/><path d="M2.94 41.20 L39.61 11.78 L53.43 6.80 Z" fill="hsl(7.7,70%,78%)" opacity="0.40"/><ellipse cx="9.87" cy="43.07" rx="3.48" ry="3.39" fill="hsl(14.7,60%,79%)" opacity="0.48"/><circle cx="18.18" cy="19.29" r="3.67" fill="hsl(21.7,70%,64%)" opacity="0.40"/><path d="M21.88 49.50 L25.76 51.76 L8.17 36.80 Z" fill="hsl(28.7,70%,51%)" opacity="0.50"/><ellipse cx="24.22" cy="54.80" rx="2.04" ry="2.70" fill="hsl(35.7,60%,53%)" opacity="0.55"/><circle cx="30.46" cy="57.90" r="1.06" fill="hsl(42.7,70%,61%)" opacity="0.83"/><path d="M2.73 42.62 L62.87 40.37 L6.82 51.31 Z" fill="hsl(49.7,70%,78%)" opacity="0.60"/><ellipse cx="28.22" cy="32.95" rx="2.76" ry="3.68" fill="hsl(56.7,60%,38%)" opacity="0.36"/><circle cx="25.11" cy="29.59" r="1.02" fill="hsl(63.7,70%,45%)" opacity="0.85"/><path d="M47.08 59.12 L63.10 32.76 L59.90 17.95 Z" fill="hsl(70.7,70%,45%)" opacity="0.61"/><ellipse cx="49.50" cy="2.46" rx="3.56" ry="4.95" fill="hsl(77.7,60%,61%)" opacity="0.67"/><circle cx="48.93" cy="51.66" r="2.52" fill="hsl(84.7,70%,70%)" opacity="0.58"/><path d="M59.56 39.35 L26.01 21.61 L46.08 45.13 Z" fill="hsl(91.7,70%,69%)" opacity="0.51"/><ellipse cx="24.28" cy="25.33" rx="5.70" ry="1.27" fill="hsl(98.7,60%,66%)" opacity="0.46"/><circle cx="43.38" cy="35.58" r="6.28" fill="hsl(105.7,70%,72%)" opacity="0.87"/><path d="M5.93 15.38 L12.16 61.36 L37.24 6.54 Z" fill="hsl(112.7,70%,55%)" opacity="0.67"/><ellipse cx="2.11" cy="37.27" rx="1.60" ry="3.19" fill="hsl(119.7,60%,49%)" opacity="0.50"/><circle cx="15.64" cy="21.98" r="4.47" fill="hsl(126.7,70%,40%)" opacity="0.54"/><path d="M5.55 44.98 L15.40 61.95 L0.27 38.56 Z" fill="hsl(133.7,70%,58%)" opacity="0.40"/><ellipse cx="5.43" cy="14.30" rx="4.28" ry="1.32" fill="hsl(140.7,60%,61%)" opacity="0.60"/><circle cx="6.29" cy="53.30" r="3.97" fill="hsl(147.7,70%,67%)" opacity="0.69"/><path d="M28.20 38.10 L53.70 1.69 L48.80 31.85 Z" fill="hsl(154.7,70%,51%)" opacity="0.62"/><ellipse cx="38.07" cy="3.58" rx="2.88" ry="5.66" fill="hsl(161.7,60%,68%)" opacity="0.42"/><circle cx="62.52" cy="63.85" r="4.88" fill="hsl(168.7,70%,69%)" opacity="0.59"/><path d="M58.24 49.36 L61.11 12.93 L35.55 11.25 Z" fill="hsl(175.7,70%,41%)" opacity="0.75"/><ellipse cx="19.69" cy="16.76" rx="2.83" ry="5.35" fill="hsl(182.7,60%,56%)" opacity="0.82"/><circle cx="35.54" cy="24.25" r="4.74" fill="hsl(189.7,70%,67%)" opacity="0.82"/><path d="M44.35 18.30 L62.38 63.27 L12.47 31.07 Z" fill="hsl(196.7,70%,48%)" opacity="0.78"/><ellipse cx="52.49" cy="12.01" rx="4.03" ry="4.82" fill="hsl(203.7,60%,59%)" opacity="0.71"/><circle cx="13.48" cy="31.22" r="5.70" fill="hsl(210.7,70%,52%)" opacity="0.88"/><path d="M11.49 11.23 L15.32 31.40 L11.81 48.46 Z" fill="hsl(217.7,70%,44%)" opacity="0.51"/><ellipse cx="6.30" cy="43.28" rx="4.13" ry="2.38" fill="hsl(224.7,60%,43%)" opacity="0.38"/><circle cx="50.34" cy="57.29" r="2.36" fill="hsl(231.7,70%,73%)" opacity="0.95"/><path d="M9.11 10.99 L25.33 55.26 L45.89 59.89 Z" fill="hsl(238.7,70%,58%)" opacity="0.37"/><ellipse cx="43.45" cy="17.60" rx="2.69" ry="4.26" fill="hsl(245.7,60%,71%)" opacity="0.70"/><circle cx="34.46" cy="33.94" r="6.91" fill="hsl(252.7,70%,58%)" opacity="0.73"/><path d="M59.63 36.93 L54.58 37.35 L2.95 62.62 Z" fill="hsl(259.7,70%,59%)" opacity="0.43"/><ellipse cx="40.67" cy="4.52" rx="3.47" ry="2.99" fill="hsl(266.7,60%,69%)" opacity="0.61"/><circle cx="35.11" cy="28.43" r="4.56" fill="hsl(273.7,70%,62%)" opacity="0.51"/><path d="M7.05 27.69 L18.87 19.06 L19.94 22.51 Z" fill="hsl(280.7,70%,49%)" opacity="0.69"/><ellipse cx="33.41" cy="5.32" rx="4.33" ry="3.77" fill="hsl(287.7,60%,36%)" opacity="0.33"/><circle cx="33.18" cy="37.57" r="5.69" fill="hsl(294.7,70%,67%)" opacity="0.47"/><path d="M34.41 51.53 L22.43 26.81 L10.25 22.73 Z" fill="hsl(301.7,70%,72%)" opacity="0.65"/><ellipse cx="42.83" cy="18.22" rx="3.31" ry="3.07" fill="hsl(308.7,60%,62%)" opacity="0.50"/><circle cx="30.95" cy="8.35" r="6.57" fill="hsl(315.7,70%,49%)" opacity="0.51"/><path d="M23.01 29.62 L63.36 4.21 L57.93 49.87 Z" fill="hsl(322.7,70%,62%)" opacity="0.32"/><ellipse cx="8.05" cy="13.46" rx="4.88" ry="1.18" fill="hsl(329.7,60%,80%)" opacity="0.69"/><circle cx="37.92" cy="29.73" r="1.36" fill="hsl(336.7,70%,49%)" opacity="0.69"/><path d="M3.48 34.36 L0.72 52.11 L4.41 16.93 Z" fill="hsl(343.7,70%,56%)" opacity="0.69"/><ellipse cx="61.94" cy="13.47" rx="5.65" ry="4.52" fill="hsl(350.7,60%,77%)" opacity="0.71"/><circle cx="18.98" cy="8.60" r="6.47" fill="hsl(357.7,70%,61%)" opacity="0.58"/><path d="M3.15 0.56 L63.03 49.45 L58.10 29.84 Z" fill="hsl(4.7,70%,75%)" opacity="0.57"/><ellipse cx="32.76" cy="33.72" rx="2.60" ry="2.75" fill="hsl(11.7,60%,74%)" opacity="0.82"/><circle cx="22.41" cy="60.36" r="4.05" fill="hsl(18.7,70%,61%)" opacity="0.88"/><path d="M63.44 62.25 L21.18 32.86 L29.13 26.07 Z" fill="hsl(25.7,70%,57%)" opacity="0.73"/><ellipse cx="31.74" cy="30.42" rx="2.61" ry="5.07" fill="hsl(32.7,60%,43%)" opacity="0.33"/><circle cx="37.41" cy="24.60" r="3.79" fill="hsl(39.7,70%,54%)" opacity="0.42"/><path d="M59.64 19.92 L34.19 6.53 L46.27 51.97 Z" fill="hsl(46.7,70%,79%)" opacity="0.72"/><ellipse cx="56.70" cy="46.32" rx="3.10" ry="3.37" fill="hsl(53.7,60%,53%)" opacity="0.81"/><circle cx="14.93" cy="50.17" r="6.82" fill="hsl(60.7,70%,42%)" opacity="0.46"/><path d="M28.81 48.73 L58.86 55.12 L16.52 31.73 Z" fill="hsl(67.7,70%,55%)" opacity="0.61"/><ellipse cx="57.83" cy="20.22" rx="4.09" ry="1.31" fill="hsl(74.7,60%,61%)" opacity="0.51"/><circle cx="27.96" cy="45.40" r="5.62" fill="hsl(81.7,70%,40%)" opacity="0.73"/><path d="M33.75 49.62 L22.58 32.15 L11.50 3.18 Z" fill="hsl(88.7,70%,47%)" opacity="0.62"/><ellipse cx="45.97" cy="19.42" rx="3.33" ry="4.23" fill="hsl(95.7,60%,63%)" opacity="0.82"/><circle cx="31.06" cy="4.26" r="3.81" fill="hsl(102.7,70%,78%)" opacity="0.85"/><path d="M45.61 29.45 L39.71 30.38 L44.98 57.51 Z" fill="hsl(109.7,70%,69%)" opacity="0.41"/><ellipse cx="51.47" cy="10.54" rx="1.64" ry="1.43" fill="hsl(116.7,60%,40%)" opacity="0.69"/><circle cx="52.25" cy="26.40" r="2.92" fill="hsl(123.7,70%,80%)" opacity="0.95"/><path d="M58.62 8.99 L26.43 40.44 L53.56 36.46 Z" fill="hsl(130.7,70%,76%)" opacity="0.57"/><ellipse cx="19.82" cy="4.91" rx="5.01" ry="5.52" fill="hsl(137.7,60%,46%)" opacity="0.87"/><circle cx="51.34" cy="57.93" r="2.55" fill="hsl(144.7,70%,53%)" opacity="0.70"/><path d="M53.60 40.39 L43.77 6.77 L50.19 7.36 Z" fill="hsl(151.7,70%,69%)" opacity="0.67"/><ellipse cx="21.43" cy="11.52" rx="1.53" ry="4.32" fill="hsl(158.7,60%,47%)" opacity="0.37"/><circle cx="19.29" cy="8.32" r="2.66" fill="hsl(165.7,70%,75%)" opacity="0.72"/><path d="M59.53 19.93 L46.23 46.74 L44.31 55.71 Z" fill="hsl(172.7,70%,41%)" opacity="0.65"/><ellipse cx="30.48" cy="28.38" rx="4.85" ry="2.31" fill="hsl(179.7,60%,50%)" opacity="0.33"/><circle cx="37.18" cy="47.17" r="5.90" fill="hsl(186.7,70%,55%)" opacity="0.66"/><path d="M15.42 36.13 L62.43 14.28 L43.68 34.67 Z" fill="hsl(193.7,70%,71%)" opacity="0.79"/><ellipse cx="12.14" cy="32.71" rx="3.56" ry="2.61" fill="hsl(200.7,60%,65%)" opacity="0.76"/><circle cx="5.38" cy="26.52" r="3.69" fill="hsl(207.7,70%,52%)" opacity="0.93"/><path d="M43.06 32.12 L56.78 27.93 L51.85 24.44 Z" fill="hsl(214.7,70%,69%)" opacity="0.44"/><ellipse cx="2.91" cy="1.01" rx="4.30" ry="3.62" fill="hsl(221.7,60%,60%)" opacity="0.39"/><circle cx="11.63" cy="41.49" r="4.38" fill="hsl(228.7,70%,70%)" opacity="0.75"/><path d="M41.16 26.79 L1.23 1.62 L24.16 56.22 Z" fill="hsl(235.7,70%,57%)" opacity="0.58"/><ellipse cx="48.25" cy="17.91" rx="2.46" ry="1.61" fill="hsl(242.7,60%,45%)" opacity="0.40"/><circle cx="47.18" cy="1.16" r="4.61" fill="hsl(249.7,70%,76%)" opacity="0.84"/><path d="M50.15 13.14 L60.68 61.59 L4.68 58.00 Z" fill="hsl(256.7,70%,51%)" opacity="0.59"/><ellipse cx="63.96" cy="33.88" rx="4.37" ry="5.73" fill="hsl(263.7,60%,48%)" opacity="0.67"/><circle cx="2.32" cy="9.26" r="6.82" fill="hsl(270.7,70%,67%)" opacity="0.51"/><path d="M46.60 36.33 L15.18 26.63 L61.79 61.74 Z" fill="hsl(277.7,70%,59%)" opacity="0.79"/><ellipse cx="45.64" cy="27.54" rx="1.85" ry="2.09" fill="hsl(284.7,60%,56%)" opacity="0.59"/><circle cx="15.82" cy="10.60" r="3.46" fill="hsl(291.7,70%,63%)" opacity="0.51"/><path d="M32.49 18.95 L47.92 3.85 L30.93 46.69 Z" fill="hsl(298.7,70%,71%)" opacity="0.77"/><ellipse cx="9.39" cy="3.92" rx="3.36" ry="5.91" fill="hsl(305.7,60%,74%)" opacity="0.81"/><circle cx="4.46" cy="29.80" r="1.74" fill="hsl(312.7,70%,72%)" opacity="0.99"/><path d="M27.92 62.57 L39.57 16.82 L57.03 45.29 Z" fill="hsl(319.7,70%,78%)" opacity="0.61"/><ellipse cx="39.45" cy="33.75" rx="3.91" ry="4.84" fill="hsl(326.7,60%,38%)" opacity="0.55"/><circle cx="46.50" cy="31.29" r="6.69" fill="hsl(333.7,70%,55%)" opacity="0.70"/><path d="M46.45 22.26 L48.96 25.92 L30.88 40.07 Z" fill="hsl(340.7,70%,58%)" opacity="0.52"/><ellipse cx="29.46" cy="24.74" rx="5.53" ry="5.04" fill="hsl(347.7,60%,64%)" opacity="0.43"/><circle cx="35.14" cy="34.03" r="2.40" fill="hsl(354.7,70%,41%)" opacity="0.99"/><path d="M36.85 51.05 L18.01 52.26 L6.04 20.37 Z" fill="hsl(1.7,70%,50%)" opacity="0.47"/><ellipse cx="58.80" cy="38.87" rx="1.83" ry="1.86" fill="hsl(8.7,60%,58%)" opacity="0.53"/><circle cx="8.02" cy="39.02" r="6.71" fill="hsl(15.7,70%,71%)" opacity="0.83"/><path d="M30.10 37.69 L13.01 61.63 L30.05 37.52 Z" fill="hsl(22.7,70%,70%)" opacity="0.37"/><ellipse cx="31.67" cy="27.10" rx="4.18" ry="2.81" fill="hsl(29.7,60%,51%)" opacity="0.89"/><circle cx="30.11" cy="62.53" r="5.61" fill="hsl(36.7,70%,78%)" opacity="0.99"/><path d="M27.85 55.03 L36.31 52.44 L60.87 11.05 Z" fill="hsl(43.7,70%,78%)" opacity="0.60"/><ellipse cx="3.62" cy="6.54" rx="4.10" ry="5.95" fill="hsl(50.7,60%,40%)" opacity="0.52"/><circle cx="46.42" cy="53.75" r="2.04" fill="hsl(57.7,70%,69%)" opacity="0.64"/><path d="M26.52 56.06 L5.00 9.84 L22.24 11.87 Z" fill="hsl(64.7,70%,73%)" opacity="0.75"/><ellipse cx="58.29" cy="13.00" rx="1.37" ry="3.73" fill="hsl(71.7,60%,62%)" opacity="0.53"/><circle cx="46.35" cy="0.46" r="2.01" fill="hsl(78.7,70%,72%)" opacity="0.47"/><path d="M56.64 48.94 L28.43 23.50 L29.85 34.27 Z" fill="hsl(85.7,70%,58%)" opacity="0.59"/><ellipse cx="44.54" cy="63.36" rx="1.06" ry="4.92" fill="hsl(92.7,60%,43%)" opacity="0.37"/><circle cx="17.67" cy="0.98" r="3.84" fill="hsl(99.7,70%,73%)" opacity="0.59"/><path d="M11.31 12.33 L14.12 14.44 L23.85 42.78 Z" fill="hsl(106.7,70%,42%)" opacity="0.72"/><ellipse cx="57.63" cy="13.71" rx="1.13" ry="3.54" fill="hsl(113.7,60%,43%)" opacity="0.44"/><circle cx="56.68" cy="6.85" r="2.39" fill="hsl(120.7,70%,68%)" opacity="0.81"/><path d="M8.48 29.82 L46.87 22.50 L31.38 61.60 Z" fill="hsl(127.7,70%,58%)" opacity="0.62"/><ellipse cx="32.16" cy="30.47" rx="1.13" ry="1.38" fill="hsl(134.7,60%,38%)" opacity="0.78"/><circle cx="57.23" cy="21.15" r="1.45" fill="hsl(141.7,70%,50%)" opacity="0.70"/><path d="M22.47 35.95 L35.59 51.50 L5.98 5.43 Z" fill="hsl(148.7,70%,41%)" opacity="0.72"/><ellipse cx="33.72" cy="24.25" rx="2.14" ry="4.14" fill="hsl(155.7,60%,59%)" opacity="0.49"/><circle cx="21.95" cy="29.22" r="5.20" fill="hsl(162.7,70%,65%)" opacity="0.87"/><path d="M25.14 6.86 L62.28 5.32 L21.84 46.73 Z" fill="hsl(169.7,70%,51%)" opacity="0.71"/><ellipse cx="10.16" cy="63.91" rx="3.75" ry="2.45" fill="hsl(176.7,60%,61%)" opacity="0.63"/><circle cx="22.16" cy="3.95" r="1.21" fill="hsl(183.7,70%,56%)" opacity="0.90"/><path d="M48.64 28.01 L53.49 7.02 L37.77 48.78 Z" fill="hsl(190.7,70%,41%)" opacity="0.77"/><ellipse cx="31.36" cy="56.42" rx="5.46" ry="3.39" fill="hsl(197.7,60%,78%)" opacity="0.81"/><circle cx="60.09" cy="23.80" r="6.47" fill="hsl(204.7,70%,74%)" opacity="0.98"/><path d="M21.44 6.08 L18.32 51.94 L13.63 61.22 Z" fill="hsl(211.7,70%,77%)" opacity="0.70"/><ellipse cx="63.18" cy="63.45" rx="5.02" ry="2.47" fill="hsl(218.7,60%,50%)" opacity="0.85"/><circle cx="41.11" cy="34.39" r="4.99" fill="hsl(225.7,70%,50%)" opacity="0.83"/><path d="M55.15 44.47 L8.64 26.29 L54.74 5.50 Z" fill="hsl(232.7,70%,57%)" opacity="0.44"/><ellipse cx="58.53" cy="41.47" rx="3.46" ry="5.23" fill="hsl(239.7,60%,60%)" opacity="0.35"/><circle cx="9.78" cy="45.89" r="2.10" fill="hsl(246.7,70%,56%)" opacity="0.83"/><path d="M52.13 21.18 L19.15 7.80 L41.56 29.85 Z" fill="hsl(253.7,70%,57%)" opacity="0.55"/><ellipse cx="61.65" cy="59.84" rx="5.62" ry="5.30" fill="hsl(260.7,60%,46%)" opacity="0.70"/><circle cx="2.54" cy="29.41" r="6.03" fill="hsl(267.7,70%,64%)" opacity="0.72"/><path d="M19.89 51.40 L8.46 1.05 L51.55 35.48 Z" fill="hsl(274.7,70%,73%)" opacity="0.76"/><ellipse cx="15.17" cy="2.09" rx="2.79" ry="1.89" fill="hsl(281.7,60%,79%)" opacity="0.32"/><circle cx="26.98" cy="7.19" r="3.60" fill="hsl(288.7,70%,70%)" opacity="0.96"/><path d="M10.50 63.73 L51.20 58.26 L18.36 48.14 Z" fill="hsl(295.7,70%,50%)" opacity="0.71"/><ellipse cx="12.99" cy="38.26" rx="2.74" ry="2.12" fill="hsl(302.7,60%,75%)" opacity="0.86"/><circle cx="10.07" cy="1.18" r="6.75" fill="hsl(309.7,70%,51%)" opacity="0.44"/><path d="M45.58 48.34 L18.72 61.09 L26.04 27.79 Z" fill="hsl(316.7,70%,44%)" opacity="0.65"/><ellipse cx="29.34" cy="17.44" rx="1.55" ry="5.62" fill="hsl(323.7,60%,36%)" opacity="0.87"/><circle cx="18.43" cy="28.33" r="6.54" fill="hsl(330.7,70%,67%)" opacity="0.99"/><path d="M49.04 36.95 L11.34 40.80 L33.10 56.65 Z" fill="hsl(337.7,70%,51%)" opacity="0.73"/><ellipse cx="47.10" cy="20.97" rx="2.09" ry="5.12" fill="hsl(344.7,60%,51%)" opacity="0.72"/><circle cx="0.07" cy="61.90" r="3.07" fill="hsl(351.7,70%,49%)" opacity="0.87"/><path d="M26.63 21.14 L57.42 41.03 L34.27 40.51 Z" fill="hsl(358.7,70%,56%)" opacity="0.50"/><ellipse cx="48.04" cy="4.61" rx="1.05" ry="3.40" fill="hsl(5.7,60%,48%)" opacity="0.90"/><circle cx="63.30" cy="46.08" r="4.72" fill="hsl(12.7,70%,52%)" opacity="0.90"/><path d="M52.33 50.21 L36.44 9.13 L51.82 48.66 Z" fill="hsl(19.7,70%,52%)" opacity="0.74"/><ellipse cx="38.13" cy="39.20" rx="2.04" ry="3.74" fill="hsl(26.7,60%,63%)" opacity="0.40"/><circle cx="53.85" cy="17.39" r="1.57" fill="hsl(33.7,70%,52%)" opacity="0.99"/><path d="M6.23 27.08 L12.92 48.61 L50.45 43.79 Z" fill="hsl(40.7,70%,45%)" opacity="0.42"/><ellipse cx="60.77" cy="22.73" rx="3.68" ry="1.42" fill="hsl(47.7,60%,52%)" opacity="0.68"/><circle cx="43.36" cy="21.03" r="6.24" fill="hsl(54.7,70%,40%)" opacity="0.93"/><path d="M44.02 57.87 L63.43 18.09 L43.92 58.99 Z" fill="hsl(61.7,70%,44%)" opacity="0.59"/><ellipse cx="34.12" cy="12.41" rx="3.64" ry="2.01" fill="hsl(68.7,60%,66%)" opacity="0.54"/><circle cx="10.31" cy="58.42" r="3.80" fill="hsl(75.7,70%,58%)" opacity="0.84"/><path d="M42.03 63.33 L11.39 23.80 L21.55 37.46 Z" fill="hsl(82.7,70%,78%)" opacity="0.74"/><ellipse cx="43.23" cy="20.82" rx="2.30" ry="2.81" fill="hsl(89.7,60%,56%)" opacity="0.39"/><circle cx="63.81" cy="9.85" r="5.41" fill="hsl(96.7,70%,43%)" opacity="0.84"/><path d="M8.67 53.45 L6.26 22.64 L54.19 14.63 Z" fill="hsl(103.7,70%,47%)" opacity="0.79"/><ellipse cx="3.00" cy="38.89" rx="1.24" ry="4.85" fill="hsl(110.7,60%,62%)" opacity="0.74"/><circle cx="52.97" cy="14.19" r="5.95" fill="hsl(117.7,70%,77%)" opacity="0.97"/></svg>