<svg xmlns="http://www.w3.org/2000/svg" width="64" height="64" viewBox="0 0 64 64"><rect width="64" height="64" rx="8" fill="hsl(2.8,65%,45%)"/><circle cx="31.63" cy="43.99" r="6.01" fill="hsl(2.8,70%,53%)" opacity="0.55"/><path d="M38.22 26.52 L51.07 19.97 L53.92 62.59 Z" fill="hsl(9.8,70%,73%)" opacity="0.40"/><ellipse cx="50.92" cy="4.63" rx="5.67" ry="4.54" fill="hsl(16.8,60%,55%)" opacity="0.44"/><circle cx="15.40" cy="50.48" r="3.31" fill="hsl(23.8,70%,71%)" opacity="0.40"/><path d="M12.76 32.74 L8.66 31.00 L52.17 16.87 Z" fill="hsl(30.8,70%,67%)" opacity="0.47"/><ellipse cx="59.96" cy="14.99" rx="4.21" ry="1.88" fill="hsl(37.8,60%,39%)" opacity="0.68"/><circle cx="21.90" cy="9.31" r="1.43" fill="hsl(44.8,70%,63%)" opacity="0.57"/><path d="M31.39 19.26 L36.53 31.37 L36.39 43.10 Z" fill="hsl(51.8,70%,54%)" opacity="0.41"/><ellipse cx="51.43" cy="31.57" rx="1.10" ry="1.03" fill="hsl(58.8,60%,55%)" opacity="0.43"/><circle cx="29.62" cy="32.48" r="1.94" fill="hsl(65.8,70%,43%)" opacity="0.96"/><path d="M54.79 58.42 L41.91 42.78 L16.94 33.95 Z" fill="hsl(72.8,70%,54%)" opacity="0.74"/><ellipse cx="8.95" cy="58.39" rx="5.87" ry="3.03" fill="hsl(79.8,60%,37%)" opacity="0.86"/><circle cx="51.40" cy="55.12" r="2.06" fill="hsl(86.8,70%,54%)" opacity="0.65"/><path d="M7.03 12.94 L19.75 39.20 L30.16 42.85 Z" fill="hsl(93.8,70%,49%)" opacity="0.41"/><ellipse cx="49.62" cy="19.92" rx="2.15" ry="1.31" fill="hsl(100.8,60%,54%)" opacity="0.85"/><circle cx="26.57" cy="57.04" r="6.04" fill="hsl(107.8,70%,68%)" opacity="0.67"/><path d="M19.93 16.46 L8.18 28.92 L3.02 24.53 Z" fill="hsl(114.8,70%,79%)" opacity="0.40"/><ellipse cx="51.38" cy="35.98" rx="4.53" ry="5.75" fill="hsl(121.8,60%,75%)" opacity="0.68"/><circle cx="43.19" cy="26.84" r="2.27" fill="hsl(128.8,70%,51%)" opacity="0.83"/><path d="M59.96 12.40 L50.92 63.12 L38.85 61.88 Z" fill="hsl(135.8,70%,60%)" opacity="0.47"/><ellipse cx="62.15" cy="49.91" rx="1.89" ry="3.16" fill="hsl(142.8,60%,66%)" opacity="0.50"/><circle cx="28.19" cy="25.10" r="1.42" fill="hsl(149.8,70%,68%)" opacity="0.79"/><path d="M46.70 35.79 L2.15 57.40 L58.86 29.26 Z" fill="hsl(156.8,70%,77%)" opacity="0.49"/><ellipse cx="41.96" cy="32.17" rx="3.49" ry="5.07" fill="hsl(163.8,60%,75%)" opacity="0.37"/><circle cx="30.70" cy="60.66" r="6.93" fill="hsl(170.8,70%,56%)" opacity="0.75"/><path d="M20.03 54.02 L10.50 22.11 L44.00 32.33 Z" fill="hsl(177.8,70%,69%)" opacity="0.77"/><ellipse cx="61.97" cy="50.22" rx="1.13" ry="4.88" fill="hsl(184.8,60%,53%)" opacity="0.33"/><circle cx="28.73" cy="55.64" r="3.50" fill="hsl(191.8,70%,77%)" opacity="0.66"/><path d="M14.54 25.20 L43.12 40.23 L52.26 17.26 Z" fill="hsl(198.8,70%,65%)" opacity="0.42"/><ellipse cx="53.89" cy="47.03" rx="4.93" ry="5.48" fill="hsl(205.8,60%,51%)" opacity="0.51"/><circle cx="26.22" cy="1.97" r="4.02" fill="hsl(212.8,70%,78%)" opacity="0.67"/><path d="M46.49 51.66 L12.85 59.04 L34.17 28.27 Z" fill="hsl(219.8,70%,78%)" opacity="0.63"/><ellipse cx="34.28" cy="20.82" rx="1.01" ry="1.42" fill="hsl(226.8,60%,76%)" opacity="0.55"/><circle cx="19.09" cy="49.56" r="4.42" fill="hsl(233.8,70%,66%)" opacity="0.80"/><path d="M14.08 49.05 L27.32 47.19 L55.58 40.03 Z" fill="hsl(240.8,70%,55%)" opacity="0.49"/><ellipse cx="18.90" cy="3.93" rx="1.29" ry="1.70" fill="hsl(247.8,60%,49%)" opacity="0.64"/><circle cx="47.57" cy="20.86" r="2.13" fill="hsl(254.8,70%,70%)" opacity="0.58"/><path d="M42.91 20.02 L43.67 3.61 L54.89 2.66 Z" fill="hsl(261.8,70%,53%)" opacity="0.79"/><ellipse cx="18.91" cy="33.16" rx="5.02" ry="4.22" fill="hsl(268.8,60%,74%)" opacity="0.70"/><circle cx="4.32" cy="49.29" r="4.68" fill="hsl(275.8,70%,69%)" opacity="0.58"/><path d="M23.43 34.23 L1.34 12.73 L45.35 63.20 Z" fill="hsl(282.8,70%,67%)" opacity="0.72"/><ellipse cx="44.45" cy="23.05" rx="4.66" ry="5.08" fill="hsl(289.8,60%,50%)" opacity="0.89"/><circle cx="48.08" cy="61.12" r="3.15" fill="hsl(296.8,70%,61%)" opacity="0.82"/><path d="M39.97 20.92 L10.59 62.80 L32.52 35.20 Z" fill="hsl(303.8,70%,62%)" opacity="0.68"/><ellipse cx="31.73" cy="51.13" rx="1.51" ry="5.54" fill="hsl(310.8,60%,72%)" opacity="0.71"/><circle cx="17.05" cy="23.79" r="6.03" fill="hsl(317.8,70%,42%)" opacity="0.89"/><path d="M38.94 50.77 L48.02 9.45 L29.80 50.06 Z" fill="hsl(324.8,70%,76%)" opacity="0.52"/><ellipse cx="48.50" cy="39.86" rx="1.85" ry="5.29" fill="hsl(331.8,60%,45%)" opacity="0.40"/><circle cx="46.81" cy="17.03" r="5.53" fill="hsl(338.8,70%,63%)" opacity="0.57"/><path d="M13.11 1.56 L22.36 53.15 L0.98 58.63 Z" fill="hsl(345.8,70%,54%)" opacity="0.48"/><ellipse cx="22.39" cy="25.50" rx="5.16" ry="3.65" fill="hsl(352.8,60%,58%)" opacity="0.73"/><circle cx="28.04" cy="8.97" r="3.17" fill="hsl(359.8,70%,43%)" opacity="0.81"/><path d="M50.42 40.62 L7.91 10.13 L4.18 3.81 Z" fill="hsl(6.8,70%,42%)" opacity="0.69"/><ellipse cx="23.54" cy="34.15" rx="5.75" ry="3.82" fill="hsl(13.8,60%,75%)" opacity="0.41"/><circle cx="50.77" cy="56.32" r="4.44" fill="hsl(20.8,70%,50%)" opacity="0.59"/><path d="M10.58 0.15 L57.05 26.73 L30.61 35.01 Z" fill="hsl(27.8,70%,63%)" opacity="0.36"/><ellipse cx="29.04" cy="14.99" rx="3.50" ry="5.96" fill="hsl(34.8,60%,57%)" opacity="0.38"/><circle cx="15.77" cy="41.95" r="2.42" fill="hsl(41.8,70%,51%)" opacity="0.79"/><path d="M56.15 47.49 L19.17 30.87 L11.81 50.48 Z" fill="hsl(48.8,70%,63%)" opacity="0.63"/><ellipse cx="8.85" cy="18.71" rx="1.63" ry="4.86" fill="hsl(55.8,60%,64%)" opacity="0.79"/><circle cx="59.62" cy="20.80" r="1.07" fill="hsl(62.8,70%,61%)" opacity="0.61"/><path d="M1.98 28.34 L14.73 34.78 L57.31 28.18 Z" fill="hsl(69.8,70%,46%)" opacity="0.54"/><ellipse cx="2.48" cy="11.25" rx="4.68" ry="4.12" fill="hsl(76.8,60%,56%)" opacity="0.70"/><circle cx="50.44" cy="30.78" r="2.23" fill="hsl(83.8,70%,64%)" opacity="0.54"/><path d="M41.02 39.13 L57.81 47.64 L62.56 40.74 Z" fill="hsl(90.8,70%,61%)" opacity="0.31"/><ellipse cx="4.30" cy="26.44" rx="1.14" ry="2.05" fill="hsl(97.8,60%,39%)" opacity="0.62"/><circle cx="53.42" cy="55.09" r="5.32" fill="hsl(104.8,70%,68%)" opacity="0.64"/><path d="M32.89 49.61 L54.41 33.44 L47.29 41.37 Z" fill="hsl(111.8,70%,67%)" opacity="0.63"/><ellipse cx="6.52" cy="48.43" rx="2.85" ry="5.26" fill="hsl(118.8,60%,62%)" opacity="0.65"/><circle cx="55.28" cy="44.66" r="3.08" fill="hsl(125.8,70%,40%)" opacity="0.98"/><path d="M33.90 47.14 L62.61 15.76 L37.14 10.63 Z" fill="hsl(132.8,70%,72%)" opacity="0.43"/><ellipse cx="61.26" cy="9.11" rx="3.77" ry="5.53" fill="hsl(139.8,60%,62%)" opacity="0.57"/><circle cx="21.26" cy="38.23" r="4.30" fill="hsl(146.8,70%,61%)" opacity="0.68"/><path d="M52.86 21.59 L20.60 55.19 L14.72 6.99 Z" fill="hsl(153.8,70%,51%)" opacity="0.31"/><ellipse cx="4.23" cy="57.41" rx="1.82" ry="3.45" fill="hsl(160.8,60%,79%)" opacity="0.46"/><circle cx="4.85" cy="56.01" r="2.46" fill="hsl(167.8,70%,42%)" opacity="0.71"/><path d="M27.29 2.93 L63.27 36.75 L62.71 20.48 Z" fill="hsl(174.8,70%,62%)" opacity="0.67"/><ellipse cx="55.72" cy="17.60" rx="1.63" ry="3.98" fill="hsl(181.8,60%,74%)" opacity="0.73"/><circle cx="30.18" cy="34.53" r="3.54" fill="hsl(188.8,70%,64%)" opacity="0.43"/><path d="M22.47 43.16 L44.52 41.06 L13.63 5.17 Z" fill="hsl(195.8,70%,77%)" opacity="0.49"/><ellipse cx="24.70" cy="38.94" rx="1.75" ry="1.37" fill="hsl(202.8,60%,72%)" opacity="0.77"/><circle cx="14.19" cy="39.81" r="3.16" fill="hsl(209.8,70%,43%)" opacity="0.75"/><path d="M33.69 8.79 L31.84 61.19 L8.70 40.28 Z" fill="hsl(216.8,70%,51%)" opacity="0.55"/><ellipse cx="5.58" cy="19.15" rx="5.79" ry="5.56" fill="hsl(223.8,60%,75%)" opacity="0.69"/><circle cx="29.82" cy="3.70" r="6.03" fill="hsl(230.8,70%,59%)" opacity="0.90"/><path d="M13.89 30.92 L13.42 42.85 L2.70 36.54 Z" fill="hsl(237.8,70%,45%)" opacity="0.58"/><ellipse cx="47.45" cy="4.27" rx="3.02" ry="1.20" fill="hsl(244.8,60%,43%)" opacity="0.64"/><circle cx="20.68" cy="45.41" r="5.75" fill="hsl(251.8,70%,59%)" opacity="0.71"/><path d="M47.71 44.12 L30.56 38.31 L55.88 7.83 Z" fill="hsl(258.8,70%,54%)" opacity="0.64"/><ellipse cx="26.95" cy="18.29" rx="1.79" ry="5.20" fill="hsl(265.8,60%,44%)" opacity="0.45"/><circle cx="16.65" cy="18.73" r="2.14" fill="hsl(272.8,70%,53%)" opacity="0.83"/><path d="M56.73 25.50 L8.12 3.04 L20.18 15.59 Z" fill="hsl(279.8,70%,55%)" opacity="0.55"/><ellipse cx="61.04" cy="25.27" rx="1.05" ry="1.39" fill="hsl(286.8,60%,52%)" opacity="0.89"/><circle cx="5.70" cy="12.87" r="6.33" fill="hsl(293.8,70%,59%)" opacity="0.88"/><path d="M40.81 41.69 L45.74 21.84 L2.51 14.08 Z" fill="hsl(300.8,70%,80%)" opacity="0.59"/><ellipse cx="24.13" cy="37.36" rx="5.72" ry="4.61" fill="hsl(307.8,60%,77%)" opacity="0.32"/><circle cx="49.09" cy="30.61" r="5.83" fill="hsl(314.8,70%,56%)" opacity="0.51"/><path d="M20.69 54.83 L40.47 53.24 L58.91 54.77 Z" fill="hsl(321.8,70%,60%)" opacity="0.46"/><ellipse cx="54.18" cy="5.26" rx="1.37" ry="5.62" fill="hsl(328.8,60%,39%)" opacity="0.61"/><circle cx="29.92" cy="42.40" r="1.08" fill="hsl(335.8,70%,67%)" opacity="0.66"/><path d="M29.16 49.11 L33.48 15.03 L21.90 19.15 Z" fill="hsl(342.8,70%,79%)" opacity="0.77"/><ellipse cx="3.55" cy="30.35" rx="1.47" ry="4.48" fill="hsl(349.8,60%,56%)" opacity="0.88"/><circle cx="63.83" cy="58.57" r="5.14" fill="hsl(356.8,70%,76%)" opacity="0.86"/><path d="M23.11 48.62 L27.84 13.50 L32.60 21.13 Z" fill="hsl(3.8,70%,68%)" opacity="0.43"/><ellipse cx="48.02" cy="46.10" rx="5.61" ry="1.32" fill="hsl(10.8,60%,47%)" opacity="0.42"/><circle cx="32.46" cy="25.85" r="4.61" fill="hsl(17.8,70%,58%)" opacity="0.67"/><path d="M48.52 28.67 L34.46 23.73 L12.00 57.41 Z" fill="hsl(24.8,70%,76%)" opacity="0.35"/><ellipse cx="1.15" cy="19.94" rx="1.14" ry="3.16" fill="hsl(31.8,60%,69%)" opacity="0.72"/><circle cx="58.38" cy="41.96" r="6.66" fill="hsl(38.8,70%,40%)" opacity="0.79"/><path d="M59.79 39.74 L52.47 31.05 L32.63 58.36 Z" fill="hsl(45.8,70%,57%)" opacity="0.41"/><ellipse cx="35.05" cy="47.37" rx="2.21" ry="5.66" fill="hsl(52.8,60%,74%)" opacity="0.63"/><circle cx="54.02" cy="24.39" r="1.02" fill="hsl(59.8,70%,75%)" opacity="0.66"/><path d="M25.89 19.71 L50.30 18.18 L18.97 2.48 Z" fill="hsl(66.8,70%,74%)" opacity="0.51"/><ellipse cx="2.94" cy="40.85" rx="5.50" ry="5.15" fill="hsl(73.8,60%,69%)" opacity="0.70"/><circle cx="58.68" cy="44.74" r="5.17" fill="hsl(80.8,70%,42%)" opacity="0.84"/><path d="M41.56 58.25 L46.05 17.16 L58.60 9.77 Z" fill="hsl(87.8,70%,65%)" opacity="0.73"/><ellipse cx="55.48" cy="40.91" rx="4.92" ry="3.25" fill="hsl(94.8,60%,54%)" opacity="0.31"/><circle cx="3.18" cy="59.79" r="2.49" fill="hsl(101.8,70%,53%)" opacity="0.61"/><path d="M62.67 40.80 L4.24 53.79 L61.89 44.47 Z" fill="hsl(108.8,70%,55%)" opacity="0.47"/><ellipse cx="60.91" cy="7.31" rx="2.13" ry="4.27" fill="hsl(115.8,60%,70%)" opacity="0.63"/><circle cx="4.53" cy="59.63" r="5.44" fill="hsl(122.8,70%,64%)" opacity="0.45"/><path d="M3.93 28.61 L45.39 16.59 L44.95 47.49 Z" fill="hsl(129.8,70%,69%)" opacity="0.77"/><ellipse cx="37.45" cy="55.12" rx="3.87" ry="2.90" fill="hsl(136.8,60%,37%)" opacity="0.42"/><circle cx="42.11" cy="33.23" r="1.29" fill="hsl(143.8,70%,52%)" opacity="0.86"/><path d="M10.62 63.13 L3.30 31.67 L6.36 15.45 Z" fill="hsl(150.8,70%,44%)" opacity="0.66"/><ellipse cx="55.79" cy="10.94" rx="5.62" ry="3.15" fill="hsl(157.8,60%,50%)" opacity="0.84"/><circle cx="22.23" cy="1.11" r="1.47" fill="hsl(164.8,70%,53%)" opacity="0.45"/><path d="M52.40 33.31 L0.55 46.80 L37.17 3.17 Z" fill="hsl(171.8,70%,77%)" opacity="0.56"/><ellipse cx="0.33" cy="37.87" rx="2.87" ry="2.56" fill="hsl(178.8,60%,66%)" opacity="0.70"/><circle cx="14.14" cy="3.74" r="6.84" fill="hsl(185.8,70%,59%)" opacity="0.75"/><path d="M29.96 46.40 L56.37 32.15 L38.55 51.73 Z" fill="hsl(192.8,70%,46%)" opacity="0.38"/><ellipse cx="55.24" cy="56.99" rx="5.12" ry="5.06" fill="hsl(199.8,60%,49%)" opacity="0.88"/><circle cx="14.86" cy="15.54" r="3.84" fill="hsl(206.8,70%,62%)" opacity="0.61"/><path d="M54.13 62.09 L25.70 7.08 L16.81 44.18 Z" fill="hsl(213.8,70%,60%)" opacity="0.44"/><ellipse cx="14.45" cy="21.12" rx="2.92" ry="4.23" fill="hsl(220.8,60%,46%)" opacity="0.58"/><circle cx="3.45" cy="3.59" r="1.41" fill="hsl(227.8,70%,63%)" opacity="0.58"/><path d="M28.66 13.77 L35.89 56.39 L7.26 55.94 Z" fill="hsl(234.8,70%,72%)" opacity="0.36"/><ellipse cx="44.61" cy="2.43" rx="4.93" ry="4.48" fill="hsl(241.8,60%,67%)" opacity="0.73"/><circle cx="40.22" cy="49.44" r="4.26" fill="hsl(248.8,70%,59%)" opacity="0.63"/><path d="M48.38 21.57 L48.99 47.32 L17.16 3.93 Z" fill="hsl(255.8,70%,66%)" opacity="0.51"/><ellipse cx="10.56" cy="47.75" rx="1.46" ry="4.28" fill="hsl(262.8,60%,65%)" opacity="0.76"/><circle cx="46.45" cy="17.45" r="6.97" fill="hsl(269.8,70%,58%)" opacity="0.89"/><path d="M28.71 57.34 L43.26 62.29 L8.05 13.66 Z" fill="hsl(276.8,70%,76%)" opacity="0.58"/><ellipse cx="35.74" cy="15.78" rx="1.00" ry="1.65" fill="hsl(283.8,60%,62%)" opacity="0.56"/><circle cx="2.33" cy="11.65" r="5.05" fill="hsl(290.8,70%,75%)" opacity="0.58"/><path d="M3.64 27.26 L29.83 44.19 L55.82 43.24 Z" fill="hsl(297.8,70%,77%)" opacity="0.43"/><ellipse cx="45.65" cy="6.18" rx="4.45" ry="2.27" fill="hsl(304.8,60%,59%)" opacity="0.68"/><circle cx="41.28" cy="4.49" r="3.73" fill="hsl(311.8,70%,69%)" opacity="0.54"/><path d="M6.14 29.78 L54.28 9.94 L14.68 40.67 Z" fill="hsl(318.8,70%,74%)" opacity="0.78"/><ellipse cx="30.25" cy="25.37" rx="1.21" ry="1.61" fill="hsl(325.8,60%,39%)" opacity="0.61"/><circle cx="21.38" cy="20.35" r="1.11" fill="hsl(332.8,70%,71%)" opacity="0.69"/><path d="M14.14 50.22 L33.14 25.32 L56.15 50.88 Z" fill="hsl(339.8,70%,59%)" opacity="0.43"/><ellipse cx="26.49" cy="59.00" rx="4.59" ry="3.83" fill="hsl(346.8,60%,73%)" opacity="0.84"/><circle cx="38.13" cy="38.46" r="1.20" fill="hsl(353.8,70%,65%)" opacity="0.85"/><path d="M53.22 15.67 L40.42 58.04 L16.63 43.81 Z" fill="hsl(0.8,70%,51%)" opacity="0.77"/><ellipse cx="49.52" cy="2.24" rx="2.26" ry="2.44" fill="hsl(7.8,60%,77%)" opacity="0.87"/><circle cx="49.57" cy="51.74" r="5.79" fill="hsl(14.8,70%,77%)" opacity="0.56"/><path d="M42.58 48.94 L60.96 26.49 L52.96 26.75 Z" fill="hsl(21.8,70%,43%)" opacity="0.43"/><ellipse cx="12.67" cy="59.93" rx="4.10" ry="2.01" fill="hsl(28.8,60%,60%)" opacity="0.65"/><circle cx="38.90" cy="24.89" r="5.74" fill="hsl(35.8,70%,51%)" opacity="0.94"/><path d="M55.22 3.47 L8.69 56.59 L19.35 58.51 Z" fill="hsl(42.8,70%,76%)" opacity="0.66"/><ellipse cx="21.57" cy="37.21" rx="2.01" ry="4.23" fill="hsl(49.8,60%,67%)" opacity="0.75"/><circle cx="6.17" cy="45.65" r="6.22" fill="hsl(56.8,70%,67%)" opacity="0.88"/><path d="M59.97 34.59 L38.04 63.32 L54.62 41.54 Z" fill="hsl(63.8,70%,59%)" opacity="0.50"/><ellipse cx="54.46" cy="32.74" rx="4.51" ry="3.53" fill="hsl(70.8,60%,73%)" opacity="0.31"/><circle cx="26.03" cy="36.89" r="1.52" fill="hsl(77.8,70%,59%)" opacity="0.57"/><path d="M18.70 19.55 L13.68 10.36 L48.86 20.18 Z" fill="hsl(84.8,70%,46%)" opacity="0.75"/><ellipse cx="45.45" cy="54.55" rx="4.77" ry="5.86" fill="hsl(91.8,60%,80%)" opacity="0.52"/><circle cx="31.16" cy="11.93" r="6.46" fill="hsl(98.8,70%,75%)" opacity="0.56"/><path d="M14.54 50.51 L14.18 42.05 L55.98 61.06 Z" fill="hsl(105.8,70%,50%)" opacity="0.80"/><ellipse cx="24.65" cy="1.13" rx="5.07" ry="3.24" fill="hsl(112.8,60%,38%)" opacity="0.30"/><circle cx="45.15" cy="50.33" r="2.22" fill="hsl(119.8,70%,76%)" opacity="0.79"/><path d="M23.48 56.54 L37.16 14.62 L42.80 17.63 Z" fill="hsl(126.8,70%,43%)" opacity="0.43"/><ellipse cx="15.14" cy="28.98" rx="5.33" ry="1.23" fill="hsl(133.8,60%,36%)" opacity="0.84"/><circle cx="37.18" cy="26.93" r="3.24" fill="hsl(140.8,70%,45%)" opacity="0.45"/><path d="M36.84 15.93 L12.84 9.43 L12.44 20.50 Z" fill="hsl(147.8,70%,42%)" opacity="0.78"/><ellipse cx="7.70" cy="4.98" rx="4.42" ry="2.67" fill="hsl(154.8,60%,73%)" opacity="0.39"/><circle cx="4.54" cy="12.68" r="3.42" fill="hsl(161.8,70%,54%)" opacity="0.97"/><path d="M53.75 31.48 L20.35 60.87 L2.30 57.86 Z" fill="hsl(168.8,70%,60%)" opacity="0.73"/><ellipse cx="54.06" cy="38.55" rx="1.49" ry="5.13" fill="hsl(175.8,60%,76%)" opacity="0.30"/><circle cx="20.87" cy="57.16" r="3.51" fill="hsl(182.8,70%,52%)" opacity="0.74"/><path d="M3.89 7.36 L60.92 48.06 L58.71 63.47 Z" fill="hsl(189.8,70%,61%)" opacity="0.36"/><ellipse cx="24.40" cy="36.39" rx="4.22" ry="4.59" fill="hsl(196.8,60%,45%)" opacity="0.83"/><circle cx="54.11" cy="41.61" r="2.90" fill="hsl(203.8,70%,65%)" opacity="0.52"/><path d="M58.24 55.10 L58.92 23.90 L10.37 61.47 Z" fill="hsl(210.8,70%,77%)" opacity="0.50"/><ellipse cx="59.99" cy="21.14" rx="1.25" ry="1.93" fill="hsl(217.8,60%,36%)" opacity="0.33"/><circle cx="26.01" cy="51.53" r="1.66" fill="hsl(224.8,70%,62%)" opacity="0.46"/><path d="M47.80 51.21 L20.54 13.69 L58.70 48.95 Z" fill="hsl(231.8,70%,44%)" opacity="0.58"/><ellipse cx="5.63" cy="34.73" rx="2.31" ry="5.15" fill="hsl(238.8,60%,76%)" opacity="0.40"/><circle cx="60.09" cy="26.50" r="5.77" fill="hsl(245.8,70%,71%)" opacity="0.44"/><path d="M11.38 19.90 L59.48 13.32 L1.71 52.10 Z" fill="hsl(252.8,70%,80%)" opacity="0.80"/><ellipse cx="51.93" cy="31.27" rx="1.49" ry="3.56" fill="hsl(259.8,60%,42%)" opacity="0.35"/><circle cx="38.97" cy="62.37" r="2.03" fill="hsl(266.8,70%,76%)" opacity="0.80"/><path d="M28.89 63.83 L59.66 44.56 L37.18 57.31 Z" fill="hsl(273.8,70%,47%)" opacity="0.68"/><ellipse cx="30.47" cy="12.57" rx="2.89" ry="1.37" fill="hsl(280.8,60%,47%)" opacity="0.42"/><circle cx="2.19" cy="18.54" r="1.30" fill="hsl(287.8,70%,44%)" opacity="0.48"/><path d="M5.07 63.50 L20.26 0.86 L19.40 8.51 Z" fill="hsl(294.8,70%,77%)" opacity="0.55"/><ellipse cx="54.45" cy="0.31" rx="5.96" ry="5.76" fill="hsl(301.8,60%,68%)" opacity="0.88"/><circle cx="3.77" cy="2.78" r="2.21" fill="hsl(308.8,70%,46%)" opacity="0.44"/><path d="M22.64 54.01 L11.52 25.88 L5.83 2.28 Z" fill="hsl(315.8,70%,51%)" opacity="0.33"/><ellipse cx="34.40" cy="9.37" rx="2.05" ry="4.90" fill="hsl(322.8,60%,37%)" opacity="0.50"/><circle cx="12.54" cy="59.13" r="4.57" fill="hsl(329.8,70%,78%)" opacity="0.41"/><path d="M25.64 29.01 L46.21 41.77 L47.86 10.56 Z" fill="hsl(336.8,70%,57%)" opacity="0.38"/><ellipse cx="25.68" cy="2.60" rx="3.70" ry="5.46" fill="hsl(343.8,60%,61%)" opacity="0.32"/><circle cx="14.64" cy="5.54" r="3.64" fill="hsl(350.8,70%,54%)" opacity="0.73"/><path d="M23.75 20.82 L32.01 49.16 L55.45 22.75 Z" fill="hsl(357.8,70%,55%)" opacity="0.40"/><ellipse cx="53.95" cy="41.66" rx="4.24" ry="5.50" fill="hsl(4.8,60%,41%)" opacity="0.83"/><circle cx="53.48" cy="19.83" r="5.42" fill="hsl(11.8,70%,41%)" opacity="0.59"/><path d="M19.24 23.99 L28.07 31.72 L37.37 54.90 Z" fill="hsl(18.8,70%,70%)" opacity="0.78"/><ellipse cx="22.03" cy="35.82" rx="5.87" ry="1.18" fill="hsl(25.8,60%,54%)" opacity="0.54"/><circle cx="6.14" cy="19.51" r="4.38" fill="hsl(32.8,70%,41%)" opacity="0.92"/><path d="M58.89 29.49 L15.89 34.00 L51.00 42.70 Z" fill="hsl(39.8,70%,69%)" opacity="0.76"/><ellipse cx="63.73" cy="37.87" rx="4.27" ry="5.55" fill="hsl(46.8,60%,75%)" opacity="0.37"/><circle cx="50.30" cy="22.44" r="6.60" fill="hsl(53.8,70%,64%)" opacity="0.49"/><path d="M52.78 7.98 L17.13 18.63 L59.88 29.94 Z" fill="hsl(60.8,70%,52%)" opacity="0.70"/><ellipse cx="62.52" cy="2.36" rx="1.42" ry="3.66" fill="hsl(67.8,60%,41%)" opacity="0.57"/><circle cx="22.38" cy="51.51" r="4.68" fill="hsl(74.8,70%,75%)" opacity="0.64"/><path d="M28.32 20.82 L47.12 27.90 L24.40 2.03 Z" fill="hsl(81.8,70%,43%)" opacity="0.67"/><ellipse cx="25.16" cy="5.31" rx="5.16" ry="2.15" fill="hsl(88.8,60%,77%)" opacity="0.38"/><circle cx="44.45" cy="45.88" r="2.81" fill="hsl(95.8,70%,61%)" opacity="0.66"/></svg>