<svg xmlns="http://www.w3.org/2000/svg" width="64" height="64" viewBox="0 0 64 64"><rect width="64" height="64" rx="8" fill="hsl(155.7,65%,45%)"/><circle cx="32.69" cy="37.60" r="2.67" fill="hsl(155.7,70%,76%)" opacity="0.95"/><path d="M47.92 60.73 L12.32 11.96 L20.02 31.25 Z" fill="hsl(162.7,70%,51%)" opacity="0.40"/><ellipse cx="46.32" cy="56.98" rx="5.88" ry="2.47" fill="hsl(169.7,60%,39%)" opacity="0.35"/><circle cx="23.82" cy="32.35" r="4.52" fill="hsl(176.7,70%,64%)" opacity="0.45"/><path d="M15.83 32.61 L58.01 29.99 L40.89 51.71 Z" fill="hsl(183.7,70%,78%)" opacity="0.30"/><ellipse cx="23.00" cy="19.78" rx="4.65" ry="5.27" fill="hsl(190.7,60%,76%)" opacity="0.88"/><circle cx="62.42" cy="28.52" r="4.41" fill="hsl(197.7,70%,73%)" opacity="0.60"/><path d="M27.07 17.28 L34.08 35.88 L30.23 30.83 Z" fill="hsl(204.7,70%,63%)" opacity="0.55"/><ellipse cx="49.67" cy="42.38" rx="4.15" ry="1.47" fill="hsl(211.7,60%,40%)" opacity="0.74"/><circle cx="47.22" cy="41.24" r="6.39" fill="hsl(218.7,70%,75%)" opacity="0.98"/><path d="M53.59 37.92 L39.21 62.28 L32.81 25.05 Z" fill="hsl(225.7,70%,65%)" opacity="0.67"/><ellipse cx="9.76" cy="3.86" rx="1.62" ry="1.07" fill="hsl(232.7,60%,55%)" opacity="0.47"/><circle cx="51.75" cy="40.66" r="4.11" fill="hsl(239.7,70%,78%)" opacity="0.52"/><path d="M32.42 39.16 L22.64 23.82 L60.38 23.70 Z" fill="hsl(246.7,70%,76%)" opacity="0.46"/><ellipse cx="53.81" cy="62.29" rx="1.62" ry="2.03" fill="hsl(253.7,60%,63%)" opacity="0.75"/><circle cx="7.22" cy="29.88" r="1.38" fill="hsl(260.7,70%,45%)" opacity="0.57"/><path d="M32.46 31.95 L50.47 30.78 L20.30 54.36 Z" fill="hsl(267.7,70%,74%)" opacity="0.67"/><ellipse cx="26.17" cy="36.46" rx="5.67" ry="1.52" fill="hsl(274.7,60%,71%)" opacity="0.62"/><circle cx="41.50" cy="19.54" r="6.56" fill="hsl(281.7,70%,50%)" opacity="0.45"/><path d="M28.68 57.87 L12.14 58.02 L48.44 14.16 Z" fill="hsl(288.7,70%,73%)" opacity="0.54"/><ellipse cx="3.34" cy="60.54" rx="5.16" ry="5.85" fill="hsl(295.7,60%,65%)" opacity="0.40"/><circle cx="48.75" cy="25.28" r="5.75" fill="hsl(302.7,70%,78%)" opacity="0.75"/><path d="M1.59 40.76 L14.94 24.85 L43.65 45.67 Z" fill="hsl(309.7,70%,58%)" opacity="0.31"/><ellipse cx="49.18" cy="14.21" rx="4.48" ry="2.56" fill="hsl(316.7,60%,40%)" opacity="0.55"/><circle cx="44.35" cy="26.97" r="6.46" fill="hsl(323.7,70%,52%)" opacity="0.48"/><path d="M7.35 31.40 L2.47 57.72 L18.75 30.53 Z" fill="hsl(330.7,70%,43%)" opacity="0.43"/><ellipse cx="1.35" cy="43.92" rx="4.60" ry="1.61" fill="hsl(337.7,60%,69%)" opacity="0.86"/><circle cx="41.30" cy="1.47" r="4.96" fill="hsl(344.7,70%,54%)" opacity="0.84"/><path d="M13.80 7.34 L5.82 5.47 L8.26 55.88 Z" fill="hsl(351.7,70%,60%)" opacity="0.36"/><ellipse cx="14.04" cy="28.04" rx="5.53" ry="1.70" fill="hsl(358.7,60%,68%)" opacity="0.66"/><circle cx="61.67" cy="53.82" r="1.09" fill="hsl(5.7,70%,49%)" opacity="0.99"/><path d="M28.78 32.32 L50.86 37.11 L40.45 19.55 Z" fill="hsl(12.7,70%,45%)" opacity="0.78"/><ellipse cx="22.94" cy="6.20" rx="3.34" ry="1.96" fill="hsl(19.7,60%,47%)" opacity="0.84"/><circle cx="47.43" cy="44.01" r="2.60" fill="hsl(26.7,70%,70%)" opacity="0.83"/><path d="M33.07 29.74 L22.24 26.13 L16.82 36.00 Z" fill="hsl(33.7,70%,54%)" opacity="0.72"/><ellipse cx="50.07" cy="23.56" rx="4.97" ry="1.92" fill="hsl(40.7,60%,70%)" opacity="0.36"/><circle cx="47.27" cy="39.43" r="2.18" fill="hsl(47.7,70%,61%)" opacity="0.56"/><path d="M49.57 60.36 L16.25 22.52 L26.41 14.03 Z" fill="hsl(54.7,70%,61%)" opacity="0.40"/><ellipse cx="36.75" cy="37.35" rx="3.66" ry="1.82" fill="hsl(61.7,60%,63%)" opacity="0.69"/><circle cx="3.08" cy="17.23" r="5.59" fill="hsl(68.7,70%,72%)" opacity="0.84"/><path d="M60.58 62.94 L34.08 42.91 L36.83 30.37 Z" fill="hsl(75.7,70%,44%)" opacity="0.67"/><ellipse cx="54.16" cy="2.18" rx="5.30" ry="1.36" fill="hsl(82.7,60%,41%)" opacity="0.90"/><circle cx="13.25" cy="44.81" r="2.58" fill="hsl(89.7,70%,64%)" opacity="0.47"/><path d="M56.64 38.61 L3.81 48.45 L1.91 3.32 Z" fill="hsl(96.7,70%,56%)" opacity="0.58"/><ellipse cx="5.33" cy="32.30" rx="2.04" ry="5.12" fill="hsl(103.7,60%,68%)" opacity="0.32"/><circle cx="39.67" cy="32.18" r="6.63" fill="hsl(110.7,70%,61%)" opacity="0.51"/><path d="M12.40 28.92 L51.16 39.25 L6.27 34.36 Z" fill="hsl(117.7,70%,52%)" opacity="0.49"/><ellipse cx="31.88" cy="61.18" rx="5.42" ry="4.45" fill="hsl(124.7,60%,46%)" opacity="0.82"/><circle cx="28.16" cy="26.13" r="1.83" fill="hsl(131.7,70%,52%)" opacity="0.51"/><path d="M57.22 9.75 L27.42 57.74 L45.04 2.38 Z" fill="hsl(138.7,70%,60%)" opacity="0.65"/><ellipse cx="57.48" cy="43.83" rx="3.51" ry="4.16" fill="hsl(145.7,60%,41%)" opacity="0.41"/><circle cx="47.50" cy="41.42" r="6.60" fill="hsl(152.7,70%,66%)" opacity="0.91"/><path d="M35.55 48.55 L1.60 10.94 L54.20 51.09 Z" fill="hsl(159.7,70%,70%)" opacity="0.35"/><ellipse cx="55.58" cy="38.20" rx="4.07" ry="2.50" fill="hsl(166.7,60%,52%)" opacity="0.85"/><circle cx="30.73" cy="37.31" r="4.83" fill="hsl(173.7,70%,59%)" opacity="0.78"/><path d="M57.41 38.44 L30.25 49.52 L53.51 46.11 Z" fill="hsl(180.7,70%,78%)" opacity="0.40"/><ellipse cx="31.05" cy="33.12" rx="3.96" ry="3.09" fill="hsl(187.7,60%,62%)" opacity="0.89"/><circle cx="17.13" cy="28.76" r="3.31" fill="hsl(194.7,70%,54%)" opacity="0.76"/><path d="M23.83 25.51 L55.90 23.54 L1.30 21.13 Z" fill="hsl(201.7,70%,62%)" opacity="0.47"/><ellipse cx="53.64" cy="43.94" rx="2.08" ry="1.18" fill="hsl(208.7,60%,47%)" opacity="0.68"/><circle cx="0.51" cy="32.86" r="2.00" fill="hsl(215.7,70%,62%)" opacity="0.66"/><path d="M1.43 18.55 L60.89 39.41 L12.70 36.57 Z" fill="hsl(222.7,70%,79%)" opacity="0.31"/><ellipse cx="17.76" cy="56.71" rx="3.65" ry="2.06" fill="hsl(229.7,60%,47%)" opacity="0.69"/><circle cx="43.91" cy="17.17" r="2.37" fill="hsl(236.7,70%,46%)" opacity="0.47"/><path d="M47.01 0.38 L45.70 33.25 L30.17 8.33 Z" fill="hsl(243.7,70%,80%)" opacity="0.48"/><ellipse cx="47.33" cy="45.19" rx="5.84" ry="2.99" fill="hsl(250.7,60%,47%)" opacity="0.58"/><circle cx="30.80" cy="51.34" r="2.36" fill="hsl(257.7,70%,55%)" opacity="0.66"/><path d="M53.73 24.42 L27.71 57.81 L27.21 49.18 Z" fill="hsl(264.7,70%,60%)" opacity="0.68"/><ellipse cx="2.36" cy="44.42" rx="3.27" ry="4.70" fill="hsl(271.7,60%,69%)" opacity="0.88"/><circle cx="52.84" cy="51.14" r="4.02" fill="hsl(278.7,70%,62%)" opacity="0.88"/><path d="M25.08 36.93 L12.82 16.12 L62.56 17.53 Z" fill="hsl(285.7,70%,60%)" opacity="0.40"/><ellipse cx="47.50" cy="5.72" rx="4.55" ry="4.91" fill="hsl(292.7,60%,60%)" opacity="0.71"/><circle cx="10.42" cy="41.22" r="4.13" fill="hsl(299.7,70%,71%)" opacity="0.98"/><path d="M32.62 40.83 L42.56 39.70 L5.24 31.60 Z" fill="hsl(306.7,70%,71%)" opacity="0.50"/><ellipse cx="44.22" cy="63.19" rx="4.49" ry="5.89" fill="hsl(313.7,60%,49%)" opacity="0.57"/><circle cx="44.66" cy="23.89" r="6.21" fill="hsl(320.7,70%,68%)" opacity="0.53"/><path d="M18.23 57.19 L63.74 16.34 L32.50 3.80 Z" fill="hsl(327.7,70%,67%)" opacity="0.61"/><ellipse cx="48.75" cy="5.56" rx="2.08" ry="2.05" fill="hsl(334.7,60%,51%)" opacity="0.31"/><circle cx="55.64" cy="59.19" r="3.07" fill="hsl(341.7,70%,77%)" opacity="0.44"/><path d="M1.44 18.23 L33.16 24.06 L51.74 34.34 Z" fill="hsl(348.7,70%,50%)" opacity="0.60"/><ellipse cx="1.29" cy="52.44" rx="4.93" ry="2.81" fill="hsl(355.7,60%,52%)" opacity="0.65"/><circle cx="62.95" cy="7.61" r="1.80" fill="hsl(2.7,70%,46%)" opacity="0.93"/><path d="M48.31 28.96 L58.20 12.98 L58.49 12.48 Z" fill="hsl(9.7,70%,80%)" opacity="0.43"/><ellipse cx="49.48" cy="19.97" rx="5.96" ry="3.66" fill="hsl(16.7,60%,37%)" opacity="0.78"/><circle cx="58.17" cy="15.29" r="2.59" fill="hsl(23.7,70%,47%)" opacity="0.63"/><path d="M28.33 49.86 L46.88 43.41 L48.39 55.09 Z" fill="hsl(30.7,70%,45%)" opacity="0.38"/><ellipse cx="43.15" cy="60.24" rx="5.74" ry="1.98" fill="hsl(37.7,60%,78%)" opacity="0.86"/><circle cx="36.73" cy="42.57" r="5.20" fill="hsl(44.7,70%,80%)" opacity="0.47"/><path d="M37.70 63.12 L23.33 29.57 L33.08 16.62 Z" fill="hsl(51.7,70%,80%)" opacity="0.69"/><ellipse cx="42.49" cy="51.24" rx="1.80" ry="4.92" fill="hsl(58.7,60%,79%)" opacity="0.88"/><circle cx="20.52" cy="58.51" r="5.00" fill="hsl(65.7,70%,42%)" opacity="0.89"/><path d="M54.36 42.49 L59.79 15.70 L19.93 22.86 Z" fill="hsl(72.7,70%,79%)" opacity="0.58"/><ellipse cx="2.76" cy="26.64" rx="3.74" ry="2.47" fill="hsl(79.7,60%,47%)" opacity="0.53"/><circle cx="31.02" cy="23.17" r="1.91" fill="hsl(86.7,70%,68%)" opacity="0.52"/><path d="M27.34 63.90 L0.84 10.65 L48.94 16.41 Z" fill="hsl(93.7,70%,46%)" opacity="0.39"/><ellipse cx="2.63" cy="34.24" rx="1.41" ry="3.09" fill="hsl(100.7,60%,60%)" opacity="0.41"/><circle cx="33.68" cy="31.87" r="5.60" fill="hsl(107.7,70%,49%)" opacity="0.62"/><path d="M41.68 13.55 L35.50 56.21 L63.34 6.12 Z" fill="hsl(114.7,70%,72%)" opacity="0.41"/><ellipse cx="34.25" cy="11.96" rx="2.49" ry="1.77" fill="hsl(121.7,60%,45%)" opacity="0.78"/><circle cx="59.43" cy="31.89" r="2.89" fill="hsl(128.7,70%,80%)" opacity="0.92"/><path d="M1.10 44.07 L13.05 29.16 L50.88 11.89 Z" fill="hsl(135.7,70%,44%)" opacity="0.74"/><ellipse cx="1.48" cy="55.42" rx="1.98" ry="1.50" fill="hsl(142.7,60%,38%)" opacity="0.74"/><circle cx="40.78" cy="28.39" r="1.57" fill="hsl(149.7,70%,61%)" opacity="0.49"/><path d="M49.10 33.49 L28.21 61.70 L61.31 20.09 Z" fill="hsl(156.7,70%,79%)" opacity="0.57"/><ellipse cx="25.84" cy="47.31" rx="2.20" ry="5.75" fill="hsl(163.7,60%,57%)" opacity="0.32"/><circle cx="25.88" cy="33.63" r="3.56" fill="hsl(170.7,70%,50%)" opacity="0.49"/><path d="M10.22 49.91 L16.44 19.44 L11.20 45.29 Z" fill="hsl(177.7,70%,55%)" opacity="0.79"/><ellipse cx="51.46" cy="43.87" rx="3.18" ry="5.64" fill="hsl(184.7,60%,63%)" opacity="0.37"/><circle cx="16.65" cy="1.26" r="4.13" fill="hsl(191.7,70%,53%)" opacity="0.67"/><path d="M53.33 0.21 L41.96 27.76 L60.93 61.44 Z" fill="hsl(198.7,70%,69%)" opacity="0.79"/><ellipse cx="30.07" cy="11.21" rx="1.45" ry="3.53" fill="hsl(205.7,60%,64%)" opacity="0.41"/><circle cx="59.16" cy="10.08" r="6.06" fill="hsl(212.7,70%,52%)" opacity="0.54"/><path d="M16.19 8.57 L56.32 57.39 L38.74 14.75 Z" fill="hsl(219.7,70%,48%)" opacity="0.65"/><ellipse cx="0.63" cy="38.80" rx="2.94" ry="4.78" fill="hsl(226.7,60%,64%)" opacity="0.88"/><circle cx="33.05" cy="19.61" r="3.15" fill="hsl(233.7,70%,59%)" opacity="0.72"/><path d="M44.95 61.68 L19.39 49.65 L62.67 8.92 Z" fill="hsl(240.7,70%,60%)" opacity="0.45"/><ellipse cx="29.95" cy="30.96" rx="2.40" ry="1.57" fill="hsl(247.7,60%,45%)" opacity="0.77"/><circle cx="0.04" cy="15.09" r="3.01" fill="hsl(254.7,70%,65%)" opacity="0.84"/><path d="M60.08 14.23 L58.83 3.21 L51.30 45.56 Z" fill="hsl(261.7,70%,74%)" opacity="0.46"/><ellipse cx="22.67" cy="23.60" rx="2.83" ry="5.27" fill="hsl(268.7,60%,53%)" opacity="0.47"/><circle cx="28.66" cy="37.61" r="3.42" fill="hsl(275.7,70%,61%)" opacity="0.61"/><path d="M6.00 21.57 L45.46 52.61 L11.35 7.95 Z" fill="hsl(282.7,70%,67%)" opacity="0.35"/><ellipse cx="23.83" cy="28.49" rx="5.48" ry="5.30" fill="hsl(289.7,60%,35%)" opacity="0.55"/><circle cx="20.25" cy="45.67" r="5.30" fill="hsl(296.7,70%,68%)" opacity="0.89"/><path d="M49.45 36.29 L47.67 15.76 L24.92 9.09 Z" fill="hsl(303.7,70%,60%)" opacity="0.76"/><ellipse cx="12.34" cy="17.48" rx="3.93" ry="1.07" fill="hsl(310.7,60%,75%)" opacity="0.47"/><circle cx="53.80" cy="5.90" r="4.52" fill="hsl(317.7,70%,75%)" opacity="0.87"/><path d="M57.81 27.08 L4.05 18.24 L7.64 63.10 Z" fill="hsl(324.7,70%,75%)" opacity="0.62"/><ellipse cx="31.21" cy="44.56" rx="3.43" ry="4.56" fill="hsl(331.7,60%,73%)" opacity="0.31"/><circle cx="11.68" cy="55.66" r="5.40" fill="hsl(338.7,70%,58%)" opacity="0.65"/><path d="M59.35 47.66 L19.02 36.76 L19.65 43.30 Z" fill="hsl(345.7,70%,45%)" opacity="0.53"/><ellipse cx="3.21" cy="12.44" rx="1.11" ry="3.17" fill="hsl(352.7,60%,58%)" opacity="0.70"/><circle cx="3.94" cy="57.86" r="5.41" fill="hsl(359.7,70%,47%)" opacity="0.41"/><path d="M28.62 4.19 L8.67 47.91 L48.45 12.50 Z" fill="hsl(6.7,70%,67%)" opacity="0.30"/><ellipse cx="24.96" cy="55.22" rx="1.07" ry="4.02" fill="hsl(13.7,60%,69%)" opacity="0.32"/><circle cx="30.80" cy="11.99" r="6.83" fill="hsl(20.7,70%,40%)" opacity="0.76"/><path d="M61.51 33.07 L58.29 47.30 L12.58 47.74 Z" fill="hsl(27.7,70%,65%)" opacity="0.34"/><ellipse cx="24.86" cy="47.37" rx="5.90" ry="5.54" fill="hsl(34.7,60%,48%)" opacity="0.35"/><circle cx="38.22" cy="35.22" r="2.98" fill="hsl(41.7,70%,58%)" opacity="0.51"/><path d="M23.25 60.36 L11.63 51.98 L42.46 3.26 Z" fill="hsl(48.7,70%,51%)" opacity="0.48"/><ellipse cx="33.81" cy="39.52" rx="2.06" ry="3.78" fill="hsl(55.7,60%,70%)" opacity="0.84"/><circle cx="57.18" cy="4.50" r="4.53" fill="hsl(62.7,70%,40%)" opacity="0.66"/><path d="M32.23 42.95 L55.00 27.73 L25.92 48.27 Z" fill="hsl(69.7,70%,60%)" opacity="0.50"/><ellipse cx="38.67" cy="58.42" rx="3.40" ry="5.82" fill="hsl(76.7,60%,55%)" opacity="0.36"/><circle cx="58.08" cy="20.20" r="5.55" fill="hsl(83.7,70%,66%)" opacity="0.41"/><path d="M4.97 40.13 L58.63 42.92 L19.63 20.03 Z" fill="hsl(90.7,70%,42%)" opacity="0.30"/><ellipse cx="33.13" cy="56.33" rx="4.73" ry="1.96" fill="hsl(97.7,60%,74%)" opacity="0.52"/><circle cx="22.71" cy="0.53" r="6.16" fill="hsl(104.7,70%,64%)" opacity="0.89"/><path d="M38.47 19.54 L57.89 18.83 L51.90 17.29 Z" fill="hsl(111.7,70%,57%)" opacity="0.39"/><ellipse cx="50.42" cy="20.17" rx="4.47" ry="2.62" fill="hsl(118.7,60%,73%)" opacity="0.49"/><circle cx="50.42" cy="20.21" r="5.54" fill="hsl(125.7,70%,61%)" opacity="0.44"/><path d="M15.51 60.84 L53.82 25.24 L22.70 18.89 Z" fill="hsl(132.7,70%,49%)" opacity="0.53"/><ellipse cx="27.52" cy="28.60" rx="5.57" ry="2.78" fill="hsl(139.7,60%,73%)" opacity="0.87"/><circle cx="61.23" cy="49.23" r="4.94" fill="hsl(146.7,70%,61%)" opacity="0.89"/><path d="M16.50 6.35 L19.41 30.06 L36.36 28.19 Z" fill="hsl(153.7,70%,77%)" opacity="0.37"/><ellipse cx="62.95" cy="2.48" rx="4.08" ry="3.17" fill="hsl(160.7,60%,38%)" opacity="0.88"/><circle cx="61.47" cy="53.12" r="3.22" fill="hsl(167.7,70%,68%)" opacity="0.82"/><path d="M25.91 59.94 L37.70 55.39 L32.17 42.98 Z" fill="hsl(174.7,70%,49%)" opacity="0.39"/><ellipse cx="49.87" cy="59.05" rx="5.27" ry="2.89" fill="hsl(181.7,60%,61%)" opacity="0.80"/><circle cx="28.59" cy="0.09" r="6.00" fill="hsl(188.7,70%,51%)" opacity="0.48"/><path d="M45.97 44.29 L35.93 2.40 L20.19 52.46 Z" fill="hsl(195.7,70%,40%)" opacity="0.69"/><ellipse cx="54.22" cy="61.92" rx="2.35" ry="2.02" fill="hsl(202.7,60%,63%)" opacity="0.37"/><circle cx="59.91" cy="58.58" r="1.19" fill="hsl(209.7,70%,62%)" opacity="0.85"/><path d="M61.73 18.28 L29.71 34.68 L40.11 46.98 Z" fill="hsl(216.7,70%,43%)" opacity="0.65"/><ellipse cx="62.09" cy="16.49" rx="2.14" ry="4.40" fill="hsl(223.7,60%,77%)" opacity="0.78"/><circle cx="11.51" cy="4.59" r="6.43" fill="hsl(230.7,70%,50%)" opacity="0.86"/><path d="M3.66 9.16 L0.01 16.09 L16.31 27.93 Z" fill="hsl(237.7,70%,44%)" opacity="0.70"/><ellipse cx="34.25" cy="56.47" rx="4.97" ry="5.98" fill="hsl(244.7,60%,79%)" opacity="0.74"/><circle cx="36.57" cy="62.03" r="2.55" fill="hsl(251.7,70%,64%)" opacity="0.71"/><path d="M16.18 6.98 L35.55 17.66 L15.31 37.08 Z" fill="hsl(258.7,70%,70%)" opacity="0.71"/><ellipse cx="50.68" cy="17.16" rx="5.37" ry="1.70" fill="hsl(265.7,60%,62%)" opacity="0.79"/><circle cx="22.94" cy="24.73" r="2.17" fill="hsl(272.7,70%,48%)" opacity="0.46"/><path d="M1.10 44.56 L49.05 22.70 L4.67 50.97 Z" fill="hsl(279.7,70%,79%)" opacity="0.72"/><ellipse cx="43.20" cy="33.07" rx="1.77" ry="2.66" fill="hsl(286.7,60%,46%)" opacity="0.71"/><circle cx="3.39" cy="14.65" r="1.53" fill="hsl(293.7,70%,49%)" opacity="0.84"/><path d="M58.06 29.43 L47.43 6.87 L52.48 2.62 Z" fill="hsl(300.7,70%,78%)" opacity="0.46"/><ellipse cx="41.95" cy="35.32" rx="5.15" ry="4.27" fill="hsl(307.7,60%,37%)" opacity="0.33"/><circle cx="48.91" cy="39.43" r="4.52" fill="hsl(314.7,70%,75%)" opacity="0.95"/><path d="M34.34 14.37 L35.94 38.09 L49.06 12.90 Z" fill="hsl(321.7,70%,79%)" opacity="0.49"/><ellipse cx="12.39" cy="10.11" rx="3.77" ry="2.41" fill="hsl(328.7,60%,74%)" opacity="0.36"/><circle cx="34.02" cy="16.40" r="5.49" fill="hsl(335.7,70%,50%)" opacity="0.60"/><path d="M42.77 8.04 L9.26 39.68 L44.72 58.34 Z" fill="hsl(342.7,70%,50%)" opacity="0.66"/><ellipse cx="48.85" cy="1.49" rx="2.13" ry="2.39" fill="hsl(349.7,60%,51%)" opacity="0.71"/><circle cx="30.20" cy="33.58" r="6.75" fill="hsl(356.7,70%,43%)" opacity="0.72"/><path d="M25.12 57.58 L57.95 41.60 L23.17 20.07 Z" fill="hsl(3.7,70%,65%)" opacity="0.51"/><ellipse cx="57.60" cy="37.21" rx="3.78" ry="2.70" fill="hsl(10.7,60%,67%)" opacity="0.84"/><circle cx="10.92" cy="52.95" r="2.76" fill="hsl(17.7,70%,75%)" opacity="0.96"/><path d="M54.98 24.48 L13.38 56.32 L19.60 28.28 Z" fill="hsl(24.7,70%,44%)" opacity="0.62"/><ellipse cx="51.75" cy="11.92" rx="4.13" ry="3.78" fill="hsl(31.7,60%,58%)" opacity="0.74"/><circle cx="20.32" cy="17.05" r="1.92" fill="hsl(38.7,70%,41%)" opacity="0.98"/><path d="M40.05 21.35 L32.84 62.50 L6.07 55.39 Z" fill="hsl(45.7,70%,49%)" opacity="0.32"/><ellipse cx="56.44" cy="38.08" rx="5.25" ry="5.50" fill="hsl(52.7,60%,54%)" opacity="0.38"/><circle cx="14.52" cy="24.51" r="1.19" fill="hsl(59.7,70%,50%)" opacity="0.76"/><path d="M11.79 51.24 L6.47 31.75 L56.65 4.50 Z" fill="hsl(66.7,70%,49%)" opacity="0.71"/><ellipse cx="13.68" cy="3.67" rx="2.29" ry="5.48" fill="hsl(73.7,60%,64%)" opacity="0.58"/><circle cx="46.99" cy="25.39" r="5.30" fill="hsl(80.7,70%,45%)" opacity="0.56"/><path d="M15.95 49.42 L8.44 14.72 L9.55 57.54 Z" fill="hsl(87.7,70%,70%)" opacity="0.53"/><ellipse cx="16.42" cy="21.24" rx="2.38" ry="5.46" fill="hsl(94.7,60%,39%)" opacity="0.68"/><circle cx="51.30" cy="54.79" r="5.39" fill="hsl(101.7,70%,51%)" opacity="0.99"/><path d="M42.59 2.23 L44.02 48.78 L44.28 8.98 Z" fill="hsl(108.7,70%,61%)" opacity="0.62"/><ellipse cx="56.10" cy="41.93" rx="1.47" ry="4.23" fill="hsl(115.7,60%,63%)" opacity="0.57"/><circle cx="1.00" cy="15.77" r="3.43" fill="hsl(122.7,70%,65%)" opacity="0.68"/><path d="M62.25 27.65 L19.72 55.59 L23.47 27.05 Z" fill="hsl(129.7,70%,50%)" opacity="0.54"/><ellipse cx="29.62" cy="14.17" rx="3.50" ry="4.20" fill="hsl(136.7,60%,39%)" opacity="0.71"/><circle cx="23.57" cy="22.74" r="4.41" fill="hsl(143.7,70%,53%)" opacity="0.86"/><path d="M37.02 42.35 L26.51 30.11 L26.56 51.65 Z" fill="hsl(150.7,70%,67%)" opacity="0.73"/><ellipse cx="62.35" cy="0.30" rx="4.42" ry="2.49" fill="hsl(157.7,60%,68%)" opacity="0.85"/><circle cx="45.38" cy="2.95" r="4.43" fill="hsl(164.7,70%,40%)" opacity="0.67"/><path d="M39.58 52.37 L51.92 63.05 L47.01 2.33 Z" fill="hsl(171.7,70%,66%)" opacity="0.33"/><ellipse cx="23.59" cy="22.22" rx="2.83" ry="1.86" fill="hsl(178.7,60%,61%)" opacity="0.60"/><circle cx="59.86" cy="25.02" r="1.62" fill="hsl(185.7,70%,40%)" opacity="1.00"/><path d="M47.03 53.14 L7.24 40.86 L33.43 48.28 Z" fill="hsl(192.7,70%,53%)" opacity="0.33"/><ellipse cx="8.34" cy="61.65" rx="4.92" ry="5.27" fill="hsl(199.7,60%,78%)" opacity="0.72"/><circle cx="45.46" cy="4.93" r="4.46" fill="hsl(206.7,70%,68%)" opacity="0.89"/><path d="M23.73 26.80 L10.69 19.83 L47.83 24.37 Z" fill="hsl(213.7,70%,51%)" opacity="0.67"/><ellipse cx="54.58" cy="15.47" rx="5.46" ry="1.96" fill="hsl(220.7,60%,71%)" opacity="0.80"/><circle cx="1.96" cy="10.42" r="6.00" fill="hsl(227.7,70%,51%)" opacity="0.50"/><path d="M26.90 38.26 L42.74 24.37 L39.41 33.26 Z" fill="hsl(234.7,70%,53%)" opacity="0.37"/><ellipse cx="16.38" cy="44.37" rx="1.32" ry="5.90" fill="hsl(241.7,60%,62%)" opacity="0.55"/><circle cx="20.18" cy="30.31" r="3.44" fill="hsl(248.7,70%,40%)" opacity="0.55"/></svg>