<svg xmlns="http://www.w3.org/2000/svg" width="64" height="64" viewBox="0 0 64 64"><rect width="64" height="64" rx="8" fill="hsl(240.6,65%,45%)"/><circle cx="32.64" cy="25.99" r="6.45" fill="hsl(240.6,70%,74%)" opacity="0.75"/><path d="M16.22 5.56 L23.05 10.84 L12.66 37.17 Z" fill="hsl(247.6,70%,76%)" opacity="0.43"/><ellipse cx="52.49" cy="27.76" rx="1.22" ry="5.94" fill="hsl(254.6,60%,38%)" opacity="0.59"/><circle cx="38.31" cy="7.89" r="3.77" fill="hsl(261.6,70%,50%)" opacity="0.97"/><path d="M0.81 40.06 L45.30 59.80 L1.23 36.69 Z" fill="hsl(268.6,70%,71%)" opacity="0.65"/><ellipse cx="27.69" cy="6.16" rx="5.67" ry="1.04" fill="hsl(275.6,60%,44%)" opacity="0.50"/><circle cx="11.42" cy="9.77" r="1.62" fill="hsl(282.6,70%,42%)" opacity="0.53"/><path d="M19.83 3.98 L34.19 49.07 L63.26 56.70 Z" fill="hsl(289.6,70%,74%)" opacity="0.35"/><ellipse cx="3.61" cy="35.93" rx="1.33" ry="3.54" fill="hsl(296.6,60%,48%)" opacity="0.78"/><circle cx="38.96" cy="2.13" r="4.65" fill="hsl(303.6,70%,64%)" opacity="0.91"/><path d="M53.64 18.04 L61.66 42.02 L3.79 59.69 Z" fill="hsl(310.6,70%,43%)" opacity="0.49"/><ellipse cx="51.40" cy="1.93" rx="3.10" ry="4.42" fill="hsl(317.6,60%,76%)" opacity="0.39"/><circle cx="56.20" cy="59.20" r="4.01" fill="hsl(324.6,70%,52%)" opacity="0.80"/><path d="M22.31 23.06 L6.13 37.93 L3.91 54.36 Z" fill="hsl(331.6,70%,57%)" opacity="0.35"/><ellipse cx="31.29" cy="52.88" rx="1.18" ry="1.30" fill="hsl(338.6,60%,36%)" opacity="0.69"/><circle cx="14.08" cy="13.28" r="6.35" fill="hsl(345.6,70%,57%)" opacity="0.60"/><path d="M48.25 29.74 L61.90 0.92 L37.36 39.58 Z" fill="hsl(352.6,70%,48%)" opacity="0.43"/><ellipse cx="61.57" cy="51.32" rx="5.27" ry="4.51" fill="hsl(359.6,60%,71%)" opacity="0.84"/><circle cx="50.51" cy="52.63" r="5.67" fill="hsl(6.6,70%,47%)" opacity="0.60"/><path d="M55.43 0.69 L39.25 18.08 L45.02 58.05 Z" fill="hsl(13.6,70%,75%)" opacity="0.65"/><ellipse cx="62.63" cy="30.27" rx="2.22" ry="3.40" fill="hsl(20.6,60%,44%)" opacity="0.47"/><circle cx="29.94" cy="16.34" r="4.86" fill="hsl(27.6,70%,71%)" opacity="0.71"/><path d="M27.50 16.72 L33.69 23.39 L7.15 58.30 Z" fill="hsl(34.6,70%,77%)" opacity="0.57"/><ellipse cx="17.59" cy="38.86" rx="1.65" ry="5.94" fill="hsl(41.6,60%,60%)" opacity="0.70"/><circle cx="18.41" cy="30.02" r="3.56" fill="hsl(48.6,70%,74%)" opacity="0.74"/><path d="M33.24 38.40 L2.85 17.37 L51.18 2.33 Z" fill="hsl(55.6,70%,71%)" opacity="0.38"/><ellipse cx="13.10" cy="53.14" rx="5.84" ry="5.25" fill="hsl(62.6,60%,44%)" opacity="0.78"/><circle cx="34.76" cy="47.16" r="2.24" fill="hsl(69.6,70%,66%)" opacity="0.81"/><path d="M58.48 58.78 L1.60 5.59 L7.33 1.99 Z" fill="hsl(76.6,70%,70%)" opacity="0.49"/><ellipse cx="26.32" cy="43.81" rx="1.55" ry="3.62" fill="hsl(83.6,60%,55%)" opacity="0.61"/><circle cx="63.00" cy="58.85" r="2.90" fill="hsl(90.6,70%,51%)" opacity="0.53"/><path d="M38.53 21.31 L23.79 27.71 L35.69 25.91 Z" fill="hsl(97.6,70%,65%)" opacity="0.45"/><ellipse cx="16.03" cy="45.57" rx="2.53" ry="5.54" fill="hsl(104.6,60%,69%)" opacity="0.80"/><circle cx="20.81" cy="36.83" r="1.99" fill="hsl(111.6,70%,66%)" opacity="0.81"/><path d="M44.09 5.34 L35.87 1.81 L0.76 30.24 Z" fill="hsl(118.6,70%,75%)" opacity="0.69"/><ellipse cx="38.20" cy="7.77" rx="3.64" ry="1.33" fill="hsl(125.6,60%,55%)" opacity="0.57"/><circle cx="11.56" cy="35.59" r="3.29" fill="hsl(132.6,70%,60%)" opacity="0.83"/><path d="M53.72 52.53 L19.02 33.54 L2.43 26.89 Z" fill="hsl(139.6,70%,77%)" opacity="0.78"/><ellipse cx="44.85" cy="50.55" rx="1.04" ry="1.58" fill="hsl(146.6,60%,46%)" opacity="0.73"/><circle cx="23.98" cy="39.56" r="3.46" fill="hsl(153.6,70%,66%)" opacity="0.55"/><path d="M11.23 40.76 L16.19 11.74 L1.51 9.57 Z" fill="hsl(160.6,70%,61%)" opacity="0.48"/><ellipse cx="35.85" cy="15.06" rx="3.88" ry="2.93" fill="hsl(167.6,60%,69%)" opacity="0.37"/><circle cx="63.98" cy="23.25" r="2.19" fill="hsl(174.6,70%,47%)" opacity="0.87"/><path d="M63.31 48.21 L39.85 55.07 L3.34 21.17 Z" fill="hsl(181.6,70%,74%)" opacity="0.69"/><ellipse cx="22.93" cy="10.85" rx="5.39" ry="2.69" fill="hsl(188.6,60%,43%)" opacity="0.64"/><circle cx="50.53" cy="54.11" r="4.93" fill="hsl(195.6,70%,45%)" opacity="0.51"/><path d="M35.96 43.33 L49.52 49.77 L31.18 21.69 Z" fill="hsl(202.6,70%,49%)" opacity="0.70"/><ellipse cx="22.23" cy="57.22" rx="4.56" ry="5.18" fill="hsl(209.6,60%,66%)" opacity="0.74"/><circle cx="57.31" cy="19.75" r="2.84" fill="hsl(216.6,70%,80%)" opacity="0.75"/><path d="M38.80 25.74 L42.07 32.22 L40.02 16.91 Z" fill="hsl(223.6,70%,54%)" opacity="0.44"/><ellipse cx="21.62" cy="22.14" rx="1.50" ry="2.86" fill="hsl(230.6,60%,55%)" opacity="0.89"/><circle cx="61.48" cy="36.93" r="3.65" fill="hsl(237.6,70%,47%)" opacity="0.99"/><path d="M33.27 25.86 L12.31 6.44 L63.78 38.47 Z" fill="hsl(244.6,70%,76%)" opacity="0.80"/><ellipse cx="16.88" cy="39.50" rx="5.89" ry="5.00" fill="hsl(251.6,60%,61%)" opacity="0.56"/><circle cx="42.08" cy="26.29" r="4.67" fill="hsl(258.6,70%,79%)" opacity="0.65"/><path d="M35.89 29.22 L49.36 51.43 L6.30 30.71 Z" fill="hsl(265.6,70%,76%)" opacity="0.57"/><ellipse cx="4.17" cy="11.44" rx="2.89" ry="2.30" fill="hsl(272.6,60%,57%)" opacity="0.73"/><circle cx="37.91" cy="44.26" r="6.76" fill="hsl(279.6,70%,77%)" opacity="0.64"/><path d="M14.91 38.44 L60.14 3.05 L3.27 44.82 Z" fill="hsl(286.6,70%,62%)" opacity="0.40"/><ellipse cx="14.35" cy="17.46" rx="1.95" ry="3.09" fill="hsl(293.6,60%,62%)" opacity="0.58"/><circle cx="13.68" cy="62.06" r="3.08" fill="hsl(300.6,70%,50%)" opacity="0.63"/><path d="M4.43 21.98 L6.65 15.38 L40.08 61.48 Z" fill="hsl(307.6,70%,59%)" opacity="0.61"/><ellipse cx="9.61" cy="53.11" rx="2.07" ry="2.85" fill="hsl(314.6,60%,59%)" opacity="0.67"/><circle cx="26.35" cy="13.34" r="5.44" fill="hsl(321.6,70%,41%)" opacity="0.51"/><path d="M5.05 40.88 L22.45 26.47 L40.60 35.14 Z" fill="hsl(328.6,70%,59%)" opacity="0.51"/><ellipse cx="39.38" cy="13.06" rx="1.90" ry="1.78" fill="hsl(335.6,60%,45%)" opacity="0.41"/><circle cx="51.20" cy="29.19" r="6.26" fill="hsl(342.6,70%,45%)" opacity="0.44"/><path d="M9.60 46.43 L0.67 26.91 L23.68 5.65 Z" fill="hsl(349.6,70%,70%)" opacity="0.33"/><ellipse cx="18.93" cy="35.68" rx="3.37" ry="4.72" fill="hsl(356.6,60%,37%)" opacity="0.48"/><circle cx="23.19" cy="55.31" r="4.11" fill="hsl(3.6,70%,42%)" opacity="0.48"/><path d="M34.42 35.92 L43.42 8.66 L37.56 29.12 Z" fill="hsl(10.6,70%,54%)" opacity="0.36"/><ellipse cx="42.19" cy="49.04" rx="4.28" ry="4.36" fill="hsl(17.6,60%,77%)" opacity="0.42"/><circle cx="15.39" cy="15.78" r="1.63" fill="hsl(24.6,70%,68%)" opacity="0.90"/><path d="M8.26 39.93 L8.79 43.40 L42.89 23.01 Z" fill="hsl(31.6,70%,50%)" opacity="0.67"/><ellipse cx="57.25" cy="10.82" rx="4.95" ry="2.17" fill="hsl(38.6,60%,37%)" opacity="0.34"/><circle cx="51.74" cy="23.89" r="5.89" fill="hsl(45.6,70%,77%)" opacity="0.87"/><path d="M18.65 20.43 L63.71 60.46 L38.37 0.11 Z" fill="hsl(52.6,70%,60%)" opacity="0.72"/><ellipse cx="4.42" cy="4.63" rx="2.76" ry="2.26" fill="hsl(59.6,60%,49%)" opacity="0.41"/><circle cx="29.15" cy="53.58" r="3.79" fill="hsl(66.6,70%,56%)" opacity="0.62"/><path d="M9.86 25.34 L41.13 15.92 L60.38 44.89 Z" fill="hsl(73.6,70%,53%)" opacity="0.40"/><ellipse cx="52.98" cy="39.91" rx="4.44" ry="4.26" fill="hsl(80.6,60%,71%)" opacity="0.78"/><circle cx="60.68" cy="13.58" r="2.00" fill="hsl(87.6,70%,47%)" opacity="0.83"/><path d="M20.84 50.34 L52.51 53.92 L29.38 52.47 Z" fill="hsl(94.6,70%,46%)" opacity="0.70"/><ellipse cx="50.42" cy="19.93" rx="1.07" ry="2.70" fill="hsl(101.6,60%,61%)" opacity="0.47"/><circle cx="46.44" cy="57.92" r="4.99" fill="hsl(108.6,70%,48%)" opacity="0.80"/><path d="M11.29 57.91 L3.65 19.57 L37.34 17.01 Z" fill="hsl(115.6,70%,47%)" opacity="0.70"/><ellipse cx="49.30" cy="2.56" rx="5.38" ry="2.64" fill="hsl(122.6,60%,48%)" opacity="0.58"/><circle cx="18.12" cy="51.63" r="1.31" fill="hsl(129.6,70%,62%)" opacity="0.99"/><path d="M61.98 16.10 L59.39 31.46 L40.09 54.91 Z" fill="hsl(136.6,70%,45%)" opacity="0.53"/><ellipse cx="40.28" cy="55.67" rx="3.77" ry="2.72" fill="hsl(143.6,60%,36%)" opacity="0.83"/><circle cx="62.02" cy="44.75" r="2.50" fill="hsl(150.6,70%,69%)" opacity="0.62"/><path d="M39.59 31.28 L12.73 34.46 L49.71 26.99 Z" fill="hsl(157.6,70%,45%)" opacity="0.61"/><ellipse cx="5.47" cy="2.77" rx="2.69" ry="3.93" fill="hsl(164.6,60%,38%)" opacity="0.49"/><circle cx="13.47" cy="16.73" r="2.95" fill="hsl(171.6,70%,72%)" opacity="0.96"/><path d="M32.43 50.96 L29.72 39.45 L40.82 38.63 Z" fill="hsl(178.6,70%,56%)" opacity="0.75"/><ellipse cx="0.66" cy="46.30" rx="2.19" ry="4.67" fill="hsl(185.6,60%,64%)" opacity="0.79"/><circle cx="12.07" cy="18.42" r="1.57" fill="hsl(192.6,70%,74%)" opacity="0.58"/><path d="M31.78 3.57 L29.78 15.88 L30.39 21.78 Z" fill="hsl(199.6,70%,47%)" opacity="0.66"/><ellipse cx="47.09" cy="16.12" rx="4.88" ry="2.30" fill="hsl(206.6,60%,43%)" opacity="0.61"/><circle cx="40.20" cy="2.61" r="1.69" fill="hsl(213.6,70%,48%)" opacity="0.86"/><path d="M8.36 54.72 L30.38 55.29 L0.42 39.02 Z" fill="hsl(220.6,70%,73%)" opacity="0.54"/><ellipse cx="29.86" cy="46.81" rx="3.12" ry="2.57" fill="hsl(227.6,60%,46%)" opacity="0.64"/><circle cx="37.39" cy="13.42" r="6.06" fill="hsl(234.6,70%,55%)" opacity="0.66"/><path d="M12.17 40.14 L17.77 28.20 L52.54 57.34 Z" fill="hsl(241.6,70%,75%)" opacity="0.44"/><ellipse cx="37.29" cy="39.81" rx="2.13" ry="1.71" fill="hsl(248.6,60%,41%)" opacity="0.43"/><circle cx="29.16" cy="40.71" r="4.73" fill="hsl(255.6,70%,50%)" opacity="0.85"/><path d="M49.21 23.62 L5.37 55.36 L36.54 44.36 Z" fill="hsl(262.6,70%,79%)" opacity="0.49"/><ellipse cx="40.19" cy="39.78" rx="5.76" ry="1.57" fill="hsl(269.6,60%,48%)" opacity="0.74"/><circle cx="29.01" cy="43.34" r="3.69" fill="hsl(276.6,70%,58%)" opacity="0.90"/><path d="M58.10 15.44 L35.01 59.17 L44.73 56.84 Z" fill="hsl(283.6,70%,61%)" opacity="0.50"/><ellipse cx="37.74" cy="38.19" rx="2.30" ry="3.97" fill="hsl(290.6,60%,77%)" opacity="0.52"/><circle cx="14.27" cy="0.33" r="4.98" fill="hsl(297.6,70%,76%)" opacity="0.85"/><path d="M46.41 56.72 L11.39 33.24 L25.91 55.86 Z" fill="hsl(304.6,70%,47%)" opacity="0.40"/><ellipse cx="36.46" cy="10.62" rx="5.85" ry="4.45" fill="hsl(311.6,60%,52%)" opacity="0.80"/><circle cx="13.40" cy="43.10" r="1.71" fill="hsl(318.6,70%,47%)" opacity="0.69"/><path d="M15.02 6.45 L17.66 18.37 L52.06 41.70 Z" fill="hsl(325.6,70%,54%)" opacity="0.60"/><ellipse cx="51.97" cy="25.47" rx="4.72" ry="1.65" fill="hsl(332.6,60%,58%)" opacity="0.37"/><circle cx="59.72" cy="51.40" r="2.42" fill="hsl(339.6,70%,69%)" opacity="1.00"/><path d="M12.57 48.21 L19.08 23.42 L50.30 35.09 Z" fill="hsl(346.6,70%,42%)" opacity="0.73"/><ellipse cx="18.50" cy="24.33" rx="5.12" ry="1.97" fill="hsl(353.6,60%,58%)" opacity="0.38"/><circle cx="29.03" cy="43.10" r="3.79" fill="hsl(0.6,70%,43%)" opacity="0.98"/><path d="M35.67 35.29 L58.85 40.52 L23.33 17.23 Z" fill="hsl(7.6,70%,52%)" opacity="0.43"/><ellipse cx="15.53" cy="41.63" rx="4.12" ry="1.81" fill="hsl(14.6,60%,78%)" opacity="0.46"/><circle cx="21.26" cy="58.49" r="2.74" fill="hsl(21.6,70%,70%)" opacity="0.44"/><path d="M37.22 49.44 L59.00 22.46 L7.69 10.87 Z" fill="hsl(28.6,70%,48%)" opacity="0.59"/><ellipse cx="18.83" cy="5.27" rx="4.59" ry="4.07" fill="hsl(35.6,60%,37%)" opacity="0.61"/><circle cx="22.56" cy="22.04" r="2.71" fill="hsl(42.6,70%,57%)" opacity="0.81"/><path d="M42.68 43.74 L27.71 28.50 L3.06 40.96 Z" fill="hsl(49.6,70%,56%)" opacity="0.37"/><ellipse cx="40.19" cy="41.27" rx="2.71" ry="4.94" fill="hsl(56.6,60%,49%)" opacity="0.83"/><circle cx="4.35" cy="56.22" r="4.21" fill="hsl(63.6,70%,61%)" opacity="0.65"/><path d="M17.80 26.76 L10.34 60.36 L29.46 48.16 Z" fill="hsl(70.6,70%,53%)" opacity="0.59"/><ellipse cx="14.56" cy="57.68" rx="1.64" ry="3.26" fill="hsl(77.6,60%,37%)" opacity="0.57"/><circle cx="26.78" cy="0.82" r="3.95" fill="hsl(84.6,70%,55%)" opacity="0.88"/><path d="M3.02 26.23 L6.49 43.03 L20.19 58.63 Z" fill="hsl(91.6,70%,55%)" opacity="0.35"/><ellipse cx="54.24" cy="16.43" rx="1.74" ry="1.24" fill="hsl(98.6,60%,42%)" opacity="0.36"/><circle cx="4.23" cy="19.04" r="6.02" fill="hsl(105.6,70%,77%)" opacity="0.75"/><path d="M13.84 30.68 L30.45 26.89 L9.35 40.68 Z" fill="hsl(112.6,70%,56%)" opacity="0.67"/><ellipse cx="58.52" cy="24.44" rx="4.34" ry="1.19" fill="hsl(119.6,60%,80%)" opacity="0.80"/><circle cx="29.38" cy="62.67" r="1.79" fill="hsl(126.6,70%,56%)" opacity="0.53"/><path d="M18.46 36.23 L55.04 30.92 L42.77 6.27 Z" fill="hsl(133.6,70%,58%)" opacity="0.60"/><ellipse cx="26.78" cy="41.39" rx="3.43" ry="2.06" fill="hsl(140.6,60%,79%)" opacity="0.36"/><circle cx="22.45" cy="30.40" r="5.48" fill="hsl(147.6,70%,61%)" opacity="0.88"/><path d="M2.30 57.02 L5.34 53.15 L28.07 58.57 Z" fill="hsl(154.6,70%,50%)" opacity="0.69"/><ellipse cx="34.07" cy="16.25" rx="1.54" ry="1.78" fill="hsl(161.6,60%,74%)" opacity="0.42"/><circle cx="51.03" cy="31.71" r="2.87" fill="hsl(168.6,70%,74%)" opacity="0.74"/><path d="M19.79 15.71 L57.29 54.89 L48.10 12.18 Z" fill="hsl(175.6,70%,62%)" opacity="0.44"/><ellipse cx="45.62" cy="43.58" rx="4.72" ry="4.18" fill="hsl(182.6,60%,52%)" opacity="0.70"/><circle cx="35.48" cy="18.57" r="4.23" fill="hsl(189.6,70%,74%)" opacity="0.67"/><path d="M22.08 5.14 L44.33 43.72 L41.24 36.24 Z" fill="hsl(196.6,70%,44%)" opacity="0.41"/><ellipse cx="34.60" cy="50.18" rx="5.13" ry="4.44" fill="hsl(203.6,60%,71%)" opacity="0.66"/><circle cx="8.88" cy="27.66" r="2.69" fill="hsl(210.6,70%,66%)" opacity="0.76"/><path d="M43.73 0.81 L30.53 40.13 L18.30 5.49 Z" fill="hsl(217.6,70%,60%)" opacity="0.43"/><ellipse cx="39.37" cy="22.57" rx="3.90" ry="3.41" fill="hsl(224.6,60%,61%)" opacity="0.73"/><circle cx="3.60" cy="53.20" r="5.74" fill="hsl(231.6,70%,69%)" opacity="0.99"/><path d="M16.72 30.60 L47.18 25.41 L28.00 30.40 Z" fill="hsl(238.6,70%,64%)" opacity="0.35"/><ellipse cx="59.35" cy="30.75" rx="5.86" ry="2.44" fill="hsl(245.6,60%,80%)" opacity="0.63"/><circle cx="34.13" cy="60.50" r="6.55" fill="hsl(252.6,70%,51%)" opacity="0.80"/><path d="M57.94 10.31 L14.97 34.69 L58.44 36.27 Z" fill="hsl(259.6,70%,70%)" opacity="0.55"/><ellipse cx="10.93" cy="42.71" rx="5.33" ry="2.61" fill="hsl(266.6,60%,42%)" opacity="0.73"/><circle cx="8.24" cy="33.98" r="4.88" fill="hsl(273.6,70%,75%)" opacity="0.85"/><path d="M13.65 28.99 L54.01 0.45 L43.96 63.16 Z" fill="hsl(280.6,70%,70%)" opacity="0.33"/><ellipse cx="0.61" cy="51.84" rx="2.33" ry="3.99" fill="hsl(287.6,60%,51%)" opacity="0.88"/><circle cx="0.85" cy="53.51" r="4.50" fill="hsl(294.6,70%,56%)" opacity="0.92"/><path d="M61.65 38.39 L1.82 47.92 L61.62 19.94 Z" fill="hsl(301.6,70%,48%)" opacity="0.79"/><ellipse cx="21.55" cy="17.25" rx="3.42" ry="2.15" fill="hsl(308.6,60%,49%)" opacity="0.50"/><circle cx="13.67" cy="44.79" r="3.97" fill="hsl(315.6,70%,75%)" opacity="0.50"/><path d="M5.85 58.76 L36.36 9.87 L26.75 12.69 Z" fill="hsl(322.6,70%,55%)" opacity="0.65"/><ellipse cx="51.14" cy="7.26" rx="4.26" ry="4.81" fill="hsl(329.6,60%,67%)" opacity="0.72"/><circle cx="34.83" cy="23.98" r="3.71" fill="hsl(336.6,70%,76%)" opacity="0.73"/><path d="M42.90 37.28 L18.18 32.19 L32.08 56.05 Z" fill="hsl(343.6,70%,51%)" opacity="0.35"/><ellipse cx="52.45" cy="56.60" rx="5.71" ry="4.68" fill="hsl(350.6,60%,52%)" opacity="0.33"/><circle cx="35.88" cy="18.48" r="3.71" fill="hsl(357.6,70%,49%)" opacity="0.41"/><path d="M6.61 49.58 L52.97 1.48 L24.30 41.98 Z" fill="hsl(4.6,70%,43%)" opacity="0.78"/><ellipse cx="38.92" cy="6.09" rx="5.89" ry="2.36" fill="hsl(11.6,60%,73%)" opacity="0.59"/><circle cx="10.92" cy="10.76" r="6.91" fill="hsl(18.6,70%,77%)" opacity="0.72"/><path d="M58.56 9.46 L38.38 23.36 L55.08 6.43 Z" fill="hsl(25.6,70%,53%)" opacity="0.55"/><ellipse cx="13.57" cy="13.07" rx="3.84" ry="4.08" fill="hsl(32.6,60%,79%)" opacity="0.40"/><circle cx="31.96" cy="47.12" r="5.73" fill="hsl(39.6,70%,74%)" opacity="0.76"/><path d="M26.31 16.65 L48.61 13.85 L23.07 26.90 Z" fill="hsl(46.6,70%,79%)" opacity="0.77"/><ellipse cx="29.21" cy="12.92" rx="4.36" ry="4.28" fill="hsl(53.6,60%,48%)" opacity="0.83"/><circle cx="33.41" cy="49.55" r="5.12" fill="hsl(60.6,70%,51%)" opacity="0.73"/><path d="M55.84 8.00 L54.83 19.23 L48.34 37.74 Z" fill="hsl(67.6,70%,44%)" opacity="0.48"/><ellipse cx="52.18" cy="31.39" rx="5.48" ry="4.00" fill="hsl(74.6,60%,35%)" opacity="0.80"/><circle cx="41.73" cy="42.89" r="6.43" fill="hsl(81.6,70%,58%)" opacity="0.68"/><path d="M40.05 47.05 L14.83 39.29 L46.38 11.57 Z" fill="hsl(88.6,70%,59%)" opacity="0.32"/><ellipse cx="47.30" cy="29.02" rx="5.87" ry="4.76" fill="hsl(95.6,60%,51%)" opacity="0.90"/><circle cx="29.48" cy="15.67" r="4.10" fill="hsl(102.6,70%,66%)" opacity="0.54"/><path d="M21.90 45.07 L19.67 24.57 L6.53 39.66 Z" fill="hsl(109.6,70%,47%)" opacity="0.30"/><ellipse cx="43.65" cy="45.73" rx="3.35" ry="5.82" fill="hsl(116.6,60%,48%)" opacity="0.58"/><circle cx="62.36" cy="23.44" r="4.89" fill="hsl(123.6,70%,60%)" opacity="0.80"/><path d="M52.11 33.19 L48.96 40.86 L59.45 21.01 Z" fill="hsl(130.6,70%,60%)" opacity="0.72"/><ellipse cx="54.74" cy="57.11" rx="4.73" ry="2.62" fill="hsl(137.6,60%,66%)" opacity="0.72"/><circle cx="26.08" cy="12.88" r="1.23" fill="hsl(144.6,70%,57%)" opacity="0.61"/><path d="M20.03 10.15 L26.80 62.11 L23.00 24.82 Z" fill="hsl(151.6,70%,62%)" opacity="0.37"/><ellipse cx="8.50" cy="51.71" rx="3.83" ry="3.90" fill="hsl(158.6,60%,76%)" opacity="0.51"/><circle cx="46.39" cy="1.26" r="2.33" fill="hsl(165.6,70%,73%)" opacity="0.75"/><path d="M42.24 41.14 L31.31 5.15 L53.17 10.60 Z" fill="hsl(172.6,70%,48%)" opacity="0.41"/><ellipse cx="56.89" cy="23.25" rx="3.02" ry="1.75" fill="hsl(179.6,60%,66%)" opacity="0.60"/><circle cx="7.42" cy="28.56" r="2.31" fill="hsl(186.6,70%,46%)" opacity="0.45"/><path d="M41.66 12.08 L5.30 37.29 L41.01 45.88 Z" fill="hsl(193.6,70%,53%)" opacity="0.53"/><ellipse cx="20.86" cy="24.04" rx="5.92" ry="3.68" fill="hsl(200.6,60%,63%)" opacity="0.43"/><circle cx="53.63" cy="23.74" r="6.14" fill="hsl(207.6,70%,63%)" opacity="0.40"/><path d="M6.97 57.49 L49.23 19.23 L48.42 53.08 Z" fill="hsl(214.6,70%,80%)" opacity="0.66"/><ellipse cx="17.53" cy="55.31" rx="5.72" ry="4.03" fill="hsl(221.6,60%,44%)" opacity="0.76"/><circle cx="9.76" cy="5.57" r="5.77" fill="hsl(228.6,70%,47%)" opacity="0.93"/><path d="M2.17 51.76 L16.34 10.16 L38.33 30.96 Z" fill="hsl(235.6,70%,42%)" opacity="0.43"/><ellipse cx="61.96" cy="21.57" rx="1.16" ry="4.61" fill="hsl(242.6,60%,38%)" opacity="0.76"/><circle cx="51.71" cy="55.83" r="1.96" fill="hsl(249.6,70%,68%)" opacity="0.57"/><path d="M2.91 54.03 L38.90 18.43 L21.26 36.03 Z" fill="hsl(256.6,70%,71%)" opacity="0.73"/><ellipse cx="32.44" cy="51.13" rx="4.13" ry="3.23" fill="hsl(263.6,60%,47%)" opacity="0.73"/><circle cx="27.59" cy="45.60" r="1.89" fill="hsl(270.6,70%,65%)" opacity="0.81"/><path d="M62.47 35.66 L46.34 3.33 L11.92 62.91 Z" fill="hsl(277.6,70%,76%)" opacity="0.64"/><ellipse cx="0.50" cy="14.41" rx="4.66" ry="1.91" fill="hsl(284.6,60%,61%)" opacity="0.37"/><circle cx="39.73" cy="42.95" r="6.09" fill="hsl(291.6,70%,51%)" opacity="0.43"/><path d="M38.47 40.81 L43.74 16.80 L21.60 51.42 Z" fill="hsl(298.6,70%,50%)" opacity="0.68"/><ellipse cx="43.04" cy="10.40" rx="3.88" ry="3.67" fill="hsl(305.6,60%,68%)" opacity="0.33"/><circle cx="40.12" cy="59.96" r="1.05" fill="hsl(312.6,70%,67%)" opacity="0.41"/><path d="M35.90 24.05 L36.99 3.70 L28.29 28.83 Z" fill="hsl(319.6,70%,43%)" opacity="0.76"/><ellipse cx="45.07" cy="38.09" rx="1.96" ry="2.82" fill="hsl(326.6,60%,44%)" opacity="0.51"/><circle cx="36.19" cy="4.24" r="6.48" fill="hsl(333.6,70%,51%)" opacity="0.75"/></svg>