<svg xmlns="http://www.w3.org/2000/svg" width="64" height="64" viewBox="0 0 64 64"><rect width="64" height="64" rx="8" fill="hsl(313.2,65%,45%)"/><circle cx="32.92" cy="25.85" r="3.64" fill="hsl(313.2,70%,50%)" opacity="0.94"/><path d="M30.61 53.01 L28.02 48.98 L53.11 36.59 Z" fill="hsl(320.2,70%,57%)" opacity="0.30"/><ellipse cx="18.57" cy="60.50" rx="1.86" ry="4.36" fill="hsl(327.2,60%,45%)" opacity="0.76"/><circle cx="22.61" cy="46.42" r="4.92" fill="hsl(334.2,70%,65%)" opacity="0.84"/><path d="M19.45 31.09 L19.22 23.82 L59.36 23.28 Z" fill="hsl(341.2,70%,50%)" opacity="0.50"/><ellipse cx="1.87" cy="49.06" rx="2.53" ry="1.80" fill="hsl(348.2,60%,63%)" opacity="0.52"/><circle cx="3.93" cy="48.92" r="1.97" fill="hsl(355.2,70%,74%)" opacity="0.63"/><path d="M27.65 45.15 L33.57 8.55 L9.59 10.40 Z" fill="hsl(2.2,70%,70%)" opacity="0.41"/><ellipse cx="32.93" cy="7.44" rx="4.32" ry="2.14" fill="hsl(9.2,60%,72%)" opacity="0.55"/><circle cx="52.39" cy="25.21" r="5.23" fill="hsl(16.2,70%,68%)" opacity="0.99"/><path d="M53.34 63.40 L34.18 57.43 L3.38 29.14 Z" fill="hsl(23.2,70%,63%)" opacity="0.68"/><ellipse cx="14.40" cy="44.54" rx="2.47" ry="1.01" fill="hsl(30.2,60%,73%)" opacity="0.52"/><circle cx="63.74" cy="21.27" r="4.54" fill="hsl(37.2,70%,56%)" opacity="0.43"/><path d="M13.92 47.63 L0.92 56.33 L26.52 13.74 Z" fill="hsl(44.2,70%,61%)" opacity="0.69"/><ellipse cx="59.15" cy="8.65" rx="3.60" ry="5.32" fill="hsl(51.2,60%,70%)" opacity="0.75"/><circle cx="40.38" cy="40.57" r="3.06" fill="hsl(58.2,70%,69%)" opacity="0.42"/><path d="M57.41 9.89 L31.04 37.12 L7.55 24.88 Z" fill="hsl(65.2,70%,70%)" opacity="0.78"/><ellipse cx="26.84" cy="33.58" rx="4.97" ry="3.07" fill="hsl(72.2,60%,70%)" opacity="0.80"/><circle cx="0.96" cy="62.67" r="1.60" fill="hsl(79.2,70%,67%)" opacity="0.71"/><path d="M4.27 27.20 L50.17 13.79 L63.85 8.64 Z" fill="hsl(86.2,70%,43%)" opacity="0.53"/><ellipse cx="56.52" cy="4.71" rx="3.40" ry="1.88" fill="hsl(93.2,60%,69%)" opacity="0.36"/><circle cx="5.43" cy="1.51" r="6.80" fill="hsl(100.2,70%,49%)" opacity="0.64"/><path d="M12.99 20.97 L26.54 31.43 L47.91 20.82 Z" fill="hsl(107.2,70%,75%)" opacity="0.62"/><ellipse cx="31.35" cy="31.29" rx="2.25" ry="2.39" fill="hsl(114.2,60%,38%)" opacity="0.80"/><circle cx="1.07" cy="45.22" r="4.55" fill="hsl(121.2,70%,71%)" opacity="0.49"/><path d="M50.83 63.87 L0.80 47.31 L32.82 61.40 Z" fill="hsl(128.2,70%,56%)" opacity="0.37"/><ellipse cx="12.47" cy="2.42" rx="4.05" ry="5.23" fill="hsl(135.2,60%,68%)" opacity="0.62"/><circle cx="6.72" cy="19.90" r="2.19" fill="hsl(142.2,70%,79%)" opacity="0.41"/><path d="M4.71 31.89 L24.80 36.89 L12.45 10.38 Z" fill="hsl(149.2,70%,73%)" opacity="0.52"/><ellipse cx="54.82" cy="21.09" rx="3.44" ry="5.56" fill="hsl(156.2,60%,55%)" opacity="0.58"/><circle cx="55.70" cy="63.18" r="4.94" fill="hsl(163.2,70%,59%)" opacity="0.66"/><path d="M48.88 17.85 L12.68 47.41 L29.85 54.94 Z" fill="hsl(170.2,70%,59%)" opacity="0.47"/><ellipse cx="22.06" cy="21.00" rx="1.97" ry="3.36" fill="hsl(177.2,60%,37%)" opacity="0.43"/><circle cx="7.22" cy="44.34" r="2.36" fill="hsl(184.2,70%,48%)" opacity="0.60"/><path d="M47.46 43.56 L56.90 39.59 L25.08 61.95 Z" fill="hsl(191.2,70%,57%)" opacity="0.38"/><ellipse cx="7.48" cy="30.65" rx="5.97" ry="2.08" fill="hsl(198.2,60%,68%)" opacity="0.62"/><circle cx="15.95" cy="56.71" r="3.17" fill="hsl(205.2,70%,68%)" opacity="0.87"/><path d="M62.87 31.59 L35.82 36.89 L38.31 52.13 Z" fill="hsl(212.2,70%,67%)" opacity="0.45"/><ellipse cx="0.30" cy="9.95" rx="2.91" ry="5.38" fill="hsl(219.2,60%,73%)" opacity="0.80"/><circle cx="37.06" cy="44.75" r="6.20" fill="hsl(226.2,70%,42%)" opacity="0.96"/><path d="M26.68 34.71 L18.61 55.18 L3.80 27.96 Z" fill="hsl(233.2,70%,68%)" opacity="0.49"/><ellipse cx="8.57" cy="8.23" rx="1.72" ry="4.30" fill="hsl(240.2,60%,69%)" opacity="0.88"/><circle cx="8.93" cy="45.86" r="1.34" fill="hsl(247.2,70%,45%)" opacity="0.43"/><path d="M58.64 27.43 L33.65 18.66 L59.51 18.97 Z" fill="hsl(254.2,70%,76%)" opacity="0.34"/><ellipse cx="22.13" cy="32.82" rx="4.48" ry="3.52" fill="hsl(261.2,60%,45%)" opacity="0.65"/><circle cx="54.83" cy="29.47" r="2.29" fill="hsl(268.2,70%,52%)" opacity="0.79"/><path d="M2.38 60.07 L26.51 55.91 L22.18 59.35 Z" fill="hsl(275.2,70%,64%)" opacity="0.54"/><ellipse cx="43.28" cy="15.04" rx="4.31" ry="1.13" fill="hsl(282.2,60%,70%)" opacity="0.55"/><circle cx="57.00" cy="54.82" r="3.29" fill="hsl(289.2,70%,69%)" opacity="0.92"/><path d="M44.13 33.79 L25.51 12.56 L3.66 1.03 Z" fill="hsl(296.2,70%,71%)" opacity="0.32"/><ellipse cx="58.87" cy="13.43" rx="2.59" ry="2.52" fill="hsl(303.2,60%,44%)" opacity="0.37"/><circle cx="48.60" cy="61.61" r="1.88" fill="hsl(310.2,70%,50%)" opacity="0.56"/><path d="M45.84 54.68 L49.39 63.20 L11.09 11.87 Z" fill="hsl(317.2,70%,42%)" opacity="0.59"/><ellipse cx="5.72" cy="0.35" rx="3.37" ry="3.73" fill="hsl(324.2,60%,54%)" opacity="0.63"/><circle cx="11.65" cy="22.91" r="2.54" fill="hsl(331.2,70%,49%)" opacity="0.49"/><path d="M58.28 47.94 L8.27 40.89 L41.93 51.41 Z" fill="hsl(338.2,70%,50%)" opacity="0.37"/><ellipse cx="24.03" cy="2.68" rx="1.26" ry="1.68" fill="hsl(345.2,60%,64%)" opacity="0.43"/><circle cx="51.65" cy="23.02" r="2.80" fill="hsl(352.2,70%,51%)" opacity="0.42"/><path d="M31.95 31.33 L36.79 51.78 L24.40 10.52 Z" fill="hsl(359.2,70%,47%)" opacity="0.75"/><ellipse cx="6.46" cy="3.08" rx="5.20" ry="5.06" fill="hsl(6.2,60%,67%)" opacity="0.56"/><circle cx="37.26" cy="29.43" r="3.18" fill="hsl(13.2,70%,57%)" opacity="0.80"/><path d="M51.92 3.10 L16.97 19.54 L49.50 20.46 Z" fill="hsl(20.2,70%,50%)" opacity="0.70"/><ellipse cx="22.45" cy="40.93" rx="5.76" ry="3.49" fill="hsl(27.2,60%,61%)" opacity="0.45"/><circle cx="58.92" cy="2.41" r="6.59" fill="hsl(34.2,70%,67%)" opacity="0.57"/><path d="M43.80 10.13 L22.33 31.72 L47.20 47.68 Z" fill="hsl(41.2,70%,72%)" opacity="0.61"/><ellipse cx="19.13" cy="29.76" rx="3.56" ry="3.42" fill="hsl(48.2,60%,76%)" opacity="0.73"/><circle cx="35.00" cy="55.02" r="5.78" fill="hsl(55.2,70%,63%)" opacity="0.47"/><path d="M28.32 53.38 L53.37 4.87 L11.11 21.05 Z" fill="hsl(62.2,70%,57%)" opacity="0.76"/><ellipse cx="23.82" cy="19.77" rx="5.33" ry="4.58" fill="hsl(69.2,60%,59%)" opacity="0.89"/><circle cx="58.28" cy="0.41" r="6.59" fill="hsl(76.2,70%,55%)" opacity="0.57"/><path d="M47.05 9.49 L35.14 17.69 L47.04 29.40 Z" fill="hsl(83.2,70%,67%)" opacity="0.60"/><ellipse cx="7.41" cy="34.78" rx="5.76" ry="4.89" fill="hsl(90.2,60%,74%)" opacity="0.79"/><circle cx="20.05" cy="59.71" r="3.40" fill="hsl(97.2,70%,66%)" opacity="0.46"/><path d="M46.24 44.85 L2.50 23.06 L59.81 38.24 Z" fill="hsl(104.2,70%,63%)" opacity="0.51"/><ellipse cx="49.62" cy="10.81" rx="4.94" ry="5.12" fill="hsl(111.2,60%,37%)" opacity="0.39"/><circle cx="12.81" cy="55.86" r="4.62" fill="hsl(118.2,70%,48%)" opacity="0.78"/><path d="M16.33 62.59 L63.83 41.84 L38.08 52.40 Z" fill="hsl(125.2,70%,78%)" opacity="0.38"/><ellipse cx="56.22" cy="41.74" rx="4.04" ry="3.62" fill="hsl(132.2,60%,37%)" opacity="0.44"/><circle cx="14.83" cy="52.45" r="2.83" fill="hsl(139.2,70%,51%)" opacity="0.52"/><path d="M59.55 50.22 L29.30 60.69 L44.83 50.86 Z" fill="hsl(146.2,70%,76%)" opacity="0.77"/><ellipse cx="24.66" cy="44.85" rx="4.67" ry="3.81" fill="hsl(153.2,60%,36%)" opacity="0.35"/><circle cx="9.16" cy="12.78" r="3.89" fill="hsl(160.2,70%,78%)" opacity="0.51"/><path d="M43.93 28.71 L51.82 20.75 L61.47 24.52 Z" fill="hsl(167.2,70%,52%)" opacity="0.45"/><ellipse cx="45.27" cy="20.14" rx="2.97" ry="5.47" fill="hsl(174.2,60%,42%)" opacity="0.38"/><circle cx="14.99" cy="47.49" r="3.83" fill="hsl(181.2,70%,60%)" opacity="0.78"/><path d="M9.03 13.64 L49.42 22.69 L34.14 2.41 Z" fill="hsl(188.2,70%,52%)" opacity="0.68"/><ellipse cx="15.45" cy="31.76" rx="2.35" ry="4.00" fill="hsl(195.2,60%,55%)" opacity="0.60"/><circle cx="56.46" cy="1.79" r="4.66" fill="hsl(202.2,70%,79%)" opacity="0.56"/><path d="M56.44 50.73 L53.07 53.04 L1.52 36.32 Z" fill="hsl(209.2,70%,76%)" opacity="0.63"/><ellipse cx="20.44" cy="31.35" rx="5.40" ry="2.30" fill="hsl(216.2,60%,50%)" opacity="0.49"/><circle cx="25.80" cy="56.42" r="1.28" fill="hsl(223.2,70%,58%)" opacity="0.60"/><path d="M56.84 60.93 L15.53 27.28 L13.92 36.29 Z" fill="hsl(230.2,70%,50%)" opacity="0.68"/><ellipse cx="54.56" cy="6.09" rx="3.49" ry="3.39" fill="hsl(237.2,60%,66%)" opacity="0.71"/><circle cx="13.99" cy="52.11" r="3.22" fill="hsl(244.2,70%,69%)" opacity="0.96"/><path d="M36.43 58.13 L62.88 41.05 L21.44 12.44 Z" fill="hsl(251.2,70%,62%)" opacity="0.47"/><ellipse cx="11.53" cy="44.01" rx="5.39" ry="3.47" fill="hsl(258.2,60%,65%)" opacity="0.84"/><circle cx="34.92" cy="60.42" r="2.77" fill="hsl(265.2,70%,59%)" opacity="0.54"/><path d="M22.26 58.49 L61.25 13.67 L19.62 31.66 Z" fill="hsl(272.2,70%,63%)" opacity="0.56"/><ellipse cx="40.50" cy="25.27" rx="4.23" ry="1.89" fill="hsl(279.2,60%,56%)" opacity="0.37"/><circle cx="17.98" cy="35.65" r="2.29" fill="hsl(286.2,70%,40%)" opacity="0.86"/><path d="M32.43 28.13 L31.10 39.56 L53.97 17.81 Z" fill="hsl(293.2,70%,71%)" opacity="0.37"/><ellipse cx="33.79" cy="62.16" rx="1.86" ry="1.69" fill="hsl(300.2,60%,51%)" opacity="0.61"/><circle cx="24.05" cy="63.74" r="2.35" fill="hsl(307.2,70%,67%)" opacity="0.62"/><path d="M23.29 3.53 L43.17 52.44 L4.81 12.42 Z" fill="hsl(314.2,70%,58%)" opacity="0.43"/><ellipse cx="6.32" cy="49.05" rx="2.53" ry="1.45" fill="hsl(321.2,60%,63%)" opacity="0.39"/><circle cx="11.11" cy="33.77" r="4.32" fill="hsl(328.2,70%,73%)" opacity="0.99"/><path d="M58.76 8.21 L2.24 49.79 L57.17 17.45 Z" fill="hsl(335.2,70%,46%)" opacity="0.63"/><ellipse cx="38.18" cy="62.27" rx="4.08" ry="3.95" fill="hsl(342.2,60%,65%)" opacity="0.83"/><circle cx="57.04" cy="35.90" r="6.11" fill="hsl(349.2,70%,71%)" opacity="0.84"/><path d="M63.88 27.65 L41.25 46.42 L5.83 50.18 Z" fill="hsl(356.2,70%,64%)" opacity="0.32"/><ellipse cx="27.54" cy="49.78" rx="5.13" ry="4.01" fill="hsl(3.2,60%,50%)" opacity="0.82"/><circle cx="5.17" cy="21.97" r="4.88" fill="hsl(10.2,70%,42%)" opacity="0.93"/><path d="M8.21 47.91 L2.52 6.06 L32.46 21.79 Z" fill="hsl(17.2,70%,51%)" opacity="0.53"/><ellipse cx="31.41" cy="5.63" rx="4.85" ry="3.77" fill="hsl(24.2,60%,75%)" opacity="0.34"/><circle cx="57.45" cy="9.88" r="6.63" fill="hsl(31.2,70%,73%)" opacity="0.59"/><path d="M51.61 22.22 L27.21 62.40 L14.40 53.39 Z" fill="hsl(38.2,70%,69%)" opacity="0.76"/><ellipse cx="58.84" cy="55.67" rx="4.43" ry="1.22" fill="hsl(45.2,60%,77%)" opacity="0.46"/><circle cx="51.48" cy="11.69" r="5.62" fill="hsl(52.2,70%,67%)" opacity="0.74"/><path d="M17.86 53.32 L13.70 40.25 L23.78 60.68 Z" fill="hsl(59.2,70%,76%)" opacity="0.50"/><ellipse cx="41.46" cy="52.31" rx="2.51" ry="5.13" fill="hsl(66.2,60%,76%)" opacity="0.58"/><circle cx="59.01" cy="44.91" r="1.74" fill="hsl(73.2,70%,80%)" opacity="0.45"/><path d="M0.48 55.81 L17.20 11.04 L53.43 62.19 Z" fill="hsl(80.2,70%,54%)" opacity="0.75"/><ellipse cx="61.16" cy="33.33" rx="4.07" ry="3.47" fill="hsl(87.2,60%,44%)" opacity="0.36"/><circle cx="15.67" cy="19.99" r="1.81" fill="hsl(94.2,70%,79%)" opacity="0.51"/><path d="M8.46 41.09 L28.68 49.65 L6.48 33.06 Z" fill="hsl(101.2,70%,73%)" opacity="0.32"/><ellipse cx="15.16" cy="8.43" rx="3.46" ry="5.05" fill="hsl(108.2,60%,70%)" opacity="0.72"/><circle cx="2.36" cy="29.22" r="6.70" fill="hsl(115.2,70%,74%)" opacity="0.85"/><path d="M61.92 48.10 L25.62 36.08 L28.25 2.71 Z" fill="hsl(122.2,70%,63%)" opacity="0.48"/><ellipse cx="22.78" cy="59.35" rx="1.69" ry="2.89" fill="hsl(129.2,60%,43%)" opacity="0.37"/><circle cx="12.65" cy="53.13" r="1.75" fill="hsl(136.2,70%,41%)" opacity="0.63"/><path d="M22.34 13.69 L26.09 58.56 L39.50 53.44 Z" fill="hsl(143.2,70%,51%)" opacity="0.74"/><ellipse cx="16.14" cy="32.89" rx="1.20" ry="2.77" fill="hsl(150.2,60%,36%)" opacity="0.69"/><circle cx="61.19" cy="26.53" r="6.02" fill="hsl(157.2,70%,51%)" opacity="1.00"/><path d="M15.84 1.00 L18.50 5.85 L47.64 60.94 Z" fill="hsl(164.2,70%,63%)" opacity="0.56"/><ellipse cx="21.20" cy="5.80" rx="5.56" ry="1.54" fill="hsl(171.2,60%,79%)" opacity="0.74"/><circle cx="54.39" cy="12.26" r="4.48" fill="hsl(178.2,70%,52%)" opacity="0.80"/><path d="M52.01 11.81 L55.53 11.17 L27.09 47.51 Z" fill="hsl(185.2,70%,50%)" opacity="0.37"/><ellipse cx="1.38" cy="22.54" rx="5.41" ry="2.63" fill="hsl(192.2,60%,66%)" opacity="0.42"/><circle cx="13.99" cy="39.68" r="5.36" fill="hsl(199.2,70%,66%)" opacity="0.73"/><path d="M44.78 8.94 L8.27 18.72 L9.05 53.73 Z" fill="hsl(206.2,70%,78%)" opacity="0.45"/><ellipse cx="1.47" cy="63.10" rx="5.91" ry="4.02" fill="hsl(213.2,60%,51%)" opacity="0.59"/><circle cx="53.47" cy="47.93" r="6.25" fill="hsl(220.2,70%,49%)" opacity="0.56"/><path d="M38.92 11.66 L54.48 41.33 L16.27 1.94 Z" fill="hsl(227.2,70%,42%)" opacity="0.65"/><ellipse cx="27.38" cy="24.18" rx="4.25" ry="1.45" fill="hsl(234.2,60%,59%)" opacity="0.66"/><circle cx="57.85" cy="32.40" r="2.58" fill="hsl(241.2,70%,71%)" opacity="0.44"/><path d="M2.27 21.98 L0.66 53.07 L19.49 55.36 Z" fill="hsl(248.2,70%,56%)" opacity="0.45"/><ellipse cx="40.93" cy="17.71" rx="4.79" ry="4.45" fill="hsl(255.2,60%,36%)" opacity="0.34"/><circle cx="29.24" cy="47.33" r="5.83" fill="hsl(262.2,70%,61%)" opacity="0.41"/><path d="M48.21 20.38 L22.93 2.84 L35.88 60.02 Z" fill="hsl(269.2,70%,72%)" opacity="0.31"/><ellipse cx="57.62" cy="13.13" rx="3.99" ry="4.47" fill="hsl(276.2,60%,35%)" opacity="0.31"/><circle cx="13.34" cy="18.69" r="3.40" fill="hsl(283.2,70%,42%)" opacity="0.81"/><path d="M48.55 10.97 L62.61 22.25 L42.49 15.17 Z" fill="hsl(290.2,70%,76%)" opacity="0.47"/><ellipse cx="38.15" cy="23.73" rx="3.10" ry="2.45" fill="hsl(297.2,60%,40%)" opacity="0.30"/><circle cx="0.57" cy="63.39" r="4.33" fill="hsl(304.2,70%,42%)" opacity="0.76"/><path d="M47.52 25.24 L22.46 51.00 L41.98 50.22 Z" fill="hsl(311.2,70%,52%)" opacity="0.69"/><ellipse cx="15.15" cy="35.27" rx="1.09" ry="1.47" fill="hsl(318.2,60%,76%)" opacity="0.81"/><circle cx="56.52" cy="51.92" r="3.24" fill="hsl(325.2,70%,46%)" opacity="0.64"/><path d="M41.77 59.26 L11.99 52.50 L9.96 9.17 Z" fill="hsl(332.2,70%,54%)" opacity="0.65"/><ellipse cx="1.09" cy="36.53" rx="2.49" ry="4.12" fill="hsl(339.2,60%,39%)" opacity="0.48"/><circle cx="56.20" cy="39.55" r="5.08" fill="hsl(346.2,70%,62%)" opacity="0.91"/><path d="M63.38 17.11 L50.56 43.15 L41.20 36.31 Z" fill="hsl(353.2,70%,67%)" opacity="0.57"/><ellipse cx="7.48" cy="43.27" rx="2.42" ry="3.19" fill="hsl(0.2,60%,74%)" opacity="0.79"/><circle cx="5.67" cy="49.37" r="4.33" fill="hsl(7.2,70%,70%)" opacity="0.83"/><path d="M62.10 23.80 L59.23 39.11 L7.31 40.68 Z" fill="hsl(14.2,70%,78%)" opacity="0.75"/><ellipse cx="20.53" cy="13.09" rx="1.41" ry="2.03" fill="hsl(21.2,60%,65%)" opacity="0.58"/><circle cx="33.77" cy="15.69" r="5.50" fill="hsl(28.2,70%,75%)" opacity="0.99"/><path d="M25.82 9.96 L28.40 44.08 L33.31 32.53 Z" fill="hsl(35.2,70%,58%)" opacity="0.71"/><ellipse cx="54.23" cy="53.89" rx="3.15" ry="1.24" fill="hsl(42.2,60%,63%)" opacity="0.55"/><circle cx="12.41" cy="41.26" r="6.33" fill="hsl(49.2,70%,52%)" opacity="0.62"/><path d="M23.97 30.61 L17.69 48.28 L3.82 15.68 Z" fill="hsl(56.2,70%,78%)" opacity="0.56"/><ellipse cx="42.74" cy="63.68" rx="1.36" ry="5.80" fill="hsl(63.2,60%,42%)" opacity="0.73"/><circle cx="28.71" cy="20.86" r="4.26" fill="hsl(70.2,70%,42%)" opacity="0.40"/><path d="M8.32 53.96 L63.45 54.16 L44.32 59.44 Z" fill="hsl(77.2,70%,61%)" opacity="0.47"/><ellipse cx="62.47" cy="26.48" rx="3.23" ry="4.00" fill="hsl(84.2,60%,78%)" opacity="0.35"/><circle cx="33.53" cy="0.18" r="1.31" fill="hsl(91.2,70%,60%)" opacity="0.46"/><path d="M23.81 23.33 L56.16 28.66 L8.77 49.48 Z" fill="hsl(98.2,70%,50%)" opacity="0.58"/><ellipse cx="41.68" cy="7.44" rx="3.56" ry="2.63" fill="hsl(105.2,60%,48%)" opacity="0.90"/><circle cx="61.18" cy="4.85" r="2.10" fill="hsl(112.2,70%,79%)" opacity="0.63"/><path d="M6.46 36.08 L10.92 51.19 L38.00 13.91 Z" fill="hsl(119.2,70%,59%)" opacity="0.48"/><ellipse cx="0.69" cy="29.45" rx="1.11" ry="1.49" fill="hsl(126.2,60%,78%)" opacity="0.64"/><circle cx="36.78" cy="27.22" r="1.17" fill="hsl(133.2,70%,66%)" opacity="0.90"/><path d="M47.93 8.18 L28.22 3.69 L28.39 23.04 Z" fill="hsl(140.2,70%,57%)" opacity="0.45"/><ellipse cx="1.88" cy="26.93" rx="2.04" ry="2.62" fill="hsl(147.2,60%,55%)" opacity="0.31"/><circle cx="10.31" cy="55.72" r="5.19" fill="hsl(154.2,70%,76%)" opacity="0.88"/><path d="M53.90 8.98 L27.98 20.00 L46.68 26.28 Z" fill="hsl(161.2,70%,71%)" opacity="0.35"/><ellipse cx="7.99" cy="42.06" rx="1.87" ry="3.44" fill="hsl(168.2,60%,50%)" opacity="0.57"/><circle cx="55.39" cy="60.69" r="2.71" fill="hsl(175.2,70%,71%)" opacity="0.79"/><path d="M11.83 27.82 L49.09 7.19 L14.39 9.07 Z" fill="hsl(182.2,70%,52%)" opacity="0.79"/><ellipse cx="24.19" cy="51.80" rx="2.66" ry="2.09" fill="hsl(189.2,60%,56%)" opacity="0.84"/><circle cx="55.16" cy="52.28" r="6.56" fill="hsl(196.2,70%,55%)" opacity="0.88"/><path d="M17.77 32.07 L24.28 63.86 L21.87 50.13 Z" fill="hsl(203.2,70%,41%)" opacity="0.55"/><ellipse cx="32.08" cy="48.43" rx="5.10" ry="3.46" fill="hsl(210.2,60%,45%)" opacity="0.31"/><circle cx="58.52" cy="44.86" r="1.01" fill="hsl(217.2,70%,60%)" opacity="0.54"/><path d="M6.72 44.14 L42.96 23.11 L16.07 41.08 Z" fill="hsl(224.2,70%,71%)" opacity="0.48"/><ellipse cx="36.95" cy="43.48" rx="2.86" ry="2.62" fill="hsl(231.2,60%,56%)" opacity="0.86"/><circle cx="17.67" cy="5.99" r="6.70" fill="hsl(238.2,70%,40%)" opacity="0.90"/><path d="M25.68 22.66 L1.50 57.81 L37.25 12.73 Z" fill="hsl(245.2,70%,64%)" opacity="0.36"/><ellipse cx="26.32" cy="12.23" rx="4.54" ry="2.14" fill="hsl(252.2,60%,72%)" opacity="0.41"/><circle cx="56.78" cy="44.84" r="4.24" fill="hsl(259.2,70%,53%)" opacity="0.73"/><path d="M46.77 53.90 L58.26 4.45 L27.03 2.94 Z" fill="hsl(266.2,70%,57%)" opacity="0.30"/><ellipse cx="54.69" cy="26.42" rx="1.47" ry="4.21" fill="hsl(273.2,60%,42%)" opacity="0.61"/><circle cx="52.16" cy="43.91" r="6.27" fill="hsl(280.2,70%,55%)" opacity="0.43"/><path d="M55.03 21.42 L46.92 27.23 L39.21 37.95 Z" fill="hsl(287.2,70%,59%)" opacity="0.75"/><ellipse cx="20.02" cy="21.06" rx="1.02" ry="4.99" fill="hsl(294.2,60%,60%)" opacity="0.78"/><circle cx="53.72" cy="4.01" r="4.29" fill="hsl(301.2,70%,62%)" opacity="0.50"/><path d="M33.85 31.97 L40.24 55.89 L5.63 48.77 Z" fill="hsl(308.2,70%,58%)" opacity="0.36"/><ellipse cx="0.11" cy="0.57" rx="4.11" ry="5.47" fill="hsl(315.2,60%,71%)" opacity="0.63"/><circle cx="16.89" cy="53.00" r="3.52" fill="hsl(322.2,70%,75%)" opacity="0.82"/><path d="M12.58 44.92 L46.49 39.84 L2.89 10.68 Z" fill="hsl(329.2,70%,64%)" opacity="0.76"/><ellipse cx="47.73" cy="52.12" rx="1.96" ry="5.72" fill="hsl(336.2,60%,56%)" opacity="0.58"/><circle cx="13.06" cy="60.41" r="3.41" fill="hsl(343.2,70%,67%)" opacity="0.93"/><path d="M41.57 35.76 L23.29 49.74 L34.22 46.47 Z" fill="hsl(350.2,70%,70%)" opacity="0.68"/><ellipse cx="11.63" cy="50.26" rx="1.10" ry="2.89" fill="hsl(357.2,60%,64%)" opacity="0.50"/><circle cx="7.24" cy="57.82" r="6.10" fill="hsl(4.2,70%,64%)" opacity="0.59"/><path d="M53.37 27.76 L54.00 33.48 L37.87 30.65 Z" fill="hsl(11.2,70%,75%)" opacity="0.67"/><ellipse cx="42.50" cy="6.31" rx="2.58" ry="4.28" fill="hsl(18.2,60%,59%)" opacity="0.82"/><circle cx="54.25" cy="43.49" r="1.25" fill="hsl(25.2,70%,59%)" opacity="0.61"/><path d="M50.42 6.19 L4.61 53.40 L57.43 53.20 Z" fill="hsl(32.2,70%,57%)" opacity="0.64"/><ellipse cx="47.29" cy="40.64" rx="3.42" ry="2.27" fill="hsl(39.2,60%,54%)" opacity="0.71"/><circle cx="12.12" cy="19.60" r="1.75" fill="hsl(46.2,70%,74%)" opacity="0.84"/></svg>