<svg xmlns="http://www.w3.org/2000/svg" width="64" height="64" viewBox="0 0 64 64"><rect width="64" height="64" rx="8" fill="hsl(231.2,65%,45%)"/><circle cx="34.33" cy="36.74" r="3.81" fill="hsl(231.2,70%,54%)" opacity="0.94"/><path d="M6.25 25.44 L42.15 48.77 L6.68 27.78 Z" fill="hsl(238.2,70%,59%)" opacity="0.64"/><ellipse cx="34.80" cy="61.44" rx="4.69" ry="3.01" fill="hsl(245.2,60%,39%)" opacity="0.77"/><circle cx="57.58" cy="7.51" r="5.40" fill="hsl(252.2,70%,73%)" opacity="0.89"/><path d="M63.72 42.82 L29.57 6.11 L5.71 35.23 Z" fill="hsl(259.2,70%,69%)" opacity="0.42"/><ellipse cx="60.03" cy="21.18" rx="5.78" ry="4.78" fill="hsl(266.2,60%,55%)" opacity="0.43"/><circle cx="17.46" cy="7.41" r="6.48" fill="hsl(273.2,70%,62%)" opacity="0.56"/><path d="M10.02 8.29 L30.32 48.77 L28.21 9.01 Z" fill="hsl(280.2,70%,77%)" opacity="0.39"/><ellipse cx="33.57" cy="63.44" rx="2.09" ry="3.07" fill="hsl(287.2,60%,46%)" opacity="0.56"/><circle cx="63.82" cy="51.70" r="3.87" fill="hsl(294.2,70%,64%)" opacity="0.90"/><path d="M51.74 54.08 L2.33 26.72 L30.37 33.71 Z" fill="hsl(301.2,70%,67%)" opacity="0.30"/><ellipse cx="43.75" cy="3.51" rx="2.89" ry="5.63" fill="hsl(308.2,60%,78%)" opacity="0.68"/><circle cx="32.95" cy="5.08" r="1.25" fill="hsl(315.2,70%,64%)" opacity="0.69"/><path d="M46.10 58.58 L55.35 6.17 L4.08 36.00 Z" fill="hsl(322.2,70%,61%)" opacity="0.48"/><ellipse cx="28.99" cy="52.90" rx="1.15" ry="1.16" fill="hsl(329.2,60%,40%)" opacity="0.50"/><circle cx="37.06" cy="1.59" r="5.68" fill="hsl(336.2,70%,41%)" opacity="0.69"/><path d="M23.42 40.83 L57.34 55.96 L33.44 30.20 Z" fill="hsl(343.2,70%,46%)" opacity="0.76"/><ellipse cx="9.79" cy="58.03" rx="3.92" ry="2.93" fill="hsl(350.2,60%,63%)" opacity="0.35"/><circle cx="0.20" cy="15.79" r="6.17" fill="hsl(357.2,70%,52%)" opacity="0.52"/><path d="M41.68 24.97 L13.65 32.34 L33.40 37.66 Z" fill="hsl(4.2,70%,40%)" opacity="0.31"/><ellipse cx="30.67" cy="35.16" rx="2.28" ry="1.73" fill="hsl(11.2,60%,79%)" opacity="0.35"/><circle cx="29.72" cy="0.26" r="5.43" fill="hsl(18.2,70%,67%)" opacity="0.88"/><path d="M42.50 2.25 L36.05 9.12 L32.22 12.81 Z" fill="hsl(25.2,70%,46%)" opacity="0.59"/><ellipse cx="3.72" cy="32.79" rx="3.11" ry="1.27" fill="hsl(32.2,60%,40%)" opacity="0.57"/><circle cx="4.29" cy="54.13" r="6.45" fill="hsl(39.2,70%,69%)" opacity="0.78"/><path d="M48.91 56.21 L54.16 45.39 L36.56 0.96 Z" fill="hsl(46.2,70%,73%)" opacity="0.32"/><ellipse cx="61.60" cy="59.56" rx="3.88" ry="1.48" fill="hsl(53.2,60%,78%)" opacity="0.50"/><circle cx="1.06" cy="29.96" r="4.68" fill="hsl(60.2,70%,50%)" opacity="0.84"/><path d="M11.17 37.98 L17.04 1.22 L38.95 42.22 Z" fill="hsl(67.2,70%,74%)" opacity="0.54"/><ellipse cx="57.06" cy="19.74" rx="1.90" ry="3.34" fill="hsl(74.2,60%,68%)" opacity="0.47"/><circle cx="17.86" cy="15.81" r="1.34" fill="hsl(81.2,70%,54%)" opacity="0.61"/><path d="M26.89 11.56 L48.18 27.27 L5.44 1.71 Z" fill="hsl(88.2,70%,52%)" opacity="0.35"/><ellipse cx="59.12" cy="50.73" rx="4.94" ry="3.85" fill="hsl(95.2,60%,77%)" opacity="0.42"/><circle cx="29.91" cy="25.07" r="4.84" fill="hsl(102.2,70%,79%)" opacity="0.73"/><path d="M53.29 3.08 L20.40 60.80 L34.71 34.28 Z" fill="hsl(109.2,70%,66%)" opacity="0.36"/><ellipse cx="57.73" cy="32.86" rx="3.99" ry="1.44" fill="hsl(116.2,60%,55%)" opacity="0.68"/><circle cx="9.61" cy="38.15" r="1.42" fill="hsl(123.2,70%,69%)" opacity="0.79"/><path d="M40.43 62.72 L53.07 42.60 L49.66 37.42 Z" fill="hsl(130.2,70%,40%)" opacity="0.41"/><ellipse cx="25.43" cy="49.74" rx="4.82" ry="4.64" fill="hsl(137.2,60%,48%)" opacity="0.49"/><circle cx="17.55" cy="48.39" r="4.06" fill="hsl(144.2,70%,52%)" opacity="0.86"/><path d="M25.32 26.62 L48.61 47.57 L50.56 12.71 Z" fill="hsl(151.2,70%,48%)" opacity="0.73"/><ellipse cx="18.46" cy="25.22" rx="2.34" ry="4.60" fill="hsl(158.2,60%,39%)" opacity="0.40"/><circle cx="2.94" cy="52.53" r="3.51" fill="hsl(165.2,70%,53%)" opacity="0.83"/><path d="M28.65 41.96 L30.62 21.96 L18.93 54.10 Z" fill="hsl(172.2,70%,65%)" opacity="0.49"/><ellipse cx="0.53" cy="36.14" rx="1.59" ry="5.05" fill="hsl(179.2,60%,36%)" opacity="0.38"/><circle cx="1.46" cy="12.30" r="2.80" fill="hsl(186.2,70%,62%)" opacity="0.98"/><path d="M2.93 1.34 L41.08 12.06 L16.30 4.30 Z" fill="hsl(193.2,70%,57%)" opacity="0.52"/><ellipse cx="30.18" cy="0.14" rx="3.93" ry="5.12" fill="hsl(200.2,60%,67%)" opacity="0.90"/><circle cx="26.32" cy="44.56" r="4.53" fill="hsl(207.2,70%,66%)" opacity="0.98"/><path d="M25.21 58.04 L56.03 3.75 L18.90 35.13 Z" fill="hsl(214.2,70%,45%)" opacity="0.43"/><ellipse cx="25.02" cy="55.59" rx="5.06" ry="2.15" fill="hsl(221.2,60%,61%)" opacity="0.33"/><circle cx="34.20" cy="61.46" r="1.97" fill="hsl(228.2,70%,44%)" opacity="0.71"/><path d="M46.96 29.47 L32.09 31.54 L58.06 19.47 Z" fill="hsl(235.2,70%,66%)" opacity="0.63"/><ellipse cx="52.65" cy="59.30" rx="3.94" ry="4.89" fill="hsl(242.2,60%,55%)" opacity="0.67"/><circle cx="40.16" cy="17.06" r="4.03" fill="hsl(249.2,70%,78%)" opacity="0.43"/><path d="M63.81 22.80 L39.73 50.25 L11.26 42.32 Z" fill="hsl(256.2,70%,43%)" opacity="0.70"/><ellipse cx="22.24" cy="44.56" rx="4.19" ry="4.39" fill="hsl(263.2,60%,62%)" opacity="0.89"/><circle cx="35.60" cy="29.35" r="3.56" fill="hsl(270.2,70%,53%)" opacity="0.66"/><path d="M62.03 46.84 L43.80 59.93 L0.04 7.33 Z" fill="hsl(277.2,70%,53%)" opacity="0.52"/><ellipse cx="6.30" cy="21.63" rx="1.62" ry="2.96" fill="hsl(284.2,60%,76%)" opacity="0.60"/><circle cx="13.97" cy="29.04" r="2.60" fill="hsl(291.2,70%,62%)" opacity="0.47"/><path d="M30.36 33.28 L58.81 0.36 L5.26 46.47 Z" fill="hsl(298.2,70%,65%)" opacity="0.35"/><ellipse cx="30.81" cy="47.61" rx="5.78" ry="5.87" fill="hsl(305.2,60%,59%)" opacity="0.53"/><circle cx="47.29" cy="15.63" r="3.30" fill="hsl(312.2,70%,42%)" opacity="0.78"/><path d="M23.45 7.88 L44.98 0.73 L5.76 19.60 Z" fill="hsl(319.2,70%,73%)" opacity="0.58"/><ellipse cx="53.86" cy="17.40" rx="5.84" ry="2.80" fill="hsl(326.2,60%,48%)" opacity="0.65"/><circle cx="61.59" cy="14.32" r="5.49" fill="hsl(333.2,70%,44%)" opacity="0.87"/><path d="M38.08 2.12 L23.93 53.54 L15.75 13.54 Z" fill="hsl(340.2,70%,62%)" opacity="0.78"/><ellipse cx="31.70" cy="12.97" rx="5.07" ry="3.83" fill="hsl(347.2,60%,72%)" opacity="0.32"/><circle cx="7.42" cy="41.74" r="6.85" fill="hsl(354.2,70%,61%)" opacity="0.87"/><path d="M36.84 6.37 L27.19 6.26 L55.43 19.20 Z" fill="hsl(1.2,70%,56%)" opacity="0.38"/><ellipse cx="30.84" cy="48.14" rx="3.42" ry="3.14" fill="hsl(8.2,60%,45%)" opacity="0.52"/><circle cx="38.43" cy="48.79" r="2.76" fill="hsl(15.2,70%,59%)" opacity="0.75"/><path d="M4.53 6.35 L4.81 45.69 L42.78 58.94 Z" fill="hsl(22.2,70%,66%)" opacity="0.55"/><ellipse cx="62.45" cy="63.12" rx="4.41" ry="3.60" fill="hsl(29.2,60%,48%)" opacity="0.90"/><circle cx="3.06" cy="23.69" r="4.57" fill="hsl(36.2,70%,51%)" opacity="0.59"/><path d="M4.33 54.15 L0.46 32.66 L30.77 61.53 Z" fill="hsl(43.2,70%,51%)" opacity="0.57"/><ellipse cx="39.53" cy="36.19" rx="4.76" ry="5.25" fill="hsl(50.2,60%,73%)" opacity="0.50"/><circle cx="33.69" cy="52.41" r="3.31" fill="hsl(57.2,70%,51%)" opacity="0.45"/><path d="M43.57 39.51 L26.15 36.67 L22.41 6.18 Z" fill="hsl(64.2,70%,67%)" opacity="0.31"/><ellipse cx="23.39" cy="18.09" rx="1.33" ry="5.14" fill="hsl(71.2,60%,65%)" opacity="0.52"/><circle cx="9.79" cy="2.85" r="1.12" fill="hsl(78.2,70%,68%)" opacity="0.83"/><path d="M58.85 27.16 L54.02 5.96 L59.00 36.80 Z" fill="hsl(85.2,70%,78%)" opacity="0.41"/><ellipse cx="18.62" cy="21.23" rx="2.38" ry="5.27" fill="hsl(92.2,60%,62%)" opacity="0.84"/><circle cx="61.50" cy="16.72" r="1.65" fill="hsl(99.2,70%,79%)" opacity="0.55"/><path d="M14.77 40.23 L1.49 62.12 L29.23 31.46 Z" fill="hsl(106.2,70%,71%)" opacity="0.71"/><ellipse cx="32.07" cy="43.44" rx="2.59" ry="5.15" fill="hsl(113.2,60%,75%)" opacity="0.33"/><circle cx="10.75" cy="63.52" r="1.27" fill="hsl(120.2,70%,64%)" opacity="0.93"/><path d="M4.46 14.89 L49.45 31.03 L57.62 33.10 Z" fill="hsl(127.2,70%,65%)" opacity="0.74"/><ellipse cx="51.45" cy="33.37" rx="1.58" ry="2.38" fill="hsl(134.2,60%,76%)" opacity="0.65"/><circle cx="59.20" cy="0.49" r="3.67" fill="hsl(141.2,70%,54%)" opacity="0.74"/><path d="M29.88 28.39 L12.57 36.63 L61.21 14.67 Z" fill="hsl(148.2,70%,70%)" opacity="0.48"/><ellipse cx="41.31" cy="46.61" rx="3.57" ry="4.24" fill="hsl(155.2,60%,36%)" opacity="0.63"/><circle cx="34.16" cy="43.44" r="3.49" fill="hsl(162.2,70%,49%)" opacity="0.56"/><path d="M51.32 42.93 L7.82 20.27 L60.66 51.25 Z" fill="hsl(169.2,70%,79%)" opacity="0.68"/><ellipse cx="3.88" cy="20.53" rx="5.61" ry="5.88" fill="hsl(176.2,60%,65%)" opacity="0.73"/><circle cx="42.78" cy="27.85" r="6.80" fill="hsl(183.2,70%,40%)" opacity="0.99"/><path d="M48.60 23.12 L32.33 42.91 L62.71 1.40 Z" fill="hsl(190.2,70%,49%)" opacity="0.78"/><ellipse cx="58.74" cy="2.90" rx="3.63" ry="4.34" fill="hsl(197.2,60%,79%)" opacity="0.57"/><circle cx="54.12" cy="38.10" r="6.50" fill="hsl(204.2,70%,71%)" opacity="0.89"/><path d="M17.56 12.52 L17.42 62.74 L52.20 12.66 Z" fill="hsl(211.2,70%,69%)" opacity="0.71"/><ellipse cx="25.09" cy="19.49" rx="4.40" ry="1.24" fill="hsl(218.2,60%,74%)" opacity="0.61"/><circle cx="24.76" cy="10.33" r="3.34" fill="hsl(225.2,70%,53%)" opacity="0.85"/><path d="M51.79 5.79 L52.59 15.11 L30.96 6.58 Z" fill="hsl(232.2,70%,59%)" opacity="0.51"/><ellipse cx="31.99" cy="38.75" rx="4.65" ry="4.18" fill="hsl(239.2,60%,52%)" opacity="0.68"/><circle cx="45.55" cy="55.98" r="1.12" fill="hsl(246.2,70%,70%)" opacity="0.71"/><path d="M3.52 21.48 L61.69 50.05 L6.98 11.79 Z" fill="hsl(253.2,70%,55%)" opacity="0.67"/><ellipse cx="39.39" cy="50.82" rx="3.07" ry="4.91" fill="hsl(260.2,60%,76%)" opacity="0.32"/><circle cx="56.80" cy="20.65" r="6.66" fill="hsl(267.2,70%,49%)" opacity="0.91"/><path d="M24.06 9.48 L15.42 15.26 L19.54 21.52 Z" fill="hsl(274.2,70%,52%)" opacity="0.69"/><ellipse cx="32.84" cy="16.73" rx="3.44" ry="3.74" fill="hsl(281.2,60%,39%)" opacity="0.45"/><circle cx="4.54" cy="11.93" r="5.42" fill="hsl(288.2,70%,49%)" opacity="0.42"/><path d="M42.98 19.75 L3.06 22.30 L14.01 2.33 Z" fill="hsl(295.2,70%,69%)" opacity="0.42"/><ellipse cx="34.30" cy="8.86" rx="1.93" ry="5.72" fill="hsl(302.2,60%,67%)" opacity="0.47"/><circle cx="41.33" cy="12.29" r="2.70" fill="hsl(309.2,70%,53%)" opacity="0.73"/><path d="M8.47 28.26 L12.71 57.84 L28.72 15.06 Z" fill="hsl(316.2,70%,68%)" opacity="0.41"/><ellipse cx="7.14" cy="20.16" rx="5.63" ry="3.98" fill="hsl(323.2,60%,67%)" opacity="0.70"/><circle cx="14.58" cy="32.81" r="4.21" fill="hsl(330.2,70%,49%)" opacity="0.47"/><path d="M27.82 44.89 L26.53 40.16 L20.16 7.06 Z" fill="hsl(337.2,70%,75%)" opacity="0.62"/><ellipse cx="32.45" cy="63.49" rx="2.15" ry="4.25" fill="hsl(344.2,60%,70%)" opacity="0.45"/><circle cx="16.59" cy="48.47" r="3.11" fill="hsl(351.2,70%,79%)" opacity="0.43"/><path d="M50.86 16.71 L51.53 3.72 L63.96 21.69 Z" fill="hsl(358.2,70%,75%)" opacity="0.78"/><ellipse cx="41.62" cy="42.68" rx="5.16" ry="5.25" fill="hsl(5.2,60%,56%)" opacity="0.52"/><circle cx="50.69" cy="6.71" r="5.74" fill="hsl(12.2,70%,40%)" opacity="0.67"/><path d="M4.86 50.15 L57.73 50.89 L17.70 14.21 Z" fill="hsl(19.2,70%,53%)" opacity="0.68"/><ellipse cx="54.30" cy="36.45" rx="2.15" ry="1.94" fill="hsl(26.2,60%,53%)" opacity="0.55"/><circle cx="60.57" cy="48.96" r="4.47" fill="hsl(33.2,70%,60%)" opacity="0.50"/><path d="M45.28 53.23 L55.57 63.71 L30.78 25.58 Z" fill="hsl(40.2,70%,76%)" opacity="0.78"/><ellipse cx="54.77" cy="25.06" rx="2.32" ry="2.30" fill="hsl(47.2,60%,79%)" opacity="0.55"/><circle cx="61.48" cy="37.10" r="2.63" fill="hsl(54.2,70%,53%)" opacity="0.50"/><path d="M22.60 33.22 L49.50 25.97 L15.92 11.02 Z" fill="hsl(61.2,70%,78%)" opacity="0.44"/><ellipse cx="12.66" cy="55.69" rx="3.44" ry="5.27" fill="hsl(68.2,60%,52%)" opacity="0.81"/><circle cx="18.43" cy="20.12" r="5.87" fill="hsl(75.2,70%,60%)" opacity="0.50"/><path d="M41.56 44.80 L16.77 16.81 L21.13 26.40 Z" fill="hsl(82.2,70%,77%)" opacity="0.55"/><ellipse cx="18.75" cy="55.47" rx="4.03" ry="5.79" fill="hsl(89.2,60%,68%)" opacity="0.80"/><circle cx="11.76" cy="35.29" r="3.56" fill="hsl(96.2,70%,48%)" opacity="0.44"/><path d="M34.52 47.81 L16.75 16.99 L54.97 24.72 Z" fill="hsl(103.2,70%,72%)" opacity="0.56"/><ellipse cx="1.99" cy="35.97" rx="2.28" ry="4.15" fill="hsl(110.2,60%,54%)" opacity="0.48"/><circle cx="9.84" cy="25.30" r="6.46" fill="hsl(117.2,70%,76%)" opacity="0.47"/><path d="M53.14 24.63 L51.03 42.76 L32.17 32.00 Z" fill="hsl(124.2,70%,52%)" opacity="0.59"/><ellipse cx="9.97" cy="41.77" rx="1.93" ry="5.56" fill="hsl(131.2,60%,35%)" opacity="0.42"/><circle cx="51.32" cy="45.64" r="3.17" fill="hsl(138.2,70%,48%)" opacity="0.58"/><path d="M59.96 26.82 L29.87 20.82 L19.13 28.47 Z" fill="hsl(145.2,70%,53%)" opacity="0.74"/><ellipse cx="62.51" cy="42.00" rx="4.63" ry="3.83" fill="hsl(152.2,60%,52%)" opacity="0.60"/><circle cx="35.01" cy="24.38" r="3.80" fill="hsl(159.2,70%,47%)" opacity="0.97"/><path d="M27.85 13.73 L38.85 32.04 L39.97 23.10 Z" fill="hsl(166.2,70%,46%)" opacity="0.38"/><ellipse cx="5.00" cy="29.12" rx="5.16" ry="3.57" fill="hsl(173.2,60%,67%)" opacity="0.76"/><circle cx="49.27" cy="45.05" r="3.75" fill="hsl(180.2,70%,69%)" opacity="0.54"/><path d="M3.25 47.00 L57.48 29.51 L19.73 32.00 Z" fill="hsl(187.2,70%,60%)" opacity="0.79"/><ellipse cx="60.55" cy="53.87" rx="2.62" ry="2.79" fill="hsl(194.2,60%,36%)" opacity="0.77"/><circle cx="13.13" cy="30.40" r="3.83" fill="hsl(201.2,70%,43%)" opacity="0.73"/><path d="M44.42 57.80 L54.30 45.96 L39.83 12.94 Z" fill="hsl(208.2,70%,65%)" opacity="0.75"/><ellipse cx="20.15" cy="35.52" rx="5.79" ry="1.98" fill="hsl(215.2,60%,38%)" opacity="0.72"/><circle cx="43.10" cy="46.41" r="2.45" fill="hsl(222.2,70%,58%)" opacity="0.73"/><path d="M9.27 38.19 L63.08 55.58 L56.24 19.09 Z" fill="hsl(229.2,70%,45%)" opacity="0.39"/><ellipse cx="53.79" cy="29.64" rx="5.48" ry="2.32" fill="hsl(236.2,60%,61%)" opacity="0.78"/><circle cx="3.84" cy="1.66" r="1.37" fill="hsl(243.2,70%,77%)" opacity="0.49"/><path d="M56.88 33.65 L19.86 34.25 L61.28 8.37 Z" fill="hsl(250.2,70%,72%)" opacity="0.46"/><ellipse cx="54.87" cy="21.96" rx="3.23" ry="1.90" fill="hsl(257.2,60%,45%)" opacity="0.46"/><circle cx="60.40" cy="33.46" r="1.24" fill="hsl(264.2,70%,54%)" opacity="0.86"/><path d="M24.32 36.99 L15.23 2.57 L3.61 19.35 Z" fill="hsl(271.2,70%,65%)" opacity="0.64"/><ellipse cx="31.41" cy="10.53" rx="2.87" ry="2.24" fill="hsl(278.2,60%,66%)" opacity="0.48"/><circle cx="24.80" cy="33.77" r="6.18" fill="hsl(285.2,70%,69%)" opacity="0.89"/><path d="M0.44 58.73 L54.14 45.80 L34.22 43.43 Z" fill="hsl(292.2,70%,64%)" opacity="0.38"/><ellipse cx="55.95" cy="55.54" rx="5.14" ry="3.65" fill="hsl(299.2,60%,36%)" opacity="0.66"/><circle cx="4.10" cy="22.00" r="3.64" fill="hsl(306.2,70%,48%)" opacity="0.82"/><path d="M59.46 36.38 L16.23 29.36 L55.65 19.00 Z" fill="hsl(313.2,70%,65%)" opacity="0.56"/><ellipse cx="52.77" cy="16.26" rx="3.30" ry="4.54" fill="hsl(320.2,60%,52%)" opacity="0.34"/><circle cx="30.00" cy="37.72" r="6.31" fill="hsl(327.2,70%,80%)" opacity="0.62"/><path d="M30.60 30.95 L32.62 50.18 L37.72 50.86 Z" fill="hsl(334.2,70%,75%)" opacity="0.46"/><ellipse cx="56.41" cy="59.63" rx="4.32" ry="3.41" fill="hsl(341.2,60%,50%)" opacity="0.80"/><circle cx="43.92" cy="39.03" r="5.46" fill="hsl(348.2,70%,44%)" opacity="0.45"/><path d="M11.40 6.82 L47.96 18.72 L60.75 27.72 Z" fill="hsl(355.2,70%,70%)" opacity="0.36"/><ellipse cx="56.50" cy="27.44" rx="5.84" ry="2.51" fill="hsl(2.2,60%,73%)" opacity="0.45"/><circle cx="11.06" cy="15.16" r="3.93" fill="hsl(9.2,70%,63%)" opacity="0.46"/><path d="M41.52 48.67 L26.11 38.66 L30.59 4.95 Z" fill="hsl(16.2,70%,61%)" opacity="0.67"/><ellipse cx="18.62" cy="1.52" rx="3.47" ry="5.57" fill="hsl(23.2,60%,75%)" opacity="0.33"/><circle cx="32.18" cy="41.80" r="6.77" fill="hsl(30.2,70%,66%)" opacity="0.77"/><path d="M43.24 2.97 L1.82 6.12 L10.68 62.96 Z" fill="hsl(37.2,70%,78%)" opacity="0.79"/><ellipse cx="33.26" cy="45.33" rx="4.24" ry="5.68" fill="hsl(44.2,60%,78%)" opacity="0.39"/><circle cx="54.21" cy="10.39" r="5.75" fill="hsl(51.2,70%,56%)" opacity="0.44"/><path d="M59.28 9.08 L41.61 10.45 L53.01 34.10 Z" fill="hsl(58.2,70%,49%)" opacity="0.49"/><ellipse cx="3.03" cy="38.70" rx="1.48" ry="4.12" fill="hsl(65.2,60%,38%)" opacity="0.76"/><circle cx="33.68" cy="46.57" r="5.27" fill="hsl(72.2,70%,70%)" opacity="0.74"/><path d="M44.23 21.21 L8.84 53.88 L24.94 44.33 Z" fill="hsl(79.2,70%,60%)" opacity="0.66"/><ellipse cx="13.75" cy="51.46" rx="4.76" ry="4.82" fill="hsl(86.2,60%,58%)" opacity="0.66"/><circle cx="38.36" cy="3.03" r="6.39" fill="hsl(93.2,70%,60%)" opacity="0.69"/><path d="M58.56 48.95 L61.93 16.08 L2.75 36.73 Z" fill="hsl(100.2,70%,72%)" opacity="0.53"/><ellipse cx="62.99" cy="48.35" rx="4.95" ry="1.43" fill="hsl(107.2,60%,61%)" opacity="0.47"/><circle cx="41.15" cy="62.08" r="5.93" fill="hsl(114.2,70%,51%)" opacity="0.86"/><path d="M26.00 14.64 L12.78 8.49 L36.58 38.13 Z" fill="hsl(121.2,70%,56%)" opacity="0.31"/><ellipse cx="48.46" cy="50.01" rx="2.52" ry="5.56" fill="hsl(128.2,60%,62%)" opacity="0.31"/><circle cx="17.18" cy="24.44" r="5.91" fill="hsl(135.2,70%,67%)" opacity="0.97"/><path d="M59.96 63.18 L39.43 53.76 L15.09 38.05 Z" fill="hsl(142.2,70%,63%)" opacity="0.38"/><ellipse cx="56.36" cy="18.28" rx="1.48" ry="2.84" fill="hsl(149.2,60%,80%)" opacity="0.86"/><circle cx="2.64" cy="53.76" r="1.53" fill="hsl(156.2,70%,47%)" opacity="0.84"/><path d="M44.57 2.51 L21.54 10.68 L42.06 6.27 Z" fill="hsl(163.2,70%,44%)" opacity="0.73"/><ellipse cx="25.03" cy="19.14" rx="1.54" ry="2.79" fill="hsl(170.2,60%,75%)" opacity="0.73"/><circle cx="27.51" cy="24.49" r="4.98" fill="hsl(177.2,70%,54%)" opacity="0.87"/><path d="M9.22 61.17 L41.80 43.73 L24.43 7.35 Z" fill="hsl(184.2,70%,42%)" opacity="0.76"/><ellipse cx="3.09" cy="56.18" rx="4.77" ry="2.39" fill="hsl(191.2,60%,70%)" opacity="0.48"/><circle cx="56.20" cy="8.77" r="4.20" fill="hsl(198.2,70%,57%)" opacity="0.84"/><path d="M30.63 3.25 L5.84 39.60 L32.18 0.28 Z" fill="hsl(205.2,70%,49%)" opacity="0.57"/><ellipse cx="44.59" cy="0.68" rx="5.29" ry="4.95" fill="hsl(212.2,60%,47%)" opacity="0.82"/><circle cx="31.32" cy="13.41" r="1.54" fill="hsl(219.2,70%,66%)" opacity="0.68"/><path d="M35.07 51.58 L41.86 48.50 L22.41 30.53 Z" fill="hsl(226.2,70%,43%)" opacity="0.34"/><ellipse cx="11.24" cy="2.30" rx="2.14" ry="2.64" fill="hsl(233.2,60%,42%)" opacity="0.64"/><circle cx="28.48" cy="49.97" r="1.79" fill="hsl(240.2,70%,78%)" opacity="0.41"/><path d="M33.59 61.71 L33.45 63.52 L0.79 42.20 Z" fill="hsl(247.2,70%,67%)" opacity="0.47"/><ellipse cx="51.28" cy="28.14" rx="4.79" ry="1.86" fill="hsl(254.2,60%,71%)" opacity="0.88"/><circle cx="36.64" cy="49.86" r="4.77" fill="hsl(261.2,70%,50%)" opacity="0.50"/><path d="M49.67 53.72 L60.94 63.30 L39.20 13.68 Z" fill="hsl(268.2,70%,52%)" opacity="0.58"/><ellipse cx="11.14" cy="20.77" rx="3.58" ry="1.12" fill="hsl(275.2,60%,50%)" opacity="0.32"/><circle cx="42.49" cy="30.13" r="4.52" fill="hsl(282.2,70%,67%)" opacity="0.65"/><path d="M49.08 12.51 L8.26 55.92 L17.43 27.73 Z" fill="hsl(289.2,70%,79%)" opacity="0.64"/><ellipse cx="51.33" cy="54.95" rx="2.70" ry="5.62" fill="hsl(296.2,60%,60%)" opacity="0.75"/><circle cx="22.72" cy="39.63" r="1.18" fill="hsl(303.2,70%,42%)" opacity="0.51"/><path d="M50.03 59.08 L40.48 2.58 L22.25 51.44 Z" fill="hsl(310.2,70%,55%)" opacity="0.64"/><ellipse cx="29.70" cy="59.67" rx="5.07" ry="2.59" fill="hsl(317.2,60%,76%)" opacity="0.52"/><circle cx="3.76" cy="58.50" r="5.10" fill="hsl(324.2,70%,62%)" opacity="0.53"/></svg>