<svg xmlns="http://www.w3.org/2000/svg" width="64" height="64" viewBox="0 0 64 64"><rect width="64" height="64" rx="8" fill="hsl(289.6,65%,45%)"/><circle cx="37.13" cy="52.70" r="6.04" fill="hsl(289.6,70%,62%)" opacity="0.52"/><path d="M37.70 6.70 L11.77 15.80 L38.15 45.13 Z" fill="hsl(296.6,70%,74%)" opacity="0.33"/><ellipse cx="6.35" cy="48.69" rx="3.04" ry="4.54" fill="hsl(303.6,60%,71%)" opacity="0.62"/><circle cx="6.78" cy="13.45" r="3.00" fill="hsl(310.6,70%,63%)" opacity="0.96"/><path d="M16.74 38.00 L11.90 49.60 L38.57 19.64 Z" fill="hsl(317.6,70%,45%)" opacity="0.69"/><ellipse cx="50.71" cy="54.61" rx="5.30" ry="1.13" fill="hsl(324.6,60%,46%)" opacity="0.37"/><circle cx="51.03" cy="43.03" r="5.12" fill="hsl(331.6,70%,43%)" opacity="0.70"/><path d="M3.12 23.93 L23.87 39.79 L17.98 51.18 Z" fill="hsl(338.6,70%,78%)" opacity="0.76"/><ellipse cx="43.84" cy="44.22" rx="3.72" ry="5.97" fill="hsl(345.6,60%,67%)" opacity="0.59"/><circle cx="50.54" cy="21.12" r="3.28" fill="hsl(352.6,70%,68%)" opacity="0.98"/><path d="M48.57 25.51 L45.86 51.17 L37.85 28.17 Z" fill="hsl(359.6,70%,43%)" opacity="0.70"/><ellipse cx="59.28" cy="16.49" rx="1.96" ry="1.54" fill="hsl(6.6,60%,76%)" opacity="0.66"/><circle cx="5.59" cy="45.96" r="6.63" fill="hsl(13.6,70%,47%)" opacity="0.76"/><path d="M41.39 8.43 L59.97 8.92 L26.94 31.83 Z" fill="hsl(20.6,70%,70%)" opacity="0.76"/><ellipse cx="53.40" cy="40.70" rx="1.04" ry="2.48" fill="hsl(27.6,60%,35%)" opacity="0.88"/><circle cx="33.84" cy="43.35" r="1.40" fill="hsl(34.6,70%,69%)" opacity="0.65"/><path d="M59.34 5.62 L19.63 14.70 L29.75 1.44 Z" fill="hsl(41.6,70%,65%)" opacity="0.61"/><ellipse cx="25.39" cy="50.35" rx="4.11" ry="4.14" fill="hsl(48.6,60%,50%)" opacity="0.77"/><circle cx="3.20" cy="2.58" r="5.87" fill="hsl(55.6,70%,59%)" opacity="0.53"/><path d="M33.88 23.91 L50.18 17.45 L34.78 53.65 Z" fill="hsl(62.6,70%,57%)" opacity="0.42"/><ellipse cx="8.60" cy="16.94" rx="3.55" ry="5.20" fill="hsl(69.6,60%,43%)" opacity="0.65"/><circle cx="4.88" cy="57.29" r="5.24" fill="hsl(76.6,70%,79%)" opacity="0.46"/><path d="M50.48 16.80 L32.45 27.76 L14.58 35.10 Z" fill="hsl(83.6,70%,59%)" opacity="0.65"/><ellipse cx="28.66" cy="48.10" rx="3.40" ry="5.73" fill="hsl(90.6,60%,54%)" opacity="0.48"/><circle cx="29.76" cy="41.48" r="5.80" fill="hsl(97.6,70%,78%)" opacity="0.87"/><path d="M26.00 44.39 L33.08 21.38 L28.25 25.98 Z" fill="hsl(104.6,70%,61%)" opacity="0.45"/><ellipse cx="37.72" cy="50.45" rx="4.17" ry="5.79" fill="hsl(111.6,60%,61%)" opacity="0.83"/><circle cx="50.47" cy="40.90" r="5.30" fill="hsl(118.6,70%,78%)" opacity="0.49"/><path d="M46.43 11.89 L63.39 25.94 L27.50 46.95 Z" fill="hsl(125.6,70%,61%)" opacity="0.39"/><ellipse cx="35.69" cy="24.91" rx="1.84" ry="2.36" fill="hsl(132.6,60%,63%)" opacity="0.53"/><circle cx="6.84" cy="19.58" r="1.04" fill="hsl(139.6,70%,65%)" opacity="0.87"/><path d="M51.79 57.46 L9.65 14.30 L50.22 26.43 Z" fill="hsl(146.6,70%,66%)" opacity="0.71"/><ellipse cx="33.79" cy="1.89" rx="5.50" ry="4.12" fill="hsl(153.6,60%,78%)" opacity="0.38"/><circle cx="29.97" cy="14.95" r="6.49" fill="hsl(160.6,70%,59%)" opacity="0.68"/><path d="M6.45 5.92 L50.21 59.05 L45.96 40.06 Z" fill="hsl(167.6,70%,74%)" opacity="0.79"/><ellipse cx="56.29" cy="29.37" rx="4.35" ry="2.37" fill="hsl(174.6,60%,45%)" opacity="0.30"/><circle cx="43.06" cy="63.12" r="4.47" fill="hsl(181.6,70%,71%)" opacity="0.46"/><path d="M29.64 57.08 L56.94 59.54 L28.39 46.45 Z" fill="hsl(188.6,70%,75%)" opacity="0.77"/><ellipse cx="15.75" cy="39.93" rx="4.85" ry="5.53" fill="hsl(195.6,60%,57%)" opacity="0.80"/><circle cx="52.98" cy="2.83" r="1.71" fill="hsl(202.6,70%,47%)" opacity="0.53"/><path d="M61.92 63.35 L3.67 16.75 L62.41 3.82 Z" fill="hsl(209.6,70%,75%)" opacity="0.61"/><ellipse cx="29.08" cy="1.63" rx="2.86" ry="5.99" fill="hsl(216.6,60%,61%)" opacity="0.36"/><circle cx="48.34" cy="23.07" r="4.65" fill="hsl(223.6,70%,41%)" opacity="0.62"/><path d="M4.00 43.81 L42.59 31.88 L2.49 37.30 Z" fill="hsl(230.6,70%,72%)" opacity="0.59"/><ellipse cx="62.13" cy="0.04" rx="4.98" ry="4.40" fill="hsl(237.6,60%,49%)" opacity="0.60"/><circle cx="28.16" cy="20.95" r="2.97" fill="hsl(244.6,70%,74%)" opacity="0.46"/><path d="M47.80 51.09 L37.41 57.63 L16.98 47.87 Z" fill="hsl(251.6,70%,44%)" opacity="0.60"/><ellipse cx="31.15" cy="32.35" rx="2.75" ry="3.47" fill="hsl(258.6,60%,49%)" opacity="0.35"/><circle cx="11.54" cy="20.84" r="1.50" fill="hsl(265.6,70%,55%)" opacity="0.91"/><path d="M10.16 18.53 L60.40 5.37 L46.86 46.58 Z" fill="hsl(272.6,70%,50%)" opacity="0.80"/><ellipse cx="35.37" cy="1.06" rx="4.00" ry="3.26" fill="hsl(279.6,60%,79%)" opacity="0.77"/><circle cx="12.41" cy="58.91" r="6.68" fill="hsl(286.6,70%,42%)" opacity="0.46"/><path d="M48.07 63.71 L34.85 61.95 L28.78 60.37 Z" fill="hsl(293.6,70%,78%)" opacity="0.68"/><ellipse cx="31.17" cy="17.85" rx="3.50" ry="5.95" fill="hsl(300.6,60%,61%)" opacity="0.90"/><circle cx="6.86" cy="63.84" r="3.94" fill="hsl(307.6,70%,66%)" opacity="0.54"/><path d="M32.10 63.89 L48.20 5.94 L22.33 16.42 Z" fill="hsl(314.6,70%,69%)" opacity="0.70"/><ellipse cx="5.20" cy="53.48" rx="2.02" ry="4.42" fill="hsl(321.6,60%,79%)" opacity="0.52"/><circle cx="13.87" cy="49.76" r="3.82" fill="hsl(328.6,70%,49%)" opacity="0.79"/><path d="M21.75 20.33 L59.95 1.98 L48.31 44.80 Z" fill="hsl(335.6,70%,45%)" opacity="0.53"/><ellipse cx="18.33" cy="13.49" rx="1.89" ry="2.23" fill="hsl(342.6,60%,56%)" opacity="0.63"/><circle cx="5.98" cy="42.87" r="1.99" fill="hsl(349.6,70%,47%)" opacity="0.98"/><path d="M52.75 31.36 L19.38 14.00 L26.45 14.92 Z" fill="hsl(356.6,70%,44%)" opacity="0.56"/><ellipse cx="11.45" cy="27.18" rx="5.04" ry="1.03" fill="hsl(3.6,60%,39%)" opacity="0.38"/><circle cx="15.26" cy="8.14" r="4.24" fill="hsl(10.6,70%,70%)" opacity="0.93"/><path d="M25.79 23.63 L14.64 31.37 L56.09 8.85 Z" fill="hsl(17.6,70%,46%)" opacity="0.80"/><ellipse cx="55.33" cy="8.62" rx="3.41" ry="5.97" fill="hsl(24.6,60%,61%)" opacity="0.42"/><circle cx="28.95" cy="17.85" r="3.85" fill="hsl(31.6,70%,41%)" opacity="0.95"/><path d="M3.54 38.61 L47.53 7.45 L55.27 8.76 Z" fill="hsl(38.6,70%,77%)" opacity="0.63"/><ellipse cx="23.74" cy="59.01" rx="2.09" ry="2.35" fill="hsl(45.6,60%,57%)" opacity="0.80"/><circle cx="18.87" cy="30.49" r="4.43" fill="hsl(52.6,70%,43%)" opacity="0.95"/><path d="M21.09 31.63 L58.58 11.66 L59.72 4.61 Z" fill="hsl(59.6,70%,52%)" opacity="0.42"/><ellipse cx="11.04" cy="0.54" rx="3.61" ry="1.85" fill="hsl(66.6,60%,40%)" opacity="0.45"/><circle cx="45.66" cy="46.23" r="6.24" fill="hsl(73.6,70%,64%)" opacity="0.99"/><path d="M4.92 56.90 L56.56 28.80 L59.55 0.07 Z" fill="hsl(80.6,70%,43%)" opacity="0.46"/><ellipse cx="30.61" cy="45.56" rx="1.08" ry="1.19" fill="hsl(87.6,60%,41%)" opacity="0.59"/><circle cx="51.11" cy="55.36" r="1.30" fill="hsl(94.6,70%,42%)" opacity="0.99"/><path d="M44.53 50.88 L1.69 4.35 L51.09 45.97 Z" fill="hsl(101.6,70%,53%)" opacity="0.74"/><ellipse cx="47.98" cy="56.63" rx="1.53" ry="1.11" fill="hsl(108.6,60%,76%)" opacity="0.67"/><circle cx="26.17" cy="17.51" r="1.64" fill="hsl(115.6,70%,80%)" opacity="0.71"/><path d="M47.83 21.63 L55.83 48.56 L13.88 50.09 Z" fill="hsl(122.6,70%,51%)" opacity="0.53"/><ellipse cx="46.69" cy="22.31" rx="1.90" ry="1.01" fill="hsl(129.6,60%,64%)" opacity="0.60"/><circle cx="9.92" cy="17.97" r="4.67" fill="hsl(136.6,70%,50%)" opacity="0.53"/><path d="M10.96 2.76 L23.59 60.85 L39.52 17.33 Z" fill="hsl(143.6,70%,53%)" opacity="0.72"/><ellipse cx="29.80" cy="23.38" rx="3.75" ry="1.91" fill="hsl(150.6,60%,47%)" opacity="0.42"/><circle cx="52.66" cy="8.50" r="4.49" fill="hsl(157.6,70%,56%)" opacity="0.46"/><path d="M49.73 33.43 L12.02 1.06 L13.87 38.53 Z" fill="hsl(164.6,70%,52%)" opacity="0.69"/><ellipse cx="4.39" cy="5.95" rx="2.87" ry="2.78" fill="hsl(171.6,60%,77%)" opacity="0.57"/><circle cx="38.04" cy="63.50" r="4.56" fill="hsl(178.6,70%,64%)" opacity="0.72"/><path d="M40.65 15.70 L60.22 19.97 L45.34 45.79 Z" fill="hsl(185.6,70%,65%)" opacity="0.65"/><ellipse cx="16.37" cy="39.60" rx="2.41" ry="3.96" fill="hsl(192.6,60%,60%)" opacity="0.33"/><circle cx="18.77" cy="9.77" r="4.21" fill="hsl(199.6,70%,40%)" opacity="0.58"/><path d="M32.58 53.70 L47.13 32.70 L42.67 5.49 Z" fill="hsl(206.6,70%,72%)" opacity="0.35"/><ellipse cx="16.15" cy="51.71" rx="3.20" ry="4.18" fill="hsl(213.6,60%,38%)" opacity="0.45"/><circle cx="33.71" cy="22.88" r="4.57" fill="hsl(220.6,70%,71%)" opacity="0.56"/><path d="M51.66 6.05 L40.14 25.11 L7.05 43.99 Z" fill="hsl(227.6,70%,58%)" opacity="0.53"/><ellipse cx="51.59" cy="43.60" rx="3.93" ry="3.99" fill="hsl(234.6,60%,44%)" opacity="0.40"/><circle cx="15.68" cy="52.00" r="3.84" fill="hsl(241.6,70%,55%)" opacity="0.97"/><path d="M32.32 11.39 L35.64 49.22 L4.42 44.71 Z" fill="hsl(248.6,70%,48%)" opacity="0.61"/><ellipse cx="37.64" cy="56.23" rx="1.11" ry="1.99" fill="hsl(255.6,60%,79%)" opacity="0.88"/><circle cx="52.79" cy="28.36" r="2.31" fill="hsl(262.6,70%,58%)" opacity="0.63"/><path d="M55.43 18.62 L30.71 58.19 L55.43 15.92 Z" fill="hsl(269.6,70%,41%)" opacity="0.55"/><ellipse cx="53.88" cy="25.85" rx="5.05" ry="5.86" fill="hsl(276.6,60%,77%)" opacity="0.55"/><circle cx="56.46" cy="56.03" r="4.57" fill="hsl(283.6,70%,41%)" opacity="0.49"/><path d="M26.33 13.64 L34.22 19.72 L46.87 45.51 Z" fill="hsl(290.6,70%,58%)" opacity="0.36"/><ellipse cx="57.07" cy="46.40" rx="3.83" ry="5.12" fill="hsl(297.6,60%,45%)" opacity="0.71"/><circle cx="52.08" cy="7.95" r="1.30" fill="hsl(304.6,70%,44%)" opacity="0.65"/><path d="M8.55 2.87 L47.06 4.52 L15.28 32.03 Z" fill="hsl(311.6,70%,64%)" opacity="0.59"/><ellipse cx="36.16" cy="25.88" rx="4.84" ry="4.81" fill="hsl(318.6,60%,69%)" opacity="0.40"/><circle cx="30.50" cy="43.17" r="1.54" fill="hsl(325.6,70%,48%)" opacity="0.58"/><path d="M42.80 12.75 L56.29 0.66 L38.85 57.89 Z" fill="hsl(332.6,70%,62%)" opacity="0.55"/><ellipse cx="15.28" cy="60.13" rx="2.97" ry="5.92" fill="hsl(339.6,60%,69%)" opacity="0.64"/><circle cx="44.85" cy="18.97" r="5.96" fill="hsl(346.6,70%,55%)" opacity="0.75"/><path d="M63.63 51.50 L45.68 10.71 L34.70 47.97 Z" fill="hsl(353.6,70%,66%)" opacity="0.32"/><ellipse cx="58.02" cy="33.22" rx="2.55" ry="1.95" fill="hsl(0.6,60%,45%)" opacity="0.40"/><circle cx="63.28" cy="60.86" r="3.11" fill="hsl(7.6,70%,49%)" opacity="0.70"/><path d="M35.22 44.73 L46.83 33.08 L20.07 18.77 Z" fill="hsl(14.6,70%,45%)" opacity="0.79"/><ellipse cx="42.76" cy="10.38" rx="1.68" ry="4.55" fill="hsl(21.6,60%,54%)" opacity="0.69"/><circle cx="34.61" cy="61.21" r="1.10" fill="hsl(28.6,70%,77%)" opacity="0.62"/><path d="M23.99 45.01 L0.32 50.10 L44.43 54.58 Z" fill="hsl(35.6,70%,79%)" opacity="0.73"/><ellipse cx="12.34" cy="54.20" rx="2.59" ry="5.84" fill="hsl(42.6,60%,60%)" opacity="0.45"/><circle cx="27.92" cy="26.34" r="6.03" fill="hsl(49.6,70%,50%)" opacity="0.87"/><path d="M38.45 41.36 L30.88 15.05 L59.01 41.33 Z" fill="hsl(56.6,70%,72%)" opacity="0.63"/><ellipse cx="62.38" cy="3.95" rx="4.16" ry="4.57" fill="hsl(63.6,60%,79%)" opacity="0.81"/><circle cx="57.24" cy="18.55" r="3.30" fill="hsl(70.6,70%,64%)" opacity="0.78"/><path d="M23.55 10.86 L25.50 56.73 L63.52 9.40 Z" fill="hsl(77.6,70%,46%)" opacity="0.55"/><ellipse cx="39.84" cy="22.39" rx="2.37" ry="4.72" fill="hsl(84.6,60%,45%)" opacity="0.57"/><circle cx="33.39" cy="0.50" r="5.10" fill="hsl(91.6,70%,62%)" opacity="0.68"/><path d="M4.43 39.83 L63.28 60.10 L33.55 28.26 Z" fill="hsl(98.6,70%,74%)" opacity="0.50"/><ellipse cx="27.25" cy="18.82" rx="3.21" ry="1.29" fill="hsl(105.6,60%,48%)" opacity="0.57"/><circle cx="59.48" cy="5.34" r="6.80" fill="hsl(112.6,70%,79%)" opacity="0.84"/><path d="M34.34 61.83 L60.00 36.60 L37.68 24.59 Z" fill="hsl(119.6,70%,56%)" opacity="0.37"/><ellipse cx="11.38" cy="27.92" rx="5.70" ry="5.30" fill="hsl(126.6,60%,50%)" opacity="0.40"/><circle cx="40.33" cy="10.78" r="4.83" fill="hsl(133.6,70%,41%)" opacity="0.65"/><path d="M16.20 47.43 L12.20 36.29 L17.97 44.37 Z" fill="hsl(140.6,70%,78%)" opacity="0.56"/><ellipse cx="28.49" cy="39.42" rx="3.81" ry="2.91" fill="hsl(147.6,60%,54%)" opacity="0.34"/><circle cx="9.22" cy="52.90" r="1.33" fill="hsl(154.6,70%,77%)" opacity="0.92"/><path d="M7.71 22.62 L53.28 18.42 L45.14 7.62 Z" fill="hsl(161.6,70%,52%)" opacity="0.61"/><ellipse cx="20.03" cy="51.36" rx="2.75" ry="2.53" fill="hsl(168.6,60%,68%)" opacity="0.54"/><circle cx="61.13" cy="10.25" r="5.04" fill="hsl(175.6,70%,57%)" opacity="0.88"/><path d="M3.47 11.95 L30.24 16.31 L46.55 54.06 Z" fill="hsl(182.6,70%,64%)" opacity="0.43"/><ellipse cx="23.45" cy="32.05" rx="4.66" ry="5.29" fill="hsl(189.6,60%,77%)" opacity="0.43"/><circle cx="61.65" cy="22.02" r="3.46" fill="hsl(196.6,70%,78%)" opacity="0.44"/><path d="M23.08 32.18 L51.80 56.51 L25.92 22.69 Z" fill="hsl(203.6,70%,49%)" opacity="0.51"/><ellipse cx="34.49" cy="24.56" rx="1.96" ry="4.07" fill="hsl(210.6,60%,49%)" opacity="0.51"/><circle cx="17.82" cy="14.08" r="1.90" fill="hsl(217.6,70%,44%)" opacity="0.70"/><path d="M22.43 49.01 L50.55 59.96 L31.17 18.66 Z" fill="hsl(224.6,70%,57%)" opacity="0.56"/><ellipse cx="3.37" cy="13.56" rx="5.91" ry="5.43" fill="hsl(231.6,60%,74%)" opacity="0.50"/><circle cx="31.72" cy="49.53" r="1.63" fill="hsl(238.6,70%,51%)" opacity="1.00"/><path d="M33.13 29.04 L23.81 63.31 L46.12 49.44 Z" fill="hsl(245.6,70%,72%)" opacity="0.76"/><ellipse cx="58.48" cy="22.36" rx="2.71" ry="5.34" fill="hsl(252.6,60%,37%)" opacity="0.59"/><circle cx="23.96" cy="25.55" r="6.26" fill="hsl(259.6,70%,46%)" opacity="0.74"/><path d="M18.27 57.43 L58.03 36.83 L32.30 1.78 Z" fill="hsl(266.6,70%,48%)" opacity="0.77"/><ellipse cx="54.09" cy="24.10" rx="5.33" ry="3.87" fill="hsl(273.6,60%,74%)" opacity="0.88"/><circle cx="35.33" cy="46.43" r="2.09" fill="hsl(280.6,70%,75%)" opacity="0.42"/><path d="M28.88 12.22 L30.20 62.43 L48.58 53.94 Z" fill="hsl(287.6,70%,64%)" opacity="0.55"/><ellipse cx="1.26" cy="0.50" rx="5.15" ry="3.66" fill="hsl(294.6,60%,52%)" opacity="0.59"/><circle cx="12.81" cy="0.83" r="2.29" fill="hsl(301.6,70%,73%)" opacity="0.48"/><path d="M7.11 53.61 L24.22 19.39 L17.06 3.41 Z" fill="hsl(308.6,70%,59%)" opacity="0.65"/><ellipse cx="46.95" cy="16.65" rx="2.23" ry="2.33" fill="hsl(315.6,60%,69%)" opacity="0.39"/><circle cx="58.60" cy="38.23" r="5.00" fill="hsl(322.6,70%,49%)" opacity="0.63"/><path d="M58.04 37.10 L49.61 16.43 L4.32 22.79 Z" fill="hsl(329.6,70%,74%)" opacity="0.35"/><ellipse cx="20.48" cy="4.01" rx="3.76" ry="1.33" fill="hsl(336.6,60%,45%)" opacity="0.40"/><circle cx="33.54" cy="32.01" r="5.53" fill="hsl(343.6,70%,45%)" opacity="0.76"/><path d="M5.08 42.66 L62.01 1.80 L34.80 35.40 Z" fill="hsl(350.6,70%,58%)" opacity="0.48"/><ellipse cx="10.53" cy="12.83" rx="3.22" ry="3.26" fill="hsl(357.6,60%,54%)" opacity="0.39"/><circle cx="41.85" cy="54.71" r="4.69" fill="hsl(4.6,70%,65%)" opacity="0.60"/><path d="M31.85 18.01 L10.08 60.80 L41.54 48.31 Z" fill="hsl(11.6,70%,64%)" opacity="0.49"/><ellipse cx="26.29" cy="12.38" rx="3.24" ry="5.55" fill="hsl(18.6,60%,47%)" opacity="0.81"/><circle cx="32.33" cy="11.62" r="3.83" fill="hsl(25.6,70%,61%)" opacity="0.63"/><path d="M57.23 14.78 L21.79 29.25 L49.91 2.71 Z" fill="hsl(32.6,70%,60%)" opacity="0.34"/><ellipse cx="20.65" cy="39.24" rx="2.91" ry="2.61" fill="hsl(39.6,60%,39%)" opacity="0.41"/><circle cx="16.80" cy="40.23" r="5.63" fill="hsl(46.6,70%,48%)" opacity="0.82"/><path d="M52.32 11.05 L50.94 1.25 L39.43 55.81 Z" fill="hsl(53.6,70%,49%)" opacity="0.67"/><ellipse cx="42.43" cy="15.86" rx="3.12" ry="4.38" fill="hsl(60.6,60%,55%)" opacity="0.31"/><circle cx="33.89" cy="11.17" r="5.85" fill="hsl(67.6,70%,64%)" opacity="0.69"/><path d="M45.20 57.37 L57.48 34.91 L43.54 45.79 Z" fill="hsl(74.6,70%,50%)" opacity="0.39"/><ellipse cx="22.30" cy="42.57" rx="5.15" ry="3.84" fill="hsl(81.6,60%,36%)" opacity="0.72"/><circle cx="29.73" cy="55.56" r="1.70" fill="hsl(88.6,70%,40%)" opacity="0.95"/><path d="M48.79 33.89 L21.96 63.85 L7.03 40.07 Z" fill="hsl(95.6,70%,57%)" opacity="0.79"/><ellipse cx="42.82" cy="46.47" rx="5.81" ry="2.48" fill="hsl(102.6,60%,43%)" opacity="0.73"/><circle cx="24.77" cy="25.33" r="2.73" fill="hsl(109.6,70%,59%)" opacity="0.49"/><path d="M24.52 10.86 L59.17 13.73 L40.05 45.93 Z" fill="hsl(116.6,70%,50%)" opacity="0.47"/><ellipse cx="39.01" cy="45.21" rx="2.02" ry="5.42" fill="hsl(123.6,60%,64%)" opacity="0.52"/><circle cx="54.19" cy="32.94" r="2.28" fill="hsl(130.6,70%,46%)" opacity="0.42"/><path d="M0.34 8.38 L45.00 24.47 L57.07 44.19 Z" fill="hsl(137.6,70%,55%)" opacity="0.70"/><ellipse cx="52.13" cy="34.15" rx="4.08" ry="3.60" fill="hsl(144.6,60%,67%)" opacity="0.88"/><circle cx="13.59" cy="29.07" r="2.44" fill="hsl(151.6,70%,75%)" opacity="0.57"/><path d="M7.48 5.50 L26.74 17.97 L36.93 1.75 Z" fill="hsl(158.6,70%,55%)" opacity="0.61"/><ellipse cx="8.55" cy="58.36" rx="4.16" ry="3.63" fill="hsl(165.6,60%,65%)" opacity="0.86"/><circle cx="2.13" cy="20.88" r="6.15" fill="hsl(172.6,70%,73%)" opacity="0.44"/><path d="M16.50 49.71 L61.83 46.94 L28.69 28.92 Z" fill="hsl(179.6,70%,51%)" opacity="0.54"/><ellipse cx="48.39" cy="30.68" rx="4.60" ry="3.32" fill="hsl(186.6,60%,58%)" opacity="0.78"/><circle cx="36.28" cy="9.77" r="3.71" fill="hsl(193.6,70%,44%)" opacity="0.84"/><path d="M10.56 16.70 L42.53 2.24 L60.30 42.16 Z" fill="hsl(200.6,70%,53%)" opacity="0.77"/><ellipse cx="28.60" cy="55.92" rx="2.00" ry="2.47" fill="hsl(207.6,60%,43%)" opacity="0.82"/><circle cx="4.29" cy="9.24" r="1.72" fill="hsl(214.6,70%,74%)" opacity="0.82"/><path d="M31.51 22.07 L41.08 39.65 L41.48 33.89 Z" fill="hsl(221.6,70%,53%)" opacity="0.67"/><ellipse cx="42.67" cy="33.96" rx="5.85" ry="2.25" fill="hsl(228.6,60%,71%)" opacity="0.72"/><circle cx="11.02" cy="34.67" r="1.90" fill="hsl(235.6,70%,71%)" opacity="0.59"/><path d="M61.67 48.62 L21.52 20.55 L49.58 2.61 Z" fill="hsl(242.6,70%,49%)" opacity="0.39"/><ellipse cx="42.26" cy="10.76" rx="3.60" ry="5.97" fill="hsl(249.6,60%,59%)" opacity="0.74"/><circle cx="58.60" cy="6.47" r="4.44" fill="hsl(256.6,70%,41%)" opacity="0.63"/><path d="M18.18 45.83 L34.45 46.16 L30.59 1.95 Z" fill="hsl(263.6,70%,63%)" opacity="0.52"/><ellipse cx="23.67" cy="44.49" rx="2.44" ry="4.79" fill="hsl(270.6,60%,67%)" opacity="0.62"/><circle cx="11.63" cy="55.63" r="2.71" fill="hsl(277.6,70%,51%)" opacity="0.47"/><path d="M52.09 63.51 L8.04 23.76 L29.85 15.71 Z" fill="hsl(284.6,70%,42%)" opacity="0.39"/><ellipse cx="33.31" cy="48.39" rx="1.57" ry="5.53" fill="hsl(291.6,60%,59%)" opacity="0.63"/><circle cx="54.82" cy="38.36" r="3.08" fill="hsl(298.6,70%,60%)" opacity="0.44"/><path d="M57.27 32.12 L0.86 56.55 L15.72 26.10 Z" fill="hsl(305.6,70%,54%)" opacity="0.35"/><ellipse cx="62.81" cy="26.63" rx="1.11" ry="4.80" fill="hsl(312.6,60%,71%)" opacity="0.35"/><circle cx="3.68" cy="39.04" r="4.62" fill="hsl(319.6,70%,48%)" opacity="0.44"/><path d="M9.58 48.89 L27.80 39.66 L6.41 19.41 Z" fill="hsl(326.6,70%,68%)" opacity="0.78"/><ellipse cx="38.23" cy="34.16" rx="3.42" ry="3.41" fill="hsl(333.6,60%,59%)" opacity="0.36"/><circle cx="46.13" cy="25.77" r="5.16" fill="hsl(340.6,70%,63%)" opacity="0.54"/><path d="M15.89 53.02 L61.31 35.27 L27.45 35.42 Z" fill="hsl(347.6,70%,67%)" opacity="0.58"/><ellipse cx="63.23" cy="53.69" rx="2.15" ry="4.16" fill="hsl(354.6,60%,40%)" opacity="0.67"/><circle cx="10.74" cy="56.67" r="1.57" fill="hsl(1.6,70%,58%)" opacity="0.57"/><path d="M53.74 61.75 L45.34 18.62 L42.32 45.71 Z" fill="hsl(8.6,70%,47%)" opacity="0.34"/><ellipse cx="40.86" cy="62.60" rx="3.70" ry="4.19" fill="hsl(15.6,60%,66%)" opacity="0.74"/><circle cx="59.04" cy="59.25" r="1.31" fill="hsl(22.6,70%,42%)" opacity="0.61"/></svg>