<svg xmlns="http://www.w3.org/2000/svg" width="64" height="64" viewBox="0 0 64 64"><rect width="64" height="64" rx="8" fill="hsl(260.1,65%,45%)"/><circle cx="38.62" cy="17.01" r="6.54" fill="hsl(260.1,70%,70%)" opacity="0.52"/><path d="M28.91 61.88 L9.79 49.26 L2.75 59.43 Z" fill="hsl(267.1,70%,78%)" opacity="0.64"/><ellipse cx="13.33" cy="29.47" rx="2.87" ry="5.49" fill="hsl(274.1,60%,67%)" opacity="0.57"/><circle cx="20.02" cy="43.22" r="1.62" fill="hsl(281.1,70%,71%)" opacity="0.54"/><path d="M19.55 6.55 L9.32 51.17 L12.40 22.12 Z" fill="hsl(288.1,70%,56%)" opacity="0.34"/><ellipse cx="37.82" cy="15.16" rx="4.51" ry="2.96" fill="hsl(295.1,60%,64%)" opacity="0.56"/><circle cx="45.07" cy="29.65" r="4.82" fill="hsl(302.1,70%,58%)" opacity="0.45"/><path d="M28.34 39.03 L20.45 28.23 L51.05 42.99 Z" fill="hsl(309.1,70%,48%)" opacity="0.53"/><ellipse cx="17.57" cy="45.90" rx="3.21" ry="3.79" fill="hsl(316.1,60%,52%)" opacity="0.54"/><circle cx="42.35" cy="42.27" r="1.53" fill="hsl(323.1,70%,61%)" opacity="0.69"/><path d="M46.89 46.02 L12.33 18.85 L12.36 12.77 Z" fill="hsl(330.1,70%,59%)" opacity="0.33"/><ellipse cx="26.18" cy="10.36" rx="2.66" ry="1.13" fill="hsl(337.1,60%,72%)" opacity="0.64"/><circle cx="0.13" cy="1.97" r="3.48" fill="hsl(344.1,70%,74%)" opacity="0.60"/><path d="M24.73 43.54 L43.16 33.61 L57.21 8.10 Z" fill="hsl(351.1,70%,78%)" opacity="0.46"/><ellipse cx="25.01" cy="3.07" rx="4.25" ry="4.42" fill="hsl(358.1,60%,68%)" opacity="0.43"/><circle cx="20.24" cy="29.27" r="2.57" fill="hsl(5.1,70%,62%)" opacity="0.87"/><path d="M33.66 7.89 L60.78 14.32 L30.05 60.93 Z" fill="hsl(12.1,70%,80%)" opacity="0.46"/><ellipse cx="51.23" cy="52.50" rx="1.16" ry="4.52" fill="hsl(19.1,60%,43%)" opacity="0.59"/><circle cx="52.93" cy="34.08" r="2.79" fill="hsl(26.1,70%,50%)" opacity="0.43"/><path d="M63.15 11.45 L5.01 63.92 L9.47 16.83 Z" fill="hsl(33.1,70%,71%)" opacity="0.52"/><ellipse cx="21.80" cy="28.78" rx="1.84" ry="3.72" fill="hsl(40.1,60%,39%)" opacity="0.82"/><circle cx="57.38" cy="5.45" r="2.22" fill="hsl(47.1,70%,47%)" opacity="0.47"/><path d="M41.13 34.16 L45.83 7.64 L21.64 40.14 Z" fill="hsl(54.1,70%,62%)" opacity="0.72"/><ellipse cx="16.42" cy="12.63" rx="3.51" ry="4.56" fill="hsl(61.1,60%,70%)" opacity="0.33"/><circle cx="39.88" cy="13.81" r="3.06" fill="hsl(68.1,70%,43%)" opacity="0.76"/><path d="M17.24 26.22 L21.89 15.99 L15.34 39.83 Z" fill="hsl(75.1,70%,55%)" opacity="0.72"/><ellipse cx="5.22" cy="29.76" rx="2.15" ry="1.58" fill="hsl(82.1,60%,40%)" opacity="0.84"/><circle cx="54.61" cy="14.43" r="2.87" fill="hsl(89.1,70%,71%)" opacity="0.97"/><path d="M49.86 4.83 L61.95 22.08 L55.41 63.62 Z" fill="hsl(96.1,70%,66%)" opacity="0.46"/><ellipse cx="51.53" cy="63.90" rx="1.28" ry="4.76" fill="hsl(103.1,60%,72%)" opacity="0.80"/><circle cx="31.01" cy="60.66" r="6.72" fill="hsl(110.1,70%,77%)" opacity="0.91"/><path d="M15.17 3.68 L53.75 40.27 L0.94 27.66 Z" fill="hsl(117.1,70%,50%)" opacity="0.33"/><ellipse cx="49.23" cy="36.56" rx="4.68" ry="1.75" fill="hsl(124.1,60%,40%)" opacity="0.43"/><circle cx="60.58" cy="38.47" r="6.88" fill="hsl(131.1,70%,55%)" opacity="0.54"/><path d="M59.74 34.05 L25.26 20.75 L15.69 21.04 Z" fill="hsl(138.1,70%,71%)" opacity="0.32"/><ellipse cx="28.34" cy="55.27" rx="4.36" ry="5.11" fill="hsl(145.1,60%,77%)" opacity="0.65"/><circle cx="26.28" cy="50.33" r="1.05" fill="hsl(152.1,70%,74%)" opacity="0.89"/><path d="M32.98 35.96 L38.04 48.71 L43.71 44.45 Z" fill="hsl(159.1,70%,63%)" opacity="0.41"/><ellipse cx="28.73" cy="27.92" rx="3.18" ry="2.63" fill="hsl(166.1,60%,80%)" opacity="0.73"/><circle cx="2.13" cy="36.97" r="5.77" fill="hsl(173.1,70%,47%)" opacity="0.87"/><path d="M6.60 24.52 L28.52 55.89 L34.16 51.77 Z" fill="hsl(180.1,70%,49%)" opacity="0.63"/><ellipse cx="2.44" cy="63.29" rx="5.62" ry="3.94" fill="hsl(187.1,60%,55%)" opacity="0.67"/><circle cx="62.24" cy="30.08" r="4.41" fill="hsl(194.1,70%,56%)" opacity="0.41"/><path d="M60.00 11.94 L49.51 25.25 L23.78 13.65 Z" fill="hsl(201.1,70%,54%)" opacity="0.32"/><ellipse cx="46.13" cy="3.53" rx="4.57" ry="2.07" fill="hsl(208.1,60%,76%)" opacity="0.44"/><circle cx="22.52" cy="2.88" r="6.03" fill="hsl(215.1,70%,67%)" opacity="0.95"/><path d="M45.00 2.74 L22.43 62.01 L37.73 43.81 Z" fill="hsl(222.1,70%,42%)" opacity="0.77"/><ellipse cx="0.52" cy="23.40" rx="3.66" ry="1.35" fill="hsl(229.1,60%,39%)" opacity="0.80"/><circle cx="33.14" cy="20.14" r="1.23" fill="hsl(236.1,70%,71%)" opacity="0.90"/><path d="M50.87 50.79 L4.96 2.83 L5.64 58.90 Z" fill="hsl(243.1,70%,55%)" opacity="0.46"/><ellipse cx="23.31" cy="11.75" rx="4.50" ry="2.34" fill="hsl(250.1,60%,52%)" opacity="0.31"/><circle cx="41.05" cy="1.49" r="5.20" fill="hsl(257.1,70%,44%)" opacity="0.50"/><path d="M52.62 40.54 L33.49 5.04 L61.37 54.90 Z" fill="hsl(264.1,70%,54%)" opacity="0.30"/><ellipse cx="40.15" cy="42.85" rx="3.84" ry="5.85" fill="hsl(271.1,60%,47%)" opacity="0.46"/><circle cx="50.34" cy="10.52" r="2.66" fill="hsl(278.1,70%,65%)" opacity="0.98"/><path d="M37.91 20.58 L50.99 12.43 L30.47 30.42 Z" fill="hsl(285.1,70%,67%)" opacity="0.52"/><ellipse cx="43.73" cy="63.88" rx="4.05" ry="3.33" fill="hsl(292.1,60%,63%)" opacity="0.62"/><circle cx="30.66" cy="32.84" r="2.41" fill="hsl(299.1,70%,77%)" opacity="0.92"/><path d="M33.20 16.46 L60.59 40.87 L52.98 38.08 Z" fill="hsl(306.1,70%,72%)" opacity="0.39"/><ellipse cx="45.11" cy="39.75" rx="1.01" ry="4.76" fill="hsl(313.1,60%,42%)" opacity="0.83"/><circle cx="58.94" cy="62.67" r="5.81" fill="hsl(320.1,70%,50%)" opacity="0.69"/><path d="M26.69 56.39 L46.58 30.87 L37.14 35.56 Z" fill="hsl(327.1,70%,49%)" opacity="0.52"/><ellipse cx="0.03" cy="7.27" rx="2.44" ry="2.22" fill="hsl(334.1,60%,41%)" opacity="0.78"/><circle cx="29.97" cy="59.11" r="2.35" fill="hsl(341.1,70%,52%)" opacity="0.77"/><path d="M4.38 24.63 L8.16 42.54 L62.99 36.55 Z" fill="hsl(348.1,70%,58%)" opacity="0.48"/><ellipse cx="37.99" cy="12.45" rx="1.59" ry="2.16" fill="hsl(355.1,60%,58%)" opacity="0.59"/><circle cx="56.94" cy="42.38" r="6.69" fill="hsl(2.1,70%,78%)" opacity="0.49"/><path d="M47.50 18.34 L26.64 38.48 L33.21 34.54 Z" fill="hsl(9.1,70%,68%)" opacity="0.67"/><ellipse cx="38.77" cy="1.33" rx="4.18" ry="1.56" fill="hsl(16.1,60%,51%)" opacity="0.84"/><circle cx="12.49" cy="33.57" r="1.55" fill="hsl(23.1,70%,60%)" opacity="0.94"/><path d="M60.86 62.03 L36.73 43.42 L41.60 41.04 Z" fill="hsl(30.1,70%,71%)" opacity="0.77"/><ellipse cx="42.44" cy="44.92" rx="1.68" ry="3.43" fill="hsl(37.1,60%,76%)" opacity="0.61"/><circle cx="24.58" cy="41.47" r="3.36" fill="hsl(44.1,70%,42%)" opacity="0.50"/><path d="M31.75 19.74 L45.52 45.89 L18.04 1.65 Z" fill="hsl(51.1,70%,57%)" opacity="0.51"/><ellipse cx="23.90" cy="16.41" rx="2.37" ry="2.74" fill="hsl(58.1,60%,48%)" opacity="0.84"/><circle cx="30.75" cy="55.19" r="4.72" fill="hsl(65.1,70%,52%)" opacity="0.89"/><path d="M31.89 1.56 L2.35 25.00 L2.97 28.64 Z" fill="hsl(72.1,70%,56%)" opacity="0.52"/><ellipse cx="33.78" cy="20.48" rx="1.23" ry="4.93" fill="hsl(79.1,60%,47%)" opacity="0.57"/><circle cx="52.77" cy="57.88" r="4.04" fill="hsl(86.1,70%,71%)" opacity="0.67"/><path d="M51.22 0.24 L8.72 36.75 L10.49 53.58 Z" fill="hsl(93.1,70%,77%)" opacity="0.63"/><ellipse cx="31.87" cy="14.36" rx="1.81" ry="2.67" fill="hsl(100.1,60%,43%)" opacity="0.87"/><circle cx="13.96" cy="31.09" r="4.60" fill="hsl(107.1,70%,78%)" opacity="0.71"/><path d="M3.08 1.13 L2.34 48.65 L16.71 33.62 Z" fill="hsl(114.1,70%,70%)" opacity="0.52"/><ellipse cx="1.75" cy="24.53" rx="5.50" ry="5.65" fill="hsl(121.1,60%,54%)" opacity="0.75"/><circle cx="20.78" cy="9.80" r="4.72" fill="hsl(128.1,70%,52%)" opacity="0.88"/><path d="M49.04 47.94 L28.94 12.25 L25.53 28.69 Z" fill="hsl(135.1,70%,48%)" opacity="0.49"/><ellipse cx="11.78" cy="8.13" rx="3.65" ry="2.93" fill="hsl(142.1,60%,73%)" opacity="0.43"/><circle cx="20.24" cy="47.63" r="7.00" fill="hsl(149.1,70%,75%)" opacity="0.91"/><path d="M16.25 18.39 L2.50 27.12 L26.92 49.14 Z" fill="hsl(156.1,70%,65%)" opacity="0.74"/><ellipse cx="18.70" cy="34.99" rx="3.12" ry="4.83" fill="hsl(163.1,60%,60%)" opacity="0.56"/><circle cx="53.94" cy="38.48" r="1.36" fill="hsl(170.1,70%,55%)" opacity="0.82"/><path d="M27.78 5.98 L50.76 45.90 L45.29 9.69 Z" fill="hsl(177.1,70%,42%)" opacity="0.35"/><ellipse cx="62.83" cy="0.04" rx="4.86" ry="5.34" fill="hsl(184.1,60%,44%)" opacity="0.43"/><circle cx="48.20" cy="23.86" r="3.28" fill="hsl(191.1,70%,64%)" opacity="0.71"/><path d="M26.92 10.25 L5.76 57.13 L58.44 17.48 Z" fill="hsl(198.1,70%,80%)" opacity="0.43"/><ellipse cx="46.90" cy="2.05" rx="5.47" ry="1.53" fill="hsl(205.1,60%,60%)" opacity="0.63"/><circle cx="23.95" cy="7.62" r="4.92" fill="hsl(212.1,70%,80%)" opacity="0.59"/><path d="M9.51 55.00 L15.30 42.95 L32.94 22.96 Z" fill="hsl(219.1,70%,71%)" opacity="0.72"/><ellipse cx="36.63" cy="59.63" rx="4.42" ry="1.15" fill="hsl(226.1,60%,61%)" opacity="0.74"/><circle cx="53.79" cy="10.72" r="2.32" fill="hsl(233.1,70%,76%)" opacity="0.45"/><path d="M29.67 19.03 L23.04 42.17 L33.36 34.08 Z" fill="hsl(240.1,70%,75%)" opacity="0.43"/><ellipse cx="34.62" cy="28.09" rx="5.88" ry="3.81" fill="hsl(247.1,60%,44%)" opacity="0.70"/><circle cx="30.26" cy="57.07" r="1.82" fill="hsl(254.1,70%,55%)" opacity="0.77"/><path d="M46.23 5.91 L27.29 0.64 L54.19 15.78 Z" fill="hsl(261.1,70%,65%)" opacity="0.40"/><ellipse cx="33.57" cy="15.35" rx="1.06" ry="1.42" fill="hsl(268.1,60%,36%)" opacity="0.82"/><circle cx="17.60" cy="51.54" r="2.35" fill="hsl(275.1,70%,61%)" opacity="0.74"/><path d="M54.83 23.57 L59.11 14.89 L23.08 59.76 Z" fill="hsl(282.1,70%,57%)" opacity="0.58"/><ellipse cx="54.27" cy="20.56" rx="2.47" ry="1.87" fill="hsl(289.1,60%,36%)" opacity="0.84"/><circle cx="43.72" cy="60.79" r="2.75" fill="hsl(296.1,70%,58%)" opacity="0.91"/><path d="M27.82 3.72 L8.89 18.39 L12.85 4.14 Z" fill="hsl(303.1,70%,61%)" opacity="0.60"/><ellipse cx="41.07" cy="18.61" rx="2.50" ry="2.47" fill="hsl(310.1,60%,38%)" opacity="0.40"/><circle cx="47.56" cy="55.56" r="2.10" fill="hsl(317.1,70%,45%)" opacity="0.97"/><path d="M53.08 15.12 L49.62 31.18 L35.50 30.86 Z" fill="hsl(324.1,70%,46%)" opacity="0.33"/><ellipse cx="7.17" cy="46.73" rx="5.27" ry="1.90" fill="hsl(331.1,60%,55%)" opacity="0.35"/><circle cx="12.62" cy="60.03" r="4.34" fill="hsl(338.1,70%,47%)" opacity="0.60"/><path d="M36.97 37.61 L34.94 11.43 L18.30 59.26 Z" fill="hsl(345.1,70%,74%)" opacity="0.71"/><ellipse cx="22.02" cy="47.11" rx="1.89" ry="2.20" fill="hsl(352.1,60%,70%)" opacity="0.63"/><circle cx="36.19" cy="59.87" r="6.56" fill="hsl(359.1,70%,74%)" opacity="0.72"/><path d="M41.21 49.61 L40.78 19.70 L10.30 48.66 Z" fill="hsl(6.1,70%,66%)" opacity="0.69"/><ellipse cx="9.59" cy="32.28" rx="3.79" ry="4.91" fill="hsl(13.1,60%,46%)" opacity="0.76"/><circle cx="16.95" cy="53.67" r="6.83" fill="hsl(20.1,70%,56%)" opacity="0.59"/><path d="M44.32 13.67 L13.12 57.88 L19.57 18.91 Z" fill="hsl(27.1,70%,76%)" opacity="0.80"/><ellipse cx="55.28" cy="57.58" rx="4.79" ry="4.08" fill="hsl(34.1,60%,48%)" opacity="0.51"/><circle cx="26.74" cy="18.03" r="2.06" fill="hsl(41.1,70%,43%)" opacity="0.41"/><path d="M6.28 0.19 L5.55 47.93 L4.59 19.87 Z" fill="hsl(48.1,70%,44%)" opacity="0.43"/><ellipse cx="37.26" cy="4.73" rx="2.57" ry="4.60" fill="hsl(55.1,60%,41%)" opacity="0.48"/><circle cx="10.46" cy="28.01" r="5.59" fill="hsl(62.1,70%,74%)" opacity="0.72"/><path d="M10.49 51.97 L57.74 8.34 L42.95 52.33 Z" fill="hsl(69.1,70%,57%)" opacity="0.42"/><ellipse cx="13.77" cy="53.46" rx="4.92" ry="5.14" fill="hsl(76.1,60%,74%)" opacity="0.57"/><circle cx="23.31" cy="52.47" r="6.46" fill="hsl(83.1,70%,46%)" opacity="0.71"/><path d="M0.93 48.70 L0.44 32.62 L63.38 6.87 Z" fill="hsl(90.1,70%,71%)" opacity="0.48"/><ellipse cx="54.88" cy="14.87" rx="4.64" ry="2.67" fill="hsl(97.1,60%,73%)" opacity="0.73"/><circle cx="59.33" cy="57.92" r="6.88" fill="hsl(104.1,70%,78%)" opacity="0.96"/><path d="M16.32 26.17 L13.73 54.56 L33.85 4.64 Z" fill="hsl(111.1,70%,51%)" opacity="0.47"/><ellipse cx="46.13" cy="51.28" rx="3.78" ry="1.34" fill="hsl(118.1,60%,61%)" opacity="0.34"/><circle cx="38.46" cy="33.36" r="1.64" fill="hsl(125.1,70%,77%)" opacity="0.57"/><path d="M29.73 30.19 L56.25 54.86 L13.86 27.43 Z" fill="hsl(132.1,70%,70%)" opacity="0.31"/><ellipse cx="34.14" cy="35.18" rx="4.46" ry="3.09" fill="hsl(139.1,60%,77%)" opacity="0.82"/><circle cx="6.25" cy="18.68" r="4.92" fill="hsl(146.1,70%,71%)" opacity="0.90"/><path d="M19.01 31.84 L7.88 7.93 L37.20 27.83 Z" fill="hsl(153.1,70%,47%)" opacity="0.40"/><ellipse cx="42.50" cy="39.91" rx="3.64" ry="1.92" fill="hsl(160.1,60%,70%)" opacity="0.38"/><circle cx="15.59" cy="12.88" r="4.95" fill="hsl(167.1,70%,67%)" opacity="0.43"/><path d="M25.02 58.24 L5.68 61.86 L25.56 33.78 Z" fill="hsl(174.1,70%,54%)" opacity="0.32"/><ellipse cx="44.53" cy="9.64" rx="2.63" ry="5.00" fill="hsl(181.1,60%,59%)" opacity="0.35"/><circle cx="37.57" cy="52.79" r="4.13" fill="hsl(188.1,70%,48%)" opacity="0.45"/><path d="M25.78 13.38 L26.74 20.97 L8.94 62.18 Z" fill="hsl(195.1,70%,79%)" opacity="0.54"/><ellipse cx="12.70" cy="12.09" rx="1.30" ry="3.71" fill="hsl(202.1,60%,48%)" opacity="0.66"/><circle cx="32.59" cy="20.19" r="5.44" fill="hsl(209.1,70%,45%)" opacity="0.57"/><path d="M12.75 13.28 L46.72 20.66 L45.96 56.99 Z" fill="hsl(216.1,70%,79%)" opacity="0.71"/><ellipse cx="21.14" cy="18.08" rx="2.84" ry="5.95" fill="hsl(223.1,60%,40%)" opacity="0.79"/><circle cx="54.06" cy="58.09" r="1.98" fill="hsl(230.1,70%,41%)" opacity="0.78"/><path d="M3.82 2.30 L52.64 38.21 L36.23 19.64 Z" fill="hsl(237.1,70%,59%)" opacity="0.70"/><ellipse cx="18.31" cy="12.94" rx="5.52" ry="4.96" fill="hsl(244.1,60%,47%)" opacity="0.30"/><circle cx="36.30" cy="55.50" r="2.01" fill="hsl(251.1,70%,58%)" opacity="0.55"/><path d="M22.30 52.80 L29.17 9.99 L43.38 51.48 Z" fill="hsl(258.1,70%,75%)" opacity="0.52"/><ellipse cx="45.30" cy="48.46" rx="1.87" ry="5.61" fill="hsl(265.1,60%,65%)" opacity="0.33"/><circle cx="1.15" cy="35.50" r="4.43" fill="hsl(272.1,70%,70%)" opacity="0.67"/><path d="M6.18 6.44 L2.19 0.17 L60.98 12.67 Z" fill="hsl(279.1,70%,65%)" opacity="0.72"/><ellipse cx="63.14" cy="58.57" rx="5.38" ry="5.52" fill="hsl(286.1,60%,37%)" opacity="0.46"/><circle cx="29.33" cy="45.29" r="2.85" fill="hsl(293.1,70%,44%)" opacity="0.92"/><path d="M3.45 47.92 L19.16 10.77 L59.06 21.78 Z" fill="hsl(300.1,70%,68%)" opacity="0.71"/><ellipse cx="28.84" cy="50.39" rx="4.24" ry="2.44" fill="hsl(307.1,60%,56%)" opacity="0.83"/><circle cx="13.26" cy="56.00" r="2.42" fill="hsl(314.1,70%,73%)" opacity="0.43"/><path d="M7.55 15.43 L2.76 52.63 L29.44 14.71 Z" fill="hsl(321.1,70%,56%)" opacity="0.65"/><ellipse cx="10.76" cy="54.15" rx="5.03" ry="5.76" fill="hsl(328.1,60%,66%)" opacity="0.61"/><circle cx="40.93" cy="0.71" r="6.52" fill="hsl(335.1,70%,59%)" opacity="0.67"/><path d="M30.21 2.03 L7.37 55.40 L48.21 57.64 Z" fill="hsl(342.1,70%,76%)" opacity="0.68"/><ellipse cx="31.49" cy="16.56" rx="4.45" ry="5.61" fill="hsl(349.1,60%,76%)" opacity="0.34"/><circle cx="20.54" cy="1.15" r="5.07" fill="hsl(356.1,70%,71%)" opacity="0.60"/><path d="M23.79 1.67 L30.76 41.36 L58.65 9.43 Z" fill="hsl(3.1,70%,47%)" opacity="0.52"/><ellipse cx="31.68" cy="8.03" rx="2.86" ry="3.26" fill="hsl(10.1,60%,41%)" opacity="0.86"/><circle cx="12.60" cy="35.77" r="1.53" fill="hsl(17.1,70%,48%)" opacity="0.64"/><path d="M15.14 52.38 L61.59 61.63 L26.41 5.58 Z" fill="hsl(24.1,70%,51%)" opacity="0.47"/><ellipse cx="42.88" cy="57.29" rx="4.55" ry="3.34" fill="hsl(31.1,60%,76%)" opacity="0.90"/><circle cx="0.14" cy="64.00" r="6.40" fill="hsl(38.1,70%,45%)" opacity="0.56"/><path d="M30.17 16.68 L9.01 52.17 L29.46 59.54 Z" fill="hsl(45.1,70%,79%)" opacity="0.35"/><ellipse cx="41.81" cy="6.02" rx="4.53" ry="4.56" fill="hsl(52.1,60%,67%)" opacity="0.34"/><circle cx="26.16" cy="16.98" r="1.56" fill="hsl(59.1,70%,69%)" opacity="0.78"/><path d="M33.61 29.36 L25.86 23.14 L18.69 4.13 Z" fill="hsl(66.1,70%,56%)" opacity="0.43"/><ellipse cx="50.15" cy="26.13" rx="3.06" ry="1.36" fill="hsl(73.1,60%,59%)" opacity="0.38"/><circle cx="43.13" cy="54.78" r="1.87" fill="hsl(80.1,70%,68%)" opacity="0.73"/><path d="M16.26 11.80 L36.21 51.15 L59.22 23.90 Z" fill="hsl(87.1,70%,70%)" opacity="0.77"/><ellipse cx="3.17" cy="44.13" rx="1.43" ry="2.00" fill="hsl(94.1,60%,48%)" opacity="0.84"/><circle cx="28.26" cy="9.84" r="5.85" fill="hsl(101.1,70%,77%)" opacity="0.93"/><path d="M0.26 4.40 L58.53 29.82 L0.50 42.98 Z" fill="hsl(108.1,70%,73%)" opacity="0.79"/><ellipse cx="41.36" cy="23.83" rx="1.33" ry="1.89" fill="hsl(115.1,60%,55%)" opacity="0.89"/><circle cx="32.72" cy="59.33" r="4.11" fill="hsl(122.1,70%,76%)" opacity="0.81"/><path d="M39.82 27.74 L30.14 10.48 L44.88 44.34 Z" fill="hsl(129.1,70%,52%)" opacity="0.57"/><ellipse cx="59.50" cy="4.21" rx="2.63" ry="2.41" fill="hsl(136.1,60%,39%)" opacity="0.72"/><circle cx="21.06" cy="21.10" r="1.07" fill="hsl(143.1,70%,61%)" opacity="1.00"/><path d="M38.64 14.52 L26.14 56.03 L27.33 36.50 Z" fill="hsl(150.1,70%,50%)" opacity="0.72"/><ellipse cx="35.33" cy="35.71" rx="5.30" ry="4.74" fill="hsl(157.1,60%,58%)" opacity="0.55"/><circle cx="9.60" cy="38.80" r="2.54" fill="hsl(164.1,70%,41%)" opacity="0.59"/><path d="M19.44 33.36 L8.50 51.35 L45.79 8.66 Z" fill="hsl(171.1,70%,66%)" opacity="0.43"/><ellipse cx="55.77" cy="22.66" rx="5.81" ry="5.06" fill="hsl(178.1,60%,49%)" opacity="0.32"/><circle cx="22.15" cy="29.21" r="1.02" fill="hsl(185.1,70%,78%)" opacity="0.47"/><path d="M10.98 14.33 L58.81 6.89 L12.85 33.83 Z" fill="hsl(192.1,70%,45%)" opacity="0.48"/><ellipse cx="44.68" cy="37.87" rx="1.90" ry="3.46" fill="hsl(199.1,60%,55%)" opacity="0.55"/><circle cx="47.57" cy="53.66" r="4.25" fill="hsl(206.1,70%,59%)" opacity="0.65"/><path d="M25.51 9.11 L31.15 45.05 L19.90 47.68 Z" fill="hsl(213.1,70%,46%)" opacity="0.74"/><ellipse cx="11.52" cy="35.35" rx="5.24" ry="2.48" fill="hsl(220.1,60%,65%)" opacity="0.82"/><circle cx="15.70" cy="23.38" r="1.32" fill="hsl(227.1,70%,67%)" opacity="0.56"/><path d="M12.71 46.92 L45.11 49.08 L50.14 53.25 Z" fill="hsl(234.1,70%,69%)" opacity="0.41"/><ellipse cx="2.37" cy="26.41" rx="5.88" ry="5.01" fill="hsl(241.1,60%,45%)" opacity="0.88"/><circle cx="41.95" cy="58.78" r="3.91" fill="hsl(248.1,70%,45%)" opacity="0.52"/><path d="M9.58 37.00 L56.91 46.30 L60.98 60.51 Z" fill="hsl(255.1,70%,64%)" opacity="0.58"/><ellipse cx="45.03" cy="50.21" rx="4.50" ry="2.03" fill="hsl(262.1,60%,76%)" opacity="0.77"/><circle cx="56.92" cy="52.01" r="5.05" fill="hsl(269.1,70%,62%)" opacity="0.48"/><path d="M5.27 46.43 L7.34 51.16 L20.25 39.07 Z" fill="hsl(276.1,70%,70%)" opacity="0.71"/><ellipse cx="53.08" cy="55.29" rx="1.98" ry="3.88" fill="hsl(283.1,60%,39%)" opacity="0.44"/><circle cx="11.67" cy="61.62" r="2.58" fill="hsl(290.1,70%,53%)" opacity="0.59"/><path d="M58.52 61.05 L6.80 13.51 L11.65 28.68 Z" fill="hsl(297.1,70%,56%)" opacity="0.46"/><ellipse cx="17.50" cy="43.54" rx="1.30" ry="4.18" fill="hsl(304.1,60%,70%)" opacity="0.70"/><circle cx="25.98" cy="37.05" r="4.12" fill="hsl(311.1,70%,51%)" opacity="0.70"/><path d="M21.49 16.76 L30.01 62.26 L46.36 55.93 Z" fill="hsl(318.1,70%,53%)" opacity="0.55"/><ellipse cx="25.36" cy="13.94" rx="4.65" ry="2.95" fill="hsl(325.1,60%,67%)" opacity="0.40"/><circle cx="17.98" cy="42.49" r="5.92" fill="hsl(332.1,70%,58%)" opacity="0.91"/><path d="M39.85 39.95 L25.83 62.81 L55.81 50.60 Z" fill="hsl(339.1,70%,61%)" opacity="0.77"/><ellipse cx="12.24" cy="59.06" rx="4.38" ry="1.63" fill="hsl(346.1,60%,71%)" opacity="0.60"/><circle cx="26.66" cy="9.24" r="6.09" fill="hsl(353.1,70%,54%)" opacity="0.60"/></svg>