<svg xmlns="http://www.w3.org/2000/svg" width="64" height="64" viewBox="0 0 64 64"><rect width="64" height="64" rx="8" fill="hsl(65.3,65%,45%)"/><circle cx="39.37" cy="63.16" r="3.79" fill="hsl(65.3,70%,75%)" opacity="0.51"/><path d="M56.51 57.47 L40.81 2.00 L49.05 34.59 Z" fill="hsl(72.3,70%,59%)" opacity="0.79"/><ellipse cx="48.82" cy="19.86" rx="2.78" ry="3.46" fill="hsl(79.3,60%,43%)" opacity="0.54"/><circle cx="58.64" cy="26.11" r="6.93" fill="hsl(86.3,70%,76%)" opacity="0.63"/><path d="M52.95 22.83 L8.02 51.95 L31.32 55.36 Z" fill="hsl(93.3,70%,41%)" opacity="0.67"/><ellipse cx="31.38" cy="27.43" rx="4.11" ry="1.37" fill="hsl(100.3,60%,50%)" opacity="0.35"/><circle cx="42.08" cy="54.96" r="4.67" fill="hsl(107.3,70%,46%)" opacity="0.92"/><path d="M8.96 46.58 L18.74 22.45 L3.59 38.90 Z" fill="hsl(114.3,70%,73%)" opacity="0.41"/><ellipse cx="4.43" cy="14.75" rx="5.45" ry="2.70" fill="hsl(121.3,60%,67%)" opacity="0.51"/><circle cx="38.26" cy="52.84" r="3.66" fill="hsl(128.3,70%,77%)" opacity="0.55"/><path d="M46.05 24.28 L59.57 2.68 L63.62 5.07 Z" fill="hsl(135.3,70%,67%)" opacity="0.39"/><ellipse cx="41.63" cy="39.29" rx="5.51" ry="5.93" fill="hsl(142.3,60%,70%)" opacity="0.63"/><circle cx="61.40" cy="43.98" r="4.91" fill="hsl(149.3,70%,67%)" opacity="0.52"/><path d="M48.40 29.10 L34.76 13.95 L8.34 60.23 Z" fill="hsl(156.3,70%,42%)" opacity="0.56"/><ellipse cx="42.82" cy="16.26" rx="5.86" ry="5.39" fill="hsl(163.3,60%,62%)" opacity="0.81"/><circle cx="45.44" cy="22.23" r="6.16" fill="hsl(170.3,70%,78%)" opacity="0.99"/><path d="M52.83 41.02 L17.36 14.13 L30.21 26.68 Z" fill="hsl(177.3,70%,67%)" opacity="0.64"/><ellipse cx="32.15" cy="21.58" rx="2.18" ry="4.71" fill="hsl(184.3,60%,40%)" opacity="0.79"/><circle cx="45.80" cy="49.83" r="4.25" fill="hsl(191.3,70%,65%)" opacity="0.68"/><path d="M45.79 37.22 L46.42 23.15 L60.81 62.42 Z" fill="hsl(198.3,70%,78%)" opacity="0.33"/><ellipse cx="28.41" cy="34.70" rx="5.98" ry="5.49" fill="hsl(205.3,60%,37%)" opacity="0.30"/><circle cx="19.64" cy="11.53" r="3.70" fill="hsl(212.3,70%,71%)" opacity="0.48"/><path d="M36.45 10.83 L20.52 29.58 L57.17 42.66 Z" fill="hsl(219.3,70%,64%)" opacity="0.76"/><ellipse cx="42.30" cy="26.89" rx="1.06" ry="3.97" fill="hsl(226.3,60%,78%)" opacity="0.55"/><circle cx="44.95" cy="31.97" r="4.69" fill="hsl(233.3,70%,65%)" opacity="0.41"/><path d="M12.86 49.14 L16.29 45.30 L40.89 14.75 Z" fill="hsl(240.3,70%,73%)" opacity="0.35"/><ellipse cx="20.97" cy="19.41" rx="3.64" ry="1.97" fill="hsl(247.3,60%,52%)" opacity="0.84"/><circle cx="24.69" cy="33.20" r="1.66" fill="hsl(254.3,70%,47%)" opacity="0.92"/><path d="M19.58 1.31 L61.23 20.15 L5.36 39.96 Z" fill="hsl(261.3,70%,69%)" opacity="0.49"/><ellipse cx="59.45" cy="19.39" rx="5.99" ry="5.96" fill="hsl(268.3,60%,76%)" opacity="0.33"/><circle cx="11.09" cy="49.20" r="3.56" fill="hsl(275.3,70%,42%)" opacity="0.63"/><path d="M60.85 40.79 L11.81 53.25 L8.29 60.28 Z" fill="hsl(282.3,70%,42%)" opacity="0.64"/><ellipse cx="24.95" cy="21.89" rx="1.78" ry="3.06" fill="hsl(289.3,60%,66%)" opacity="0.45"/><circle cx="11.89" cy="18.22" r="4.08" fill="hsl(296.3,70%,74%)" opacity="0.76"/><path d="M22.38 16.12 L12.79 1.60 L0.55 43.52 Z" fill="hsl(303.3,70%,69%)" opacity="0.33"/><ellipse cx="14.36" cy="36.22" rx="4.37" ry="3.99" fill="hsl(310.3,60%,70%)" opacity="0.52"/><circle cx="49.89" cy="43.93" r="2.34" fill="hsl(317.3,70%,55%)" opacity="0.50"/><path d="M34.64 25.40 L60.59 11.29 L19.37 43.45 Z" fill="hsl(324.3,70%,57%)" opacity="0.73"/><ellipse cx="35.22" cy="21.91" rx="2.34" ry="1.19" fill="hsl(331.3,60%,69%)" opacity="0.70"/><circle cx="8.71" cy="22.04" r="1.80" fill="hsl(338.3,70%,66%)" opacity="0.44"/><path d="M42.93 37.10 L40.94 11.47 L52.03 43.75 Z" fill="hsl(345.3,70%,76%)" opacity="0.38"/><ellipse cx="21.12" cy="62.13" rx="2.00" ry="5.41" fill="hsl(352.3,60%,75%)" opacity="0.82"/><circle cx="5.20" cy="33.59" r="4.29" fill="hsl(359.3,70%,43%)" opacity="0.90"/><path d="M24.01 60.01 L20.97 53.94 L2.43 1.83 Z" fill="hsl(6.3,70%,65%)" opacity="0.68"/><ellipse cx="38.13" cy="5.28" rx="4.36" ry="3.40" fill="hsl(13.3,60%,45%)" opacity="0.36"/><circle cx="51.69" cy="57.85" r="1.57" fill="hsl(20.3,70%,64%)" opacity="0.89"/><path d="M11.61 42.57 L46.94 32.20 L48.10 41.79 Z" fill="hsl(27.3,70%,40%)" opacity="0.61"/><ellipse cx="17.20" cy="18.93" rx="1.62" ry="5.29" fill="hsl(34.3,60%,57%)" opacity="0.73"/><circle cx="43.94" cy="51.79" r="4.09" fill="hsl(41.3,70%,59%)" opacity="0.90"/><path d="M7.23 2.92 L41.23 1.56 L17.03 33.05 Z" fill="hsl(48.3,70%,77%)" opacity="0.55"/><ellipse cx="49.28" cy="17.09" rx="4.75" ry="1.89" fill="hsl(55.3,60%,61%)" opacity="0.38"/><circle cx="23.37" cy="4.78" r="1.46" fill="hsl(62.3,70%,45%)" opacity="0.51"/><path d="M22.90 60.96 L0.80 8.58 L45.67 52.17 Z" fill="hsl(69.3,70%,41%)" opacity="0.61"/><ellipse cx="44.64" cy="23.35" rx="1.51" ry="3.30" fill="hsl(76.3,60%,40%)" opacity="0.54"/><circle cx="8.09" cy="47.87" r="5.03" fill="hsl(83.3,70%,45%)" opacity="0.60"/><path d="M40.82 30.93 L20.39 47.68 L34.54 5.42 Z" fill="hsl(90.3,70%,65%)" opacity="0.43"/><ellipse cx="63.00" cy="5.08" rx="5.07" ry="5.29" fill="hsl(97.3,60%,55%)" opacity="0.67"/><circle cx="39.05" cy="56.38" r="4.71" fill="hsl(104.3,70%,51%)" opacity="0.98"/><path d="M38.93 14.52 L60.91 28.32 L23.32 2.72 Z" fill="hsl(111.3,70%,46%)" opacity="0.32"/><ellipse cx="58.50" cy="52.88" rx="3.08" ry="1.02" fill="hsl(118.3,60%,80%)" opacity="0.63"/><circle cx="53.42" cy="8.58" r="1.71" fill="hsl(125.3,70%,72%)" opacity="0.55"/><path d="M45.66 4.90 L28.18 7.30 L10.48 45.87 Z" fill="hsl(132.3,70%,71%)" opacity="0.49"/><ellipse cx="58.33" cy="61.32" rx="1.14" ry="5.31" fill="hsl(139.3,60%,42%)" opacity="0.38"/><circle cx="37.32" cy="52.59" r="4.41" fill="hsl(146.3,70%,43%)" opacity="0.70"/><path d="M57.67 57.13 L36.92 16.13 L34.44 18.41 Z" fill="hsl(153.3,70%,44%)" opacity="0.57"/><ellipse cx="29.31" cy="46.36" rx="5.68" ry="5.26" fill="hsl(160.3,60%,79%)" opacity="0.68"/><circle cx="6.93" cy="54.65" r="2.11" fill="hsl(167.3,70%,76%)" opacity="0.86"/><path d="M5.47 8.21 L48.20 53.99 L22.18 47.44 Z" fill="hsl(174.3,70%,43%)" opacity="0.44"/><ellipse cx="46.28" cy="4.49" rx="2.73" ry="1.17" fill="hsl(181.3,60%,48%)" opacity="0.86"/><circle cx="9.30" cy="35.12" r="6.11" fill="hsl(188.3,70%,49%)" opacity="0.94"/><path d="M48.75 13.24 L25.81 27.30 L32.55 59.25 Z" fill="hsl(195.3,70%,40%)" opacity="0.44"/><ellipse cx="58.14" cy="35.12" rx="5.71" ry="1.71" fill="hsl(202.3,60%,49%)" opacity="0.69"/><circle cx="14.04" cy="39.09" r="4.92" fill="hsl(209.3,70%,51%)" opacity="0.56"/><path d="M13.17 33.16 L40.00 54.43 L29.29 2.45 Z" fill="hsl(216.3,70%,44%)" opacity="0.53"/><ellipse cx="20.55" cy="33.84" rx="5.51" ry="3.52" fill="hsl(223.3,60%,51%)" opacity="0.66"/><circle cx="52.57" cy="55.10" r="3.43" fill="hsl(230.3,70%,77%)" opacity="0.54"/><path d="M25.57 40.91 L2.67 3.32 L42.91 19.98 Z" fill="hsl(237.3,70%,77%)" opacity="0.41"/><ellipse cx="58.68" cy="34.40" rx="1.09" ry="1.84" fill="hsl(244.3,60%,78%)" opacity="0.83"/><circle cx="2.06" cy="14.07" r="5.24" fill="hsl(251.3,70%,67%)" opacity="0.95"/><path d="M52.92 21.55 L17.17 30.84 L8.80 23.33 Z" fill="hsl(258.3,70%,70%)" opacity="0.67"/><ellipse cx="24.47" cy="10.38" rx="4.26" ry="6.00" fill="hsl(265.3,60%,77%)" opacity="0.70"/><circle cx="47.98" cy="5.66" r="1.56" fill="hsl(272.3,70%,52%)" opacity="0.51"/><path d="M31.15 0.32 L23.71 10.55 L5.31 9.76 Z" fill="hsl(279.3,70%,58%)" opacity="0.42"/><ellipse cx="51.72" cy="25.10" rx="3.87" ry="5.02" fill="hsl(286.3,60%,57%)" opacity="0.61"/><circle cx="4.84" cy="10.45" r="4.83" fill="hsl(293.3,70%,70%)" opacity="0.78"/><path d="M48.69 55.20 L37.40 49.85 L63.37 23.77 Z" fill="hsl(300.3,70%,45%)" opacity="0.64"/><ellipse cx="47.48" cy="41.22" rx="4.03" ry="3.01" fill="hsl(307.3,60%,72%)" opacity="0.35"/><circle cx="43.35" cy="39.70" r="5.22" fill="hsl(314.3,70%,60%)" opacity="0.41"/><path d="M36.05 19.74 L37.65 62.69 L49.71 50.81 Z" fill="hsl(321.3,70%,66%)" opacity="0.54"/><ellipse cx="51.86" cy="32.68" rx="3.48" ry="2.77" fill="hsl(328.3,60%,38%)" opacity="0.67"/><circle cx="7.52" cy="52.84" r="2.94" fill="hsl(335.3,70%,43%)" opacity="0.64"/><path d="M57.38 46.11 L52.57 20.51 L46.60 11.78 Z" fill="hsl(342.3,70%,67%)" opacity="0.35"/><ellipse cx="22.17" cy="38.21" rx="5.69" ry="3.42" fill="hsl(349.3,60%,46%)" opacity="0.42"/><circle cx="55.44" cy="56.35" r="5.64" fill="hsl(356.3,70%,41%)" opacity="0.78"/><path d="M14.54 12.35 L20.57 9.14 L52.13 4.23 Z" fill="hsl(3.3,70%,51%)" opacity="0.38"/><ellipse cx="12.56" cy="13.27" rx="3.74" ry="2.80" fill="hsl(10.3,60%,46%)" opacity="0.45"/><circle cx="28.08" cy="17.43" r="5.47" fill="hsl(17.3,70%,72%)" opacity="0.70"/><path d="M30.11 12.81 L37.13 7.81 L15.19 44.09 Z" fill="hsl(24.3,70%,43%)" opacity="0.53"/><ellipse cx="36.12" cy="61.33" rx="3.58" ry="3.23" fill="hsl(31.3,60%,52%)" opacity="0.37"/><circle cx="22.28" cy="1.91" r="2.32" fill="hsl(38.3,70%,65%)" opacity="0.65"/><path d="M48.79 51.24 L19.21 34.17 L22.32 11.15 Z" fill="hsl(45.3,70%,72%)" opacity="0.37"/><ellipse cx="56.99" cy="29.21" rx="3.79" ry="2.78" fill="hsl(52.3,60%,73%)" opacity="0.48"/><circle cx="17.15" cy="25.59" r="6.44" fill="hsl(59.3,70%,62%)" opacity="0.60"/><path d="M24.18 34.05 L55.83 55.10 L57.85 32.91 Z" fill="hsl(66.3,70%,48%)" opacity="0.42"/><ellipse cx="53.82" cy="63.82" rx="2.17" ry="2.07" fill="hsl(73.3,60%,54%)" opacity="0.87"/><circle cx="32.36" cy="9.34" r="2.88" fill="hsl(80.3,70%,70%)" opacity="0.79"/><path d="M45.97 33.92 L33.14 52.08 L26.99 9.63 Z" fill="hsl(87.3,70%,53%)" opacity="0.57"/><ellipse cx="31.33" cy="17.90" rx="3.78" ry="2.91" fill="hsl(94.3,60%,42%)" opacity="0.77"/><circle cx="50.33" cy="5.61" r="3.36" fill="hsl(101.3,70%,64%)" opacity="0.48"/><path d="M20.34 31.21 L49.19 59.25 L63.85 9.27 Z" fill="hsl(108.3,70%,60%)" opacity="0.38"/><ellipse cx="53.97" cy="61.85" rx="4.77" ry="5.75" fill="hsl(115.3,60%,68%)" opacity="0.58"/><circle cx="16.91" cy="9.86" r="6.17" fill="hsl(122.3,70%,40%)" opacity="0.48"/><path d="M47.80 60.93 L19.59 9.41 L35.90 54.30 Z" fill="hsl(129.3,70%,55%)" opacity="0.59"/><ellipse cx="45.75" cy="21.48" rx="1.63" ry="1.87" fill="hsl(136.3,60%,60%)" opacity="0.32"/><circle cx="51.30" cy="27.61" r="1.95" fill="hsl(143.3,70%,66%)" opacity="0.55"/><path d="M37.84 34.06 L60.99 32.61 L49.42 15.50 Z" fill="hsl(150.3,70%,49%)" opacity="0.42"/><ellipse cx="11.65" cy="1.47" rx="1.99" ry="1.03" fill="hsl(157.3,60%,55%)" opacity="0.60"/><circle cx="36.98" cy="27.19" r="3.29" fill="hsl(164.3,70%,52%)" opacity="0.77"/><path d="M49.82 51.91 L61.00 36.50 L25.24 13.70 Z" fill="hsl(171.3,70%,59%)" opacity="0.68"/><ellipse cx="8.21" cy="21.32" rx="4.40" ry="4.45" fill="hsl(178.3,60%,62%)" opacity="0.32"/><circle cx="11.46" cy="35.33" r="1.23" fill="hsl(185.3,70%,79%)" opacity="0.45"/><path d="M47.25 63.82 L4.24 47.29 L31.85 7.70 Z" fill="hsl(192.3,70%,58%)" opacity="0.63"/><ellipse cx="51.73" cy="52.40" rx="5.10" ry="1.33" fill="hsl(199.3,60%,78%)" opacity="0.66"/><circle cx="11.49" cy="17.78" r="4.44" fill="hsl(206.3,70%,52%)" opacity="0.53"/><path d="M61.65 58.86 L27.58 11.54 L7.13 57.11 Z" fill="hsl(213.3,70%,62%)" opacity="0.62"/><ellipse cx="3.97" cy="59.90" rx="2.67" ry="4.54" fill="hsl(220.3,60%,39%)" opacity="0.73"/><circle cx="31.00" cy="41.77" r="2.84" fill="hsl(227.3,70%,60%)" opacity="0.44"/><path d="M45.52 58.04 L22.97 46.46 L47.65 0.37 Z" fill="hsl(234.3,70%,68%)" opacity="0.63"/><ellipse cx="7.03" cy="38.78" rx="5.77" ry="4.56" fill="hsl(241.3,60%,64%)" opacity="0.56"/><circle cx="5.22" cy="44.04" r="6.30" fill="hsl(248.3,70%,69%)" opacity="0.64"/><path d="M48.23 42.14 L2.66 62.63 L44.24 62.02 Z" fill="hsl(255.3,70%,79%)" opacity="0.53"/><ellipse cx="12.63" cy="40.35" rx="1.61" ry="1.35" fill="hsl(262.3,60%,62%)" opacity="0.89"/><circle cx="36.82" cy="17.50" r="4.90" fill="hsl(269.3,70%,76%)" opacity="0.51"/><path d="M16.38 15.54 L46.50 63.69 L9.79 16.77 Z" fill="hsl(276.3,70%,77%)" opacity="0.68"/><ellipse cx="54.94" cy="57.21" rx="3.77" ry="3.06" fill="hsl(283.3,60%,65%)" opacity="0.34"/><circle cx="53.08" cy="55.59" r="1.79" fill="hsl(290.3,70%,77%)" opacity="0.70"/><path d="M40.73 1.98 L25.73 41.08 L62.22 5.33 Z" fill="hsl(297.3,70%,58%)" opacity="0.41"/><ellipse cx="41.20" cy="59.09" rx="2.81" ry="3.36" fill="hsl(304.3,60%,59%)" opacity="0.67"/><circle cx="10.80" cy="54.90" r="4.86" fill="hsl(311.3,70%,57%)" opacity="0.61"/><path d="M26.78 9.78 L60.69 3.74 L32.52 46.71 Z" fill="hsl(318.3,70%,59%)" opacity="0.63"/><ellipse cx="20.03" cy="11.84" rx="3.12" ry="2.73" fill="hsl(325.3,60%,67%)" opacity="0.35"/><circle cx="24.56" cy="8.30" r="2.69" fill="hsl(332.3,70%,41%)" opacity="0.72"/><path d="M25.99 39.27 L46.62 0.54 L57.38 7.33 Z" fill="hsl(339.3,70%,77%)" opacity="0.47"/><ellipse cx="49.55" cy="2.18" rx="5.46" ry="5.46" fill="hsl(346.3,60%,41%)" opacity="0.56"/><circle cx="15.45" cy="8.14" r="2.24" fill="hsl(353.3,70%,51%)" opacity="0.92"/><path d="M59.45 59.56 L46.84 33.48 L29.83 51.94 Z" fill="hsl(0.3,70%,70%)" opacity="0.53"/><ellipse cx="17.37" cy="11.36" rx="1.50" ry="5.36" fill="hsl(7.3,60%,57%)" opacity="0.44"/><circle cx="33.03" cy="5.52" r="4.34" fill="hsl(14.3,70%,62%)" opacity="0.95"/><path d="M2.56 37.39 L58.17 31.33 L13.89 28.77 Z" fill="hsl(21.3,70%,62%)" opacity="0.44"/><ellipse cx="2.47" cy="15.95" rx="2.91" ry="3.75" fill="hsl(28.3,60%,64%)" opacity="0.60"/><circle cx="37.11" cy="10.36" r="2.84" fill="hsl(35.3,70%,58%)" opacity="0.80"/><path d="M28.59 6.74 L17.95 6.90 L38.19 28.58 Z" fill="hsl(42.3,70%,44%)" opacity="0.67"/><ellipse cx="32.42" cy="39.36" rx="5.62" ry="5.51" fill="hsl(49.3,60%,55%)" opacity="0.62"/><circle cx="4.79" cy="60.03" r="1.97" fill="hsl(56.3,70%,50%)" opacity="0.91"/><path d="M19.01 9.09 L60.65 15.77 L40.78 18.26 Z" fill="hsl(63.3,70%,61%)" opacity="0.76"/><ellipse cx="35.32" cy="8.44" rx="5.24" ry="1.58" fill="hsl(70.3,60%,71%)" opacity="0.51"/><circle cx="27.32" cy="52.84" r="2.49" fill="hsl(77.3,70%,49%)" opacity="0.46"/><path d="M37.71 46.85 L23.17 54.56 L50.94 49.30 Z" fill="hsl(84.3,70%,68%)" opacity="0.75"/><ellipse cx="7.23" cy="47.53" rx="4.45" ry="4.62" fill="hsl(91.3,60%,66%)" opacity="0.80"/><circle cx="14.70" cy="48.83" r="1.78" fill="hsl(98.3,70%,42%)" opacity="0.76"/><path d="M40.16 21.33 L3.93 39.93 L22.44 53.28 Z" fill="hsl(105.3,70%,64%)" opacity="0.64"/><ellipse cx="1.01" cy="9.58" rx="4.48" ry="3.00" fill="hsl(112.3,60%,62%)" opacity="0.44"/><circle cx="3.12" cy="4.00" r="6.87" fill="hsl(119.3,70%,47%)" opacity="0.56"/><path d="M8.78 33.82 L37.14 46.05 L26.76 36.37 Z" fill="hsl(126.3,70%,55%)" opacity="0.49"/><ellipse cx="42.88" cy="42.81" rx="5.93" ry="4.50" fill="hsl(133.3,60%,72%)" opacity="0.72"/><circle cx="8.47" cy="37.71" r="1.44" fill="hsl(140.3,70%,76%)" opacity="0.71"/><path d="M61.39 26.04 L38.02 20.71 L19.55 30.31 Z" fill="hsl(147.3,70%,41%)" opacity="0.52"/><ellipse cx="34.09" cy="50.64" rx="5.05" ry="3.13" fill="hsl(154.3,60%,68%)" opacity="0.70"/><circle cx="46.64" cy="59.92" r="5.68" fill="hsl(161.3,70%,56%)" opacity="0.89"/><path d="M7.07 59.11 L35.25 15.42 L63.02 44.78 Z" fill="hsl(168.3,70%,60%)" opacity="0.36"/><ellipse cx="5.19" cy="56.42" rx="2.84" ry="3.58" fill="hsl(175.3,60%,64%)" opacity="0.48"/><circle cx="10.50" cy="1.54" r="2.48" fill="hsl(182.3,70%,68%)" opacity="0.86"/><path d="M60.55 41.04 L2.91 59.82 L51.90 12.47 Z" fill="hsl(189.3,70%,73%)" opacity="0.63"/><ellipse cx="43.11" cy="14.00" rx="2.77" ry="2.82" fill="hsl(196.3,60%,64%)" opacity="0.89"/><circle cx="15.26" cy="58.41" r="3.67" fill="hsl(203.3,70%,55%)" opacity="0.50"/><path d="M22.65 60.33 L16.77 60.81 L54.42 2.42 Z" fill="hsl(210.3,70%,53%)" opacity="0.58"/><ellipse cx="19.57" cy="19.75" rx="4.22" ry="2.42" fill="hsl(217.3,60%,59%)" opacity="0.45"/><circle cx="24.37" cy="29.70" r="1.49" fill="hsl(224.3,70%,43%)" opacity="0.69"/><path d="M26.02 59.09 L27.80 2.79 L24.52 50.16 Z" fill="hsl(231.3,70%,56%)" opacity="0.75"/><ellipse cx="53.82" cy="47.95" rx="4.19" ry="3.30" fill="hsl(238.3,60%,45%)" opacity="0.50"/><circle cx="52.30" cy="5.50" r="1.43" fill="hsl(245.3,70%,53%)" opacity="0.55"/><path d="M12.13 12.28 L56.73 37.87 L4.80 12.88 Z" fill="hsl(252.3,70%,41%)" opacity="0.42"/><ellipse cx="17.25" cy="43.60" rx="1.13" ry="2.78" fill="hsl(259.3,60%,63%)" opacity="0.70"/><circle cx="47.30" cy="62.29" r="4.63" fill="hsl(266.3,70%,53%)" opacity="0.88"/><path d="M32.22 34.42 L1.30 0.49 L36.22 42.38 Z" fill="hsl(273.3,70%,42%)" opacity="0.59"/><ellipse cx="3.97" cy="18.67" rx="4.96" ry="1.03" fill="hsl(280.3,60%,71%)" opacity="0.59"/><circle cx="10.29" cy="42.45" r="1.94" fill="hsl(287.3,70%,77%)" opacity="0.63"/><path d="M24.00 38.87 L63.84 38.73 L48.86 1.64 Z" fill="hsl(294.3,70%,50%)" opacity="0.31"/><ellipse cx="52.98" cy="9.13" rx="4.37" ry="1.80" fill="hsl(301.3,60%,48%)" opacity="0.66"/><circle cx="30.52" cy="53.20" r="4.53" fill="hsl(308.3,70%,55%)" opacity="0.67"/><path d="M49.71 28.93 L40.29 60.57 L58.65 40.28 Z" fill="hsl(315.3,70%,50%)" opacity="0.30"/><ellipse cx="60.79" cy="6.22" rx="3.15" ry="2.96" fill="hsl(322.3,60%,57%)" opacity="0.74"/><circle cx="28.27" cy="21.31" r="1.96" fill="hsl(329.3,70%,60%)" opacity="0.47"/><path d="M23.88 9.70 L23.48 43.90 L38.54 23.91 Z" fill="hsl(336.3,70%,72%)" opacity="0.51"/><ellipse cx="5.36" cy="6.03" rx="2.71" ry="3.86" fill="hsl(343.3,60%,52%)" opacity="0.66"/><circle cx="31.08" cy="7.20" r="3.67" fill="hsl(350.3,70%,61%)" opacity="0.60"/><path d="M0.71 10.46 L35.68 22.52 L62.54 33.80 Z" fill="hsl(357.3,70%,41%)" opacity="0.39"/><ellipse cx="13.68" cy="7.82" rx="2.43" ry="4.06" fill="hsl(4.3,60%,47%)" opacity="0.47"/><circle cx="1.85" cy="63.16" r="2.42" fill="hsl(11.3,70%,53%)" opacity="0.98"/><path d="M39.43 53.36 L35.96 25.30 L5.05 6.21 Z" fill="hsl(18.3,70%,44%)" opacity="0.67"/><ellipse cx="28.15" cy="47.64" rx="3.56" ry="5.73" fill="hsl(25.3,60%,68%)" opacity="0.56"/><circle cx="58.24" cy="31.83" r="2.76" fill="hsl(32.3,70%,60%)" opacity="0.52"/><path d="M9.97 47.46 L50.44 18.54 L59.92 46.90 Z" fill="hsl(39.3,70%,72%)" opacity="0.61"/><ellipse cx="55.72" cy="49.37" rx="2.60" ry="2.63" fill="hsl(46.3,60%,57%)" opacity="0.71"/><circle cx="57.11" cy="60.36" r="1.52" fill="hsl(53.3,70%,62%)" opacity="0.55"/><path d="M20.33 23.74 L17.35 25.57 L12.55 50.91 Z" fill="hsl(60.3,70%,75%)" opacity="0.68"/><ellipse cx="50.89" cy="51.12" rx="3.47" ry="5.28" fill="hsl(67.3,60%,39%)" opacity="0.84"/><circle cx="25.96" cy="26.84" r="6.03" fill="hsl(74.3,70%,43%)" opacity="0.80"/><path d="M43.28 21.58 L10.58 16.46 L22.51 45.56 Z" fill="hsl(81.3,70%,77%)" opacity="0.64"/><ellipse cx="48.21" cy="5.61" rx="2.42" ry="3.43" fill="hsl(88.3,60%,68%)" opacity="0.79"/><circle cx="47.66" cy="8.91" r="4.55" fill="hsl(95.3,70%,75%)" opacity="0.97"/><path d="M18.99 3.14 L60.30 0.44 L14.28 1.32 Z" fill="hsl(102.3,70%,70%)" opacity="0.80"/><ellipse cx="7.13" cy="48.23" rx="5.24" ry="4.57" fill="hsl(109.3,60%,53%)" opacity="0.57"/><circle cx="47.90" cy="42.69" r="3.60" fill="hsl(116.3,70%,65%)" opacity="0.48"/><path d="M56.29 62.63 L46.35 43.75 L55.82 34.18 Z" fill="hsl(123.3,70%,66%)" opacity="0.54"/><ellipse cx="6.43" cy="26.06" rx="3.39" ry="2.34" fill="hsl(130.3,60%,59%)" opacity="0.86"/><circle cx="21.60" cy="3.41" r="2.09" fill="hsl(137.3,70%,58%)" opacity="0.48"/><path d="M32.90 61.05 L48.08 52.91 L30.56 53.05 Z" fill="hsl(144.3,70%,47%)" opacity="0.48"/><ellipse cx="29.92" cy="25.29" rx="4.72" ry="2.85" fill="hsl(151.3,60%,73%)" opacity="0.54"/><circle cx="42.47" cy="16.23" r="2.48" fill="hsl(158.3,70%,60%)" opacity="0.59"/></svg>