<svg width="100%" height="100%" viewBox="0 0 257 226" fill="none"
    xmlns="http://www.w3.org/2000/svg">
    <rect x="1" y="79" width="255" height="146" rx="16" stroke="#00DA9A" stroke-width="2"/>
    <path d="M43.0445 31V10.85H50.2365C51.6419 10.85 52.9129 10.9947 54.0495 11.284C55.2069 11.5733 56.1162 12.0797 56.7775 12.803C57.4595 13.5263 57.8005 14.5493 57.8005 15.872C57.8005 16.74 57.5215 17.608 56.9635 18.476C56.4262 19.3233 55.5685 19.902 54.3905 20.212V20.336C55.8165 20.6047 56.8809 21.1213 57.5835 21.886C58.3069 22.6507 58.6685 23.7047 58.6685 25.048C58.6685 26.4327 58.3172 27.5693 57.6145 28.458C56.9119 29.326 55.9715 29.9667 54.7935 30.38C53.6155 30.7933 52.3032 31 50.8565 31H43.0445ZM48.3765 18.786H50.1125C50.9805 18.786 51.6109 18.5897 52.0035 18.197C52.3962 17.8043 52.5925 17.298 52.5925 16.678C52.5925 16.058 52.3962 15.6137 52.0035 15.345C51.6109 15.0763 50.9805 14.942 50.1125 14.942H48.3765V18.786ZM48.3765 26.908H50.4845C51.5385 26.908 52.2929 26.7117 52.7475 26.319C53.2229 25.9263 53.4605 25.358 53.4605 24.614C53.4605 23.87 53.2229 23.3327 52.7475 23.002C52.2929 22.6713 51.5385 22.506 50.4845 22.506H48.3765V26.908ZM66.3444 31.372C65.2698 31.372 64.3604 31.155 63.6164 30.721C62.8724 30.2663 62.3041 29.6773 61.9114 28.954C61.5188 28.2307 61.3224 27.4453 61.3224 26.598C61.3224 24.862 62.0664 23.5393 63.5544 22.63C65.0631 21.7 67.5844 21.142 71.1184 20.956C71.0564 20.584 70.9014 20.2843 70.6534 20.057C70.4054 19.809 70.0644 19.6333 69.6304 19.53C69.2171 19.406 68.7211 19.344 68.1424 19.344C67.7084 19.344 67.2641 19.3957 66.8094 19.499C66.3548 19.5817 65.8691 19.7263 65.3524 19.933C64.8564 20.119 64.2984 20.3567 63.6784 20.646L61.8184 17.174C62.6038 16.74 63.3994 16.368 64.2054 16.058C65.0114 15.748 65.8278 15.5207 66.6544 15.376C67.4811 15.2107 68.3284 15.128 69.1964 15.128C70.6638 15.128 71.9348 15.3863 73.0094 15.903C74.1048 16.399 74.9521 17.1843 75.5514 18.259C76.1508 19.313 76.4504 20.6873 76.4504 22.382V31H72.1104L71.7384 29.388H71.6144C70.8498 29.946 70.0231 30.4213 69.1344 30.814C68.2458 31.186 67.3158 31.372 66.3444 31.372ZM68.0804 27.28C68.7004 27.28 69.2584 27.1663 69.7544 26.939C70.2504 26.691 70.7051 26.412 71.1184 26.102V24.118C69.8578 24.1593 68.8864 24.273 68.2044 24.459C67.5224 24.645 67.0471 24.893 66.7784 25.203C66.5304 25.4923 66.4064 25.8127 66.4064 26.164C66.4064 26.3913 66.4684 26.598 66.5924 26.784C66.7164 26.9493 66.9024 27.0733 67.1504 27.156C67.3984 27.2387 67.7084 27.28 68.0804 27.28ZM88.8383 31.372C87.2057 31.372 85.728 31.0517 84.4053 30.411C83.1033 29.7703 82.07 28.8507 81.3053 27.652C80.5407 26.4327 80.1583 24.9653 80.1583 23.25C80.1583 21.5347 80.582 20.0777 81.4293 18.879C82.2767 17.6597 83.3927 16.7297 84.7773 16.089C86.162 15.4483 87.65 15.128 89.2413 15.128C90.4607 15.128 91.5767 15.314 92.5893 15.686C93.6227 16.058 94.4597 16.554 95.1003 17.174L92.6823 20.46C92.1037 20.0673 91.556 19.7987 91.0393 19.654C90.5433 19.4887 90.0473 19.406 89.5513 19.406C88.7867 19.406 88.1047 19.561 87.5053 19.871C86.906 20.181 86.441 20.6253 86.1103 21.204C85.7797 21.7827 85.6143 22.4647 85.6143 23.25C85.6143 24.0353 85.7693 24.7173 86.0793 25.296C86.41 25.8747 86.8543 26.319 87.4123 26.629C87.991 26.939 88.642 27.094 89.3653 27.094C90.13 27.094 90.8223 26.9597 91.4423 26.691C92.083 26.4223 92.6617 26.1227 93.1783 25.792L95.2863 29.14C94.3357 29.9253 93.2817 30.4937 92.1243 30.845C90.967 31.1963 89.8717 31.372 88.8383 31.372ZM98.8082 31V9.424H104.14V21.018H104.264L108.976 15.5H114.742L104.14 27.218V31H98.8082ZM109.348 31L105.442 24.428L108.48 21.142L115.114 31H109.348ZM123.751 37.386C122.47 37.386 121.302 37.2517 120.248 36.983C119.194 36.735 118.347 36.332 117.706 35.774C117.086 35.216 116.776 34.472 116.776 33.542C116.776 32.9013 116.972 32.333 117.365 31.837C117.778 31.3617 118.367 30.938 119.132 30.566V30.442C118.698 30.1527 118.326 29.8013 118.016 29.388C117.727 28.954 117.582 28.4167 117.582 27.776C117.582 27.2387 117.758 26.7117 118.109 26.195C118.46 25.6783 118.905 25.234 119.442 24.862V24.738C118.863 24.366 118.367 23.839 117.954 23.157C117.541 22.4543 117.334 21.6587 117.334 20.77C117.334 19.4887 117.654 18.4347 118.295 17.608C118.936 16.7607 119.773 16.1407 120.806 15.748C121.86 15.3347 122.986 15.128 124.185 15.128C125.177 15.128 126.055 15.252 126.82 15.5H133.082V19.344H130.292C130.395 19.53 130.488 19.7677 130.571 20.057C130.674 20.3463 130.726 20.646 130.726 20.956C130.726 22.1753 130.437 23.1673 129.858 23.932C129.279 24.676 128.494 25.2237 127.502 25.575C126.531 25.9263 125.425 26.102 124.185 26.102C123.916 26.102 123.617 26.0917 123.286 26.071C122.955 26.0297 122.604 25.9677 122.232 25.885C122.046 26.0297 121.912 26.164 121.829 26.288C121.767 26.3913 121.736 26.5567 121.736 26.784C121.736 27.1147 121.922 27.3523 122.294 27.497C122.666 27.6417 123.286 27.714 124.154 27.714H126.789C128.835 27.714 130.416 28.0343 131.532 28.675C132.669 29.295 133.237 30.318 133.237 31.744C133.237 32.86 132.844 33.8417 132.059 34.689C131.294 35.5363 130.199 36.1977 128.773 36.673C127.368 37.1483 125.694 37.386 123.751 37.386ZM124.185 22.94C124.536 22.94 124.846 22.8677 125.115 22.723C125.404 22.5577 125.632 22.32 125.797 22.01C125.983 21.6793 126.076 21.266 126.076 20.77C126.076 20.2947 125.983 19.902 125.797 19.592C125.632 19.282 125.404 19.0547 125.115 18.91C124.846 18.7447 124.536 18.662 124.185 18.662C123.854 18.662 123.544 18.7447 123.255 18.91C122.966 19.0547 122.738 19.282 122.573 19.592C122.408 19.902 122.325 20.2947 122.325 20.77C122.325 21.266 122.408 21.6793 122.573 22.01C122.738 22.32 122.966 22.5577 123.255 22.723C123.544 22.8677 123.854 22.94 124.185 22.94ZM124.588 34.1C125.291 34.1 125.911 34.038 126.448 33.914C126.985 33.8107 127.409 33.6453 127.719 33.418C128.029 33.2113 128.184 32.9633 128.184 32.674C128.184 32.2607 127.977 32.0023 127.564 31.899C127.151 31.7957 126.551 31.744 125.766 31.744H124.216C123.617 31.744 123.141 31.7233 122.79 31.682C122.439 31.6613 122.129 31.62 121.86 31.558C121.591 31.744 121.395 31.9197 121.271 32.085C121.147 32.2503 121.085 32.4467 121.085 32.674C121.085 33.17 121.405 33.5317 122.046 33.759C122.707 33.9863 123.555 34.1 124.588 34.1ZM137.224 31V15.5H141.595L141.998 18.786H142.122C142.866 17.5047 143.765 16.5747 144.819 15.996C145.894 15.4173 147.01 15.128 148.167 15.128C148.89 15.128 149.448 15.19 149.841 15.314C150.254 15.4173 150.678 15.562 151.112 15.748L150.058 20.212C149.603 20.0673 149.18 19.964 148.787 19.902C148.394 19.8193 147.919 19.778 147.361 19.778C146.472 19.778 145.594 20.0467 144.726 20.584C143.858 21.1007 143.135 22.01 142.556 23.312V31H137.224ZM161.888 31.372C160.524 31.372 159.232 31.0517 158.013 30.411C156.794 29.7703 155.802 28.8507 155.037 27.652C154.272 26.4327 153.89 24.9653 153.89 23.25C153.89 21.5347 154.272 20.0777 155.037 18.879C155.802 17.6597 156.794 16.7297 158.013 16.089C159.232 15.4483 160.524 15.128 161.888 15.128C163.252 15.128 164.544 15.4483 165.763 16.089C166.982 16.7297 167.974 17.6597 168.739 18.879C169.504 20.0777 169.886 21.5347 169.886 23.25C169.886 24.9653 169.504 26.4327 168.739 27.652C167.974 28.8507 166.982 29.7703 165.763 30.411C164.544 31.0517 163.252 31.372 161.888 31.372ZM161.888 27.094C162.487 27.094 162.973 26.939 163.345 26.629C163.717 26.319 163.986 25.8747 164.151 25.296C164.337 24.7173 164.43 24.0353 164.43 23.25C164.43 22.4647 164.337 21.7827 164.151 21.204C163.986 20.6253 163.717 20.181 163.345 19.871C162.973 19.561 162.487 19.406 161.888 19.406C161.289 19.406 160.803 19.561 160.431 19.871C160.059 20.181 159.78 20.6253 159.594 21.204C159.429 21.7827 159.346 22.4647 159.346 23.25C159.346 24.0353 159.429 24.7173 159.594 25.296C159.78 25.8747 160.059 26.319 160.431 26.629C160.803 26.939 161.289 27.094 161.888 27.094ZM177.81 31.372C176.074 31.372 174.823 30.8037 174.059 29.667C173.294 28.5097 172.912 26.97 172.912 25.048V15.5H178.244V24.366C178.244 25.234 178.357 25.8643 178.585 26.257C178.833 26.6497 179.308 26.846 180.011 26.846C180.465 26.846 180.868 26.7633 181.22 26.598C181.571 26.412 181.943 26.04 182.336 25.482V15.5H187.668V31H183.328L182.956 28.954H182.832C182.191 29.698 181.468 30.287 180.662 30.721C179.856 31.155 178.905 31.372 177.81 31.372ZM191.748 31V15.5H196.088L196.46 17.36H196.584C197.204 16.7607 197.937 16.244 198.785 15.81C199.632 15.3553 200.624 15.128 201.761 15.128C203.476 15.128 204.726 15.7067 205.512 16.864C206.297 18.0007 206.69 19.53 206.69 21.452V31H201.358V22.134C201.358 21.266 201.223 20.6357 200.955 20.243C200.707 19.8503 200.242 19.654 199.56 19.654C199.064 19.654 198.63 19.7573 198.258 19.964C197.886 20.1707 197.493 20.46 197.08 20.832V31H191.748ZM216.133 31.372C214.169 31.372 212.599 30.6487 211.421 29.202C210.243 27.7347 209.654 25.7507 209.654 23.25C209.654 21.5553 209.964 20.1087 210.584 18.91C211.224 17.6907 212.041 16.7607 213.033 16.12C214.025 15.4587 215.058 15.128 216.133 15.128C216.959 15.128 217.652 15.2623 218.21 15.531C218.788 15.7997 219.305 16.182 219.76 16.678H219.884L219.636 14.446V9.424H224.968V31H220.628L220.256 29.574H220.132C219.594 30.0907 218.964 30.5247 218.241 30.876C217.538 31.2067 216.835 31.372 216.133 31.372ZM217.528 27.032C217.962 27.032 218.344 26.9597 218.675 26.815C219.026 26.6497 219.346 26.35 219.636 25.916V20.212C219.326 19.9227 218.995 19.7263 218.644 19.623C218.313 19.5197 217.962 19.468 217.59 19.468C217.156 19.468 216.742 19.592 216.35 19.84C215.978 20.0673 215.678 20.46 215.451 21.018C215.223 21.5553 215.11 22.2787 215.11 23.188C215.11 24.5727 215.316 25.5647 215.73 26.164C216.164 26.7427 216.763 27.032 217.528 27.032ZM89.5763 70V65.536H94.1643V54.314H89.5763V49.85H104.084V54.314H99.4963V65.536H104.084V70H89.5763ZM106.924 70V54.5H110.892L111.264 56.36H111.388C111.636 55.7607 112.018 55.244 112.535 54.81C113.072 54.3553 113.785 54.128 114.674 54.128C115.315 54.128 115.862 54.345 116.317 54.779C116.792 55.1923 117.113 55.802 117.278 56.608C117.505 55.9467 117.898 55.368 118.456 54.872C119.014 54.376 119.737 54.128 120.626 54.128C121.742 54.128 122.6 54.593 123.199 55.523C123.798 56.4323 124.098 57.662 124.098 59.212V70H119.076V59.584C119.076 58.964 118.9 58.654 118.549 58.654C118.342 58.654 118.156 58.747 117.991 58.933C117.826 59.119 117.671 59.4187 117.526 59.832V70H113.496V59.584C113.496 59.2533 113.444 59.0157 113.341 58.871C113.238 58.7263 113.083 58.654 112.876 58.654C112.69 58.654 112.525 58.747 112.38 58.933C112.235 59.119 112.091 59.4187 111.946 59.832V70H106.924ZM131.402 70.372C130.327 70.372 129.418 70.155 128.674 69.721C127.93 69.2663 127.362 68.6773 126.969 67.954C126.576 67.2307 126.38 66.4453 126.38 65.598C126.38 63.862 127.124 62.5393 128.612 61.63C130.121 60.7 132.642 60.142 136.176 59.956C136.114 59.584 135.959 59.2843 135.711 59.057C135.463 58.809 135.122 58.6333 134.688 58.53C134.275 58.406 133.779 58.344 133.2 58.344C132.766 58.344 132.322 58.3957 131.867 58.499C131.412 58.5817 130.927 58.7263 130.41 58.933C129.914 59.119 129.356 59.3567 128.736 59.646L126.876 56.174C127.661 55.74 128.457 55.368 129.263 55.058C130.069 54.748 130.885 54.5207 131.712 54.376C132.539 54.2107 133.386 54.128 134.254 54.128C135.721 54.128 136.992 54.3863 138.067 54.903C139.162 55.399 140.01 56.1843 140.609 57.259C141.208 58.313 141.508 59.6873 141.508 61.382V70H137.168L136.796 68.388H136.672C135.907 68.946 135.081 69.4213 134.192 69.814C133.303 70.186 132.373 70.372 131.402 70.372ZM133.138 66.28C133.758 66.28 134.316 66.1663 134.812 65.939C135.308 65.691 135.763 65.412 136.176 65.102V63.118C134.915 63.1593 133.944 63.273 133.262 63.459C132.58 63.645 132.105 63.893 131.836 64.203C131.588 64.4923 131.464 64.8127 131.464 65.164C131.464 65.3913 131.526 65.598 131.65 65.784C131.774 65.9493 131.96 66.0733 132.208 66.156C132.456 66.2387 132.766 66.28 133.138 66.28ZM151.633 76.386C150.352 76.386 149.184 76.2517 148.13 75.983C147.076 75.735 146.229 75.332 145.588 74.774C144.968 74.216 144.658 73.472 144.658 72.542C144.658 71.9013 144.854 71.333 145.247 70.837C145.66 70.3617 146.249 69.938 147.014 69.566V69.442C146.58 69.1527 146.208 68.8013 145.898 68.388C145.609 67.954 145.464 67.4167 145.464 66.776C145.464 66.2387 145.64 65.7117 145.991 65.195C146.342 64.6783 146.787 64.234 147.324 63.862V63.738C146.745 63.366 146.249 62.839 145.836 62.157C145.423 61.4543 145.216 60.6587 145.216 59.77C145.216 58.4887 145.536 57.4347 146.177 56.608C146.818 55.7607 147.655 55.1407 148.688 54.748C149.742 54.3347 150.868 54.128 152.067 54.128C153.059 54.128 153.937 54.252 154.702 54.5H160.964V58.344H158.174C158.277 58.53 158.37 58.7677 158.453 59.057C158.556 59.3463 158.608 59.646 158.608 59.956C158.608 61.1753 158.319 62.1673 157.74 62.932C157.161 63.676 156.376 64.2237 155.384 64.575C154.413 64.9263 153.307 65.102 152.067 65.102C151.798 65.102 151.499 65.0917 151.168 65.071C150.837 65.0297 150.486 64.9677 150.114 64.885C149.928 65.0297 149.794 65.164 149.711 65.288C149.649 65.3913 149.618 65.5567 149.618 65.784C149.618 66.1147 149.804 66.3523 150.176 66.497C150.548 66.6417 151.168 66.714 152.036 66.714H154.671C156.717 66.714 158.298 67.0343 159.414 67.675C160.551 68.295 161.119 69.318 161.119 70.744C161.119 71.86 160.726 72.8417 159.941 73.689C159.176 74.5363 158.081 75.1977 156.655 75.673C155.25 76.1483 153.576 76.386 151.633 76.386ZM152.067 61.94C152.418 61.94 152.728 61.8677 152.997 61.723C153.286 61.5577 153.514 61.32 153.679 61.01C153.865 60.6793 153.958 60.266 153.958 59.77C153.958 59.2947 153.865 58.902 153.679 58.592C153.514 58.282 153.286 58.0547 152.997 57.91C152.728 57.7447 152.418 57.662 152.067 57.662C151.736 57.662 151.426 57.7447 151.137 57.91C150.848 58.0547 150.62 58.282 150.455 58.592C150.29 58.902 150.207 59.2947 150.207 59.77C150.207 60.266 150.29 60.6793 150.455 61.01C150.62 61.32 150.848 61.5577 151.137 61.723C151.426 61.8677 151.736 61.94 152.067 61.94ZM152.47 73.1C153.173 73.1 153.793 73.038 154.33 72.914C154.867 72.8107 155.291 72.6453 155.601 72.418C155.911 72.2113 156.066 71.9633 156.066 71.674C156.066 71.2607 155.859 71.0023 155.446 70.899C155.033 70.7957 154.433 70.744 153.648 70.744H152.098C151.499 70.744 151.023 70.7233 150.672 70.682C150.321 70.6613 150.011 70.62 149.742 70.558C149.473 70.744 149.277 70.9197 149.153 71.085C149.029 71.2503 148.967 71.4467 148.967 71.674C148.967 72.17 149.287 72.5317 149.928 72.759C150.589 72.9863 151.437 73.1 152.47 73.1ZM172.112 70.372C170.479 70.372 169.002 70.0517 167.679 69.411C166.377 68.7703 165.344 67.8507 164.579 66.652C163.814 65.4327 163.432 63.9653 163.432 62.25C163.432 60.5553 163.814 59.1087 164.579 57.91C165.364 56.6907 166.377 55.7607 167.617 55.12C168.857 54.4587 170.169 54.128 171.554 54.128C173.187 54.128 174.551 54.469 175.646 55.151C176.741 55.8123 177.558 56.7113 178.095 57.848C178.653 58.9847 178.932 60.2453 178.932 61.63C178.932 62.0847 178.901 62.529 178.839 62.963C178.798 63.3763 178.756 63.676 178.715 63.862H167.462V60.39H175.026L174.282 61.32C174.282 60.2867 174.075 59.5013 173.662 58.964C173.249 58.4267 172.608 58.158 171.74 58.158C171.058 58.158 170.479 58.3027 170.004 58.592C169.549 58.8813 169.198 59.336 168.95 59.956C168.702 60.5553 168.578 61.32 168.578 62.25C168.578 63.2213 168.733 64.0067 169.043 64.606C169.374 65.2053 169.849 65.6497 170.469 65.939C171.11 66.2077 171.905 66.342 172.856 66.342C173.476 66.342 174.075 66.2697 174.654 66.125C175.253 65.9597 175.894 65.722 176.576 65.412L178.312 68.574C177.382 69.1527 176.359 69.597 175.243 69.907C174.127 70.217 173.083 70.372 172.112 70.372Z" fill="#00DA9A"/>
    <rect x="12.5" y="91.5" width="175.128" height="95.998" rx="16.5" stroke="#00DA9A"/>
    <path d="M61.35 145.882L23.9121 179.491H175.791L125.59 123.334L84.7486 168.004L61.35 145.882Z" fill="#D9D9D9" stroke="#878787"/>
    <circle cx="63.4759" cy="113.544" r="8.08333" fill="#D9D9D9"/>
    <line x1="63.5518" y1="122.479" x2="63.5518" y2="127.584" stroke="#979797"/>
    <line x1="63.5518" y1="99.5059" x2="63.5518" y2="104.611" stroke="#979797"/>
    <line x1="77.5156" y1="113.621" x2="72.4104" y2="113.621" stroke="#979797"/>
    <line x1="54.542" y1="113.621" x2="49.4367" y2="113.621" stroke="#979797"/>
    <line x1="54.7645" y1="110.519" x2="50.087" y2="108.473" stroke="#979797"/>
    <line x1="56.448" y1="107.406" x2="52.5215" y2="104.143" stroke="#979797"/>
    <line x1="59.3468" y1="104.963" x2="56.6688" y2="100.617" stroke="#979797"/>
    <line x1="72.3126" y1="116.915" x2="76.9902" y2="118.961" stroke="#979797"/>
    <line x1="70.6311" y1="120.028" x2="74.5576" y2="123.29" stroke="#979797"/>
    <line x1="67.7304" y1="122.47" x2="70.4084" y2="126.817" stroke="#979797"/>
    <line y1="-0.5" x2="5.10526" y2="-0.5" transform="matrix(-0.916219 0.400678 0.400678 0.916219 54.9648 117.373)" stroke="#979797"/>
    <line y1="-0.5" x2="5.10526" y2="-0.5" transform="matrix(-0.769123 0.6391 0.6391 0.769123 56.7676 120.412)" stroke="#979797"/>
    <line y1="-0.5" x2="5.10526" y2="-0.5" transform="matrix(-0.524555 0.851376 0.851376 0.524555 59.7725 122.732)" stroke="#979797"/>
    <line y1="-0.5" x2="5.10526" y2="-0.5" transform="matrix(0.916219 -0.400678 -0.400678 -0.916219 72.1123 110.061)" stroke="#979797"/>
    <line y1="-0.5" x2="5.10526" y2="-0.5" transform="matrix(0.769123 -0.6391 -0.6391 -0.769123 70.3115 107.021)" stroke="#979797"/>
    <line y1="-0.5" x2="5.10526" y2="-0.5" transform="matrix(0.524555 -0.851376 -0.851376 -0.524555 67.3047 104.701)" stroke="#979797"/>
    <rect x="24.5" y="102.5" width="141" height="14" fill="#979797" stroke="#009F71"/>
    <rect x="24.5" y="125.5" width="141" height="14" fill="#979797" stroke="#009F71"/>
    <rect x="24.5" y="151.5" width="141" height="14" fill="#979797" stroke="#009F71"/>
</svg>