<svg width="100%" height="100%" viewBox="0 0 257 187" fill="none"
    xmlns="http://www.w3.org/2000/svg">
    <rect x="1" y="40" width="255" height="146" rx="16" stroke="#00DA9A" stroke-width="2"/>
    <path d="M84.046 31V26.536H88.634V15.314H84.046V10.85H98.554V15.314H93.966V26.536H98.554V31H84.046ZM101.394 31V15.5H105.362L105.734 17.36H105.858C106.106 16.7607 106.488 16.244 107.005 15.81C107.542 15.3553 108.255 15.128 109.144 15.128C109.785 15.128 110.332 15.345 110.787 15.779C111.262 16.1923 111.583 16.802 111.748 17.608C111.975 16.9467 112.368 16.368 112.926 15.872C113.484 15.376 114.207 15.128 115.096 15.128C116.212 15.128 117.07 15.593 117.669 16.523C118.268 17.4323 118.568 18.662 118.568 20.212V31H113.546V20.584C113.546 19.964 113.37 19.654 113.019 19.654C112.812 19.654 112.626 19.747 112.461 19.933C112.296 20.119 112.141 20.4187 111.996 20.832V31H107.966V20.584C107.966 20.2533 107.914 20.0157 107.811 19.871C107.708 19.7263 107.553 19.654 107.346 19.654C107.16 19.654 106.995 19.747 106.85 19.933C106.705 20.119 106.561 20.4187 106.416 20.832V31H101.394ZM125.872 31.372C124.797 31.372 123.888 31.155 123.144 30.721C122.4 30.2663 121.831 29.6773 121.439 28.954C121.046 28.2307 120.85 27.4453 120.85 26.598C120.85 24.862 121.594 23.5393 123.082 22.63C124.59 21.7 127.112 21.142 130.646 20.956C130.584 20.584 130.429 20.2843 130.181 20.057C129.933 19.809 129.592 19.6333 129.158 19.53C128.744 19.406 128.248 19.344 127.67 19.344C127.236 19.344 126.791 19.3957 126.337 19.499C125.882 19.5817 125.396 19.7263 124.88 19.933C124.384 20.119 123.826 20.3567 123.206 20.646L121.346 17.174C122.131 16.74 122.927 16.368 123.733 16.058C124.539 15.748 125.355 15.5207 126.182 15.376C127.008 15.2107 127.856 15.128 128.724 15.128C130.191 15.128 131.462 15.3863 132.537 15.903C133.632 16.399 134.479 17.1843 135.079 18.259C135.678 19.313 135.978 20.6873 135.978 22.382V31H131.638L131.266 29.388H131.142C130.377 29.946 129.55 30.4213 128.662 30.814C127.773 31.186 126.843 31.372 125.872 31.372ZM127.608 27.28C128.228 27.28 128.786 27.1663 129.282 26.939C129.778 26.691 130.232 26.412 130.646 26.102V24.118C129.385 24.1593 128.414 24.273 127.732 24.459C127.05 24.645 126.574 24.893 126.306 25.203C126.058 25.4923 125.934 25.8127 125.934 26.164C125.934 26.3913 125.996 26.598 126.12 26.784C126.244 26.9493 126.43 27.0733 126.678 27.156C126.926 27.2387 127.236 27.28 127.608 27.28ZM146.103 37.386C144.821 37.386 143.654 37.2517 142.6 36.983C141.546 36.735 140.698 36.332 140.058 35.774C139.438 35.216 139.128 34.472 139.128 33.542C139.128 32.9013 139.324 32.333 139.717 31.837C140.13 31.3617 140.719 30.938 141.484 30.566V30.442C141.05 30.1527 140.678 29.8013 140.368 29.388C140.078 28.954 139.934 28.4167 139.934 27.776C139.934 27.2387 140.109 26.7117 140.461 26.195C140.812 25.6783 141.256 25.234 141.794 24.862V24.738C141.215 24.366 140.719 23.839 140.306 23.157C139.892 22.4543 139.686 21.6587 139.686 20.77C139.686 19.4887 140.006 18.4347 140.647 17.608C141.287 16.7607 142.124 16.1407 143.158 15.748C144.212 15.3347 145.338 15.128 146.537 15.128C147.529 15.128 148.407 15.252 149.172 15.5H155.434V19.344H152.644C152.747 19.53 152.84 19.7677 152.923 20.057C153.026 20.3463 153.078 20.646 153.078 20.956C153.078 22.1753 152.788 23.1673 152.21 23.932C151.631 24.676 150.846 25.2237 149.854 25.575C148.882 25.9263 147.777 26.102 146.537 26.102C146.268 26.102 145.968 26.0917 145.638 26.071C145.307 26.0297 144.956 25.9677 144.584 25.885C144.398 26.0297 144.263 26.164 144.181 26.288C144.119 26.3913 144.088 26.5567 144.088 26.784C144.088 27.1147 144.274 27.3523 144.646 27.497C145.018 27.6417 145.638 27.714 146.506 27.714H149.141C151.187 27.714 152.768 28.0343 153.884 28.675C155.02 29.295 155.589 30.318 155.589 31.744C155.589 32.86 155.196 33.8417 154.411 34.689C153.646 35.5363 152.551 36.1977 151.125 36.673C149.719 37.1483 148.045 37.386 146.103 37.386ZM146.537 22.94C146.888 22.94 147.198 22.8677 147.467 22.723C147.756 22.5577 147.983 22.32 148.149 22.01C148.335 21.6793 148.428 21.266 148.428 20.77C148.428 20.2947 148.335 19.902 148.149 19.592C147.983 19.282 147.756 19.0547 147.467 18.91C147.198 18.7447 146.888 18.662 146.537 18.662C146.206 18.662 145.896 18.7447 145.607 18.91C145.317 19.0547 145.09 19.282 144.925 19.592C144.759 19.902 144.677 20.2947 144.677 20.77C144.677 21.266 144.759 21.6793 144.925 22.01C145.09 22.32 145.317 22.5577 145.607 22.723C145.896 22.8677 146.206 22.94 146.537 22.94ZM146.94 34.1C147.642 34.1 148.262 34.038 148.8 33.914C149.337 33.8107 149.761 33.6453 150.071 33.418C150.381 33.2113 150.536 32.9633 150.536 32.674C150.536 32.2607 150.329 32.0023 149.916 31.899C149.502 31.7957 148.903 31.744 148.118 31.744H146.568C145.968 31.744 145.493 31.7233 145.142 31.682C144.79 31.6613 144.48 31.62 144.212 31.558C143.943 31.744 143.747 31.9197 143.623 32.085C143.499 32.2503 143.437 32.4467 143.437 32.674C143.437 33.17 143.757 33.5317 144.398 33.759C145.059 33.9863 145.906 34.1 146.94 34.1ZM166.582 31.372C164.949 31.372 163.471 31.0517 162.149 30.411C160.847 29.7703 159.813 28.8507 159.049 27.652C158.284 26.4327 157.902 24.9653 157.902 23.25C157.902 21.5553 158.284 20.1087 159.049 18.91C159.834 17.6907 160.847 16.7607 162.087 16.12C163.327 15.4587 164.639 15.128 166.024 15.128C167.656 15.128 169.02 15.469 170.116 16.151C171.211 16.8123 172.027 17.7113 172.565 18.848C173.123 19.9847 173.402 21.2453 173.402 22.63C173.402 23.0847 173.371 23.529 173.309 23.963C173.267 24.3763 173.226 24.676 173.185 24.862H161.932V21.39H169.496L168.752 22.32C168.752 21.2867 168.545 20.5013 168.132 19.964C167.718 19.4267 167.078 19.158 166.21 19.158C165.528 19.158 164.949 19.3027 164.474 19.592C164.019 19.8813 163.668 20.336 163.42 20.956C163.172 21.5553 163.048 22.32 163.048 23.25C163.048 24.2213 163.203 25.0067 163.513 25.606C163.843 26.2053 164.319 26.6497 164.939 26.939C165.579 27.2077 166.375 27.342 167.326 27.342C167.946 27.342 168.545 27.2697 169.124 27.125C169.723 26.9597 170.364 26.722 171.046 26.412L172.782 29.574C171.852 30.1527 170.829 30.597 169.713 30.907C168.597 31.217 167.553 31.372 166.582 31.372Z" fill="#00DA9A"/>
    <rect x="12.5" y="52.5" width="131.553" height="72" rx="16.5" stroke="#00DA9A"/>
    <path d="M49.1403 93.3033L20.9648 118.597H135.267L97.4868 76.334L66.7499 109.952L49.1403 93.3033Z" fill="#D9D9D9" stroke="#878787"/>
    <circle cx="50.7406" cy="68.9681" r="6.08333" fill="#D9D9D9"/>
    <line x1="50.9209" y1="75.6914" x2="50.9209" y2="79.5335" stroke="#979797"/>
    <line x1="50.9209" y1="58.4023" x2="50.9209" y2="62.2444" stroke="#979797"/>
    <line x1="61.3066" y1="69.1484" x2="57.4645" y2="69.1484" stroke="#979797"/>
    <line x1="44.0166" y1="69.1484" x2="40.1745" y2="69.1484" stroke="#979797"/>
    <line x1="44.1346" y1="66.8038" x2="40.6144" y2="65.2644" stroke="#979797"/>
    <line x1="45.3719" y1="64.4432" x2="42.4168" y2="61.9877" stroke="#979797"/>
    <line x1="47.5274" y1="62.5748" x2="45.512" y2="59.3037" stroke="#979797"/>
    <line x1="57.4406" y1="71.3915" x2="60.9608" y2="72.9309" stroke="#979797"/>
    <line x1="56.2043" y1="73.7522" x2="59.1594" y2="76.2076" stroke="#979797"/>
    <line x1="54.0478" y1="75.6205" x2="56.0632" y2="78.8916" stroke="#979797"/>
    <line y1="-0.5" x2="3.84211" y2="-0.5" transform="matrix(-0.916219 0.400678 0.400678 0.916219 44.335 71.8496)" stroke="#979797"/>
    <line y1="-0.5" x2="3.84211" y2="-0.5" transform="matrix(-0.769123 0.6391 0.6391 0.769123 45.6914 74.1367)" stroke="#979797"/>
    <line y1="-0.5" x2="3.84211" y2="-0.5" transform="matrix(-0.524555 0.851376 0.851376 0.524555 47.9531 75.8828)" stroke="#979797"/>
    <line y1="-0.5" x2="3.84211" y2="-0.5" transform="matrix(0.916219 -0.400678 -0.400678 -0.916219 57.2402 66.3457)" stroke="#979797"/>
    <line y1="-0.5" x2="3.84211" y2="-0.5" transform="matrix(0.769123 -0.6391 -0.6391 -0.769123 55.8848 64.0586)" stroke="#979797"/>
    <line y1="-0.5" x2="3.84211" y2="-0.5" transform="matrix(0.524555 -0.851376 -0.851376 -0.524555 53.6221 62.3125)" stroke="#979797"/>
</svg>