<svg width="100%" height="100%" viewBox="0 0 257 184" fill="none"
    xmlns="http://www.w3.org/2000/svg">
    <rect x="1" y="37" width="255" height="146" rx="16" stroke="#00DA9A" stroke-width="2"/>
    <path d="M63.976 31V10.85H69.308V26.536H77.895V31H63.976ZM87.7719 31V19.654H81.8819V15.5H93.1039V31H87.7719ZM90.2519 13.392C89.2599 13.392 88.4436 13.113 87.8029 12.555C87.1622 11.9763 86.8419 11.222 86.8419 10.292C86.8419 9.362 87.1622 8.60766 87.8029 8.029C88.4436 7.42967 89.2599 7.13 90.2519 7.13C91.2439 7.13 92.0602 7.42967 92.7009 8.029C93.3416 8.60766 93.6619 9.362 93.6619 10.292C93.6619 11.222 93.3416 11.9763 92.7009 12.555C92.0602 13.113 91.2439 13.392 90.2519 13.392ZM104.5 31L98.9198 15.5H104.252L106.267 22.258C106.494 23.0227 106.711 23.808 106.918 24.614C107.124 25.42 107.331 26.2467 107.538 27.094H107.662C107.889 26.2467 108.096 25.42 108.282 24.614C108.488 23.808 108.705 23.0227 108.933 22.258L110.948 15.5H116.032L110.638 31H104.5ZM126.994 31.372C125.361 31.372 123.883 31.0517 122.561 30.411C121.259 29.7703 120.225 28.8507 119.461 27.652C118.696 26.4327 118.314 24.9653 118.314 23.25C118.314 21.5553 118.696 20.1087 119.461 18.91C120.246 17.6907 121.259 16.7607 122.499 16.12C123.739 15.4587 125.051 15.128 126.436 15.128C128.068 15.128 129.432 15.469 130.528 16.151C131.623 16.8123 132.439 17.7113 132.977 18.848C133.535 19.9847 133.814 21.2453 133.814 22.63C133.814 23.0847 133.783 23.529 133.721 23.963C133.679 24.3763 133.638 24.676 133.597 24.862H122.344V21.39H129.908L129.164 22.32C129.164 21.2867 128.957 20.5013 128.544 19.964C128.13 19.4267 127.49 19.158 126.622 19.158C125.94 19.158 125.361 19.3027 124.886 19.592C124.431 19.8813 124.08 20.336 123.832 20.956C123.584 21.5553 123.46 22.32 123.46 23.25C123.46 24.2213 123.615 25.0067 123.925 25.606C124.255 26.2053 124.731 26.6497 125.351 26.939C125.991 27.2077 126.787 27.342 127.738 27.342C128.358 27.342 128.957 27.2697 129.536 27.125C130.135 26.9597 130.776 26.722 131.458 26.412L133.194 29.574C132.264 30.1527 131.241 30.597 130.125 30.907C129.009 31.217 127.965 31.372 126.994 31.372ZM141.428 31L135.476 10.85H141.118L143.226 19.654C143.515 20.7287 143.763 21.793 143.97 22.847C144.197 23.8803 144.445 24.9447 144.714 26.04H144.838C145.127 24.9447 145.375 23.8803 145.582 22.847C145.809 21.793 146.057 20.7287 146.326 19.654L148.372 10.85H153.828L147.876 31H141.428ZM162.123 31V19.654H156.233V15.5H167.455V31H162.123ZM164.603 13.392C163.611 13.392 162.795 13.113 162.154 12.555C161.514 11.9763 161.193 11.222 161.193 10.292C161.193 9.362 161.514 8.60766 162.154 8.029C162.795 7.42967 163.611 7.13 164.603 7.13C165.595 7.13 166.412 7.42967 167.052 8.029C167.693 8.60766 168.013 9.362 168.013 10.292C168.013 11.222 167.693 11.9763 167.052 12.555C166.412 13.113 165.595 13.392 164.603 13.392ZM182.757 31.372C181.125 31.372 179.647 31.0517 178.324 30.411C177.022 29.7703 175.989 28.8507 175.224 27.652C174.46 26.4327 174.077 24.9653 174.077 23.25C174.077 21.5553 174.46 20.1087 175.224 18.91C176.01 17.6907 177.022 16.7607 178.262 16.12C179.502 15.4587 180.815 15.128 182.199 15.128C183.832 15.128 185.196 15.469 186.291 16.151C187.387 16.8123 188.203 17.7113 188.74 18.848C189.298 19.9847 189.577 21.2453 189.577 22.63C189.577 23.0847 189.546 23.529 189.484 23.963C189.443 24.3763 189.402 24.676 189.36 24.862H178.107V21.39H185.671L184.927 22.32C184.927 21.2867 184.721 20.5013 184.307 19.964C183.894 19.4267 183.253 19.158 182.385 19.158C181.703 19.158 181.125 19.3027 180.649 19.592C180.195 19.8813 179.843 20.336 179.595 20.956C179.347 21.5553 179.223 22.32 179.223 23.25C179.223 24.2213 179.378 25.0067 179.688 25.606C180.019 26.2053 180.494 26.6497 181.114 26.939C181.755 27.2077 182.551 27.342 183.501 27.342C184.121 27.342 184.721 27.2697 185.299 27.125C185.899 26.9597 186.539 26.722 187.221 26.412L188.957 29.574C188.027 30.1527 187.004 30.597 185.888 30.907C184.772 31.217 183.729 31.372 182.757 31.372ZM193.409 31L191.177 15.5H196.323L196.943 22.01C197.026 22.7747 197.098 23.5497 197.16 24.335C197.222 25.1203 197.295 25.916 197.377 26.722H197.47C197.553 25.916 197.646 25.1203 197.749 24.335C197.853 23.529 197.977 22.754 198.121 22.01L198.741 17.98H202.337L203.019 22.01C203.164 22.7747 203.288 23.5497 203.391 24.335C203.515 25.1203 203.629 25.916 203.732 26.722H203.856C203.96 25.916 204.022 25.1203 204.042 24.335C204.084 23.5497 204.135 22.7747 204.197 22.01L204.693 15.5H209.653L207.607 31H201.469L200.973 26.846C200.891 26.1227 200.808 25.389 200.725 24.645C200.643 23.901 200.56 23.1053 200.477 22.258H200.353C200.312 22.7747 200.26 23.3843 200.198 24.087C200.136 24.7897 200.043 25.7093 199.919 26.846L199.423 31H193.409Z" fill="#00DA9A"/>
    <rect x="12.5" y="49.5" width="162.421" height="89" rx="16.5" stroke="#00DA9A"/>
    <path d="M57.7896 99.9211L23.0527 131.105H163.974L117.395 79L79.5001 120.447L57.7896 99.9211Z" fill="#D9D9D9" stroke="#878787"/>
    <circle cx="59.7617" cy="69.9199" r="7.5" fill="#D9D9D9"/>
    <line x1="59.8682" y1="78.209" x2="59.8682" y2="82.9458" stroke="#979797"/>
    <line x1="59.8682" y1="56.8945" x2="59.8682" y2="61.6314" stroke="#979797"/>
    <line x1="72.7891" y1="70.0273" x2="68.0522" y2="70.0273" stroke="#979797"/>
    <line x1="51.4727" y1="70.0273" x2="46.7358" y2="70.0273" stroke="#979797"/>
    <line x1="51.6639" y1="67.1456" x2="47.3239" y2="65.2477" stroke="#979797"/>
    <line x1="53.2176" y1="64.2517" x2="49.5743" y2="61.2244" stroke="#979797"/>
    <line x1="55.8995" y1="61.9771" x2="53.4148" y2="57.9443" stroke="#979797"/>
    <line x1="67.9757" y1="73.0145" x2="72.3157" y2="74.9125" stroke="#979797"/>
    <line x1="66.424" y1="75.9084" x2="70.0673" y2="78.9357" stroke="#979797"/>
    <line x1="63.7401" y1="78.183" x2="66.2249" y2="82.2159" stroke="#979797"/>
    <line y1="-0.5" x2="4.73684" y2="-0.5" transform="matrix(-0.916219 0.400678 0.400678 0.916219 51.8643 73.4727)" stroke="#979797"/>
    <line y1="-0.5" x2="4.73684" y2="-0.5" transform="matrix(-0.769123 0.6391 0.6391 0.769123 53.5371 76.293)" stroke="#979797"/>
    <line y1="-0.5" x2="4.73684" y2="-0.5" transform="matrix(-0.524555 0.851376 0.851376 0.524555 56.3252 78.4453)" stroke="#979797"/>
    <line y1="-0.5" x2="4.73684" y2="-0.5" transform="matrix(0.916219 -0.400678 -0.400678 -0.916219 67.7754 66.6875)" stroke="#979797"/>
    <line y1="-0.5" x2="4.73684" y2="-0.5" transform="matrix(0.769123 -0.6391 -0.6391 -0.769123 66.1045 63.8672)" stroke="#979797"/>
    <line y1="-0.5" x2="4.73684" y2="-0.5" transform="matrix(0.524555 -0.851376 -0.851376 -0.524555 63.3145 61.7148)" stroke="#979797"/>
    <mask id="path-22-outside-1_160_974" maskUnits="userSpaceOnUse" x="57" y="69" width="75" height="45" fill="black">
        <rect fill="white" x="57" y="69" width="75" height="45"/>
        <path d="M74.112 112.768C71.7653 112.768 69.6533 112.512 67.776 112C65.9413 111.488 64.2987 110.805 62.848 109.952C61.3973 109.056 60.1813 108.075 59.2 107.008L62.656 102.272C64.0213 103.509 65.6 104.576 67.392 105.472C69.2267 106.325 71.2533 106.752 73.472 106.752C75.136 106.752 76.6293 106.517 77.952 106.048C79.2747 105.536 80.2987 104.832 81.024 103.936C81.792 102.997 82.176 101.888 82.176 100.608C82.176 99.2 81.7493 97.984 80.896 96.96C80.0427 95.936 78.6347 95.1467 76.672 94.592C74.7093 93.9947 72.0427 93.696 68.672 93.696V88.32C71.616 88.32 73.9627 88.0427 75.712 87.488C77.4613 86.8907 78.7413 86.1227 79.552 85.184C80.3627 84.2027 80.768 83.072 80.768 81.792C80.768 80.0853 80.1067 78.7627 78.784 77.824C77.504 76.8427 75.776 76.352 73.6 76.352C71.8507 76.352 70.208 76.7147 68.672 77.44C67.136 78.1227 65.6853 79.04 64.32 80.192L60.48 75.648C62.3573 74.112 64.4053 72.8747 66.624 71.936C68.8853 70.9973 71.3173 70.528 73.92 70.528C76.6933 70.528 79.1467 70.9547 81.28 71.808C83.456 72.6187 85.1413 73.8347 86.336 75.456C87.5733 77.0347 88.192 78.976 88.192 81.28C88.192 83.5413 87.4453 85.44 85.952 86.976C84.4587 88.512 82.4533 89.728 79.936 90.624V90.88C81.728 91.3067 83.3493 91.968 84.8 92.864C86.2933 93.76 87.4667 94.8907 88.32 96.256C89.1733 97.6213 89.6 99.2 89.6 100.992C89.6 103.467 88.8747 105.6 87.424 107.392C86.016 109.141 84.1387 110.485 81.792 111.424C79.488 112.32 76.928 112.768 74.112 112.768ZM99.367 112V70.144H110.375C114.471 70.144 117.991 70.912 120.935 72.448C123.922 73.984 126.183 76.288 127.719 79.36C129.298 82.432 130.087 86.272 130.087 90.88C130.087 95.5307 129.298 99.4347 127.719 102.592C126.183 105.707 123.964 108.053 121.063 109.632C118.162 111.211 114.727 112 110.759 112H99.367ZM106.791 105.984H109.927C112.615 105.984 114.876 105.451 116.711 104.384C118.588 103.275 120.018 101.611 120.999 99.392C121.98 97.1733 122.471 94.336 122.471 90.88C122.471 87.4667 121.98 84.672 120.999 82.496C120.018 80.32 118.588 78.72 116.711 77.696C114.876 76.672 112.615 76.16 109.927 76.16H106.791V105.984Z"/>
    </mask>
    <path d="M74.112 112.768C71.7653 112.768 69.6533 112.512 67.776 112C65.9413 111.488 64.2987 110.805 62.848 109.952C61.3973 109.056 60.1813 108.075 59.2 107.008L62.656 102.272C64.0213 103.509 65.6 104.576 67.392 105.472C69.2267 106.325 71.2533 106.752 73.472 106.752C75.136 106.752 76.6293 106.517 77.952 106.048C79.2747 105.536 80.2987 104.832 81.024 103.936C81.792 102.997 82.176 101.888 82.176 100.608C82.176 99.2 81.7493 97.984 80.896 96.96C80.0427 95.936 78.6347 95.1467 76.672 94.592C74.7093 93.9947 72.0427 93.696 68.672 93.696V88.32C71.616 88.32 73.9627 88.0427 75.712 87.488C77.4613 86.8907 78.7413 86.1227 79.552 85.184C80.3627 84.2027 80.768 83.072 80.768 81.792C80.768 80.0853 80.1067 78.7627 78.784 77.824C77.504 76.8427 75.776 76.352 73.6 76.352C71.8507 76.352 70.208 76.7147 68.672 77.44C67.136 78.1227 65.6853 79.04 64.32 80.192L60.48 75.648C62.3573 74.112 64.4053 72.8747 66.624 71.936C68.8853 70.9973 71.3173 70.528 73.92 70.528C76.6933 70.528 79.1467 70.9547 81.28 71.808C83.456 72.6187 85.1413 73.8347 86.336 75.456C87.5733 77.0347 88.192 78.976 88.192 81.28C88.192 83.5413 87.4453 85.44 85.952 86.976C84.4587 88.512 82.4533 89.728 79.936 90.624V90.88C81.728 91.3067 83.3493 91.968 84.8 92.864C86.2933 93.76 87.4667 94.8907 88.32 96.256C89.1733 97.6213 89.6 99.2 89.6 100.992C89.6 103.467 88.8747 105.6 87.424 107.392C86.016 109.141 84.1387 110.485 81.792 111.424C79.488 112.32 76.928 112.768 74.112 112.768ZM99.367 112V70.144H110.375C114.471 70.144 117.991 70.912 120.935 72.448C123.922 73.984 126.183 76.288 127.719 79.36C129.298 82.432 130.087 86.272 130.087 90.88C130.087 95.5307 129.298 99.4347 127.719 102.592C126.183 105.707 123.964 108.053 121.063 109.632C118.162 111.211 114.727 112 110.759 112H99.367ZM106.791 105.984H109.927C112.615 105.984 114.876 105.451 116.711 104.384C118.588 103.275 120.018 101.611 120.999 99.392C121.98 97.1733 122.471 94.336 122.471 90.88C122.471 87.4667 121.98 84.672 120.999 82.496C120.018 80.32 118.588 78.72 116.711 77.696C114.876 76.672 112.615 76.16 109.927 76.16H106.791V105.984Z" fill="#00DA9A"/>
    <path d="M67.776 112L67.5072 112.963L67.5129 112.965L67.776 112ZM62.848 109.952L62.3225 110.803L62.3317 110.808L62.341 110.814L62.848 109.952ZM59.2 107.008L58.3922 106.419L57.9086 107.081L58.4641 107.685L59.2 107.008ZM62.656 102.272L63.3275 101.531L62.5036 100.784L61.8482 101.683L62.656 102.272ZM67.392 105.472L66.9448 106.366L66.9574 106.373L66.9703 106.379L67.392 105.472ZM77.952 106.048L78.2864 106.99L78.2998 106.986L78.313 106.981L77.952 106.048ZM81.024 103.936L80.25 103.303L80.2468 103.307L81.024 103.936ZM80.896 96.96L81.6642 96.3198L81.6642 96.3198L80.896 96.96ZM76.672 94.592L76.3808 95.5487L76.3904 95.5516L76.4 95.5543L76.672 94.592ZM68.672 93.696H67.672V94.696H68.672V93.696ZM68.672 88.32V87.32H67.672V88.32H68.672ZM75.712 87.488L76.0142 88.4412L76.0247 88.4379L76.0351 88.4343L75.712 87.488ZM79.552 85.184L80.3088 85.8376L80.316 85.8293L80.323 85.8209L79.552 85.184ZM78.784 77.824L78.1756 78.6176L78.1902 78.6288L78.2053 78.6395L78.784 77.824ZM68.672 77.44L69.0781 78.3538L69.0886 78.3491L69.099 78.3442L68.672 77.44ZM64.32 80.192L63.5562 80.8375L64.2012 81.6007L64.9649 80.9563L64.32 80.192ZM60.48 75.648L59.8468 74.874L59.0604 75.5174L59.7162 76.2935L60.48 75.648ZM66.624 71.936L66.2406 71.0124L66.2344 71.015L66.624 71.936ZM81.28 71.808L80.9086 72.7365L80.9197 72.7409L80.9309 72.7451L81.28 71.808ZM86.336 75.456L85.5309 76.0492L85.5398 76.0612L85.5489 76.0729L86.336 75.456ZM85.952 86.976L85.235 86.2789L85.235 86.2789L85.952 86.976ZM79.936 90.624L79.6007 89.6819L78.936 89.9185V90.624H79.936ZM79.936 90.88H78.936V91.6699L79.7044 91.8528L79.936 90.88ZM84.8 92.864L84.2745 93.7149L84.2855 93.7215L84.8 92.864ZM88.32 96.256L87.472 96.786L87.472 96.786L88.32 96.256ZM87.424 107.392L86.6468 106.763L86.645 106.765L87.424 107.392ZM81.792 111.424L82.1545 112.356L82.1634 112.352L81.792 111.424ZM74.112 111.768C71.8366 111.768 69.8152 111.52 68.0391 111.035L67.5129 112.965C69.4914 113.504 71.6941 113.768 74.112 113.768V111.768ZM68.0448 111.037C66.2828 110.545 64.7219 109.894 63.355 109.09L62.341 110.814C63.8754 111.717 65.5998 112.431 67.5072 112.963L68.0448 111.037ZM63.3735 109.101C61.9873 108.245 60.8456 107.32 59.9359 106.331L58.4641 107.685C59.517 108.83 60.8074 109.867 62.3225 110.803L63.3735 109.101ZM60.0078 107.597L63.4638 102.861L61.8482 101.683L58.3922 106.419L60.0078 107.597ZM61.9845 103.013C63.4229 104.317 65.0784 105.433 66.9448 106.366L67.8392 104.578C66.1216 103.719 64.6198 102.702 63.3275 101.531L61.9845 103.013ZM66.9703 106.379C68.9494 107.299 71.1219 107.752 73.472 107.752V105.752C71.3848 105.752 69.504 105.351 67.8137 104.565L66.9703 106.379ZM73.472 107.752C75.2293 107.752 76.8385 107.504 78.2864 106.99L77.6176 105.106C76.4202 105.53 75.0427 105.752 73.472 105.752V107.752ZM78.313 106.981C79.7613 106.42 80.9434 105.625 81.8012 104.565L80.2468 103.307C79.654 104.039 78.788 104.652 77.591 105.115L78.313 106.981ZM81.798 104.569C82.7206 103.442 83.176 102.105 83.176 100.608H81.176C81.176 101.671 80.8634 102.553 80.25 103.303L81.798 104.569ZM83.176 100.608C83.176 98.9803 82.6762 97.5342 81.6642 96.3198L80.1278 97.6002C80.8225 98.4338 81.176 99.4197 81.176 100.608H83.176ZM81.6642 96.3198C80.6299 95.0787 79.0047 94.2121 76.944 93.6297L76.4 95.5543C78.2647 96.0813 79.4554 96.7933 80.1278 97.6002L81.6642 96.3198ZM76.9632 93.6353C74.8651 92.9968 72.0866 92.696 68.672 92.696V94.696C71.9987 94.696 74.5535 94.9925 76.3808 95.5487L76.9632 93.6353ZM69.672 93.696V88.32H67.672V93.696H69.672ZM68.672 89.32C71.6645 89.32 74.1264 89.0398 76.0142 88.4412L75.4098 86.5348C73.799 87.0455 71.5675 87.32 68.672 87.32V89.32ZM76.0351 88.4343C77.8759 87.8058 79.3387 86.9609 80.3088 85.8376L78.7952 84.5304C78.1439 85.2845 77.0467 85.9755 75.3889 86.5416L76.0351 88.4343ZM80.323 85.8209C81.2826 84.6592 81.768 83.303 81.768 81.792H79.768C79.768 82.841 79.4428 83.7461 78.781 84.5471L80.323 85.8209ZM81.768 81.792C81.768 79.7813 80.9656 78.146 79.3627 77.0085L78.2053 78.6395C79.2478 79.3794 79.768 80.3894 79.768 81.792H81.768ZM79.3924 77.0304C77.8858 75.8753 75.9198 75.352 73.6 75.352V77.352C75.6322 77.352 77.1222 77.8101 78.1756 78.6176L79.3924 77.0304ZM73.6 75.352C71.7075 75.352 69.9186 75.7455 68.245 76.5358L69.099 78.3442C70.4974 77.6839 71.9938 77.352 73.6 77.352V75.352ZM68.2659 76.5262C66.6384 77.2495 65.1081 78.2187 63.6751 79.4277L64.9649 80.9563C66.2626 79.8613 67.6336 78.9958 69.0781 78.3538L68.2659 76.5262ZM65.0838 79.5465L61.2438 75.0025L59.7162 76.2935L63.5562 80.8375L65.0838 79.5465ZM61.1132 76.422C62.9173 74.9459 64.8834 73.7582 67.0136 72.857L66.2344 71.015C63.9273 71.9911 61.7974 73.2781 59.8468 74.874L61.1132 76.422ZM67.0074 72.8596C69.1397 71.9745 71.4405 71.528 73.92 71.528V69.528C71.1942 69.528 68.631 70.0202 66.2406 71.0124L67.0074 72.8596ZM73.92 71.528C76.5918 71.528 78.9151 71.9391 80.9086 72.7365L81.6514 70.8795C79.3782 69.9703 76.7949 69.528 73.92 69.528V71.528ZM80.9309 72.7451C82.9533 73.4985 84.4685 74.6072 85.5309 76.0492L87.1411 74.8628C85.8142 73.0621 83.9587 71.7388 81.6291 70.8709L80.9309 72.7451ZM85.5489 76.0729C86.6283 77.4499 87.192 79.1648 87.192 81.28H89.192C89.192 78.7872 88.5184 76.6194 87.1231 74.8391L85.5489 76.0729ZM87.192 81.28C87.192 83.297 86.536 84.9408 85.235 86.2789L86.669 87.6731C88.3547 85.9392 89.192 83.7857 89.192 81.28H87.192ZM85.235 86.2789C83.8715 87.6813 82.0086 88.8249 79.6007 89.6819L80.2713 91.5661C82.8981 90.6311 85.0458 89.3427 86.669 87.6731L85.235 86.2789ZM78.936 90.624V90.88H80.936V90.624H78.936ZM79.7044 91.8528C81.4009 92.2567 82.9217 92.8792 84.2745 93.7148L85.3255 92.0132C83.777 91.0568 82.0551 90.3566 80.1676 89.9072L79.7044 91.8528ZM84.2855 93.7215C85.6547 94.543 86.7091 95.5654 87.472 96.786L89.168 95.726C88.2242 94.2159 86.932 92.977 85.3145 92.0065L84.2855 93.7215ZM87.472 96.786C88.215 97.9748 88.6 99.3656 88.6 100.992H90.6C90.6 99.0344 90.1316 97.2678 89.168 95.726L87.472 96.786ZM88.6 100.992C88.6 103.256 87.9424 105.162 86.6468 106.763L88.2012 108.021C89.807 106.038 90.6 103.678 90.6 100.992H88.6ZM86.645 106.765C85.3577 108.364 83.6282 109.613 81.4206 110.496L82.1634 112.352C84.6492 111.358 86.6743 109.918 88.203 108.019L86.645 106.765ZM81.4296 110.492C79.256 111.337 76.8211 111.768 74.112 111.768V113.768C77.0349 113.768 79.72 113.303 82.1544 112.356L81.4296 110.492ZM99.367 112H98.367V113H99.367V112ZM99.367 70.144V69.144H98.367V70.144H99.367ZM120.935 72.448L120.472 73.3346L120.478 73.3373L120.935 72.448ZM127.719 79.36L126.825 79.8072L126.83 79.8171L127.719 79.36ZM127.719 102.592L126.825 102.145L126.822 102.15L127.719 102.592ZM121.063 109.632L121.541 110.51L121.541 110.51L121.063 109.632ZM106.791 105.984H105.791V106.984H106.791V105.984ZM116.711 104.384L117.214 105.249L117.22 105.245L116.711 104.384ZM116.711 77.696L116.224 78.5692L116.232 78.5739L116.711 77.696ZM106.791 76.16V75.16H105.791V76.16H106.791ZM100.367 112V70.144H98.367V112H100.367ZM99.367 71.144H110.375V69.144H99.367V71.144ZM110.375 71.144C114.347 71.144 117.701 71.8885 120.472 73.3346L121.398 71.5614C118.281 69.9355 114.595 69.144 110.375 69.144V71.144ZM120.478 73.3373C123.271 74.7738 125.381 76.9206 126.825 79.8072L128.613 78.9128C126.985 75.6554 124.573 73.1942 121.392 71.5587L120.478 73.3373ZM126.83 79.8171C128.315 82.7085 129.087 86.3801 129.087 90.88H131.087C131.087 86.1639 130.28 82.1555 128.608 78.9029L126.83 79.8171ZM129.087 90.88C129.087 95.4227 128.315 99.1632 126.825 102.145L128.613 103.039C130.28 99.7061 131.087 95.6386 131.087 90.88H129.087ZM126.822 102.15C125.372 105.089 123.295 107.279 120.585 108.754L121.541 110.51C124.633 108.828 126.994 106.324 128.616 103.034L126.822 102.15ZM120.585 108.754C117.857 110.238 114.594 111 110.759 111V113C114.86 113 118.466 112.183 121.541 110.51L120.585 108.754ZM110.759 111H99.367V113H110.759V111ZM106.791 106.984H109.927V104.984H106.791V106.984ZM109.927 106.984C112.745 106.984 115.191 106.425 117.214 105.249L116.208 103.519C114.562 104.477 112.485 104.984 109.927 104.984V106.984ZM117.22 105.245C119.297 104.018 120.858 102.183 121.914 99.7965L120.084 98.9875C119.178 101.038 117.88 102.532 116.202 103.523L117.22 105.245ZM121.914 99.7965C122.97 97.4084 123.471 94.4205 123.471 90.88H121.471C121.471 94.2515 120.991 96.9383 120.084 98.9875L121.914 99.7965ZM123.471 90.88C123.471 87.3814 122.97 84.4332 121.911 82.0849L120.087 82.9071C120.991 84.9108 121.471 87.552 121.471 90.88H123.471ZM121.911 82.0849C120.851 79.7346 119.281 77.9585 117.19 76.8181L116.232 78.5739C117.896 79.4815 119.185 80.9054 120.087 82.9071L121.911 82.0849ZM117.198 76.8228C115.179 75.6956 112.739 75.16 109.927 75.16V77.16C112.491 77.16 114.574 77.6484 116.224 78.5692L117.198 76.8228ZM109.927 75.16H106.791V77.16H109.927V75.16ZM105.791 76.16V105.984H107.791V76.16H105.791Z" fill="#8D8D8D" mask="url(#path-22-outside-1_160_974)"/>
</svg>