<svg width="100%" height="100%" viewBox="0 0 257 192" fill="none"
    xmlns="http://www.w3.org/2000/svg">
    <rect x="1" y="41" width="255" height="146" rx="16" stroke="#00DA9A" stroke-width="2"/>
    <path d="M45.612 31V10.85H51.037L52.68 17.422L53.238 20.026H53.362L53.92 17.422L55.563 10.85H60.988V31H56.586V26.257C56.586 25.6577 56.6067 24.9033 56.648 23.994C56.71 23.0847 56.772 22.134 56.834 21.142C56.896 20.1293 56.9683 19.1683 57.051 18.259C57.1337 17.3497 57.206 16.6057 57.268 16.027H57.175L55.47 22.01L54.416 25.668H52.06L50.944 22.01L49.394 16.027H49.27C49.332 16.6057 49.4043 17.3497 49.487 18.259C49.5697 19.1683 49.642 20.1293 49.704 21.142C49.766 22.134 49.8177 23.0847 49.859 23.994C49.921 24.9033 49.952 25.6577 49.952 26.257V31H45.612ZM69.2839 31.372C68.2092 31.372 67.2999 31.155 66.5559 30.721C65.8119 30.2663 65.2436 29.6773 64.8509 28.954C64.4582 28.2307 64.2619 27.4453 64.2619 26.598C64.2619 24.862 65.0059 23.5393 66.4939 22.63C68.0026 21.7 70.5239 21.142 74.0579 20.956C73.9959 20.584 73.8409 20.2843 73.5929 20.057C73.3449 19.809 73.0039 19.6333 72.5699 19.53C72.1566 19.406 71.6606 19.344 71.0819 19.344C70.6479 19.344 70.2036 19.3957 69.7489 19.499C69.2942 19.5817 68.8086 19.7263 68.2919 19.933C67.7959 20.119 67.2379 20.3567 66.6179 20.646L64.7579 17.174C65.5432 16.74 66.3389 16.368 67.1449 16.058C67.9509 15.748 68.7672 15.5207 69.5939 15.376C70.4206 15.2107 71.2679 15.128 72.1359 15.128C73.6032 15.128 74.8742 15.3863 75.9489 15.903C77.0442 16.399 77.8916 17.1843 78.4909 18.259C79.0902 19.313 79.3899 20.6873 79.3899 22.382V31H75.0499L74.6779 29.388H74.5539C73.7892 29.946 72.9626 30.4213 72.0739 30.814C71.1852 31.186 70.2552 31.372 69.2839 31.372ZM71.0199 27.28C71.6399 27.28 72.1979 27.1663 72.6939 26.939C73.1899 26.691 73.6446 26.412 74.0579 26.102V24.118C72.7972 24.1593 71.8259 24.273 71.1439 24.459C70.4619 24.645 69.9866 24.893 69.7179 25.203C69.4699 25.4923 69.3459 25.8127 69.3459 26.164C69.3459 26.3913 69.4079 26.598 69.5319 26.784C69.6559 26.9493 69.8419 27.0733 70.0899 27.156C70.3379 27.2387 70.6479 27.28 71.0199 27.28ZM90.1658 31.372C88.8431 31.372 87.4998 31.1447 86.1358 30.69C84.7718 30.2147 83.5938 29.6567 82.6018 29.016L84.8338 25.73C85.8051 26.3087 86.8074 26.7427 87.8408 27.032C88.8948 27.3213 89.9178 27.466 90.9098 27.466C91.5918 27.466 92.0774 27.3833 92.3668 27.218C92.6768 27.032 92.8318 26.8047 92.8318 26.536C92.8318 26.35 92.7698 26.195 92.6458 26.071C92.5424 25.947 92.3564 25.8437 92.0878 25.761C91.8398 25.6577 91.4988 25.5647 91.0648 25.482C90.6308 25.3787 90.0831 25.2547 89.4218 25.11C87.2931 24.6347 85.7844 23.994 84.8958 23.188C84.0278 22.3613 83.5938 21.3487 83.5938 20.15C83.5938 18.6207 84.2551 17.4013 85.5778 16.492C86.9211 15.5827 88.7191 15.128 90.9718 15.128C92.4391 15.128 93.7411 15.3657 94.8778 15.841C96.0351 16.2957 97.0271 16.7813 97.8538 17.298L95.4978 20.46C94.6918 19.9847 93.8548 19.6333 92.9868 19.406C92.1188 19.158 91.2818 19.034 90.4758 19.034C90.1451 19.034 89.8558 19.065 89.6078 19.127C89.3804 19.189 89.1944 19.2923 89.0498 19.437C88.9258 19.561 88.8638 19.716 88.8638 19.902C88.8638 20.2327 89.1014 20.46 89.5768 20.584C90.0521 20.708 90.8891 20.9147 92.0878 21.204C93.6378 21.5553 94.8468 21.9583 95.7148 22.413C96.6034 22.8677 97.2234 23.405 97.5748 24.025C97.9261 24.6243 98.1018 25.358 98.1018 26.226C98.1018 27.1973 97.8021 28.0757 97.2028 28.861C96.6034 29.6257 95.7148 30.2353 94.5368 30.69C93.3588 31.1447 91.9018 31.372 90.1658 31.372ZM101.748 31V9.424H107.08V21.018H107.204L111.916 15.5H117.682L107.08 27.218V31H101.748ZM112.288 31L108.382 24.428L111.42 21.142L118.054 31H112.288ZM120.398 31V26.536H124.986V15.314H120.398V10.85H134.906V15.314H130.318V26.536H134.906V31H120.398ZM137.745 31V15.5H141.713L142.085 17.36H142.209C142.457 16.7607 142.84 16.244 143.356 15.81C143.894 15.3553 144.607 15.128 145.495 15.128C146.136 15.128 146.684 15.345 147.138 15.779C147.614 16.1923 147.934 16.802 148.099 17.608C148.327 16.9467 148.719 16.368 149.277 15.872C149.835 15.376 150.559 15.128 151.447 15.128C152.563 15.128 153.421 15.593 154.02 16.523C154.62 17.4323 154.919 18.662 154.919 20.212V31H149.897V20.584C149.897 19.964 149.722 19.654 149.37 19.654C149.164 19.654 148.978 19.747 148.812 19.933C148.647 20.119 148.492 20.4187 148.347 20.832V31H144.317V20.584C144.317 20.2533 144.266 20.0157 144.162 19.871C144.059 19.7263 143.904 19.654 143.697 19.654C143.511 19.654 143.346 19.747 143.201 19.933C143.057 20.119 142.912 20.4187 142.767 20.832V31H137.745ZM162.223 31.372C161.149 31.372 160.239 31.155 159.495 30.721C158.751 30.2663 158.183 29.6773 157.79 28.954C157.398 28.2307 157.201 27.4453 157.201 26.598C157.201 24.862 157.945 23.5393 159.433 22.63C160.942 21.7 163.463 21.142 166.997 20.956C166.935 20.584 166.78 20.2843 166.532 20.057C166.284 19.809 165.943 19.6333 165.509 19.53C165.096 19.406 164.6 19.344 164.021 19.344C163.587 19.344 163.143 19.3957 162.688 19.499C162.234 19.5817 161.748 19.7263 161.231 19.933C160.735 20.119 160.177 20.3567 159.557 20.646L157.697 17.174C158.483 16.74 159.278 16.368 160.084 16.058C160.89 15.748 161.707 15.5207 162.533 15.376C163.36 15.2107 164.207 15.128 165.075 15.128C166.543 15.128 167.814 15.3863 168.888 15.903C169.984 16.399 170.831 17.1843 171.43 18.259C172.03 19.313 172.329 20.6873 172.329 22.382V31H167.989L167.617 29.388H167.493C166.729 29.946 165.902 30.4213 165.013 30.814C164.125 31.186 163.195 31.372 162.223 31.372ZM163.959 27.28C164.579 27.28 165.137 27.1663 165.633 26.939C166.129 26.691 166.584 26.412 166.997 26.102V24.118C165.737 24.1593 164.765 24.273 164.083 24.459C163.401 24.645 162.926 24.893 162.657 25.203C162.409 25.4923 162.285 25.8127 162.285 26.164C162.285 26.3913 162.347 26.598 162.471 26.784C162.595 26.9493 162.781 27.0733 163.029 27.156C163.277 27.2387 163.587 27.28 163.959 27.28ZM182.454 37.386C181.173 37.386 180.005 37.2517 178.951 36.983C177.897 36.735 177.05 36.332 176.409 35.774C175.789 35.216 175.479 34.472 175.479 33.542C175.479 32.9013 175.676 32.333 176.068 31.837C176.482 31.3617 177.071 30.938 177.835 30.566V30.442C177.401 30.1527 177.029 29.8013 176.719 29.388C176.43 28.954 176.285 28.4167 176.285 27.776C176.285 27.2387 176.461 26.7117 176.812 26.195C177.164 25.6783 177.608 25.234 178.145 24.862V24.738C177.567 24.366 177.071 23.839 176.657 23.157C176.244 22.4543 176.037 21.6587 176.037 20.77C176.037 19.4887 176.358 18.4347 176.998 17.608C177.639 16.7607 178.476 16.1407 179.509 15.748C180.563 15.3347 181.69 15.128 182.888 15.128C183.88 15.128 184.759 15.252 185.523 15.5H191.785V19.344H188.995C189.099 19.53 189.192 19.7677 189.274 20.057C189.378 20.3463 189.429 20.646 189.429 20.956C189.429 22.1753 189.14 23.1673 188.561 23.932C187.983 24.676 187.197 25.2237 186.205 25.575C185.234 25.9263 184.128 26.102 182.888 26.102C182.62 26.102 182.32 26.0917 181.989 26.071C181.659 26.0297 181.307 25.9677 180.935 25.885C180.749 26.0297 180.615 26.164 180.532 26.288C180.47 26.3913 180.439 26.5567 180.439 26.784C180.439 27.1147 180.625 27.3523 180.997 27.497C181.369 27.6417 181.989 27.714 182.857 27.714H185.492C187.538 27.714 189.119 28.0343 190.235 28.675C191.372 29.295 191.94 30.318 191.94 31.744C191.94 32.86 191.548 33.8417 190.762 34.689C189.998 35.5363 188.902 36.1977 187.476 36.673C186.071 37.1483 184.397 37.386 182.454 37.386ZM182.888 22.94C183.24 22.94 183.55 22.8677 183.818 22.723C184.108 22.5577 184.335 22.32 184.5 22.01C184.686 21.6793 184.779 21.266 184.779 20.77C184.779 20.2947 184.686 19.902 184.5 19.592C184.335 19.282 184.108 19.0547 183.818 18.91C183.55 18.7447 183.24 18.662 182.888 18.662C182.558 18.662 182.248 18.7447 181.958 18.91C181.669 19.0547 181.442 19.282 181.276 19.592C181.111 19.902 181.028 20.2947 181.028 20.77C181.028 21.266 181.111 21.6793 181.276 22.01C181.442 22.32 181.669 22.5577 181.958 22.723C182.248 22.8677 182.558 22.94 182.888 22.94ZM183.291 34.1C183.994 34.1 184.614 34.038 185.151 33.914C185.689 33.8107 186.112 33.6453 186.422 33.418C186.732 33.2113 186.887 32.9633 186.887 32.674C186.887 32.2607 186.681 32.0023 186.267 31.899C185.854 31.7957 185.255 31.744 184.469 31.744H182.919C182.32 31.744 181.845 31.7233 181.493 31.682C181.142 31.6613 180.832 31.62 180.563 31.558C180.295 31.744 180.098 31.9197 179.974 32.085C179.85 32.2503 179.788 32.4467 179.788 32.674C179.788 33.17 180.109 33.5317 180.749 33.759C181.411 33.9863 182.258 34.1 183.291 34.1ZM202.933 31.372C201.3 31.372 199.823 31.0517 198.5 30.411C197.198 29.7703 196.165 28.8507 195.4 27.652C194.635 26.4327 194.253 24.9653 194.253 23.25C194.253 21.5553 194.635 20.1087 195.4 18.91C196.185 17.6907 197.198 16.7607 198.438 16.12C199.678 15.4587 200.99 15.128 202.375 15.128C204.008 15.128 205.372 15.469 206.467 16.151C207.562 16.8123 208.379 17.7113 208.916 18.848C209.474 19.9847 209.753 21.2453 209.753 22.63C209.753 23.0847 209.722 23.529 209.66 23.963C209.619 24.3763 209.577 24.676 209.536 24.862H198.283V21.39H205.847L205.103 22.32C205.103 21.2867 204.896 20.5013 204.483 19.964C204.07 19.4267 203.429 19.158 202.561 19.158C201.879 19.158 201.3 19.3027 200.825 19.592C200.37 19.8813 200.019 20.336 199.771 20.956C199.523 21.5553 199.399 22.32 199.399 23.25C199.399 24.2213 199.554 25.0067 199.864 25.606C200.195 26.2053 200.67 26.6497 201.29 26.939C201.931 27.2077 202.726 27.342 203.677 27.342C204.297 27.342 204.896 27.2697 205.475 27.125C206.074 26.9597 206.715 26.722 207.397 26.412L209.133 29.574C208.203 30.1527 207.18 30.597 206.064 30.907C204.948 31.217 203.904 31.372 202.933 31.372Z" fill="#00DA9A"/>
    <mask id="mask0_159_931" style="mask-type:alpha" maskUnits="userSpaceOnUse" x="61" y="52" width="123" height="125">
        <path d="M182.66 99.9354L110.276 52.883L62.6558 64.9176L126.424 124.771L181.584 102.092L182.66 99.9354Z" fill="white" stroke="#999999" stroke-width="0.7"/>
        <path d="M173.033 150.323L182.649 100.372L125.296 123.485L123.254 175.77L173.033 150.323Z" fill="black" stroke="#999999" stroke-width="0.7"/>
    </mask>
    <g mask="url(#mask0_159_931)">
        <rect x="32.2725" y="55.1094" width="220.997" height="121.259" rx="16.5" stroke="#00DA9A"/>
        <rect x="30" y="42.2031" width="249" height="137.349" fill="#00DA9A"/>
        <path d="M93.9738 123.781L46.7861 166.143H238.218L174.944 95.3613L123.466 151.665L93.9738 123.781Z" fill="#D9D9D9" stroke="#878787"/>
        <circle cx="96.655" cy="83.0261" r="10.1883" fill="#D9D9D9"/>
        <line x1="96.6191" y1="94.2871" x2="96.6191" y2="100.722" stroke="#979797"/>
        <line x1="96.6191" y1="65.332" x2="96.6191" y2="71.7667" stroke="#979797"/>
        <line x1="114.35" y1="82.9941" x2="107.915" y2="82.9941" stroke="#979797"/>
        <line x1="85.3926" y1="82.9941" x2="78.9579" y2="82.9941" stroke="#979797"/>
        <line x1="85.7254" y1="79.0948" x2="79.8299" y2="76.5166" stroke="#979797"/>
        <line x1="87.8777" y1="75.1892" x2="82.9286" y2="71.0768" stroke="#979797"/>
        <line x1="91.5597" y1="72.1451" x2="88.1843" y2="66.6667" stroke="#979797"/>
        <line x1="107.739" y1="87.3935" x2="113.635" y2="89.9717" stroke="#979797"/>
        <line x1="105.589" y1="91.299" x2="110.538" y2="95.4114" stroke="#979797"/>
        <line x1="101.905" y1="94.3491" x2="105.281" y2="99.8274" stroke="#979797"/>
        <line y1="-0.5" x2="6.43468" y2="-0.5" transform="matrix(-0.916219 0.400678 0.400678 0.916219 85.9258 87.8516)" stroke="#979797"/>
        <line y1="-0.5" x2="6.43468" y2="-0.5" transform="matrix(-0.769123 0.6391 0.6391 0.769123 88.1973 91.6836)" stroke="#979797"/>
        <line y1="-0.5" x2="6.43468" y2="-0.5" transform="matrix(-0.524555 0.851376 0.851376 0.524555 91.9854 94.6113)" stroke="#979797"/>
        <line y1="-0.5" x2="6.43468" y2="-0.5" transform="matrix(0.916219 -0.400678 -0.400678 -0.916219 107.539 78.6367)" stroke="#979797"/>
        <line y1="-0.5" x2="6.43468" y2="-0.5" transform="matrix(0.769123 -0.6391 -0.6391 -0.769123 105.27 74.8047)" stroke="#979797"/>
        <line y1="-0.5" x2="6.43468" y2="-0.5" transform="matrix(0.524555 -0.851376 -0.851376 -0.524555 101.479 71.8828)" stroke="#979797"/>
    </g>
</svg>