<svg width="100%" height="100%" viewBox="0 0 257 125" fill="none"
    xmlns="http://www.w3.org/2000/svg">
    <rect x="1" y="51" width="255" height="73" rx="16" stroke="#00CF92" stroke-width="2"/>
    <path d="M69.279 42L75.572 21.788H81.028L87.321 42H82.485L79.881 31.77C79.633 30.7573 79.3643 29.6827 79.075 28.546C78.7857 27.4093 78.517 26.314 78.269 25.26H78.145C77.897 26.314 77.6387 27.4093 77.37 28.546C77.1013 29.6827 76.8327 30.7573 76.564 31.77L73.929 42H69.279ZM73.433 37.195V33.63H83.105V37.195H73.433ZM98.0659 42.372C97.3632 42.372 96.6399 42.1963 95.8959 41.845C95.1726 41.4937 94.5009 40.9873 93.8809 40.326H93.7569L93.3849 42H89.8199V20.269H94.3769V25.601L94.2219 28.019H94.3149C94.9142 27.461 95.5756 27.027 96.2989 26.717C97.0429 26.407 97.7869 26.252 98.5309 26.252C99.8329 26.252 100.939 26.5723 101.848 27.213C102.778 27.8537 103.491 28.763 103.987 29.941C104.483 31.0983 104.731 32.4623 104.731 34.033C104.731 35.7897 104.411 37.2983 103.77 38.559C103.15 39.799 102.334 40.7497 101.321 41.411C100.308 42.0517 99.2232 42.372 98.0659 42.372ZM97.0429 38.652C97.6009 38.652 98.1072 38.497 98.5619 38.187C99.0166 37.877 99.3782 37.3913 99.6469 36.73C99.9156 36.048 100.05 35.18 100.05 34.126C100.05 33.196 99.9466 32.4313 99.7399 31.832C99.5332 31.212 99.2232 30.747 98.8099 30.437C98.4172 30.127 97.8902 29.972 97.2289 29.972C96.7329 29.972 96.2472 30.0857 95.7719 30.313C95.3172 30.5197 94.8522 30.8813 94.3769 31.398V37.629C94.8109 37.9803 95.2552 38.2387 95.7099 38.404C96.1852 38.5693 96.6296 38.652 97.0429 38.652ZM115.352 42.372C113.988 42.372 112.634 42.1447 111.291 41.69C109.947 41.2147 108.79 40.6567 107.819 40.016L109.772 37.164C110.702 37.7633 111.683 38.218 112.717 38.528C113.771 38.838 114.856 38.993 115.972 38.993C116.819 38.993 117.439 38.869 117.832 38.621C118.224 38.3523 118.421 38.0423 118.421 37.691C118.421 37.4637 118.359 37.2777 118.235 37.133C118.131 36.9677 117.935 36.823 117.646 36.699C117.377 36.5543 116.995 36.42 116.499 36.296C116.023 36.172 115.403 36.0273 114.639 35.862C112.551 35.4073 111.053 34.7873 110.144 34.002C109.234 33.2167 108.78 32.235 108.78 31.057C108.78 29.6103 109.41 28.453 110.671 27.585C111.931 26.6963 113.657 26.252 115.848 26.252C117.232 26.252 118.483 26.4793 119.599 26.934C120.735 27.368 121.707 27.8433 122.513 28.36L120.467 31.088C119.702 30.6127 118.886 30.251 118.018 30.003C117.15 29.755 116.292 29.631 115.445 29.631C114.969 29.631 114.577 29.6827 114.267 29.786C113.957 29.8687 113.719 30.0133 113.554 30.22C113.388 30.406 113.306 30.6127 113.306 30.84C113.306 31.2533 113.574 31.5633 114.112 31.77C114.649 31.956 115.569 32.1937 116.871 32.483C118.441 32.8343 119.671 33.2373 120.56 33.692C121.448 34.1467 122.058 34.6737 122.389 35.273C122.74 35.8517 122.916 36.5647 122.916 37.412C122.916 38.342 122.626 39.179 122.048 39.923C121.49 40.667 120.642 41.2663 119.506 41.721C118.39 42.155 117.005 42.372 115.352 42.372ZM134.064 42.372C132.72 42.372 131.449 42.062 130.251 41.442C129.052 40.8013 128.081 39.8817 127.337 38.683C126.593 37.4637 126.221 36.0067 126.221 34.312C126.221 32.6173 126.593 31.1707 127.337 29.972C128.081 28.7527 129.052 27.833 130.251 27.213C131.449 26.5723 132.72 26.252 134.064 26.252C135.407 26.252 136.678 26.5723 137.877 27.213C139.075 27.833 140.047 28.7527 140.791 29.972C141.535 31.1707 141.907 32.6173 141.907 34.312C141.907 36.0067 141.535 37.4637 140.791 38.683C140.047 39.8817 139.075 40.8013 137.877 41.442C136.678 42.062 135.407 42.372 134.064 42.372ZM134.064 38.683C134.766 38.683 135.345 38.5073 135.8 38.156C136.275 37.8047 136.626 37.2983 136.854 36.637C137.102 35.9757 137.226 35.2007 137.226 34.312C137.226 33.4233 137.102 32.6483 136.854 31.987C136.626 31.3257 136.275 30.8193 135.8 30.468C135.345 30.1167 134.766 29.941 134.064 29.941C133.361 29.941 132.772 30.1167 132.297 30.468C131.842 30.8193 131.491 31.3257 131.243 31.987C131.015 32.6483 130.902 33.4233 130.902 34.312C130.902 35.2007 131.015 35.9757 131.243 36.637C131.491 37.2983 131.842 37.8047 132.297 38.156C132.772 38.5073 133.361 38.683 134.064 38.683ZM155.597 42.372C153.675 42.372 152.218 41.7933 151.226 40.636C150.234 39.4787 149.738 37.9287 149.738 35.986V23.865H144.933V20.3H154.295V36.172C154.295 37.1227 154.553 37.784 155.07 38.156C155.586 38.5073 156.155 38.683 156.775 38.683C157.147 38.683 157.519 38.6417 157.891 38.559C158.283 38.4763 158.717 38.3523 159.193 38.187L160.185 41.535C159.399 41.783 158.676 41.9793 158.015 42.124C157.374 42.2893 156.568 42.372 155.597 42.372ZM168.852 42.372C167.096 42.372 165.825 41.814 165.039 40.698C164.254 39.582 163.861 38.0527 163.861 36.11V26.624H168.418V35.521C168.418 36.5543 168.573 37.3087 168.883 37.784C169.214 38.2593 169.803 38.497 170.65 38.497C171.229 38.497 171.746 38.373 172.2 38.125C172.655 37.877 173.141 37.412 173.657 36.73V26.624H178.214V42H174.494L174.153 39.799H174.029C173.347 40.5637 172.593 41.1837 171.766 41.659C170.94 42.1343 169.968 42.372 168.852 42.372ZM192.555 42.372C190.923 42.372 189.621 42.093 188.649 41.535C187.699 40.9563 187.006 40.1607 186.572 39.148C186.138 38.1353 185.921 36.9573 185.921 35.614V30.189H182.077V26.81L186.138 26.624L186.727 21.912H190.478V26.624H196.988V30.189H190.478V35.583C190.478 36.3477 190.592 36.9677 190.819 37.443C191.047 37.9183 191.398 38.2697 191.873 38.497C192.349 38.7037 192.958 38.807 193.702 38.807C194.302 38.807 194.849 38.7553 195.345 38.652C195.841 38.5487 196.317 38.4143 196.771 38.249L197.577 41.535C196.895 41.7417 196.141 41.9277 195.314 42.093C194.508 42.279 193.589 42.372 192.555 42.372ZM209.345 42.372C207.754 42.372 206.307 42.062 205.005 41.442C203.724 40.8013 202.701 39.8817 201.936 38.683C201.192 37.4637 200.82 36.0067 200.82 34.312C200.82 32.638 201.203 31.2017 201.967 30.003C202.732 28.7837 203.724 27.8537 204.943 27.213C206.163 26.5723 207.454 26.252 208.818 26.252C210.41 26.252 211.743 26.5827 212.817 27.244C213.892 27.8847 214.698 28.763 215.235 29.879C215.793 30.9743 216.072 32.2247 216.072 33.63C216.072 34.0433 216.041 34.4463 215.979 34.839C215.938 35.211 215.897 35.49 215.855 35.676H204.199V32.607H212.786L212.073 33.475C212.073 32.235 211.805 31.305 211.267 30.685C210.751 30.0443 209.986 29.724 208.973 29.724C208.229 29.724 207.578 29.8893 207.02 30.22C206.462 30.5507 206.028 31.057 205.718 31.739C205.408 32.421 205.253 33.2787 205.253 34.312C205.253 35.366 205.439 36.234 205.811 36.916C206.183 37.5773 206.721 38.0733 207.423 38.404C208.126 38.7347 208.973 38.9 209.965 38.9C210.668 38.9 211.329 38.807 211.949 38.621C212.59 38.435 213.251 38.1663 213.933 37.815L215.452 40.574C214.564 41.132 213.582 41.5763 212.507 41.907C211.433 42.217 210.379 42.372 209.345 42.372Z" fill="#00CF92"/>
    <rect x="52" y="1" width="182" height="58" rx="16" stroke="#009F71" stroke-width="2"/>
    <path d="M22.3 109.372C21.246 109.372 20.378 109.021 19.696 108.318C19.0347 107.615 18.704 106.758 18.704 105.745C18.704 104.732 19.0347 103.875 19.696 103.172C20.378 102.449 21.246 102.087 22.3 102.087C23.3747 102.087 24.2427 102.449 24.904 103.172C25.5653 103.875 25.896 104.732 25.896 105.745C25.896 106.758 25.5653 107.615 24.904 108.318C24.2427 109.021 23.3747 109.372 22.3 109.372ZM40.8879 109.372C39.8339 109.372 38.9659 109.021 38.2839 108.318C37.6226 107.615 37.2919 106.758 37.2919 105.745C37.2919 104.732 37.6226 103.875 38.2839 103.172C38.9659 102.449 39.8339 102.087 40.8879 102.087C41.9626 102.087 42.8306 102.449 43.4919 103.172C44.1532 103.875 44.4839 104.732 44.4839 105.745C44.4839 106.758 44.1532 107.615 43.4919 108.318C42.8306 109.021 41.9626 109.372 40.8879 109.372ZM59.4758 109.372C58.4218 109.372 57.5538 109.021 56.8718 108.318C56.2104 107.615 55.8798 106.758 55.8798 105.745C55.8798 104.732 56.2104 103.875 56.8718 103.172C57.5538 102.449 58.4218 102.087 59.4758 102.087C60.5504 102.087 61.4184 102.449 62.0798 103.172C62.7411 103.875 63.0718 104.732 63.0718 105.745C63.0718 106.758 62.7411 107.615 62.0798 108.318C61.4184 109.021 60.5504 109.372 59.4758 109.372Z" fill="#00CF92"/>
</svg>