<svg width="100%" height="100%" viewBox="0 0 257 222" fill="none"
    xmlns="http://www.w3.org/2000/svg">
    <rect x="1" y="40" width="255" height="181" rx="16" stroke="#00DA9A" stroke-width="2"/>
    <rect x="8" y="47.7967" width="240.31" height="49.0334" rx="16" stroke="#00DA9A" stroke-width="2"/>
    <path d="M113.328 82V67.216H107.868V63.744H122.932V67.216H117.472V82H113.328ZM132.189 82.336C130.976 82.336 129.828 82.056 128.745 81.496C127.662 80.9173 126.785 80.0867 126.113 79.004C125.441 77.9027 125.105 76.5867 125.105 75.056C125.105 73.5253 125.441 72.2187 126.113 71.136C126.785 70.0347 127.662 69.204 128.745 68.644C129.828 68.0653 130.976 67.776 132.189 67.776C133.402 67.776 134.55 68.0653 135.633 68.644C136.716 69.204 137.593 70.0347 138.265 71.136C138.937 72.2187 139.273 73.5253 139.273 75.056C139.273 76.5867 138.937 77.9027 138.265 79.004C137.593 80.0867 136.716 80.9173 135.633 81.496C134.55 82.056 133.402 82.336 132.189 82.336ZM132.189 79.004C132.824 79.004 133.346 78.8453 133.757 78.528C134.186 78.2107 134.504 77.7533 134.709 77.156C134.933 76.5587 135.045 75.8587 135.045 75.056C135.045 74.2533 134.933 73.5533 134.709 72.956C134.504 72.3587 134.186 71.9013 133.757 71.584C133.346 71.2667 132.824 71.108 132.189 71.108C131.554 71.108 131.022 71.2667 130.593 71.584C130.182 71.9013 129.865 72.3587 129.641 72.956C129.436 73.5533 129.333 74.2533 129.333 75.056C129.333 75.8587 129.436 76.5587 129.641 77.156C129.865 77.7533 130.182 78.2107 130.593 78.528C131.022 78.8453 131.554 79.004 132.189 79.004ZM142.594 87.152V68.112H145.954L146.262 69.512H146.346C146.925 69.008 147.569 68.5973 148.278 68.28C149.006 67.944 149.743 67.776 150.49 67.776C151.647 67.776 152.637 68.0653 153.458 68.644C154.298 69.2227 154.942 70.044 155.39 71.108C155.838 72.172 156.062 73.4133 156.062 74.832C156.062 76.4187 155.773 77.772 155.194 78.892C154.634 80.012 153.897 80.8707 152.982 81.468C152.067 82.0467 151.087 82.336 150.042 82.336C149.426 82.336 148.819 82.2053 148.222 81.944C147.643 81.6827 147.111 81.3093 146.626 80.824H146.514L146.71 83.092V87.152H142.594ZM149.09 78.976C149.613 78.976 150.079 78.836 150.49 78.556C150.901 78.276 151.227 77.8373 151.47 77.24C151.713 76.624 151.834 75.84 151.834 74.888C151.834 74.048 151.741 73.3573 151.554 72.816C151.367 72.256 151.087 71.836 150.714 71.556C150.359 71.276 149.883 71.136 149.286 71.136C148.838 71.136 148.399 71.2387 147.97 71.444C147.559 71.6307 147.139 71.9573 146.71 72.424V78.052C147.102 78.3693 147.503 78.6027 147.914 78.752C148.343 78.9013 148.735 78.976 149.09 78.976Z" fill="#00DA9A"/>
    <rect x="9" y="106.31" width="238.31" height="47.0334" rx="15" fill="#CCCCCC" fill-opacity="0.5" stroke="#009F71" stroke-width="4"/>
    <path d="M74.098 142.505C72.8373 142.505 71.6283 142.299 70.471 141.885C69.3343 141.451 68.3217 140.811 67.433 139.963C66.5443 139.095 65.8417 138.021 65.325 136.739C64.8083 135.437 64.55 133.929 64.55 132.213C64.55 129.961 64.9943 128.049 65.883 126.478C66.7717 124.887 67.96 123.678 69.448 122.851C70.936 122.025 72.5893 121.611 74.408 121.611C75.71 121.611 76.888 121.88 77.942 122.417C79.0167 122.934 79.9053 123.533 80.608 124.215L77.694 127.501C77.2393 127.088 76.7433 126.768 76.206 126.54C75.6893 126.313 75.09 126.199 74.408 126.199C73.5813 126.199 72.8373 126.437 72.176 126.912C71.5147 127.367 70.9877 128.028 70.595 128.896C70.2023 129.764 70.006 130.808 70.006 132.027C70.006 133.288 70.2023 134.363 70.595 135.251C70.9877 136.119 71.5353 136.781 72.238 137.235C72.9407 137.69 73.7467 137.917 74.656 137.917C75.3173 137.917 75.9167 137.762 76.454 137.452C77.012 137.142 77.508 136.76 77.942 136.305L80.856 139.529C80.0293 140.521 79.0373 141.265 77.88 141.761C76.7227 142.257 75.462 142.505 74.098 142.505ZM90.8879 142.505C89.5239 142.505 88.2322 142.185 87.0129 141.544C85.7936 140.904 84.8016 139.984 84.0369 138.785C83.2722 137.566 82.8899 136.099 82.8899 134.383C82.8899 132.668 83.2722 131.211 84.0369 130.012C84.8016 128.793 85.7936 127.863 87.0129 127.222C88.2322 126.582 89.5239 126.261 90.8879 126.261C92.2519 126.261 93.5436 126.582 94.7629 127.222C95.9822 127.863 96.9742 128.793 97.7389 130.012C98.5036 131.211 98.8859 132.668 98.8859 134.383C98.8859 136.099 98.5036 137.566 97.7389 138.785C96.9742 139.984 95.9822 140.904 94.7629 141.544C93.5436 142.185 92.2519 142.505 90.8879 142.505ZM90.8879 138.227C91.4872 138.227 91.9729 138.072 92.3449 137.762C92.7169 137.452 92.9856 137.008 93.1509 136.429C93.3369 135.851 93.4299 135.169 93.4299 134.383C93.4299 133.598 93.3369 132.916 93.1509 132.337C92.9856 131.759 92.7169 131.314 92.3449 131.004C91.9729 130.694 91.4872 130.539 90.8879 130.539C90.2886 130.539 89.8029 130.694 89.4309 131.004C89.0589 131.314 88.7799 131.759 88.5939 132.337C88.4286 132.916 88.3459 133.598 88.3459 134.383C88.3459 135.169 88.4286 135.851 88.5939 136.429C88.7799 137.008 89.0589 137.452 89.4309 137.762C89.8029 138.072 90.2886 138.227 90.8879 138.227ZM102.16 142.133V126.633H106.5L106.872 128.493H106.996C107.616 127.894 108.349 127.377 109.197 126.943C110.044 126.489 111.036 126.261 112.173 126.261C113.888 126.261 115.138 126.84 115.924 127.997C116.709 129.134 117.102 130.663 117.102 132.585V142.133H111.77V133.267C111.77 132.399 111.635 131.769 111.367 131.376C111.119 130.984 110.654 130.787 109.972 130.787C109.476 130.787 109.042 130.891 108.67 131.097C108.298 131.304 107.905 131.593 107.492 131.965V142.133H102.16ZM130.73 142.505C129.035 142.505 127.681 142.216 126.669 141.637C125.656 141.059 124.922 140.253 124.468 139.219C124.013 138.165 123.786 136.946 123.786 135.561V130.787H120.066V126.819L124.034 126.633L124.716 121.983H129.118V126.633H135.256V130.787H129.118V135.468C129.118 136.192 129.231 136.77 129.459 137.204C129.686 137.618 130.017 137.917 130.451 138.103C130.905 138.269 131.463 138.351 132.125 138.351C132.662 138.351 133.158 138.31 133.613 138.227C134.088 138.124 134.532 138 134.946 137.855L135.876 141.699C135.194 141.885 134.429 142.061 133.582 142.226C132.734 142.412 131.784 142.505 130.73 142.505ZM147.582 142.505C145.949 142.505 144.471 142.185 143.149 141.544C141.847 140.904 140.813 139.984 140.049 138.785C139.284 137.566 138.902 136.099 138.902 134.383C138.902 132.689 139.284 131.242 140.049 130.043C140.834 128.824 141.847 127.894 143.087 127.253C144.327 126.592 145.639 126.261 147.024 126.261C148.656 126.261 150.02 126.602 151.116 127.284C152.211 127.946 153.027 128.845 153.565 129.981C154.123 131.118 154.402 132.379 154.402 133.763C154.402 134.218 154.371 134.662 154.309 135.096C154.267 135.51 154.226 135.809 154.185 135.995H142.932V132.523H150.496L149.752 133.453C149.752 132.42 149.545 131.635 149.132 131.097C148.718 130.56 148.078 130.291 147.21 130.291C146.528 130.291 145.949 130.436 145.474 130.725C145.019 131.015 144.668 131.469 144.42 132.089C144.172 132.689 144.048 133.453 144.048 134.383C144.048 135.355 144.203 136.14 144.513 136.739C144.843 137.339 145.319 137.783 145.939 138.072C146.579 138.341 147.375 138.475 148.326 138.475C148.946 138.475 149.545 138.403 150.124 138.258C150.723 138.093 151.364 137.855 152.046 137.545L153.782 140.707C152.852 141.286 151.829 141.73 150.713 142.04C149.597 142.35 148.553 142.505 147.582 142.505ZM157.923 142.133V126.633H162.263L162.635 128.493H162.759C163.379 127.894 164.113 127.377 164.96 126.943C165.808 126.489 166.8 126.261 167.936 126.261C169.652 126.261 170.902 126.84 171.687 127.997C172.473 129.134 172.865 130.663 172.865 132.585V142.133H167.533V133.267C167.533 132.399 167.399 131.769 167.13 131.376C166.882 130.984 166.417 130.787 165.735 130.787C165.239 130.787 164.805 130.891 164.433 131.097C164.061 131.304 163.669 131.593 163.255 131.965V142.133H157.923ZM186.493 142.505C184.799 142.505 183.445 142.216 182.432 141.637C181.42 141.059 180.686 140.253 180.231 139.219C179.777 138.165 179.549 136.946 179.549 135.561V130.787H175.829V126.819L179.797 126.633L180.479 121.983H184.881V126.633H191.019V130.787H184.881V135.468C184.881 136.192 184.995 136.77 185.222 137.204C185.45 137.618 185.78 137.917 186.214 138.103C186.669 138.269 187.227 138.351 187.888 138.351C188.426 138.351 188.922 138.31 189.376 138.227C189.852 138.124 190.296 138 190.709 137.855L191.639 141.699C190.957 141.885 190.193 142.061 189.345 142.226C188.498 142.412 187.547 142.505 186.493 142.505Z" fill="#009F71"/>
    <rect x="8" y="162.819" width="240.31" height="49.0334" rx="16" stroke="#00CF92" stroke-width="2"/>
    <path d="M81.072 197.022V178.766H87.204C88.4733 178.766 89.612 178.906 90.62 179.186C91.628 179.448 92.4213 179.905 93 180.558C93.5973 181.212 93.896 182.126 93.896 183.302C93.896 184.124 93.644 184.917 93.14 185.682C92.636 186.448 91.8427 186.97 90.76 187.25V187.362C92.0667 187.586 93.056 188.053 93.728 188.762C94.4 189.453 94.736 190.414 94.736 191.646C94.736 192.878 94.428 193.896 93.812 194.698C93.196 195.482 92.356 196.07 91.292 196.462C90.2467 196.836 89.0613 197.022 87.736 197.022H81.072ZM85.188 186.102H87.008C88.016 186.102 88.744 185.906 89.192 185.514C89.64 185.104 89.864 184.553 89.864 183.862C89.864 183.19 89.6307 182.714 89.164 182.434C88.716 182.136 88.0067 181.986 87.036 181.986H85.188V186.102ZM85.188 193.802H87.4C88.52 193.802 89.3507 193.597 89.892 193.186C90.4333 192.776 90.704 192.16 90.704 191.338C90.704 190.536 90.4333 189.957 89.892 189.602C89.3507 189.248 88.52 189.07 87.4 189.07H85.188V193.802ZM104.189 197.358C102.976 197.358 101.828 197.078 100.745 196.518C99.6624 195.94 98.7851 195.109 98.1131 194.026C97.4411 192.925 97.1051 191.609 97.1051 190.078C97.1051 188.548 97.4411 187.241 98.1131 186.158C98.7851 185.057 99.6624 184.226 100.745 183.666C101.828 183.088 102.976 182.798 104.189 182.798C105.402 182.798 106.55 183.088 107.633 183.666C108.716 184.226 109.593 185.057 110.265 186.158C110.937 187.241 111.273 188.548 111.273 190.078C111.273 191.609 110.937 192.925 110.265 194.026C109.593 195.109 108.716 195.94 107.633 196.518C106.55 197.078 105.402 197.358 104.189 197.358ZM104.189 194.026C104.824 194.026 105.346 193.868 105.757 193.55C106.186 193.233 106.504 192.776 106.709 192.178C106.933 191.581 107.045 190.881 107.045 190.078C107.045 189.276 106.933 188.576 106.709 187.978C106.504 187.381 106.186 186.924 105.757 186.606C105.346 186.289 104.824 186.13 104.189 186.13C103.554 186.13 103.022 186.289 102.593 186.606C102.182 186.924 101.865 187.381 101.641 187.978C101.436 188.576 101.333 189.276 101.333 190.078C101.333 190.881 101.436 191.581 101.641 192.178C101.865 192.776 102.182 193.233 102.593 193.55C103.022 193.868 103.554 194.026 104.189 194.026ZM123.442 197.358C121.967 197.358 120.791 197.106 119.914 196.602C119.055 196.08 118.43 195.361 118.038 194.446C117.646 193.532 117.45 192.468 117.45 191.254V186.354H113.978V183.302L117.646 183.134L118.178 178.878H121.566V183.134H127.446V186.354H121.566V191.226C121.566 191.917 121.669 192.477 121.874 192.906C122.079 193.336 122.397 193.653 122.826 193.858C123.255 194.045 123.806 194.138 124.478 194.138C125.019 194.138 125.514 194.092 125.962 193.998C126.41 193.905 126.839 193.784 127.25 193.634L127.978 196.602C127.362 196.789 126.681 196.957 125.934 197.106C125.206 197.274 124.375 197.358 123.442 197.358ZM140.231 197.358C138.757 197.358 137.581 197.106 136.703 196.602C135.845 196.08 135.219 195.361 134.827 194.446C134.435 193.532 134.239 192.468 134.239 191.254V186.354H130.767V183.302L134.435 183.134L134.967 178.878H138.355V183.134H144.235V186.354H138.355V191.226C138.355 191.917 138.458 192.477 138.663 192.906C138.869 193.336 139.186 193.653 139.615 193.858C140.045 194.045 140.595 194.138 141.267 194.138C141.809 194.138 142.303 194.092 142.751 193.998C143.199 193.905 143.629 193.784 144.039 193.634L144.767 196.602C144.151 196.789 143.47 196.957 142.723 197.106C141.995 197.274 141.165 197.358 140.231 197.358ZM154.556 197.358C153.343 197.358 152.195 197.078 151.112 196.518C150.03 195.94 149.152 195.109 148.48 194.026C147.808 192.925 147.472 191.609 147.472 190.078C147.472 188.548 147.808 187.241 148.48 186.158C149.152 185.057 150.03 184.226 151.112 183.666C152.195 183.088 153.343 182.798 154.556 182.798C155.77 182.798 156.918 183.088 158 183.666C159.083 184.226 159.96 185.057 160.632 186.158C161.304 187.241 161.64 188.548 161.64 190.078C161.64 191.609 161.304 192.925 160.632 194.026C159.96 195.109 159.083 195.94 158 196.518C156.918 197.078 155.77 197.358 154.556 197.358ZM154.556 194.026C155.191 194.026 155.714 193.868 156.124 193.55C156.554 193.233 156.871 192.776 157.076 192.178C157.3 191.581 157.412 190.881 157.412 190.078C157.412 189.276 157.3 188.576 157.076 187.978C156.871 187.381 156.554 186.924 156.124 186.606C155.714 186.289 155.191 186.13 154.556 186.13C153.922 186.13 153.39 186.289 152.96 186.606C152.55 186.924 152.232 187.381 152.008 187.978C151.803 188.576 151.7 189.276 151.7 190.078C151.7 190.881 151.803 191.581 152.008 192.178C152.232 192.776 152.55 193.233 152.96 193.55C153.39 193.868 153.922 194.026 154.556 194.026ZM163.925 197.022V183.134H167.033L167.313 184.842H167.425C167.687 184.282 168.051 183.806 168.517 183.414C168.984 183.004 169.619 182.798 170.421 182.798C171.019 182.798 171.532 182.994 171.961 183.386C172.391 183.76 172.68 184.32 172.829 185.066C173.091 184.432 173.464 183.9 173.949 183.47C174.453 183.022 175.107 182.798 175.909 182.798C176.899 182.798 177.664 183.2 178.205 184.002C178.747 184.805 179.017 185.897 179.017 187.278V197.022H175.097V187.558C175.097 186.718 174.845 186.298 174.341 186.298C174.08 186.298 173.847 186.41 173.641 186.634C173.455 186.84 173.268 187.176 173.081 187.642V197.022H169.861V187.558C169.861 187.129 169.796 186.812 169.665 186.606C169.535 186.401 169.339 186.298 169.077 186.298C168.816 186.298 168.592 186.41 168.405 186.634C168.219 186.84 168.032 187.176 167.845 187.642V197.022H163.925Z" fill="#00CF92"/>
    <path d="M75.317 31V10.788H79.874V27.156H88.864V31H75.317ZM97.5319 31.372C96.4986 31.372 95.5996 31.1653 94.8349 30.752C94.0909 30.3387 93.5122 29.7807 93.0989 29.078C92.6856 28.3753 92.4789 27.59 92.4789 26.722C92.4789 25.0067 93.2539 23.6943 94.8039 22.785C96.3746 21.8757 98.9786 21.3177 102.616 21.111C102.554 20.6357 102.399 20.2327 102.151 19.902C101.903 19.5713 101.541 19.3233 101.066 19.158C100.611 18.972 100.033 18.879 99.3299 18.879C98.8339 18.879 98.3379 18.941 97.8419 19.065C97.3459 19.1683 96.8292 19.3337 96.2919 19.561C95.7752 19.7677 95.2276 20.0157 94.6489 20.305L93.0369 17.329C93.7396 16.9157 94.4732 16.554 95.2379 16.244C96.0232 15.934 96.8292 15.6963 97.6559 15.531C98.5032 15.345 99.3609 15.252 100.229 15.252C101.676 15.252 102.916 15.5103 103.949 16.027C104.982 16.523 105.778 17.2877 106.336 18.321C106.894 19.3337 107.173 20.6253 107.173 22.196V31H103.453L103.112 29.264H102.988C102.223 29.8427 101.376 30.3387 100.446 30.752C99.5159 31.1653 98.5446 31.372 97.5319 31.372ZM98.9889 27.838C99.6709 27.838 100.312 27.7037 100.911 27.435C101.51 27.1457 102.079 26.7943 102.616 26.381V23.839C101.107 23.9217 99.9292 24.0767 99.0819 24.304C98.2552 24.5313 97.6766 24.8207 97.3459 25.172C97.0152 25.5233 96.8499 25.9263 96.8499 26.381C96.8499 26.691 96.9326 26.9597 97.0979 27.187C97.2839 27.4143 97.5319 27.5797 97.8419 27.683C98.1726 27.7863 98.5549 27.838 98.9889 27.838ZM113.609 37.014C113.154 37.014 112.73 36.983 112.338 36.921C111.945 36.859 111.583 36.7867 111.253 36.704L112.059 33.232C112.265 33.294 112.472 33.3353 112.679 33.356C112.885 33.3973 113.082 33.418 113.268 33.418C114.156 33.418 114.849 33.2217 115.345 32.829C115.861 32.457 116.244 31.9817 116.492 31.403L116.802 30.597L110.137 15.624H114.663L117.236 22.227C117.525 22.9503 117.794 23.7047 118.042 24.49C118.29 25.2547 118.538 26.04 118.786 26.846H118.91C119.116 26.0813 119.344 25.3063 119.592 24.521C119.84 23.7357 120.077 22.971 120.305 22.227L122.568 15.624H126.877L120.801 31.155C120.325 32.4363 119.767 33.511 119.127 34.379C118.507 35.247 117.752 35.898 116.864 36.332C115.996 36.7867 114.911 37.014 113.609 37.014ZM137.064 31.372C135.72 31.372 134.449 31.062 133.251 30.442C132.052 29.8013 131.081 28.8817 130.337 27.683C129.593 26.4637 129.221 25.0067 129.221 23.312C129.221 21.6173 129.593 20.1707 130.337 18.972C131.081 17.7527 132.052 16.833 133.251 16.213C134.449 15.5723 135.72 15.252 137.064 15.252C138.407 15.252 139.678 15.5723 140.877 16.213C142.075 16.833 143.047 17.7527 143.791 18.972C144.535 20.1707 144.907 21.6173 144.907 23.312C144.907 25.0067 144.535 26.4637 143.791 27.683C143.047 28.8817 142.075 29.8013 140.877 30.442C139.678 31.062 138.407 31.372 137.064 31.372ZM137.064 27.683C137.766 27.683 138.345 27.5073 138.8 27.156C139.275 26.8047 139.626 26.2983 139.854 25.637C140.102 24.9757 140.226 24.2007 140.226 23.312C140.226 22.4233 140.102 21.6483 139.854 20.987C139.626 20.3257 139.275 19.8193 138.8 19.468C138.345 19.1167 137.766 18.941 137.064 18.941C136.361 18.941 135.772 19.1167 135.297 19.468C134.842 19.8193 134.491 20.3257 134.243 20.987C134.015 21.6483 133.902 22.4233 133.902 23.312C133.902 24.2007 134.015 24.9757 134.243 25.637C134.491 26.2983 134.842 26.8047 135.297 27.156C135.772 27.5073 136.361 27.683 137.064 27.683ZM153.265 31.372C151.508 31.372 150.237 30.814 149.452 29.698C148.666 28.582 148.274 27.0527 148.274 25.11V15.624H152.831V24.521C152.831 25.5543 152.986 26.3087 153.296 26.784C153.626 27.2593 154.215 27.497 155.063 27.497C155.641 27.497 156.158 27.373 156.613 27.125C157.067 26.877 157.553 26.412 158.07 25.73V15.624H162.627V31H158.907L158.566 28.799H158.442C157.76 29.5637 157.005 30.1837 156.179 30.659C155.352 31.1343 154.381 31.372 153.265 31.372ZM176.967 31.372C175.335 31.372 174.033 31.093 173.061 30.535C172.111 29.9563 171.418 29.1607 170.984 28.148C170.55 27.1353 170.333 25.9573 170.333 24.614V19.189H166.489V15.81L170.55 15.624L171.139 10.912H174.89V15.624H181.4V19.189H174.89V24.583C174.89 25.3477 175.004 25.9677 175.231 26.443C175.459 26.9183 175.81 27.2697 176.285 27.497C176.761 27.7037 177.37 27.807 178.114 27.807C178.714 27.807 179.261 27.7553 179.757 27.652C180.253 27.5487 180.729 27.4143 181.183 27.249L181.989 30.535C181.307 30.7417 180.553 30.9277 179.726 31.093C178.92 31.279 178.001 31.372 176.967 31.372Z" fill="#00DA9A"/>
</svg>