<svg width="100%" height="100%" viewBox="0 0 257 148" fill="none"
    xmlns="http://www.w3.org/2000/svg">
    <rect x="1" y="38" width="255" height="109" rx="16" stroke="#00DA9A" stroke-width="2"/>
    <rect x="10.5" y="50.5" width="74" height="20" fill="#7E7E7E" stroke="#00DA9A"/>
    <rect x="10.5" y="112.5" width="74" height="20" fill="#7E7E7E" stroke="#00DA9A"/>
    <rect x="172.5" y="112.5" width="74" height="20" fill="#7E7E7E" stroke="#00DA9A"/>
    <rect x="172.5" y="50.5" width="74" height="20" fill="#7E7E7E" stroke="#00DA9A"/>
    <path d="M99.914 31V10.85H113.709V15.314H105.246V19.158H112.5V23.622H105.246V31H99.914ZM127.709 31.372C125.642 31.372 124.082 30.752 123.028 29.512C121.995 28.2513 121.478 26.6187 121.478 24.614V13.578H116.828V9.424H126.81V24.8C126.81 25.6887 127.058 26.2983 127.554 26.629C128.071 26.939 128.598 27.094 129.135 27.094C129.466 27.094 129.807 27.063 130.158 27.001C130.509 26.9183 130.912 26.8047 131.367 26.66L132.514 30.566C131.687 30.814 130.933 31.0103 130.251 31.155C129.569 31.2997 128.722 31.372 127.709 31.372ZM144.406 31.372C142.773 31.372 141.295 31.0517 139.973 30.411C138.671 29.7703 137.637 28.8507 136.873 27.652C136.108 26.4327 135.726 24.9653 135.726 23.25C135.726 21.5553 136.108 20.1087 136.873 18.91C137.658 17.6907 138.671 16.7607 139.911 16.12C141.151 15.4587 142.463 15.128 143.848 15.128C145.48 15.128 146.844 15.469 147.94 16.151C149.035 16.8123 149.851 17.7113 150.389 18.848C150.947 19.9847 151.226 21.2453 151.226 22.63C151.226 23.0847 151.195 23.529 151.133 23.963C151.091 24.3763 151.05 24.676 151.009 24.862H139.756V21.39H147.32L146.576 22.32C146.576 21.2867 146.369 20.5013 145.956 19.964C145.542 19.4267 144.902 19.158 144.034 19.158C143.352 19.158 142.773 19.3027 142.298 19.592C141.843 19.8813 141.492 20.336 141.244 20.956C140.996 21.5553 140.872 22.32 140.872 23.25C140.872 24.2213 141.027 25.0067 141.337 25.606C141.667 26.2053 142.143 26.6497 142.763 26.939C143.403 27.2077 144.199 27.342 145.15 27.342C145.77 27.342 146.369 27.2697 146.948 27.125C147.547 26.9597 148.188 26.722 148.87 26.412L150.606 29.574C149.676 30.1527 148.653 30.597 147.537 30.907C146.421 31.217 145.377 31.372 144.406 31.372ZM153.601 31L158.778 22.94L153.911 15.5H159.615L160.886 17.67C161.113 18.104 161.361 18.5483 161.63 19.003C161.919 19.4577 162.177 19.902 162.405 20.336H162.529C162.694 19.902 162.88 19.4577 163.087 19.003C163.293 18.5483 163.479 18.104 163.645 17.67L164.668 15.5H170.217L165.319 23.56L170.496 31H164.792L163.366 28.83C163.097 28.396 162.818 27.9517 162.529 27.497C162.239 27.0423 161.96 26.598 161.692 26.164H161.568C161.361 26.598 161.144 27.0423 160.917 27.497C160.71 27.931 160.503 28.3753 160.297 28.83L159.15 31H153.601Z" fill="#00DA9A"/>
    <line x1="15.9393" y1="101.939" x2="38.9393" y2="78.9393" stroke="#989898" stroke-opacity="0.43" stroke-width="3"/>
    <line x1="35.9393" y1="101.939" x2="58.9393" y2="78.9393" stroke="#989898" stroke-opacity="0.43" stroke-width="3"/>
    <line x1="55.9393" y1="101.939" x2="78.9393" y2="78.9393" stroke="#989898" stroke-opacity="0.43" stroke-width="3"/>
    <line x1="75.9393" y1="101.939" x2="98.9393" y2="78.9393" stroke="#989898" stroke-opacity="0.43" stroke-width="3"/>
    <line x1="95.9393" y1="101.939" x2="118.939" y2="78.9393" stroke="#989898" stroke-opacity="0.43" stroke-width="3"/>
    <line x1="115.939" y1="101.939" x2="138.939" y2="78.9393" stroke="#989898" stroke-opacity="0.43" stroke-width="3"/>
    <line x1="135.939" y1="101.939" x2="158.939" y2="78.9393" stroke="#989898" stroke-opacity="0.43" stroke-width="3"/>
    <line x1="155.939" y1="101.939" x2="178.939" y2="78.9393" stroke="#989898" stroke-opacity="0.43" stroke-width="3"/>
    <line x1="175.939" y1="101.939" x2="198.939" y2="78.9393" stroke="#989898" stroke-opacity="0.43" stroke-width="3"/>
    <line x1="195.939" y1="101.939" x2="218.939" y2="78.9393" stroke="#989898" stroke-opacity="0.43" stroke-width="3"/>
    <line x1="215.939" y1="101.939" x2="238.939" y2="78.9393" stroke="#989898" stroke-opacity="0.43" stroke-width="3"/>
    <line x1="105.939" y1="71.9393" x2="128.939" y2="48.9393" stroke="#989898" stroke-opacity="0.43" stroke-width="3"/>
    <line x1="87.9393" y1="71.9393" x2="110.939" y2="48.9393" stroke="#989898" stroke-opacity="0.43" stroke-width="3"/>
    <line x1="125.939" y1="71.9393" x2="148.939" y2="48.9393" stroke="#989898" stroke-opacity="0.43" stroke-width="3"/>
    <line x1="145.939" y1="71.9393" x2="168.939" y2="48.9393" stroke="#989898" stroke-opacity="0.43" stroke-width="3"/>
    <line x1="145.939" y1="131.939" x2="168.939" y2="108.939" stroke="#989898" stroke-opacity="0.43" stroke-width="3"/>
    <line x1="125.939" y1="131.939" x2="148.939" y2="108.939" stroke="#989898" stroke-opacity="0.43" stroke-width="3"/>
    <line x1="105.939" y1="131.939" x2="128.939" y2="108.939" stroke="#989898" stroke-opacity="0.43" stroke-width="3"/>
    <line x1="87.9393" y1="131.939" x2="110.939" y2="108.939" stroke="#989898" stroke-opacity="0.43" stroke-width="3"/>
</svg>