<svg width="100%" height="100%" viewBox="0 0 257 150" fill="none"
    xmlns="http://www.w3.org/2000/svg">
    <rect x="1" y="40" width="255" height="109" rx="16" stroke="#00DA9A" stroke-width="2"/>
    <rect x="10" y="52" width="75" height="21" fill="#BCBCBC"/>
    <rect x="10" y="82" width="75" height="21" fill="#BCBCBC"/>
    <rect x="172" y="114" width="75" height="21" fill="#BCBCBC"/>
    <rect x="91" y="82" width="75" height="21" fill="#BCBCBC"/>
    <rect x="91" y="52" width="75" height="21" fill="#BCBCBC"/>
    <rect x="172" y="52" width="75" height="21" fill="#BCBCBC"/>
    <path d="M101.695 31.372C99.9797 31.372 98.3987 31 96.952 30.256C95.526 29.4913 94.379 28.3443 93.511 26.815C92.6637 25.2857 92.24 23.374 92.24 21.08C92.24 18.8067 92.6637 16.8847 93.511 15.314C94.379 13.7227 95.526 12.524 96.952 11.718C98.3987 10.8913 99.99 10.478 101.726 10.478C103.09 10.478 104.268 10.7467 105.26 11.284C106.252 11.8007 107.079 12.4 107.74 13.082L104.826 16.368C104.413 15.9547 103.968 15.6343 103.493 15.407C103.038 15.1797 102.449 15.066 101.726 15.066C101.003 15.066 100.331 15.3037 99.711 15.779C99.1117 16.2337 98.626 16.895 98.254 17.763C97.9027 18.631 97.727 19.6747 97.727 20.894C97.727 22.1547 97.882 23.2293 98.192 24.118C98.502 24.986 98.9773 25.6473 99.618 26.102C100.259 26.5567 101.054 26.784 102.005 26.784C102.253 26.784 102.501 26.753 102.749 26.691C103.018 26.629 103.224 26.536 103.369 26.412V23.622H100.858V19.282H108.112V28.892C107.43 29.512 106.51 30.0803 105.353 30.597C104.196 31.1137 102.976 31.372 101.695 31.372ZM112.812 31V15.5H117.183L117.586 18.786H117.71C118.454 17.5047 119.353 16.5747 120.407 15.996C121.482 15.4173 122.598 15.128 123.755 15.128C124.478 15.128 125.036 15.19 125.429 15.314C125.842 15.4173 126.266 15.562 126.7 15.748L125.646 20.212C125.191 20.0673 124.768 19.964 124.375 19.902C123.982 19.8193 123.507 19.778 122.949 19.778C122.06 19.778 121.182 20.0467 120.314 20.584C119.446 21.1007 118.723 22.01 118.144 23.312V31H112.812ZM136.36 31V19.654H130.47V15.5H141.692V31H136.36ZM138.84 13.392C137.848 13.392 137.031 13.113 136.391 12.555C135.75 11.9763 135.43 11.222 135.43 10.292C135.43 9.362 135.75 8.60766 136.391 8.029C137.031 7.42967 137.848 7.13 138.84 7.13C139.832 7.13 140.648 7.42967 141.289 8.029C141.929 8.60766 142.25 9.362 142.25 10.292C142.25 11.222 141.929 11.9763 141.289 12.555C140.648 13.113 139.832 13.392 138.84 13.392ZM154.545 31.372C152.581 31.372 151.011 30.6487 149.833 29.202C148.655 27.7347 148.066 25.7507 148.066 23.25C148.066 21.5553 148.376 20.1087 148.996 18.91C149.636 17.6907 150.453 16.7607 151.445 16.12C152.437 15.4587 153.47 15.128 154.545 15.128C155.371 15.128 156.064 15.2623 156.622 15.531C157.2 15.7997 157.717 16.182 158.172 16.678H158.296L158.048 14.446V9.424H163.38V31H159.04L158.668 29.574H158.544C158.006 30.0907 157.376 30.5247 156.653 30.876C155.95 31.2067 155.247 31.372 154.545 31.372ZM155.94 27.032C156.374 27.032 156.756 26.9597 157.087 26.815C157.438 26.6497 157.758 26.35 158.048 25.916V20.212C157.738 19.9227 157.407 19.7263 157.056 19.623C156.725 19.5197 156.374 19.468 156.002 19.468C155.568 19.468 155.154 19.592 154.762 19.84C154.39 20.0673 154.09 20.46 153.863 21.018C153.635 21.5553 153.522 22.2787 153.522 23.188C153.522 24.5727 153.728 25.5647 154.142 26.164C154.576 26.7427 155.175 27.032 155.94 27.032Z" fill="#00DA9A"/>
</svg>