<svg width="100%" height="100%" viewBox="0 0 257 148" fill="none"
    xmlns="http://www.w3.org/2000/svg">
    <rect x="1" y="38" width="255" height="109" rx="16" stroke="#00DA9A" stroke-width="2"/>
    <rect x="10" y="50" width="75" height="21" fill="#BCBCBC"/>
    <rect x="10" y="80" width="75" height="21" fill="#BCBCBC"/>
    <rect x="172" y="112" width="75" height="21" fill="#BCBCBC"/>
    <rect x="91.5" y="80.5" width="74" height="20" fill="#6C6565" stroke="#00DA9A"/>
    <rect x="91" y="50" width="75" height="21" fill="#BCBCBC"/>
    <rect x="172" y="50" width="75" height="21" fill="#BCBCBC"/>
    <path d="M64.695 31.372C62.9797 31.372 61.3987 31 59.952 30.256C58.526 29.4913 57.379 28.3443 56.511 26.815C55.6637 25.2857 55.24 23.374 55.24 21.08C55.24 18.8067 55.6637 16.8847 56.511 15.314C57.379 13.7227 58.526 12.524 59.952 11.718C61.3987 10.8913 62.99 10.478 64.726 10.478C66.09 10.478 67.268 10.7467 68.26 11.284C69.252 11.8007 70.0787 12.4 70.74 13.082L67.826 16.368C67.4127 15.9547 66.9683 15.6343 66.493 15.407C66.0383 15.1797 65.4493 15.066 64.726 15.066C64.0027 15.066 63.331 15.3037 62.711 15.779C62.1117 16.2337 61.626 16.895 61.254 17.763C60.9027 18.631 60.727 19.6747 60.727 20.894C60.727 22.1547 60.882 23.2293 61.192 24.118C61.502 24.986 61.9773 25.6473 62.618 26.102C63.2587 26.5567 64.0543 26.784 65.005 26.784C65.253 26.784 65.501 26.753 65.749 26.691C66.0177 26.629 66.2243 26.536 66.369 26.412V23.622H63.858V19.282H71.112V28.892C70.43 29.512 69.5103 30.0803 68.353 30.597C67.1957 31.1137 65.9763 31.372 64.695 31.372ZM75.8119 31V15.5H80.1829L80.5859 18.786H80.7099C81.4539 17.5047 82.3529 16.5747 83.4069 15.996C84.4816 15.4173 85.5976 15.128 86.7549 15.128C87.4782 15.128 88.0362 15.19 88.4289 15.314C88.8422 15.4173 89.2659 15.562 89.6999 15.748L88.6459 20.212C88.1912 20.0673 87.7676 19.964 87.3749 19.902C86.9822 19.8193 86.5069 19.778 85.9489 19.778C85.0602 19.778 84.1819 20.0467 83.3139 20.584C82.4459 21.1007 81.7226 22.01 81.1439 23.312V31H75.8119ZM99.3598 31V19.654H93.4698V15.5H104.692V31H99.3598ZM101.84 13.392C100.848 13.392 100.031 13.113 99.3908 12.555C98.7501 11.9763 98.4298 11.222 98.4298 10.292C98.4298 9.362 98.7501 8.60766 99.3908 8.029C100.031 7.42967 100.848 7.13 101.84 7.13C102.832 7.13 103.648 7.42967 104.289 8.029C104.929 8.60766 105.25 9.362 105.25 10.292C105.25 11.222 104.929 11.9763 104.289 12.555C103.648 13.113 102.832 13.392 101.84 13.392ZM117.545 31.372C115.581 31.372 114.011 30.6487 112.833 29.202C111.655 27.7347 111.066 25.7507 111.066 23.25C111.066 21.5553 111.376 20.1087 111.996 18.91C112.636 17.6907 113.453 16.7607 114.445 16.12C115.437 15.4587 116.47 15.128 117.545 15.128C118.371 15.128 119.064 15.2623 119.622 15.531C120.2 15.7997 120.717 16.182 121.172 16.678H121.296L121.048 14.446V9.424H126.38V31H122.04L121.668 29.574H121.544C121.006 30.0907 120.376 30.5247 119.653 30.876C118.95 31.2067 118.247 31.372 117.545 31.372ZM118.94 27.032C119.374 27.032 119.756 26.9597 120.087 26.815C120.438 26.6497 120.758 26.35 121.048 25.916V20.212C120.738 19.9227 120.407 19.7263 120.056 19.623C119.725 19.5197 119.374 19.468 119.002 19.468C118.568 19.468 118.154 19.592 117.762 19.84C117.39 20.0673 117.09 20.46 116.863 21.018C116.635 21.5553 116.522 22.2787 116.522 23.188C116.522 24.5727 116.728 25.5647 117.142 26.164C117.576 26.7427 118.175 27.032 118.94 27.032ZM134.986 31V15.314H129.189V10.85H146.115V15.314H140.318V31H134.986ZM155.123 31V19.654H149.233V15.5H160.455V31H155.123ZM157.603 13.392C156.611 13.392 155.795 13.113 155.154 12.555C154.514 11.9763 154.193 11.222 154.193 10.292C154.193 9.362 154.514 8.60766 155.154 8.029C155.795 7.42967 156.611 7.13 157.603 7.13C158.595 7.13 159.412 7.42967 160.052 8.029C160.693 8.60766 161.013 9.362 161.013 10.292C161.013 11.222 160.693 11.9763 160.052 12.555C159.412 13.113 158.595 13.392 157.603 13.392ZM177.648 31.372C175.582 31.372 174.021 30.752 172.967 29.512C171.934 28.2513 171.417 26.6187 171.417 24.614V13.578H166.767V9.424H176.749V24.8C176.749 25.6887 176.997 26.2983 177.493 26.629C178.01 26.939 178.537 27.094 179.074 27.094C179.405 27.094 179.746 27.063 180.097 27.001C180.449 26.9183 180.852 26.8047 181.306 26.66L182.453 30.566C181.627 30.814 180.872 31.0103 180.19 31.155C179.508 31.2997 178.661 31.372 177.648 31.372ZM194.345 31.372C192.713 31.372 191.235 31.0517 189.912 30.411C188.61 29.7703 187.577 28.8507 186.812 27.652C186.048 26.4327 185.665 24.9653 185.665 23.25C185.665 21.5553 186.048 20.1087 186.812 18.91C187.598 17.6907 188.61 16.7607 189.85 16.12C191.09 15.4587 192.403 15.128 193.787 15.128C195.42 15.128 196.784 15.469 197.879 16.151C198.975 16.8123 199.791 17.7113 200.328 18.848C200.886 19.9847 201.165 21.2453 201.165 22.63C201.165 23.0847 201.134 23.529 201.072 23.963C201.031 24.3763 200.99 24.676 200.948 24.862H189.695V21.39H197.259L196.515 22.32C196.515 21.2867 196.309 20.5013 195.895 19.964C195.482 19.4267 194.841 19.158 193.973 19.158C193.291 19.158 192.713 19.3027 192.237 19.592C191.783 19.8813 191.431 20.336 191.183 20.956C190.935 21.5553 190.811 22.32 190.811 23.25C190.811 24.2213 190.966 25.0067 191.276 25.606C191.607 26.2053 192.082 26.6497 192.702 26.939C193.343 27.2077 194.139 27.342 195.089 27.342C195.709 27.342 196.309 27.2697 196.887 27.125C197.487 26.9597 198.127 26.722 198.809 26.412L200.545 29.574C199.615 30.1527 198.592 30.597 197.476 30.907C196.36 31.217 195.317 31.372 194.345 31.372Z" fill="#00DA9A"/>
</svg>