<svg width="100%" height="100%" viewBox="0 0 257 109" fill="none"
    xmlns="http://www.w3.org/2000/svg">
    <rect x="1" y="40" width="255" height="68" rx="16" stroke="#00DA9A" stroke-width="2"/>
    <path d="M120 67.1423V76.6789C120 84.3615 114.195 90.8022 106.554 91.5981L97.8376 92.5061L63.8949 94.5028L63.8826 94.5035L35.4474 96H24C15.7157 96 9 89.2843 9 81V64C9 55.7157 15.7157 49 24 49H35.4655L64.4208 49.9985L64.4311 49.9988L97.8722 51.4963L106.246 52.1941C114.02 52.8419 120 59.3409 120 67.1423Z" stroke="#009F71" stroke-width="4"/>
    <path d="M139.556 81.372C138.44 81.372 137.417 81.2583 136.487 81.031C135.557 80.8037 134.72 80.4833 133.976 80.07C133.253 79.6567 132.633 79.1607 132.116 78.582L134.534 75.234C135.195 75.792 135.919 76.2467 136.704 76.598C137.489 76.9287 138.254 77.094 138.998 77.094C139.639 77.094 140.207 77.032 140.703 76.908C141.199 76.7633 141.581 76.5567 141.85 76.288C142.139 75.9987 142.284 75.6473 142.284 75.234C142.284 74.738 142.129 74.3143 141.819 73.963C141.53 73.6117 140.992 73.343 140.207 73.157C139.422 72.971 138.295 72.878 136.828 72.878V69.158C138.006 69.158 138.946 69.065 139.649 68.879C140.352 68.693 140.858 68.4347 141.168 68.104C141.499 67.7733 141.664 67.3807 141.664 66.926C141.664 66.3267 141.447 65.8823 141.013 65.593C140.579 65.283 139.969 65.128 139.184 65.128C138.481 65.128 137.82 65.2623 137.2 65.531C136.601 65.7997 135.96 66.2027 135.278 66.74L132.612 63.516C133.625 62.71 134.699 62.09 135.836 61.656C136.973 61.2013 138.171 60.974 139.432 60.974C140.941 60.974 142.263 61.191 143.4 61.625C144.537 62.059 145.415 62.6893 146.035 63.516C146.676 64.322 146.996 65.3243 146.996 66.523C146.996 67.4737 146.686 68.3003 146.066 69.003C145.446 69.7057 144.557 70.2947 143.4 70.77V70.894C144.206 71.1213 144.929 71.452 145.57 71.886C146.211 72.2993 146.707 72.816 147.058 73.436C147.43 74.056 147.616 74.7793 147.616 75.606C147.616 76.846 147.234 77.9 146.469 78.768C145.725 79.6153 144.743 80.2663 143.524 80.721C142.305 81.155 140.982 81.372 139.556 81.372ZM151.572 81V60.85H157.369C159.291 60.85 160.986 61.191 162.453 61.873C163.941 62.5343 165.098 63.5987 165.925 65.066C166.772 66.5333 167.196 68.4553 167.196 70.832C167.196 73.2087 166.783 75.1513 165.956 76.66C165.129 78.148 163.993 79.2433 162.546 79.946C161.12 80.6487 159.498 81 157.679 81H151.572ZM156.904 76.722H157.09C157.958 76.722 158.743 76.5567 159.446 76.226C160.149 75.8953 160.707 75.3063 161.12 74.459C161.533 73.6117 161.74 72.4027 161.74 70.832C161.74 69.2613 161.533 68.073 161.12 67.267C160.707 66.4403 160.149 65.8823 159.446 65.593C158.743 65.283 157.958 65.128 157.09 65.128H156.904V76.722Z" fill="#009F71"/>
    <path d="M75.317 31V10.788H79.874V27.156H88.864V31H75.317ZM97.5319 31.372C96.4986 31.372 95.5996 31.1653 94.8349 30.752C94.0909 30.3387 93.5122 29.7807 93.0989 29.078C92.6856 28.3753 92.4789 27.59 92.4789 26.722C92.4789 25.0067 93.2539 23.6943 94.8039 22.785C96.3746 21.8757 98.9786 21.3177 102.616 21.111C102.554 20.6357 102.399 20.2327 102.151 19.902C101.903 19.5713 101.541 19.3233 101.066 19.158C100.611 18.972 100.033 18.879 99.3299 18.879C98.8339 18.879 98.3379 18.941 97.8419 19.065C97.3459 19.1683 96.8292 19.3337 96.2919 19.561C95.7752 19.7677 95.2276 20.0157 94.6489 20.305L93.0369 17.329C93.7396 16.9157 94.4732 16.554 95.2379 16.244C96.0232 15.934 96.8292 15.6963 97.6559 15.531C98.5032 15.345 99.3609 15.252 100.229 15.252C101.676 15.252 102.916 15.5103 103.949 16.027C104.982 16.523 105.778 17.2877 106.336 18.321C106.894 19.3337 107.173 20.6253 107.173 22.196V31H103.453L103.112 29.264H102.988C102.223 29.8427 101.376 30.3387 100.446 30.752C99.5159 31.1653 98.5446 31.372 97.5319 31.372ZM98.9889 27.838C99.6709 27.838 100.312 27.7037 100.911 27.435C101.51 27.1457 102.079 26.7943 102.616 26.381V23.839C101.107 23.9217 99.9292 24.0767 99.0819 24.304C98.2552 24.5313 97.6766 24.8207 97.3459 25.172C97.0152 25.5233 96.8499 25.9263 96.8499 26.381C96.8499 26.691 96.9326 26.9597 97.0979 27.187C97.2839 27.4143 97.5319 27.5797 97.8419 27.683C98.1726 27.7863 98.5549 27.838 98.9889 27.838ZM113.609 37.014C113.154 37.014 112.73 36.983 112.338 36.921C111.945 36.859 111.583 36.7867 111.253 36.704L112.059 33.232C112.265 33.294 112.472 33.3353 112.679 33.356C112.885 33.3973 113.082 33.418 113.268 33.418C114.156 33.418 114.849 33.2217 115.345 32.829C115.861 32.457 116.244 31.9817 116.492 31.403L116.802 30.597L110.137 15.624H114.663L117.236 22.227C117.525 22.9503 117.794 23.7047 118.042 24.49C118.29 25.2547 118.538 26.04 118.786 26.846H118.91C119.116 26.0813 119.344 25.3063 119.592 24.521C119.84 23.7357 120.077 22.971 120.305 22.227L122.568 15.624H126.877L120.801 31.155C120.325 32.4363 119.767 33.511 119.127 34.379C118.507 35.247 117.752 35.898 116.864 36.332C115.996 36.7867 114.911 37.014 113.609 37.014ZM137.064 31.372C135.72 31.372 134.449 31.062 133.251 30.442C132.052 29.8013 131.081 28.8817 130.337 27.683C129.593 26.4637 129.221 25.0067 129.221 23.312C129.221 21.6173 129.593 20.1707 130.337 18.972C131.081 17.7527 132.052 16.833 133.251 16.213C134.449 15.5723 135.72 15.252 137.064 15.252C138.407 15.252 139.678 15.5723 140.877 16.213C142.075 16.833 143.047 17.7527 143.791 18.972C144.535 20.1707 144.907 21.6173 144.907 23.312C144.907 25.0067 144.535 26.4637 143.791 27.683C143.047 28.8817 142.075 29.8013 140.877 30.442C139.678 31.062 138.407 31.372 137.064 31.372ZM137.064 27.683C137.766 27.683 138.345 27.5073 138.8 27.156C139.275 26.8047 139.626 26.2983 139.854 25.637C140.102 24.9757 140.226 24.2007 140.226 23.312C140.226 22.4233 140.102 21.6483 139.854 20.987C139.626 20.3257 139.275 19.8193 138.8 19.468C138.345 19.1167 137.766 18.941 137.064 18.941C136.361 18.941 135.772 19.1167 135.297 19.468C134.842 19.8193 134.491 20.3257 134.243 20.987C134.015 21.6483 133.902 22.4233 133.902 23.312C133.902 24.2007 134.015 24.9757 134.243 25.637C134.491 26.2983 134.842 26.8047 135.297 27.156C135.772 27.5073 136.361 27.683 137.064 27.683ZM153.265 31.372C151.508 31.372 150.237 30.814 149.452 29.698C148.666 28.582 148.274 27.0527 148.274 25.11V15.624H152.831V24.521C152.831 25.5543 152.986 26.3087 153.296 26.784C153.626 27.2593 154.215 27.497 155.063 27.497C155.641 27.497 156.158 27.373 156.613 27.125C157.067 26.877 157.553 26.412 158.07 25.73V15.624H162.627V31H158.907L158.566 28.799H158.442C157.76 29.5637 157.005 30.1837 156.179 30.659C155.352 31.1343 154.381 31.372 153.265 31.372ZM176.967 31.372C175.335 31.372 174.033 31.093 173.061 30.535C172.111 29.9563 171.418 29.1607 170.984 28.148C170.55 27.1353 170.333 25.9573 170.333 24.614V19.189H166.489V15.81L170.55 15.624L171.139 10.912H174.89V15.624H181.4V19.189H174.89V24.583C174.89 25.3477 175.004 25.9677 175.231 26.443C175.459 26.9183 175.81 27.2697 176.285 27.497C176.761 27.7037 177.37 27.807 178.114 27.807C178.714 27.807 179.261 27.7553 179.757 27.652C180.253 27.5487 180.729 27.4143 181.183 27.249L181.989 30.535C181.307 30.7417 180.553 30.9277 179.726 31.093C178.92 31.279 178.001 31.372 176.967 31.372Z" fill="#00DA9A"/>
</svg>