<svg width="100%" height="100%" viewBox="0 0 257 222" fill="none"
    xmlns="http://www.w3.org/2000/svg">
    <rect x="2" y="41" width="253" height="179" rx="15" fill="#CCCCCC" fill-opacity="0.5" stroke="#009F71" stroke-width="4"/>
    <rect x="8" y="47.7967" width="240.31" height="49.0334" rx="16" stroke="#00CF92" stroke-width="2"/>
    <path d="M106.328 81V66.216H100.868V62.744H115.932V66.216H110.472V81H106.328ZM125.189 81.336C123.976 81.336 122.828 81.056 121.745 80.496C120.662 79.9173 119.785 79.0867 119.113 78.004C118.441 76.9027 118.105 75.5867 118.105 74.056C118.105 72.5253 118.441 71.2187 119.113 70.136C119.785 69.0347 120.662 68.204 121.745 67.644C122.828 67.0653 123.976 66.776 125.189 66.776C126.402 66.776 127.55 67.0653 128.633 67.644C129.716 68.204 130.593 69.0347 131.265 70.136C131.937 71.2187 132.273 72.5253 132.273 74.056C132.273 75.5867 131.937 76.9027 131.265 78.004C130.593 79.0867 129.716 79.9173 128.633 80.496C127.55 81.056 126.402 81.336 125.189 81.336ZM125.189 78.004C125.824 78.004 126.346 77.8453 126.757 77.528C127.186 77.2107 127.504 76.7533 127.709 76.156C127.933 75.5587 128.045 74.8587 128.045 74.056C128.045 73.2533 127.933 72.5533 127.709 71.956C127.504 71.3587 127.186 70.9013 126.757 70.584C126.346 70.2667 125.824 70.108 125.189 70.108C124.554 70.108 124.022 70.2667 123.593 70.584C123.182 70.9013 122.865 71.3587 122.641 71.956C122.436 72.5533 122.333 73.2533 122.333 74.056C122.333 74.8587 122.436 75.5587 122.641 76.156C122.865 76.7533 123.182 77.2107 123.593 77.528C124.022 77.8453 124.554 78.004 125.189 78.004ZM135.594 86.152V67.112H138.954L139.262 68.512H139.346C139.925 68.008 140.569 67.5973 141.278 67.28C142.006 66.944 142.743 66.776 143.49 66.776C144.647 66.776 145.637 67.0653 146.458 67.644C147.298 68.2227 147.942 69.044 148.39 70.108C148.838 71.172 149.062 72.4133 149.062 73.832C149.062 75.4187 148.773 76.772 148.194 77.892C147.634 79.012 146.897 79.8707 145.982 80.468C145.067 81.0467 144.087 81.336 143.042 81.336C142.426 81.336 141.819 81.2053 141.222 80.944C140.643 80.6827 140.111 80.3093 139.626 79.824H139.514L139.71 82.092V86.152H135.594ZM142.09 77.976C142.613 77.976 143.079 77.836 143.49 77.556C143.901 77.276 144.227 76.8373 144.47 76.24C144.713 75.624 144.834 74.84 144.834 73.888C144.834 73.048 144.741 72.3573 144.554 71.816C144.367 71.256 144.087 70.836 143.714 70.556C143.359 70.276 142.883 70.136 142.286 70.136C141.838 70.136 141.399 70.2387 140.97 70.444C140.559 70.6307 140.139 70.9573 139.71 71.424V77.052C140.102 77.3693 140.503 77.6027 140.914 77.752C141.343 77.9013 141.735 77.976 142.09 77.976Z" fill="#00CF92"/>
    <rect x="8" y="105.31" width="240.31" height="49.0334" rx="16" stroke="#00CF92" stroke-width="2"/>
    <path d="M78.968 139.336C77.8293 139.336 76.7467 139.14 75.72 138.748C74.712 138.356 73.816 137.768 73.032 136.984C72.248 136.181 71.632 135.201 71.184 134.044C70.736 132.868 70.512 131.515 70.512 129.984C70.512 127.968 70.8947 126.251 71.66 124.832C72.444 123.395 73.4893 122.303 74.796 121.556C76.1213 120.791 77.596 120.408 79.22 120.408C80.3773 120.408 81.4227 120.651 82.356 121.136C83.2893 121.603 84.064 122.135 84.68 122.732L82.412 125.28C81.9827 124.869 81.5067 124.552 80.984 124.328C80.48 124.085 79.892 123.964 79.22 123.964C78.3613 123.964 77.596 124.207 76.924 124.692C76.252 125.159 75.72 125.831 75.328 126.708C74.936 127.585 74.74 128.631 74.74 129.844C74.74 131.095 74.936 132.168 75.328 133.064C75.72 133.941 76.2613 134.613 76.952 135.08C77.6613 135.547 78.4733 135.78 79.388 135.78C80.06 135.78 80.6667 135.631 81.208 135.332C81.7493 135.033 82.244 134.641 82.692 134.156L84.96 136.648C84.2133 137.525 83.336 138.197 82.328 138.664C81.32 139.112 80.2 139.336 78.968 139.336ZM94.1891 139.336C92.9757 139.336 91.8277 139.056 90.7451 138.496C89.6624 137.917 88.7851 137.087 88.1131 136.004C87.4411 134.903 87.1051 133.587 87.1051 132.056C87.1051 130.525 87.4411 129.219 88.1131 128.136C88.7851 127.035 89.6624 126.204 90.7451 125.644C91.8277 125.065 92.9757 124.776 94.1891 124.776C95.4024 124.776 96.5504 125.065 97.6331 125.644C98.7157 126.204 99.5931 127.035 100.265 128.136C100.937 129.219 101.273 130.525 101.273 132.056C101.273 133.587 100.937 134.903 100.265 136.004C99.5931 137.087 98.7157 137.917 97.6331 138.496C96.5504 139.056 95.4024 139.336 94.1891 139.336ZM94.1891 136.004C94.8237 136.004 95.3464 135.845 95.7571 135.528C96.1864 135.211 96.5037 134.753 96.7091 134.156C96.9331 133.559 97.0451 132.859 97.0451 132.056C97.0451 131.253 96.9331 130.553 96.7091 129.956C96.5037 129.359 96.1864 128.901 95.7571 128.584C95.3464 128.267 94.8237 128.108 94.1891 128.108C93.5544 128.108 93.0224 128.267 92.5931 128.584C92.1824 128.901 91.8651 129.359 91.6411 129.956C91.4357 130.553 91.3331 131.253 91.3331 132.056C91.3331 132.859 91.4357 133.559 91.6411 134.156C91.8651 134.753 92.1824 135.211 92.5931 135.528C93.0224 135.845 93.5544 136.004 94.1891 136.004ZM104.594 139V125.112H107.954L108.262 126.96H108.374C108.971 126.363 109.653 125.849 110.418 125.42C111.202 124.991 112.117 124.776 113.162 124.776C114.73 124.776 115.878 125.28 116.606 126.288C117.334 127.296 117.698 128.677 117.698 130.432V139H113.582V130.964C113.582 130.031 113.423 129.349 113.106 128.92C112.807 128.491 112.285 128.276 111.538 128.276C110.978 128.276 110.483 128.407 110.054 128.668C109.643 128.911 109.195 129.265 108.71 129.732V139H104.594ZM130.231 139.336C128.757 139.336 127.581 139.084 126.703 138.58C125.845 138.057 125.219 137.339 124.827 136.424C124.435 135.509 124.239 134.445 124.239 133.232V128.332H120.767V125.28L124.435 125.112L124.967 120.856H128.355V125.112H134.235V128.332H128.355V133.204C128.355 133.895 128.458 134.455 128.663 134.884C128.869 135.313 129.186 135.631 129.615 135.836C130.045 136.023 130.595 136.116 131.267 136.116C131.809 136.116 132.303 136.069 132.751 135.976C133.199 135.883 133.629 135.761 134.039 135.612L134.767 138.58C134.151 138.767 133.47 138.935 132.723 139.084C131.995 139.252 131.165 139.336 130.231 139.336ZM145.396 139.336C143.959 139.336 142.652 139.056 141.476 138.496C140.319 137.917 139.395 137.087 138.704 136.004C138.032 134.903 137.696 133.587 137.696 132.056C137.696 130.544 138.042 129.247 138.732 128.164C139.423 127.063 140.319 126.223 141.42 125.644C142.522 125.065 143.688 124.776 144.92 124.776C146.358 124.776 147.562 125.075 148.532 125.672C149.503 126.251 150.231 127.044 150.716 128.052C151.22 129.041 151.472 130.171 151.472 131.44C151.472 131.813 151.444 132.177 151.388 132.532C151.351 132.868 151.314 133.12 151.276 133.288H140.748V130.516H148.504L147.86 131.3C147.86 130.18 147.618 129.34 147.132 128.78C146.666 128.201 145.975 127.912 145.06 127.912C144.388 127.912 143.8 128.061 143.296 128.36C142.792 128.659 142.4 129.116 142.12 129.732C141.84 130.348 141.7 131.123 141.7 132.056C141.7 133.008 141.868 133.792 142.204 134.408C142.54 135.005 143.026 135.453 143.66 135.752C144.295 136.051 145.06 136.2 145.956 136.2C146.591 136.2 147.188 136.116 147.748 135.948C148.327 135.78 148.924 135.537 149.54 135.22L150.912 137.712C150.11 138.216 149.223 138.617 148.252 138.916C147.282 139.196 146.33 139.336 145.396 139.336ZM154.961 139V125.112H158.321L158.629 126.96H158.741C159.339 126.363 160.02 125.849 160.785 125.42C161.569 124.991 162.484 124.776 163.529 124.776C165.097 124.776 166.245 125.28 166.973 126.288C167.701 127.296 168.065 128.677 168.065 130.432V139H163.949V130.964C163.949 130.031 163.791 129.349 163.473 128.92C163.175 128.491 162.652 128.276 161.905 128.276C161.345 128.276 160.851 128.407 160.421 128.668C160.011 128.911 159.563 129.265 159.077 129.732V139H154.961ZM180.598 139.336C179.124 139.336 177.948 139.084 177.07 138.58C176.212 138.057 175.586 137.339 175.194 136.424C174.802 135.509 174.606 134.445 174.606 133.232V128.332H171.134V125.28L174.802 125.112L175.334 120.856H178.722V125.112H184.602V128.332H178.722V133.204C178.722 133.895 178.825 134.455 179.03 134.884C179.236 135.313 179.553 135.631 179.982 135.836C180.412 136.023 180.962 136.116 181.634 136.116C182.176 136.116 182.67 136.069 183.118 135.976C183.566 135.883 183.996 135.761 184.406 135.612L185.134 138.58C184.518 138.767 183.837 138.935 183.09 139.084C182.362 139.252 181.532 139.336 180.598 139.336Z" fill="#00CF92"/>
    <rect x="8" y="162.819" width="240.31" height="49.0334" rx="16" stroke="#00CF92" stroke-width="2"/>
    <path d="M77.072 197V178.744H83.204C84.4733 178.744 85.612 178.884 86.62 179.164C87.628 179.425 88.4213 179.883 89 180.536C89.5973 181.189 89.896 182.104 89.896 183.28C89.896 184.101 89.644 184.895 89.14 185.66C88.636 186.425 87.8427 186.948 86.76 187.228V187.34C88.0667 187.564 89.056 188.031 89.728 188.74C90.4 189.431 90.736 190.392 90.736 191.624C90.736 192.856 90.428 193.873 89.812 194.676C89.196 195.46 88.356 196.048 87.292 196.44C86.2467 196.813 85.0613 197 83.736 197H77.072ZM81.188 186.08H83.008C84.016 186.08 84.744 185.884 85.192 185.492C85.64 185.081 85.864 184.531 85.864 183.84C85.864 183.168 85.6307 182.692 85.164 182.412C84.716 182.113 84.0067 181.964 83.036 181.964H81.188V186.08ZM81.188 193.78H83.4C84.52 193.78 85.3507 193.575 85.892 193.164C86.4333 192.753 86.704 192.137 86.704 191.316C86.704 190.513 86.4333 189.935 85.892 189.58C85.3507 189.225 84.52 189.048 83.4 189.048H81.188V193.78ZM100.189 197.336C98.9757 197.336 97.8277 197.056 96.7451 196.496C95.6624 195.917 94.7851 195.087 94.1131 194.004C93.4411 192.903 93.1051 191.587 93.1051 190.056C93.1051 188.525 93.4411 187.219 94.1131 186.136C94.7851 185.035 95.6624 184.204 96.7451 183.644C97.8277 183.065 98.9757 182.776 100.189 182.776C101.402 182.776 102.55 183.065 103.633 183.644C104.716 184.204 105.593 185.035 106.265 186.136C106.937 187.219 107.273 188.525 107.273 190.056C107.273 191.587 106.937 192.903 106.265 194.004C105.593 195.087 104.716 195.917 103.633 196.496C102.55 197.056 101.402 197.336 100.189 197.336ZM100.189 194.004C100.824 194.004 101.346 193.845 101.757 193.528C102.186 193.211 102.504 192.753 102.709 192.156C102.933 191.559 103.045 190.859 103.045 190.056C103.045 189.253 102.933 188.553 102.709 187.956C102.504 187.359 102.186 186.901 101.757 186.584C101.346 186.267 100.824 186.108 100.189 186.108C99.5544 186.108 99.0224 186.267 98.5931 186.584C98.1824 186.901 97.8651 187.359 97.6411 187.956C97.4357 188.553 97.3331 189.253 97.3331 190.056C97.3331 190.859 97.4357 191.559 97.6411 192.156C97.8651 192.753 98.1824 193.211 98.5931 193.528C99.0224 193.845 99.5544 194.004 100.189 194.004ZM119.442 197.336C117.967 197.336 116.791 197.084 115.914 196.58C115.055 196.057 114.43 195.339 114.038 194.424C113.646 193.509 113.45 192.445 113.45 191.232V186.332H109.978V183.28L113.646 183.112L114.178 178.856H117.566V183.112H123.446V186.332H117.566V191.204C117.566 191.895 117.669 192.455 117.874 192.884C118.079 193.313 118.397 193.631 118.826 193.836C119.255 194.023 119.806 194.116 120.478 194.116C121.019 194.116 121.514 194.069 121.962 193.976C122.41 193.883 122.839 193.761 123.25 193.612L123.978 196.58C123.362 196.767 122.681 196.935 121.934 197.084C121.206 197.252 120.375 197.336 119.442 197.336ZM136.231 197.336C134.757 197.336 133.581 197.084 132.703 196.58C131.845 196.057 131.219 195.339 130.827 194.424C130.435 193.509 130.239 192.445 130.239 191.232V186.332H126.767V183.28L130.435 183.112L130.967 178.856H134.355V183.112H140.235V186.332H134.355V191.204C134.355 191.895 134.458 192.455 134.663 192.884C134.869 193.313 135.186 193.631 135.615 193.836C136.045 194.023 136.595 194.116 137.267 194.116C137.809 194.116 138.303 194.069 138.751 193.976C139.199 193.883 139.629 193.761 140.039 193.612L140.767 196.58C140.151 196.767 139.47 196.935 138.723 197.084C137.995 197.252 137.165 197.336 136.231 197.336ZM150.556 197.336C149.343 197.336 148.195 197.056 147.112 196.496C146.03 195.917 145.152 195.087 144.48 194.004C143.808 192.903 143.472 191.587 143.472 190.056C143.472 188.525 143.808 187.219 144.48 186.136C145.152 185.035 146.03 184.204 147.112 183.644C148.195 183.065 149.343 182.776 150.556 182.776C151.77 182.776 152.918 183.065 154 183.644C155.083 184.204 155.96 185.035 156.632 186.136C157.304 187.219 157.64 188.525 157.64 190.056C157.64 191.587 157.304 192.903 156.632 194.004C155.96 195.087 155.083 195.917 154 196.496C152.918 197.056 151.77 197.336 150.556 197.336ZM150.556 194.004C151.191 194.004 151.714 193.845 152.124 193.528C152.554 193.211 152.871 192.753 153.076 192.156C153.3 191.559 153.412 190.859 153.412 190.056C153.412 189.253 153.3 188.553 153.076 187.956C152.871 187.359 152.554 186.901 152.124 186.584C151.714 186.267 151.191 186.108 150.556 186.108C149.922 186.108 149.39 186.267 148.96 186.584C148.55 186.901 148.232 187.359 148.008 187.956C147.803 188.553 147.7 189.253 147.7 190.056C147.7 190.859 147.803 191.559 148.008 192.156C148.232 192.753 148.55 193.211 148.96 193.528C149.39 193.845 149.922 194.004 150.556 194.004ZM159.925 197V183.112H163.033L163.313 184.82H163.425C163.687 184.26 164.051 183.784 164.517 183.392C164.984 182.981 165.619 182.776 166.421 182.776C167.019 182.776 167.532 182.972 167.961 183.364C168.391 183.737 168.68 184.297 168.829 185.044C169.091 184.409 169.464 183.877 169.949 183.448C170.453 183 171.107 182.776 171.909 182.776C172.899 182.776 173.664 183.177 174.205 183.98C174.747 184.783 175.017 185.875 175.017 187.256V197H171.097V187.536C171.097 186.696 170.845 186.276 170.341 186.276C170.08 186.276 169.847 186.388 169.641 186.612C169.455 186.817 169.268 187.153 169.081 187.62V197H165.861V187.536C165.861 187.107 165.796 186.789 165.665 186.584C165.535 186.379 165.339 186.276 165.077 186.276C164.816 186.276 164.592 186.388 164.405 186.612C164.219 186.817 164.032 187.153 163.845 187.62V197H159.925Z" fill="#00CF92"/>
    <path d="M74.976 31V10.85H80.308V26.536H88.895V31H74.976ZM97.2839 31.372C96.2092 31.372 95.2999 31.155 94.5559 30.721C93.8119 30.2663 93.2436 29.6773 92.8509 28.954C92.4582 28.2307 92.2619 27.4453 92.2619 26.598C92.2619 24.862 93.0059 23.5393 94.4939 22.63C96.0026 21.7 98.5239 21.142 102.058 20.956C101.996 20.584 101.841 20.2843 101.593 20.057C101.345 19.809 101.004 19.6333 100.57 19.53C100.157 19.406 99.6606 19.344 99.0819 19.344C98.6479 19.344 98.2036 19.3957 97.7489 19.499C97.2942 19.5817 96.8086 19.7263 96.2919 19.933C95.7959 20.119 95.2379 20.3567 94.6179 20.646L92.7579 17.174C93.5432 16.74 94.3389 16.368 95.1449 16.058C95.9509 15.748 96.7672 15.5207 97.5939 15.376C98.4206 15.2107 99.2679 15.128 100.136 15.128C101.603 15.128 102.874 15.3863 103.949 15.903C105.044 16.399 105.892 17.1843 106.491 18.259C107.09 19.313 107.39 20.6873 107.39 22.382V31H103.05L102.678 29.388H102.554C101.789 29.946 100.963 30.4213 100.074 30.814C99.1852 31.186 98.2552 31.372 97.2839 31.372ZM99.0199 27.28C99.6399 27.28 100.198 27.1663 100.694 26.939C101.19 26.691 101.645 26.412 102.058 26.102V24.118C100.797 24.1593 99.8259 24.273 99.1439 24.459C98.4619 24.645 97.9866 24.893 97.7179 25.203C97.4699 25.4923 97.3459 25.8127 97.3459 26.164C97.3459 26.3913 97.4079 26.598 97.5319 26.784C97.6559 26.9493 97.8419 27.0733 98.0899 27.156C98.3379 27.2387 98.6479 27.28 99.0199 27.28ZM113.733 36.828C113.257 36.828 112.813 36.797 112.4 36.735C111.986 36.673 111.604 36.6007 111.253 36.518L112.183 32.488C112.389 32.55 112.586 32.5913 112.772 32.612C112.958 32.6533 113.133 32.674 113.299 32.674C114.125 32.674 114.756 32.5293 115.19 32.24C115.644 31.9507 115.975 31.5787 116.182 31.124L116.43 30.442L109.92 15.5H115.19L117.36 21.452C117.628 22.196 117.876 22.9607 118.104 23.746C118.331 24.5107 118.548 25.3167 118.755 26.164H118.879C119.065 25.3787 119.271 24.5933 119.499 23.808C119.747 23.002 119.984 22.2167 120.212 21.452L122.072 15.5H127.094L121.266 30.752C120.728 32.1367 120.129 33.2733 119.468 34.162C118.827 35.0713 118.052 35.743 117.143 36.177C116.233 36.611 115.097 36.828 113.733 36.828ZM137.064 31.372C135.7 31.372 134.408 31.0517 133.189 30.411C131.969 29.7703 130.977 28.8507 130.213 27.652C129.448 26.4327 129.066 24.9653 129.066 23.25C129.066 21.5347 129.448 20.0777 130.213 18.879C130.977 17.6597 131.969 16.7297 133.189 16.089C134.408 15.4483 135.7 15.128 137.064 15.128C138.428 15.128 139.719 15.4483 140.939 16.089C142.158 16.7297 143.15 17.6597 143.915 18.879C144.679 20.0777 145.062 21.5347 145.062 23.25C145.062 24.9653 144.679 26.4327 143.915 27.652C143.15 28.8507 142.158 29.7703 140.939 30.411C139.719 31.0517 138.428 31.372 137.064 31.372ZM137.064 27.094C137.663 27.094 138.149 26.939 138.521 26.629C138.893 26.319 139.161 25.8747 139.327 25.296C139.513 24.7173 139.606 24.0353 139.606 23.25C139.606 22.4647 139.513 21.7827 139.327 21.204C139.161 20.6253 138.893 20.181 138.521 19.871C138.149 19.561 137.663 19.406 137.064 19.406C136.464 19.406 135.979 19.561 135.607 19.871C135.235 20.181 134.956 20.6253 134.77 21.204C134.604 21.7827 134.522 22.4647 134.522 23.25C134.522 24.0353 134.604 24.7173 134.77 25.296C134.956 25.8747 135.235 26.319 135.607 26.629C135.979 26.939 136.464 27.094 137.064 27.094ZM152.986 31.372C151.25 31.372 149.999 30.8037 149.235 29.667C148.47 28.5097 148.088 26.97 148.088 25.048V15.5H153.42V24.366C153.42 25.234 153.533 25.8643 153.761 26.257C154.009 26.6497 154.484 26.846 155.187 26.846C155.641 26.846 156.044 26.7633 156.396 26.598C156.747 26.412 157.119 26.04 157.512 25.482V15.5H162.844V31H158.504L158.132 28.954H158.008C157.367 29.698 156.644 30.287 155.838 30.721C155.032 31.155 154.081 31.372 152.986 31.372ZM176.905 31.372C175.211 31.372 173.857 31.0827 172.844 30.504C171.832 29.9253 171.098 29.1193 170.643 28.086C170.189 27.032 169.961 25.8127 169.961 24.428V19.654H166.241V15.686L170.209 15.5L170.891 10.85H175.293V15.5H181.431V19.654H175.293V24.335C175.293 25.0583 175.407 25.637 175.634 26.071C175.862 26.4843 176.192 26.784 176.626 26.97C177.081 27.1353 177.639 27.218 178.3 27.218C178.838 27.218 179.334 27.1767 179.788 27.094C180.264 26.9907 180.708 26.8667 181.121 26.722L182.051 30.566C181.369 30.752 180.605 30.9277 179.757 31.093C178.91 31.279 177.959 31.372 176.905 31.372Z" fill="#009F71"/>
</svg>