<svg width="250" height="247" viewBox="0 0 250 247" fill="none" xmlns="http://www.w3.org/2000/svg">
<path d="M89.424 31V10.136H94.128V27.032H103.408V31H89.424ZM114.084 31V18.808H107.684V15.128H118.788V31H114.084ZM116.228 12.632C115.332 12.632 114.585 12.376 113.988 11.864C113.39 11.3307 113.092 10.6373 113.092 9.784C113.092 8.90933 113.39 8.20533 113.988 7.672C114.585 7.11733 115.332 6.84 116.228 6.84C117.145 6.84 117.892 7.11733 118.468 7.672C119.065 8.20533 119.364 8.90933 119.364 9.784C119.364 10.6373 119.065 11.3307 118.468 11.864C117.892 12.376 117.145 12.632 116.228 12.632ZM133.847 31.384C132.439 31.384 131.042 31.1493 129.655 30.68C128.268 30.1893 127.074 29.6133 126.071 28.952L128.087 26.008C129.047 26.6267 130.06 27.096 131.127 27.416C132.215 27.736 133.335 27.896 134.487 27.896C135.362 27.896 136.002 27.768 136.407 27.512C136.812 27.2347 137.015 26.9147 137.015 26.552C137.015 26.3173 136.951 26.1253 136.823 25.976C136.716 25.8053 136.514 25.656 136.215 25.528C135.938 25.3787 135.543 25.24 135.031 25.112C134.54 24.984 133.9 24.8347 133.111 24.664C130.956 24.1947 129.41 23.5547 128.471 22.744C127.532 21.9333 127.063 20.92 127.063 19.704C127.063 18.2107 127.714 17.016 129.015 16.12C130.316 15.2027 132.098 14.744 134.359 14.744C135.788 14.744 137.079 14.9787 138.231 15.448C139.404 15.896 140.407 16.3867 141.239 16.92L139.127 19.736C138.338 19.2453 137.495 18.872 136.599 18.616C135.703 18.36 134.818 18.232 133.943 18.232C133.452 18.232 133.047 18.2853 132.727 18.392C132.407 18.4773 132.162 18.6267 131.991 18.84C131.82 19.032 131.735 19.2453 131.735 19.48C131.735 19.9067 132.012 20.2267 132.567 20.44C133.122 20.632 134.071 20.8773 135.415 21.176C137.036 21.5387 138.306 21.9547 139.223 22.424C140.14 22.8933 140.77 23.4373 141.111 24.056C141.474 24.6533 141.655 25.3893 141.655 26.264C141.655 27.224 141.356 28.088 140.759 28.856C140.183 29.624 139.308 30.2427 138.135 30.712C136.983 31.16 135.554 31.384 133.847 31.384ZM155.979 31.384C154.293 31.384 152.949 31.096 151.947 30.52C150.965 29.9227 150.251 29.1013 149.803 28.056C149.355 27.0107 149.131 25.7947 149.131 24.408V18.808H145.163V15.32L149.355 15.128L149.963 10.264H153.835V15.128H160.555V18.808H153.835V24.376C153.835 25.1653 153.952 25.8053 154.187 26.296C154.421 26.7867 154.784 27.1493 155.275 27.384C155.765 27.5973 156.395 27.704 157.163 27.704C157.781 27.704 158.347 27.6507 158.859 27.544C159.371 27.4373 159.861 27.2987 160.331 27.128L161.163 30.52C160.459 30.7333 159.68 30.9253 158.827 31.096C157.995 31.288 157.045 31.384 155.979 31.384Z" fill="#00DA9A"/>
<path d="M61.568 88V72.352H65.096V85.024H72.056V88H61.568ZM80.0626 88V78.856H75.2626V76.096H83.5906V88H80.0626ZM81.6706 74.224C80.9986 74.224 80.4386 74.032 79.9906 73.648C79.5426 73.248 79.3186 72.728 79.3186 72.088C79.3186 71.432 79.5426 70.904 79.9906 70.504C80.4386 70.088 80.9986 69.88 81.6706 69.88C82.3586 69.88 82.9186 70.088 83.3506 70.504C83.7986 70.904 84.0226 71.432 84.0226 72.088C84.0226 72.728 83.7986 73.248 83.3506 73.648C82.9186 74.032 82.3586 74.224 81.6706 74.224ZM94.8853 88.288C93.8293 88.288 92.7813 88.112 91.7413 87.76C90.7013 87.392 89.8053 86.96 89.0533 86.464L90.5653 84.256C91.2853 84.72 92.0453 85.072 92.8453 85.312C93.6613 85.552 94.5013 85.672 95.3653 85.672C96.0213 85.672 96.5013 85.576 96.8053 85.384C97.1093 85.176 97.2613 84.936 97.2613 84.664C97.2613 84.488 97.2133 84.344 97.1173 84.232C97.0373 84.104 96.8853 83.992 96.6613 83.896C96.4533 83.784 96.1573 83.68 95.7733 83.584C95.4053 83.488 94.9253 83.376 94.3333 83.248C92.7173 82.896 91.5573 82.416 90.8533 81.808C90.1493 81.2 89.7973 80.44 89.7973 79.528C89.7973 78.408 90.2853 77.512 91.2613 76.84C92.2373 76.152 93.5733 75.808 95.2693 75.808C96.3413 75.808 97.3093 75.984 98.1733 76.336C99.0533 76.672 99.8053 77.04 100.429 77.44L98.8453 79.552C98.2533 79.184 97.6213 78.904 96.9493 78.712C96.2773 78.52 95.6133 78.424 94.9573 78.424C94.5893 78.424 94.2853 78.464 94.0453 78.544C93.8053 78.608 93.6213 78.72 93.4933 78.88C93.3653 79.024 93.3013 79.184 93.3013 79.36C93.3013 79.68 93.5093 79.92 93.9253 80.08C94.3413 80.224 95.0533 80.408 96.0613 80.632C97.2773 80.904 98.2293 81.216 98.9173 81.568C99.6053 81.92 100.077 82.328 100.333 82.792C100.605 83.24 100.741 83.792 100.741 84.448C100.741 85.168 100.517 85.816 100.069 86.392C99.6373 86.968 98.9813 87.432 98.1013 87.784C97.2373 88.12 96.1653 88.288 94.8853 88.288ZM111.484 88.288C110.22 88.288 109.212 88.072 108.46 87.64C107.724 87.192 107.188 86.576 106.852 85.792C106.516 85.008 106.348 84.096 106.348 83.056V78.856H103.372V76.24L106.516 76.096L106.972 72.448H109.876V76.096H114.916V78.856H109.876V83.032C109.876 83.624 109.964 84.104 110.14 84.472C110.316 84.84 110.588 85.112 110.956 85.288C111.324 85.448 111.796 85.528 112.372 85.528C112.836 85.528 113.26 85.488 113.644 85.408C114.028 85.328 114.396 85.224 114.748 85.096L115.372 87.64C114.844 87.8 114.26 87.944 113.62 88.072C112.996 88.216 112.284 88.288 111.484 88.288ZM118.339 88V85.024H121.987V75.328H118.339V72.352H129.187V75.328H125.539V85.024H129.187V88H118.339ZM140.265 88.288C139.001 88.288 137.993 88.072 137.241 87.64C136.505 87.192 135.969 86.576 135.633 85.792C135.297 85.008 135.129 84.096 135.129 83.056V78.856H132.153V76.24L135.297 76.096L135.753 72.448H138.657V76.096H143.697V78.856H138.657V83.032C138.657 83.624 138.745 84.104 138.921 84.472C139.097 84.84 139.369 85.112 139.737 85.288C140.105 85.448 140.577 85.528 141.153 85.528C141.617 85.528 142.041 85.488 142.425 85.408C142.809 85.328 143.177 85.224 143.529 85.096L144.153 87.64C143.625 87.8 143.041 87.944 142.401 88.072C141.777 88.216 141.065 88.288 140.265 88.288ZM153.264 88.288C152.032 88.288 150.912 88.048 149.904 87.568C148.912 87.072 148.12 86.36 147.528 85.432C146.952 84.488 146.664 83.36 146.664 82.048C146.664 80.752 146.96 79.64 147.552 78.712C148.144 77.768 148.912 77.048 149.856 76.552C150.8 76.056 151.8 75.808 152.856 75.808C154.088 75.808 155.12 76.064 155.952 76.576C156.784 77.072 157.408 77.752 157.824 78.616C158.256 79.464 158.472 80.432 158.472 81.52C158.472 81.84 158.448 82.152 158.4 82.456C158.368 82.744 158.336 82.96 158.304 83.104H149.28V80.728H155.928L155.376 81.4C155.376 80.44 155.168 79.72 154.752 79.24C154.352 78.744 153.76 78.496 152.976 78.496C152.4 78.496 151.896 78.624 151.464 78.88C151.032 79.136 150.696 79.528 150.456 80.056C150.216 80.584 150.096 81.248 150.096 82.048C150.096 82.864 150.24 83.536 150.528 84.064C150.816 84.576 151.232 84.96 151.776 85.216C152.32 85.472 152.976 85.6 153.744 85.6C154.288 85.6 154.8 85.528 155.28 85.384C155.776 85.24 156.288 85.032 156.816 84.76L157.992 86.896C157.304 87.328 156.544 87.672 155.712 87.928C154.88 88.168 154.064 88.288 153.264 88.288ZM160.574 88V76.096H163.238L163.478 77.56H163.574C163.798 77.08 164.11 76.672 164.51 76.336C164.91 75.984 165.454 75.808 166.142 75.808C166.654 75.808 167.094 75.976 167.462 76.312C167.83 76.632 168.078 77.112 168.206 77.752C168.43 77.208 168.75 76.752 169.166 76.384C169.598 76 170.158 75.808 170.846 75.808C171.694 75.808 172.35 76.152 172.814 76.84C173.278 77.528 173.51 78.464 173.51 79.648V88H170.15V79.888C170.15 79.168 169.934 78.808 169.502 78.808C169.278 78.808 169.078 78.904 168.902 79.096C168.742 79.272 168.582 79.56 168.422 79.96V88H165.662V79.888C165.662 79.52 165.606 79.248 165.494 79.072C165.382 78.896 165.214 78.808 164.99 78.808C164.766 78.808 164.574 78.904 164.414 79.096C164.254 79.272 164.094 79.56 163.934 79.96V88H160.574Z" fill="#009F71"/>
<circle cx="42" cy="79" r="6" fill="#009F71"/>
<path d="M62.568 132V116.352H66.096V129.024H73.056V132H62.568ZM81.0626 132V122.856H76.2626V120.096H84.5906V132H81.0626ZM82.6706 118.224C81.9986 118.224 81.4386 118.032 80.9906 117.648C80.5426 117.248 80.3186 116.728 80.3186 116.088C80.3186 115.432 80.5426 114.904 80.9906 114.504C81.4386 114.088 81.9986 113.88 82.6706 113.88C83.3586 113.88 83.9186 114.088 84.3506 114.504C84.7986 114.904 85.0226 115.432 85.0226 116.088C85.0226 116.728 84.7986 117.248 84.3506 117.648C83.9186 118.032 83.3586 118.224 82.6706 118.224ZM95.8853 132.288C94.8293 132.288 93.7813 132.112 92.7413 131.76C91.7013 131.392 90.8053 130.96 90.0533 130.464L91.5653 128.256C92.2853 128.72 93.0453 129.072 93.8453 129.312C94.6613 129.552 95.5013 129.672 96.3653 129.672C97.0213 129.672 97.5013 129.576 97.8053 129.384C98.1093 129.176 98.2613 128.936 98.2613 128.664C98.2613 128.488 98.2133 128.344 98.1173 128.232C98.0373 128.104 97.8853 127.992 97.6613 127.896C97.4533 127.784 97.1573 127.68 96.7733 127.584C96.4053 127.488 95.9253 127.376 95.3333 127.248C93.7173 126.896 92.5573 126.416 91.8533 125.808C91.1493 125.2 90.7973 124.44 90.7973 123.528C90.7973 122.408 91.2853 121.512 92.2613 120.84C93.2373 120.152 94.5733 119.808 96.2693 119.808C97.3413 119.808 98.3093 119.984 99.1733 120.336C100.053 120.672 100.805 121.04 101.429 121.44L99.8453 123.552C99.2533 123.184 98.6213 122.904 97.9493 122.712C97.2773 122.52 96.6133 122.424 95.9573 122.424C95.5893 122.424 95.2853 122.464 95.0453 122.544C94.8053 122.608 94.6213 122.72 94.4933 122.88C94.3653 123.024 94.3013 123.184 94.3013 123.36C94.3013 123.68 94.5093 123.92 94.9253 124.08C95.3413 124.224 96.0533 124.408 97.0613 124.632C98.2773 124.904 99.2293 125.216 99.9173 125.568C100.605 125.92 101.077 126.328 101.333 126.792C101.605 127.24 101.741 127.792 101.741 128.448C101.741 129.168 101.517 129.816 101.069 130.392C100.637 130.968 99.9813 131.432 99.1013 131.784C98.2373 132.12 97.1653 132.288 95.8853 132.288ZM112.484 132.288C111.22 132.288 110.212 132.072 109.46 131.64C108.724 131.192 108.188 130.576 107.852 129.792C107.516 129.008 107.348 128.096 107.348 127.056V122.856H104.372V120.24L107.516 120.096L107.972 116.448H110.876V120.096H115.916V122.856H110.876V127.032C110.876 127.624 110.964 128.104 111.14 128.472C111.316 128.84 111.588 129.112 111.956 129.288C112.324 129.448 112.796 129.528 113.372 129.528C113.836 129.528 114.26 129.488 114.644 129.408C115.028 129.328 115.396 129.224 115.748 129.096L116.372 131.64C115.844 131.8 115.26 131.944 114.62 132.072C113.996 132.216 113.284 132.288 112.484 132.288ZM119.339 132V129.024H122.987V119.328H119.339V116.352H130.187V119.328H126.539V129.024H130.187V132H119.339ZM141.265 132.288C140.001 132.288 138.993 132.072 138.241 131.64C137.505 131.192 136.969 130.576 136.633 129.792C136.297 129.008 136.129 128.096 136.129 127.056V122.856H133.153V120.24L136.297 120.096L136.753 116.448H139.657V120.096H144.697V122.856H139.657V127.032C139.657 127.624 139.745 128.104 139.921 128.472C140.097 128.84 140.369 129.112 140.737 129.288C141.105 129.448 141.577 129.528 142.153 129.528C142.617 129.528 143.041 129.488 143.425 129.408C143.809 129.328 144.177 129.224 144.529 129.096L145.153 131.64C144.625 131.8 144.041 131.944 143.401 132.072C142.777 132.216 142.065 132.288 141.265 132.288ZM154.264 132.288C153.032 132.288 151.912 132.048 150.904 131.568C149.912 131.072 149.12 130.36 148.528 129.432C147.952 128.488 147.664 127.36 147.664 126.048C147.664 124.752 147.96 123.64 148.552 122.712C149.144 121.768 149.912 121.048 150.856 120.552C151.8 120.056 152.8 119.808 153.856 119.808C155.088 119.808 156.12 120.064 156.952 120.576C157.784 121.072 158.408 121.752 158.824 122.616C159.256 123.464 159.472 124.432 159.472 125.52C159.472 125.84 159.448 126.152 159.4 126.456C159.368 126.744 159.336 126.96 159.304 127.104H150.28V124.728H156.928L156.376 125.4C156.376 124.44 156.168 123.72 155.752 123.24C155.352 122.744 154.76 122.496 153.976 122.496C153.4 122.496 152.896 122.624 152.464 122.88C152.032 123.136 151.696 123.528 151.456 124.056C151.216 124.584 151.096 125.248 151.096 126.048C151.096 126.864 151.24 127.536 151.528 128.064C151.816 128.576 152.232 128.96 152.776 129.216C153.32 129.472 153.976 129.6 154.744 129.6C155.288 129.6 155.8 129.528 156.28 129.384C156.776 129.24 157.288 129.032 157.816 128.76L158.992 130.896C158.304 131.328 157.544 131.672 156.712 131.928C155.88 132.168 155.064 132.288 154.264 132.288ZM161.574 132V120.096H164.238L164.478 121.56H164.574C164.798 121.08 165.11 120.672 165.51 120.336C165.91 119.984 166.454 119.808 167.142 119.808C167.654 119.808 168.094 119.976 168.462 120.312C168.83 120.632 169.078 121.112 169.206 121.752C169.43 121.208 169.75 120.752 170.166 120.384C170.598 120 171.158 119.808 171.846 119.808C172.694 119.808 173.35 120.152 173.814 120.84C174.278 121.528 174.51 122.464 174.51 123.648V132H171.15V123.888C171.15 123.168 170.934 122.808 170.502 122.808C170.278 122.808 170.078 122.904 169.902 123.096C169.742 123.272 169.582 123.56 169.422 123.96V132H166.662V123.888C166.662 123.52 166.606 123.248 166.494 123.072C166.382 122.896 166.214 122.808 165.99 122.808C165.766 122.808 165.574 122.904 165.414 123.096C165.254 123.272 165.094 123.56 164.934 123.96V132H161.574Z" fill="#009F71"/>
<circle cx="43" cy="123" r="6" fill="#009F71"/>
<path d="M87.568 177V161.352H91.096V174.024H98.056V177H87.568ZM106.063 177V167.856H101.263V165.096H109.591V177H106.063ZM107.671 163.224C106.999 163.224 106.439 163.032 105.991 162.648C105.543 162.248 105.319 161.728 105.319 161.088C105.319 160.432 105.543 159.904 105.991 159.504C106.439 159.088 106.999 158.88 107.671 158.88C108.359 158.88 108.919 159.088 109.351 159.504C109.799 159.904 110.023 160.432 110.023 161.088C110.023 161.728 109.799 162.248 109.351 162.648C108.919 163.032 108.359 163.224 107.671 163.224ZM120.885 177.288C119.829 177.288 118.781 177.112 117.741 176.76C116.701 176.392 115.805 175.96 115.053 175.464L116.565 173.256C117.285 173.72 118.045 174.072 118.845 174.312C119.661 174.552 120.501 174.672 121.365 174.672C122.021 174.672 122.501 174.576 122.805 174.384C123.109 174.176 123.261 173.936 123.261 173.664C123.261 173.488 123.213 173.344 123.117 173.232C123.037 173.104 122.885 172.992 122.661 172.896C122.453 172.784 122.157 172.68 121.773 172.584C121.405 172.488 120.925 172.376 120.333 172.248C118.717 171.896 117.557 171.416 116.853 170.808C116.149 170.2 115.797 169.44 115.797 168.528C115.797 167.408 116.285 166.512 117.261 165.84C118.237 165.152 119.573 164.808 121.269 164.808C122.341 164.808 123.309 164.984 124.173 165.336C125.053 165.672 125.805 166.04 126.429 166.44L124.845 168.552C124.253 168.184 123.621 167.904 122.949 167.712C122.277 167.52 121.613 167.424 120.957 167.424C120.589 167.424 120.285 167.464 120.045 167.544C119.805 167.608 119.621 167.72 119.493 167.88C119.365 168.024 119.301 168.184 119.301 168.36C119.301 168.68 119.509 168.92 119.925 169.08C120.341 169.224 121.053 169.408 122.061 169.632C123.277 169.904 124.229 170.216 124.917 170.568C125.605 170.92 126.077 171.328 126.333 171.792C126.605 172.24 126.741 172.792 126.741 173.448C126.741 174.168 126.517 174.816 126.069 175.392C125.637 175.968 124.981 176.432 124.101 176.784C123.237 177.12 122.165 177.288 120.885 177.288ZM137.484 177.288C136.22 177.288 135.212 177.072 134.46 176.64C133.724 176.192 133.188 175.576 132.852 174.792C132.516 174.008 132.348 173.096 132.348 172.056V167.856H129.372V165.24L132.516 165.096L132.972 161.448H135.876V165.096H140.916V167.856H135.876V172.032C135.876 172.624 135.964 173.104 136.14 173.472C136.316 173.84 136.588 174.112 136.956 174.288C137.324 174.448 137.796 174.528 138.372 174.528C138.836 174.528 139.26 174.488 139.644 174.408C140.028 174.328 140.396 174.224 140.748 174.096L141.372 176.64C140.844 176.8 140.26 176.944 139.62 177.072C138.996 177.216 138.284 177.288 137.484 177.288ZM144.339 177V174.024H147.987V164.328H144.339V161.352H155.187V164.328H151.539V174.024H155.187V177H144.339ZM166.265 177.288C165.001 177.288 163.993 177.072 163.241 176.64C162.505 176.192 161.969 175.576 161.633 174.792C161.297 174.008 161.129 173.096 161.129 172.056V167.856H158.153V165.24L161.297 165.096L161.753 161.448H164.657V165.096H169.697V167.856H164.657V172.032C164.657 172.624 164.745 173.104 164.921 173.472C165.097 173.84 165.369 174.112 165.737 174.288C166.105 174.448 166.577 174.528 167.153 174.528C167.617 174.528 168.041 174.488 168.425 174.408C168.809 174.328 169.177 174.224 169.529 174.096L170.153 176.64C169.625 176.8 169.041 176.944 168.401 177.072C167.777 177.216 167.065 177.288 166.265 177.288ZM179.264 177.288C178.032 177.288 176.912 177.048 175.904 176.568C174.912 176.072 174.12 175.36 173.528 174.432C172.952 173.488 172.664 172.36 172.664 171.048C172.664 169.752 172.96 168.64 173.552 167.712C174.144 166.768 174.912 166.048 175.856 165.552C176.8 165.056 177.8 164.808 178.856 164.808C180.088 164.808 181.12 165.064 181.952 165.576C182.784 166.072 183.408 166.752 183.824 167.616C184.256 168.464 184.472 169.432 184.472 170.52C184.472 170.84 184.448 171.152 184.4 171.456C184.368 171.744 184.336 171.96 184.304 172.104H175.28V169.728H181.928L181.376 170.4C181.376 169.44 181.168 168.72 180.752 168.24C180.352 167.744 179.76 167.496 178.976 167.496C178.4 167.496 177.896 167.624 177.464 167.88C177.032 168.136 176.696 168.528 176.456 169.056C176.216 169.584 176.096 170.248 176.096 171.048C176.096 171.864 176.24 172.536 176.528 173.064C176.816 173.576 177.232 173.96 177.776 174.216C178.32 174.472 178.976 174.6 179.744 174.6C180.288 174.6 180.8 174.528 181.28 174.384C181.776 174.24 182.288 174.032 182.816 173.76L183.992 175.896C183.304 176.328 182.544 176.672 181.712 176.928C180.88 177.168 180.064 177.288 179.264 177.288ZM186.574 177V165.096H189.238L189.478 166.56H189.574C189.798 166.08 190.11 165.672 190.51 165.336C190.91 164.984 191.454 164.808 192.142 164.808C192.654 164.808 193.094 164.976 193.462 165.312C193.83 165.632 194.078 166.112 194.206 166.752C194.43 166.208 194.75 165.752 195.166 165.384C195.598 165 196.158 164.808 196.846 164.808C197.694 164.808 198.35 165.152 198.814 165.84C199.278 166.528 199.51 167.464 199.51 168.648V177H196.15V168.888C196.15 168.168 195.934 167.808 195.502 167.808C195.278 167.808 195.078 167.904 194.902 168.096C194.742 168.272 194.582 168.56 194.422 168.96V177H191.662V168.888C191.662 168.52 191.606 168.248 191.494 168.072C191.382 167.896 191.214 167.808 190.99 167.808C190.766 167.808 190.574 167.904 190.414 168.096C190.254 168.272 190.094 168.56 189.934 168.96V177H186.574Z" fill="#009F71"/>
<path d="M53.896 177V174.144H58V165.336H54.616V163.152C55.304 163.04 55.896 162.928 56.392 162.816C56.904 162.688 57.36 162.544 57.76 162.384C58.16 162.208 58.552 162 58.936 161.76H61.528V174.144H64.984V177H53.896ZM73.5906 177.288C72.7746 177.288 72.1026 177.016 71.5746 176.472C71.0626 175.928 70.8066 175.264 70.8066 174.48C70.8066 173.696 71.0626 173.032 71.5746 172.488C72.1026 171.928 72.7746 171.648 73.5906 171.648C74.4226 171.648 75.0946 171.928 75.6066 172.488C76.1186 173.032 76.3746 173.696 76.3746 174.48C76.3746 175.264 76.1186 175.928 75.6066 176.472C75.0946 177.016 74.4226 177.288 73.5906 177.288Z" fill="#009F71"/>
<path d="M88.568 221V205.352H92.096V218.024H99.056V221H88.568ZM107.063 221V211.856H102.263V209.096H110.591V221H107.063ZM108.671 207.224C107.999 207.224 107.439 207.032 106.991 206.648C106.543 206.248 106.319 205.728 106.319 205.088C106.319 204.432 106.543 203.904 106.991 203.504C107.439 203.088 107.999 202.88 108.671 202.88C109.359 202.88 109.919 203.088 110.351 203.504C110.799 203.904 111.023 204.432 111.023 205.088C111.023 205.728 110.799 206.248 110.351 206.648C109.919 207.032 109.359 207.224 108.671 207.224ZM121.885 221.288C120.829 221.288 119.781 221.112 118.741 220.76C117.701 220.392 116.805 219.96 116.053 219.464L117.565 217.256C118.285 217.72 119.045 218.072 119.845 218.312C120.661 218.552 121.501 218.672 122.365 218.672C123.021 218.672 123.501 218.576 123.805 218.384C124.109 218.176 124.261 217.936 124.261 217.664C124.261 217.488 124.213 217.344 124.117 217.232C124.037 217.104 123.885 216.992 123.661 216.896C123.453 216.784 123.157 216.68 122.773 216.584C122.405 216.488 121.925 216.376 121.333 216.248C119.717 215.896 118.557 215.416 117.853 214.808C117.149 214.2 116.797 213.44 116.797 212.528C116.797 211.408 117.285 210.512 118.261 209.84C119.237 209.152 120.573 208.808 122.269 208.808C123.341 208.808 124.309 208.984 125.173 209.336C126.053 209.672 126.805 210.04 127.429 210.44L125.845 212.552C125.253 212.184 124.621 211.904 123.949 211.712C123.277 211.52 122.613 211.424 121.957 211.424C121.589 211.424 121.285 211.464 121.045 211.544C120.805 211.608 120.621 211.72 120.493 211.88C120.365 212.024 120.301 212.184 120.301 212.36C120.301 212.68 120.509 212.92 120.925 213.08C121.341 213.224 122.053 213.408 123.061 213.632C124.277 213.904 125.229 214.216 125.917 214.568C126.605 214.92 127.077 215.328 127.333 215.792C127.605 216.24 127.741 216.792 127.741 217.448C127.741 218.168 127.517 218.816 127.069 219.392C126.637 219.968 125.981 220.432 125.101 220.784C124.237 221.12 123.165 221.288 121.885 221.288ZM138.484 221.288C137.22 221.288 136.212 221.072 135.46 220.64C134.724 220.192 134.188 219.576 133.852 218.792C133.516 218.008 133.348 217.096 133.348 216.056V211.856H130.372V209.24L133.516 209.096L133.972 205.448H136.876V209.096H141.916V211.856H136.876V216.032C136.876 216.624 136.964 217.104 137.14 217.472C137.316 217.84 137.588 218.112 137.956 218.288C138.324 218.448 138.796 218.528 139.372 218.528C139.836 218.528 140.26 218.488 140.644 218.408C141.028 218.328 141.396 218.224 141.748 218.096L142.372 220.64C141.844 220.8 141.26 220.944 140.62 221.072C139.996 221.216 139.284 221.288 138.484 221.288ZM145.339 221V218.024H148.987V208.328H145.339V205.352H156.187V208.328H152.539V218.024H156.187V221H145.339ZM167.265 221.288C166.001 221.288 164.993 221.072 164.241 220.64C163.505 220.192 162.969 219.576 162.633 218.792C162.297 218.008 162.129 217.096 162.129 216.056V211.856H159.153V209.24L162.297 209.096L162.753 205.448H165.657V209.096H170.697V211.856H165.657V216.032C165.657 216.624 165.745 217.104 165.921 217.472C166.097 217.84 166.369 218.112 166.737 218.288C167.105 218.448 167.577 218.528 168.153 218.528C168.617 218.528 169.041 218.488 169.425 218.408C169.809 218.328 170.177 218.224 170.529 218.096L171.153 220.64C170.625 220.8 170.041 220.944 169.401 221.072C168.777 221.216 168.065 221.288 167.265 221.288ZM180.264 221.288C179.032 221.288 177.912 221.048 176.904 220.568C175.912 220.072 175.12 219.36 174.528 218.432C173.952 217.488 173.664 216.36 173.664 215.048C173.664 213.752 173.96 212.64 174.552 211.712C175.144 210.768 175.912 210.048 176.856 209.552C177.8 209.056 178.8 208.808 179.856 208.808C181.088 208.808 182.12 209.064 182.952 209.576C183.784 210.072 184.408 210.752 184.824 211.616C185.256 212.464 185.472 213.432 185.472 214.52C185.472 214.84 185.448 215.152 185.4 215.456C185.368 215.744 185.336 215.96 185.304 216.104H176.28V213.728H182.928L182.376 214.4C182.376 213.44 182.168 212.72 181.752 212.24C181.352 211.744 180.76 211.496 179.976 211.496C179.4 211.496 178.896 211.624 178.464 211.88C178.032 212.136 177.696 212.528 177.456 213.056C177.216 213.584 177.096 214.248 177.096 215.048C177.096 215.864 177.24 216.536 177.528 217.064C177.816 217.576 178.232 217.96 178.776 218.216C179.32 218.472 179.976 218.6 180.744 218.6C181.288 218.6 181.8 218.528 182.28 218.384C182.776 218.24 183.288 218.032 183.816 217.76L184.992 219.896C184.304 220.328 183.544 220.672 182.712 220.928C181.88 221.168 181.064 221.288 180.264 221.288ZM187.574 221V209.096H190.238L190.478 210.56H190.574C190.798 210.08 191.11 209.672 191.51 209.336C191.91 208.984 192.454 208.808 193.142 208.808C193.654 208.808 194.094 208.976 194.462 209.312C194.83 209.632 195.078 210.112 195.206 210.752C195.43 210.208 195.75 209.752 196.166 209.384C196.598 209 197.158 208.808 197.846 208.808C198.694 208.808 199.35 209.152 199.814 209.84C200.278 210.528 200.51 211.464 200.51 212.648V221H197.15V212.888C197.15 212.168 196.934 211.808 196.502 211.808C196.278 211.808 196.078 211.904 195.902 212.096C195.742 212.272 195.582 212.56 195.422 212.96V221H192.662V212.888C192.662 212.52 192.606 212.248 192.494 212.072C192.382 211.896 192.214 211.808 191.99 211.808C191.766 211.808 191.574 211.904 191.414 212.096C191.254 212.272 191.094 212.56 190.934 212.96V221H187.574Z" fill="#009F71"/>
<path d="M54.392 221V218.984C55.848 217.752 57.12 216.64 58.208 215.648C59.312 214.64 60.168 213.72 60.776 212.888C61.384 212.04 61.688 211.256 61.688 210.536C61.688 209.784 61.464 209.216 61.016 208.832C60.584 208.432 59.976 208.232 59.192 208.232C58.584 208.232 58.024 208.392 57.512 208.712C57.016 209.016 56.552 209.376 56.12 209.792L54.224 207.896C55.008 207.08 55.816 206.472 56.648 206.072C57.496 205.672 58.504 205.472 59.672 205.472C60.728 205.472 61.656 205.672 62.456 206.072C63.272 206.472 63.904 207.04 64.352 207.776C64.816 208.496 65.048 209.344 65.048 210.32C65.048 211.184 64.784 212.056 64.256 212.936C63.744 213.816 63.056 214.704 62.192 215.6C61.344 216.48 60.432 217.352 59.456 218.216C59.888 218.168 60.36 218.128 60.872 218.096C61.384 218.048 61.832 218.024 62.216 218.024H65.84V221H54.392ZM74.5906 221.288C73.7746 221.288 73.1026 221.016 72.5746 220.472C72.0626 219.928 71.8066 219.264 71.8066 218.48C71.8066 217.696 72.0626 217.032 72.5746 216.488C73.1026 215.928 73.7746 215.648 74.5906 215.648C75.4226 215.648 76.0946 215.928 76.6066 216.488C77.1186 217.032 77.3746 217.696 77.3746 218.48C77.3746 219.264 77.1186 219.928 76.6066 220.472C76.0946 221.016 75.4226 221.288 74.5906 221.288Z" fill="#009F71"/>
<rect x="1" y="49" width="248" height="197" rx="16" stroke="#00DA9A" stroke-width="2"/>
</svg>
