<svg width="100%" height="100%" viewBox="0 0 257 104" fill="none"
    xmlns="http://www.w3.org/2000/svg">
    <rect x="1" y="1" width="255" height="102" rx="16" stroke="#00CF92" stroke-width="2"/>
    <path d="M26.17 47V26.788H33.331C34.757 26.788 36.059 26.9843 37.237 27.377C38.415 27.749 39.3553 28.4 40.058 29.33C40.7813 30.2393 41.143 31.4897 41.143 33.081C41.143 34.631 40.7813 35.8917 40.058 36.863C39.3553 37.8343 38.415 38.5577 37.237 39.033C36.059 39.4877 34.757 39.715 33.331 39.715H30.727V47H26.17ZM30.727 36.088H32.959C34.1577 36.088 35.067 35.84 35.687 35.344C36.3277 34.8273 36.648 34.073 36.648 33.081C36.648 32.089 36.3277 31.3967 35.687 31.004C35.067 30.6113 34.1577 30.415 32.959 30.415H30.727V36.088ZM32.494 38.537L35.656 35.592L42.104 47H36.989L32.494 38.537ZM52.8179 47.372C51.2266 47.372 49.7799 47.062 48.4779 46.442C47.1966 45.8013 46.1736 44.8817 45.4089 43.683C44.6649 42.4637 44.2929 41.0067 44.2929 39.312C44.2929 37.638 44.6752 36.2017 45.4399 35.003C46.2046 33.7837 47.1966 32.8537 48.4159 32.213C49.6352 31.5723 50.9269 31.252 52.2909 31.252C53.8822 31.252 55.2152 31.5827 56.2899 32.244C57.3646 32.8847 58.1706 33.763 58.7079 34.879C59.2659 35.9743 59.5449 37.2247 59.5449 38.63C59.5449 39.0433 59.5139 39.4463 59.4519 39.839C59.4106 40.211 59.3692 40.49 59.3279 40.676H47.6719V37.607H56.2589L55.5459 38.475C55.5459 37.235 55.2772 36.305 54.7399 35.685C54.2232 35.0443 53.4586 34.724 52.4459 34.724C51.7019 34.724 51.0509 34.8893 50.4929 35.22C49.9349 35.5507 49.5009 36.057 49.1909 36.739C48.8809 37.421 48.7259 38.2787 48.7259 39.312C48.7259 40.366 48.9119 41.234 49.2839 41.916C49.6559 42.5773 50.1932 43.0733 50.8959 43.404C51.5986 43.7347 52.4459 43.9 53.4379 43.9C54.1406 43.9 54.8019 43.807 55.4219 43.621C56.0626 43.435 56.7239 43.1663 57.4059 42.815L58.9249 45.574C58.0362 46.132 57.0546 46.5763 55.9799 46.907C54.9052 47.217 53.8512 47.372 52.8179 47.372ZM73.4208 47.372C71.4988 47.372 70.0418 46.7933 69.0498 45.636C68.0578 44.4787 67.5618 42.9287 67.5618 40.986V28.865H62.7568V25.3H72.1188V41.172C72.1188 42.1227 72.3771 42.784 72.8938 43.156C73.4104 43.5073 73.9788 43.683 74.5988 43.683C74.9708 43.683 75.3428 43.6417 75.7148 43.559C76.1074 43.4763 76.5414 43.3523 77.0168 43.187L78.0088 46.535C77.2234 46.783 76.5001 46.9793 75.8388 47.124C75.1981 47.2893 74.3921 47.372 73.4208 47.372ZM86.7077 47.372C85.6743 47.372 84.7753 47.1653 84.0107 46.752C83.2667 46.3387 82.688 45.7807 82.2747 45.078C81.8613 44.3753 81.6547 43.59 81.6547 42.722C81.6547 41.0067 82.4297 39.6943 83.9797 38.785C85.5503 37.8757 88.1543 37.3177 91.7917 37.111C91.7297 36.6357 91.5747 36.2327 91.3267 35.902C91.0787 35.5713 90.717 35.3233 90.2417 35.158C89.787 34.972 89.2083 34.879 88.5057 34.879C88.0097 34.879 87.5137 34.941 87.0177 35.065C86.5217 35.1683 86.005 35.3337 85.4677 35.561C84.951 35.7677 84.4033 36.0157 83.8247 36.305L82.2127 33.329C82.9153 32.9157 83.649 32.554 84.4137 32.244C85.199 31.934 86.005 31.6963 86.8317 31.531C87.679 31.345 88.5367 31.252 89.4047 31.252C90.8513 31.252 92.0913 31.5103 93.1247 32.027C94.158 32.523 94.9537 33.2877 95.5117 34.321C96.0697 35.3337 96.3487 36.6253 96.3487 38.196V47H92.6287L92.2877 45.264H92.1637C91.399 45.8427 90.5517 46.3387 89.6217 46.752C88.6917 47.1653 87.7203 47.372 86.7077 47.372ZM88.1647 43.838C88.8467 43.838 89.4873 43.7037 90.0867 43.435C90.686 43.1457 91.2543 42.7943 91.7917 42.381V39.839C90.283 39.9217 89.105 40.0767 88.2577 40.304C87.431 40.5313 86.8523 40.8207 86.5217 41.172C86.191 41.5233 86.0257 41.9263 86.0257 42.381C86.0257 42.691 86.1083 42.9597 86.2737 43.187C86.4597 43.4143 86.7077 43.5797 87.0177 43.683C87.3483 43.7863 87.7307 43.838 88.1647 43.838ZM110.38 47.372C108.747 47.372 107.445 47.093 106.474 46.535C105.523 45.9563 104.831 45.1607 104.397 44.148C103.963 43.1353 103.746 41.9573 103.746 40.614V35.189H99.9016V31.81L103.963 31.624L104.552 26.912H108.303V31.624H114.813V35.189H108.303V40.583C108.303 41.3477 108.416 41.9677 108.644 42.443C108.871 42.9183 109.222 43.2697 109.698 43.497C110.173 43.7037 110.783 43.807 111.527 43.807C112.126 43.807 112.674 43.7553 113.17 43.652C113.666 43.5487 114.141 43.4143 114.596 43.249L115.402 46.535C114.72 46.7417 113.965 46.9277 113.139 47.093C112.333 47.279 111.413 47.372 110.38 47.372ZM125.557 47V35.189H119.357V31.624H130.114V47H125.557ZM127.634 29.206C126.766 29.206 126.043 28.958 125.464 28.462C124.886 27.9453 124.596 27.2737 124.596 26.447C124.596 25.5997 124.886 24.9177 125.464 24.401C126.043 23.8637 126.766 23.595 127.634 23.595C128.523 23.595 129.246 23.8637 129.804 24.401C130.383 24.9177 130.672 25.5997 130.672 26.447C130.672 27.2737 130.383 27.9453 129.804 28.462C129.246 28.958 128.523 29.206 127.634 29.206ZM142.285 47L136.488 31.624H141.076L143.494 38.878C143.742 39.6427 143.98 40.4177 144.207 41.203C144.435 41.9883 144.662 42.7943 144.889 43.621H145.013C145.241 42.7943 145.458 41.9883 145.664 41.203C145.892 40.4177 146.129 39.6427 146.377 38.878L148.795 31.624H153.166L147.524 47H142.285ZM164.345 47.372C162.754 47.372 161.307 47.062 160.005 46.442C158.724 45.8013 157.701 44.8817 156.936 43.683C156.192 42.4637 155.82 41.0067 155.82 39.312C155.82 37.638 156.203 36.2017 156.967 35.003C157.732 33.7837 158.724 32.8537 159.943 32.213C161.163 31.5723 162.454 31.252 163.818 31.252C165.41 31.252 166.743 31.5827 167.817 32.244C168.892 32.8847 169.698 33.763 170.235 34.879C170.793 35.9743 171.072 37.2247 171.072 38.63C171.072 39.0433 171.041 39.4463 170.979 39.839C170.938 40.211 170.897 40.49 170.855 40.676H159.199V37.607H167.786L167.073 38.475C167.073 37.235 166.805 36.305 166.267 35.685C165.751 35.0443 164.986 34.724 163.973 34.724C163.229 34.724 162.578 34.8893 162.02 35.22C161.462 35.5507 161.028 36.057 160.718 36.739C160.408 37.421 160.253 38.2787 160.253 39.312C160.253 40.366 160.439 41.234 160.811 41.916C161.183 42.5773 161.721 43.0733 162.423 43.404C163.126 43.7347 163.973 43.9 164.965 43.9C165.668 43.9 166.329 43.807 166.949 43.621C167.59 43.435 168.251 43.1663 168.933 42.815L170.452 45.574C169.564 46.132 168.582 46.5763 167.507 46.907C166.433 47.217 165.379 47.372 164.345 47.372Z" fill="#00CF92"/>
    <rect x="7" y="6" width="182" height="58" rx="16" stroke="#009F71" stroke-width="2"/>
    <path d="M26.3 92.372C25.246 92.372 24.378 92.0207 23.696 91.318C23.0347 90.6153 22.704 89.7577 22.704 88.745C22.704 87.7323 23.0347 86.8747 23.696 86.172C24.378 85.4487 25.246 85.087 26.3 85.087C27.3747 85.087 28.2427 85.4487 28.904 86.172C29.5653 86.8747 29.896 87.7323 29.896 88.745C29.896 89.7577 29.5653 90.6153 28.904 91.318C28.2427 92.0207 27.3747 92.372 26.3 92.372ZM44.8879 92.372C43.8339 92.372 42.9659 92.0207 42.2839 91.318C41.6226 90.6153 41.2919 89.7577 41.2919 88.745C41.2919 87.7323 41.6226 86.8747 42.2839 86.172C42.9659 85.4487 43.8339 85.087 44.8879 85.087C45.9626 85.087 46.8306 85.4487 47.4919 86.172C48.1532 86.8747 48.4839 87.7323 48.4839 88.745C48.4839 89.7577 48.1532 90.6153 47.4919 91.318C46.8306 92.0207 45.9626 92.372 44.8879 92.372ZM63.4758 92.372C62.4218 92.372 61.5538 92.0207 60.8718 91.318C60.2104 90.6153 59.8798 89.7577 59.8798 88.745C59.8798 87.7323 60.2104 86.8747 60.8718 86.172C61.5538 85.4487 62.4218 85.087 63.4758 85.087C64.5504 85.087 65.4184 85.4487 66.0798 86.172C66.7411 86.8747 67.0718 87.7323 67.0718 88.745C67.0718 89.7577 66.7411 90.6153 66.0798 91.318C65.4184 92.0207 64.5504 92.372 63.4758 92.372Z" fill="#00CF92"/>
</svg>