<svg width="100%" height="100%" viewBox="0 0 257 171" fill="none"
    xmlns="http://www.w3.org/2000/svg">
    <rect x="1" y="40" width="255" height="130" rx="16" stroke="#00DA9A" stroke-width="2"/>
    <path d="M81.176 31.372C79.8533 31.372 78.4997 31.1343 77.115 30.659C75.751 30.1837 74.5007 29.4603 73.364 28.489L76.402 24.831C77.1667 25.4097 77.983 25.885 78.851 26.257C79.7397 26.6083 80.6387 26.784 81.548 26.784C82.354 26.784 82.9223 26.6703 83.253 26.443C83.6043 26.2157 83.78 25.9367 83.78 25.606C83.78 25.2133 83.6663 24.9033 83.439 24.676C83.2117 24.4487 82.881 24.242 82.447 24.056C82.013 23.87 81.486 23.653 80.866 23.405L78.355 22.351C77.5903 22.0617 76.8773 21.669 76.216 21.173C75.5753 20.6563 75.0587 20.0363 74.666 19.313C74.294 18.569 74.108 17.7113 74.108 16.74C74.108 15.5827 74.4283 14.539 75.069 13.609C75.7097 12.6583 76.6087 11.904 77.766 11.346C78.9233 10.7673 80.2667 10.478 81.796 10.478C82.9947 10.478 84.1933 10.7053 85.392 11.16C86.6113 11.594 87.7067 12.2657 88.678 13.175L86.012 16.523C85.2887 16.0477 84.5963 15.686 83.935 15.438C83.2737 15.19 82.4573 15.066 81.486 15.066C80.9073 15.066 80.432 15.1797 80.06 15.407C79.688 15.6137 79.502 15.9547 79.502 16.43C79.502 16.74 79.626 16.9983 79.874 17.205C80.122 17.4117 80.4837 17.608 80.959 17.794C81.4343 17.98 82.0027 18.197 82.664 18.445L84.989 19.406C85.8983 19.7367 86.663 20.1603 87.283 20.677C87.9237 21.173 88.4093 21.7723 88.74 22.475C89.0707 23.1777 89.236 23.994 89.236 24.924C89.236 26.0607 88.926 27.125 88.306 28.117C87.686 29.0883 86.7767 29.8737 85.578 30.473C84.3793 31.0723 82.912 31.372 81.176 31.372ZM101.19 31.372C99.5572 31.372 98.0796 31.0517 96.7569 30.411C95.4549 29.7703 94.4216 28.8507 93.6569 27.652C92.8922 26.4327 92.5099 24.9653 92.5099 23.25C92.5099 21.5347 92.9336 20.0777 93.7809 18.879C94.6282 17.6597 95.7442 16.7297 97.1289 16.089C98.5136 15.4483 100.002 15.128 101.593 15.128C102.812 15.128 103.928 15.314 104.941 15.686C105.974 16.058 106.811 16.554 107.452 17.174L105.034 20.46C104.455 20.0673 103.908 19.7987 103.391 19.654C102.895 19.4887 102.399 19.406 101.903 19.406C101.138 19.406 100.456 19.561 99.8569 19.871C99.2576 20.181 98.7926 20.6253 98.4619 21.204C98.1312 21.7827 97.9659 22.4647 97.9659 23.25C97.9659 24.0353 98.1209 24.7173 98.4309 25.296C98.7616 25.8747 99.2059 26.319 99.7639 26.629C100.343 26.939 100.994 27.094 101.717 27.094C102.482 27.094 103.174 26.9597 103.794 26.691C104.435 26.4223 105.013 26.1227 105.53 25.792L107.638 29.14C106.687 29.9253 105.633 30.4937 104.476 30.845C103.319 31.1963 102.223 31.372 101.19 31.372ZM112.4 31V15.5H116.771L117.174 18.786H117.298C118.042 17.5047 118.941 16.5747 119.995 15.996C121.069 15.4173 122.185 15.128 123.343 15.128C124.066 15.128 124.624 15.19 125.017 15.314C125.43 15.4173 125.854 15.562 126.288 15.748L125.234 20.212C124.779 20.0673 124.355 19.964 123.963 19.902C123.57 19.8193 123.095 19.778 122.537 19.778C121.648 19.778 120.77 20.0467 119.902 20.584C119.034 21.1007 118.31 22.01 117.732 23.312V31H112.4ZM137.064 31.372C135.7 31.372 134.408 31.0517 133.189 30.411C131.969 29.7703 130.977 28.8507 130.213 27.652C129.448 26.4327 129.066 24.9653 129.066 23.25C129.066 21.5347 129.448 20.0777 130.213 18.879C130.977 17.6597 131.969 16.7297 133.189 16.089C134.408 15.4483 135.7 15.128 137.064 15.128C138.428 15.128 139.719 15.4483 140.939 16.089C142.158 16.7297 143.15 17.6597 143.915 18.879C144.679 20.0777 145.062 21.5347 145.062 23.25C145.062 24.9653 144.679 26.4327 143.915 27.652C143.15 28.8507 142.158 29.7703 140.939 30.411C139.719 31.0517 138.428 31.372 137.064 31.372ZM137.064 27.094C137.663 27.094 138.149 26.939 138.521 26.629C138.893 26.319 139.161 25.8747 139.327 25.296C139.513 24.7173 139.606 24.0353 139.606 23.25C139.606 22.4647 139.513 21.7827 139.327 21.204C139.161 20.6253 138.893 20.181 138.521 19.871C138.149 19.561 137.663 19.406 137.064 19.406C136.464 19.406 135.979 19.561 135.607 19.871C135.235 20.181 134.956 20.6253 134.77 21.204C134.604 21.7827 134.522 22.4647 134.522 23.25C134.522 24.0353 134.604 24.7173 134.77 25.296C134.956 25.8747 135.235 26.319 135.607 26.629C135.979 26.939 136.464 27.094 137.064 27.094ZM158.473 31.372C156.406 31.372 154.846 30.752 153.792 29.512C152.758 28.2513 152.242 26.6187 152.242 24.614V13.578H147.592V9.424H157.574V24.8C157.574 25.6887 157.822 26.2983 158.318 26.629C158.834 26.939 159.361 27.094 159.899 27.094C160.229 27.094 160.57 27.063 160.922 27.001C161.273 26.9183 161.676 26.8047 162.131 26.66L163.278 30.566C162.451 30.814 161.697 31.0103 161.015 31.155C160.333 31.2997 159.485 31.372 158.473 31.372ZM177.06 31.372C174.994 31.372 173.433 30.752 172.379 29.512C171.346 28.2513 170.829 26.6187 170.829 24.614V13.578H166.179V9.424H176.161V24.8C176.161 25.6887 176.409 26.2983 176.905 26.629C177.422 26.939 177.949 27.094 178.486 27.094C178.817 27.094 179.158 27.063 179.509 27.001C179.861 26.9183 180.264 26.8047 180.718 26.66L181.865 30.566C181.039 30.814 180.284 31.0103 179.602 31.155C178.92 31.2997 178.073 31.372 177.06 31.372Z" fill="#00DA9A"/>
    <rect x="236" y="54" width="8" height="102" fill="#D9D9D9"/>
    <rect x="236" y="54" width="8" height="33" fill="#7E7E7E"/>
    <path d="M240 44L235.67 51.5H244.33L240 44Z" fill="#7E7E7E"/>
    <path d="M240 166L244.33 158.5L235.67 158.5L240 166Z" fill="#7E7E7E"/>
</svg>