<svg width="100%" height="100%" viewBox="0 0 257 187" fill="none"
    xmlns="http://www.w3.org/2000/svg">
    <rect x="1" y="40" width="255" height="146" rx="16" stroke="#00DA9A" stroke-width="2"/>
    <path d="M69.634 31V15.314H63.837V10.85H80.763V15.314H74.966V31H69.634ZM88.2839 31.372C87.2092 31.372 86.2999 31.155 85.5559 30.721C84.8119 30.2663 84.2436 29.6773 83.8509 28.954C83.4582 28.2307 83.2619 27.4453 83.2619 26.598C83.2619 24.862 84.0059 23.5393 85.4939 22.63C87.0026 21.7 89.5239 21.142 93.0579 20.956C92.9959 20.584 92.8409 20.2843 92.5929 20.057C92.3449 19.809 92.0039 19.6333 91.5699 19.53C91.1566 19.406 90.6606 19.344 90.0819 19.344C89.6479 19.344 89.2036 19.3957 88.7489 19.499C88.2942 19.5817 87.8086 19.7263 87.2919 19.933C86.7959 20.119 86.2379 20.3567 85.6179 20.646L83.7579 17.174C84.5432 16.74 85.3389 16.368 86.1449 16.058C86.9509 15.748 87.7672 15.5207 88.5939 15.376C89.4206 15.2107 90.2679 15.128 91.1359 15.128C92.6032 15.128 93.8742 15.3863 94.9489 15.903C96.0442 16.399 96.8916 17.1843 97.4909 18.259C98.0902 19.313 98.3899 20.6873 98.3899 22.382V31H94.0499L93.6779 29.388H93.5539C92.7892 29.946 91.9626 30.4213 91.0739 30.814C90.1852 31.186 89.2552 31.372 88.2839 31.372ZM90.0199 27.28C90.6399 27.28 91.1979 27.1663 91.6939 26.939C92.1899 26.691 92.6446 26.412 93.0579 26.102V24.118C91.7972 24.1593 90.8259 24.273 90.1439 24.459C89.4619 24.645 88.9866 24.893 88.7179 25.203C88.4699 25.4923 88.3459 25.8127 88.3459 26.164C88.3459 26.3913 88.4079 26.598 88.5319 26.784C88.6559 26.9493 88.8419 27.0733 89.0899 27.156C89.3379 27.2387 89.6479 27.28 90.0199 27.28ZM110.871 31.372C110.168 31.372 109.476 31.2067 108.794 30.876C108.112 30.5247 107.471 30.008 106.872 29.326H106.748L106.314 31H102.16V9.424H107.492V14.446L107.306 16.678H107.43C107.967 16.182 108.566 15.7997 109.228 15.531C109.91 15.2623 110.602 15.128 111.305 15.128C112.565 15.128 113.65 15.4587 114.56 16.12C115.49 16.7607 116.203 17.67 116.699 18.848C117.215 20.0053 117.474 21.3797 117.474 22.971C117.474 24.7483 117.153 26.2673 116.513 27.528C115.893 28.7887 115.076 29.7497 114.064 30.411C113.072 31.0517 112.007 31.372 110.871 31.372ZM109.6 27.032C110.034 27.032 110.426 26.908 110.778 26.66C111.15 26.412 111.449 25.9987 111.677 25.42C111.904 24.8413 112.018 24.056 112.018 23.064C112.018 22.2167 111.925 21.5347 111.739 21.018C111.573 20.4807 111.325 20.088 110.995 19.84C110.664 19.592 110.24 19.468 109.724 19.468C109.31 19.468 108.928 19.5507 108.577 19.716C108.225 19.8813 107.864 20.1707 107.492 20.584V26.288C107.822 26.5567 108.163 26.753 108.515 26.877C108.887 26.9803 109.248 27.032 109.6 27.032ZM121.74 31V10.85H127.072V26.536H135.659V31H121.74ZM145.536 31V19.654H139.646V15.5H150.868V31H145.536ZM148.016 13.392C147.024 13.392 146.207 13.113 145.567 12.555C144.926 11.9763 144.606 11.222 144.606 10.292C144.606 9.362 144.926 8.60766 145.567 8.029C146.207 7.42967 147.024 7.13 148.016 7.13C149.008 7.13 149.824 7.42967 150.465 8.029C151.105 8.60766 151.426 9.362 151.426 10.292C151.426 11.222 151.105 11.9763 150.465 12.555C149.824 13.113 149.008 13.392 148.016 13.392ZM157.923 31V15.5H162.263L162.635 17.36H162.759C163.379 16.7607 164.113 16.244 164.96 15.81C165.808 15.3553 166.8 15.128 167.936 15.128C169.652 15.128 170.902 15.7067 171.687 16.864C172.473 18.0007 172.865 19.53 172.865 21.452V31H167.533V22.134C167.533 21.266 167.399 20.6357 167.13 20.243C166.882 19.8503 166.417 19.654 165.735 19.654C165.239 19.654 164.805 19.7573 164.433 19.964C164.061 20.1707 163.669 20.46 163.255 20.832V31H157.923ZM176.511 31V9.424H181.843V21.018H181.967L186.679 15.5H192.445L181.843 27.218V31H176.511ZM187.051 31L183.145 24.428L186.183 21.142L192.817 31H187.051Z" fill="#00DA9A"/>
    <rect x="12" y="75" width="233" height="101" fill="#D9D9D9"/>
    <rect x="12" y="51" width="49" height="15" fill="#666666"/>
    <rect x="74" y="51" width="49" height="15" fill="#666666"/>
    <rect x="135" y="51" width="49" height="15" fill="#666666"/>
    <rect x="196" y="51" width="49" height="15" fill="#666666"/>
    <path d="M27.3 165.372C26.1013 165.372 25.13 164.979 24.386 164.194C23.642 163.409 23.27 162.458 23.27 161.342C23.27 160.247 23.642 159.306 24.386 158.521C25.13 157.715 26.1013 157.312 27.3 157.312C28.5193 157.312 29.4907 157.715 30.214 158.521C30.958 159.306 31.33 160.247 31.33 161.342C31.33 162.458 30.958 163.409 30.214 164.194C29.4907 164.979 28.5193 165.372 27.3 165.372ZM45.8879 165.372C44.6892 165.372 43.7179 164.979 42.9739 164.194C42.2299 163.409 41.8579 162.458 41.8579 161.342C41.8579 160.247 42.2299 159.306 42.9739 158.521C43.7179 157.715 44.6892 157.312 45.8879 157.312C47.1072 157.312 48.0786 157.715 48.8019 158.521C49.5459 159.306 49.9179 160.247 49.9179 161.342C49.9179 162.458 49.5459 163.409 48.8019 164.194C48.0786 164.979 47.1072 165.372 45.8879 165.372ZM64.4758 165.372C63.2771 165.372 62.3058 164.979 61.5618 164.194C60.8178 163.409 60.4458 162.458 60.4458 161.342C60.4458 160.247 60.8178 159.306 61.5618 158.521C62.3058 157.715 63.2771 157.312 64.4758 157.312C65.6951 157.312 66.6664 157.715 67.3898 158.521C68.1338 159.306 68.5058 160.247 68.5058 161.342C68.5058 162.458 68.1338 163.409 67.3898 164.194C66.6664 164.979 65.6951 165.372 64.4758 165.372Z" fill="#7D7D7D"/>
</svg>