<svg width="100%" height="100%" viewBox="0 0 257 187" fill="none"
    xmlns="http://www.w3.org/2000/svg">
    <rect x="1" y="40" width="255" height="146" rx="16" stroke="#00DA9A" stroke-width="2"/>
    <path d="M106.634 31V15.314H100.837V10.85H117.763V15.314H111.966V31H106.634ZM125.284 31.372C124.209 31.372 123.3 31.155 122.556 30.721C121.812 30.2663 121.244 29.6773 120.851 28.954C120.458 28.2307 120.262 27.4453 120.262 26.598C120.262 24.862 121.006 23.5393 122.494 22.63C124.003 21.7 126.524 21.142 130.058 20.956C129.996 20.584 129.841 20.2843 129.593 20.057C129.345 19.809 129.004 19.6333 128.57 19.53C128.157 19.406 127.661 19.344 127.082 19.344C126.648 19.344 126.204 19.3957 125.749 19.499C125.294 19.5817 124.809 19.7263 124.292 19.933C123.796 20.119 123.238 20.3567 122.618 20.646L120.758 17.174C121.543 16.74 122.339 16.368 123.145 16.058C123.951 15.748 124.767 15.5207 125.594 15.376C126.421 15.2107 127.268 15.128 128.136 15.128C129.603 15.128 130.874 15.3863 131.949 15.903C133.044 16.399 133.892 17.1843 134.491 18.259C135.09 19.313 135.39 20.6873 135.39 22.382V31H131.05L130.678 29.388H130.554C129.789 29.946 128.963 30.4213 128.074 30.814C127.185 31.186 126.255 31.372 125.284 31.372ZM127.02 27.28C127.64 27.28 128.198 27.1663 128.694 26.939C129.19 26.691 129.645 26.412 130.058 26.102V24.118C128.797 24.1593 127.826 24.273 127.144 24.459C126.462 24.645 125.987 24.893 125.718 25.203C125.47 25.4923 125.346 25.8127 125.346 26.164C125.346 26.3913 125.408 26.598 125.532 26.784C125.656 26.9493 125.842 27.0733 126.09 27.156C126.338 27.2387 126.648 27.28 127.02 27.28ZM147.871 31.372C147.168 31.372 146.476 31.2067 145.794 30.876C145.112 30.5247 144.471 30.008 143.872 29.326H143.748L143.314 31H139.16V9.424H144.492V14.446L144.306 16.678H144.43C144.967 16.182 145.566 15.7997 146.228 15.531C146.91 15.2623 147.602 15.128 148.305 15.128C149.565 15.128 150.65 15.4587 151.56 16.12C152.49 16.7607 153.203 17.67 153.699 18.848C154.215 20.0053 154.474 21.3797 154.474 22.971C154.474 24.7483 154.153 26.2673 153.513 27.528C152.893 28.7887 152.076 29.7497 151.064 30.411C150.072 31.0517 149.007 31.372 147.871 31.372ZM146.6 27.032C147.034 27.032 147.426 26.908 147.778 26.66C148.15 26.412 148.449 25.9987 148.677 25.42C148.904 24.8413 149.018 24.056 149.018 23.064C149.018 22.2167 148.925 21.5347 148.739 21.018C148.573 20.4807 148.325 20.088 147.995 19.84C147.664 19.592 147.24 19.468 146.724 19.468C146.31 19.468 145.928 19.5507 145.577 19.716C145.225 19.8813 144.864 20.1707 144.492 20.584V26.288C144.822 26.5567 145.163 26.753 145.515 26.877C145.887 26.9803 146.248 27.032 146.6 27.032Z" fill="#00DA9A"/>
    <rect x="12" y="75" width="233" height="101" fill="#666666"/>
    <rect x="12" y="51" width="49" height="15" fill="#D9D9D9"/>
    <rect x="74" y="51" width="49" height="15" fill="#D9D9D9"/>
    <rect x="135" y="51" width="49" height="15" fill="#D9D9D9"/>
    <rect x="196" y="51" width="49" height="15" fill="#D9D9D9"/>
    <path d="M27.3 165.372C26.1013 165.372 25.13 164.979 24.386 164.194C23.642 163.409 23.27 162.458 23.27 161.342C23.27 160.247 23.642 159.306 24.386 158.521C25.13 157.715 26.1013 157.312 27.3 157.312C28.5193 157.312 29.4907 157.715 30.214 158.521C30.958 159.306 31.33 160.247 31.33 161.342C31.33 162.458 30.958 163.409 30.214 164.194C29.4907 164.979 28.5193 165.372 27.3 165.372ZM45.8879 165.372C44.6892 165.372 43.7179 164.979 42.9739 164.194C42.2299 163.409 41.8579 162.458 41.8579 161.342C41.8579 160.247 42.2299 159.306 42.9739 158.521C43.7179 157.715 44.6892 157.312 45.8879 157.312C47.1072 157.312 48.0786 157.715 48.8019 158.521C49.5459 159.306 49.9179 160.247 49.9179 161.342C49.9179 162.458 49.5459 163.409 48.8019 164.194C48.0786 164.979 47.1072 165.372 45.8879 165.372ZM64.4758 165.372C63.2771 165.372 62.3058 164.979 61.5618 164.194C60.8178 163.409 60.4458 162.458 60.4458 161.342C60.4458 160.247 60.8178 159.306 61.5618 158.521C62.3058 157.715 63.2771 157.312 64.4758 157.312C65.6951 157.312 66.6664 157.715 67.3898 158.521C68.1338 159.306 68.5058 160.247 68.5058 161.342C68.5058 162.458 68.1338 163.409 67.3898 164.194C66.6664 164.979 65.6951 165.372 64.4758 165.372Z" fill="#B1B1B1"/>
</svg>