<svg width="100%" height="100%" viewBox="0 0 257 187" fill="none"
    xmlns="http://www.w3.org/2000/svg">
    <rect x="1" y="40" width="255" height="146" rx="16" stroke="#00DA9A" stroke-width="2"/>
    <path d="M96.634 31V15.314H90.837V10.85H107.763V15.314H101.966V31H96.634ZM115.284 31.372C114.209 31.372 113.3 31.155 112.556 30.721C111.812 30.2663 111.244 29.6773 110.851 28.954C110.458 28.2307 110.262 27.4453 110.262 26.598C110.262 24.862 111.006 23.5393 112.494 22.63C114.003 21.7 116.524 21.142 120.058 20.956C119.996 20.584 119.841 20.2843 119.593 20.057C119.345 19.809 119.004 19.6333 118.57 19.53C118.157 19.406 117.661 19.344 117.082 19.344C116.648 19.344 116.204 19.3957 115.749 19.499C115.294 19.5817 114.809 19.7263 114.292 19.933C113.796 20.119 113.238 20.3567 112.618 20.646L110.758 17.174C111.543 16.74 112.339 16.368 113.145 16.058C113.951 15.748 114.767 15.5207 115.594 15.376C116.421 15.2107 117.268 15.128 118.136 15.128C119.603 15.128 120.874 15.3863 121.949 15.903C123.044 16.399 123.892 17.1843 124.491 18.259C125.09 19.313 125.39 20.6873 125.39 22.382V31H121.05L120.678 29.388H120.554C119.789 29.946 118.963 30.4213 118.074 30.814C117.185 31.186 116.255 31.372 115.284 31.372ZM117.02 27.28C117.64 27.28 118.198 27.1663 118.694 26.939C119.19 26.691 119.645 26.412 120.058 26.102V24.118C118.797 24.1593 117.826 24.273 117.144 24.459C116.462 24.645 115.987 24.893 115.718 25.203C115.47 25.4923 115.346 25.8127 115.346 26.164C115.346 26.3913 115.408 26.598 115.532 26.784C115.656 26.9493 115.842 27.0733 116.09 27.156C116.338 27.2387 116.648 27.28 117.02 27.28ZM137.871 31.372C137.168 31.372 136.476 31.2067 135.794 30.876C135.112 30.5247 134.471 30.008 133.872 29.326H133.748L133.314 31H129.16V9.424H134.492V14.446L134.306 16.678H134.43C134.967 16.182 135.566 15.7997 136.228 15.531C136.91 15.2623 137.602 15.128 138.305 15.128C139.565 15.128 140.65 15.4587 141.56 16.12C142.49 16.7607 143.203 17.67 143.699 18.848C144.215 20.0053 144.474 21.3797 144.474 22.971C144.474 24.7483 144.153 26.2673 143.513 27.528C142.893 28.7887 142.076 29.7497 141.064 30.411C140.072 31.0517 139.007 31.372 137.871 31.372ZM136.6 27.032C137.034 27.032 137.426 26.908 137.778 26.66C138.15 26.412 138.449 25.9987 138.677 25.42C138.904 24.8413 139.018 24.056 139.018 23.064C139.018 22.2167 138.925 21.5347 138.739 21.018C138.573 20.4807 138.325 20.088 137.995 19.84C137.664 19.592 137.24 19.468 136.724 19.468C136.31 19.468 135.928 19.5507 135.577 19.716C135.225 19.8813 134.864 20.1707 134.492 20.584V26.288C134.822 26.5567 135.163 26.753 135.515 26.877C135.887 26.9803 136.248 27.032 136.6 27.032ZM154.754 31.372C153.431 31.372 152.088 31.1447 150.724 30.69C149.36 30.2147 148.182 29.6567 147.19 29.016L149.422 25.73C150.393 26.3087 151.395 26.7427 152.429 27.032C153.483 27.3213 154.506 27.466 155.498 27.466C156.18 27.466 156.665 27.3833 156.955 27.218C157.265 27.032 157.42 26.8047 157.42 26.536C157.42 26.35 157.358 26.195 157.234 26.071C157.13 25.947 156.944 25.8437 156.676 25.761C156.428 25.6577 156.087 25.5647 155.653 25.482C155.219 25.3787 154.671 25.2547 154.01 25.11C151.881 24.6347 150.372 23.994 149.484 23.188C148.616 22.3613 148.182 21.3487 148.182 20.15C148.182 18.6207 148.843 17.4013 150.166 16.492C151.509 15.5827 153.307 15.128 155.56 15.128C157.027 15.128 158.329 15.3657 159.466 15.841C160.623 16.2957 161.615 16.7813 162.442 17.298L160.086 20.46C159.28 19.9847 158.443 19.6333 157.575 19.406C156.707 19.158 155.87 19.034 155.064 19.034C154.733 19.034 154.444 19.065 154.196 19.127C153.968 19.189 153.782 19.2923 153.638 19.437C153.514 19.561 153.452 19.716 153.452 19.902C153.452 20.2327 153.689 20.46 154.165 20.584C154.64 20.708 155.477 20.9147 156.676 21.204C158.226 21.5553 159.435 21.9583 160.303 22.413C161.191 22.8677 161.811 23.405 162.163 24.025C162.514 24.6243 162.69 25.358 162.69 26.226C162.69 27.1973 162.39 28.0757 161.791 28.861C161.191 29.6257 160.303 30.2353 159.125 30.69C157.947 31.1447 156.49 31.372 154.754 31.372Z" fill="#00DA9A"/>
    <rect x="12" y="75" width="233" height="101" fill="#D9D9D9"/>
    <rect x="12" y="51" width="49" height="15" fill="#D9D9D9"/>
    <rect x="74" y="51" width="49" height="15" fill="#D9D9D9"/>
    <rect x="135" y="51" width="49" height="15" fill="#D9D9D9"/>
    <rect x="196" y="51" width="49" height="15" fill="#D9D9D9"/>
    <path d="M27.3 165.372C26.1013 165.372 25.13 164.979 24.386 164.194C23.642 163.409 23.27 162.458 23.27 161.342C23.27 160.247 23.642 159.306 24.386 158.521C25.13 157.715 26.1013 157.312 27.3 157.312C28.5193 157.312 29.4907 157.715 30.214 158.521C30.958 159.306 31.33 160.247 31.33 161.342C31.33 162.458 30.958 163.409 30.214 164.194C29.4907 164.979 28.5193 165.372 27.3 165.372ZM45.8879 165.372C44.6892 165.372 43.7179 164.979 42.9739 164.194C42.2299 163.409 41.8579 162.458 41.8579 161.342C41.8579 160.247 42.2299 159.306 42.9739 158.521C43.7179 157.715 44.6892 157.312 45.8879 157.312C47.1072 157.312 48.0786 157.715 48.8019 158.521C49.5459 159.306 49.9179 160.247 49.9179 161.342C49.9179 162.458 49.5459 163.409 48.8019 164.194C48.0786 164.979 47.1072 165.372 45.8879 165.372ZM64.4758 165.372C63.2771 165.372 62.3058 164.979 61.5618 164.194C60.8178 163.409 60.4458 162.458 60.4458 161.342C60.4458 160.247 60.8178 159.306 61.5618 158.521C62.3058 157.715 63.2771 157.312 64.4758 157.312C65.6951 157.312 66.6664 157.715 67.3898 158.521C68.1338 159.306 68.5058 160.247 68.5058 161.342C68.5058 162.458 68.1338 163.409 67.3898 164.194C66.6664 164.979 65.6951 165.372 64.4758 165.372Z" fill="#7D7D7D"/>
</svg>