<svg width="100%" height="100%" viewBox="0 0 257 222" fill="none"
    xmlns="http://www.w3.org/2000/svg">
    <rect x="1" y="40" width="255" height="181" rx="16" stroke="#00DA9A" stroke-width="2"/>
    <rect x="9" y="48.7967" width="238.31" height="47.0334" rx="15" fill="#CCCCCC" fill-opacity="0.5" stroke="#009F71" stroke-width="4"/>
    <path d="M106.634 84.6195V68.9335H100.837V64.4695H117.763V68.9335H111.966V84.6195H106.634ZM127.888 84.9915C126.524 84.9915 125.232 84.6712 124.013 84.0305C122.794 83.3898 121.802 82.4702 121.037 81.2715C120.272 80.0522 119.89 78.5848 119.89 76.8695C119.89 75.1542 120.272 73.6972 121.037 72.4985C121.802 71.2792 122.794 70.3492 124.013 69.7085C125.232 69.0678 126.524 68.7475 127.888 68.7475C129.252 68.7475 130.544 69.0678 131.763 69.7085C132.982 70.3492 133.974 71.2792 134.739 72.4985C135.504 73.6972 135.886 75.1542 135.886 76.8695C135.886 78.5848 135.504 80.0522 134.739 81.2715C133.974 82.4702 132.982 83.3898 131.763 84.0305C130.544 84.6712 129.252 84.9915 127.888 84.9915ZM127.888 80.7135C128.487 80.7135 128.973 80.5585 129.345 80.2485C129.717 79.9385 129.986 79.4942 130.151 78.9155C130.337 78.3368 130.43 77.6548 130.43 76.8695C130.43 76.0842 130.337 75.4022 130.151 74.8235C129.986 74.2448 129.717 73.8005 129.345 73.4905C128.973 73.1805 128.487 73.0255 127.888 73.0255C127.289 73.0255 126.803 73.1805 126.431 73.4905C126.059 73.8005 125.78 74.2448 125.594 74.8235C125.429 75.4022 125.346 76.0842 125.346 76.8695C125.346 77.6548 125.429 78.3368 125.594 78.9155C125.78 79.4942 126.059 79.9385 126.431 80.2485C126.803 80.5585 127.289 80.7135 127.888 80.7135ZM139.16 90.0755V69.1195H143.5L143.872 70.5455H143.996C144.595 70.0082 145.267 69.5742 146.011 69.2435C146.775 68.9128 147.55 68.7475 148.336 68.7475C149.596 68.7475 150.681 69.0782 151.591 69.7395C152.5 70.3802 153.203 71.2895 153.699 72.4675C154.215 73.6455 154.474 75.0302 154.474 76.6215C154.474 78.3988 154.153 79.9178 153.513 81.1785C152.893 82.4185 152.076 83.3692 151.064 84.0305C150.072 84.6712 149.007 84.9915 147.871 84.9915C147.209 84.9915 146.579 84.8572 145.98 84.5885C145.401 84.3198 144.864 83.9375 144.368 83.4415H144.244L144.492 85.7975V90.0755H139.16ZM146.6 80.6515C147.034 80.6515 147.426 80.5275 147.778 80.2795C148.15 80.0315 148.449 79.6182 148.677 79.0395C148.904 78.4608 149.018 77.6755 149.018 76.6835C149.018 75.8362 148.925 75.1542 148.739 74.6375C148.573 74.1002 148.325 73.7075 147.995 73.4595C147.664 73.2115 147.24 73.0875 146.724 73.0875C146.31 73.0875 145.928 73.1702 145.577 73.3355C145.225 73.5008 144.864 73.7902 144.492 74.2035V79.9075C144.822 80.1762 145.163 80.3725 145.515 80.4965C145.887 80.5998 146.248 80.6515 146.6 80.6515Z" fill="#009F71"/>
    <rect x="8" y="105.31" width="240.31" height="49.0334" rx="16" stroke="#00CF92" stroke-width="2"/>
    <path d="M83.968 139.336C82.8293 139.336 81.7467 139.14 80.72 138.748C79.712 138.356 78.816 137.768 78.032 136.984C77.248 136.181 76.632 135.201 76.184 134.044C75.736 132.868 75.512 131.515 75.512 129.984C75.512 127.968 75.8947 126.251 76.66 124.832C77.444 123.395 78.4893 122.303 79.796 121.556C81.1213 120.791 82.596 120.408 84.22 120.408C85.3773 120.408 86.4227 120.651 87.356 121.136C88.2893 121.603 89.064 122.135 89.68 122.732L87.412 125.28C86.9827 124.869 86.5067 124.552 85.984 124.328C85.48 124.085 84.892 123.964 84.22 123.964C83.3613 123.964 82.596 124.207 81.924 124.692C81.252 125.159 80.72 125.831 80.328 126.708C79.936 127.585 79.74 128.631 79.74 129.844C79.74 131.095 79.936 132.168 80.328 133.064C80.72 133.941 81.2613 134.613 81.952 135.08C82.6613 135.547 83.4733 135.78 84.388 135.78C85.06 135.78 85.6667 135.631 86.208 135.332C86.7493 135.033 87.244 134.641 87.692 134.156L89.96 136.648C89.2133 137.525 88.336 138.197 87.328 138.664C86.32 139.112 85.2 139.336 83.968 139.336ZM99.1891 139.336C97.9757 139.336 96.8277 139.056 95.7451 138.496C94.6624 137.917 93.7851 137.087 93.1131 136.004C92.4411 134.903 92.1051 133.587 92.1051 132.056C92.1051 130.525 92.4411 129.219 93.1131 128.136C93.7851 127.035 94.6624 126.204 95.7451 125.644C96.8277 125.065 97.9757 124.776 99.1891 124.776C100.402 124.776 101.55 125.065 102.633 125.644C103.716 126.204 104.593 127.035 105.265 128.136C105.937 129.219 106.273 130.525 106.273 132.056C106.273 133.587 105.937 134.903 105.265 136.004C104.593 137.087 103.716 137.917 102.633 138.496C101.55 139.056 100.402 139.336 99.1891 139.336ZM99.1891 136.004C99.8237 136.004 100.346 135.845 100.757 135.528C101.186 135.211 101.504 134.753 101.709 134.156C101.933 133.559 102.045 132.859 102.045 132.056C102.045 131.253 101.933 130.553 101.709 129.956C101.504 129.359 101.186 128.901 100.757 128.584C100.346 128.267 99.8237 128.108 99.1891 128.108C98.5544 128.108 98.0224 128.267 97.5931 128.584C97.1824 128.901 96.8651 129.359 96.6411 129.956C96.4357 130.553 96.3331 131.253 96.3331 132.056C96.3331 132.859 96.4357 133.559 96.6411 134.156C96.8651 134.753 97.1824 135.211 97.5931 135.528C98.0224 135.845 98.5544 136.004 99.1891 136.004ZM109.594 139V125.112H112.954L113.262 126.96H113.374C113.971 126.363 114.653 125.849 115.418 125.42C116.202 124.991 117.117 124.776 118.162 124.776C119.73 124.776 120.878 125.28 121.606 126.288C122.334 127.296 122.698 128.677 122.698 130.432V139H118.582V130.964C118.582 130.031 118.423 129.349 118.106 128.92C117.807 128.491 117.285 128.276 116.538 128.276C115.978 128.276 115.483 128.407 115.054 128.668C114.643 128.911 114.195 129.265 113.71 129.732V139H109.594ZM135.231 139.336C133.757 139.336 132.581 139.084 131.703 138.58C130.845 138.057 130.219 137.339 129.827 136.424C129.435 135.509 129.239 134.445 129.239 133.232V128.332H125.767V125.28L129.435 125.112L129.967 120.856H133.355V125.112H139.235V128.332H133.355V133.204C133.355 133.895 133.458 134.455 133.663 134.884C133.869 135.313 134.186 135.631 134.615 135.836C135.045 136.023 135.595 136.116 136.267 136.116C136.809 136.116 137.303 136.069 137.751 135.976C138.199 135.883 138.629 135.761 139.039 135.612L139.767 138.58C139.151 138.767 138.47 138.935 137.723 139.084C136.995 139.252 136.165 139.336 135.231 139.336ZM150.396 139.336C148.959 139.336 147.652 139.056 146.476 138.496C145.319 137.917 144.395 137.087 143.704 136.004C143.032 134.903 142.696 133.587 142.696 132.056C142.696 130.544 143.042 129.247 143.732 128.164C144.423 127.063 145.319 126.223 146.42 125.644C147.522 125.065 148.688 124.776 149.92 124.776C151.358 124.776 152.562 125.075 153.532 125.672C154.503 126.251 155.231 127.044 155.716 128.052C156.22 129.041 156.472 130.171 156.472 131.44C156.472 131.813 156.444 132.177 156.388 132.532C156.351 132.868 156.314 133.12 156.276 133.288H145.748V130.516H153.504L152.86 131.3C152.86 130.18 152.618 129.34 152.132 128.78C151.666 128.201 150.975 127.912 150.06 127.912C149.388 127.912 148.8 128.061 148.296 128.36C147.792 128.659 147.4 129.116 147.12 129.732C146.84 130.348 146.7 131.123 146.7 132.056C146.7 133.008 146.868 133.792 147.204 134.408C147.54 135.005 148.026 135.453 148.66 135.752C149.295 136.051 150.06 136.2 150.956 136.2C151.591 136.2 152.188 136.116 152.748 135.948C153.327 135.78 153.924 135.537 154.54 135.22L155.912 137.712C155.11 138.216 154.223 138.617 153.252 138.916C152.282 139.196 151.33 139.336 150.396 139.336ZM159.961 139V125.112H163.321L163.629 126.96H163.741C164.339 126.363 165.02 125.849 165.785 125.42C166.569 124.991 167.484 124.776 168.529 124.776C170.097 124.776 171.245 125.28 171.973 126.288C172.701 127.296 173.065 128.677 173.065 130.432V139H168.949V130.964C168.949 130.031 168.791 129.349 168.473 128.92C168.175 128.491 167.652 128.276 166.905 128.276C166.345 128.276 165.851 128.407 165.421 128.668C165.011 128.911 164.563 129.265 164.077 129.732V139H159.961ZM185.598 139.336C184.124 139.336 182.948 139.084 182.07 138.58C181.212 138.057 180.586 137.339 180.194 136.424C179.802 135.509 179.606 134.445 179.606 133.232V128.332H176.134V125.28L179.802 125.112L180.334 120.856H183.722V125.112H189.602V128.332H183.722V133.204C183.722 133.895 183.825 134.455 184.03 134.884C184.236 135.313 184.553 135.631 184.982 135.836C185.412 136.023 185.962 136.116 186.634 136.116C187.176 136.116 187.67 136.069 188.118 135.976C188.566 135.883 188.996 135.761 189.406 135.612L190.134 138.58C189.518 138.767 188.837 138.935 188.09 139.084C187.362 139.252 186.532 139.336 185.598 139.336Z" fill="#00CF92"/>
    <rect x="8" y="162.819" width="240.31" height="49.0334" rx="16" stroke="#00CF92" stroke-width="2"/>
    <path d="M82.072 197V178.744H88.204C89.4733 178.744 90.612 178.884 91.62 179.164C92.628 179.425 93.4213 179.883 94 180.536C94.5973 181.189 94.896 182.104 94.896 183.28C94.896 184.101 94.644 184.895 94.14 185.66C93.636 186.425 92.8427 186.948 91.76 187.228V187.34C93.0667 187.564 94.056 188.031 94.728 188.74C95.4 189.431 95.736 190.392 95.736 191.624C95.736 192.856 95.428 193.873 94.812 194.676C94.196 195.46 93.356 196.048 92.292 196.44C91.2467 196.813 90.0613 197 88.736 197H82.072ZM86.188 186.08H88.008C89.016 186.08 89.744 185.884 90.192 185.492C90.64 185.081 90.864 184.531 90.864 183.84C90.864 183.168 90.6307 182.692 90.164 182.412C89.716 182.113 89.0067 181.964 88.036 181.964H86.188V186.08ZM86.188 193.78H88.4C89.52 193.78 90.3507 193.575 90.892 193.164C91.4333 192.753 91.704 192.137 91.704 191.316C91.704 190.513 91.4333 189.935 90.892 189.58C90.3507 189.225 89.52 189.048 88.4 189.048H86.188V193.78ZM105.189 197.336C103.976 197.336 102.828 197.056 101.745 196.496C100.662 195.917 99.7851 195.087 99.1131 194.004C98.4411 192.903 98.1051 191.587 98.1051 190.056C98.1051 188.525 98.4411 187.219 99.1131 186.136C99.7851 185.035 100.662 184.204 101.745 183.644C102.828 183.065 103.976 182.776 105.189 182.776C106.402 182.776 107.55 183.065 108.633 183.644C109.716 184.204 110.593 185.035 111.265 186.136C111.937 187.219 112.273 188.525 112.273 190.056C112.273 191.587 111.937 192.903 111.265 194.004C110.593 195.087 109.716 195.917 108.633 196.496C107.55 197.056 106.402 197.336 105.189 197.336ZM105.189 194.004C105.824 194.004 106.346 193.845 106.757 193.528C107.186 193.211 107.504 192.753 107.709 192.156C107.933 191.559 108.045 190.859 108.045 190.056C108.045 189.253 107.933 188.553 107.709 187.956C107.504 187.359 107.186 186.901 106.757 186.584C106.346 186.267 105.824 186.108 105.189 186.108C104.554 186.108 104.022 186.267 103.593 186.584C103.182 186.901 102.865 187.359 102.641 187.956C102.436 188.553 102.333 189.253 102.333 190.056C102.333 190.859 102.436 191.559 102.641 192.156C102.865 192.753 103.182 193.211 103.593 193.528C104.022 193.845 104.554 194.004 105.189 194.004ZM124.442 197.336C122.967 197.336 121.791 197.084 120.914 196.58C120.055 196.057 119.43 195.339 119.038 194.424C118.646 193.509 118.45 192.445 118.45 191.232V186.332H114.978V183.28L118.646 183.112L119.178 178.856H122.566V183.112H128.446V186.332H122.566V191.204C122.566 191.895 122.669 192.455 122.874 192.884C123.079 193.313 123.397 193.631 123.826 193.836C124.255 194.023 124.806 194.116 125.478 194.116C126.019 194.116 126.514 194.069 126.962 193.976C127.41 193.883 127.839 193.761 128.25 193.612L128.978 196.58C128.362 196.767 127.681 196.935 126.934 197.084C126.206 197.252 125.375 197.336 124.442 197.336ZM141.231 197.336C139.757 197.336 138.581 197.084 137.703 196.58C136.845 196.057 136.219 195.339 135.827 194.424C135.435 193.509 135.239 192.445 135.239 191.232V186.332H131.767V183.28L135.435 183.112L135.967 178.856H139.355V183.112H145.235V186.332H139.355V191.204C139.355 191.895 139.458 192.455 139.663 192.884C139.869 193.313 140.186 193.631 140.615 193.836C141.045 194.023 141.595 194.116 142.267 194.116C142.809 194.116 143.303 194.069 143.751 193.976C144.199 193.883 144.629 193.761 145.039 193.612L145.767 196.58C145.151 196.767 144.47 196.935 143.723 197.084C142.995 197.252 142.165 197.336 141.231 197.336ZM155.556 197.336C154.343 197.336 153.195 197.056 152.112 196.496C151.03 195.917 150.152 195.087 149.48 194.004C148.808 192.903 148.472 191.587 148.472 190.056C148.472 188.525 148.808 187.219 149.48 186.136C150.152 185.035 151.03 184.204 152.112 183.644C153.195 183.065 154.343 182.776 155.556 182.776C156.77 182.776 157.918 183.065 159 183.644C160.083 184.204 160.96 185.035 161.632 186.136C162.304 187.219 162.64 188.525 162.64 190.056C162.64 191.587 162.304 192.903 161.632 194.004C160.96 195.087 160.083 195.917 159 196.496C157.918 197.056 156.77 197.336 155.556 197.336ZM155.556 194.004C156.191 194.004 156.714 193.845 157.124 193.528C157.554 193.211 157.871 192.753 158.076 192.156C158.3 191.559 158.412 190.859 158.412 190.056C158.412 189.253 158.3 188.553 158.076 187.956C157.871 187.359 157.554 186.901 157.124 186.584C156.714 186.267 156.191 186.108 155.556 186.108C154.922 186.108 154.39 186.267 153.96 186.584C153.55 186.901 153.232 187.359 153.008 187.956C152.803 188.553 152.7 189.253 152.7 190.056C152.7 190.859 152.803 191.559 153.008 192.156C153.232 192.753 153.55 193.211 153.96 193.528C154.39 193.845 154.922 194.004 155.556 194.004ZM164.925 197V183.112H168.033L168.313 184.82H168.425C168.687 184.26 169.051 183.784 169.517 183.392C169.984 182.981 170.619 182.776 171.421 182.776C172.019 182.776 172.532 182.972 172.961 183.364C173.391 183.737 173.68 184.297 173.829 185.044C174.091 184.409 174.464 183.877 174.949 183.448C175.453 183 176.107 182.776 176.909 182.776C177.899 182.776 178.664 183.177 179.205 183.98C179.747 184.783 180.017 185.875 180.017 187.256V197H176.097V187.536C176.097 186.696 175.845 186.276 175.341 186.276C175.08 186.276 174.847 186.388 174.641 186.612C174.455 186.817 174.268 187.153 174.081 187.62V197H170.861V187.536C170.861 187.107 170.796 186.789 170.665 186.584C170.535 186.379 170.339 186.276 170.077 186.276C169.816 186.276 169.592 186.388 169.405 186.612C169.219 186.817 169.032 187.153 168.845 187.62V197H164.925Z" fill="#00CF92"/>
    <path d="M75.317 31V10.788H79.874V27.156H88.864V31H75.317ZM97.5319 31.372C96.4986 31.372 95.5996 31.1653 94.8349 30.752C94.0909 30.3387 93.5122 29.7807 93.0989 29.078C92.6856 28.3753 92.4789 27.59 92.4789 26.722C92.4789 25.0067 93.2539 23.6943 94.8039 22.785C96.3746 21.8757 98.9786 21.3177 102.616 21.111C102.554 20.6357 102.399 20.2327 102.151 19.902C101.903 19.5713 101.541 19.3233 101.066 19.158C100.611 18.972 100.033 18.879 99.3299 18.879C98.8339 18.879 98.3379 18.941 97.8419 19.065C97.3459 19.1683 96.8292 19.3337 96.2919 19.561C95.7752 19.7677 95.2276 20.0157 94.6489 20.305L93.0369 17.329C93.7396 16.9157 94.4732 16.554 95.2379 16.244C96.0232 15.934 96.8292 15.6963 97.6559 15.531C98.5032 15.345 99.3609 15.252 100.229 15.252C101.676 15.252 102.916 15.5103 103.949 16.027C104.982 16.523 105.778 17.2877 106.336 18.321C106.894 19.3337 107.173 20.6253 107.173 22.196V31H103.453L103.112 29.264H102.988C102.223 29.8427 101.376 30.3387 100.446 30.752C99.5159 31.1653 98.5446 31.372 97.5319 31.372ZM98.9889 27.838C99.6709 27.838 100.312 27.7037 100.911 27.435C101.51 27.1457 102.079 26.7943 102.616 26.381V23.839C101.107 23.9217 99.9292 24.0767 99.0819 24.304C98.2552 24.5313 97.6766 24.8207 97.3459 25.172C97.0152 25.5233 96.8499 25.9263 96.8499 26.381C96.8499 26.691 96.9326 26.9597 97.0979 27.187C97.2839 27.4143 97.5319 27.5797 97.8419 27.683C98.1726 27.7863 98.5549 27.838 98.9889 27.838ZM113.609 37.014C113.154 37.014 112.73 36.983 112.338 36.921C111.945 36.859 111.583 36.7867 111.253 36.704L112.059 33.232C112.265 33.294 112.472 33.3353 112.679 33.356C112.885 33.3973 113.082 33.418 113.268 33.418C114.156 33.418 114.849 33.2217 115.345 32.829C115.861 32.457 116.244 31.9817 116.492 31.403L116.802 30.597L110.137 15.624H114.663L117.236 22.227C117.525 22.9503 117.794 23.7047 118.042 24.49C118.29 25.2547 118.538 26.04 118.786 26.846H118.91C119.116 26.0813 119.344 25.3063 119.592 24.521C119.84 23.7357 120.077 22.971 120.305 22.227L122.568 15.624H126.877L120.801 31.155C120.325 32.4363 119.767 33.511 119.127 34.379C118.507 35.247 117.752 35.898 116.864 36.332C115.996 36.7867 114.911 37.014 113.609 37.014ZM137.064 31.372C135.72 31.372 134.449 31.062 133.251 30.442C132.052 29.8013 131.081 28.8817 130.337 27.683C129.593 26.4637 129.221 25.0067 129.221 23.312C129.221 21.6173 129.593 20.1707 130.337 18.972C131.081 17.7527 132.052 16.833 133.251 16.213C134.449 15.5723 135.72 15.252 137.064 15.252C138.407 15.252 139.678 15.5723 140.877 16.213C142.075 16.833 143.047 17.7527 143.791 18.972C144.535 20.1707 144.907 21.6173 144.907 23.312C144.907 25.0067 144.535 26.4637 143.791 27.683C143.047 28.8817 142.075 29.8013 140.877 30.442C139.678 31.062 138.407 31.372 137.064 31.372ZM137.064 27.683C137.766 27.683 138.345 27.5073 138.8 27.156C139.275 26.8047 139.626 26.2983 139.854 25.637C140.102 24.9757 140.226 24.2007 140.226 23.312C140.226 22.4233 140.102 21.6483 139.854 20.987C139.626 20.3257 139.275 19.8193 138.8 19.468C138.345 19.1167 137.766 18.941 137.064 18.941C136.361 18.941 135.772 19.1167 135.297 19.468C134.842 19.8193 134.491 20.3257 134.243 20.987C134.015 21.6483 133.902 22.4233 133.902 23.312C133.902 24.2007 134.015 24.9757 134.243 25.637C134.491 26.2983 134.842 26.8047 135.297 27.156C135.772 27.5073 136.361 27.683 137.064 27.683ZM153.265 31.372C151.508 31.372 150.237 30.814 149.452 29.698C148.666 28.582 148.274 27.0527 148.274 25.11V15.624H152.831V24.521C152.831 25.5543 152.986 26.3087 153.296 26.784C153.626 27.2593 154.215 27.497 155.063 27.497C155.641 27.497 156.158 27.373 156.613 27.125C157.067 26.877 157.553 26.412 158.07 25.73V15.624H162.627V31H158.907L158.566 28.799H158.442C157.76 29.5637 157.005 30.1837 156.179 30.659C155.352 31.1343 154.381 31.372 153.265 31.372ZM176.967 31.372C175.335 31.372 174.033 31.093 173.061 30.535C172.111 29.9563 171.418 29.1607 170.984 28.148C170.55 27.1353 170.333 25.9573 170.333 24.614V19.189H166.489V15.81L170.55 15.624L171.139 10.912H174.89V15.624H181.4V19.189H174.89V24.583C174.89 25.3477 175.004 25.9677 175.231 26.443C175.459 26.9183 175.81 27.2697 176.285 27.497C176.761 27.7037 177.37 27.807 178.114 27.807C178.714 27.807 179.261 27.7553 179.757 27.652C180.253 27.5487 180.729 27.4143 181.183 27.249L181.989 30.535C181.307 30.7417 180.553 30.9277 179.726 31.093C178.92 31.279 178.001 31.372 176.967 31.372Z" fill="#00DA9A"/>
</svg>