<svg width="349" height="195" viewBox="0 0 349 195" fill="none" xmlns="http://www.w3.org/2000/svg">
<path d="M80.112 31V10.136H84.944L89.328 20.504L91.12 25.112H91.248C91.1413 24.0027 91.0027 22.7653 90.832 21.4C90.6613 20.0347 90.576 18.744 90.576 17.528V10.136H95.088V31H90.256L85.872 20.6L84.08 16.056H83.952C84.0587 17.1867 84.1973 18.424 84.368 19.768C84.5387 21.0907 84.624 22.3707 84.624 23.608V31H80.112ZM104.356 31.384C103.289 31.384 102.361 31.1707 101.572 30.744C100.804 30.3173 100.206 29.7413 99.7795 29.016C99.3528 28.2907 99.1395 27.48 99.1395 26.584C99.1395 24.8133 99.9395 23.4587 101.54 22.52C103.161 21.5813 105.849 21.0053 109.604 20.792C109.54 20.3013 109.38 19.8853 109.124 19.544C108.868 19.2027 108.494 18.9467 108.004 18.776C107.534 18.584 106.937 18.488 106.212 18.488C105.7 18.488 105.188 18.552 104.676 18.68C104.164 18.7867 103.63 18.9573 103.076 19.192C102.542 19.4053 101.977 19.6613 101.38 19.96L99.7155 16.888C100.441 16.4613 101.198 16.088 101.988 15.768C102.798 15.448 103.63 15.2027 104.484 15.032C105.358 14.84 106.244 14.744 107.14 14.744C108.633 14.744 109.913 15.0107 110.98 15.544C112.046 16.056 112.868 16.8453 113.444 17.912C114.02 18.9573 114.308 20.2907 114.308 21.912V31H110.468L110.116 29.208H109.988C109.198 29.8053 108.324 30.3173 107.364 30.744C106.404 31.1707 105.401 31.384 104.356 31.384ZM105.86 27.736C106.564 27.736 107.225 27.5973 107.844 27.32C108.462 27.0213 109.049 26.6587 109.604 26.232V23.608C108.046 23.6933 106.83 23.8533 105.956 24.088C105.102 24.3227 104.505 24.6213 104.164 24.984C103.822 25.3467 103.652 25.7627 103.652 26.232C103.652 26.552 103.737 26.8293 103.908 27.064C104.1 27.2987 104.356 27.4693 104.676 27.576C105.017 27.6827 105.412 27.736 105.86 27.736ZM123.351 31L117.367 15.128H122.103L124.599 22.616C124.855 23.4053 125.1 24.2053 125.335 25.016C125.57 25.8267 125.804 26.6587 126.039 27.512H126.167C126.402 26.6587 126.626 25.8267 126.839 25.016C127.074 24.2053 127.319 23.4053 127.575 22.616L130.071 15.128H134.583L128.759 31H123.351ZM144.459 31V18.808H138.059V15.128H149.163V31H144.459ZM146.603 12.632C145.707 12.632 144.96 12.376 144.363 11.864C143.765 11.3307 143.467 10.6373 143.467 9.784C143.467 8.90933 143.765 8.20533 144.363 7.672C144.96 7.11733 145.707 6.84 146.603 6.84C147.52 6.84 148.267 7.11733 148.843 7.672C149.44 8.20533 149.739 8.90933 149.739 9.784C149.739 10.6373 149.44 11.3307 148.843 11.864C148.267 12.376 147.52 12.632 146.603 12.632ZM163.614 37.752C162.227 37.752 160.99 37.6027 159.902 37.304C158.835 37.0267 157.982 36.5893 157.342 35.992C156.723 35.3947 156.414 34.6267 156.414 33.688C156.414 33.048 156.617 32.4613 157.022 31.928C157.449 31.3947 158.067 30.9253 158.878 30.52V30.392C158.43 30.0933 158.046 29.7307 157.726 29.304C157.427 28.8773 157.278 28.3333 157.278 27.672C157.278 27.1387 157.449 26.6053 157.79 26.072C158.153 25.5387 158.611 25.08 159.166 24.696V24.568C158.59 24.184 158.099 23.64 157.694 22.936C157.289 22.232 157.086 21.4213 157.086 20.504C157.086 19.224 157.395 18.1573 158.014 17.304C158.654 16.4507 159.486 15.8107 160.51 15.384C161.555 14.9573 162.675 14.744 163.87 14.744C164.851 14.744 165.726 14.872 166.494 15.128H172.926V18.584H169.726C169.918 18.8187 170.078 19.128 170.206 19.512C170.355 19.8747 170.43 20.2587 170.43 20.664C170.43 21.88 170.131 22.8827 169.534 23.672C168.958 24.44 168.179 25.016 167.198 25.4C166.217 25.784 165.107 25.976 163.87 25.976C163.571 25.976 163.23 25.9547 162.846 25.912C162.462 25.848 162.078 25.7627 161.694 25.656C161.438 25.8267 161.257 25.9973 161.15 26.168C161.043 26.3387 160.99 26.5627 160.99 26.84C160.99 27.2453 161.203 27.544 161.63 27.736C162.078 27.928 162.761 28.024 163.678 28.024H166.622C168.713 28.024 170.302 28.3333 171.39 28.952C172.499 29.5707 173.054 30.5947 173.054 32.024C173.054 33.1333 172.67 34.1147 171.902 34.968C171.134 35.8427 170.035 36.5253 168.606 37.016C167.198 37.5067 165.534 37.752 163.614 37.752ZM163.87 23.128C164.318 23.128 164.723 23.032 165.086 22.84C165.449 22.648 165.737 22.36 165.95 21.976C166.163 21.5707 166.27 21.08 166.27 20.504C166.27 19.9493 166.163 19.48 165.95 19.096C165.737 18.712 165.449 18.424 165.086 18.232C164.723 18.0187 164.318 17.912 163.87 17.912C163.443 17.912 163.049 18.0187 162.686 18.232C162.323 18.424 162.035 18.712 161.822 19.096C161.609 19.48 161.502 19.9493 161.502 20.504C161.502 21.08 161.609 21.5707 161.822 21.976C162.035 22.36 162.323 22.648 162.686 22.84C163.049 23.032 163.443 23.128 163.87 23.128ZM164.286 34.776C165.139 34.776 165.886 34.6907 166.526 34.52C167.166 34.3493 167.667 34.1147 168.03 33.816C168.393 33.5387 168.574 33.2187 168.574 32.856C168.574 32.3227 168.339 31.9813 167.87 31.832C167.401 31.704 166.707 31.64 165.79 31.64H163.806C163.23 31.64 162.75 31.6187 162.366 31.576C162.003 31.5333 161.673 31.48 161.374 31.416C160.969 31.672 160.681 31.9173 160.51 32.152C160.339 32.408 160.254 32.6853 160.254 32.984C160.254 33.56 160.617 33.9973 161.342 34.296C162.067 34.616 163.049 34.776 164.286 34.776ZM181.106 31.384C180.039 31.384 179.111 31.1707 178.322 30.744C177.554 30.3173 176.956 29.7413 176.53 29.016C176.103 28.2907 175.89 27.48 175.89 26.584C175.89 24.8133 176.69 23.4587 178.29 22.52C179.911 21.5813 182.599 21.0053 186.354 20.792C186.29 20.3013 186.13 19.8853 185.874 19.544C185.618 19.2027 185.244 18.9467 184.754 18.776C184.284 18.584 183.687 18.488 182.962 18.488C182.45 18.488 181.938 18.552 181.426 18.68C180.914 18.7867 180.38 18.9573 179.826 19.192C179.292 19.4053 178.727 19.6613 178.13 19.96L176.466 16.888C177.191 16.4613 177.948 16.088 178.738 15.768C179.548 15.448 180.38 15.2027 181.234 15.032C182.108 14.84 182.994 14.744 183.89 14.744C185.383 14.744 186.663 15.0107 187.73 15.544C188.796 16.056 189.618 16.8453 190.194 17.912C190.77 18.9573 191.058 20.2907 191.058 21.912V31H187.218L186.866 29.208H186.738C185.948 29.8053 185.074 30.3173 184.114 30.744C183.154 31.1707 182.151 31.384 181.106 31.384ZM182.61 27.736C183.314 27.736 183.975 27.5973 184.594 27.32C185.212 27.0213 185.799 26.6587 186.354 26.232V23.608C184.796 23.6933 183.58 23.8533 182.706 24.088C181.852 24.3227 181.255 24.6213 180.914 24.984C180.572 25.3467 180.402 25.7627 180.402 26.232C180.402 26.552 180.487 26.8293 180.658 27.064C180.85 27.2987 181.106 27.4693 181.426 27.576C181.767 27.6827 182.162 27.736 182.61 27.736ZM205.541 31.384C203.856 31.384 202.512 31.096 201.509 30.52C200.528 29.9227 199.813 29.1013 199.365 28.056C198.917 27.0107 198.693 25.7947 198.693 24.408V18.808H194.725V15.32L198.917 15.128L199.525 10.264H203.397V15.128H210.117V18.808H203.397V24.376C203.397 25.1653 203.514 25.8053 203.749 26.296C203.984 26.7867 204.346 27.1493 204.837 27.384C205.328 27.5973 205.957 27.704 206.725 27.704C207.344 27.704 207.909 27.6507 208.421 27.544C208.933 27.4373 209.424 27.2987 209.893 27.128L210.725 30.52C210.021 30.7333 209.242 30.9253 208.389 31.096C207.557 31.288 206.608 31.384 205.541 31.384ZM221.209 31V18.808H214.809V15.128H225.913V31H221.209ZM223.353 12.632C222.457 12.632 221.71 12.376 221.113 11.864C220.515 11.3307 220.217 10.6373 220.217 9.784C220.217 8.90933 220.515 8.20533 221.113 7.672C221.71 7.11733 222.457 6.84 223.353 6.84C224.27 6.84 225.017 7.11733 225.593 7.672C226.19 8.20533 226.489 8.90933 226.489 9.784C226.489 10.6373 226.19 11.3307 225.593 11.864C225.017 12.376 224.27 12.632 223.353 12.632ZM241.1 31.384C239.713 31.384 238.401 31.064 237.164 30.424C235.927 29.7627 234.924 28.8133 234.156 27.576C233.388 26.3173 233.004 24.8133 233.004 23.064C233.004 21.3147 233.388 19.8213 234.156 18.584C234.924 17.3253 235.927 16.376 237.164 15.736C238.401 15.0747 239.713 14.744 241.1 14.744C242.487 14.744 243.799 15.0747 245.036 15.736C246.273 16.376 247.276 17.3253 248.044 18.584C248.812 19.8213 249.196 21.3147 249.196 23.064C249.196 24.8133 248.812 26.3173 248.044 27.576C247.276 28.8133 246.273 29.7627 245.036 30.424C243.799 31.064 242.487 31.384 241.1 31.384ZM241.1 27.576C241.825 27.576 242.423 27.3947 242.892 27.032C243.383 26.6693 243.745 26.1467 243.98 25.464C244.236 24.7813 244.364 23.9813 244.364 23.064C244.364 22.1467 244.236 21.3467 243.98 20.664C243.745 19.9813 243.383 19.4587 242.892 19.096C242.423 18.7333 241.825 18.552 241.1 18.552C240.375 18.552 239.767 18.7333 239.276 19.096C238.807 19.4587 238.444 19.9813 238.188 20.664C237.953 21.3467 237.836 22.1467 237.836 23.064C237.836 23.9813 237.953 24.7813 238.188 25.464C238.444 26.1467 238.807 26.6693 239.276 27.032C239.767 27.3947 240.375 27.576 241.1 27.576ZM252.992 31V15.128H256.832L257.184 17.24H257.312C257.994 16.5573 258.773 15.9707 259.648 15.48C260.544 14.9893 261.589 14.744 262.784 14.744C264.576 14.744 265.888 15.32 266.72 16.472C267.552 17.624 267.968 19.2027 267.968 21.208V31H263.264V21.816C263.264 20.7493 263.082 19.9707 262.72 19.48C262.378 18.9893 261.781 18.744 260.928 18.744C260.288 18.744 259.722 18.8933 259.232 19.192C258.762 19.4693 258.25 19.8747 257.696 20.408V31H252.992Z" fill="#00DA9A"/>
<rect x="1" y="44" width="346.155" height="150" rx="16" stroke="#00DA9A" stroke-width="2"/>
<path d="M128.416 72.4175C133.754 71.5025 139.478 71.7977 144.342 74.3655C144.965 74.6901 145.588 75.0443 146.151 75.4575C146.477 75.6936 146.537 76.0478 146.596 76.4315C146.685 76.8742 146.774 77.3169 146.803 77.7596C146.863 77.6416 146.922 77.553 146.981 77.435C146.803 77.5235 146.299 77.3464 146.121 77.3169C145.795 77.2579 145.439 77.1989 145.113 77.1398C144.52 77.0218 143.897 76.9332 143.304 76.8152C142.058 76.5791 140.783 76.3725 139.537 76.1363C137.076 75.6936 134.614 75.2509 132.152 74.8377C130.788 74.6016 129.365 74.454 128.089 73.9227C128.178 74.0408 128.267 74.1589 128.356 74.2769C128.445 73.5686 128.505 72.8602 128.594 72.1519L128.416 72.4175Z" fill="#A5A4A5"/>
<path d="M55.8724 71.4435C52.9956 70.9122 50.0594 70.8532 47.1826 71.355C45.7294 71.5911 44.3354 72.0043 42.9415 72.447C41.5476 72.8897 40.124 73.2734 38.8487 73.9523C38.2852 74.2474 37.5141 74.6606 37.1879 75.2214C37.01 75.5165 37.0099 75.8707 36.9506 76.2249C36.921 76.6381 36.8913 77.0808 36.921 77.494C36.921 77.7006 37.0989 77.8777 37.2769 77.8482C38.5225 77.8482 39.7088 77.494 40.9248 77.2284C42.1704 76.9332 43.4457 76.6971 44.6913 76.461C45.937 76.2249 47.2123 75.9888 48.4876 75.8117C49.7332 75.6051 51.0085 75.3985 52.2541 75.3394C53.5887 75.2509 54.9233 75.3394 56.1986 74.8672C56.3469 74.8082 56.4655 74.6901 56.4655 74.513L55.8724 71.4435Z" fill="#A5A4A5"/>
<path d="M55.2497 80.2684C55.398 81.8622 55.6946 83.515 56.3174 84.9907C56.8512 86.2599 58.868 86.5255 59.6687 85.3744C60.0839 84.7546 60.0543 83.9872 59.906 83.3084C59.7281 82.4525 59.4908 81.6261 59.2832 80.7997C59.1349 80.1503 58.9866 79.4715 58.5121 78.9697C58.0969 78.527 57.4444 78.3499 56.8512 78.468C55.2794 78.7336 54.8345 80.5635 55.5759 81.8031C55.8132 82.2164 56.4657 81.8327 56.2284 81.4195L55.2497 80.2684Z" fill="#A5A4A5"/>
<path d="M125.154 79.7076C124.887 80.6225 124.649 81.5375 124.383 82.4525C124.175 83.1903 124.027 84.0167 124.234 84.7841C124.59 86.0532 126.103 86.7616 127.289 86.1713C128.683 85.4925 128.802 83.6035 129.068 82.2754C129.217 81.4785 129.454 80.5635 129.128 79.7666C128.891 79.1763 128.386 78.7336 127.764 78.5565C126.192 78.0548 124.709 79.4715 124.857 81.0358C124.916 81.508 125.658 81.508 125.599 81.0358L125.154 79.7076Z" fill="#A5A4A5"/>
<path d="M121.743 75.6051C121.891 75.0148 121.683 74.454 121.268 74.0113C120.823 73.5095 120.141 73.3325 119.489 73.2439C117.887 73.0373 116.226 73.0373 114.595 72.9488C111.273 72.8012 107.952 72.6536 104.63 72.5651C97.9571 72.388 91.284 72.388 84.611 72.506C81.2597 72.5651 77.9083 72.6831 74.557 72.8307C71.4133 72.9783 68.2102 73.0668 65.1258 73.7161C64.4437 73.8637 63.7319 74.0113 63.0794 74.2474C62.8718 74.336 62.7235 74.395 62.6345 74.6311C62.4862 74.9558 62.3973 75.3099 62.338 75.6641C62.071 77.1103 62.2786 78.5565 62.6049 79.9732C63.3167 83.1313 64.1174 86.2894 64.7996 89.4769C65.1555 91.1003 65.4817 92.694 65.8079 94.3173C66.1045 95.8226 66.3121 97.3869 66.8163 98.8626C67.2315 100.102 67.884 101.283 68.8923 102.139C69.9304 103.024 71.265 103.378 72.5996 103.408C73.3114 103.408 74.0232 103.349 74.7349 103.26C74.5867 103.113 74.4384 102.965 74.2901 102.818C74.2604 102.877 74.2604 102.936 74.2308 102.995C74.1418 103.231 74.3791 103.437 74.5867 103.467C80.3403 103.939 86.1532 103.792 91.9365 103.733C97.7495 103.673 103.533 103.526 109.346 103.378C110.146 103.349 110.977 103.319 111.778 103.319C112.519 103.29 113.261 103.26 113.943 103.054C115.129 102.729 116.137 101.873 116.315 100.604C116.078 100.604 115.811 100.604 115.574 100.604C115.544 100.929 115.515 101.224 115.485 101.548C115.455 101.903 116.019 102.05 116.167 101.726C117.739 98.2428 118.391 94.4649 119.044 90.7166C119.37 88.8571 119.696 86.9682 120.141 85.1383C120.616 83.2494 121.327 81.3899 121.683 79.4715C122.039 77.494 122.01 75.3394 120.942 73.5686C120.705 73.1554 120.052 73.5391 120.289 73.9523C122.306 77.3169 120.349 81.3014 119.489 84.6956C118.599 88.2373 118.184 91.8971 117.383 95.4684C116.938 97.4754 116.375 99.4824 115.515 101.371C115.752 101.43 115.989 101.489 116.197 101.548L121.743 75.6051Z" fill="#A5A4A5"/>
<path d="M43.1793 86.4665C42.4082 86.8797 41.8151 87.6175 41.6371 88.4735C41.5185 88.9752 41.5481 89.5065 41.5778 90.0377C41.6075 90.6575 41.6371 91.2478 41.6668 91.8676C41.6964 92.3399 41.6668 92.8416 41.8744 93.2843C42.1116 93.7566 42.5268 94.1403 42.8827 94.524C43.298 94.9962 43.6835 95.4389 44.0987 95.9111C44.425 96.2948 44.7512 96.7375 45.1664 97.0032C45.9968 97.5049 46.8866 96.9737 47.4797 96.3834C47.9246 95.9702 48.3101 95.5274 48.7253 95.0847C49.1109 94.701 49.5261 94.3173 49.8523 93.8746C50.1786 93.4614 50.1786 92.9597 50.2082 92.4579C50.2379 91.8676 50.2676 91.2478 50.2972 90.6575C50.3269 90.0377 50.3565 89.4179 50.3565 88.7981C50.3565 88.3259 50.2972 87.8536 50.0599 87.4404C49.5261 86.5255 48.4288 86.2303 47.4204 86.2599C46.0265 86.2599 44.6326 86.3189 43.209 86.3484C42.9717 86.3484 42.9717 86.7321 43.209 86.7026C44.247 86.6731 45.285 86.6731 46.3231 86.6435L43.1793 86.4665Z" fill="#A5A4A5"/>
<path d="M33.7777 95.8226C33.6887 97.0327 33.6294 98.2428 33.6294 99.4529C33.6294 100.456 33.6887 101.519 34.3115 102.316C34.9343 103.083 35.7944 103.172 36.7435 103.142C37.9298 103.083 39.1458 103.083 40.3024 102.936C40.8066 102.877 41.1328 102.611 41.5184 102.286C41.9336 101.932 42.3785 101.548 42.764 101.165C43.3868 100.545 44.3952 99.7775 44.5138 98.8331C44.5732 98.4199 44.3655 98.0362 44.1283 97.7115C43.7724 97.2688 43.3572 96.8851 43.0013 96.4719C42.5861 96.0292 42.2005 95.5865 41.7557 95.1733C41.4294 94.8486 41.0735 94.5535 40.599 94.4649C40.0058 94.3173 39.3534 94.3764 38.7305 94.3764C38.0484 94.3764 37.3366 94.3469 36.6545 94.3469C36.1207 94.3469 35.4978 94.2288 35.053 94.5535L33.7777 95.8226Z" fill="#A5A4A5"/>
<path d="M47.9247 98.4494C48.4585 97.682 49.111 97.0327 49.8228 96.4424C50.149 96.1768 50.4752 95.8816 50.8311 95.616C51.187 95.3504 51.5429 95.0257 51.9878 94.9076C52.4327 94.7896 52.9368 94.8781 53.3817 94.8781C53.9156 94.8781 54.4494 94.9076 54.9832 94.9076C55.4578 94.9076 55.9323 94.9076 56.4068 94.9372C56.9703 94.9667 57.2669 95.4979 57.5338 95.9111C58.0677 96.7375 57.9787 97.7115 57.9787 98.656C58.0083 99.571 58.127 100.604 57.8007 101.489C57.6524 101.873 57.4152 102.227 57.0593 102.434C56.6144 102.7 56.0509 102.7 55.5467 102.729C54.568 102.759 53.5597 102.759 52.5809 102.64C52.314 102.611 52.0471 102.581 51.7802 102.493C51.4539 102.404 51.2463 102.227 51.0091 101.991C50.6235 101.637 50.2676 101.283 49.8821 100.899C49.5262 100.515 49.1703 100.161 48.8144 99.748C48.4882 99.3939 47.8653 98.8626 47.9247 98.3313C47.8653 98.3904 47.8357 98.4494 47.7764 98.5084L47.9247 98.4494Z" fill="#A5A4A5"/>
<path d="M42.26 104.087C42.9124 103.349 43.5649 102.64 44.247 101.962C44.5733 101.637 44.9292 101.283 45.2851 100.958C45.4927 100.781 45.7003 100.604 45.9672 100.574C46.2934 100.515 46.501 100.722 46.7383 100.929C47.9543 102.08 49.6151 103.408 49.7931 105.179C49.882 106.153 49.7931 107.156 49.7634 108.13C49.7634 108.602 49.7931 109.193 49.5855 109.635C49.3778 110.049 48.933 110.314 48.5178 110.432C47.5687 110.727 46.4714 110.668 45.4927 110.639C44.6326 110.609 43.4463 110.668 42.7345 110.078C41.993 109.488 41.9634 108.455 41.9634 107.599C41.9634 107.038 41.9634 106.448 41.993 105.887C41.993 105.74 42.1413 104.175 42.082 104.146L42.26 104.087Z" fill="#A5A4A5"/>
<path d="M68.2984 127.639C73.1304 127.639 77.0475 123.741 77.0475 118.933C77.0475 114.124 73.1304 110.226 68.2984 110.226C63.4664 110.226 59.5493 114.124 59.5493 118.933C59.5493 123.741 63.4664 127.639 68.2984 127.639Z" fill="#A5A4A5"/>
<path d="M116.078 127.639C120.91 127.639 124.827 123.741 124.827 118.933C124.827 114.124 120.91 110.226 116.078 110.226C111.246 110.226 107.329 114.124 107.329 118.933C107.329 123.741 111.246 127.639 116.078 127.639Z" fill="#A5A4A5"/>
<path d="M68.2988 130.945C74.9653 130.945 80.3696 125.567 80.3696 118.933C80.3696 112.298 74.9653 106.92 68.2988 106.92C61.6323 106.92 56.228 112.298 56.228 118.933C56.228 125.567 61.6323 130.945 68.2988 130.945Z" stroke="#A5A4A5" stroke-width="3" stroke-miterlimit="10"/>
<path d="M116.078 130.945C122.744 130.945 128.148 125.567 128.148 118.933C128.148 112.298 122.744 106.92 116.078 106.92C109.411 106.92 104.007 112.298 104.007 118.933C104.007 125.567 109.411 130.945 116.078 130.945Z" stroke="#A5A4A5" stroke-width="3" stroke-miterlimit="10"/>
<path d="M138.321 92.4579C140.892 92.4579 142.977 90.3833 142.977 87.8241C142.977 85.2649 140.892 83.1903 138.321 83.1903C135.749 83.1903 133.665 85.2649 133.665 87.8241C133.665 90.3833 135.749 92.4579 138.321 92.4579Z" fill="#A5A4A5"/>
<path d="M127.496 103.408C130.068 103.408 132.152 101.333 132.152 98.774C132.152 96.2148 130.068 94.1402 127.496 94.1402C124.925 94.1402 122.84 96.2148 122.84 98.774C122.84 101.333 124.925 103.408 127.496 103.408Z" fill="#A5A4A5"/>
<path d="M149.235 103.408C151.807 103.408 153.892 101.333 153.892 98.774C153.892 96.2148 151.807 94.1402 149.235 94.1402C146.664 94.1402 144.579 96.2148 144.579 98.774C144.579 101.333 146.664 103.408 149.235 103.408Z" fill="#A5A4A5"/>
<path d="M138.321 114.328C140.892 114.328 142.977 112.254 142.977 109.694C142.977 107.135 140.892 105.061 138.321 105.061C135.749 105.061 133.665 107.135 133.665 109.694C133.665 112.254 135.749 114.328 138.321 114.328Z" fill="#A5A4A5"/>
<path d="M149.206 78.0548C134.911 74.0408 120.082 72.4175 105.283 72.0633C90.3053 71.7091 75.2985 72.6241 60.3509 73.6571C51.9874 74.2474 43.5942 74.9557 35.4976 77.3169C35.7348 77.3759 35.9721 77.435 36.2094 77.494C36.0611 77.3464 35.9128 77.1989 35.7941 77.0513C35.4383 76.6971 34.9044 76.8152 34.6375 77.1989C28.3204 86.2894 25.5325 97.1802 23.3378 107.865C22.0922 113.945 20.9355 120.054 20.372 126.223C19.8085 132.362 19.8679 138.56 20.6686 144.669C21.2914 149.569 22.2108 154.645 24.5538 159.072C25.6215 161.05 26.9858 162.909 28.7652 164.296C29.5363 164.916 30.5447 165.743 31.5234 165.92C31.9683 165.979 32.4131 165.949 32.858 165.979C33.5401 166.008 34.2519 166.156 34.9044 166.303C37.3957 166.805 40.0056 167.336 42.1706 165.654C44.0984 164.178 45.1067 161.758 45.9668 159.574C47.6573 155.176 48.3987 150.513 49.8223 146.056C50.5045 143.902 51.3349 141.777 52.5509 139.858C53.7965 137.881 55.487 135.903 57.652 134.959C60.4102 133.749 63.1387 135.49 65.9562 135.372C68.5958 135.284 71.0277 134.074 73.6376 133.837C74.2604 133.778 74.8832 133.778 75.4764 133.896C76.0399 133.985 76.3068 133.985 76.722 133.572C76.4848 133.631 76.2475 133.69 76.0102 133.749C83.0985 134.929 90.335 135.343 97.5122 134.929C99.262 134.841 101.012 134.664 102.762 134.487C104.511 134.28 106.291 134.074 108.07 134.133C111.511 134.251 114.714 135.903 118.213 135.667C119.963 135.549 121.683 135.166 123.463 135.254C124.857 135.343 126.221 135.815 127.437 136.494C129.988 137.94 131.856 140.242 133.102 142.839C136.008 148.801 135.978 155.708 138.559 161.788C139.182 163.263 139.923 164.916 141.258 165.949C142.622 167.012 144.372 167.012 146.033 166.982C149.295 166.923 152.706 166.687 155.375 164.592C155.197 164.651 155.019 164.739 154.841 164.798C155.968 164.769 156.887 163.322 157.54 162.496C158.341 161.493 159.052 160.43 159.675 159.309C160.98 156.977 161.87 154.409 162.493 151.812C163.857 146.263 164.124 140.449 164.153 134.752C164.213 122.297 162.315 109.813 158.548 97.9181C156.442 91.2478 153.744 84.7546 150.481 78.527C150.036 77.6711 148.761 78.4385 149.206 79.2649C154.752 89.8606 158.637 101.312 160.772 113.089C161.84 119.021 162.463 125.042 162.611 131.063C162.76 136.7 162.641 142.456 161.722 148.034C160.772 153.73 158.845 159.427 154.544 163.5C154.722 163.441 154.9 163.352 155.078 163.293C154.426 163.322 154.07 163.706 153.506 164.031C152.854 164.415 152.172 164.68 151.43 164.887C149.977 165.3 148.494 165.389 147.011 165.448C145.528 165.507 143.719 165.743 142.414 164.946C141.05 164.149 140.338 162.289 139.775 160.902C137.283 154.793 137.283 147.916 134.318 141.954C133.042 139.386 131.174 137.084 128.712 135.52C127.526 134.752 126.191 134.192 124.797 133.926C123.226 133.631 121.654 133.778 120.082 133.955C118.243 134.192 116.553 134.251 114.743 133.867C113.083 133.513 111.451 132.981 109.761 132.775C106.143 132.273 102.465 133.1 98.8468 133.336C94.7837 133.631 90.6909 133.66 86.6278 133.454C84.6407 133.336 82.6536 133.159 80.6665 132.922C79.6285 132.804 78.5905 132.657 77.5524 132.509C76.7517 132.391 76.0399 132.067 75.4171 132.686C75.6543 132.627 75.8916 132.568 76.1289 132.509C73.5783 131.948 71.1167 132.775 68.6551 133.395C67.4391 133.69 66.1935 133.955 64.9182 133.837C63.4946 133.719 62.1303 133.218 60.7068 133.041C55.7836 132.421 52.0763 136.995 50.1189 140.921C48.1318 144.964 47.2421 149.421 46.1151 153.76C45.5219 155.944 44.8991 158.157 43.9797 160.223C43.0603 162.289 41.8147 164.857 39.3234 165.27C38.0185 165.477 36.6839 165.152 35.4086 164.887C34.163 164.621 32.9766 164.533 31.731 164.474C31.6717 164.474 31.5531 164.474 31.4938 164.444C31.3751 164.415 31.3751 164.356 31.5234 164.444C31.2861 164.326 31.0489 164.178 30.8116 164.06C30.3668 163.795 29.9219 163.47 29.5067 163.145C28.6763 162.467 27.9051 161.67 27.2527 160.814C24.4648 157.154 23.3082 152.52 22.5074 148.063C21.4694 142.161 21.1432 136.14 21.4397 130.148C21.7363 124.127 22.6854 118.136 23.842 112.203C25.9181 101.637 28.2017 90.7165 33.6884 81.3014C34.3409 80.1798 35.0527 79.0878 35.7941 77.9958C35.4086 78.0548 35.023 78.0843 34.6375 78.1433C34.7858 78.2909 34.9341 78.4385 35.0527 78.586C35.2306 78.7631 35.5272 78.8517 35.7645 78.7631C42.912 76.6676 50.3562 75.9002 57.7706 75.3394C65.1851 74.7787 72.5996 74.3064 80.014 73.9523C94.7244 73.2439 109.494 73.1554 124.145 74.8082C132.42 75.7526 140.635 77.2579 148.672 79.501C149.74 79.7371 150.125 78.3204 149.206 78.0548Z" fill="#A5A4A5"/>
<rect x="233.655" y="71" width="46" height="46" rx="4.5" fill="#A9A8A9" stroke="#666666"/>
<g filter="url(#filter0_d_533_446)">
<rect x="239.155" y="74.5" width="35" height="34" rx="5" fill="#666666"/>
<rect x="238.905" y="74.25" width="35.5" height="34.5" rx="5.25" stroke="#585858" stroke-width="0.5"/>
</g>
<path d="M250.885 100.5L248.275 80.94H252.865L253.465 91.35C253.465 91.91 253.475 92.46 253.495 93C253.515 93.52 253.525 94.05 253.525 94.59C253.545 95.11 253.555 95.67 253.555 96.27H253.675C253.755 95.67 253.845 95.11 253.945 94.59C254.065 94.05 254.185 93.51 254.305 92.97C254.425 92.43 254.535 91.89 254.635 91.35L255.955 85.89H258.775L260.005 91.35C260.125 91.89 260.235 92.42 260.335 92.94C260.435 93.46 260.545 94 260.665 94.56C260.785 95.1 260.885 95.67 260.965 96.27H261.085C261.105 95.67 261.115 95.1 261.115 94.56C261.135 94 261.145 93.46 261.145 92.94C261.165 92.42 261.185 91.89 261.205 91.35L261.745 80.94H266.035L263.635 100.5H258.895L257.755 94.44C257.635 93.82 257.525 93.19 257.425 92.55C257.325 91.91 257.255 91.3 257.215 90.72H257.125C257.065 91.3 256.995 91.91 256.915 92.55C256.835 93.19 256.735 93.82 256.615 94.44L255.475 100.5H250.885Z" fill="#E2E2E2"/>
<rect x="183.655" y="121" width="46" height="46" rx="4.5" fill="#A9A8A9" stroke="#666666"/>
<g filter="url(#filter1_d_533_446)">
<rect x="189.155" y="124.5" width="35" height="34" rx="5" fill="#666666"/>
<rect x="188.905" y="124.25" width="35.5" height="34.5" rx="5.25" stroke="#585858" stroke-width="0.5"/>
</g>
<path d="M198.425 150.5L204.515 130.94H209.795L215.885 150.5H211.205L208.685 140.6C208.445 139.62 208.185 138.58 207.905 137.48C207.625 136.38 207.365 135.32 207.125 134.3H207.005C206.765 135.32 206.515 136.38 206.255 137.48C205.995 138.58 205.735 139.62 205.475 140.6L202.925 150.5H198.425ZM202.445 145.85V142.4H211.805V145.85H202.445Z" fill="#E2E2E2"/>
<rect x="233.655" y="121" width="46" height="46" rx="4.5" fill="#A9A8A9" stroke="#666666"/>
<g filter="url(#filter2_d_533_446)">
<rect x="239.155" y="124.5" width="35" height="34" rx="5" fill="#666666"/>
<rect x="238.905" y="124.25" width="35.5" height="34.5" rx="5.25" stroke="#585858" stroke-width="0.5"/>
</g>
<path d="M257.095 150.86C255.775 150.86 254.465 150.62 253.165 150.14C251.885 149.66 250.715 148.96 249.655 148.04L252.205 145.01C252.945 145.61 253.755 146.1 254.635 146.48C255.535 146.86 256.455 147.05 257.395 147.05C258.335 147.05 259.025 146.89 259.465 146.57C259.925 146.25 260.155 145.84 260.155 145.34C260.155 144.88 260.035 144.52 259.795 144.26C259.555 143.98 259.205 143.74 258.745 143.54C258.285 143.32 257.745 143.08 257.125 142.82L254.605 141.74C253.885 141.46 253.205 141.09 252.565 140.63C251.925 140.15 251.405 139.57 251.005 138.89C250.625 138.19 250.435 137.36 250.435 136.4C250.435 135.32 250.735 134.35 251.335 133.49C251.955 132.61 252.795 131.91 253.855 131.39C254.935 130.85 256.185 130.58 257.605 130.58C258.785 130.58 259.945 130.8 261.085 131.24C262.225 131.68 263.235 132.32 264.115 133.16L261.865 135.95C261.185 135.45 260.505 135.07 259.825 134.81C259.145 134.53 258.325 134.39 257.365 134.39C256.645 134.39 256.055 134.54 255.595 134.84C255.135 135.14 254.905 135.58 254.905 136.16C254.905 136.54 255.045 136.86 255.325 137.12C255.605 137.38 255.985 137.61 256.465 137.81C256.945 138.01 257.495 138.23 258.115 138.47L260.485 139.49C261.365 139.81 262.115 140.21 262.735 140.69C263.355 141.15 263.835 141.72 264.175 142.4C264.515 143.08 264.685 143.88 264.685 144.8C264.685 145.88 264.385 146.88 263.785 147.8C263.205 148.72 262.345 149.46 261.205 150.02C260.085 150.58 258.715 150.86 257.095 150.86Z" fill="#E2E2E2"/>
<rect x="282.655" y="121" width="46" height="46" rx="4.5" fill="#A9A8A9" stroke="#666666"/>
<g filter="url(#filter3_d_533_446)">
<rect x="288.155" y="124.5" width="35" height="34" rx="5" fill="#666666"/>
<rect x="287.905" y="124.25" width="35.5" height="34.5" rx="5.25" stroke="#585858" stroke-width="0.5"/>
</g>
<path d="M299.255 150.5V130.94H304.655C306.555 130.94 308.205 131.28 309.605 131.96C311.025 132.64 312.125 133.7 312.905 135.14C313.685 136.56 314.075 138.39 314.075 140.63C314.075 142.87 313.685 144.72 312.905 146.18C312.145 147.64 311.075 148.73 309.695 149.45C308.315 150.15 306.725 150.5 304.925 150.5H299.255ZM303.695 146.93H304.415C305.455 146.93 306.355 146.73 307.115 146.33C307.875 145.93 308.465 145.27 308.885 144.35C309.325 143.43 309.545 142.19 309.545 140.63C309.545 139.07 309.325 137.85 308.885 136.97C308.465 136.07 307.875 135.44 307.115 135.08C306.355 134.7 305.455 134.51 304.415 134.51H303.695V146.93Z" fill="#E2E2E2"/>
<defs>
<filter id="filter0_d_533_446" x="234.655" y="72" width="44" height="43" filterUnits="userSpaceOnUse" color-interpolation-filters="sRGB">
<feFlood flood-opacity="0" result="BackgroundImageFix"/>
<feColorMatrix in="SourceAlpha" type="matrix" values="0 0 0 0 0 0 0 0 0 0 0 0 0 0 0 0 0 0 127 0" result="hardAlpha"/>
<feOffset dy="2"/>
<feGaussianBlur stdDeviation="2"/>
<feComposite in2="hardAlpha" operator="out"/>
<feColorMatrix type="matrix" values="0 0 0 0 0 0 0 0 0 0 0 0 0 0 0 0 0 0 0.25 0"/>
<feBlend mode="normal" in2="BackgroundImageFix" result="effect1_dropShadow_533_446"/>
<feBlend mode="normal" in="SourceGraphic" in2="effect1_dropShadow_533_446" result="shape"/>
</filter>
<filter id="filter1_d_533_446" x="184.655" y="122" width="44" height="43" filterUnits="userSpaceOnUse" color-interpolation-filters="sRGB">
<feFlood flood-opacity="0" result="BackgroundImageFix"/>
<feColorMatrix in="SourceAlpha" type="matrix" values="0 0 0 0 0 0 0 0 0 0 0 0 0 0 0 0 0 0 127 0" result="hardAlpha"/>
<feOffset dy="2"/>
<feGaussianBlur stdDeviation="2"/>
<feComposite in2="hardAlpha" operator="out"/>
<feColorMatrix type="matrix" values="0 0 0 0 0 0 0 0 0 0 0 0 0 0 0 0 0 0 0.25 0"/>
<feBlend mode="normal" in2="BackgroundImageFix" result="effect1_dropShadow_533_446"/>
<feBlend mode="normal" in="SourceGraphic" in2="effect1_dropShadow_533_446" result="shape"/>
</filter>
<filter id="filter2_d_533_446" x="234.655" y="122" width="44" height="43" filterUnits="userSpaceOnUse" color-interpolation-filters="sRGB">
<feFlood flood-opacity="0" result="BackgroundImageFix"/>
<feColorMatrix in="SourceAlpha" type="matrix" values="0 0 0 0 0 0 0 0 0 0 0 0 0 0 0 0 0 0 127 0" result="hardAlpha"/>
<feOffset dy="2"/>
<feGaussianBlur stdDeviation="2"/>
<feComposite in2="hardAlpha" operator="out"/>
<feColorMatrix type="matrix" values="0 0 0 0 0 0 0 0 0 0 0 0 0 0 0 0 0 0 0.25 0"/>
<feBlend mode="normal" in2="BackgroundImageFix" result="effect1_dropShadow_533_446"/>
<feBlend mode="normal" in="SourceGraphic" in2="effect1_dropShadow_533_446" result="shape"/>
</filter>
<filter id="filter3_d_533_446" x="283.655" y="122" width="44" height="43" filterUnits="userSpaceOnUse" color-interpolation-filters="sRGB">
<feFlood flood-opacity="0" result="BackgroundImageFix"/>
<feColorMatrix in="SourceAlpha" type="matrix" values="0 0 0 0 0 0 0 0 0 0 0 0 0 0 0 0 0 0 127 0" result="hardAlpha"/>
<feOffset dy="2"/>
<feGaussianBlur stdDeviation="2"/>
<feComposite in2="hardAlpha" operator="out"/>
<feColorMatrix type="matrix" values="0 0 0 0 0 0 0 0 0 0 0 0 0 0 0 0 0 0 0.25 0"/>
<feBlend mode="normal" in2="BackgroundImageFix" result="effect1_dropShadow_533_446"/>
<feBlend mode="normal" in="SourceGraphic" in2="effect1_dropShadow_533_446" result="shape"/>
</filter>
</defs>
</svg>
