<svg width="191" height="67" viewBox="0 0 191 67" fill="none" xmlns="http://www.w3.org/2000/svg">
    <rect x="0.5" y="0.5" width="190" height="66" rx="9.5" stroke="#00DA9A" />
    <path
        d="M22.232 32V15.104H15.992V11.136H33.208V15.104H26.968V32H22.232ZM43.7875 32.384C42.4008 32.384 41.0888 32.064 39.8515 31.424C38.6142 30.7627 37.6115 29.8133 36.8435 28.576C36.0755 27.3173 35.6915 25.8133 35.6915 24.064C35.6915 22.3147 36.0755 20.8213 36.8435 19.584C37.6115 18.3253 38.6142 17.376 39.8515 16.736C41.0888 16.0747 42.4008 15.744 43.7875 15.744C45.1742 15.744 46.4862 16.0747 47.7235 16.736C48.9608 17.376 49.9635 18.3253 50.7315 19.584C51.4995 20.8213 51.8835 22.3147 51.8835 24.064C51.8835 25.8133 51.4995 27.3173 50.7315 28.576C49.9635 29.8133 48.9608 30.7627 47.7235 31.424C46.4862 32.064 45.1742 32.384 43.7875 32.384ZM43.7875 28.576C44.5128 28.576 45.1102 28.3947 45.5795 28.032C46.0702 27.6693 46.4328 27.1467 46.6675 26.464C46.9235 25.7813 47.0515 24.9813 47.0515 24.064C47.0515 23.1467 46.9235 22.3467 46.6675 21.664C46.4328 20.9813 46.0702 20.4587 45.5795 20.096C45.1102 19.7333 44.5128 19.552 43.7875 19.552C43.0622 19.552 42.4542 19.7333 41.9635 20.096C41.4942 20.4587 41.1315 20.9813 40.8755 21.664C40.6408 22.3467 40.5235 23.1467 40.5235 24.064C40.5235 24.9813 40.6408 25.7813 40.8755 26.464C41.1315 27.1467 41.4942 27.6693 41.9635 28.032C42.4542 28.3947 43.0622 28.576 43.7875 28.576ZM60.543 32.384C59.4763 32.384 58.5483 32.1707 57.759 31.744C56.991 31.3173 56.3937 30.7413 55.967 30.016C55.5403 29.2907 55.327 28.48 55.327 27.584C55.327 25.8133 56.127 24.4587 57.727 23.52C59.3483 22.5813 62.0363 22.0053 65.791 21.792C65.727 21.3013 65.567 20.8853 65.311 20.544C65.055 20.2027 64.6817 19.9467 64.191 19.776C63.7217 19.584 63.1243 19.488 62.399 19.488C61.887 19.488 61.375 19.552 60.863 19.68C60.351 19.7867 59.8177 19.9573 59.263 20.192C58.7297 20.4053 58.1643 20.6613 57.567 20.96L55.903 17.888C56.6283 17.4613 57.3857 17.088 58.175 16.768C58.9857 16.448 59.8177 16.2027 60.671 16.032C61.5457 15.84 62.431 15.744 63.327 15.744C64.8203 15.744 66.1003 16.0107 67.167 16.544C68.2337 17.056 69.055 17.8453 69.631 18.912C70.207 19.9573 70.495 21.2907 70.495 22.912V32H66.655L66.303 30.208H66.175C65.3857 30.8053 64.511 31.3173 63.551 31.744C62.591 32.1707 61.5883 32.384 60.543 32.384ZM62.047 28.736C62.751 28.736 63.4123 28.5973 64.031 28.32C64.6497 28.0213 65.2363 27.6587 65.791 27.232V24.608C64.2337 24.6933 63.0177 24.8533 62.143 25.088C61.2897 25.3227 60.6923 25.6213 60.351 25.984C60.0097 26.3467 59.839 26.7627 59.839 27.232C59.839 27.552 59.9243 27.8293 60.095 28.064C60.287 28.2987 60.543 28.4693 60.863 28.576C61.2043 28.6827 61.599 28.736 62.047 28.736ZM82.0345 32.384C80.6265 32.384 79.2292 32.1493 77.8425 31.68C76.4558 31.1893 75.2612 30.6133 74.2585 29.952L76.2745 27.008C77.2345 27.6267 78.2478 28.096 79.3145 28.416C80.4025 28.736 81.5225 28.896 82.6745 28.896C83.5492 28.896 84.1892 28.768 84.5945 28.512C84.9998 28.2347 85.2025 27.9147 85.2025 27.552C85.2025 27.3173 85.1385 27.1253 85.0105 26.976C84.9038 26.8053 84.7012 26.656 84.4025 26.528C84.1252 26.3787 83.7305 26.24 83.2185 26.112C82.7278 25.984 82.0878 25.8347 81.2985 25.664C79.1438 25.1947 77.5972 24.5547 76.6585 23.744C75.7198 22.9333 75.2505 21.92 75.2505 20.704C75.2505 19.2107 75.9012 18.016 77.2025 17.12C78.5038 16.2027 80.2852 15.744 82.5465 15.744C83.9758 15.744 85.2665 15.9787 86.4185 16.448C87.5918 16.896 88.5945 17.3867 89.4265 17.92L87.3145 20.736C86.5252 20.2453 85.6825 19.872 84.7865 19.616C83.8905 19.36 83.0052 19.232 82.1305 19.232C81.6398 19.232 81.2345 19.2853 80.9145 19.392C80.5945 19.4773 80.3492 19.6267 80.1785 19.84C80.0078 20.032 79.9225 20.2453 79.9225 20.48C79.9225 20.9067 80.1998 21.2267 80.7545 21.44C81.3092 21.632 82.2585 21.8773 83.6025 22.176C85.2238 22.5387 86.4932 22.9547 87.4105 23.424C88.3278 23.8933 88.9572 24.4373 89.2985 25.056C89.6612 25.6533 89.8425 26.3893 89.8425 27.264C89.8425 28.224 89.5438 29.088 88.9465 29.856C88.3705 30.624 87.4958 31.2427 86.3225 31.712C85.1705 32.16 83.7412 32.384 82.0345 32.384ZM104.166 32.384C102.481 32.384 101.137 32.096 100.134 31.52C99.1527 30.9227 98.438 30.1013 97.99 29.056C97.542 28.0107 97.318 26.7947 97.318 25.408V19.808H93.35V16.32L97.542 16.128L98.15 11.264H102.022V16.128H108.742V19.808H102.022V25.376C102.022 26.1653 102.139 26.8053 102.374 27.296C102.609 27.7867 102.971 28.1493 103.462 28.384C103.953 28.5973 104.582 28.704 105.35 28.704C105.969 28.704 106.534 28.6507 107.046 28.544C107.558 28.4373 108.049 28.2987 108.518 28.128L109.35 31.52C108.646 31.7333 107.867 31.9253 107.014 32.096C106.182 32.288 105.233 32.384 104.166 32.384Z"
        fill="#00DA9A" />
    <rect x="15" y="47" width="162" height="10" fill="#D9D9D9" />
    <rect x="15" y="47" width="86" height="10" fill="#00DA9A" />
    <line x1="164.677" y1="24.4031" x2="177.604" y2="11.8778" stroke="#979797" stroke-width="2"
        stroke-linecap="round" />
    <line x1="165.117" y1="11.4449" x2="177.642" y2="24.3723" stroke="#979797" stroke-width="2"
        stroke-linecap="round" />
</svg>