<svg width="100%" height="100%" viewBox="0 0 175 101" fill="none"
    xmlns="http://www.w3.org/2000/svg">
    <path d="M64.1428 77V64.328H59.4628V61.352H72.3748V64.328H67.6948V77H64.1428ZM81.0294 77.288C79.7974 77.288 78.6774 77.048 77.6694 76.568C76.6774 76.072 75.8854 75.36 75.2934 74.432C74.7174 73.488 74.4294 72.36 74.4294 71.048C74.4294 69.752 74.7254 68.64 75.3174 67.712C75.9094 66.768 76.6774 66.048 77.6214 65.552C78.5654 65.056 79.5654 64.808 80.6214 64.808C81.8534 64.808 82.8854 65.064 83.7174 65.576C84.5494 66.072 85.1734 66.752 85.5894 67.616C86.0214 68.464 86.2374 69.432 86.2374 70.52C86.2374 70.84 86.2134 71.152 86.1654 71.456C86.1334 71.744 86.1014 71.96 86.0694 72.104H77.0454V69.728H83.6934L83.1414 70.4C83.1414 69.44 82.9334 68.72 82.5174 68.24C82.1174 67.744 81.5254 67.496 80.7414 67.496C80.1654 67.496 79.6614 67.624 79.2294 67.88C78.7974 68.136 78.4614 68.528 78.2214 69.056C77.9814 69.584 77.8614 70.248 77.8614 71.048C77.8614 71.864 78.0054 72.536 78.2934 73.064C78.5814 73.576 78.9974 73.96 79.5414 74.216C80.0854 74.472 80.7414 74.6 81.5094 74.6C82.0534 74.6 82.5654 74.528 83.0454 74.384C83.5414 74.24 84.0534 74.032 84.5814 73.76L85.7574 75.896C85.0694 76.328 84.3094 76.672 83.4774 76.928C82.6454 77.168 81.8294 77.288 81.0294 77.288ZM88.388 77L92.516 70.808L88.652 65.096H92.444L93.668 67.016C93.86 67.352 94.068 67.696 94.292 68.048C94.516 68.384 94.724 68.72 94.916 69.056H95.012C95.156 68.72 95.316 68.376 95.492 68.024C95.684 67.672 95.852 67.336 95.996 67.016L97.052 65.096H100.748L96.86 71.216L100.988 77H97.196L95.828 75.032C95.604 74.696 95.372 74.352 95.132 74C94.908 73.648 94.684 73.304 94.46 72.968H94.364C94.188 73.304 94.004 73.648 93.812 74C93.62 74.336 93.436 74.68 93.26 75.032L92.084 77H88.388ZM111.203 77.288C109.939 77.288 108.931 77.072 108.179 76.64C107.443 76.192 106.907 75.576 106.571 74.792C106.235 74.008 106.067 73.096 106.067 72.056V67.856H103.091V65.24L106.235 65.096L106.691 61.448H109.595V65.096H114.635V67.856H109.595V72.032C109.595 72.624 109.683 73.104 109.859 73.472C110.035 73.84 110.307 74.112 110.675 74.288C111.043 74.448 111.515 74.528 112.091 74.528C112.555 74.528 112.979 74.488 113.363 74.408C113.747 74.328 114.115 74.224 114.467 74.096L115.091 76.64C114.563 76.8 113.979 76.944 113.339 77.072C112.715 77.216 112.003 77.288 111.203 77.288Z" fill="#00DA9A"/>
    <path d="M114.782 81.7842L108.389 88.1787L107.837 88.7305L108.41 89.2598L115.917 96.1885L112.167 99.9395L104.917 92.6895L101.97 95.6367L97.9941 99.6113L89.1875 73.1895L114.782 81.7842Z" fill="#71FFAC" stroke="#00CF92" stroke-width="1.5"/>
    <rect x="0.5" y="0.5" width="174" height="47" rx="9.5" stroke="#00DA9A"/>
    <path d="M27.232 35V18.104H20.992V14.136H38.208V18.104H31.968V35H27.232ZM48.7875 35.384C47.4008 35.384 46.0888 35.064 44.8515 34.424C43.6142 33.7627 42.6115 32.8133 41.8435 31.576C41.0755 30.3173 40.6915 28.8133 40.6915 27.064C40.6915 25.3147 41.0755 23.8213 41.8435 22.584C42.6115 21.3253 43.6142 20.376 44.8515 19.736C46.0888 19.0747 47.4008 18.744 48.7875 18.744C50.1742 18.744 51.4862 19.0747 52.7235 19.736C53.9608 20.376 54.9635 21.3253 55.7315 22.584C56.4995 23.8213 56.8835 25.3147 56.8835 27.064C56.8835 28.8133 56.4995 30.3173 55.7315 31.576C54.9635 32.8133 53.9608 33.7627 52.7235 34.424C51.4862 35.064 50.1742 35.384 48.7875 35.384ZM48.7875 31.576C49.5128 31.576 50.1102 31.3947 50.5795 31.032C51.0702 30.6693 51.4328 30.1467 51.6675 29.464C51.9235 28.7813 52.0515 27.9813 52.0515 27.064C52.0515 26.1467 51.9235 25.3467 51.6675 24.664C51.4328 23.9813 51.0702 23.4587 50.5795 23.096C50.1102 22.7333 49.5128 22.552 48.7875 22.552C48.0622 22.552 47.4542 22.7333 46.9635 23.096C46.4942 23.4587 46.1315 23.9813 45.8755 24.664C45.6408 25.3467 45.5235 26.1467 45.5235 27.064C45.5235 27.9813 45.6408 28.7813 45.8755 29.464C46.1315 30.1467 46.4942 30.6693 46.9635 31.032C47.4542 31.3947 48.0622 31.576 48.7875 31.576ZM67.975 35.384C66.5883 35.384 65.2763 35.064 64.039 34.424C62.8017 33.7627 61.799 32.8133 61.031 31.576C60.263 30.3173 59.879 28.8133 59.879 27.064C59.879 25.3147 60.263 23.8213 61.031 22.584C61.799 21.3253 62.8017 20.376 64.039 19.736C65.2763 19.0747 66.5883 18.744 67.975 18.744C69.3617 18.744 70.6737 19.0747 71.911 19.736C73.1483 20.376 74.151 21.3253 74.919 22.584C75.687 23.8213 76.071 25.3147 76.071 27.064C76.071 28.8133 75.687 30.3173 74.919 31.576C74.151 32.8133 73.1483 33.7627 71.911 34.424C70.6737 35.064 69.3617 35.384 67.975 35.384ZM67.975 31.576C68.7003 31.576 69.2977 31.3947 69.767 31.032C70.2577 30.6693 70.6203 30.1467 70.855 29.464C71.111 28.7813 71.239 27.9813 71.239 27.064C71.239 26.1467 71.111 25.3467 70.855 24.664C70.6203 23.9813 70.2577 23.4587 69.767 23.096C69.2977 22.7333 68.7003 22.552 67.975 22.552C67.2497 22.552 66.6417 22.7333 66.151 23.096C65.6817 23.4587 65.319 23.9813 65.063 24.664C64.8283 25.3467 64.711 26.1467 64.711 27.064C64.711 27.9813 64.8283 28.7813 65.063 29.464C65.319 30.1467 65.6817 30.6693 66.151 31.032C66.6417 31.3947 67.2497 31.576 67.975 31.576ZM90.2025 35.384C88.2185 35.384 86.7145 34.7867 85.6905 33.592C84.6665 32.3973 84.1545 30.7973 84.1545 28.792V16.28H79.1945V12.6H88.8585V28.984C88.8585 29.9653 89.1252 30.648 89.6585 31.032C90.1918 31.3947 90.7785 31.576 91.4185 31.576C91.8025 31.576 92.1865 31.5333 92.5705 31.448C92.9758 31.3627 93.4238 31.2347 93.9145 31.064L94.9385 34.52C94.1278 34.776 93.3812 34.9787 92.6985 35.128C92.0372 35.2987 91.2052 35.384 90.2025 35.384ZM109.166 35.384C107.481 35.384 106.137 35.096 105.134 34.52C104.153 33.9227 103.438 33.1013 102.99 32.056C102.542 31.0107 102.318 29.7947 102.318 28.408V22.808H98.35V19.32L102.542 19.128L103.15 14.264H107.022V19.128H113.742V22.808H107.022V28.376C107.022 29.1653 107.139 29.8053 107.374 30.296C107.609 30.7867 107.971 31.1493 108.462 31.384C108.953 31.5973 109.582 31.704 110.35 31.704C110.969 31.704 111.534 31.6507 112.046 31.544C112.558 31.4373 113.049 31.2987 113.518 31.128L114.35 34.52C113.646 34.7333 112.867 34.9253 112.014 35.096C111.182 35.288 110.233 35.384 109.166 35.384ZM124.834 35V22.808H118.434V19.128H129.538V35H124.834ZM126.978 16.632C126.082 16.632 125.335 16.376 124.738 15.864C124.14 15.3307 123.842 14.6373 123.842 13.784C123.842 12.9093 124.14 12.2053 124.738 11.672C125.335 11.1173 126.082 10.84 126.978 10.84C127.895 10.84 128.642 11.1173 129.218 11.672C129.815 12.2053 130.114 12.9093 130.114 13.784C130.114 14.6373 129.815 15.3307 129.218 15.864C128.642 16.376 127.895 16.632 126.978 16.632ZM137.429 40.888V19.128H141.269L141.621 20.728H141.717C142.378 20.152 143.114 19.6827 143.925 19.32C144.757 18.936 145.6 18.744 146.453 18.744C147.776 18.744 148.906 19.0747 149.845 19.736C150.805 20.3973 151.541 21.336 152.053 22.552C152.565 23.768 152.821 25.1867 152.821 26.808C152.821 28.6213 152.49 30.168 151.829 31.448C151.189 32.728 150.346 33.7093 149.301 34.392C148.256 35.0533 147.136 35.384 145.941 35.384C145.237 35.384 144.544 35.2347 143.861 34.936C143.2 34.6373 142.592 34.2107 142.037 33.656H141.909L142.133 36.248V40.888H137.429ZM144.853 31.544C145.45 31.544 145.984 31.384 146.453 31.064C146.922 30.744 147.296 30.2427 147.573 29.56C147.85 28.856 147.989 27.96 147.989 26.872C147.989 25.912 147.882 25.1227 147.669 24.504C147.456 23.864 147.136 23.384 146.709 23.064C146.304 22.744 145.76 22.584 145.077 22.584C144.565 22.584 144.064 22.7013 143.573 22.936C143.104 23.1493 142.624 23.5227 142.133 24.056V30.488C142.581 30.8507 143.04 31.1173 143.509 31.288C144 31.4587 144.448 31.544 144.853 31.544Z" fill="#00DA9A"/>
    <path d="M88 57L93.7735 47H82.2265L88 57Z" fill="#00DA9A"/>
</svg>
