<svg width="64" height="64" viewBox="0 0 64 64" fill="none" xmlns="http://www.w3.org/2000/svg">
<path d="M8.53443 43.4861C12.789 47.7454 18.4547 50.3024 24.4642 50.6752C30.4737 51.048 36.4122 49.211 41.1609 45.5103L57.5002 61.8448C58.0797 62.4044 58.8558 62.714 59.6613 62.707C60.4669 62.7 61.2375 62.3769 61.8072 61.8074C62.3769 61.2379 62.7 60.4676 62.707 59.6622C62.714 58.8569 62.4043 58.081 61.8446 57.5017L45.5053 41.1671C49.3714 36.2071 51.1992 29.9595 50.616 23.6985C50.0328 17.4375 47.0825 11.6347 42.3667 7.47355C37.651 3.31242 31.5251 1.10636 25.2383 1.3053C18.9516 1.50423 12.9775 4.09316 8.53443 8.54411C6.23868 10.838 4.41753 13.5616 3.17501 16.5594C1.9325 19.5571 1.29297 22.7702 1.29297 26.0151C1.29297 29.26 1.9325 32.4731 3.17501 35.4709C4.41753 38.4686 6.23868 41.1922 8.53443 43.4861ZM12.8789 12.8934C15.9162 9.85704 19.9127 7.96739 24.1875 7.54645C28.4622 7.12551 32.7507 8.19932 36.3222 10.5849C39.8938 12.9705 42.5275 16.5203 43.7746 20.6295C45.0217 24.7387 44.805 29.153 43.1615 33.1204C41.518 37.0878 38.5494 40.3628 34.7613 42.3874C30.9733 44.412 26.6002 45.0609 22.3873 44.2237C18.1743 43.3864 14.3821 41.1147 11.6566 37.7956C8.93123 34.4765 7.44128 30.3154 7.44063 26.0213C7.4322 23.5811 7.90858 21.1636 8.84213 18.909C9.77567 16.6544 11.1478 14.6076 12.8789 12.8873V12.8934Z" fill="#4B9FFF"/>
</svg>
