<svg width="299" height="61" viewBox="0 0 299 61" fill="none"
  xmlns="http://www.w3.org/2000/svg">
  <path d="M51.5467 25.1228L23.4263 6.84352L5.23786 11.4401L29.8365 34.5284L51.2455 25.7262L51.5467 25.1228Z" fill="white" fill-opacity="0.6" stroke="black" stroke-width="0.7"/>
  <path d="M47.8619 44.6467L51.5355 25.5636L29.5568 34.421L28.7765 54.4034L47.8619 44.6467Z" fill="white" fill-opacity="0.6" stroke="black" stroke-width="0.7"/>
  <path d="M75.562 41.039L63.596 33.289V30.127L75.562 22.377V26.5L67.347 31.646V31.77L75.562 36.916V41.039ZM266.761 46.96L276.96 19.99H280.773L270.574 46.96H266.761ZM286.093 41.039V36.916L294.308 31.77V31.646L286.093 26.5V22.377L298.059 30.127V33.289L286.093 41.039Z" fill="#707070"/>
  <path d="M89.2209 42.372C87.5056 42.372 85.9452 41.9897 84.5399 41.225C83.1346 40.4397 82.0186 39.2823 81.1919 37.753C80.3652 36.203 79.9519 34.2913 79.9519 32.018C79.9519 29.7653 80.3652 27.8537 81.1919 26.283C82.0186 24.6917 83.1346 23.4827 84.5399 22.656C85.9659 21.8293 87.5469 21.416 89.2829 21.416C90.6469 21.416 91.8146 21.6847 92.7859 22.222C93.7572 22.7387 94.5632 23.3277 95.2039 23.989L92.6929 26.81C92.2589 26.376 91.7836 26.0247 91.2669 25.756C90.7502 25.4873 90.0889 25.353 89.2829 25.353C88.4149 25.353 87.6296 25.6217 86.9269 26.159C86.2242 26.6757 85.6662 27.4197 85.2529 28.391C84.8602 29.3623 84.6639 30.5197 84.6639 31.863C84.6639 33.2477 84.8396 34.436 85.1909 35.428C85.5422 36.3993 86.0796 37.1433 86.8029 37.66C87.5262 38.1767 88.4149 38.435 89.4689 38.435C89.8616 38.435 90.2336 38.3833 90.5849 38.28C90.9569 38.1767 91.2462 38.0217 91.4529 37.815V34.343H88.5079V30.623H95.5449V39.923C94.8629 40.5637 93.9536 41.132 92.8169 41.628C91.7009 42.124 90.5022 42.372 89.2209 42.372ZM104.12 42.372C103.086 42.372 102.187 42.1653 101.423 41.752C100.679 41.3387 100.1 40.7807 99.6868 40.078C99.2734 39.3753 99.0668 38.59 99.0668 37.722C99.0668 36.0067 99.8418 34.6943 101.392 33.785C102.962 32.8757 105.566 32.3177 109.204 32.111C109.142 31.6357 108.987 31.2327 108.739 30.902C108.491 30.5713 108.129 30.3233 107.654 30.158C107.199 29.972 106.62 29.879 105.918 29.879C105.422 29.879 104.926 29.941 104.43 30.065C103.934 30.1683 103.417 30.3337 102.88 30.561C102.363 30.7677 101.815 31.0157 101.237 31.305L99.6248 28.329C100.327 27.9157 101.061 27.554 101.826 27.244C102.611 26.934 103.417 26.6963 104.244 26.531C105.091 26.345 105.949 26.252 106.817 26.252C108.263 26.252 109.503 26.5103 110.537 27.027C111.57 27.523 112.366 28.2877 112.924 29.321C113.482 30.3337 113.761 31.6253 113.761 33.196V42H110.041L109.7 40.264H109.576C108.811 40.8427 107.964 41.3387 107.034 41.752C106.104 42.1653 105.132 42.372 104.12 42.372ZM105.577 38.838C106.259 38.838 106.899 38.7037 107.499 38.435C108.098 38.1457 108.666 37.7943 109.204 37.381V34.839C107.695 34.9217 106.517 35.0767 105.67 35.304C104.843 35.5313 104.264 35.8207 103.934 36.172C103.603 36.5233 103.438 36.9263 103.438 37.381C103.438 37.691 103.52 37.9597 103.686 38.187C103.872 38.4143 104.12 38.5797 104.43 38.683C104.76 38.7863 105.143 38.838 105.577 38.838ZM116.849 42V26.624H120.29L120.6 28.515H120.724C121.013 27.895 121.416 27.368 121.933 26.934C122.449 26.4793 123.152 26.252 124.041 26.252C124.702 26.252 125.27 26.469 125.746 26.903C126.221 27.3163 126.541 27.9363 126.707 28.763C126.996 28.0603 127.409 27.4713 127.947 26.996C128.505 26.5 129.228 26.252 130.117 26.252C131.212 26.252 132.059 26.6963 132.659 27.585C133.258 28.4737 133.558 29.6827 133.558 31.212V42H129.218V31.522C129.218 30.592 128.939 30.127 128.381 30.127C128.091 30.127 127.833 30.251 127.606 30.499C127.399 30.7263 127.192 31.0983 126.986 31.615V42H123.421V31.522C123.421 31.0467 123.348 30.6953 123.204 30.468C123.059 30.2407 122.842 30.127 122.553 30.127C122.263 30.127 122.015 30.251 121.809 30.499C121.602 30.7263 121.395 31.0983 121.189 31.615V42H116.849ZM144.582 42.372C142.99 42.372 141.544 42.062 140.242 41.442C138.96 40.8013 137.937 39.8817 137.173 38.683C136.429 37.4637 136.057 36.0067 136.057 34.312C136.057 32.638 136.439 31.2017 137.204 30.003C137.968 28.7837 138.96 27.8537 140.18 27.213C141.399 26.5723 142.691 26.252 144.055 26.252C145.646 26.252 146.979 26.5827 148.054 27.244C149.128 27.8847 149.934 28.763 150.472 29.879C151.03 30.9743 151.309 32.2247 151.309 33.63C151.309 34.0433 151.278 34.4463 151.216 34.839C151.174 35.211 151.133 35.49 151.092 35.676H139.436V32.607H148.023L147.31 33.475C147.31 32.235 147.041 31.305 146.504 30.685C145.987 30.0443 145.222 29.724 144.21 29.724C143.466 29.724 142.815 29.8893 142.257 30.22C141.699 30.5507 141.265 31.057 140.955 31.739C140.645 32.421 140.49 33.2787 140.49 34.312C140.49 35.366 140.676 36.234 141.048 36.916C141.42 37.5773 141.957 38.0733 142.66 38.404C143.362 38.7347 144.21 38.9 145.202 38.9C145.904 38.9 146.566 38.807 147.186 38.621C147.826 38.435 148.488 38.1663 149.17 37.815L150.689 40.574C149.8 41.132 148.818 41.5763 147.744 41.907C146.669 42.217 145.615 42.372 144.582 42.372ZM159.542 42V26.221C159.542 25.043 159.78 23.9787 160.255 23.028C160.751 22.0567 161.495 21.292 162.487 20.734C163.5 20.176 164.812 19.897 166.424 19.897C167.313 19.897 168.15 19.99 168.935 20.176C169.721 20.3413 170.434 20.5273 171.074 20.734L170.206 24.082C169.71 23.896 169.194 23.7513 168.656 23.648C168.14 23.5447 167.582 23.493 166.982 23.493C166.011 23.493 165.288 23.71 164.812 24.144C164.337 24.578 164.099 25.26 164.099 26.19V42H159.542ZM155.481 30.189V26.81L159.697 26.624H169.4V30.189H155.481ZM178.471 42.372C177.438 42.372 176.539 42.1653 175.774 41.752C175.03 41.3387 174.452 40.7807 174.038 40.078C173.625 39.3753 173.418 38.59 173.418 37.722C173.418 36.0067 174.193 34.6943 175.743 33.785C177.314 32.8757 179.918 32.3177 183.555 32.111C183.493 31.6357 183.338 31.2327 183.09 30.902C182.842 30.5713 182.481 30.3233 182.005 30.158C181.551 29.972 180.972 29.879 180.269 29.879C179.773 29.879 179.277 29.941 178.781 30.065C178.285 30.1683 177.769 30.3337 177.231 30.561C176.715 30.7677 176.167 31.0157 175.588 31.305L173.976 28.329C174.679 27.9157 175.413 27.554 176.177 27.244C176.963 26.934 177.769 26.6963 178.595 26.531C179.443 26.345 180.3 26.252 181.168 26.252C182.615 26.252 183.855 26.5103 184.888 27.027C185.922 27.523 186.717 28.2877 187.275 29.321C187.833 30.3337 188.112 31.6253 188.112 33.196V42H184.392L184.051 40.264H183.927C183.163 40.8427 182.315 41.3387 181.385 41.752C180.455 42.1653 179.484 42.372 178.471 42.372ZM179.928 38.838C180.61 38.838 181.251 38.7037 181.85 38.435C182.45 38.1457 183.018 37.7943 183.555 37.381V34.839C182.047 34.9217 180.869 35.0767 180.021 35.304C179.195 35.5313 178.616 35.8207 178.285 36.172C177.955 36.5233 177.789 36.9263 177.789 37.381C177.789 37.691 177.872 37.9597 178.037 38.187C178.223 38.4143 178.471 38.5797 178.781 38.683C179.112 38.7863 179.494 38.838 179.928 38.838ZM200.748 42.372C199.136 42.372 197.679 42.062 196.377 41.442C195.096 40.8013 194.073 39.8817 193.308 38.683C192.564 37.4637 192.192 36.0067 192.192 34.312C192.192 32.6173 192.606 31.1707 193.432 29.972C194.259 28.7527 195.344 27.833 196.687 27.213C198.051 26.5723 199.519 26.252 201.089 26.252C202.309 26.252 203.414 26.4483 204.406 26.841C205.398 27.213 206.215 27.709 206.855 28.329L204.747 31.15C204.148 30.7367 203.569 30.437 203.011 30.251C202.474 30.0443 201.916 29.941 201.337 29.941C200.469 29.941 199.694 30.1167 199.012 30.468C198.33 30.8193 197.803 31.3257 197.431 31.987C197.059 32.6483 196.873 33.4233 196.873 34.312C196.873 35.2007 197.049 35.9757 197.4 36.637C197.772 37.2983 198.279 37.8047 198.919 38.156C199.581 38.5073 200.335 38.683 201.182 38.683C201.988 38.683 202.722 38.5383 203.383 38.249C204.065 37.9597 204.685 37.6187 205.243 37.226L207.072 40.109C206.163 40.8737 205.14 41.442 204.003 41.814C202.887 42.186 201.802 42.372 200.748 42.372ZM218.933 42.372C217.342 42.372 215.895 42.062 214.593 41.442C213.312 40.8013 212.289 39.8817 211.524 38.683C210.78 37.4637 210.408 36.0067 210.408 34.312C210.408 32.638 210.79 31.2017 211.555 30.003C212.32 28.7837 213.312 27.8537 214.531 27.213C215.75 26.5723 217.042 26.252 218.406 26.252C219.997 26.252 221.33 26.5827 222.405 27.244C223.48 27.8847 224.286 28.763 224.823 29.879C225.381 30.9743 225.66 32.2247 225.66 33.63C225.66 34.0433 225.629 34.4463 225.567 34.839C225.526 35.211 225.484 35.49 225.443 35.676H213.787V32.607H222.374L221.661 33.475C221.661 32.235 221.392 31.305 220.855 30.685C220.338 30.0443 219.574 29.724 218.561 29.724C217.817 29.724 217.166 29.8893 216.608 30.22C216.05 30.5507 215.616 31.057 215.306 31.739C214.996 32.421 214.841 33.2787 214.841 34.312C214.841 35.366 215.027 36.234 215.399 36.916C215.771 37.5773 216.308 38.0733 217.011 38.404C217.714 38.7347 218.561 38.9 219.553 38.9C220.256 38.9 220.917 38.807 221.537 38.621C222.178 38.435 222.839 38.1663 223.521 37.815L225.04 40.574C224.151 41.132 223.17 41.5763 222.095 41.907C221.02 42.217 219.966 42.372 218.933 42.372ZM236.653 42.372C235.413 42.372 234.328 42.1963 233.398 41.845C232.489 41.473 231.724 40.946 231.104 40.264C230.505 39.5613 230.05 38.714 229.74 37.722C229.43 36.7093 229.275 35.5417 229.275 34.219V21.788H233.832V34.684C233.832 35.49 233.935 36.172 234.142 36.73C234.349 37.288 234.659 37.7117 235.072 38.001C235.485 38.2903 236.012 38.435 236.653 38.435C237.294 38.435 237.821 38.2903 238.234 38.001C238.668 37.7117 238.988 37.288 239.195 36.73C239.402 36.172 239.505 35.49 239.505 34.684V21.788H243.907V34.219C243.907 35.5417 243.762 36.7093 243.473 37.722C243.184 38.714 242.729 39.5613 242.109 40.264C241.51 40.946 240.755 41.473 239.846 41.845C238.937 42.1963 237.872 42.372 236.653 42.372ZM248.173 42V38.156H252.885V25.632H248.173V21.788H262.185V25.632H257.473V38.156H262.185V42H248.173Z" fill="#00CF92"/>
</svg>
